<?xml version="1.0" encoding="iso-8859-1"?>
<!-- Generator: Adobe Illustrator 19.0.0, SVG Export Plug-In . SVG Version: 6.00 Build 0)  -->
<svg version="1.1" id="Layer_1" xmlns="http://www.w3.org/2000/svg" xmlns:xlink="http://www.w3.org/1999/xlink" x="0px" y="0px"
	 viewBox="0 0 511.997 511.997" style="enable-background:new 0 0 511.997 511.997;" xml:space="preserve">
<g>
	<path style="fill:#4A5058;" d="M258.097,466.391c-4.289,0-8.565-1.711-11.722-5.094c-6.038-6.473-5.686-16.613,0.786-22.651
		c14.39-13.425,25.142-39.858,25.142-54.524c0-8.851,7.175-16.026,16.026-16.026s16.026,7.175,16.026,16.026
		c0,24.814-15.848,59.786-35.33,77.959C265.936,464.964,262.012,466.391,258.097,466.391z"/>
	<path style="fill:#4A5058;" d="M322.433,466.391c-4.289,0-8.565-1.711-11.722-5.094c-6.038-6.473-5.687-16.613,0.786-22.651
		c14.389-13.424,25.141-39.856,25.141-54.524c0-8.851,7.175-16.026,16.026-16.026s16.026,7.175,16.026,16.026
		c0,24.815-15.848,59.787-35.329,77.959C330.273,464.964,326.348,466.391,322.433,466.391z"/>
</g>
<path style="opacity:0.15;enable-background:new    ;" d="M288.329,368.096c-8.851,0-16.026,7.175-16.026,16.026
	c0,14.666-10.752,41.098-25.142,54.524c-6.472,6.037-6.824,16.178-0.786,22.651c3.156,3.382,7.433,5.094,11.722,5.094
	c3.915,0,7.84-1.427,10.929-4.309c19.48-18.173,35.33-53.146,35.33-77.959C304.355,375.272,297.18,368.096,288.329,368.096z
	 M352.664,368.096c-8.851,0-16.026,7.175-16.026,16.026c0,14.667-10.752,41.099-25.141,54.524
	c-6.472,6.037-6.824,16.178-0.786,22.651c3.156,3.382,7.433,5.094,11.722,5.094c3.915,0,7.84-1.427,10.929-4.309
	c19.479-18.172,35.329-53.144,35.329-77.959C368.69,375.272,361.515,368.096,352.664,368.096z"/>
<path style="opacity:0.1;enable-background:new    ;" d="M352.664,368.096c-8.851,0-16.026,7.175-16.026,16.026
	c0,8.039-3.235,19.611-8.523,30.639h34.582c3.783-10.694,5.994-21.375,5.994-30.639C368.69,375.272,361.515,368.096,352.664,368.096
	z M288.329,368.096c-8.851,0-16.026,7.175-16.026,16.026c0,8.039-3.235,19.61-8.524,30.639h34.582
	c3.783-10.694,5.995-21.375,5.995-30.639C304.355,375.272,297.18,368.096,288.329,368.096z"/>
<path style="fill:#E8E8E8;" d="M320.676,60.915c-20.411,20.411-42.62,96.008-32.357,106.271
	c10.263,10.263,85.86-11.946,106.271-32.357c20.411-20.411,20.411-53.503,0-73.914C374.179,40.504,341.086,40.504,320.676,60.915z"
	/>
<path style="fill:#4A5058;" d="M50.142,240.729l-37.308,22.829c-6.535,3.999-6.535,13.491,0,17.49l37.308,22.829
	c6.937,4.245,16.023,1.077,18.817-6.561l3.577-9.779c3.598-9.837,3.598-20.63,0-30.467l-3.577-9.78
	C66.165,239.652,57.079,236.485,50.142,240.729z"/>
<path style="opacity:0.1;enable-background:new    ;" d="M72.536,257.07l-3.577-9.78c-2.794-7.638-11.88-10.806-18.817-6.561
	l-16.034,9.812c-1.246,7.067-1.899,14.338-1.899,21.763s0.654,14.696,1.899,21.763l16.034,9.812
	c6.937,4.244,16.023,1.077,18.817-6.561l3.577-9.779C76.134,277.7,76.134,266.907,72.536,257.07z"/>
<path style="fill:#F7DA70;" d="M379.589,396.783c68.749,0,124.479-55.731,124.479-124.479c0-68.749-55.731-124.479-124.479-124.479
	H169.636c-68.749,0-124.48,55.731-124.48,124.479c0,68.749,55.731,124.479,124.48,124.479H379.589z"/>
<path style="fill:#EDBCB9;" d="M423.072,276.56c-7.612,0-13.782-6.17-13.782-13.782c0,7.612-6.17,13.782-13.782,13.782
	c-3.457,0-6.609-1.283-9.029-3.385v17.671c0,12.597,10.212,22.811,22.811,22.811c12.597,0,22.811-10.212,22.811-22.811v-17.671
	C429.681,275.278,426.529,276.56,423.072,276.56z"/>
<path style="fill:#D46D59;" d="M409.29,297.513c-7.405,0-14.094,2.342-18.898,6.109c4.101,6.054,11.034,10.034,18.898,10.034
	c7.863,0,14.796-3.98,18.898-10.034C423.385,299.854,416.696,297.513,409.29,297.513z"/>
<g>
	<path style="fill:#4A5058;" d="M281.2,272.303c0-60.113,41.59-110.686,97.503-124.48h-89.442
		c-40.51,18.121-72.166,57.878-72.166,124.48s31.657,106.359,72.166,124.479h89.442C322.79,382.99,281.2,332.416,281.2,272.303z"/>
	<path style="fill:#4A5058;" d="M144.39,272.303c0-60.113,41.59-110.686,97.503-124.48h-72.257c-7.146,0-14.149,0.611-20.966,1.767
		c-38.681,18.872-68.386,58.197-68.386,122.713c0,64.515,29.704,103.84,68.386,122.712c6.817,1.156,13.82,1.767,20.966,1.767h72.257
		C185.979,382.99,144.39,332.416,144.39,272.303z"/>
</g>
<path style="opacity:0.15;enable-background:new    ;" d="M240.881,147.824h-71.245c-18.608,0-36.257,4.09-52.11,11.409
	c4.623,5.388,10.413,9.924,17.241,13.163c26.08,12.371,104.745,7.905,110.966-5.21C247.393,163.689,245.314,156.589,240.881,147.824
	z"/>
<path style="fill:#E8E8E8;" d="M213.376,60.915c20.411,20.411,42.62,96.008,32.357,106.271
	c-10.263,10.263-85.86-11.946-106.271-32.357s-20.411-53.503,0-73.914S192.965,40.504,213.376,60.915z"/>
<g>
	<path style="fill:#4A5058;" d="M133.402,466.391c-4.289,0-8.565-1.711-11.722-5.094c-6.038-6.473-5.687-16.613,0.786-22.651
		c14.389-13.424,25.141-39.856,25.141-54.524c0-8.851,7.175-16.026,16.026-16.026s16.026,7.175,16.026,16.026
		c0,24.815-15.848,59.787-35.329,77.959C141.242,464.964,137.318,466.391,133.402,466.391z"/>
	<path style="fill:#4A5058;" d="M197.738,466.391c-4.289,0-8.565-1.71-11.722-5.094c-6.038-6.473-5.686-16.613,0.786-22.651
		c14.389-13.425,25.141-39.858,25.141-54.524c0-8.851,7.175-16.026,16.026-16.026s16.026,7.175,16.026,16.026
		c0,24.814-15.848,59.786-35.329,77.959C205.579,464.964,201.655,466.391,197.738,466.391z"/>
</g>
<path d="M344.487,245.641c-4.382,0-7.932,3.55-7.932,7.932v11.813c0,4.382,3.55,7.932,7.932,7.932c4.382,0,7.932-3.55,7.932-7.932
	v-11.813C352.42,249.191,348.868,245.641,344.487,245.641z M399.23,141.351c0.324-0.305,0.666-0.609,0.969-0.913
	c23.47-23.471,23.47-61.661,0-85.132c-11.371-11.369-26.487-17.632-42.566-17.632c-16.08,0-31.197,6.262-42.565,17.632
	c-15.084,15.083-30.516,55.679-35.567,84.586h-24.954c-1.292-7.367-3.281-15.61-5.892-24.315
	c-6.342-21.133-17.466-48.066-29.671-60.271c-23.472-23.47-61.66-23.47-85.132,0c-23.47,23.471-23.47,61.661,0,85.132
	c1.131,1.131,2.388,2.251,3.755,3.36c-24.779,6.15-47.349,19.395-65.028,38.434c-14.429,15.541-24.749,34.06-30.387,54.059
	l-33.5,20.5C3.249,260.124,0,265.923,0,272.304c0,6.381,3.249,12.18,8.693,15.511l33.527,20.515
	c12.618,44.601,48.11,80.283,94.185,92.169c-3.924,11.618-11.026,24.582-19.349,32.346c-4.679,4.365-7.379,10.293-7.599,16.687
	c-0.222,6.395,2.06,12.495,6.426,17.176c4.516,4.839,10.902,7.614,17.52,7.614c6.087,0,11.889-2.288,16.34-6.441
	c16.193-15.106,29.699-40.1,35.198-63.166h14.256c-4.099,10.429-10.477,21.294-17.804,28.131
	c-9.659,9.012-10.186,24.203-1.174,33.863c4.515,4.84,10.901,7.615,17.521,7.615c6.088,0,11.891-2.288,16.34-6.441
	c16.193-15.106,29.699-40.1,35.198-63.166h10.236c-3.959,10.111-10.166,21.043-17.761,28.131
	c-4.681,4.365-7.381,10.291-7.602,16.687c-0.222,6.396,2.06,12.496,6.426,17.176c4.516,4.839,10.902,7.614,17.521,7.614
	c6.086,0,11.888-2.288,16.339-6.441c15.657-14.606,29.549-39.803,35.173-63.166h14.238c-3.959,10.111-10.165,21.045-17.761,28.131
	c-4.681,4.365-7.38,10.291-7.602,16.687c-0.222,6.396,2.06,12.496,6.426,17.176c4.516,4.839,10.902,7.614,17.521,7.614
	c6.086,0,11.888-2.288,16.339-6.441c15.658-14.606,29.549-39.804,35.173-63.166h5.643c73.012,0,132.411-59.4,132.411-132.412
	C512,205.964,462.961,150.868,399.23,141.351z M38.06,287.186l-21.087-12.903c-0.965-0.591-1.108-1.493-1.108-1.979
	c0-0.486,0.144-1.39,1.109-1.98l21.088-12.904c-0.551,4.914-0.838,9.88-0.838,14.883C37.224,277.325,37.509,282.291,38.06,287.186z
	 M326.286,66.523c8.372-8.373,19.505-12.984,31.348-12.984c11.841,0,22.975,4.611,31.348,12.985
	c17.286,17.285,17.286,45.411,0,62.695c-3.265,3.266-8.725,6.938-15.816,10.672h-77.574
	C301.088,110.726,316.029,76.779,326.286,66.523z M145.072,66.524c8.642-8.643,19.994-12.964,31.348-12.964
	c11.354,0,22.706,4.321,31.348,12.964c7.931,7.93,17.702,27.95,24.894,51.001c7.302,23.407,8.645,39.424,7.317,43.906
	c-4.481,1.329-20.501-0.015-43.907-7.317c-23.051-7.192-43.07-16.963-51-24.894C127.786,111.935,127.786,83.809,145.072,66.524z
	 M138.92,456.283c-1.504,1.403-3.464,2.177-5.518,2.177c-2.27,0-4.373-0.914-5.921-2.573c-1.475-1.581-2.246-3.641-2.172-5.803
	c0.075-2.161,0.987-4.163,2.568-5.636c16.302-15.209,27.662-43.998,27.662-60.324c0-4.463,3.632-8.094,8.094-8.094
	c4.463,0,8.094,3.632,8.094,8.094C171.728,406.648,156.705,439.692,138.92,456.283z M203.255,456.284
	c-1.503,1.402-3.462,2.176-5.517,2.176c-2.27,0-4.373-0.914-5.921-2.573c-3.045-3.264-2.867-8.396,0.396-11.439
	c16.302-15.21,27.662-43.999,27.662-60.324c0-4.463,3.632-8.094,8.094-8.094c4.463,0,8.094,3.632,8.094,8.094
	C236.064,406.647,221.04,439.692,203.255,456.284z M263.613,456.283c-1.504,1.403-3.463,2.177-5.517,2.177
	c-2.27,0-4.374-0.914-5.922-2.573c-1.475-1.581-2.246-3.641-2.171-5.802c0.074-2.161,0.987-4.162,2.568-5.637
	c11.512-10.741,19.574-26.961,23.784-39.731h16.861C287.798,424.003,276.176,444.564,263.613,456.283z M327.949,456.283
	c-1.504,1.403-3.463,2.177-5.517,2.177c-2.271,0-4.374-0.914-5.922-2.573c-1.475-1.581-2.246-3.641-2.171-5.802
	c0.074-2.161,0.987-4.162,2.568-5.637c11.513-10.741,19.576-26.96,23.783-39.731h16.861
	C352.135,424.002,340.512,444.563,327.949,456.283z M379.589,388.851H251.763c0.106-1.602,0.166-3.183,0.166-4.729
	c0-13.211-10.748-23.958-23.958-23.958s-23.958,10.748-23.958,23.958c0,1.442-0.132,3.033-0.374,4.729h-16.211
	c0.106-1.602,0.166-3.183,0.166-4.729c0-13.211-10.748-23.958-23.958-23.958s-23.958,10.748-23.958,23.958
	c0,0.26-0.011,0.533-0.019,0.803c-50.624-13.409-86.567-59.495-86.567-112.623c0-29.51,11.051-57.664,31.117-79.276
	c19.477-20.977,45.693-33.958,74.017-36.71c11.519,5.595,24.545,10.384,35.901,13.791c12.179,3.653,23.482,6.111,32.692,7.108
	c2.993,0.325,5.718,0.488,8.191,0.488c7.753,0,13.032-1.607,16.334-4.908c3.4-3.4,4.995-8.907,4.898-17.039h123.35
	c64.264,0,116.547,52.282,116.547,116.547C496.136,336.567,443.853,388.851,379.589,388.851z M436.854,254.847
	c-4.382,0-7.932,3.55-7.932,7.932c0,3.226-2.623,5.849-5.849,5.849s-5.85-2.623-5.85-5.849c0-4.382-3.55-7.932-7.932-7.932
	c-4.382,0-7.932,3.55-7.932,7.932c0,3.226-2.623,5.849-5.849,5.849s-5.85-2.623-5.85-5.849c0-4.382-3.55-7.932-7.932-7.932
	c-4.382,0-7.932,3.55-7.932,7.932c0,5.111,1.786,9.807,4.753,13.521v14.545c0,16.952,13.791,30.743,30.742,30.743
	c16.951,0,30.742-13.791,30.742-30.743V276.3c2.967-3.713,4.753-8.409,4.753-13.521
	C444.786,258.398,441.234,254.847,436.854,254.847z M424.169,290.845c0,8.205-6.675,14.879-14.878,14.879
	c-8.204,0-14.878-6.675-14.878-14.879v-6.408c0.366,0.018,0.727,0.056,1.097,0.056c5.228,0,10.029-1.857,13.781-4.947
	c3.752,3.089,8.554,4.947,13.782,4.947c0.37,0,0.731-0.037,1.096-0.056L424.169,290.845L424.169,290.845z M474.094,245.641
	c-4.382,0-7.932,3.55-7.932,7.932v11.813c0,4.382,3.55,7.932,7.932,7.932s7.932-3.55,7.932-7.932v-11.813
	C482.026,249.191,478.474,245.641,474.094,245.641z"/>
<g>
</g>
<g>
</g>
<g>
</g>
<g>
</g>
<g>
</g>
<g>
</g>
<g>
</g>
<g>
</g>
<g>
</g>
<g>
</g>
<g>
</g>
<g>
</g>
<g>
</g>
<g>
</g>
<g>
</g>
</svg>
