<?xml version="1.0" encoding="iso-8859-1"?>
<!-- Generator: Adobe Illustrator 19.0.0, SVG Export Plug-In . SVG Version: 6.00 Build 0)  -->
<svg version="1.1" id="Layer_1" xmlns="http://www.w3.org/2000/svg" xmlns:xlink="http://www.w3.org/1999/xlink" x="0px" y="0px"
	 viewBox="0 0 512.002 512.002" style="enable-background:new 0 0 512.002 512.002;" xml:space="preserve">
<path style="fill:#E8E8E8;" d="M159.25,321.209l-12.617-64.152c-3.03-15.406-17.975-25.439-33.381-22.409l0,0
	c-12.349,2.429-20.838,12.272-22.612,23.531c-9.281-3.318-20.03-1.72-28.061,5.141l0,0c-10.867,9.284-12.712,24.46-6.186,35.817
	c-10.887,1.268-20.525,8.802-23.922,19.957l0,0c-5.547,18.21,8.02,36.62,27.056,36.713l65.38,0.322
	C132.943,356.168,161.26,331.427,159.25,321.209z"/>
<path style="opacity:0.03;enable-background:new    ;" d="M159.25,321.209l-6.685-33.99c-29.471,15.062-49.932,39.989-53.674,68.781
	l26.015,0.128C132.943,356.168,161.26,331.427,159.25,321.209z"/>
<path style="fill:#F4B759;" d="M312.849,475.586h-32.115v-71.223h-28.503v71.223h-10.606c-7.871,0-14.252,6.38-14.252,14.252l0,0
	c0,7.871,6.38,14.252,14.252,14.252h71.223c7.871,0,14.252-6.38,14.252-14.252l0,0C327.1,481.967,320.719,475.586,312.849,475.586z"
	/>
<path style="fill:#F7DA70;" d="M254.016,475.586h-32.115v-71.223h-28.503v71.223h-10.606c-7.871,0-14.251,6.38-14.251,14.252l0,0
	c0,7.871,6.38,14.252,14.251,14.252h71.223c7.871,0,14.252-6.38,14.252-14.252l0,0C268.267,481.967,261.887,475.586,254.016,475.586
	z"/>
<path style="opacity:0.05;enable-background:new    ;" d="M193.398,404.362v43.108c8.982,2.546,18.535,4.36,28.503,5.381v-48.49
	L193.398,404.362L193.398,404.362z"/>
<path style="opacity:0.05;enable-background:new    ;" d="M252.231,404.362v49.14c10.166-0.602,19.695-2.038,28.503-4.253v-44.886
	h-28.503V404.362z"/>
<path style="fill:#E8E8E8;" d="M349.638,356.073c0,51.675-42.304,85.099-108.461,85.099S121.39,407.748,121.39,356.073
	s53.631-93.565,119.787-93.565S349.638,304.399,349.638,356.073z"/>
<path style="opacity:0.03;enable-background:new    ;" d="M241.178,262.507c-24.711,0-47.672,5.847-66.746,15.863
	c24.176,39.734,73.763,66.835,138.334,66.835c12.534,0,24.497-1.029,35.826-2.965C341.733,297.126,301.316,262.507,241.178,262.507z
	"/>
<path style="fill:#D4624E;" d="M340.375,7.911L340.375,7.911c-8.516,0-15.935,4.629-19.93,11.496
	c-4.889-7.984-14.363-12.51-24.089-10.603l0,0c-9.563,1.874-16.274,9.231-18.122,17.837c-8.215-5.111-19.101-4.677-26.94,1.856
	c-11.863,9.885-10.848,28.409,2.023,36.939l44.207,29.298c4.47,2.963,47.799,0.132,49.737-6.342l15.206-50.809
	C366.895,22.79,355.817,7.911,340.375,7.911z"/>
<path style="fill:#E8E8E8;" d="M480.8,199.887c0,68.967-61.853,124.875-154.605,124.875s-154.605-55.909-154.605-124.875
	S233.444,75.012,326.196,75.012S480.8,130.92,480.8,199.887z"/>
<path style="fill:#D4624E;" d="M392.514,252.802l-7.863-26.273c-1.002-3.348-4.082-5.642-7.577-5.642c-4.368,0-11.451,0-15.818,0
	c-3.494,0-6.575,2.293-7.577,5.642l-7.862,26.273c-2.29,7.649,3.44,15.344,11.424,15.344c6.586,0,11.925-5.339,11.925-11.925
	c0,6.586,5.339,11.925,11.925,11.925C389.075,268.146,394.804,260.452,392.514,252.802z"/>
<path style="fill:#F4B759;" d="M348.295,202.174v8.444c0,9.827,7.967,17.794,17.795,17.794h13.514
	c10.036,0,19.261-5.513,24.015-14.351l6.393-11.887L348.295,202.174L348.295,202.174z"/>
<path style="fill:#F7DA70;" d="M418.307,208.084h-70.012v-19.032c0-13.039,10.571-23.61,23.61-23.61h11.906
	c21.301,0,38.569,17.268,38.569,38.569l0,0C422.38,206.261,420.557,208.084,418.307,208.084z"/>
<path style="opacity:0.05;enable-background:new    ;" d="M228.312,396.875h-13.48c-26.5,0-50.865-14.535-63.455-37.855l0,0
	c-5.177-9.588,1.767-21.227,12.664-21.227h64.271c16.315,0,29.541,13.226,29.541,29.541l0,0
	C257.853,383.65,244.627,396.875,228.312,396.875z"/>
<path d="M312.435,138.721c-4.37,0-7.911,3.542-7.911,7.911v11.781c0,4.369,3.541,7.911,7.911,7.911s7.911-3.542,7.911-7.911v-11.781
	C320.346,142.263,316.804,138.721,312.435,138.721z M228.312,329.883h-64.271c-7.93,0-15.091,4.066-19.154,10.877
	c-4.063,6.81-4.239,15.042-0.471,22.019c13.988,25.91,40.97,42.007,70.415,42.007h13.48c20.651,0,37.452-16.8,37.452-37.452
	C265.764,346.684,248.962,329.883,228.312,329.883z M228.312,388.965h-13.48c-23.624,0-45.271-12.914-56.493-33.702
	c-1.578-2.923-0.43-5.448,0.137-6.398c0.567-0.95,2.243-3.16,5.565-3.16h64.271c11.927,0,21.63,9.703,21.63,21.63
	C249.942,379.262,240.238,388.965,228.312,388.965z M443.351,105.515c-21.928-18.314-50.389-30.537-82.279-35.669l8.976-29.994
	c2.833-9.47,1.074-19.448-4.83-27.376C359.314,4.547,350.259,0,340.375,0c-7.436,0-14.541,2.714-20.072,7.423
	c-7.011-5.676-16.339-8.17-25.467-6.381c-9.045,1.773-16.642,7.417-21.022,15.187c-9.476-2.461-19.764-0.324-27.583,6.191
	c-7.594,6.329-11.639,15.618-11.098,25.488c0.541,9.869,5.577,18.662,13.815,24.123l9.241,6.125
	c-18.504,6.469-35.156,15.675-49.148,27.36c-29.251,24.431-45.36,57.946-45.36,94.372c0,23.693,6.821,46.151,19.636,65.682
	c-8.852,3.556-17.026,7.86-24.432,12.793l-4.49-22.831c-1.873-9.525-7.343-17.75-15.403-23.16s-17.742-7.359-27.268-5.485
	c-12.117,2.383-22.056,10.805-26.63,21.949c-9.877-1.096-19.945,1.885-27.656,8.471c-10.693,9.134-14.938,23.374-11.655,36.488
	c-9.896,4.091-17.664,12.43-20.882,22.995c-3.379,11.095-1.371,22.813,5.509,32.149c6.88,9.337,17.477,14.724,29.075,14.78
	l54.393,0.267c3.547,35.38,30.851,63.46,71.607,76.74v26.95h-2.695c-12.221,0-22.163,9.942-22.163,22.163
	c0,12.221,9.942,22.163,22.163,22.163h130.057c12.219,0,22.162-9.942,22.162-22.163c0-12.221-9.942-22.163-22.162-22.163h-24.204
	v-25.061c13.939-4.181,26.223-10.345,36.46-18.394c21.225-16.685,32.444-40.25,32.444-68.146c0-8.624-1.104-17.049-3.251-25.169
	c34.631-4.419,65.583-17.044,89.052-36.646c29.251-24.431,45.36-57.946,45.36-94.372
	C488.711,163.461,472.602,129.945,443.351,105.515z M257.689,58.842c-4.03-2.672-6.494-6.972-6.758-11.8
	c-0.265-4.829,1.714-9.373,5.429-12.468c4.482-3.735,10.623-4.519,15.844-2.19l6.793,14.331c1.352,2.854,4.193,4.525,7.153,4.525
	c1.135,0,2.289-0.246,3.383-0.765c3.948-1.871,5.632-6.589,3.76-10.536l-6.62-13.968c1.866-4.809,6.055-8.396,11.207-9.405
	c5.508-1.078,11.162,1.045,14.656,5.342v14.347c0,4.369,3.541,7.911,7.911,7.911s7.911-3.542,7.911-7.911V21.787
	c2.848-3.719,7.298-5.966,12.018-5.966c4.835,0,9.264,2.225,12.152,6.103c2.887,3.878,3.749,8.759,2.362,13.391l-9.751,32.585
	c-6.218-0.525-12.536-0.801-18.942-0.801c-16.703,0-32.835,1.816-48.034,5.31L257.689,58.842z M113.864,348.163l-54.299-0.267
	c-6.548-0.032-12.532-3.074-16.416-8.345c-3.885-5.272-5.019-11.888-3.111-18.153c2.377-7.805,9.157-13.46,17.271-14.405
	c2.642-0.308,4.953-1.923,6.15-4.299c1.197-2.375,1.119-5.194-0.207-7.5c-4.924-8.568-3.046-19.444,4.465-25.859
	c5.574-4.763,13.339-6.182,20.261-3.708c2.219,0.794,4.675,0.557,6.7-0.646c2.026-1.202,3.411-3.244,3.778-5.571
	c1.362-8.644,7.77-15.317,16.325-17c5.379-1.056,10.845,0.043,15.395,3.097c4.55,3.055,7.639,7.699,8.697,13.077l6.03,30.66
	C127.11,305.412,116.003,325.933,113.864,348.163z M254.016,496.179h-71.223c-3.497,0-6.341-2.845-6.341-6.341
	s2.845-6.341,6.341-6.341h10.606c4.369,0,7.911-3.542,7.911-7.911v-30.603c4.123,0.889,8.353,1.641,12.681,2.247v28.356
	c0,4.369,3.542,7.911,7.911,7.911h32.115c3.495,0,6.341,2.845,6.341,6.341S257.511,496.179,254.016,496.179z M229.812,467.676
	v-18.912c3.732,0.208,7.52,0.32,11.366,0.32c1.057,0,2.095-0.033,3.142-0.05v18.642L229.812,467.676L229.812,467.676z
	 M312.849,483.497c3.496,0,6.34,2.845,6.34,6.341s-2.844,6.341-6.34,6.341h-37.607c0.602-2.01,0.936-4.137,0.936-6.341
	c0-10.094-6.79-18.616-16.037-21.282V448.15c4.338-0.438,8.563-1.041,12.681-1.784v29.22c0,4.369,3.541,7.911,7.911,7.911H312.849z
	 M315.327,411.781c-17.874,14.052-43.514,21.479-74.149,21.479c-31.181,0-59.677-7.739-80.238-21.792
	c-14.431-9.863-31.632-27.478-31.637-55.386v-0.013c0.001-33.249,24.921-63.163,63.932-77.36
	c4.741,5.506,10.011,10.708,15.807,15.548c29.66,24.771,71.266,38.414,117.155,38.414c4.06,0,8.085-0.113,12.072-0.324
	c2.284,7.593,3.459,15.544,3.459,23.724C341.727,378.94,332.598,398.204,315.327,411.781z M433.209,282.116
	c-26.82,22.399-64.824,34.736-107.013,34.736s-80.194-12.337-107.014-34.736c-25.589-21.372-39.68-50.574-39.68-82.229
	s14.092-60.857,39.68-82.229c26.821-22.399,64.825-34.736,107.014-34.736s80.193,12.337,107.013,34.736
	c25.589,21.372,39.68,50.574,39.68,82.229S458.797,260.744,433.209,282.116z M383.811,157.531h-11.907
	c-17.379,0-31.521,14.14-31.521,31.521v21.567c0,5.794,1.928,11.144,5.175,15.447l-7.322,24.469
	c-1.814,6.065-0.687,12.456,3.095,17.533c3.78,5.078,9.579,7.989,15.909,7.989c4.472,0,8.604-1.488,11.925-3.994
	c3.32,2.506,7.452,3.994,11.925,3.994c6.331,0,12.13-2.912,15.91-7.99c3.781-5.078,4.908-11.467,3.095-17.533l-5.291-17.677
	c6.604-3.164,12.182-8.356,15.781-15.049l0.976-1.813h6.747c6.608,0,11.983-5.376,11.983-11.983
	C430.291,178.382,409.439,157.531,383.811,157.531z M384.309,258.618c-0.449,0.604-1.466,1.617-3.22,1.617
	c-2.214,0-4.014-1.802-4.014-4.014c0-4.369-3.541-7.911-7.911-7.911s-7.911,3.542-7.911,7.911c0,2.214-1.8,4.014-4.014,4.014
	c-1.754,0-2.77-1.013-3.219-1.617c-0.45-0.604-1.13-1.868-0.627-3.548l5.885-19.67c2.171,0.597,4.453,0.923,6.811,0.923h13.235
	l5.611,18.746C385.439,256.75,384.76,258.014,384.309,258.618z M379.603,220.501h-13.514c-3.467,0-6.517-1.798-8.282-4.507h34.202
	C388.587,218.856,384.225,220.501,379.603,220.501z M356.206,200.173v-11.121c0-8.656,7.043-15.699,15.699-15.699h11.906
	c15.606,0,28.526,11.72,30.419,26.821L356.206,200.173L356.206,200.173z M432.223,138.721c-4.37,0-7.911,3.542-7.911,7.911v11.781
	c0,4.369,3.541,7.911,7.911,7.911c4.369,0,7.911-3.542,7.911-7.911v-11.781C440.134,142.263,436.593,138.721,432.223,138.721z"/>
<g>
</g>
<g>
</g>
<g>
</g>
<g>
</g>
<g>
</g>
<g>
</g>
<g>
</g>
<g>
</g>
<g>
</g>
<g>
</g>
<g>
</g>
<g>
</g>
<g>
</g>
<g>
</g>
<g>
</g>
</svg>
