<?xml version="1.0" encoding="iso-8859-1"?>
<!-- Generator: Adobe Illustrator 19.0.0, SVG Export Plug-In . SVG Version: 6.00 Build 0)  -->
<svg version="1.1" id="Layer_1" xmlns="http://www.w3.org/2000/svg" xmlns:xlink="http://www.w3.org/1999/xlink" x="0px" y="0px"
	 viewBox="0 0 512 512" style="enable-background:new 0 0 512 512;" xml:space="preserve">
<circle style="fill:#4A5058;" cx="41.715" cy="289.176" r="33.801"/>
<path style="opacity:0.15;enable-background:new    ;" d="M71.307,272.831c-22.157,6.838-40.817,21.649-52.623,41.085
	c6.037,5.623,14.13,9.068,23.03,9.068c18.671,0,33.806-15.136,33.806-33.806C75.521,283.246,73.989,277.675,71.307,272.831z"/>
<path style="fill:#4A5058;" d="M303.184,446.486v-38.974c0-21.299-17.266-38.566-38.566-38.566l0,0
	c-21.299,0-38.565,17.266-38.565,38.566v70.516c0,9.321,7.556,16.877,16.877,16.877h74.63c7.513,0,13.603-6.09,13.603-13.603
	C331.165,464.248,319.185,449.998,303.184,446.486z"/>
<path style="opacity:0.2;enable-background:new    ;" d="M303.184,446.486v-38.974c0-21.299-17.266-38.566-38.566-38.566l0,0
	c-21.299,0-38.565,17.266-38.565,38.566v70.516c0,9.321,7.556,16.877,16.877,16.877h74.63c7.513,0,13.603-6.09,13.603-13.603
	C331.165,464.248,319.185,449.998,303.184,446.486z"/>
<path style="opacity:0.15;enable-background:new    ;" d="M264.618,368.948L264.618,368.948c-21.299,0-38.566,17.266-38.566,38.566
	v41.198c32.052-1.248,60.147-17.885,77.091-42.749C302.33,385.384,285.398,368.948,264.618,368.948z"/>
<path style="fill:#E8E8E8;" d="M214.053,435.72H91.081c-38.619,0-69.927-31.308-69.927-69.927l0,0
	c0-51.895,42.069-93.966,93.966-93.966h137.576c32.735,0,59.272,26.537,59.272,59.272v6.706
	C311.968,391.882,268.129,435.72,214.053,435.72z"/>
<path style="fill:#4A5058;" d="M226.054,446.486V271.827h-43.067c-18.813,0-34.064,15.251-34.064,34.064v172.137
	c0,9.321,7.556,16.877,16.877,16.877h74.527c7.637,0,13.765-6.249,13.706-13.886C253.901,464.09,241.966,449.978,226.054,446.486z"
	/>
<path style="opacity:0.1;enable-background:new    ;" d="M252.695,271.827H123.599c25.324,61.199,91.55,104.859,169.262,104.859
	c3.765,0,7.499-0.115,11.207-0.317c5.078-11.836,7.899-24.869,7.899-38.564v-6.706C311.968,298.364,285.431,271.827,252.695,271.827
	z"/>
<circle style="fill:#4A5058;" cx="444.846" cy="76.342" r="59.242"/>
<circle style="fill:#EDBCB9;" cx="444.846" cy="76.342" r="25.493"/>
<ellipse style="fill:#E8E8E8;" cx="311.971" cy="197.524" rx="180.266" ry="160.055"/>
<path style="fill:#EDBCB9;" d="M367.871,240.521c-6.342,0-11.484-5.141-11.484-11.483c0,6.342-5.141,11.483-11.482,11.483
	c-2.509,0-4.823-0.814-6.713-2.179v20.9c0,10.05,8.147,18.195,18.195,18.195s18.195-8.147,18.195-18.195v-20.9
	C372.695,239.707,370.381,240.521,367.871,240.521z"/>
<path style="fill:#D46D59;" d="M356.389,262.202c-6.531,0-12.459,1.496-16.837,3.926c2.716,6.632,9.227,11.309,16.837,11.309
	s14.121-4.676,16.837-11.309C368.848,263.698,362.92,262.202,356.389,262.202z"/>
<g>
	<path style="fill:#4A5058;" d="M379.602,193.295l-5.402,6.434c-9.293,11.067-26.323,11.067-35.616,0l-5.402-6.434
		c-2.783-3.315-0.427-8.371,3.902-8.371h38.617C380.028,184.924,382.385,189.981,379.602,193.295z"/>
	<path style="fill:#4A5058;" d="M216.849,34.444c-23.137-23.137-60.65-23.137-83.787,0s-23.137,60.65,0,83.787
		s51.373,13.861,74.51-9.277C230.709,85.818,239.986,57.582,216.849,34.444z"/>
</g>
<circle style="fill:#EDBCB9;" cx="174.952" cy="76.342" r="25.493"/>
<g>
	<path style="fill:#4A5058;" d="M202.909,189.855c-14.987,14.987-14.988,39.287,0,54.275c14.987,14.987,39.287,14.987,54.274,0
		l25.368-25.368c14.987-14.987,14.987-39.287,0-54.275c-14.988-14.988-39.287-14.987-54.275,0L202.909,189.855z"/>
	<path style="fill:#4A5058;" d="M490.371,174.492l-10.004-10.004c-14.987-14.987-39.287-14.987-54.274,0s-14.987,39.287,0,54.275
		l25.368,25.368c7.879,7.879,18.331,11.609,28.651,11.204c7.825-17.931,12.127-37.421,12.127-57.805
		C492.238,189.704,491.593,182.015,490.371,174.492z"/>
</g>
<g>
	<path style="fill:#FFFFFF;" d="M255.414,205.597c-4.368,0-7.907-3.539-7.907-7.907v-11.776c0-4.368,3.539-7.907,7.907-7.907
		s7.907,3.539,7.907,7.907v11.776C263.322,202.057,259.781,205.597,255.414,205.597z"/>
	<path style="fill:#FFFFFF;" d="M463.389,202.875c-4.368,0-7.907-3.539-7.907-7.907c0-1.242-1.01-2.252-2.252-2.252
		c-1.241,0-2.251,1.01-2.251,2.252c0,4.368-3.54,7.907-7.907,7.907c-4.368,0-7.907-3.539-7.907-7.907
		c0-9.961,8.103-18.067,18.066-18.067c9.961,0,18.067,8.106,18.067,18.067C471.296,199.334,467.756,202.875,463.389,202.875z"/>
</g>
<path style="fill:#4A5058;" d="M98.284,446.486v-38.974c0-21.299-17.266-38.566-38.566-38.566s-38.566,17.266-38.566,38.566v70.517
	c0,9.321,7.556,16.877,16.877,16.877h74.631c7.513,0,13.603-6.09,13.603-13.603C126.264,464.247,114.285,449.998,98.284,446.486z"/>
<path d="M379.355,221.13c-4.368,0-7.907,3.539-7.907,7.907c0,1.972-1.605,3.576-3.576,3.576s-3.576-1.604-3.576-3.576
	c0-4.368-3.539-7.907-7.907-7.907c-4.368,0-7.907,3.539-7.907,7.907c0,1.972-1.604,3.576-3.576,3.576
	c-1.97,0-3.575-1.604-3.575-3.576c0-4.368-3.54-7.907-7.907-7.907c-4.368,0-7.907,3.539-7.907,7.907
	c0,4.858,1.808,9.292,4.77,12.698v17.506c0,14.392,11.709,26.103,26.103,26.103c14.393,0,26.104-11.709,26.104-26.103v-17.506
	c2.962-3.405,4.77-7.84,4.77-12.698C387.262,224.671,383.722,221.13,379.355,221.13z M366.677,259.242
	c0,5.673-4.616,10.288-10.289,10.288c-5.673,0-10.288-4.615-10.288-10.288V248.38c3.833-0.235,7.373-1.577,10.288-3.726
	c2.915,2.149,6.455,3.491,10.289,3.726V259.242z M512,76.337c0-37.028-30.125-67.153-67.153-67.153
	c-24.456,0-46.644,13.157-58.465,34.09c-22.836-8.81-47.995-13.704-74.414-13.704c-27.368,0-53.619,5.105-78.173,15.15
	c-2.616-5.575-6.385-10.898-11.354-15.868h-0.001c-26.183-26.181-68.784-26.181-94.969,0
	c-12.683,12.683-19.668,29.547-19.668,47.485s6.985,34.802,19.668,47.485c3.487,3.487,7.148,6.379,10.947,8.704
	c-9.701,20.574-14.628,42.399-14.628,65.001c0,23.569,5.477,46.015,15.339,66.391h-24.01c-12.699,0-24.86,2.343-36.081,6.607
	c-6.931-13.924-21.222-23.064-37.324-23.064C18.713,247.463,0,266.176,0,289.177c0,15.277,8.507,29.215,21.5,36.465
	c-5.306,12.327-8.252,25.9-8.252,40.15c0,8.084,1.23,16.022,3.661,23.643c-2.356,5.559-3.661,11.669-3.661,18.078v70.517
	c0,13.666,11.119,24.785,24.785,24.785h74.63c11.861,0,21.51-9.649,21.51-21.51c0-15.736-8.643-30.02-21.755-37.676h28.598v34.402
	c0,13.666,11.119,24.785,24.785,24.785h74.527c0.422,0,0.836-0.038,1.254-0.061c0.448,0.03,0.895,0.061,1.352,0.061h74.63
	c11.861,0,21.51-9.649,21.51-21.51c0-18.112-11.443-34.304-27.98-40.674v-33.116c0-6.573-1.422-13.058-4.1-19.02
	c3.918-7.2,7.029-14.92,9.218-23.054c101.811-2.021,183.936-76.564,183.936-167.911c0-23.813-5.593-46.478-15.649-67.02
	C501.62,117.944,512,97.811,512,76.337z M444.847,24.999c28.309,0,51.339,23.03,51.339,51.339c0,15.728-7.3,30.507-19.431,40.169
	c-17.513-28.264-43.883-51.571-75.75-66.912C410.232,34.445,426.726,24.999,444.847,24.999z M138.652,112.639
	c-9.695-9.695-15.037-22.589-15.037-36.302s5.34-26.606,15.037-36.302c10.009-10.009,23.156-15.012,36.303-15.012
	s26.293,5.004,36.303,15.012h-0.001c9.113,9.113,12.556,19.01,10.524,30.259c-1.913,10.593-8.76,22.029-19.801,33.068
	c-11.041,11.042-22.475,17.889-33.068,19.801C157.668,125.195,147.767,121.754,138.652,112.639z M15.815,289.177
	c0-14.282,11.619-25.9,25.899-25.9c9.878,0,18.647,5.544,23.004,14.01c-14.582,8.336-26.914,20.174-35.851,34.359
	C20.969,307.1,15.815,298.545,15.815,289.177z M118.358,481.304c0,3.141-2.556,5.695-5.695,5.695H38.031
	c-4.946,0-8.97-4.023-8.97-8.97v-70.517c0-16.905,13.752-30.658,30.657-30.658s30.658,13.754,30.658,30.658v38.973
	c0,3.713,2.584,6.927,6.213,7.723C109.202,456.978,118.358,468.373,118.358,481.304z M141.015,305.892v121.922h-34.823v-20.3
	c0-25.626-20.848-46.473-46.473-46.473c-11.572,0-22.161,4.262-30.304,11.284c-0.226-2.16-0.353-4.339-0.353-6.533
	c0-47.452,38.605-86.058,86.057-86.058h32.803c0.339,0.538,0.675,1.078,1.022,1.612C143.799,288.45,141.015,296.962,141.015,305.892
	z M244.417,485.293c-1.091,1.101-2.544,1.706-4.091,1.706h-74.527c-4.946,0-8.97-4.023-8.97-8.97V305.892
	c0-3.702,0.773-7.286,2.231-10.577c15.635,19.423,35.79,35.76,59.086,47.769v103.403c0,3.713,2.584,6.927,6.213,7.723
	c12.715,2.792,21.666,13.842,21.767,26.873C246.137,482.674,245.531,484.17,244.417,485.293z M323.257,481.304
	c0,3.141-2.556,5.695-5.695,5.695h-56.431c0.541-1.941,0.826-3.967,0.81-6.04c-0.137-17.572-10.527-32.845-26.108-39.586
	c23.645-4.93,44.405-17.69,59.388-35.585c0.033,0.575,0.057,1.149,0.057,1.726v38.974c0,3.713,2.585,6.927,6.213,7.724
	C314.104,456.979,323.257,468.372,323.257,481.304z M233.96,425.587v-75.224c20.291,8.284,42.508,13.432,65.869,14.767
	C290.194,395.551,265.118,418.582,233.96,425.587z M311.968,349.673c-95.042,0-172.363-68.251-172.363-152.145
	c0-20.518,4.542-40.336,13.479-59.013c3.227,0.711,6.516,1.074,9.853,1.074c16.247,0,33.599-8.416,50.228-25.043
	c18.082-18.082,26.432-37.013,24.832-54.456c23.158-9.756,48.01-14.707,73.972-14.707c95.041,0,172.363,68.251,172.363,152.145
	S407.009,349.673,311.968,349.673z M375.7,177.017h-38.617c-5.11,0-9.626,2.877-11.785,7.508c-2.159,4.633-1.459,9.94,1.826,13.856
	l5.402,6.433c5.936,7.07,14.634,11.125,23.865,11.125c9.23,0,17.929-4.055,23.864-11.124l5.402-6.434c0-0.001,0-0.001,0-0.001
	c3.285-3.915,3.985-9.222,1.826-13.855C385.326,179.894,380.809,177.017,375.7,177.017z M368.143,194.645
	c-2.923,3.481-7.206,5.478-11.752,5.478c-4.547,0-8.83-1.998-11.752-5.479l-1.522-1.812h26.551L368.143,194.645z"/>
<g>
</g>
<g>
</g>
<g>
</g>
<g>
</g>
<g>
</g>
<g>
</g>
<g>
</g>
<g>
</g>
<g>
</g>
<g>
</g>
<g>
</g>
<g>
</g>
<g>
</g>
<g>
</g>
<g>
</g>
</svg>
