<?xml version="1.0" encoding="iso-8859-1"?>
<!-- Generator: Adobe Illustrator 19.0.0, SVG Export Plug-In . SVG Version: 6.00 Build 0)  -->
<svg version="1.1" id="Layer_1" xmlns="http://www.w3.org/2000/svg" xmlns:xlink="http://www.w3.org/1999/xlink" x="0px" y="0px"
	 viewBox="0 0 512 512" style="enable-background:new 0 0 512 512;" xml:space="preserve">
<circle style="fill:#EDBCB9;" cx="36.742" cy="334.47" r="28.818"/>
<path style="opacity:0.05;enable-background:new    ;" d="M56.523,313.525c-17.196,11.624-30.011,27.032-36.289,44.549
	c4.676,3.275,10.365,5.203,16.507,5.203c15.913,0,28.814-12.9,28.814-28.814C65.556,326.214,62.082,318.778,56.523,313.525z"/>
<g>
	<path style="fill:#EDBCB9;" d="M266.387,493.815h-29.574c-10.752,0-19.469-8.716-19.469-19.469v-66.194
		c0-10.752,8.716-19.469,19.469-19.469c10.752,0,19.469,8.717,19.469,19.469v46.726h10.104c10.752,0,19.468,8.717,19.468,19.469
		C285.856,485.098,277.139,493.815,266.387,493.815z"/>
	<ellipse style="fill:#EDBCB9;" cx="147.007" cy="382.665" rx="118.453" ry="91.739"/>
</g>
<path style="opacity:0.05;enable-background:new    ;" d="M147.002,290.924c-25.308,0-48.759,6.15-68.006,16.623
	c23.442,53.539,91.85,83.747,172.603,83.747c4.494,0,8.949-0.097,13.361-0.283c0.32-2.75,0.494-5.533,0.494-8.347
	C265.455,331.997,212.422,290.924,147.002,290.924z"/>
<path style="fill:#EDBCB9;" d="M216.79,202.963c19.55-11.265,26.267-36.245,15.002-55.796
	C191.745,77.667,140.59,39.186,75.401,29.523c-22.32-3.307-43.095,12.104-46.402,34.423c-3.308,22.32,12.103,43.095,34.423,46.403
	c39.965,5.924,70.058,29.86,97.572,77.611C172.259,207.511,197.239,214.228,216.79,202.963z"/>
<path style="fill:#E99B98;" d="M191.68,178.214c-2.742,0-5.409-1.425-6.877-3.972c-26.368-45.763-55.755-73.265-92.48-86.552
	c-4.118-1.49-6.248-6.035-4.758-10.153c1.491-4.119,6.037-6.247,10.153-4.758c39.889,14.431,72.869,45.03,100.823,93.546
	c2.186,3.794,0.883,8.642-2.911,10.828C194.384,177.871,193.023,178.214,191.68,178.214z"/>
<path style="fill:#EDBCB9;" d="M315.834,192.068c-19.55-11.265-26.267-36.246-15.002-55.796
	c40.046-69.5,91.201-107.982,156.39-117.643c22.32-3.307,43.096,12.104,46.403,34.423c3.308,22.32-12.103,43.096-34.423,46.403
	c-39.965,5.924-70.058,29.86-97.572,77.611C360.365,196.617,335.384,203.333,315.834,192.068z"/>
<path style="fill:#E99B98;" d="M340.943,167.318c-1.344,0-2.704-0.341-3.951-1.06c-3.794-2.186-5.098-7.034-2.911-10.828
	c27.954-48.515,60.935-79.114,100.824-93.545c4.117-1.49,8.662,0.64,10.153,4.758c1.49,4.118-0.642,8.663-4.758,10.153
	c-36.725,13.286-66.112,40.789-92.48,86.551C346.353,165.893,343.684,167.318,340.943,167.318z"/>
<path style="fill:#EDBCB9;" d="M448.585,242.389c0-79.757-81.157-144.413-181.27-144.413s-181.27,64.656-181.27,144.413
	s81.157,126.176,181.27,126.176S448.585,322.147,448.585,242.389z"/>
<path style="opacity:0.05;enable-background:new    ;" d="M321.381,240.795h-53.179c-16.876,0-30.556,13.681-30.556,30.557
	c0,16.876,13.681,30.556,30.556,30.556c11.402,0,21.338-6.25,26.589-15.506c5.251,9.256,15.187,15.506,26.589,15.506
	c16.876,0,30.557-13.681,30.557-30.556C351.938,254.477,338.256,240.795,321.381,240.795z"/>
<path style="fill:#FFFFFF;" d="M324.552,229.812h-53.179c-16.876,0-30.556,13.681-30.556,30.556
	c0,16.876,13.681,30.557,30.556,30.557c11.402,0,21.339-6.25,26.589-15.506c5.251,9.256,15.187,15.506,26.589,15.506
	c16.876,0,30.557-13.681,30.557-30.557C355.108,243.492,341.427,229.812,324.552,229.812z"/>
<path style="fill:#D46D59;" d="M321.414,238.269l-5.458,6.5c-9.389,11.181-26.596,11.181-35.984,0l-5.458-6.5
	c-2.812-3.349-0.431-8.458,3.942-8.458h39.017C321.845,229.812,324.226,234.92,321.414,238.269z"/>
<g>
	<path style="fill:#EDBCB9;" d="M189.856,493.815h-29.574c-10.752,0-19.468-8.716-19.468-19.469v-51.917
		c0-10.752,8.716-19.469,19.468-19.469c10.752,0,19.469,8.717,19.469,19.469v32.448h10.104c10.752,0,19.469,8.717,19.469,19.469
		C209.325,485.098,200.608,493.815,189.856,493.815z"/>
	<path style="fill:#EDBCB9;" d="M101.62,454.878H89.902l6.146-17.635c7.318-20.996-8.27-42.935-30.505-42.935l0,0
		c-17.841,0-32.304,14.463-32.304,32.304v47.735c0,10.752,8.717,19.469,19.468,19.469h48.912c10.752,0,19.468-8.716,19.468-19.469
		C121.089,463.594,112.372,454.878,101.62,454.878z"/>
</g>
<path style="opacity:0.05;enable-background:new    ;" d="M266.387,493.815h-29.574c-10.752,0-19.469-8.716-19.469-19.469v-66.194
	c0-10.752,8.716-19.469,19.469-19.469c10.752,0,19.469,8.717,19.469,19.469v46.726h10.104c10.752,0,19.468,8.717,19.468,19.469
	C285.856,485.098,277.139,493.815,266.387,493.815z"/>
<path style="opacity:0.05;enable-background:new    ;" d="M189.856,493.815h-29.574c-10.752,0-19.468-8.716-19.468-19.469v-51.917
	c0-10.752,8.716-19.469,19.468-19.469c10.752,0,19.469,8.717,19.469,19.469v32.448h10.104c10.752,0,19.469,8.717,19.469,19.469
	C209.325,485.098,200.608,493.815,189.856,493.815z"/>
<path style="opacity:0.05;enable-background:new    ;" d="M101.62,454.878H89.902l6.146-17.635
	c7.318-20.996-8.27-42.935-30.505-42.935l0,0c-17.841,0-32.304,14.463-32.304,32.304v47.735c0,10.752,8.717,19.469,19.468,19.469
	h48.912c10.752,0,19.468-8.716,19.468-19.469C121.089,463.594,112.372,454.878,101.62,454.878z"/>
<path d="M511.468,51.888c-3.943-26.606-28.805-45.044-55.409-41.103c-55.304,8.196-100.419,35.966-137.774,84.823
	c-16.391-3.664-33.502-5.562-50.97-5.562c-20.665,0-40.831,2.654-59.895,7.752c-36.03-43.497-78.885-68.415-130.857-76.119
	C49.95,17.734,25.099,36.177,21.156,62.784c-1.911,12.89,1.312,25.752,9.076,36.217c7.764,10.466,19.138,17.281,32.028,19.191
	c22.28,3.303,40.804,12.439,57.738,28.524c-27.135,26.986-41.881,60.376-41.881,95.673c0,18.509,4.048,35.705,11.917,51.255
	c-10.072,3.992-19.265,8.958-27.438,14.718c-6.792-6.762-15.98-10.638-25.853-10.638C16.483,297.723,0,314.205,0,334.465
	c0,14.813,8.866,27.89,21.962,33.639c-0.878,4.768-1.339,9.628-1.339,14.558c0,10.911,2.21,21.599,6.56,31.821
	c-1.214,3.829-1.872,7.903-1.872,12.129v47.734c0,15.108,12.29,27.398,27.397,27.398h48.912c12.74,0,23.475-8.739,26.528-20.537
	c1.92,0.226,3.844,0.421,5.773,0.578c3.251,11.503,13.834,19.959,26.362,19.959h29.574c9.952,0,18.68-5.335,23.479-13.294
	c4.799,7.959,13.527,13.294,23.479,13.294h29.574c15.107,0,27.397-12.29,27.397-27.398c0-15.107-12.29-27.398-27.397-27.398h-2.177
	v-27.026c5.955-11.66,9.172-24.277,9.172-37.26c0-2.074-0.105-4.151-0.267-6.227c49.371-0.883,94.194-13.024,126.734-34.425
	c37.07-24.381,56.665-58.829,56.665-99.621c0-38.086-17.164-73.952-48.539-101.946c18.169-18.963,38.172-29.556,62.391-33.146
	C496.973,103.354,515.412,78.498,511.468,51.888z M64.584,102.507c-8.7-1.29-16.377-5.889-21.618-12.954
	c-5.239-7.063-7.415-15.744-6.125-24.444c2.662-17.959,19.439-30.402,37.398-27.743c45.892,6.802,84.171,28.286,116.699,65.541
	c-20.865,7.403-40.076,17.889-56.74,31.165c-0.819,0.652-1.621,1.315-2.423,1.978C112.324,117.328,90.279,106.315,64.584,102.507z
	 M26.435,352.618c-6.381-3.626-10.578-10.473-10.578-18.152c0-11.517,9.369-20.885,20.886-20.885c5.013,0,9.72,1.755,13.423,4.871
	C39.515,328.439,31.433,340.037,26.435,352.618z M101.619,485.887H52.707c-6.363,0-11.54-5.177-11.54-11.541v-47.734
	c0-13.441,10.935-24.376,24.376-24.376c7.996,0,15.239,3.739,19.871,10.257c4.631,6.518,5.778,14.589,3.147,22.14l-6.146,17.634
	c-0.846,2.424-0.463,5.108,1.023,7.201c1.487,2.093,3.897,3.336,6.463,3.336h11.717c6.364,0,11.541,5.177,11.541,11.541
	C113.16,480.71,107.983,485.887,101.619,485.887z M189.856,485.887h-29.574c-6.364,0-11.54-5.177-11.54-11.541v-51.917
	c0-6.364,5.176-11.541,11.54-11.541c6.364,0,11.541,5.177,11.541,11.541v32.448c0,4.379,3.549,7.929,7.929,7.929h10.104
	c6.364,0,11.541,5.177,11.541,11.541C201.397,480.71,196.219,485.887,189.856,485.887z M206.99,452.99
	c-4.696-3.775-10.654-6.042-17.134-6.042h-2.176v-24.519c0-15.107-12.29-27.398-27.398-27.398c-15.107,0-27.397,12.29-27.397,27.398
	v43.345c-1.828-0.178-3.649-0.383-5.462-0.63c-3.79-10.594-13.924-18.196-25.804-18.196h-0.558l2.474-7.097
	c4.344-12.464,2.45-25.783-5.194-36.542c-7.645-10.761-19.599-16.931-32.798-16.931c-10.577,0-20.207,4.109-27.396,10.806
	c-1.105-4.77-1.667-9.621-1.667-14.522c0-32.108,24.08-61.121,61.843-75.209c9.158,13.022,21.358,24.625,36.459,34.557
	c31.593,20.777,74.76,32.83,122.429,34.322c0.209,2.107,0.315,4.221,0.315,6.329C257.526,411.008,238.294,437.563,206.99,452.99z
	 M266.387,462.806c6.364,0,11.54,5.177,11.54,11.541c0,6.364-5.176,11.541-11.54,11.541h-29.574
	c-6.364,0-11.541-5.177-11.541-11.541V460.96c8.768-5.456,16.508-11.767,23.081-18.736v12.653c0,4.379,3.549,7.929,7.929,7.929
	H266.387z M440.656,242.389c0,35.199-17.124,65.066-49.521,86.373c-31.252,20.554-75.227,31.874-123.82,31.874
	s-92.568-11.32-123.821-31.874c-32.397-21.307-49.521-51.174-49.521-86.373c0-75.258,77.762-136.485,173.342-136.485
	C362.896,105.904,440.656,167.131,440.656,242.389z M468.04,91.613c-27.895,4.134-51.642,16.853-72.389,38.794
	c-17.885-13.305-38.443-23.55-60.678-30.383c33.916-42.184,74.389-66.285,123.41-73.551c17.963-2.664,34.737,9.785,37.4,27.743
	C498.444,72.174,485.999,88.951,468.04,91.613z M324.552,221.884h-53.179c-21.22,0-38.484,17.264-38.484,38.484
	c0,21.22,17.264,38.484,38.484,38.484c10.02,0,19.519-3.93,26.589-10.68c7.07,6.749,16.569,10.68,26.588,10.68
	c21.22,0,38.484-17.264,38.484-38.484C363.035,239.148,345.772,221.884,324.552,221.884z M311.505,237.741l-1.621,1.931
	c-2.966,3.531-7.31,5.556-11.92,5.556c-4.611,0-8.956-2.025-11.92-5.556l-1.623-1.931H311.505z M324.552,282.995
	c-8.127,0-15.672-4.403-19.693-11.489c-1.408-2.482-4.041-4.016-6.896-4.016c-2.853,0-5.488,1.534-6.896,4.016
	c-4.021,7.087-11.566,11.49-19.694,11.49c-12.477,0-22.627-10.151-22.627-22.627c0-10.562,7.285-19.431,17.087-21.913
	c0.494,1.762,1.367,3.436,2.607,4.913l5.459,6.501c5.984,7.128,14.757,11.216,24.065,11.216c9.307,0,18.079-4.088,24.065-11.216
	l5.457-6.501c1.24-1.477,2.114-3.151,2.608-4.913c9.802,2.481,17.087,11.351,17.087,21.913
	C347.179,272.844,337.029,282.995,324.552,282.995z M378.955,197.753c-4.38,0-7.929,3.55-7.929,7.929v11.807
	c0,4.379,3.549,7.929,7.929,7.929s7.929-3.55,7.929-7.929v-11.807C386.884,201.303,383.334,197.753,378.955,197.753z
	 M216.971,197.753c-4.38,0-7.929,3.55-7.929,7.929v11.807c0,4.379,3.549,7.929,7.929,7.929s7.929-3.55,7.929-7.929v-11.807
	C224.899,201.303,221.35,197.753,216.971,197.753z"/>
<g>
</g>
<g>
</g>
<g>
</g>
<g>
</g>
<g>
</g>
<g>
</g>
<g>
</g>
<g>
</g>
<g>
</g>
<g>
</g>
<g>
</g>
<g>
</g>
<g>
</g>
<g>
</g>
<g>
</g>
</svg>
