<?xml version="1.0" encoding="iso-8859-1"?>
<!-- Generator: Adobe Illustrator 19.0.0, SVG Export Plug-In . SVG Version: 6.00 Build 0)  -->
<svg version="1.1" id="Layer_1" xmlns="http://www.w3.org/2000/svg" xmlns:xlink="http://www.w3.org/1999/xlink" x="0px" y="0px"
	 viewBox="0 0 512 512" style="enable-background:new 0 0 512 512;" xml:space="preserve">
<path style="fill:#F8ECC8;" d="M457.496,339.715h-28.083c-9.541,0-17.276,7.734-17.276,17.276v17.076h65.868
	c3.823,0,6.921-3.099,6.921-6.921l0,0C484.927,351.996,472.645,339.715,457.496,339.715z"/>
<path style="opacity:0.2;enable-background:new    ;" d="M457.496,339.715h-28.083c-9.541,0-17.276,7.734-17.276,17.276v17.076
	h65.868c3.823,0,6.921-3.099,6.921-6.921l0,0C484.927,351.996,472.645,339.715,457.496,339.715z"/>
<path style="fill:#F8ECC8;" d="M433.095,339.715h-28.083c-9.541,0-17.276,7.734-17.276,17.276v17.076h65.868
	c3.823,0,6.921-3.099,6.921-6.921l0,0C460.526,351.996,448.244,339.715,433.095,339.715z"/>
<path style="opacity:0.1;enable-background:new    ;" d="M433.095,339.715h-28.083c-9.541,0-17.276,7.734-17.276,17.276v17.076
	h65.868c3.823,0,6.921-3.099,6.921-6.921l0,0C460.526,351.996,448.244,339.715,433.095,339.715z"/>
<path style="fill:#F8ECC8;" d="M408.695,339.715h-28.083c-9.541,0-17.276,7.734-17.276,17.276v7.839
	c0,5.102,4.136,9.237,9.237,9.237h56.632c3.823,0,6.921-3.099,6.921-6.921l0,0C436.125,351.996,423.844,339.715,408.695,339.715z"/>
<path style="fill:#7D7060;" d="M285.075,216.971H180.297c-53.015,0-95.994,42.977-95.994,95.994v16.54
	c0,14.031,11.374,25.405,25.405,25.405h178.735c14.031,0,25.405-11.375,25.405-25.405v-83.759
	C313.849,229.854,300.966,216.971,285.075,216.971z"/>
<path style="opacity:0.1;enable-background:new    ;" d="M285.075,216.971h-86.207c-2.635,9.365-4.047,19.242-4.047,29.45l0,0
	c0,56.535,43.246,102.962,98.461,108.023c11.716-2.259,20.568-12.563,20.568-24.939v-83.759
	C313.849,229.854,300.966,216.971,285.075,216.971z"/>
<path style="fill:#7D7060;" d="M395.603,354.911h-72.776c-59.917,0-108.488-48.572-108.488-108.488l0,0
	c0-59.917,48.572-108.488,108.488-108.488h72.776c59.917,0,108.488,48.573,108.488,108.488l0,0
	C504.093,306.338,455.52,354.911,395.603,354.911z"/>
<g>
	<path style="fill:#4A5058;" d="M382.795,250.582l-5.489,6.537c-9.44,11.243-26.741,11.243-36.181,0l-5.489-6.537
		c-2.828-3.367-0.433-8.504,3.964-8.504h39.23C383.228,242.078,385.622,247.215,382.795,250.582z"/>
	<path style="fill:#4A5058;" d="M285.804,189.687h-55.46c-10.148,16.507-16.005,35.936-16.005,56.734l0,0
		c0,1.911,0.051,3.812,0.149,5.7h71.316c17.241,0,31.217-13.976,31.217-31.217S303.044,189.687,285.804,189.687z"/>
	<path style="fill:#4A5058;" d="M432.627,189.687h55.46c10.148,16.507,16.005,35.936,16.005,56.734l0,0
		c0,1.911-0.051,3.812-0.149,5.7h-71.316c-17.241,0-31.217-13.976-31.217-31.217S415.387,189.687,432.627,189.687z"/>
</g>
<g>
	<path style="fill:#FFFFFF;" d="M289.889,231.974c-4.367,0-7.907-3.539-7.907-7.907c0-1.386-1.128-2.516-2.514-2.516
		s-2.515,1.128-2.515,2.516c0,4.368-3.54,7.907-7.907,7.907s-7.907-3.539-7.907-7.907c0-10.108,8.222-18.33,18.329-18.33
		c10.107,0,18.329,8.222,18.329,18.33C297.796,228.435,294.257,231.974,289.889,231.974z"/>
	<path style="fill:#FFFFFF;" d="M449.386,231.974c-4.367,0-7.907-3.539-7.907-7.907c0-1.386-1.128-2.516-2.515-2.516
		s-2.514,1.128-2.514,2.516c0,4.368-3.54,7.907-7.907,7.907c-4.367,0-7.907-3.539-7.907-7.907c0-10.108,8.222-18.33,18.329-18.33
		s18.329,8.222,18.329,18.33C457.293,228.435,453.753,231.974,449.386,231.974z"/>
</g>
<path style="fill:#6E614F;" d="M297.97,374.067h-71.596c-22.878,0-41.425-18.547-41.425-41.425l0,0
	c0-22.879,18.547-41.426,41.425-41.426h41.33c31.237,0,56.559,25.322,56.559,56.56l0,0
	C324.262,362.296,312.491,374.067,297.97,374.067z"/>
<path style="fill:#F8ECC8;" d="M35.338,374.067H82.79c9.541,0,17.276-7.734,17.276-17.276v-7.839c0-5.102-4.136-9.237-9.237-9.237
	h-76c-3.823,0-6.921,3.099-6.921,6.921l0,0C7.907,361.787,20.189,374.067,35.338,374.067z"/>
<path style="opacity:0.1;enable-background:new    ;" d="M90.828,339.715H25.227c3.358,19.507,20.346,34.352,40.812,34.352H82.79
	c9.541,0,17.276-7.734,17.276-17.276v-7.839C100.066,343.851,95.93,339.715,90.828,339.715z"/>
<path style="fill:#6E614F;" d="M116.046,374.067H62.753c-14.521,0-26.292-11.771-26.292-26.292l0,0
	c0-31.237,25.322-56.56,56.56-56.56h23.025c22.879,0,41.425,18.547,41.425,41.425l0,0
	C157.471,355.52,138.924,374.067,116.046,374.067z"/>
<path style="fill:#F8ECC8;" d="M348.661,339.715h-28.083c-9.541,0-17.276,7.734-17.276,17.276v17.076h65.868
	c3.823,0,6.921-3.099,6.921-6.921l0,0C376.091,351.996,363.81,339.715,348.661,339.715z"/>
<path style="opacity:0.2;enable-background:new    ;" d="M348.661,339.715h-28.083c-9.541,0-17.276,7.734-17.276,17.276v17.076
	h65.868c3.823,0,6.921-3.099,6.921-6.921l0,0C376.091,351.996,363.81,339.715,348.661,339.715z"/>
<path style="fill:#F8ECC8;" d="M324.26,339.715h-28.083c-9.541,0-17.276,7.734-17.276,17.276v17.076h65.868
	c3.823,0,6.921-3.099,6.921-6.921l0,0C351.691,351.996,339.409,339.715,324.26,339.715z"/>
<path style="opacity:0.1;enable-background:new    ;" d="M324.26,339.715h-28.083c-9.541,0-17.276,7.734-17.276,17.276v17.076
	h65.868c3.823,0,6.921-3.099,6.921-6.921l0,0C351.691,351.996,339.409,339.715,324.26,339.715z"/>
<path style="fill:#F8ECC8;" d="M299.859,339.715h-28.083c-9.541,0-17.276,7.734-17.276,17.276v7.839
	c0,5.102,4.136,9.237,9.237,9.237h56.632c3.823,0,6.921-3.099,6.921-6.921l0,0C327.29,351.996,315.009,339.715,299.859,339.715z"/>
<path d="M386.155,271.932c-4.367,0-7.907,3.539-7.907,7.907c0,3.067-2.496,5.563-5.562,5.563s-5.562-2.496-5.562-5.563v-7.395
	c6.284-1.624,11.969-5.157,16.238-10.24l5.489-6.536c3.306-3.938,4.012-9.28,1.839-13.941c-2.172-4.661-6.716-7.556-11.858-7.556
	H339.6c-5.142,0-9.686,2.895-11.858,7.556c-2.173,4.661-1.468,10.002,1.839,13.941l5.489,6.536
	c4.27,5.085,9.955,8.618,16.239,10.241v7.395c0,3.067-2.496,5.563-5.562,5.563s-5.562-2.496-5.562-5.563
	c0-4.368-3.54-7.907-7.907-7.907c-4.367,0-7.907,3.539-7.907,7.907c0,11.788,9.59,21.377,21.377,21.377
	c5.102,0,9.791-1.795,13.47-4.79c3.678,2.994,8.368,4.79,13.47,4.79c11.787,0,21.377-9.59,21.377-21.377
	C394.062,275.471,390.523,271.932,386.155,271.932z M359.215,257.643c-4.655,0-9.042-2.044-12.035-5.61l-1.72-2.047h27.51
	l-1.72,2.047C368.258,255.598,363.871,257.643,359.215,257.643z M471.416,334.669C496.248,313.307,512,281.671,512,246.421
	c0-64.181-52.215-116.396-116.396-116.396h-72.776c-51.12,0-94.648,33.125-110.247,79.039h-32.284
	c-23.685,0-46.856,8.182-65.246,23.04c-16.698,13.491-28.87,31.967-34.7,52.463c-24.292,4.861-43.698,23.414-49.792,47.242h-15.73
	C6.652,331.808,0,338.459,0,346.636c0,19.484,15.852,35.338,35.338,35.338h80.708c15.842,0,29.954-7.514,38.986-19.157h32.356
	c9.032,11.643,23.144,19.157,38.986,19.157H369.17c0.552,0,1.095-0.036,1.632-0.095c0.588,0.061,1.18,0.095,1.77,0.095h105.433
	c8.176,0,14.829-6.653,14.829-14.828C492.834,352.601,483.999,340.084,471.416,334.669z M15.839,347.622h12.718
	c0,0.052-0.004,0.102-0.004,0.154c0,6.734,1.964,13.014,5.339,18.313C24.127,365.368,16.33,357.449,15.839,347.622z
	 M483.511,197.594c7.731,13.865,12.28,29.734,12.646,46.619h-63.53c-12.853,0-23.309-10.457-23.309-23.308
	c0-12.853,10.457-23.309,23.309-23.309h50.884V197.594z M234.921,197.594h50.884c12.853,0,23.309,10.457,23.309,23.309
	c0,12.852-10.457,23.308-23.309,23.308h-63.53C222.64,227.329,227.189,211.46,234.921,197.594z M116.046,366.16H62.753
	c-10.137,0-18.385-8.247-18.385-18.385c0-26.827,21.825-48.653,48.652-48.653h23.025c18.482,0,33.518,15.036,33.518,33.518
	C149.564,351.124,134.527,366.16,116.046,366.16z M177.041,332.642c0,4.994,0.752,9.814,2.139,14.362h-15.94
	c1.386-4.547,2.138-9.367,2.138-14.362c0-27.202-22.131-49.333-49.333-49.333H97.348c5.431-15.134,15.009-28.698,27.641-38.904
	c15.812-12.774,34.937-19.527,55.308-19.527h28.141c-1.313,6.985-2.006,14.183-2.006,21.544c0,13.356,2.225,26.341,6.607,38.733
	C192.298,290.987,177.041,310.061,177.041,332.642z M246.66,366.16h-20.287c-18.482,0-33.519-15.036-33.519-33.518
	c0-18.482,15.036-33.518,33.519-33.518h41.33c20.9,0,39.261,13.539,45.945,32.684h-41.873c-13.885,0-25.183,11.298-25.183,25.184
	v7.84C246.593,365.279,246.627,365.719,246.66,366.16z M263.737,366.16c-0.733,0-1.329-0.596-1.329-1.329v-7.84
	c0-5.166,4.202-9.37,9.368-9.37h28.083c10.434,0,18.984,8.229,19.499,18.538h-55.622V366.16z M335.172,366.16
	c-0.179-6.497-2.116-12.56-5.358-17.729c7.766,2.309,13.525,9.326,13.945,17.729H335.172z M359.573,366.16
	c-0.179-6.497-2.116-12.56-5.358-17.729c7.766,2.309,13.526,9.326,13.945,17.729H359.573z M348.661,331.808h-18.517
	c-7.191-28.079-32.899-48.499-62.441-48.499h-38.476c-2.969-7.512-4.999-15.295-6.075-23.281h62.651
	c21.573,0,39.124-17.55,39.124-39.123s-17.551-39.124-39.124-39.124h-39.969c18.465-21.958,46.126-35.94,76.993-35.94h72.776
	c30.868,0,58.528,13.982,76.993,35.94h-39.97c-21.573,0-39.124,17.552-39.124,39.124s17.551,39.123,39.124,39.123h62.634
	c-6.663,49.048-48.811,86.975-99.658,86.975h-17.931C371.283,337.828,360.664,331.808,348.661,331.808z M383.973,366.16
	c-0.032-1.128-0.115-2.243-0.25-3.342h11.88c10.617,0,20.904-1.437,30.684-4.113c1.115,2.324,1.773,4.857,1.905,7.455H383.973z
	 M444.01,366.16c-0.123-4.383-1.057-8.683-2.736-12.682c1.287-0.551,2.56-1.128,3.823-1.723c4.453,3.461,7.211,8.68,7.496,14.405
	H444.01z M468.399,366.16c-0.176-6.408-2.045-12.49-5.309-17.72c7.746,2.32,13.486,9.331,13.905,17.72H468.399z"/>
<g>
</g>
<g>
</g>
<g>
</g>
<g>
</g>
<g>
</g>
<g>
</g>
<g>
</g>
<g>
</g>
<g>
</g>
<g>
</g>
<g>
</g>
<g>
</g>
<g>
</g>
<g>
</g>
<g>
</g>
</svg>
