<svg id="Map" enable-background="new 0 0 64 64" viewBox="0 0 64 64" xmlns="http://www.w3.org/2000/svg"><g id="Fill"><path d="m58 46v2.23 2.23c-1.6.72-3.4.72-5 0 0-.15 0-.31 0-.46v-1-1-29-6h-16.17c-1.81 0-3.55.72-4.83 2-1.28-1.28-3.02-2-4.83-2h-16.17v6 29 1 1 .46c-1.6.72-3.4.72-5 0v-2.23-2.23c-2.76 0-5 1.24-5 4v1.32c0 2.58 2.1 4.68 4.68 4.68h21.49c1.81 0 3.55-.72 4.83-2 1.28 1.28 3.02 2 4.83 2h21.49c2.58 0 4.68-2.1 4.68-4.68v-1.32c0-2.76-2.24-4-5-4z" fill="#bdc581"/><path d="m16 39c.41-3.3 4.08-6.07 7-6 .07 0 .12 0 .17.01 2.9.16 4.95 2.14 5.83 2.99 1.39 1.35 4.17 4.04 4 8-.02.5-.25 4.6-3 6-3.73 1.9-8.79-2.85-10-4-2.06-1.93-4.36-4.09-4-7z" fill="#f8efba"/><path d="m58 50.46v-2.23-2.23c-2.76 0-5 1.24-5 4v.46c1.6.72 3.4.72 5 0z" fill="#eab543"/><path d="m6 46v2.23 2.23c1.6.72 3.4.72 5 0 0-.15 0-.31 0-.46 0-2.76-2.24-4-5-4z" fill="#eab543"/><path d="m6 8c-2.76 0-5 1.24-5 4v1 37c0-2.76 2.24-4 5-4s5 1.24 5 4v-2-35-1c0-2.76-2.24-4-5-4z" fill="#eab543"/><path d="m58 8c-2.76 0-5 1.24-5 4v1 35 2c0-2.76 2.24-4 5-4s5 1.24 5 4v-37-1c0-2.76-2.24-4-5-4z" fill="#eab543"/><path d="m46.76 29.47-2.26-4.97-2.16-4.75c-.13-.29-.55-.29-.68 0l-2.16 4.75-1.18 2.6.18.4 1.14 2.5h2.36 4.42c.27 0 .45-.28.34-.53z" fill="#f97f51"/><path d="m40.76 32.47-1.12-2.47-1.14-2.5-.18-.4-1.98-4.35c-.13-.29-.55-.29-.68 0l-2.16 4.75-2.26 4.97c-.11.25.07.53.34.53h4.42 4.42c.27 0 .45-.28.34-.53z" fill="#eab543"/><g fill="#f97f51"><path d="m20.3 32.12h.09c.51 0 .95-.39.99-.91.05-.54.11-1.08.16-1.61l.04-.37c.05-.55-.35-1.04-.9-1.09-.54-.05-1.04.35-1.09.9l-.04.37c-.05.53-.11 1.08-.16 1.63-.04.54.36 1.03.91 1.08z"/><path d="m17.7 18.02c-.77-.17-1.59-.17-2.4 0-.54.11-.89.64-.78 1.18.1.47.51.8.98.8.07 0 .13-.01.2-.02.54-.11 1.07-.11 1.57 0 .54.12 1.07-.23 1.19-.77s-.22-1.07-.76-1.19z"/><path d="m21.29 37.99c-.07-.59-.12-1.23-.13-1.9-.01-.55-.48-.95-1.02-.98-.55.01-.99.47-.98 1.02.02.74.07 1.44.15 2.09.06.51.49.88.99.88.04 0 .08 0 .12-.01.55-.05.94-.55.87-1.1z"/><path d="m19.89 24.19c.02.54.46.96 1 .96h.04c.55-.02.98-.49.96-1.04-.03-.88-.14-1.6-.33-2.23-.16-.53-.72-.83-1.25-.67s-.83.72-.67 1.25c.14.46.22 1.02.25 1.73z"/><path d="m35.8 45.57c-.58.28-.99.44-1.14.49-.17.06-.35.12-.53.16-.53.14-.85.69-.72 1.22.12.45.52.75.97.75.08 0 .17-.01.25-.03.24-.06.48-.14.7-.22s.7-.26 1.35-.58c.5-.24.7-.84.46-1.34-.24-.49-.84-.7-1.34-.45z"/><path d="m29.59 46.28c-.61-.11-1.22-.26-1.8-.45-.52-.18-1.09.12-1.26.64s.11 1.09.64 1.26c.67.22 1.37.4 2.07.52.06.01.12.02.18.02.48 0 .9-.34.98-.83.1-.54-.26-1.06-.81-1.16z"/><path d="m22.82 42.43-.11-.17c-.31-.46-.93-.59-1.39-.28-.46.3-.59.92-.28 1.39l.14.21c.37.53.81 1.03 1.3 1.49.19.18.44.27.68.27.27 0 .54-.11.73-.32.38-.4.35-1.04-.05-1.41-.39-.38-.73-.77-1.02-1.18z"/><path d="m44 45c-.26 0-.51-.1-.71-.29l-4-4c-.39-.39-.39-1.02 0-1.41s1.02-.39 1.41 0l4 4c.39.39.39 1.02 0 1.41-.19.19-.44.29-.7.29z"/><path d="m40 45c-.26 0-.51-.1-.71-.29-.39-.39-.39-1.02 0-1.41l4-4c.39-.39 1.02-.39 1.41 0s.39 1.02 0 1.41l-4 4c-.19.19-.44.29-.7.29z"/></g></g><g fill="#2c3a47"><g id="Shading"><path d="m11 13v6 29 1 1c0-2.76-2.24-4-5-4s-5 1.24-5 4v1.32c0 2.58 2.1 4.68 4.68 4.68h8.32v-43z" opacity=".1"/><path d="m58 46c-2.76 0-5 1.24-5 4v-1-1-29-6h-3v43h8.32c2.58 0 4.68-2.1 4.68-4.68v-1.32c0-2.76-2.24-4-5-4z" opacity=".1"/><path d="m4 8.26c-1.76.48-3 1.69-3 3.74v1 37c0-2.05 1.24-3.26 3-3.74z" opacity=".1"/><path d="m60 8.26v38c1.76.49 3 1.7 3 3.74v-37-1c0-2.05-1.24-3.26-3-3.74z" opacity=".1"/></g><g id="Outline"><path d="m58.32 57h-21.49c-1.75 0-3.46-.6-4.83-1.67-1.37 1.07-3.08 1.67-4.83 1.67h-21.49c-3.13 0-5.68-2.55-5.68-5.68v-1.32c0-3.04 2.35-5 6-5 .55 0 1 .45 1 1v3.77c.98.3 2.02.3 3 0v-36.77c0-.55.45-1 1-1h16.17c1.77 0 3.46.59 4.83 1.66 1.37-1.08 3.05-1.66 4.83-1.66h16.17c.55 0 1 .45 1 1v36.77c.98.3 2.02.3 3 0v-3.77c0-.55.45-1 1-1 3.64 0 6 1.96 6 5v1.32c0 3.13-2.55 5.68-5.68 5.68zm-26.32-4c.26 0 .51.1.71.29 1.08 1.08 2.59 1.71 4.12 1.71h21.49c2.03 0 3.68-1.65 3.68-3.68v-1.32c0-2.1-1.68-2.75-3-2.93v3.39c0 .39-.23.75-.59.91-1.88.84-3.94.84-5.81 0-.37-.16-.6-.51-.6-.91v-36.46h-15.17c-1.56 0-3.02.61-4.12 1.71-.38.38-1.04.38-1.41 0-1.1-1.1-2.56-1.71-4.12-1.71h-15.18v36.46c0 .39-.23.75-.59.91-1.88.84-3.94.84-5.81 0-.37-.15-.6-.51-.6-.91v-3.39c-1.32.18-3 .83-3 2.93v1.32c0 2.03 1.65 3.68 3.68 3.68h21.49c1.53 0 3.04-.62 4.12-1.71.2-.19.45-.29.71-.29z"/><path d="m55.5 52c-.99 0-1.97-.21-2.91-.63-.36-.16-.59-.51-.59-.91v-.46c0-3.04 2.36-5 6-5 .55 0 1 .45 1 1v4.46c0 .39-.23.75-.59.91-.94.42-1.92.63-2.91.63zm-1.49-2.22c.98.3 2.01.3 2.99 0v-2.7c-1.27.17-2.88.77-2.99 2.7z"/><path d="m8.5 52c-.98 0-1.97-.21-2.91-.63-.36-.15-.59-.51-.59-.91v-4.46c0-.55.45-1 1-1 3.65 0 6 1.96 6 5v.46c0 .39-.23.75-.59.91-.94.42-1.93.63-2.91.63zm-1.5-2.23c.98.3 2.01.3 2.99 0-.11-1.92-1.72-2.52-2.99-2.7z"/><path d="m11 51c-.55 0-1-.45-1-1 0-2.71-2.8-3-4-3s-4 .29-4 3c0 .55-.45 1-1 1s-1-.45-1-1v-38c0-3.04 2.35-5 6-5s6 1.96 6 5v38c0 .55-.45 1-1 1zm-5-6c1.62 0 2.98.39 4 1.08v-34.08c0-2.71-2.8-3-4-3s-4 .29-4 3v34.08c1.02-.69 2.38-1.08 4-1.08z"/><path d="m63 51c-.55 0-1-.45-1-1 0-2.71-2.8-3-4-3s-4 .29-4 3c0 .55-.45 1-1 1s-1-.45-1-1v-38c0-3.04 2.36-5 6-5s6 1.96 6 5v38c0 .55-.45 1-1 1zm-5-6c1.62 0 2.98.39 4 1.08v-34.08c0-2.71-2.8-3-4-3s-4 .29-4 3v34.08c1.02-.69 2.38-1.08 4-1.08z"/><path d="m46.42 31h-6.78c-.39 0-.75-.23-.91-.59l-1.32-2.9c-.12-.26-.12-.56 0-.83l3.34-7.35c.22-.49.71-.81 1.25-.81s1.03.32 1.25.81l4.41 9.71c.2.43.16.92-.1 1.32-.24.4-.67.64-1.14.64zm-6.14-2h5.17l-3.45-7.58-2.58 5.68z"/><path d="m40.42 34h-8.83c-.47 0-.9-.24-1.16-.63-.25-.4-.29-.89-.1-1.32l4.42-9.71c.22-.49.71-.81 1.25-.81s1.03.32 1.25.81l4.41 9.71c.19.43.16.92-.1 1.32-.24.39-.67.63-1.14.63zm-7.87-2h6.89l-3.44-7.58z"/></g></g></svg>