<svg height="512pt" viewBox="0 0 512 512" width="512pt" xmlns="http://www.w3.org/2000/svg"><path d="m504.5 158.550781c0 83.421875-67.628906 151.050781-151.050781 151.050781s-151.050781-67.628906-151.050781-151.050781 67.628906-151.050781 151.050781-151.050781 151.050781 67.628906 151.050781 151.050781zm0 0" fill="#a3defe"/><path d="m266.957031 34.710938c-39.027343 27.308593-64.558593 72.589843-64.558593 123.839843 0 83.421875 67.628906 151.050781 151.050781 151.050781 52.453125 0 98.652343-26.738281 125.730469-67.324218-191.109376 41.046875-244.84375-133.363282-212.222657-207.566406zm0 0" fill="#7acefa"/><path d="m297.160156 167.984375c0 14.476563-14.734375 26.210937-32.914062 26.210937-18.175782 0-32.910156-11.734374-32.910156-26.210937s14.734374-26.210937 32.910156-26.210937c18.179687 0 32.914062 11.734374 32.914062 26.210937zm0 0" fill="#fff"/><path d="m409.738281 167.984375c0 14.476563 14.734375 26.210937 32.914063 26.210937 18.175781 0 32.914062-11.734374 32.914062-26.210937s-14.738281-26.210937-32.914062-26.210937c-18.179688 0-32.914063 11.734374-32.914063 26.210937zm0 0" fill="#fff"/><path d="m379.988281 147.84375c0-16.398438-11.882812-17.941406-26.539062-17.941406s-26.535157 1.542968-26.535157 17.941406 11.878907 29.695312 26.535157 29.695312 26.539062-13.296874 26.539062-29.695312zm0 0" fill="#4e5660"/><path d="m295.878906 281.308594 9.992188-53.0625c2.46875-13.101563-9.015625-24.585938-22.117188-22.117188l-53.0625 9.992188c-4.058594.765625-8.269531.347656-12.058594-1.296875-18.957031-8.230469-39.933593-12.683594-61.980468-12.414063-83.011719 1.023438-149.152344 68.023438-149.152344 151.039063 0 83.421875 67.628906 151.050781 151.050781 151.050781 83.011719 0 150.015625-66.136719 151.039063-149.144531.269531-22.050781-4.183594-43.027344-12.414063-61.988281-1.644531-3.789063-2.0625-8-1.296875-12.058594zm0 0" fill="#fcf2d0"/><path d="m113.796875 209.082031c-61.800781 18.976563-106.296875 76.28125-106.296875 144.367188 0 83.421875 67.628906 151.050781 151.050781 151.050781 55.054688 0 103.058594-29.097656 129.453125-72.90625-194.84375 52.652344-234.519531-152.640625-174.207031-222.511719zm0 0" fill="#f6e3a3"/><g fill="#4e5660"><path d="m158.550781 285.269531c8.964844 0 16.230469-7.269531 16.230469-16.234375v-4.507812c0-8.964844-7.265625-16.234375-16.230469-16.234375-8.964843 0-16.234375 7.269531-16.234375 16.234375v4.507812c0 8.964844 7.269532 16.234375 16.234375 16.234375zm34.1875 126.863281h-17.957031v-89.460937c0-8.96875-7.265625-16.234375-16.230469-16.234375h-24.117187c-8.964844 0-16.230469 7.265625-16.230469 16.234375 0 8.964844 7.265625 16.230469 16.230469 16.230469h7.882812v73.230468h-17.957031c-8.964844 0-16.230469 7.269532-16.230469 16.234376 0 8.964843 7.265625 16.234374 16.230469 16.234374h68.378906c8.964844 0 16.234375-7.269531 16.234375-16.234374 0-8.964844-7.269531-16.234376-16.234375-16.234376zm0 0"/><path d="m158.550781 285.269531c8.964844 0 16.230469-7.269531 16.230469-16.234375v-4.507812c0-8.964844-7.265625-16.234375-16.230469-16.234375-8.964843 0-16.234375 7.269531-16.234375 16.234375v4.507812c0 8.964844 7.269532 16.234375 16.234375 16.234375zm34.1875 126.863281h-17.957031v-89.460937c0-8.96875-7.265625-16.234375-16.230469-16.234375h-24.117187c-8.964844 0-16.230469 7.265625-16.230469 16.234375 0 8.964844 7.265625 16.230469 16.230469 16.230469h7.882812v73.230468h-17.957031c-8.964844 0-16.230469 7.269532-16.230469 16.234376 0 8.964843 7.265625 16.234374 16.230469 16.234374h68.378906c8.964844 0 16.234375-7.269531 16.234375-16.234374 0-8.964844-7.269531-16.234376-16.234375-16.234376zm0 0"/><path d="m158.550781 285.269531c8.964844 0 16.230469-7.269531 16.230469-16.234375v-4.507812c0-8.964844-7.265625-16.234375-16.230469-16.234375-8.964843 0-16.234375 7.269531-16.234375 16.234375v4.507812c0 8.964844 7.269532 16.234375 16.234375 16.234375zm34.1875 126.863281h-17.957031v-89.460937c0-8.96875-7.265625-16.234375-16.230469-16.234375h-24.117187c-8.964844 0-16.230469 7.265625-16.230469 16.234375 0 8.964844 7.265625 16.230469 16.230469 16.230469h7.882812v73.230468h-17.957031c-8.964844 0-16.230469 7.269532-16.230469 16.234376 0 8.964843 7.265625 16.234374 16.230469 16.234374h68.378906c8.964844 0 16.234375-7.269531 16.234375-16.234374 0-8.964844-7.269531-16.234376-16.234375-16.234376zm0 0"/></g><path d="m205.371094 438.550781c-25.5-3.585937-46.546875-13.082031-63.425782-26.417969h-17.585937c-8.964844 0-16.230469 7.269532-16.230469 16.234376 0 8.964843 7.265625 16.234374 16.230469 16.234374h68.378906c5.109375-.003906 9.65625-2.363281 12.632813-6.050781zm0 0" fill="#383c43"/><path d="m182.28125 269.035156v-4.507812c0-13.085938-10.644531-23.730469-23.730469-23.730469-13.085937 0-23.734375 10.644531-23.734375 23.730469v4.507812c0 13.085938 10.648438 23.734375 23.734375 23.734375 13.085938 0 23.730469-10.648437 23.730469-23.734375zm-32.464844 0v-4.507812c0-4.8125 3.917969-8.730469 8.734375-8.730469 4.8125 0 8.730469 3.917969 8.730469 8.730469v4.507812c0 4.816406-3.917969 8.734375-8.730469 8.734375-4.816406 0-8.734375-3.917969-8.734375-8.734375zm-25.457031 135.597656c-13.085937 0-23.730469 10.648438-23.730469 23.734376 0 13.085937 10.644532 23.730468 23.730469 23.730468h68.378906c13.085938 0 23.734375-10.644531 23.734375-23.730468 0-13.085938-10.648437-23.734376-23.734375-23.734376h-10.457031v-81.960937c0-13.085937-10.644531-23.734375-23.730469-23.734375h-24.117187c-13.085938 0-23.730469 10.644531-23.730469 23.734375 0 13.085937 10.644531 23.730469 23.730469 23.730469h.382812v58.230468zm17.957031-73.230468h-7.882812c-4.8125 0-8.730469-3.917969-8.730469-8.730469 0-4.816406 3.914063-8.734375 8.730469-8.734375h24.117187c4.8125 0 8.730469 3.917969 8.730469 8.734375v89.460937c0 4.144532 3.359375 7.5 7.5 7.5h17.957031c4.816407 0 8.734375 3.917969 8.734375 8.734376 0 4.8125-3.917968 8.730468-8.734375 8.730468h-68.378906c-4.8125 0-8.730469-3.914062-8.730469-8.730468 0-4.816407 3.914063-8.734376 8.730469-8.734376h17.957031c4.144532 0 7.5-3.355468 7.5-7.5v-73.230468c0-4.140625-3.355468-7.5-7.5-7.5zm211.132813-331.402344c-87.425781 0-158.550781 71.125-158.550781 158.550781 0 14.292969 1.894531 28.355469 5.632812 41.972657-14.222656-3.902344-28.9375-5.789063-43.972656-5.613282-42.128906.519532-81.535156 17.210938-110.949219 47.003906-29.410156 29.785157-45.609375 69.398438-45.609375 111.535157 0 31.160156 9.035156 61.320312 26.128906 87.222656 2.28125 3.457031 6.933594 4.410156 10.390625 2.128906s4.410157-6.933593 2.128907-10.390625c-15.472657-23.441406-23.648438-50.746094-23.648438-78.960937 0-38.167969 14.660156-74.035157 41.285156-100.996094 26.621094-26.964844 62.300782-42.074219 100.457032-42.542969 20.480468-.257812 40.296874 3.71875 58.90625 11.792969 5.132812 2.230469 10.816406 2.847656 16.433593 1.789063l53.058594-9.992188c3.773437-.710938 7.492187.4375 10.207031 3.152344s3.863282 6.433594 3.15625 10.207031l-9.996094 53.0625c-1.058593 5.613281-.4375 11.296875 1.792969 16.433594 8.074219 18.609375 12.042969 38.429687 11.789063 58.910156-.46875 38.15625-15.578125 73.832031-42.542969 100.453125-26.960937 26.621094-62.832031 41.28125-100.996094 41.28125-36.210937 0-70.792969-13.523438-97.375-38.078125-3.042969-2.8125-7.789062-2.621094-10.601562.421875-2.808594 3.042969-2.621094 7.789062.421875 10.597656 29.359375 27.121094 67.558594 42.058594 107.554687 42.058594 42.136719 0 81.746094-16.195312 111.535157-45.605469 29.789062-29.414062 46.480468-68.816406 47.003906-110.945312.183594-15.039063-1.707032-29.757813-5.609375-43.980469 13.617187 3.738281 27.675781 5.632812 41.96875 5.632812 46.382812 0 90.300781-20.230468 120.492187-55.496093 2.695313-3.144531 2.328125-7.878907-.820312-10.574219-3.144532-2.691406-7.882813-2.328125-10.574219.820312-27.335937 31.933594-67.101563 50.25-109.097656 50.25-16.449219 0-32.554688-2.761718-47.921875-8.207031-.476563-1.175781-.964844-2.347656-1.46875-3.515625-1.03125-2.371094-1.3125-5.027344-.8125-7.683594l9.996094-53.0625c1.617187-8.589843-1.105469-17.40625-7.289063-23.585937-6.179687-6.183594-15-8.90625-23.589844-7.289063l-53.058593 9.992188c-2.65625.503906-5.3125.222656-7.6875-.808594-1.164063-.507812-2.339844-.992187-3.511719-1.46875-5.445313-15.367187-8.207031-31.472656-8.207031-47.921875 0-79.15625 64.398437-143.550781 143.550781-143.550781 79.15625 0 143.550781 64.394531 143.550781 143.550781 0 23.015625-5.28125 44.996094-15.691406 65.332031-1.886719 3.683594-.429688 8.203126 3.257812 10.09375 1.09375.558594 2.261719.824219 3.410156.824219 2.726563 0 5.355469-1.492187 6.683594-4.082031 11.503906-22.472656 17.339844-46.753906 17.339844-72.167969 0-87.425781-71.125-158.550781-158.550781-158.550781zm76.199219 122.90625v14.128906c0 4.140625 3.359374 7.5 7.5 7.5 4.140624 0 7.5-3.359375 7.5-7.5v-14.128906c0-4.140625-3.359376-7.5-7.5-7.5-4.140626 0-7.5 3.359375-7.5 7.5zm-167.398438 0v14.128906c0 4.140625 3.359375 7.5 7.5 7.5s7.5-3.359375 7.5-7.5v-14.128906c0-4.140625-3.359375-7.5-7.5-7.5s-7.5 3.359375-7.5 7.5zm57.164062 24.9375c0 20.507812 15.265626 37.195312 34.035157 37.195312s34.039062-16.6875 34.039062-37.195312c0-25.441406-22.992187-25.441406-34.039062-25.441406s-34.035157 0-34.035157 25.441406zm53.070313 0c0 12.238281-8.539063 22.195312-19.035156 22.195312-10.496094 0-19.039063-9.957031-19.039063-22.195312 0-7.578125 1.644532-10.441406 19.039063-10.441406s19.035156 2.863281 19.035156 10.441406zm0 0"/></svg>