<svg id="Icon_Set" height="512" viewBox="0 0 256 256" width="512" xmlns="http://www.w3.org/2000/svg"><g><g><g><path d="m94.335 122.121c-26.864-18.741-76.29-15.231-76.29-15.231s10.928-14.931 23.572-16.683c0 0-6.051-10.799-17.421-19.196 0 0 14.825-4.458 70.14 12.663l46.471 12.63-10.967 42.714z" fill="#ea2a6a"/></g><g><circle cx="159.343" cy="28.202" fill="#ffbb98" r="18.537"/></g><g><path d="m233.343 51.728c-5.543-4.754-13.89-4.114-18.644 1.429l-18.742 21.853-33.949-11.57c-3.111-1.501-6.798-1.795-10.296-.511l-54.596 20.029c-6.856 2.515-10.375 10.111-7.859 16.967 2.516 6.86 10.116 10.374 16.967 7.859l31.629-11.603-23.901 80.104-50.022 47.207c-5.311 5.012-5.553 13.38-.541 18.691 5.01 5.31 13.379 5.554 18.691.541l49.709-46.912 22.532-2.545-18.376 33.48c-4.845 8.827 1.592 19.587 11.579 19.587 4.671 0 9.197-2.48 11.603-6.863l30.652-55.844c5.154-9.39-2.448-20.699-13.075-19.501l-33.647 3.801 22.768-75.247 30.075 10.25c5.119 1.745 10.782.197 14.302-3.907l24.571-28.648c4.753-5.545 4.113-13.893-1.43-18.647z" fill="#5fcdff"/></g><g><path d="m157.076 121.604-9.432 31.183c-35.626-1.113-102.097 2.004-123.011 26.973.209-.683 7.382-22.313 23.216-29.265 0 0-4.771-13.013-23.227-11.812 0 0 31.888-19.382 105.712-17.299 0 0 26.74.22 26.742.22z" fill="#ff4a73"/></g><g><path d="m166.851 45.162c-12.1 5.389-26.04-3.454-26.04-16.96 0-13.483 13.915-22.36 26.04-16.96-6.51 2.87-11.04 9.39-11.04 16.96s4.53 14.09 11.04 16.96z" fill="#ffcaa6"/></g><g><path d="m109.611 106.542-3.39 1.24c-6.85 2.52-14.45-1-16.96-7.86-2.52-6.85 1-14.45 7.85-16.96l54.6-20.03c3.5-1.29 7.19-.99 10.3.51l1.72.58-51.62 18.94c-10.382 3.805-11.65 17.852-2.5 23.58z" fill="#73d7f9"/></g><g><path d="m56.621 90.202c-11.84 1.65-22.17 14.83-23.44 16.51-9.06-.25-15.14.18-15.14.18s10.93-14.93 23.58-16.69c0 0-6.06-10.79-17.43-19.19 0 0 3.87-1.16 15.02-.01-.01.01-.02.01-.02.01 11.37 8.4 17.43 19.19 17.43 19.19z" fill="#ff4a73"/></g><g><path d="m157.076 121.604-9.432 31.183c-35.626-1.113-102.097 2.004-123.011 26.973.209-.683 7.382-22.313 23.216-29.265 0 0-4.771-13.013-23.227-11.812 0 0 31.888-19.382 105.712-17.299 0 0 26.74.22 26.742.22z" fill="#ff4a73"/></g><g><path d="m69.091 145.682c-9.05 3.98-15.96 11.57-20.93 18.99-9.95 3.81-18.21 8.74-23.53 15.09.21-.69 7.38-22.31 23.22-29.27 0 0-4.77-13.01-23.23-11.81 0 0 6.9-4.2 21.72-8.47 17.86 2.11 22.75 15.47 22.75 15.47z" fill="#f973a3"/></g></g><g fill="#5f266d"><path d="m159.34 50.737c12.43 0 22.54-10.11 22.54-22.53 0-12.43-10.11-22.54-22.54-22.54-12.42 0-22.53 10.11-22.53 22.54 0 12.42 10.11 22.53 22.53 22.53zm0-37.07c8.02 0 14.54 6.52 14.54 14.54 0 8.01-6.52 14.53-14.54 14.53-8.01 0-14.53-6.52-14.53-14.53 0-8.02 6.52-14.54 14.53-14.54z"/><path d="m235.948 48.698c-7.234-6.215-18.098-5.363-24.283 1.851l-16.978 19.804-31.171-10.623c-4.191-1.948-8.864-2.145-13.183-.552-59.503 21.828-54.422 19.938-55.576 20.442-54.279-16.719-70.084-12.929-71.713-12.439-3.147.946-3.872 5.093-1.224 7.048 6.169 4.556 10.706 9.926 13.406 13.594-11.383 4.52-19.99 16.133-20.408 16.705-2.007 2.742.119 6.593 3.511 6.352.416-.029 36.389-2.411 62.517 8.49-39.31 4.651-57.305 15.288-58.305 15.898-1.57.95-2.29 2.86-1.73 4.62.55 1.76 2.25 2.91 4.07 2.79 9.83-.65 14.97 3.33 17.37 6.26-15.05 9.3-21.37 29.43-21.44 29.65-1.282 4.166 4.111 7.054 6.89 3.74 13.69-16.33 50.4-23.58 87.83-25.32h.001l-5.105 17.103-49.239 46.473c-6.922 6.531-7.235 17.422-.705 24.345 6.519 6.91 17.408 7.249 24.345.704l48.74-45.995 13.533-1.532-14.667 26.715c-6.295 11.485 2.05 25.512 15.088 25.512 6.292 0 12.083-3.422 15.117-8.936l30.65-55.851c6.697-12.212-3.19-26.964-17.036-25.398l-27.604 3.118c2.915-9.636 2.821-9.318 2.821-9.318 11.438-37.82 7.207-23.832 16.981-56.143l26.163 8.915c6.7 2.276 14.011.279 18.624-5.093l24.57-28.65c6.204-7.236 5.356-18.104-1.86-24.279zm-208.653 53.912c3.901-3.68 9.281-7.666 14.87-8.44 2.79-.387 4.315-3.464 2.941-5.917-.198-.354-3.815-6.729-10.642-13.61 8.96.531 25.354 2.904 52.94 11.11-9.39 13.989 4.773 31.461 20.194 25.786l24.138-8.853-4.367 14.632c-1.833 0-14.326-.463-31.977.701-20.721-13.669-52.341-15.456-68.097-15.409zm149.855 65.487c7.422-.833 12.722 7.043 9.125 13.601l-30.647 55.846c-1.625 2.953-4.731 4.788-8.106 4.788-6.955 0-11.445-7.513-8.074-13.665l18.38-33.48c.719-1.31.648-2.912-.184-4.153s-2.287-1.914-3.772-1.747l-22.53 2.55c-.86.097-1.666.471-2.295 1.065l-49.71 46.91c-3.637 3.432-9.482 3.392-13.035-.375-3.496-3.705-3.332-9.538.376-13.036l50.02-47.21c.511-.483.886-1.091 1.087-1.765l6.185-20.719c6.167-.15 12.314-.16 18.32-.05l-3.057 10.107c-.834 2.757 1.44 5.459 4.277 5.133zm-32.455-19.39h-.005c-31.572-.745-80.377 1.794-108.31 16.92 3.29-4.61 7.64-9.08 13.08-11.47 1.93-.85 2.87-3.06 2.14-5.04-.16-.46-3.18-8.35-12.64-12.3 36.504-12.922 74.398-11.523 112.74-11.27-1.574 5.207-.22.728-7.005 23.16zm87.04-80.939-24.569 28.648c-2.47 2.877-6.386 3.948-9.975 2.729l-30.08-10.25c-2.139-.729-4.464.461-5.119 2.628l-7.881 26.053c-.001 0-.001 0-.002 0-6.147-.08-15.5-.082-18.436-.11l6.01-20.141c.939-3.148-2.122-6.032-5.21-4.899l-31.633 11.602c-4.765 1.752-10.065-.677-11.825-5.488-1.757-4.776.692-10.071 5.474-11.823l54.605-20.032c3.91-1.439 6.626.203 7.626.543l33.95 11.57c1.55.528 3.263.059 4.327-1.183l18.74-21.86c3.305-3.854 9.117-4.322 13.002-.984 3.87 3.312 4.313 9.129.996 12.997z"/></g></g></svg>