<svg id="Layer_1" enable-background="new 0 0 512.002 512.002" height="512" viewBox="0 0 512.002 512.002" width="512" xmlns="http://www.w3.org/2000/svg"><path d="m207.266 300h-110.528c-9.243 0-16.736 7.493-16.736 16.736v94.528c0 9.243 7.493 16.736 16.736 16.736h110.528c9.243 0 16.736-7.493 16.736-16.736v-94.528c0-9.243-7.493-16.736-16.736-16.736z" fill="#02735e"/><ellipse cx="96.002" cy="60" fill="#f7d469" rx="80" ry="32"/><path d="m484.034 297.552-8.704-29.261c-2.635-8.859-11.954-13.905-20.813-11.269l-139.877 41.61c-8.859 2.635-13.905 11.954-11.269 20.813l8.704 29.261c2.635 8.859 11.954 13.905 20.813 11.269l139.877-41.611c8.859-2.634 13.904-11.953 11.269-20.812z" fill="#02735e"/><g fill="#f29f05"><path d="m120.002 132h112v80h-112z"/><path d="m288.002 132h112v80h-112z"/></g><circle cx="256.002" cy="364" fill="#f25050" r="120"/><circle cx="256.002" cy="364" fill="#f29f05" r="88"/><g><path d="m448.002 425.04v-90.966l27.036-8.045c6.336-1.881 11.559-6.117 14.707-11.93 3.147-5.812 3.841-12.5 1.956-18.83l-8.701-29.265c-3.893-13.063-17.692-20.532-30.77-16.653l-4.227 1.258v-174.609c0-4.418-3.582-8-8-8s-8 3.582-8 8v179.37l-80.188 23.854c-21.812-24.624-52.943-40.806-87.813-42.967v-43.313l16-8v27.056c0 4.418 3.582 8 8 8h112c4.418 0 8-3.582 8-8v-80c0-4.418-3.582-8-8-8h-112c-4.418 0-8 3.582-8 8v35.056l-23.425 11.713-16.575-11.05v-35.719c0-4.418-3.582-8-8-8h-112c-4.418 0-8 3.582-8 8v80c0 4.418 3.582 8 8 8h112c4.418 0 8-3.582 8-8v-25.052l8 5.333v43.976c-40.592 2.516-76.119 24.03-97.774 55.743h-53.485c-13.642 0-24.74 11.099-24.74 24.74v94.52c0 13.642 11.099 24.74 24.74 24.74h20.654l-13.086 45.802c-1.213 4.248 1.246 8.676 5.495 9.89.734.209 1.474.31 2.202.31 3.481 0 6.685-2.291 7.688-5.804l14.341-50.198h16.191c5.296 7.755 11.422 14.899 18.249 21.306-.02.055-.045.108-.064.164l-8 24c-1.397 4.191.868 8.722 5.06 10.119.839.28 1.692.413 2.531.413 3.35 0 6.471-2.12 7.588-5.472l6.118-18.354c20.961 14.991 46.614 23.824 74.292 23.824s53.331-8.833 74.292-23.825l6.118 18.354c1.117 3.353 4.239 5.472 7.588 5.472.838 0 1.692-.133 2.531-.413 4.191-1.397 6.457-5.928 5.06-10.119l-8-24c-.019-.056-.044-.108-.064-.164 15.484-14.533 27.359-32.864 34.127-53.492.096-.02.192-.03.288-.053l32-8c3.561-.891 6.06-4.09 6.06-7.761v-44.402l16-4.761v86.204l-46.074 53.753c-2.875 3.355-2.487 8.405.868 11.281 1.509 1.293 3.36 1.926 5.203 1.926 2.254 0 4.496-.948 6.078-2.793l33.926-39.58v34.373c0 4.418 3.582 8 8 8s8-3.582 8-8v-34.374l33.926 39.58c1.583 1.846 3.823 2.793 6.078 2.793 1.842 0 3.694-.633 5.203-1.926 3.354-2.875 3.743-7.926.868-11.281zm0-157.737 8.786-2.614c4.623-1.375 9.501 1.268 10.875 5.88l8.701 29.265c.666 2.235.421 4.595-.689 6.646-1.111 2.051-2.954 3.546-5.196 4.212l-22.478 6.689v-50.078zm-152-127.303h96v64h-96zm-72 32.025v.031 31.944h-96v-64h96zm-83.082 247.975h-44.177c-4.819 0-8.74-3.921-8.74-8.74v-94.52c0-4.819 3.921-8.74 8.74-8.74h44.178c-8.269 16.925-12.918 35.929-12.918 56s4.648 39.075 12.917 56zm115.082 56c-61.757 0-112-50.243-112-112s50.243-112 112-112 112 50.243 112 112-50.243 112-112 112zm144-94.246-17.938 4.484c1.271-7.225 1.938-14.655 1.938-22.238 0-3.619-.159-7.201-.455-10.744l16.455-4.897zm32-59.611-50.817 15.122c-3.447-16.155-9.945-31.191-18.869-44.471l69.686-20.73z"/><path d="m376.002 76h40c2.122 0 4.157-.843 5.657-2.343l7.509-7.509c5.974-5.974 15.694-5.974 21.668 0l7.509 7.509c1.5 1.5 3.535 2.343 5.657 2.343h40c4.418 0 8-3.582 8-8s-3.582-8-8-8h-36.687l-5.166-5.166c-5.916-5.916-13.781-9.174-22.147-9.174s-16.232 3.258-22.147 9.174l-5.166 5.166h-36.687c-4.418 0-8 3.582-8 8s3.582 8 8 8z"/><path d="m56.002 425.876v-244.489l29.17-81.676c3.568.186 7.18.289 10.83.289 22.362 0 43.507-3.532 59.54-9.945 18.353-7.341 28.46-18.015 28.46-30.055s-10.107-22.714-28.46-30.055c-16.032-6.413-37.177-9.945-59.54-9.945s-43.507 3.532-59.54 9.945c-18.352 7.341-28.46 18.015-28.46 30.055s10.107 22.714 28.46 30.055c9.291 3.716 20.304 6.458 32.27 8.112l-68.264 191.142c-1.486 4.161.683 8.739 4.843 10.225.89.317 1.797.468 2.69.468 3.286 0 6.366-2.04 7.535-5.311l24.466-68.504v199.689l-30.945 54.155c-2.192 3.836-.859 8.723 2.977 10.915 3.837 2.193 8.723.859 10.915-2.977l25.054-43.845 25.054 43.845c1.477 2.584 4.176 4.032 6.953 4.032 1.346 0 2.71-.34 3.962-1.056 3.836-2.192 5.169-7.079 2.977-10.915zm-32-365.876c0-9.786 28.048-24 72-24s72 14.214 72 24-28.048 24-72 24c-1.76 0-3.484-.031-5.192-.075l4.727-13.234c1.486-4.161-.683-8.739-4.843-10.225-4.164-1.487-8.739.682-10.225 4.843l-6.233 17.451c-31.225-3.661-50.234-14.706-50.234-22.76z"/><path d="m256.002 268c-52.935 0-96 43.065-96 96s43.065 96 96 96 96-43.065 96-96-43.065-96-96-96zm0 176c-44.112 0-80-35.888-80-80s35.888-80 80-80 80 35.888 80 80-35.887 80-80 80z"/><path d="m144.002 188c4.418 0 8-3.582 8-8v-16c0-4.418-3.582-8-8-8s-8 3.582-8 8v16c0 4.419 3.582 8 8 8z"/><path d="m176.002 188c4.418 0 8-3.582 8-8v-16c0-4.418-3.582-8-8-8s-8 3.582-8 8v16c0 4.419 3.582 8 8 8z"/><path d="m208.002 188c4.418 0 8-3.582 8-8v-16c0-4.418-3.582-8-8-8s-8 3.582-8 8v16c0 4.419 3.582 8 8 8z"/><path d="m312.002 156c-4.418 0-8 3.582-8 8v16c0 4.418 3.582 8 8 8s8-3.582 8-8v-16c0-4.418-3.581-8-8-8z"/><path d="m344.002 156c-4.418 0-8 3.582-8 8v16c0 4.418 3.582 8 8 8s8-3.582 8-8v-16c0-4.418-3.581-8-8-8z"/><path d="m376.002 156c-4.418 0-8 3.582-8 8v16c0 4.418 3.582 8 8 8s8-3.582 8-8v-16c0-4.418-3.581-8-8-8z"/><path d="m504.002 84h-40c-4.418 0-8 3.582-8 8s3.582 8 8 8h40c4.418 0 8-3.582 8-8s-3.581-8-8-8z"/><path d="m376.002 100h40c4.418 0 8-3.582 8-8s-3.582-8-8-8h-40c-4.418 0-8 3.582-8 8s3.582 8 8 8z"/></g></svg>