<?xml version="1.0" encoding="UTF-8"?>
<!-- Generator: Adobe Illustrator 27.0.0, SVG Export Plug-In . SVG Version: 6.00 Build 0)  -->
<svg xmlns="http://www.w3.org/2000/svg" xmlns:xlink="http://www.w3.org/1999/xlink" version="1.1" id="Capa_1" x="0px" y="0px" viewBox="0 0 511.999 511.999" style="enable-background:new 0 0 511.999 511.999;" xml:space="preserve" width="512" height="512">
<g>
	<g>
		<polygon style="fill:#002D61;" points="395.712,270.355 429.648,188.309 436.179,193.187 399.33,274.136   "/>
		<polygon style="fill:#FFE552;" points="420.531,202.116 432.621,206.771 510.443,213.657 373.478,162.961   "/>
		<polygon style="fill:#FFE552;" points="511.999,212.099 373.478,157.18 451.47,162.778   "/>
		
			<rect x="423.617" y="202.331" transform="matrix(0.3496 -0.9369 0.9369 0.3496 80.3376 534.8625)" style="fill:#FFE552;" width="3.556" height="14.476"/>
	</g>
	<g>
		<path style="fill:#FFE552;" d="M186.985,202.275c-15.841,23.823-69.552,15.957-119.964-17.568    C16.609,151.18-11.416,104.694,4.427,80.869c15.842-23.82,69.552-15.952,119.964,17.571    C174.803,131.963,202.83,178.453,186.985,202.275z"/>
		<path style="opacity:0.2;fill:#FFFFFF;" d="M165.769,192.656c-11.709,17.61-55.716,8.931-98.287-19.38    C24.908,144.965-0.111,107.739,11.599,90.13c11.711-17.608,55.716-8.931,98.289,19.382    C152.461,137.821,177.481,175.048,165.769,192.656z"/>
		<path style="opacity:0.2;fill:#FFFFFF;" d="M155.287,190.306c-9.051,13.61-43.063,6.903-75.969-14.977    c-32.906-21.883-52.243-50.657-43.192-64.266c9.052-13.613,43.065-6.901,75.969,14.978    C144.999,147.924,164.338,176.697,155.287,190.306z"/>
		<path style="fill:#002D61;" d="M111.391,273.866c0.445,1.335-46.693-79.154-46.693-79.154l26.237-44.025l9.784,9.782    l-28.016,35.131l41.357,76.489L111.391,273.866z"/>
	</g>
	<g>
		<polygon style="fill:#00B4D0;" points="117.331,200.369 224.504,173.687 232.953,244.393 144.735,275.076   "/>
		<path style="fill:#9FEBE4;" d="M123.261,203.63l96.944-25.793C220.206,177.837,183.148,259.367,123.261,203.63z"/>
		<path style="fill:#002D61;" d="M161.912,241.223c-0.684,0-1.358-0.01-2.024-0.028l0.1-3.557c1.132,0.033,2.288,0.037,3.467,0.011    l0.082,3.556C162.991,241.217,162.448,241.223,161.912,241.223z M167.182,241.023l-0.268-3.548    c1.129-0.086,2.277-0.202,3.439-0.355l0.464,3.527C169.59,240.808,168.377,240.933,167.182,241.023z M156.247,240.997    c-1.247-0.101-2.458-0.23-3.631-0.385l0.466-3.527c1.114,0.147,2.263,0.272,3.446,0.364L156.247,240.997z M174.425,240.083    l-0.647-3.498c1.118-0.207,2.248-0.446,3.391-0.72l0.826,3.462C176.791,239.613,175.602,239.864,174.425,240.083z     M149.009,240.046c-1.244-0.231-2.434-0.482-3.566-0.748l0.813-3.462c1.079,0.253,2.214,0.492,3.401,0.711L149.009,240.046z     M181.521,238.378l-1.016-3.409c1.09-0.324,2.189-0.681,3.296-1.072l1.188,3.352C183.825,237.661,182.669,238.037,181.521,238.378    z M141.913,238.373c-1.265-0.368-2.427-0.742-3.479-1.108l1.165-3.359c0.999,0.346,2.104,0.703,3.306,1.051L141.913,238.373z     M135.005,235.964c-2.152-0.893-3.356-1.547-3.406-1.573l1.703-3.123c0.01,0.007,1.107,0.6,3.066,1.41L135.005,235.964z     M188.393,235.938l-1.359-3.286c1.05-0.436,2.105-0.903,3.165-1.406l1.527,3.213C190.611,234.99,189.499,235.483,188.393,235.938z     M194.98,232.816l-1.682-3.136c1.004-0.539,2.01-1.109,3.021-1.714l1.827,3.053C197.088,231.653,196.032,232.252,194.98,232.816z     M201.224,229.084l-1.964-2.967c0.952-0.63,1.903-1.288,2.855-1.982l2.097,2.873C203.215,227.735,202.219,228.426,201.224,229.084    z M207.1,224.819l-2.207-2.792c0.895-0.707,1.792-1.446,2.686-2.215l2.321,2.695C208.967,223.311,208.034,224.079,207.1,224.819z     M212.602,220.096l-2.419-2.608c0.841-0.78,1.682-1.588,2.522-2.421l2.505,2.525C214.341,218.455,213.472,219.291,212.602,220.096    z M217.73,214.995l-2.591-2.436c0.785-0.836,1.569-1.698,2.351-2.587l2.673,2.346C219.354,213.24,218.543,214.13,217.73,214.995z     M222.506,209.576l-2.741-2.269l1.133-1.388l2.765,2.239L222.506,209.576z"/>
		<path style="fill:#002D61;" d="M164.86,254.493c-1.257,0-2.469-0.031-3.646-0.09l0.178-3.552c1.12,0.055,2.273,0.085,3.454,0.085    L164.86,254.493z M168.508,254.399l-0.182-3.553c1.131-0.057,2.282-0.145,3.451-0.27l0.374,3.54    C170.916,254.246,169.7,254.337,168.508,254.399z M157.58,254.13c-1.257-0.122-2.465-0.275-3.618-0.447l0.523-3.52    c1.097,0.164,2.247,0.309,3.442,0.428L157.58,254.13z M175.77,253.64l-0.56-3.515c1.121-0.178,2.254-0.389,3.399-0.638    l0.754,3.479C178.154,253.227,176.955,253.45,175.77,253.64z M150.372,253.062c-1.291-0.256-2.481-0.529-3.563-0.801l0.869-3.45    c1.028,0.26,2.159,0.518,3.384,0.761L150.372,253.062z M182.913,252.093l-0.946-3.43c1.095-0.302,2.199-0.638,3.309-1.009    l1.13,3.372C185.235,251.418,184.07,251.774,182.913,252.093z M143.288,251.276c-2.217-0.691-3.474-1.223-3.527-1.245l1.39-3.273    c0.011,0.004,1.166,0.49,3.196,1.122L143.288,251.276z M189.841,249.759l-1.327-3.303c1.055-0.423,2.112-0.881,3.171-1.375    l1.506,3.221C192.074,248.826,190.955,249.312,189.841,249.759z M196.46,246.662l-1.688-3.131c1.001-0.54,2.002-1.114,3.002-1.724    l1.85,3.037C198.571,245.486,197.515,246.093,196.46,246.662z M202.689,242.856l-2.013-2.935c0.936-0.642,1.87-1.32,2.8-2.033    l2.166,2.82C204.662,241.462,203.677,242.177,202.689,242.856z M208.476,238.418l-2.303-2.71c0.867-0.736,1.729-1.507,2.587-2.311    l2.434,2.596C210.293,236.837,209.386,237.645,208.476,238.418z M213.789,233.449l-2.546-2.484    c0.795-0.815,1.585-1.662,2.37-2.543l2.657,2.367C215.448,231.71,214.622,232.597,213.789,233.449z M218.629,228.036l-2.751-2.256    c0.727-0.886,1.447-1.797,2.16-2.737l2.834,2.15C220.131,226.169,219.382,227.118,218.629,228.036z M223.006,222.264l-2.912-2.044    c0.658-0.938,1.311-1.904,1.959-2.896l2.978,1.945C224.362,220.294,223.687,221.293,223.006,222.264z"/>
	</g>
	<g>
		<polygon style="fill:#00B4D0;" points="274.754,228.332 356.58,264.351 392.156,202.985 285.872,157.18   "/>
		<path style="fill:#9FEBE4;" d="M287.799,162.961l99.021,40.615C386.82,203.577,296.398,248.046,287.799,162.961z"/>
		<path style="fill:#002D61;" d="M348.029,231.917c-1.07,0-2.131-0.02-3.18-0.061l0.141-3.556c1.002,0.041,2.016,0.062,3.039,0.062    l0.422-0.003l0.049,3.557L348.029,231.917z M352.117,231.816l-0.174-3.552c1.145-0.057,2.301-0.139,3.469-0.249l0.332,3.544    C354.523,231.673,353.314,231.759,352.117,231.816z M341.22,231.632c-1.221-0.102-2.424-0.231-3.613-0.384l0.453-3.527    c1.139,0.145,2.289,0.27,3.457,0.367L341.22,231.632z M359.351,231.144l-0.479-3.527c1.137-0.153,2.283-0.333,3.439-0.542    l0.629,3.503C361.734,230.794,360.537,230.983,359.351,231.144z M334.015,230.705c-1.207-0.211-2.396-0.445-3.568-0.705    l0.768-3.475c1.119,0.248,2.256,0.475,3.408,0.673L334.015,230.705z M366.497,229.871l-0.764-3.474    c1.121-0.248,2.25-0.52,3.391-0.818l0.9,3.441C368.839,229.332,367.664,229.615,366.497,229.871z M326.917,229.139    c-1.186-0.314-2.35-0.654-3.492-1.014l1.066-3.393c1.094,0.344,2.207,0.666,3.34,0.969L326.917,229.139z M373.517,228.036    l-1.041-3.4l0.482-0.147l1.039,3.4L373.517,228.036z M319.986,226.968c-1.154-0.414-2.284-0.852-3.392-1.304l1.347-3.294    c1.061,0.436,2.144,0.853,3.25,1.251L319.986,226.968z M313.264,224.222c-1.119-0.509-2.21-1.034-3.274-1.571l1.607-3.176    c1.021,0.517,2.067,1.021,3.142,1.51L313.264,224.222z M306.785,220.948c-1.076-0.597-2.121-1.205-3.137-1.82l1.844-3.041    c0.977,0.591,1.982,1.175,3.02,1.751L306.785,220.948z M300.585,217.192c-1.037-0.681-2.035-1.367-2.993-2.048l2.061-2.897    c0.924,0.655,1.885,1.313,2.883,1.97L300.585,217.192z M294.675,212.988c-0.998-0.766-1.943-1.523-2.835-2.258l2.267-2.743    c0.86,0.712,1.773,1.44,2.736,2.181L294.675,212.988z M289.089,208.368c-0.98-0.875-1.869-1.7-2.666-2.471l2.471-2.559    c0.766,0.737,1.62,1.534,2.561,2.372L289.089,208.368z M283.854,203.316c-1.604-1.688-2.445-2.73-2.479-2.773l2.77-2.232    c0.007,0.01,0.797,0.984,2.288,2.557L283.854,203.316z"/>
	</g>
	<g>
		<polygon style="fill:#002D61;" points="427.855,444.899 402.88,412.437 409.443,444.899 394.609,444.899 396.212,414.661     367.394,444.899 353.359,444.899 400.658,403.987 411.775,301.707 422.447,301.707 404.214,405.767 445.962,444.899   "/>
		<polygon style="fill:#00B4D0;" points="374.478,254.57 470.087,260.349 463.415,316.828 374.478,306.09   "/>
		<path style="fill:#9FEBE4;" d="M377.665,257.672l89.234,6.817C466.9,264.49,402.863,315.483,377.665,257.672z"/>
		<path style="fill:#002D61;" d="M459.31,306.341l-3.545-0.298l0.299-3.544l3.545,0.299L459.31,306.341z M452.222,305.745    l-3.547-0.298l0.299-3.544l3.545,0.299L452.222,305.745z M445.13,305.148l-3.545-0.298l0.299-3.544l3.545,0.299L445.13,305.148z     M438.04,304.551l-3.545-0.298l0.299-3.544l3.545,0.299L438.04,304.551z M430.951,303.953l-3.545-0.298l0.299-3.544l3.545,0.298    L430.951,303.953z M423.861,303.356l-3.545-0.299l0.299-3.543l3.545,0.298L423.861,303.356z M416.771,302.759l-3.545-0.299    l0.299-3.543l3.545,0.298L416.771,302.759z M409.681,302.163l-3.545-0.299l0.299-3.543l3.545,0.298L409.681,302.163z     M402.591,301.566l-3.545-0.299l0.299-3.543l3.543,0.298L402.591,301.566z M395.501,300.967l-3.545-0.299l0.297-3.544l3.547,0.299    L395.501,300.967z M388.412,300.371l-3.545-0.299l0.299-3.544l3.543,0.299L388.412,300.371z M381.32,299.774l-3.545-0.299    l0.299-3.544l3.545,0.299L381.32,299.774z"/>
		<path style="fill:#002D61;" d="M458.685,298.97l-3.521-0.501l0.5-3.522l3.523,0.5L458.685,298.97z M451.64,297.969l-3.521-0.501    l0.5-3.523l3.523,0.501L451.64,297.969z M444.597,296.969l-3.523-0.5l0.502-3.523l3.522,0.501L444.597,296.969z M437.552,295.968    l-3.521-0.501l0.5-3.523l3.521,0.501L437.552,295.968z M430.507,294.967l-3.522-0.501l0.5-3.523l3.523,0.501L430.507,294.967z     M423.464,293.965l-3.523-0.501l0.502-3.522l3.521,0.5L423.464,293.965z M416.419,292.966l-3.523-0.501l0.502-3.523l3.521,0.501    L416.419,292.966z M409.374,291.964l-3.522-0.5l0.5-3.523l3.522,0.501L409.374,291.964z M402.33,290.963l-3.522-0.501l0.5-3.523    l3.523,0.501L402.33,290.963z M395.287,289.961l-3.523-0.5l0.502-3.523l3.522,0.501L395.287,289.961z M388.242,288.962    l-3.523-0.501l0.502-3.522l3.522,0.5L388.242,288.962z M381.197,287.961l-3.521-0.501l0.5-3.523l3.521,0.501L381.197,287.961z"/>
	</g>
	<g>
		<polygon style="fill:#002D61;" points="93.005,444.899 117.98,412.437 111.417,444.899 126.253,444.899 124.651,414.661     153.47,444.899 167.505,444.899 120.204,403.987 109.087,301.707 98.413,301.707 116.646,405.767 74.897,444.899   "/>
		<polygon style="fill:#00B4D0;" points="146.385,254.57 50.772,260.349 57.443,316.828 146.385,306.09   "/>
		<path style="fill:#9FEBE4;" d="M143.197,257.672l-89.239,6.817C53.958,264.49,117.998,315.483,143.197,257.672z"/>
		<path style="fill:#002D61;" d="M61.553,306.341l-0.298-3.543l3.544-0.299l0.298,3.544L61.553,306.341z M68.642,305.745    l-0.298-3.543l3.545-0.299l0.298,3.544L68.642,305.745z M75.732,305.148l-0.298-3.543l3.544-0.299l0.299,3.544L75.732,305.148z     M82.824,304.551l-0.3-3.543l3.545-0.301l0.3,3.544L82.824,304.551z M89.912,303.953l-0.298-3.544l3.546-0.298l0.298,3.544    L89.912,303.953z M97.002,303.356l-0.298-3.544l3.545-0.298l0.298,3.543L97.002,303.356z M104.092,302.759l-0.298-3.544    l3.546-0.298l0.298,3.543L104.092,302.759z M111.183,302.163l-0.298-3.544l3.544-0.298l0.298,3.543L111.183,302.163z     M118.273,301.566l-0.298-3.544l3.544-0.298l0.298,3.543L118.273,301.566z M125.362,300.967l-0.298-3.544l3.545-0.299l0.299,3.544    L125.362,300.967z M132.453,300.371l-0.298-3.544l3.545-0.299l0.298,3.544L132.453,300.371z M139.543,299.774l-0.298-3.544    l3.545-0.299l0.298,3.544L139.543,299.774z"/>
		<path style="fill:#002D61;" d="M62.178,298.97l-0.5-3.523l3.523-0.5l0.5,3.522L62.178,298.97z M69.222,297.969l-0.501-3.523    l3.522-0.501l0.501,3.523L69.222,297.969z M76.266,296.967l-0.498-3.523l3.522-0.498l0.499,3.523L76.266,296.967z M83.311,295.968    l-0.5-3.523l3.522-0.501l0.501,3.523L83.311,295.968z M90.355,294.967l-0.501-3.523l3.522-0.501l0.5,3.523L90.355,294.967z     M97.4,293.965l-0.5-3.523l3.522-0.5l0.5,3.522L97.4,293.965z M104.443,292.964l-0.499-3.523l3.522-0.499l0.499,3.523    L104.443,292.964z M111.489,291.964l-0.5-3.522l3.522-0.501l0.5,3.523L111.489,291.964z M118.533,290.963l-0.501-3.523    l3.522-0.501l0.501,3.523L118.533,290.963z M125.578,289.961l-0.5-3.522l3.522-0.501l0.501,3.523L125.578,289.961z     M132.622,288.962l-0.501-3.523l3.522-0.5l0.501,3.522L132.622,288.962z M139.666,287.961l-0.501-3.523l3.523-0.501l0.5,3.523    L139.666,287.961z"/>
	</g>
	<g>
		<g>
			<polygon style="fill:#002D61;" points="205.329,422.966 198.107,444.899 183.005,444.899 196.15,422.966    "/>
			<polygon style="fill:#002D61;" points="331.765,444.899 318.621,444.899 304.158,417.363 312.304,417.363    "/>
			<path style="fill:#002D61;" d="M376.912,279.085c23.189,55.589-9.98,122.328-74.084,149.067     c-64.101,26.739-134.864,3.352-158.051-52.237c-23.186-55.587,9.982-122.324,74.084-149.064     C282.964,200.113,353.726,223.499,376.912,279.085z"/>
			<path style="fill:#9FEBE4;" d="M367.902,282.846c20.865,50.026-9.566,110.328-67.974,134.69     c-58.405,24.362-122.668,3.561-143.536-46.465c-20.866-50.024,9.566-110.328,67.971-134.691     C282.771,212.017,347.035,232.822,367.902,282.846z"/>
		</g>
		<g>
			<path style="fill:#FF73C5;" d="M241.413,346.793l-5.909-68.022l67.333,17.734l-14.528,74.344c0,0-12.555,11.199-23.99-0.021     c-9.87-9.686,1.352-32.13,20.943-11.587l7.559-29.11c0,0-17.791-13.758-49.646-6.016l3.447,29.358     c0,0-10.003,14.207-19.808,7.363C212.948,351.159,228.96,332.159,241.413,346.793z"/>
			<g>
				<path style="fill:#002D61;" d="M271.869,311.612l11.315-5.885c0,0,4.244,15.862,0.881,17.065      C280.705,323.997,271.869,311.612,271.869,311.612z"/>
				<path style="fill:#FFFFFF;" d="M282.236,307.828l-7.273,3.335l2.176,2.923l3.678-1.797l-4.106,3.142c0,0,4.1,6.776,6.858,6.264      C286.327,321.182,282.236,307.828,282.236,307.828z"/>
			</g>
			<g>
				<path style="fill:#002D61;" d="M249.788,286.733l18.592,4.304c0,0-3.144,13.568-13.302,11.277      C244.919,300.021,249.788,286.733,249.788,286.733z"/>
				<path style="fill:#002D61;" d="M269.75,291.194l18.593,4.303c0,0-3.145,13.569-13.304,11.276      C264.882,304.48,269.75,291.194,269.75,291.194z"/>
				
					<rect x="267.137" y="293.029" transform="matrix(0.2108 -0.9775 0.9775 0.2108 -78.1875 495.452)" style="fill:#002D61;" width="1.242" height="6.243"/>
				
					<rect x="268.147" y="289.643" transform="matrix(0.1892 -0.9819 0.9819 0.1892 -70.2169 501.83)" style="fill:#002D61;" width="1.244" height="7.582"/>
			</g>
		</g>
		<rect x="259.066" y="214.783" style="fill:#FFE552;" width="3.558" height="13.992"/>
		
			<rect x="259.721" y="220" transform="matrix(0.0826 -0.9966 0.9966 0.0826 23.6803 469.2827)" style="fill:#FFE552;" width="14.042" height="3.558"/>
		
			<rect x="253.855" y="425.298" transform="matrix(0.9954 -0.0957 0.0957 0.9954 -40.2737 26.4553)" style="fill:#FFE552;" width="3.558" height="15.488"/>
		
			<rect x="261.04" y="425.303" transform="matrix(0.9962 -0.0868 0.0868 0.9962 -36.6073 24.4552)" style="fill:#FFE552;" width="3.557" height="15.476"/>
		
			<rect x="156.296" y="394.352" transform="matrix(0.7758 -0.631 0.631 0.7758 -212.9574 192.9134)" style="fill:#FFE552;" width="17.386" height="3.557"/>
		
			<rect x="153.274" y="387.678" transform="matrix(0.8226 -0.5686 0.5686 0.8226 -192.873 160.6782)" style="fill:#FFE552;" width="15.617" height="3.558"/>
		
			<rect x="345.037" y="383.793" transform="matrix(0.6523 -0.758 0.758 0.6523 -176.8547 399.3199)" style="fill:#FFE552;" width="3.56" height="17.265"/>
		
			<rect x="348.752" y="379.238" transform="matrix(0.5898 -0.8076 0.8076 0.5898 -169.1638 442.048)" style="fill:#FFE552;" width="3.557" height="16.591"/>
		
			<rect x="166.335" y="262.272" transform="matrix(0.5368 -0.8437 0.8437 0.5368 -150.4411 267.1905)" style="fill:#FFE552;" width="3.556" height="16.663"/>
		
			<rect x="169.399" y="258.809" transform="matrix(0.5684 -0.8228 0.8228 0.5684 -145.2441 255.8036)" style="fill:#FFE552;" width="3.557" height="15.042"/>
		
			<rect x="346.902" y="251.674" transform="matrix(0.8077 -0.5897 0.5897 0.8077 -81.3478 257.5234)" style="fill:#FFE552;" width="14.315" height="3.557"/>
		
			<rect x="351.589" y="256.417" transform="matrix(0.7551 -0.6557 0.6557 0.7551 -81.3963 298.5116)" style="fill:#FFE552;" width="14.468" height="3.557"/>
		<path style="fill:#FF73C5;" d="M263.49,403.936c-43.003,0-77.988-34.983-77.988-77.985c0-43.005,34.985-77.989,77.988-77.989    c43.002,0,77.988,34.984,77.988,77.989C341.478,368.953,306.492,403.936,263.49,403.936z M263.49,251.517    c-41.041,0-74.43,33.391-74.43,74.434c0,41.04,33.389,74.43,74.43,74.43c41.041,0,74.43-33.39,74.43-74.43    C337.919,284.908,304.531,251.517,263.49,251.517z"/>
		<path style="fill:#FF73C5;" d="M263.49,387.244c-33.798,0-61.297-27.495-61.297-61.293c0-33.8,27.499-61.297,61.297-61.297    c33.799,0,61.297,27.497,61.297,61.297C324.787,359.749,297.289,387.244,263.49,387.244z M263.49,268.21    c-31.837,0-57.739,25.903-57.739,57.741c0,31.836,25.901,57.736,57.739,57.736c31.837,0,57.738-25.9,57.738-57.736    C321.228,294.113,295.327,268.21,263.49,268.21z"/>
	</g>
</g>















</svg>
