<svg id="Layer_1" viewBox="0 0 128 128" xmlns="http://www.w3.org/2000/svg" data-name="Layer 1"><path d="m126.17 111.27c-.17 4.36-5.84 5.31-5.84 5.31h-110.66c-7.84 0-7.42-4.91-7.42-4.91s-.5-56.59 0-61.92a6.504 6.504 0 0 1 5.13-6.08h25.14c.14.79.31 1.56.51 2.33.17.67.36 1.34.58 2a31.94689 31.94689 0 0 0 20.88 20.56l4.52 6.77a5.99787 5.99787 0 0 0 9.98 0l4.52-6.77a31.94663 31.94663 0 0 0 20.88-20.56c.22-.66.41-1.33.58-2 .2-.77.37-1.54.51-2.33h23.44c7.75 0 7.25 6.01 7.25 6.01s.16 57.24 0 61.59z" fill="#ffdb80"/><path d="m120.001 42h-24.26791a32.423 32.423 0 0 1 -.72632 4h24.99423a4.28466 4.28466 0 0 1 .62292.058l-53.92617 41.09386a4.72864 4.72864 0 0 1 -5.31787.05859l-54.00378-41.15245a4.28466 4.28466 0 0 1 .6229-.058h24.9942a32.423 32.423 0 0 1 -.72632-4h-24.26788a7.85445 7.85445 0 0 0 -7.999 7.68262v60.63379a7.85494 7.85494 0 0 0 7.999 7.68359h112.002a7.85494 7.85494 0 0 0 7.999-7.68359v-60.63379a7.85445 7.85445 0 0 0 -7.999-7.68262zm-116.001 68.31641v-60.63379a3.36991 3.36991 0 0 1 .17938-1.03131l39.28919 29.9378-39.315 32.68243a3.37181 3.37181 0 0 1 -.15357-.95513zm116.001 3.68359h-112.002a4.32643 4.32643 0 0 1 -.7829-.07288l39.5159-32.85125 12.29291 9.367a8.47894 8.47894 0 0 0 4.87842 1.55566 9.38789 9.38789 0 0 0 4.9917-1.50293c.05127-.03223.10156-.06689.1499-.10352l12.223-9.31427 39.51587 32.8493a4.32508 4.32508 0 0 1 -.7828.07289zm3.999-3.68359a3.37223 3.37223 0 0 1 -.15356.9552l-39.31391-32.68161 39.28815-29.93866a3.36948 3.36948 0 0 1 .17932 1.03128z" fill="#2d4356"/><path d="m64 10a27.99949 27.99949 0 0 0 -7 55.11l5.34 8a1.99308 1.99308 0 0 0 3.32 0l5.34-8a27.99949 27.99949 0 0 0 -7-55.11zm5.32 51.4a1.983 1.983 0 0 0 -1.22.84l-4.1 6.15-4.1-6.15a1.98333 1.98333 0 0 0 -1.22-.84 24 24 0 1 1 10.64 0z" fill="#2d4356"/><path d="m64 14a23.99835 23.99835 0 0 0 -5.32 47.4 1.98333 1.98333 0 0 1 1.22.84l4.1 6.15 4.1-6.15a1.983 1.983 0 0 1 1.22-.84 23.99835 23.99835 0 0 0 -5.32-47.4zm6 42a2.00587 2.00587 0 0 1 -2 2h-.89a17.12933 17.12933 0 0 1 -3.07-.36 8.12958 8.12958 0 0 1 -4.09-1.8 5.83342 5.83342 0 0 1 -1.95-4.69v-15.15a2.00587 2.00587 0 0 1 2-2h8a2.00583 2.00583 0 0 1 2 2zm-6-26a6 6 0 1 1 6-6 6.00476 6.00476 0 0 1 -6 6z" fill="#fc785e"/><path d="m64 18a6 6 0 1 0 6 6 6.00476 6.00476 0 0 0 -6-6zm0 8a2 2 0 1 1 2-2 2.00591 2.00591 0 0 1 -2 2z" fill="#2d4356"/><circle cx="64" cy="24" fill="#e1ebf4" r="2"/><path d="m68 34h-8a2.00587 2.00587 0 0 0 -2 2v15.15a5.83342 5.83342 0 0 0 1.95 4.69 8.12958 8.12958 0 0 0 4.09 1.8 17.12933 17.12933 0 0 0 3.07.36h.89a2.00587 2.00587 0 0 0 2-2v-20a2.00583 2.00583 0 0 0 -2-2zm-2 19.91c-.33-.04-.73-.11-1.21-.2a4.38617 4.38617 0 0 1 -2.21-.88 1.9589 1.9589 0 0 1 -.58-1.68v-13.15h4z" fill="#2d4356"/><path d="m66 38v15.91c-.33-.04-.73-.11-1.21-.2a4.38617 4.38617 0 0 1 -2.21-.88 1.9589 1.9589 0 0 1 -.58-1.68v-13.15z" fill="#e1ebf4"/><path d="m33.03 46c.17.67.36 1.34.58 2h-23.68l-2.55-1.94a4.198 4.198 0 0 1 .62-.06z" fill="#f9edd2" opacity=".5"/><path d="m120.62 46.06-2.55 1.94h-23.68c.22-.66.41-1.33.58-2h25.03a4.19642 4.19642 0 0 1 .62.06z" fill="#f9edd2" opacity=".5"/><path d="m120.78 113.93a4.92035 4.92035 0 0 1 -.78.07h-112a4.92022 4.92022 0 0 1 -.78-.07l2.32-1.93h108.92z" fill="#ad9359" opacity=".45"/><path d="m88 38a23.85492 23.85492 0 0 1 -18.68 23.4 1.983 1.983 0 0 0 -1.22.84l-4.1 6.15-4.1-6.15a1.98333 1.98333 0 0 0 -1.22-.84 23.85492 23.85492 0 0 1 -18.68-23.4c0-.31.01-.62.02-.92a23.85287 23.85287 0 0 0 18.66 22.32 1.98333 1.98333 0 0 1 1.22.84l4.1 6.15 4.1-6.15a1.983 1.983 0 0 1 1.22-.84 23.85293 23.85293 0 0 0 18.66-22.32c.01.3.02.61.02.92z" fill="#a54b3f" opacity=".5"/><path d="m88 38c0 .35-.01.7-.02 1.05a23.99877 23.99877 0 0 0 -47.96 0c-.01-.35-.02-.7-.02-1.05a24 24 0 0 1 48 0z" fill="#f9dbd7" opacity=".3"/></svg>