<?xml version="1.0" encoding="UTF-8"?>
<svg xmlns="http://www.w3.org/2000/svg" xmlns:xlink="http://www.w3.org/1999/xlink" version="1.1" id="Capa_1" x="0px" y="0px" viewBox="0 0 511.995 511.995" style="enable-background:new 0 0 511.995 511.995;" xml:space="preserve" width="512" height="512">
<g>
	<g>
		<path style="fill:#4D66D2;" d="M418.045,202.921l-161.588,81.553l-124.811-66.933v141.875l1.312,4.812l3.516,3.632&#10;&#9;&#9;&#9;c33.82,12.55,64.912,30.715,92.137,53.372c15.896,13.229,38.879,13.229,54.775,0c40.027-33.312,88.409-56.927,141.541-67.237&#10;&#9;&#9;&#9;c6.42-1.246,11.061-6.857,11.061-13.397V202.921H418.045z"/>
		<g>
			<path style="fill:#2F4DCA;" d="M133.009,357.54V218.272l-44.484-23.855l-12.516,8.504v137.677c0,6.54,4.641,12.151,11.061,13.397&#10;&#9;&#9;&#9;&#9;c17.311,3.359,34.114,8.139,50.292,14.198C134.65,365.426,133.009,361.647,133.009,357.54z"/>
		</g>
		<path style="fill:#6B7ED9;" d="M498.974,151.655L319.024,57.35l-4.482,0.566L71.167,183.166l-1.042,4.417l-2.333,5l1.042,5.042&#10;&#9;&#9;&#9;l0.899,2.008l173.026,90.676c8.292,4.346,18.188,4.346,26.48,0l229.736-120.396C506.337,166.053,506.337,155.514,498.974,151.655z&#10;&#9;&#9;&#9;"/>
		<path style="fill:#4D66D2;" d="M74.75,184.98L312.248,60.516c2.43-1.274,4.996-2.173,7.618-2.725l-50.628-26.532&#10;&#9;&#9;&#9;c-8.292-4.346-18.188-4.346-26.48,0L13.023,151.655c-7.363,3.859-7.363,14.398,0,18.257l57.691,30.234&#10;&#9;&#9;&#9;C67.564,195.191,68.897,188.048,74.75,184.98z"/>
		<ellipse style="fill:#8896E0;" cx="255.999" cy="156.495" rx="32" ry="21.833"/>
		<path style="fill:#00C2FB;" d="M391.878,399.676c-13.071,0-23.667,10.596-23.667,23.667v32.903h47.333v-32.903&#10;&#9;&#9;&#9;C415.545,410.272,404.949,399.676,391.878,399.676z"/>
	</g>
	<g>
		
			<ellipse style="fill:none;stroke:#000000;stroke-width:15;stroke-linecap:round;stroke-linejoin:round;stroke-miterlimit:10;" cx="255.998" cy="156.495" rx="32" ry="21.833"/>
		<path style="fill:none;stroke:#000000;stroke-width:15;stroke-linecap:round;stroke-linejoin:round;stroke-miterlimit:10;" d="&#10;&#9;&#9;&#9;M391.878,396.328V251.352c0-15.539-8.703-29.769-22.535-36.848l-85.803-43.913"/>
		<path style="fill:none;stroke:#000000;stroke-width:15;stroke-linecap:round;stroke-linejoin:round;stroke-miterlimit:10;" d="&#10;&#9;&#9;&#9;M391.878,399.676c-13.071,0-23.667,10.596-23.667,23.667v32.903h47.333v-32.903C415.544,410.272,404.948,399.676,391.878,399.676z&#10;&#9;&#9;&#9;"/>
		
			<line style="fill:none;stroke:#000000;stroke-width:15;stroke-linecap:round;stroke-linejoin:round;stroke-miterlimit:10;" x1="357.878" y1="456.245" x2="425.878" y2="456.245"/>
		
			<line style="fill:none;stroke:#000000;stroke-width:15;stroke-linecap:round;stroke-linejoin:round;stroke-miterlimit:10;" x1="368.211" y1="456.245" x2="363.211" y2="483.995"/>
		
			<line style="fill:none;stroke:#000000;stroke-width:15;stroke-linecap:round;stroke-linejoin:round;stroke-miterlimit:10;" x1="391.878" y1="456.245" x2="391.878" y2="483.995"/>
		
			<line style="fill:none;stroke:#000000;stroke-width:15;stroke-linecap:round;stroke-linejoin:round;stroke-miterlimit:10;" x1="415.544" y1="456.245" x2="420.544" y2="483.995"/>
		<path style="fill:none;stroke:#000000;stroke-width:15;stroke-linecap:round;stroke-linejoin:round;stroke-miterlimit:10;" d="&#10;&#9;&#9;&#9;M359.425,78.523l-90.188-47.264c-8.292-4.346-18.188-4.346-26.48,0L13.022,151.655c-7.363,3.859-7.363,14.398,0,18.257&#10;&#9;&#9;&#9;l229.735,120.396c8.292,4.346,18.188,4.346,26.48,0l229.735-120.396c7.363-3.859,7.363-14.398,0-18.257L390.426,94.77"/>
		<path style="fill:none;stroke:#000000;stroke-width:15;stroke-linecap:round;stroke-linejoin:round;stroke-miterlimit:10;" d="&#10;&#9;&#9;&#9;M435.987,262.4v-59.479l-166.75,87.387c-8.292,4.346-18.188,4.346-26.48,0l-166.75-87.387v137.677&#10;&#9;&#9;&#9;c0,6.54,4.641,12.151,11.061,13.397c53.132,10.31,101.514,33.925,141.542,67.237c15.896,13.229,38.879,13.229,54.775,0&#10;&#9;&#9;&#9;c40.027-33.312,88.409-56.927,141.541-67.237c6.42-1.246,11.061-6.857,11.061-13.397V297.4"/>
	</g>
</g>















</svg>
