<svg id="Camping" height="512" viewBox="0 0 1200 1200" width="512" xmlns="http://www.w3.org/2000/svg"><g><path d="m920.872 364.593c10.996-13.836 24.939-24.229 40.105-33.494 7.732 5.037 17.295 7.879 27.861 7.879 5.846 0 11.561-.9 16.983-2.674 19.501-6.373 34.503-23.916 38.747-45.053 1.1.063 2.211.096 3.33.096h.002c5.831 0 11.533-.896 16.946-2.664 19.257-6.293 34.46-23.959 38.735-45 3.004-14.773.123-29.547-7.902-40.535-1.641-2.246-3.73-4.662-6.354-6.99 1.049-11.338.053-22.576-2.996-33.602-5.975-21.582-18.1-40.121-36.041-55.104-17.688-14.762-39.354-22.895-61.009-22.895-8.026 0-15.958 1.125-23.581 3.344-7.512 2.186-15.013 5.236-22.445 9.111-1.473-.855-3.006-1.639-4.594-2.34-6.16-2.725-12.766-4.107-19.629-4.107-11.793 0-23.762 4.166-33.705 11.734-16.361 12.455-25.361 33.609-22.93 53.891.629 5.223 2.027 10.17 4.1 14.701-4.545 6.514-9.143 13.49-13.865 21.018-16.152 25.756-38.965 48.223-62.886 70.873-33.278 31.512-69.095 61.939-103.733 91.369 0 0-58.13 49.441-68.32 58.121-31.641-15.098-64.924-23.014-97.224-23.014-5.676 0-11.394.246-17 .729-.321.029-.646.063-.967.102-48.181 5.967-83.905 25.449-109.211 59.559-13.224 17.822-21.637 37.139-29.771 55.818-5.928 13.609-11.523 26.461-18.596 37.838-13.748 22.117-37.85 31.164-65.76 41.637-14.006 5.256-28.486 10.691-42.626 18.176-49.731 26.326-91.472 66.955-117.533 114.402-25.222 45.912-30.728 99.123-14.735 142.344 15.3 41.344 50.607 74.191 79.231 100.824 19.071 17.742 44.611 40.656 73.216 60.686 37.656 27.924 70.449 49.139 103.186 66.756 25.098 13.508 55.51 27.314 90.785 27.314 8.506 0 17.135-.811 25.641-2.404 85.521-16.021 140.24-91.033 162.637-222.945 6.805-40.082 12.986-53.939 38.385-62.547 35.307-11.965 71.316-27.857 95.516-62.803 51.746-74.725 16.381-154.723-5.705-194.33 35.07-48.785 70.605-96.443 101.211-137.24 18.45-24.591 35.132-46.722 52.501-68.581z" fill="#fff"/><g><path d="m1056.739 263.864c10.846-3.543 18.965-14.092 21.258-25.385 2.115-10.393-.451-25.781-18.297-27.725 4.646-14.023 5.174-27.836 1.469-41.234-4.506-16.281-13.773-30.471-27.609-42.023-16.676-13.92-39.266-20.727-60.563-14.527-12.215 3.555-23.592 9.773-34.176 17.588-1.666-5.123-5.004-9.479-10.722-12.008-9.003-3.982-19.408-1.223-26.957 4.523-15.738 11.98-18.438 39.063-1.274 46.561-9.461 12.053-17.854 24.563-25.118 36.148-18.012 28.719-42.573 52.779-67.053 75.959-38.417 36.375-79.077 70.408-119.343 104.689-22.373 19.041-44.766 38.061-67.119 57.123-35.455-20.127-75.521-31-115.525-27.553-37.404 4.631-68.68 18.512-91.453 49.205-20.598 27.76-28.984 62.645-47.158 91.883-26.566 42.736-76.969 47.201-118.346 69.104-44.369 23.488-82.674 59.855-106.865 103.896-19.731 35.922-27.627 81.541-13.131 120.711 13.186 35.631 45.463 65.588 72.529 90.771 21.512 20.014 45.156 40.766 70.699 58.615 32.016 23.758 65.161 46.047 100.289 64.951 31.963 17.199 62.877 29.055 99.248 22.238 94.074-17.625 127.762-119.539 141.703-201.652 6.692-39.42 14.723-69.002 55.744-82.904 31.645-10.725 62.658-24.383 82.432-52.939 41.492-59.92 18.547-124.385-15.307-180.936 36.404-50.998 73.793-101.32 111.395-151.439 17.42-23.221 34.884-46.426 52.943-69.154 18.271-22.994 41.869-37.24 67.191-51.158.033.213.05.43.088.641 2.521 13.736 18.541 17.4 30 13.654 11.27-3.684 19.59-14.92 21.499-26.701 1.495-9.217-.479-13.535-3.429-17.66 4.506-3.596 8.857-7.365 13.023-11.342 5.277 9.084 18.224 11.254 27.935 8.08z" fill="#68182b"/><path d="m1066.634 227.792c2.514 9.229-3.16 19.1-10.941 23.965-5.041 3.154-14.658 3.604-17.348-2.877-2.945-7.098 1.426-15.99 7.658-21.697 8.116-7.432 17.644-6.905 20.631.609z" fill="#fbf199"/><path d="m906.641 133.421c7.88-8.076 21.835-6.635 22.163 5.131-7.459 6.516-14.438 13.795-20.982 21.414-13.378-1.854-8.841-18.694-1.181-26.545z" fill="#fbf199"/><path d="m915.431 169.63c12.264-14.205 23.19-23.578 35.498-31.555 24.777-16.07 52.891-22.193 76.123-1.551 11.828 10.506 22.941 25.408 18.727 43.986-7.13 31.482-52.502 61.096-73.777 75.266-8.092 5.385-16.234 10.131-24.3 14.852-3.161-3.918-6.503-7.73-9.968-11.467 22.545-23.295 45.154-46.523 67.925-69.596 2.928-2.346 5.136-5.654 6.292-9.246 2.174-6.754.146-14.018-6.238-16.736-3.049-1.295-6.664-1.322-10.268.016-8.333 3.1-13.07 12.539-11.504 21.074.868 4.727 4.604 7.324 8.84 8.145-20.035 20.326-40.023 40.699-59.951 61.137-3.248-3.307-6.605-6.529-10.027-9.695 9.453-9.34 18.857-18.727 28.214-28.164 2.622-2.035 4.69-4.836 5.972-7.934 3.383-8.18 1.18-15.865-6.428-18.525 8.211-8.326 16.242-16.813 24.059-25.479 2.4-2.076 4.268-4.814 5.408-7.801 2.67-7 1.074-15.939-7.439-18.334-2.969-.834-6.316-.568-9.537.908-7.818 3.59-12.404 12.555-10.617 20.969 1.021 4.813 4.998 7.342 9.396 8.006-7.213 7.709-14.607 15.258-22.121 22.689-3.506 1.748-6.314 4.572-8.141 7.943-9.732 9.428-19.615 18.703-29.561 27.889-6.102-4.885-12.271-9.592-18.441-14.133 10.133-14.527 20.172-29.127 31.864-42.664z" fill="#ff8e5b"/><path d="m990.876 183.782c-3.314-7.994 11.162-20.699 14.869-11.361.354 1.285.398 2.594.201 3.871-.965 6.25-4.773 10.357-10.825 10.051-1.831-.094-3.53-.836-4.245-2.561z" fill="#fbf199"/><path d="m503.437 706.804c-.268.287-.535.578-.803.865-17.023-.914-33.008-8.002-43.176-21.451 21.633-20.76 43.33-41.449 65.054-62.111 20.895-19.873 41.823-39.711 62.755-59.547 4.373 4.838 8.042 10.623 10.678 17.504 1.898 6.635 2.865 13.404 3.059 20.195-32.578 34.806-65.105 69.654-97.567 104.545z" fill="#a2603f"/><path d="m600.64 613.257c-3.664 38.084-31.193 74.764-66.072 88.992-7.184 2.93-14.758 4.639-22.313 5.24 12.059-12.945 24.113-25.893 36.201-38.811 17.334-18.529 34.803-36.937 52.184-55.421z" fill="#a2603f"/><path d="m439.998 672.837c1.37 6.164 3.627 11.568 6.476 16.395-8.982 8.641-18.018 17.232-26.968 25.91-10.474 10.158-21.813 20.307-32.964 30.756-9.082-7.184-18.25-14.252-27.566-21.09-2.389-1.758-5.275-4.07-8.461-6.588 28.707-26.402 58.002-52.221 87.57-77.736-.982 10.712-.477 21.597 1.913 32.353z" fill="#ff8e5b"/><path d="m409.759 780.077c4.863 4.203 9.682 8.488 14.461 12.826-10.938 12.023-22.641 23.969-32.484 37.002-13.861-11.436-27.51-23.141-40.938-35.102 9.348-13.014 21.217-24.846 33.297-36.227 8.67 7.036 17.228 14.208 25.664 21.501z" fill="#aa8053"/><path d="m378.207 753.831c-11.882 11.508-23.161 23.502-32.542 36.398-12.218-10.99-24.229-22.188-36.035-33.566 10.645-10.291 21.42-20.457 32.281-30.541 3.311 2.639 6.107 4.918 7.895 6.193 9.668 6.895 19.107 14.112 28.401 21.516z" fill="#aa8053"/><path d="m304.667 751.87c-7.676-7.467-15.266-14.994-22.748-22.609 8.298-8.863 18.5-15.219 29.883-19.787 5.707-1.123 16.008 5.783 24.748 12.459-10.752 9.851-21.401 19.81-31.883 29.937z" fill="#aa8053"/><path d="m439.872 882.204c-4.736 5.354-9.651 8.691-14.095 7.531-15.095-3.941-29.837-15.842-42.526-24.389-22.156-14.928-43.348-31.318-63.768-48.529-16.244-13.693-32.168-28.193-45.633-44.684-3.871-4.74-9.23-11.441-9.595-17.854-.183-3.203 6.015-11.123 10.198-16.205 51.171 52.007 106.913 100.546 165.419 144.13z" fill="#ceffff"/><path d="m397.06 834.28c9.584-12.957 20.803-25.039 32.004-36.902 9.26 8.617 18.231 17.551 26.443 27.123 6.354 7.402 8.939 10.049 5.838 19.307-1.668 4.986-7.494 18.195-14.646 29.219-16.798-12.493-33.345-25.438-49.639-38.747z" fill="#aa8053"/><path d="m392.546 750.669c4.867-4.533 9.674-9.021 14.264-13.518 14.441-14.141 29.016-28.148 43.58-42.162 10.291 13.053 26.072 20.258 43.07 22.578-20.623 22.199-41.17 44.467-61.535 66.902-12.723-11.702-25.891-22.947-39.379-33.8z" fill="#ff8e5b"/><path d="m547.86 546.505c12.848.838 25.051 5.193 34.689 13.463-42.477 39.957-84.813 80.049-126.869 120.416-1.824-3.258-3.404-6.754-4.581-10.605-3.966-12.992-3.87-26.564-.866-39.76 32.516-27.936 65.217-55.629 97.627-83.514z" fill="#a2603f"/><path d="m453.46 619.036c9.109-25.707 28.646-48.834 50.199-61.701 10.348-6.178 22.014-9.854 33.615-10.807-27.982 24.119-55.919 48.289-83.814 72.508z" fill="#a2603f"/><path d="m938.181 219.132c-6.809 6.848-13.68 13.629-20.518 20.447-3.301-2.932-6.648-5.818-10.049-8.631 7.354-6.791 14.641-13.656 21.863-20.584.047.307.043.611.108.916.959 4.514 4.527 7.008 8.596 7.852z" fill="#ff8e5b"/><path d="m948.231 196.026c1.346.369 2.492 1.232 3.098 2.758 1.764 6.473-4.84 15.174-11.489 13.789-1.626-.338-3.018-1.314-3.593-3.131-2.199-6.945 5.848-15.088 11.984-13.416z" fill="#fbf199"/><path d="m909.519 247.696c-78.865 78.344-159.54 154.877-240.568 231.051-6.818-6.379-13.979-12.418-21.459-18.021 72.078-62.145 143.93-124.557 214.525-188.371 12.324-11.139 24.723-22.295 37.043-33.561 3.531 2.908 7.029 5.863 10.459 8.902z" fill="#a2603f"/><path d="m659.876 487.271c-23.035 21.645-46.059 43.299-69.088 64.949-8.879-7.967-19.605-13.268-31.213-15.785 26.092-22.475 52.201-44.93 78.289-67.408 7.635 5.661 14.965 11.788 22.012 18.244z" fill="#ff8e5b"/><path d="m595.409 556.833c23.002-21.789 46.014-43.568 69.021-65.352 6.871 6.576 13.715 13.85 20.229 21.676-24.425 25.908-48.791 51.863-73.127 77.848-.498-3.594-1.205-7.143-2.141-10.635-.061-.438-.166-.893-.348-1.369-.162-.568-.4-1.047-.666-1.49-3.271-8.012-7.689-14.893-12.968-20.678z" fill="#ff8e5b"/><path d="m673.407 482.981c49.189-46.574 98.346-93.184 147.299-140.004 31.428-30.059 62.846-60.152 93.867-90.643 3.492 3.23 6.916 6.516 10.223 9.889-77.97 80.068-155.195 160.904-231.908 242.209-6.059-7.472-12.555-14.656-19.481-21.451z" fill="#a2603f"/><path d="m824.556 377.015c34.979-36.592 69.986-73.168 105.166-109.58 2.758 2.98 5.42 6.016 7.988 9.107-11.666 7.023-23.035 14.52-33.658 24.4-29.183 27.146-53.789 59.381-78.836 90.242-37.584 46.307-75.672 92.113-115.74 136.303-3.686-5.826-7.661-11.521-11.885-17.068 42.234-44.551 84.549-89.027 126.965-133.404z" fill="#a2603f"/><path d="m959.093 158.063c-1.435-4.533 2.01-9.893 5.641-12.258 2.947-1.92 7.914-2.246 9.441 1.596 1.851 6.791-4.313 14.201-10.418 13.924-2.069-.094-3.967-1.06-4.664-3.262z" fill="#fbf199"/><path d="m848.481 257.397c10.575-11.203 19.691-23.361 28.48-35.74 5.521 4.059 11.047 8.26 16.52 12.619-4.527 4.16-9.055 8.311-13.575 12.461-46.736 42.883-94.392 84.77-142.171 126.484-31.928 27.875-63.978 55.605-96.062 83.297-3.294-2.324-6.646-4.566-10.044-6.729 73.358-62.28 150.712-122.335 216.852-192.392z" fill="#a2603f"/><path d="m738.675 609.612c-.76-16.543-2.625-19.699 8.066 4.953 20.975 48.383 26.195 99.73-16.939 142.178-25.012 24.609-56.646 28.637-86.619 44.148-21.625 11.193-30.986 34.191-36.298 56.549-8.374 35.24-11.78 70.666-24.042 105.055-17.821 49.977-49.811 92.627-101.159 110.281-39.989 13.748-74.36-1.846-109.501-20.758-6.629-3.568 4.742-5.143 17.357-4.086 53.648 4.496 98.068-24.467 126.166-68.584 23.031-36.162 34.218-79.473 41.926-121.143 4.883-26.393 3.164-57.645 15.049-81.885 10.742-21.91 38.717-29.604 59.497-37.9 38.716-15.465 73.642-41.549 94.628-78.055 9.375-16.305 12.664-33.524 11.869-50.753z" fill="#aa8053"/><path d="m1007.545 284.919c-1.567 5.912-5.769 11.266-10.88 14.461-5.039 3.152-14.658 3.605-17.348-2.879-4.068-9.809 5.814-23.064 15.293-26.549 10.751-3.949 15.833 4.049 12.935 14.967z" fill="#fbf199"/><path d="m1006.612 259.788c-5.449-2.207-11.871-2.193-18.246.178-10.394 3.865-17.666 13.275-20.193 23.797-26.455 14.357-52.996 28.273-72.24 51.912-17.926 22.021-34.908 44.846-51.994 67.52-38.66 51.303-76.977 102.918-114.354 155.17-4.475-7.092-9.066-14.045-13.676-20.826 42.113-46.324 81.966-94.496 121.41-143.094 26.322-32.432 52.406-65.963 83.96-93.563 24.054-21.039 54.739-32.596 80.185-52.137 15.229-11.695 38.01-29.305 49.605-49.768-.879 4.494-2.307 9.037-4.276 13.625-11.952 4.748-19.646 16.867-20.489 29.41-6.116 6.411-12.686 12.356-19.692 17.776z" fill="#aa8053"/><path d="m465.833 941.048c7.086 6.277 7.656 18.258 1.395 25.068-9.523 10.354-23.771 2.955-26.266-8.717-.469-12.451 12.896-26.959 24.871-16.351z" fill="#ceffff"/><path d="m392.776 988.411c-6.295 6.842-14.652 5.932-20.319 1.156-4.856-4.094-6.979-15.816-1.646-23.045 4.832-6.537 12.979-9.902 20.57-3.18 7.087 6.278 7.657 18.261 1.395 25.069z" fill="#83e1c4"/><path d="m706.722 544.479c-5.074-7.502-10.119-14.734-14.959-21.604-.461-.654-.729-1.301-.883-1.936-.493-.639-.979-1.285-1.474-1.92-25.757 27.186-51.368 54.51-77.036 81.777 1.561 46.85-30.511 97.664-74.742 112.553-11.023 3.711-23.344 5.453-35.457 4.951-19.482 20.957-38.91 41.965-58.188 63.107-2.311 2.535-4.664 5.063-7.035 7.592 12.715 11.332 36.936 29.861 38.174 47.133 1.275 17.76-27.045 66.781-48.242 65.492-19.23-1.17-41.486-20.658-56.332-31.084-26.424-18.553-52.252-38.395-75.965-60.342-13.635-12.623-37.691-31.441-41.256-51.246-3.962-22.029 24.005-44.289 44.796-55.52 10.866-5.869 16.2-6.682 25.819-2.602 7.234 3.068 14.677 8.234 21.274 13.264 26.308-23.838 53.124-47.139 79.854-70.439 4.73-4.125 9.49-8.217 14.225-12.336 6.742-38.168 33.086-72.783 68.73-88.881 13.893-6.275 28.592-8.643 42.516-7.35 27.164-23.398 54.313-46.814 81.461-70.232-36.93-25.826-79.986-41.334-126.293-37.346-31.998 3.963-62.546 16.195-81.512 43.504-13.492 19.43-21.867 41.324-31.729 62.672-9.334 20.209-20.352 41.176-37.752 55.701-21.212 17.709-45.435 22.338-70.389 32.674-69.094 28.619-143.928 90.846-150.664 170.902-5.408 64.262 39.525 108.789 84.533 148.398 52.488 46.189 121.624 104.15 197.104 94.615 86.013-10.869 118.576-107.33 131.229-180.834 8.428-48.971 4.268-95.277 56.298-117.236 48.706-20.555 110.989-47.365 122.764-106.055 5.988-29.846-3.158-60.299-18.869-87.372zm-387.45 435.385c-12.053 5.164-24.951 1.217-32.016-8.242-5.395-7.221-6.6-18.908-3.08-27.641 2.89-7.17 8.482-13.104 16.166-15.986 11.535-4.328 25.172-.156 30.99 11.166 7.762 15.098 4.659 33.535-12.06 40.703zm72.971 22.293c-11.705 5.014-24.209 1.436-31.389-7.438-6.477-8-8.898-18.184-2.756-30.559 3.084-6.215 8.305-11.279 15.217-13.871 11.534-4.33 25.17-.158 30.99 11.164 7.76 15.099 4.657 33.538-12.062 40.704zm74.451-22.295c-10.982 4.707-22.672 1.848-30.002-5.854-6.078-6.385-9.439-20.807-4.461-31.484 3.033-6.512 8.373-11.846 15.533-14.531 11.535-4.328 25.172-.156 30.991 11.166 7.762 15.096 4.658 33.537-12.061 40.703z" fill="#ff8e5b"/><path d="m319.805 966.118c-6.743 7.33-15.854 5.76-21.485.08-4.714-4.758-5.026-14.586-1.656-20.197 4.592-7.645 13.502-12.256 21.748-4.951 7.084 6.277 7.655 18.258 1.393 25.068z" fill="#fbf199"/><path d="m312.656 744.368c-7.612-7.27-14.782-15.453-19.517-24.723-4.004 2.848-7.809 5.971-11.221 9.615 7.482 7.615 15.072 15.143 22.748 22.609 2.628-2.536 5.343-4.983 7.99-7.501z" fill="#865725"/><path d="m354.438 779.099c-11.576-9.355-23.42-18.381-34.629-28.174-.701-.613-1.408-1.266-2.111-1.893-2.676 2.557-5.408 5.059-8.068 7.631 11.807 11.379 23.817 22.576 36.035 33.566 2.758-3.791 5.721-7.486 8.773-11.13z" fill="#865725"/><path d="m784.778 468.655c-21.838 23.869-42.852 48.484-63.635 73.277-.434.516-.891 1.033-1.328 1.553 3.28 4.914 6.572 9.814 9.77 14.879 31.918-44.619 64.539-88.76 97.457-132.654-14.58 13.764-28.615 28.031-42.264 42.945z" fill="#865725"/><path d="m446.698 873.026c3.371-5.197 6.428-10.859 8.912-15.938-12.873-5.572-25.754-17.607-33.547-23.912-4.887-3.953-9.814-7.848-14.756-11.719-3.547 4.201-7.012 8.449-10.248 12.822 16.295 13.31 32.842 26.255 49.639 38.747z" fill="#865725"/><path d="m391.735 829.905c3.249-4.303 6.736-8.455 10.294-12.563-12.914-10.068-25.866-20.078-38.4-30.689-1.261-1.068-2.554-2.094-3.827-3.145-3.168 3.68-6.223 7.422-9.004 11.295 13.428 11.962 27.076 23.667 40.937 35.102z" fill="#865725"/><path d="m758.696 649.925c.018 18.047-3.434 36.223-10.682 51.352-11.943 24.926-37.057 41.107-60.459 53.967-20.976 11.523-43.871 20.031-62.85 34.916-18.595 14.586-31.642 32.994-39.619 55.217-11.389 31.711-14.552 66.832-22.521 99.531-7.477 30.688-19.006 58.09-41.227 81.039-27.791 28.699-65.27 42.375-103.986 46.459 20.401 6.477 41.444 8.238 64.331.371 51.349-17.654 83.338-60.305 101.159-110.281 12.262-34.389 15.668-69.814 24.042-105.055 5.312-22.357 14.673-45.355 36.298-56.549 29.973-15.512 61.607-19.539 86.619-44.148 32.731-32.21 37.606-69.544 28.895-106.819z" fill="#865725"/><path d="m1066.786 228.728c-2.213 5.127-6.373 9.615-12.352 12.977-4.968 2.793-11.488 4.469-16.899 3.73.124 1.178.351 2.336.81 3.445 2.689 6.48 12.307 6.031 17.348 2.877 7.519-4.701 12.997-14.076 11.093-23.029z" fill="#f3af79"/><path d="m951.411 202.597c-1.604 1.143-3.344 2.154-5.303 2.924-3.598 1.414-7.104 1.598-10.125.672-.104 1.086-.076 2.18.264 3.25.575 1.816 1.967 2.793 3.593 3.131 5.397 1.122 10.682-4.397 11.571-9.977z" fill="#f3af79"/><path d="m917.433 149.417c-2.342.111-4.762-.111-7.236-.715-4.197-1.029-7.379-3.229-9.328-6.119-2.975 7.68-2.285 16.102 6.953 17.383 3.103-3.612 6.309-7.137 9.611-10.549z" fill="#f3af79"/><path d="m996.11 289.343c-6.056 3.131-12.33 3.613-17.701 1.734-.07 1.867.193 3.699.908 5.424 2.689 6.484 12.309 6.031 17.348 2.879 5.111-3.195 9.313-8.549 10.88-14.461.702-2.641.925-5.1.726-7.27-2.483 4.772-6.504 8.766-12.161 11.694z" fill="#f3af79"/><path d="m990.876 183.782c.715 1.725 2.414 2.467 4.245 2.561 6.052.307 9.86-3.801 10.825-10.051.197-1.277.152-2.586-.201-3.871-.377-.953-.89-1.625-1.463-2.146-3.125 6.035-8.369 11.129-13.834 11.67.061.628.182 1.249.428 1.837z" fill="#f3af79"/><path d="m319.805 966.118c2.679-2.912 4.032-6.777 4.233-10.73-3.303 1.807-7.209 3.064-11.732 3.553-6.141.662-12.467-.559-17.846-3.594.061 4.121 1.277 8.246 3.859 10.852 5.631 5.679 14.743 7.249 21.486-.081z" fill="#f3af79"/><path d="m974.218 147.724c-1.434 1.455-2.951 2.73-4.193 3.613-3.205 2.277-7.068 4.027-11.055 4.039-.053 0-.098-.014-.148-.014-.055.912-.008 1.82.271 2.701.697 2.201 2.596 3.168 4.664 3.262 6.008.272 12.037-6.9 10.461-13.601z" fill="#f3af79"/><path d="m181.216 875.347c-21.02-22.77-38.303-49.371-47.756-78.98-3.568 62.432 40.53 106.094 84.738 144.998 52.488 46.189 121.624 104.15 197.104 94.615 86.013-10.869 118.576-107.33 131.229-180.834 8.428-48.971 4.268-95.277 56.298-117.236 48.706-20.555 110.989-47.365 122.764-106.055 3.142-15.654 2.089-31.471-1.86-46.881-5.045 41.551-31.885 79.158-67.289 105.09-12.859 9.418-26.842 15.719-41.691 21.357-12.564 4.771-27.155 9.199-37.908 17.543-20.141 15.631-31.32 39.932-39.307 63.535-16.771 49.549-19.107 111.033-57.514 149.396 6.068 14.521 2.395 31.229-13.328 37.967-10.982 4.707-22.672 1.848-30.002-5.854-1.154-1.213-2.166-2.783-3.086-4.494-8.145 2.68-16.662 4.652-25.346 6.033.694 11.053-4.316 21.592-16.018 26.609-11.705 5.014-24.209 1.436-31.389-7.438-4.184-5.166-6.629-11.258-6.213-18.25-8.529-1.029-16.854-2.564-24.744-4.658-2.586 3.313-6.088 6.107-10.625 8.053-12.053 5.164-24.951 1.217-32.016-8.242-3.683-4.93-5.359-11.934-4.967-18.664-38.038-19.364-73.124-47.329-101.074-77.61z" fill="#ff564d"/><path d="m1032.589 174.179c-7.156 20.275-23.587 36.9-39.184 51.021-15.997 14.486-33.521 26.844-51.42 38.688 1.953 2.217 3.871 4.457 5.716 6.74 8.065-4.721 16.208-9.467 24.3-14.852 21.275-14.17 66.647-43.783 73.777-75.266 3.347-14.754-2.98-27.178-11.647-36.934 2.565 9.517 2.331 19.624-1.542 30.603z" fill="#ff564d"/><path d="m164.548 713.417c15.176-13.926 33.184-25.338 52.932-34.945 43.33-21.084 92.574-30.988 133.99-55.809 44.906-26.914 56.258-77.574 81.42-119.707 32.727-54.795 96.137-65.061 154.703-59.742 2.805.254 5.604.555 8.395.889-27.914-12.803-58.32-19.342-90.277-16.59-31.998 3.963-62.546 16.195-81.512 43.504-13.492 19.43-21.867 41.324-31.729 62.672-9.334 20.209-20.352 41.176-37.752 55.701-21.212 17.709-45.435 22.338-70.389 32.674-43.947 18.203-90.189 50.019-119.781 91.353z" fill="#fbc471"/><path d="m425.777 889.735c4.443 1.16 9.358-2.178 14.095-7.531-14.117-10.518-28.063-21.336-41.832-32.408-10.521-1.15-21.016-2.994-31.459-5.65-7.549-1.92-14.87-4.289-21.998-7.02 12.584 9.822 25.434 19.307 38.668 28.221 12.689 8.547 27.432 20.447 42.526 24.388z" fill="#a9cddd"/><path d="m471.272 957.442c-3.346 1.699-7.293 2.756-11.792 2.971-8.255.389-14.353-2.424-18.174-7.104-.254 1.365-.396 2.738-.345 4.09 2.494 11.672 16.742 19.07 26.266 8.717 2.211-2.404 3.524-5.461 4.045-8.674z" fill="#a9cddd"/><path d="m396.452 971.843c-1.744 4.695-5.154 8.752-10.203 10.826-12.396 5.096-15.787-4.973-15.967-15.223-4.558 7.266-2.488 18.189 2.175 22.121 5.667 4.775 14.024 5.686 20.319-1.156 4.01-4.357 5.186-10.826 3.676-16.568z" fill="#39b487"/><g fill="#81391c"><path d="m692.411 456.624c-7.809-4.102-15.4-9.43-21.965-15.74-7.652 6.611-15.297 13.238-22.955 19.842 7.48 5.604 14.641 11.643 21.459 18.021 7.832-7.363 15.637-14.752 23.461-22.123z"/><path d="m503.437 706.804c11.734-12.609 23.516-25.186 35.264-37.783-5.176.025-10.367-.412-15.49-1.367-10.904-2.035-20.684-7.34-28.885-14.725-11.625 11.092-23.273 22.162-34.867 33.289 10.168 13.449 26.152 20.537 43.176 21.451.266-.287.534-.578.802-.865z"/><path d="m761.642 467.868c-8.148 1.09-16.358 1.488-24.496.988-13.173 13.865-26.396 27.684-39.555 41.563 4.224 5.547 8.199 11.242 11.885 17.068 17.751-19.576 35.066-39.508 52.166-59.619z"/><path d="m665.589 435.782c-2.479-2.818-4.745-5.785-6.738-8.895-9.115 7.617-18.197 15.242-27.221 22.902 3.398 2.162 6.75 4.404 10.044 6.729 7.987-6.894 15.932-13.835 23.915-20.736z"/><path d="m692.888 504.433c11.52-12.209 23.075-24.387 34.619-36.574-10.049-1.445-19.859-4.281-29.214-8.471-8.298 7.861-16.587 15.734-24.886 23.594 6.926 6.794 13.422 13.978 19.481 21.451z"/><path d="m453.46 619.036c5.166-4.486 10.355-8.947 15.523-13.43-.789-4.785-1.156-9.604-1.037-14.373-6.023 8.618-11.017 18.018-14.486 27.803z"/><path d="m548.769 668.347c-.104.111-.209.221-.313.332-12.088 12.918-24.143 25.865-36.201 38.811 7.555-.602 15.129-2.311 22.313-5.24 22.818-9.309 42.438-28.25 54.34-50.881-11.53 9.36-25.544 15.112-40.139 16.978z"/><path d="m455.681 680.384c11.234-10.783 22.533-21.502 33.807-32.25-9.029-9.82-15.625-22.293-19.006-35.43-6.748 5.771-13.508 11.527-20.248 17.314-3.004 13.195-3.1 26.768.866 39.76 1.176 3.852 2.756 7.348 4.581 10.606z"/></g></g></g></svg>