<svg id="Capa_1" enable-background="new 0 0 512.024 512.024" height="512" viewBox="0 0 512.024 512.024" width="512" xmlns="http://www.w3.org/2000/svg"><g><g><path d="m304.789 59.973-25.851 25.66c-1.174 1.174-1.174 3.078 0 4.252l9.513 9.861 21.306 21.306c1.174 1.174 3.078 1.174 4.252 0l8.15-8.15c1.174-1.174 3.078-1.174 4.252 0l17.008 17.008c1.174 1.174 1.174 3.078 0 4.252l-8.15 8.15c-1.174 1.174-1.174 3.078 0 4.252l22.677 22.677 44.087-35.607 37.408-45.888-22.677-22.677c-1.174-1.174-3.078-1.174-4.252 0l-8.15 8.15c-1.174 1.174-3.078 1.174-4.252 0l-17.007-17.009c-1.174-1.174-1.174-3.078 0-4.252l8.15-8.15c1.174-1.174 1.174-3.078 0-4.252l-21.311-21.311-9.869-9.272c-1.174-1.174-3.078-1.174-4.252 0l-25.021 24.83c-1.174 1.174-1.174 3.078 0 4.252l9.032 8.865c.22.22.226 1.159.226 1.159.596 1.135.417 2.57-.537 3.524l-17.008 17.008c-.969.969-2.435 1.138-3.578.508 0 0-.681-.084-.886-.289l-9.009-8.856c-1.173-1.175-3.077-1.175-4.251-.001z" fill="#ffe07d"/><path d="m319.027 69.167-30.575 30.577-9.88-9.87c-1.17-1.18-1.17-3.08 0-4.26l26.22-26.22c1.18-1.17 3.08-1.17 4.26 0l9.21 9.22c.23.231.485.414.765.553z" fill="#ffd064"/><path d="m369.942 18.245-29.865 29.873c-.14-.27-.325-.533-.555-.763l-9.21-9.22c-1.18-1.17-1.18-3.07 0-4.25l25.51-25.51c1.17-1.17 3.08-1.17 4.25 0z" fill="#ffd064"/><g><path d="m415.461 394.25 8.504 4.322c9.312 5.215 18 13.903 23.214 23.214l3.322 7.504c1.507 2.69 5.378 2.69 6.885 0l4.322-7.504c2.606-4.654 6.014-9.067 9.932-12.803.522-.498 2.153-1.3 2.153-1.3 3.358-3.123 7.091-5.849 11.129-8.111l9.504-5.322c2.69-1.507 2.69-5.378 0-6.885l-9.504-5.322c-9.312-5.215-17-12.903-22.214-22.214l-5.322-9.504c-1.507-2.69-5.378-2.69-6.885 0l-5.322 9.504c-2.63 4.696-5.889 8.979-9.668 12.74 0 0-.161.354-.285.476-3.623 3.542-7.777 6.806-12.24 9.305l-7.525 5.015c-2.69 1.507-2.69 5.379 0 6.885z" fill="#c3ddff"/><path d="m473.793 407.683c-4.384 4.092-8.132 8.831-11.082 14.101l-5.331 9.508c-1.506 2.684-5.367 2.684-6.873 0l-5.331-9.508c-5.209-9.313-12.896-17-22.209-22.209l-9.508-5.331c-2.684-1.506-2.684-5.367 0-6.873l9.508-5.331c4.614-2.574 8.828-5.768 12.544-9.471 6.253 17.085 20.541 30.317 38.282 35.114z" fill="#a4ccff"/></g><g><path d="m281.004 435.745 7.003 3.56c7.669 4.294 14.824 11.45 19.118 19.118l2.736 6.18c1.241 2.216 4.429 2.216 5.67 0l3.56-6.18c2.146-3.832 4.953-7.467 8.18-10.544.43-.41 1.773-1.071 1.773-1.071 2.766-2.572 5.84-4.817 9.166-6.68l7.827-4.383c2.216-1.241 2.216-4.429 0-5.67l-7.827-4.383c-7.669-4.294-14-10.626-18.295-18.295l-4.383-7.827c-1.241-2.216-4.429-2.216-5.67 0l-4.383 7.827c-2.166 3.867-4.85 7.395-7.962 10.492 0 0-.133.292-.235.392-2.984 2.917-6.405 5.605-10.08 7.663l-6.197 4.13c-2.217 1.242-2.217 4.43-.001 5.671z" fill="#c5b9ef"/><path d="m329.044 446.808c-3.61 3.37-6.697 7.273-9.127 11.613l-4.39 7.83c-1.24 2.21-4.42 2.21-5.66 0l-4.39-7.83c-4.29-7.67-10.62-14-18.291-18.291l-7.83-4.39c-2.21-1.24-2.21-4.42 0-5.66l7.83-4.39c3.8-2.12 7.27-4.75 10.33-7.8 5.15 14.07 16.917 24.967 31.528 28.918z" fill="#afa0ea"/></g><g><path d="m145.461 198.474 8.504 4.322c9.312 5.215 18 13.903 23.214 23.214l3.322 7.504c1.507 2.69 5.378 2.69 6.885 0l4.322-7.504c2.606-4.654 6.014-9.067 9.932-12.803.522-.498 2.153-1.3 2.153-1.3 3.358-3.122 7.091-5.849 11.129-8.111l9.504-5.322c2.69-1.507 2.69-5.378 0-6.885l-9.504-5.322c-9.312-5.215-17-12.903-22.214-22.214l-5.322-9.504c-1.507-2.69-5.378-2.69-6.885 0l-5.322 9.504c-2.63 4.696-5.889 8.979-9.668 12.74 0 0-.161.354-.285.476-3.623 3.542-7.777 6.806-12.24 9.305l-7.525 5.015c-2.69 1.506-2.69 5.378 0 6.885z" fill="#c3ddff"/><path d="m203.793 211.906c-4.384 4.092-8.132 8.831-11.082 14.101l-5.331 9.508c-1.506 2.684-5.367 2.684-6.873 0l-5.331-9.508c-5.209-9.313-12.896-17-22.209-22.209l-9.508-5.331c-2.684-1.506-2.684-5.367 0-6.873l9.508-5.331c4.614-2.574 8.828-5.768 12.544-9.471 6.253 17.086 20.541 30.318 38.282 35.114z" fill="#a4ccff"/></g><g><path d="m16.184 138.22 5.149 2.444c6.025 3.374 12 9.349 15.374 15.374l2.444 5.149c.975 1.741 3.48 1.741 4.455 0l2.444-5.149c2.118-3.783 5.447-7.854 8.691-10.673 1.081-.939 3.825-1.927 3.825-1.927.923-.632 1.877-1.224 2.858-1.774l6.149-3.444c1.741-.975 1.741-3.48 0-4.455l-6.149-3.444c-6.025-3.374-11-8.349-14.374-14.374l-3.444-6.149c-.975-1.741-3.48-1.741-4.455 0l-3.444 6.149c-1.857 3.316-4.198 6.313-6.933 8.901 0 0-1.327 2.079-2.204 2.772-1.541 1.217-3.51 2.734-5.237 3.701l-5.149 2.444c-1.74.975-1.74 3.48 0 4.455z" fill="#c5b9ef"/><path d="m58.566 143.437c-4.75 3.25-8.687 7.555-11.517 12.605l-3.44 6.14c-.98 1.75-3.48 1.75-4.46 0l-3.44-6.14c-3.38-6.03-8.35-11-14.38-14.38l-6.14-3.44c-1.75-.98-1.75-3.48 0-4.46l6.14-3.44c2.71-1.52 5.216-3.354 7.446-5.474 4.63 10.96 15.464 18.644 28.104 18.644.57 0 1.127-.025 1.687-.055z" fill="#afa0ea"/></g><g><path d="m439.753 244.22 5.149 2.444c6.025 3.374 12 9.349 15.374 15.374l2.444 5.149c.975 1.741 3.48 1.741 4.455 0l2.444-5.149c2.118-3.783 5.447-7.854 8.691-10.673 1.081-.939 3.825-1.927 3.825-1.927.923-.632 1.877-1.224 2.858-1.774l6.149-3.444c1.741-.975 1.741-3.48 0-4.455l-6.149-3.444c-6.025-3.374-11-8.349-14.374-14.374l-3.444-6.149c-.975-1.741-3.48-1.741-4.455 0l-3.444 6.149c-1.857 3.316-4.198 6.313-6.933 8.901 0 0-1.327 2.079-2.204 2.772-1.541 1.217-3.51 2.734-5.237 3.701l-5.149 2.444c-1.741.975-1.741 3.48 0 4.455z" fill="#c5b9ef"/><path d="m482.134 249.437c-4.75 3.25-8.687 7.555-11.517 12.605l-3.44 6.14c-.98 1.75-3.48 1.75-4.46 0l-3.44-6.14c-3.38-6.03-8.35-11-14.38-14.38l-6.14-3.44c-1.75-.98-1.75-3.48 0-4.46l6.14-3.44c2.71-1.52 5.216-3.354 7.446-5.474 4.63 10.96 15.464 18.644 28.104 18.644.57 0 1.127-.025 1.687-.055z" fill="#afa0ea"/></g><g><path d="m164.753 51.22 5.149 2.444c6.025 3.374 12 9.349 15.374 15.374l2.444 5.149c.975 1.741 3.48 1.741 4.455 0l2.444-5.149c2.118-3.783 5.447-7.854 8.691-10.673 1.081-.94 3.825-1.927 3.825-1.927.923-.632 1.877-1.224 2.858-1.774l6.149-3.444c1.741-.975 1.741-3.48 0-4.455l-6.149-3.444c-6.025-3.374-11-8.349-14.374-14.374l-3.444-6.149c-.975-1.741-3.48-1.741-4.455 0l-3.444 6.149c-1.857 3.316-4.198 6.313-6.933 8.901 0 0-1.327 2.079-2.204 2.772-1.541 1.217-3.51 2.734-5.237 3.701l-5.149 2.444c-1.741.975-1.741 3.48 0 4.455z" fill="#c3ddff"/><path d="m207.134 56.437c-4.75 3.25-8.687 7.555-11.517 12.605l-3.44 6.14c-.98 1.75-3.48 1.75-4.46 0l-3.44-6.14c-3.38-6.03-8.35-11-14.38-14.38l-6.14-3.44c-1.75-.98-1.75-3.48 0-4.46l6.14-3.44c2.71-1.52 5.216-3.354 7.446-5.474 4.63 10.96 15.464 18.644 28.104 18.644.57 0 1.127-.025 1.687-.055z" fill="#a4ccff"/></g><path d="m475.888 76.002.1.1c6.822 6.822 6.822 17.882 0 24.703l-258.356 258.355-23.803-23.803 258.355-258.355c6.452-6.452 15.571-7.537 22.434-1.784.268.225.913.438.913.438.12.113.239.229.357.346z" fill="#ffe07d"/><path d="m475.531 75.656-270.699 270.699-12-12 258.35-258.35c6.7-6.7 17.499-6.819 24.349-.349z" fill="#ffd064"/><path d="m62.682 412.884c.374.388.374.994 0 1.382-20.118 20.848-19.517 52.414 1.053 72.984 19.511 19.511 48.956 22.267 69.875 5.172.36-.294 1.158-.8 1.158-.8.763-.658 1.512-1.34 2.246-2.048.388-.374.994-.374 1.382 0 20.848 20.118 54.059 19.892 74.629-.679s20.797-53.781.679-74.629c-.374-.388-.374-.994 0-1.382 16.548-17.149 19.331-42.662 8.35-62.624 0 0-.886-1.319-1.287-1.978-2.168-3.564-5.185-6.377-8.266-9.457-20.57-20.57-53.948-20.154-74.796-.037-.388.374-.561.071-.949-.304-20.142-19.436-55.894-16.957-73.915 1.064-20.569 20.57-20.276 52.488-.159 73.336zm49.917-49.522c2.775 2.775 7.12 8.924 10.89 15.743 4.543-1.872 13.268 1.762 13.268 1.762s10.623-3.633 15.166-1.762c3.77-6.819 8.114-12.968 10.89-15.743 6.933-6.933 18.174-6.933 25.107 0s6.933 18.174 0 25.107c-2.775 2.775-8.924 7.119-15.743 10.89 1.871 4.543-.695 14.217-.695 14.217s2.567 9.674.695 14.217c6.819 3.77 12.968 8.115 15.743 10.89 6.933 6.933 6.933 18.174 0 25.107s-18.174 6.933-25.107 0c-2.775-2.775-7.12-8.924-10.89-15.743-4.543 1.872-14.217-.965-14.217-.965s-9.674 2.837-14.217.965c-3.77 6.819-8.114 12.968-10.89 15.743-6.933 6.933-18.174 6.933-25.107 0s-6.933-18.174 0-25.107c2.775-2.775 8.924-7.119 15.743-10.89-1.702-4.133.67-13.053.67-13.053s-2.711-10.428-.67-15.381c-6.819-3.77-12.968-8.114-15.743-10.89-6.933-6.933-6.933-18.174 0-25.107s18.174-6.933 25.107 0z" fill="#ffe07d"/><g fill="#ffd064"><path d="m222.072 350.305-.05-.05c-19.08-19.08-49.04-20.66-69.92-4.72-.72.55-2.37-6.94-4.12-15.31 20.46-12.29 47.4-9.61 65.04 8.03 3.66 3.66 6.68 7.73 9.05 12.05z"/><path d="m134.812 491.585c-20.92 18.07-52.57 17.17-72.43-2.69-3.51-3.51-6.43-7.39-8.75-11.52 8.76.3 19.05.58 19.36.91.44.47.93.9 1.39 1.36 16.34 16.34 40.36 20.32 60.43 11.94z"/><path d="m198.132 327.755c-10.01 5.32-22.036 1.878-25.886 1.878-8.497 0-13.493 10.795-20.145 15.901-1.145.879-2.246 1.827-3.299 2.841-3 2.89-6.94 4.48-11.1 4.48s-8.1-1.59-11.1-4.48c-7.16-6.91-16.59-10.72-26.56-10.72-10.22 0-19.82 3.98-27.05 11.21-14.65 14.65-14.87 38.7-.49 53.6 6 6.23 6.01 15.98 0 22.22-14.38 14.9-14.16 38.95.49 53.6 2.41 2.41-.99 8.07-6.22 14.54-1.52-1.21-2.98-2.52-4.39-3.93-20.57-20.57-20.79-53.78-.68-74.63.38-.39.38-.99 0-1.38-20.11-20.85-19.89-54.06.68-74.63s53.78-20.8 74.63-.68c.39.38 1 .38 1.38 0 16.33-15.76 40.25-19.03 59.74-9.82z"/></g><path d="m174.956 413.575c0-6.331-1.58-12.294-4.366-17.514 0 0-1.345-1.735-1.854-2.534-6.61-10.387-17.806-16.191-31.03-16.191-20.573 0-35.927 15.667-35.927 36.24 0 12.082 4.553 22.555 13.468 29.361.871.665 2.578 2.145 2.578 2.145 5.753 3.638 12.571 5.744 19.881 5.744 20.572-.001 37.25-16.678 37.25-37.251z" fill="#ffd064"/><path d="m170.59 396.061c-5.75-3.63-12.577-5.736-19.887-5.736-20.57 0-37.25 16.68-37.25 37.25 0 6.33 1.582 12.287 4.372 17.507-10.44-6.6-17.372-18.247-17.372-31.507 0-20.57 16.68-37.25 37.25-37.25 14.249 0 26.627 7.986 32.887 19.736z" fill="#ffc250"/><g><g><path d="m285.225 241.165 12.798 12.009 12.486 12.486c5.847 5.847 5.847 15.327 0 21.174l-.086.086c-.197.197-.398.388-.604.572 0 0-1.204.238-1.595.524-5.858 4.3-13.703 3.51-19-1.787l-23.617-24.043c-5.374-5.179-6.688-15.024-.809-20.894 5.849-5.846 14.58-5.974 20.427-.127z" fill="#ffd064"/><path d="m288.886 262.311 9.136-9.136-12-12-.711-.711c-5.711-5.71-14.973-5.665-20.644.084-.632.641-.152.133-.86.921l-.014-.014c-4.919 5.495-5.328 14.951.57 20.58l10.395 16.805 14.495 8.085c5.64 5.64 14.687 5.827 20.567.567l-20.934-20.938c-1.172-1.172-1.172-3.071 0-4.243z" fill="#ffc250"/></g><g><path d="m263.904 262.486 12.798 12.009 12.486 12.486c5.847 5.847 5.847 15.327 0 21.174l-.086.086c-.197.197-.398.388-.604.572 0 0-1.204.238-1.595.524-5.858 4.3-13.703 3.51-19-1.787l-23.617-24.043c-5.374-5.179-6.688-15.024-.809-20.894 5.849-5.847 14.58-5.974 20.427-.127z" fill="#ffd064"/><path d="m267.565 283.632 9.136-9.136-12-12-.711-.711c-5.711-5.71-14.973-5.665-20.644.084-.632.641-.152.133-.86.921l-.014-.014c-4.919 5.495-5.328 14.951.57 20.58l10.395 16.805 14.495 8.085c5.64 5.64 14.687 5.827 20.567.567l-20.934-20.938c-1.172-1.172-1.172-3.071 0-4.243z" fill="#ffc250"/></g><g><path d="m242.583 283.807 12.798 12.009 12.486 12.486c5.847 5.847 5.847 15.327 0 21.174l-.086.086c-.197.197-.398.388-.604.572 0 0-1.204.238-1.595.524-5.858 4.3-13.703 3.51-19-1.787l-23.617-24.043c-5.374-5.179-6.688-15.024-.809-20.894 5.849-5.847 14.58-5.974 20.427-.127z" fill="#ffd064"/><path d="m246.244 304.953 9.136-9.136-12-12-.711-.711c-5.711-5.71-14.973-5.665-20.644.084-.632.641-.152.133-.86.921l-.014-.014c-4.919 5.495-5.328 14.951.57 20.58l24.89 24.89c5.64 5.64 14.687 5.827 20.567.567l-20.934-20.938c-1.172-1.172-1.172-3.071 0-4.243z" fill="#ffc250"/></g></g></g><g><path d="m488.604 88.454c0-6.669-2.597-12.939-7.3-17.642l-.113-.113c-9.736-9.735-25.576-9.733-35.31 0l-6.44 6.44-17.374-17.374c-4.097-4.097-10.762-4.097-14.858 0l-4.972 4.972-10.653-10.653 4.972-4.972c4.097-4.096 4.097-10.762 0-14.858l-31.181-31.183c-4.097-4.096-10.762-4.094-14.857.001l-25.512 25.512c-1.984 1.984-3.078 4.623-3.078 7.429 0 2.807 1.093 5.446 3.078 7.429l6.035 6.036-10.654 10.652-6.036-6.036c-4.096-4.095-10.761-4.094-14.857.001l-26.22 26.22c-1.984 1.984-3.078 4.623-3.078 7.429 0 2.807 1.093 5.446 3.078 7.429l31.182 31.182c4.098 4.096 10.763 4.095 14.857-.001l4.972-4.972 10.653 10.653-4.971 4.972c-1.985 1.984-3.079 4.623-3.079 7.43 0 2.806 1.093 5.445 3.078 7.429l17.374 17.374-62.102 62.102c-7.191-3.932-19.259-3.083-26.18 4.211-4.069 4.069-6.223 9.323-6.513 14.662-5.338.29-10.593 2.444-14.661 6.513-3.09 3.058-6.251 8.807-6.599 14.747-5.338.29-10.593 2.444-14.661 6.513-6.275 6.312-8.875 16.803-4.211 26.18l-15.095 15.095c-19.648-7.58-42.471-4.592-59.613 8.968-16.815-13.289-39.599-16.837-59.883-8.879-3.856 1.513-5.755 5.866-4.242 9.722s5.866 5.754 9.722 4.242c16.954-6.653 36.227-2.632 49.102 10.243 2.928 2.929 7.677 2.929 10.606 0 17.842-17.841 46.872-17.841 64.714 0 17.841 17.842 17.841 46.872 0 64.714-2.929 2.929-2.929 7.678 0 10.606 18.92 18.87 17.586 51.051-3.784 68.104-3.232 2.59-3.752 7.311-1.162 10.543 1.481 1.848 3.659 2.81 5.857 2.81 1.645 0 3.302-.539 4.686-1.648 25.858-20.191 30.215-59.795 9.731-85.113 13.322-16.842 16.427-39.162 9.344-58.571l15.68-15.68c7.175 3.476 18.504 2.306 25.218-4.667 4.069-4.069 6.223-9.323 6.513-14.661 5.338-.29 10.593-2.445 14.661-6.513l.085-.085c4.069-4.069 6.223-9.323 6.513-14.661 5.338-.29 10.593-2.445 14.661-6.513 5.98-5.988 8.752-16.138 4.667-25.217l34.485-34.485c2.929-2.929 2.929-7.678 0-10.606-2.929-2.929-7.678-2.929-10.606 0l-33.452 33.452-14.196-14.197 94.441-94.441c2.929-2.929 2.929-7.678 0-10.606-2.929-2.929-7.678-2.929-10.606 0l-22.512 22.512-14.197-14.197 4.971-4.972c1.985-1.984 3.079-4.623 3.079-7.43 0-2.806-1.093-5.445-3.078-7.429l-17.008-17.008c-1.984-1.985-4.623-3.079-7.43-3.079-2.806 0-5.445 1.093-7.429 3.078l-4.972 4.972-24.826-24.827 19.866-19.866 6.035 6.035c4.097 4.097 10.763 4.097 14.858 0l17.008-17.007c1.984-1.984 3.078-4.623 3.078-7.429 0-2.807-1.093-5.446-3.078-7.429l-6.035-6.036 19.157-19.157 24.826 24.827-4.972 4.972c-1.984 1.984-3.078 4.623-3.078 7.429 0 2.807 1.093 5.446 3.078 7.429l17.007 17.007c1.984 1.985 4.623 3.079 7.43 3.079 2.806 0 5.445-1.093 7.429-3.078l4.972-4.972 14.197 14.196-23.675 23.675c-2.929 2.929-2.929 7.678 0 10.606 2.929 2.929 7.678 2.929 10.606 0l40.721-40.721c3.886-3.886 10.209-3.887 14.083-.013l.113.113c1.883 1.882 2.919 4.385 2.919 7.048 0 2.662-1.037 5.166-2.919 7.048l-101.816 101.818c-2.929 2.929-2.929 7.678 0 10.606 1.464 1.464 3.384 2.197 5.303 2.197s3.839-.732 5.303-2.197l101.816-101.816c4.716-4.715 7.314-10.985 7.314-17.654zm-270.275 244.498c-2.295-2.295-4.736-4.354-7.283-6.205l11.193-11.192 14.196 14.197-11.31 11.31c-1.997-2.848-4.254-5.568-6.796-8.11zm44.357-8.901c-2.232 2.203-6.848 3.501-10.653.085l-24.889-24.889c-2.152-2.235-3.393-6.938.085-10.652 2.334-2.152 6.691-3.383 10.568 0l24.888 24.888c2.915 2.914 2.915 7.654.001 10.568zm21.26-21.26-.085.085c-2.913 2.913-7.653 2.914-10.568 0l-24.888-24.888c-2.065-2.071-3.14-6.994.085-10.653 2.915-2.913 7.654-2.913 10.568 0l24.888 24.888c2.913 2.914 2.913 7.655 0 10.568zm21.26-21.26c-2.102 2.135-6.87 3.238-10.653.085l-24.888-24.888c-2.914-2.914-2.914-7.654 0-10.568 2.232-2.203 6.848-3.501 10.653-.085l24.889 24.889c2.124 2.225 3.385 6.804-.001 10.567z"/><path d="m346.265 76.773c-2.929 2.929-2.929 7.678 0 10.606l21.968 21.968c1.464 1.464 3.384 2.197 5.303 2.197s3.839-.732 5.303-2.197c2.929-2.929 2.929-7.678 0-10.606l-21.968-21.968c-2.928-2.929-7.677-2.929-10.606 0z"/><path d="m200.619 375.915c0-6.745-2.626-13.087-7.396-17.856-9.846-9.847-25.866-9.846-35.712 0-2.547 2.547-5.86 7.015-9.019 12.089-5.841-1.417-13.81-1.961-21.57 0-3.16-5.074-6.473-9.543-9.018-12.089-8.746-9.092-25.827-10.198-35.713 0-9.846 9.846-9.846 25.867 0 35.712 2.586 2.587 6.994 5.858 12.088 9.023-1.416 5.839-1.96 13.805 0 21.563-5.093 3.164-9.501 6.435-12.088 9.022-9.092 8.746-10.198 25.827 0 35.713 8.746 9.092 25.827 10.197 35.713 0 2.586-2.586 5.857-6.994 9.022-12.088 5.839 1.416 13.805 1.96 21.562 0 3.164 5.093 6.434 9.499 9.023 12.088 8.746 9.092 25.826 10.198 35.713 0 9.846-9.846 9.846-25.867 0-35.713-2.546-2.546-7.015-5.859-12.089-9.019 1.417-5.839 1.961-13.808.001-21.566 5.095-3.165 9.503-6.437 12.088-9.022 4.768-4.77 7.395-11.112 7.395-17.857zm-107.824 7.25c-2.903-3.054-4.67-9.224 0-14.5 3.055-2.903 9.224-4.67 14.5 0 1.315 1.315 3.434 4.07 5.738 7.6-5.012 3.325-9.316 7.63-12.64 12.642-3.614-2.353-6.311-4.455-7.598-5.742zm14.5 75.32c-3.054 2.903-9.223 4.67-14.5 0-3.998-3.998-3.998-10.502 0-14.5 1.288-1.287 3.985-3.389 7.598-5.743 3.326 5.013 7.631 9.32 12.645 12.645-2.354 3.615-4.456 6.312-5.743 7.598zm.661-44.91c0-16.404 13.346-29.75 29.75-29.75s29.75 13.346 29.75 29.75-13.346 29.75-29.75 29.75-29.75-13.345-29.75-29.75zm74.66 30.41c2.903 3.055 4.67 9.224 0 14.5-3.998 3.997-10.502 3.997-14.5 0-1.312-1.312-3.433-4.07-5.738-7.601 5.01-3.324 9.313-7.627 12.637-12.637 3.53 2.304 6.286 4.423 7.601 5.738zm-.001-60.819c-1.286 1.286-3.983 3.388-7.597 5.742-3.324-5.012-7.629-9.317-12.64-12.642 2.303-3.53 4.422-6.285 5.738-7.601 3.054-2.903 9.224-4.67 14.5 0 3.997 3.998 3.997 10.503-.001 14.501z"/><path d="m176.197 496.987c-12.519.216-24.323-4.531-33.188-13.395-2.929-2.93-7.678-2.929-10.606 0-17.842 17.841-46.872 17.84-64.714 0-17.841-17.842-17.841-46.873 0-64.714 2.929-2.929 2.929-7.678 0-10.606-14.753-14.754-17.675-37.596-7.105-55.549 2.102-3.569.912-8.167-2.658-10.268-3.568-2.102-8.167-.911-10.268 2.658-12.827 21.784-10.699 48.987 4.703 68.462-18.848 23.828-17.273 58.628 4.722 80.624 21.994 21.993 56.792 23.567 80.618 4.726 10.692 8.489 23.794 13.07 37.634 13.07 3.617.352 8.255-2.445 8.497-7.644-.076-4.141-3.534-7.467-7.635-7.364z"/><path d="m348.948 422.616-7.827-4.382c-6.464-3.621-11.794-8.951-15.415-15.415l-4.383-7.827c-1.899-3.39-5.492-5.497-9.378-5.497s-7.479 2.106-9.379 5.497l-4.382 7.827c-3.621 6.464-8.951 11.794-15.415 15.415l-7.827 4.383c-3.39 1.899-5.497 5.492-5.497 9.378s2.106 7.479 5.497 9.378l7.827 4.382c6.464 3.621 11.794 8.951 15.415 15.415l4.383 7.827c1.899 3.39 5.492 5.497 9.378 5.497s7.479-2.106 9.379-5.497l4.382-7.827c3.621-6.464 8.951-11.794 15.415-15.415l7.827-4.383c3.39-1.899 5.497-5.492 5.497-9.378s-2.107-7.479-5.497-9.378zm-15.156 10.053c-8.879 4.972-16.201 12.294-21.173 21.173l-.674 1.204-.674-1.204c-4.972-8.879-12.294-16.201-21.173-21.173l-1.204-.674 1.204-.674c8.879-4.972 16.201-12.294 21.173-21.173l.674-1.204.674 1.204c4.972 8.879 12.294 16.201 21.173 21.173l1.204.674z"/><path d="m477.16 218.285-3.444-6.15c-1.776-3.17-5.137-5.14-8.771-5.14s-6.995 1.97-8.771 5.141l-3.444 6.149c-2.699 4.82-6.674 8.795-11.494 11.494l-6.15 3.444c-3.17 1.776-5.14 5.137-5.14 8.771s1.97 6.995 5.14 8.771h.001l6.149 3.444c4.82 2.699 8.795 6.674 11.494 11.494l3.444 6.15c1.776 3.17 5.137 5.14 8.771 5.14s6.995-1.97 8.771-5.141l3.444-6.149c2.699-4.82 6.674-8.795 11.494-11.494l6.15-3.444c3.17-1.776 5.14-5.137 5.14-8.771s-1.97-6.995-5.141-8.771l-6.149-3.444c-4.82-2.699-8.795-6.673-11.494-11.494zm-12.215 38.6c-3.715-6.074-8.816-11.175-14.89-14.89 6.074-3.715 11.175-8.816 14.89-14.89 3.715 6.074 8.816 11.175 14.89 14.89-6.074 3.715-11.175 8.816-14.89 14.89z"/><path d="m51.716 165.854 3.444-6.149c2.699-4.82 6.674-8.795 11.494-11.494l6.15-3.444c3.17-1.776 5.14-5.137 5.14-8.771s-1.97-6.995-5.141-8.771l-6.149-3.444c-4.82-2.699-8.795-6.674-11.494-11.494l-3.444-6.15c-1.776-3.17-5.137-5.14-8.771-5.14s-6.995 1.97-8.771 5.141l-3.444 6.149c-2.699 4.82-6.674 8.795-11.494 11.494l-6.15 3.444c-3.17 1.776-5.14 5.137-5.14 8.771s1.97 6.995 5.14 8.771h.001l6.149 3.444c4.82 2.699 8.795 6.674 11.494 11.494l3.444 6.15c1.776 3.17 5.137 5.14 8.771 5.14s6.994-1.97 8.771-5.141zm-23.661-29.859c6.074-3.715 11.175-8.816 14.89-14.89 3.715 6.074 8.816 11.175 14.89 14.89-6.074 3.715-11.175 8.816-14.89 14.89-3.715-6.074-8.816-11.175-14.89-14.89z"/><path d="m160.085 57.766 6.15 3.444c4.82 2.699 8.795 6.674 11.494 11.494l3.444 6.15c1.776 3.17 5.137 5.14 8.771 5.14s6.995-1.97 8.771-5.141l3.444-6.149c2.699-4.82 6.674-8.795 11.494-11.494l6.15-3.444c3.17-1.776 5.14-5.137 5.14-8.771s-1.97-6.995-5.141-8.771l-6.149-3.444c-4.82-2.699-8.795-6.674-11.494-11.494l-3.444-6.15c-1.776-3.17-5.137-5.14-8.771-5.14s-6.995 1.97-8.771 5.141l-3.444 6.149c-2.699 4.82-6.674 8.795-11.494 11.494l-6.15 3.444c-3.17 1.776-5.14 5.137-5.14 8.771s1.97 6.994 5.14 8.771zm29.86-23.661c3.715 6.074 8.816 11.175 14.89 14.89-6.074 3.715-11.175 8.816-14.89 14.89-3.715-6.074-8.816-11.175-14.89-14.89 6.074-3.715 11.175-8.816 14.89-14.89z"/><path d="m498.22 380.278-9.534-5.338c-8.138-4.558-14.848-11.268-19.406-19.406l-5.339-9.534c-2.024-3.614-5.854-5.859-9.997-5.859s-7.973 2.245-9.997 5.859l-5.34 9.534c-4.557 8.138-11.267 14.848-19.405 19.405l-9.534 5.339c-3.614 2.024-5.859 5.854-5.859 9.996 0 4.143 2.245 7.974 5.858 9.998h.001l9.534 5.339c8.138 4.557 14.848 11.267 19.406 19.405l5.339 9.534c2.024 3.614 5.854 5.859 9.997 5.859s7.973-2.245 9.997-5.859l5.34-9.534c4.557-8.138 11.267-14.848 19.405-19.405l9.535-5.339c3.614-2.024 5.859-5.855 5.858-9.998.001-4.142-2.245-7.972-5.859-9.996zm-16.863 12.246c-10.553 5.91-19.254 14.611-25.164 25.164l-2.249 4.015-2.249-4.015c-5.91-10.553-14.611-19.254-25.164-25.164l-4.015-2.248 4.015-2.249c10.553-5.91 19.254-14.612 25.164-25.164l2.249-4.015 2.249 4.015c5.91 10.552 14.611 19.254 25.164 25.164l4.015 2.249z"/><path d="m139.307 204.698s.001 0 0 0l9.619 5.387c8.221 4.604 15 11.383 19.604 19.604l5.387 9.618c2.03 3.625 5.873 5.878 10.028 5.878s7.998-2.252 10.028-5.877l5.387-9.619c4.604-8.221 11.383-15 19.604-19.604l9.619-5.387c3.625-2.03 5.878-5.873 5.878-10.028s-2.252-7.998-5.878-10.028l-9.619-5.386c-8.221-4.604-15-11.383-19.604-19.604l-5.386-9.618c-2.03-3.626-5.873-5.879-10.028-5.879s-7.999 2.253-10.028 5.878l-5.387 9.619c-4.604 8.221-11.383 15-19.604 19.604l-9.619 5.387c-3.625 2.03-5.877 5.873-5.877 10.028-.001 4.154 2.251 7.997 5.876 10.027zm16.948-12.354c10.636-5.957 19.406-14.727 25.363-25.363l2.327-4.155 2.327 4.155c5.957 10.636 14.727 19.406 25.363 25.363l4.155 2.327-4.155 2.327c-10.636 5.957-19.406 14.727-25.363 25.363l-2.327 4.155-2.327-4.155c-5.957-10.636-14.727-19.406-25.363-25.363l-4.155-2.327z"/></g></g></svg>