<svg id="Filled_Expand" height="512" viewBox="0 0 64 64" width="512" xmlns="http://www.w3.org/2000/svg" data-name="Filled Expand"><path d="m1 50h42v13h-42z" fill="#f0f0f0"/><g fill="#505050"><path d="m5 50h4v8h-4z"/><path d="m17 50h4v8h-4z"/><path d="m35 50h4v8h-4z"/></g><path d="m25 37a12 12 0 0 0 -12-12 12 12 0 0 0 -12 12v13h42v-2a8 8 0 0 0 -8-8h-7a3 3 0 0 1 -3-3z" fill="#915d3f"/><path d="m60.23 34.16a4.65 4.65 0 0 0 .77-2.55 4.6 4.6 0 0 0 -4.61-4.61h-10.78a4.6 4.6 0 0 0 -4.61 4.61 4.65 4.65 0 0 0 .77 2.55 8.7 8.7 0 0 1 0 9.68l-1.87 2.81a5.35 5.35 0 0 0 -.9 3 5.38 5.38 0 0 0 5.37 5.35h13.26a5.38 5.38 0 0 0 5.37-5.37 5.35 5.35 0 0 0 -.9-3l-1.87-2.81a8.7 8.7 0 0 1 0-9.66z" fill="#d99932"/><path d="m48 47h6v4h-6z" fill="#ffe648"/><path d="m48.5 11h5v27h-5z" fill="#9c684a"/><circle cx="51" cy="39" fill="#505050" r="4"/><path d="m47.5 1v7l1 3h5l1-3v-7z" fill="#d99932"/><path d="m37 1a6.09 6.09 0 0 1 -4.9 6h-.1-22l-1-2h-3v8h3l1-2h22 .1a6.09 6.09 0 0 1 4.9 6h3v-16z" fill="#ffe648"/><path d="m54 46h-6a1 1 0 0 0 -1 1v4a1 1 0 0 0 1 1h6a1 1 0 0 0 1-1v-4a1 1 0 0 0 -1-1zm-1 4h-4v-2h4z"/><path d="m62.93 46.09-1.87-2.8a7.7 7.7 0 0 1 0-8.58 5.6 5.6 0 0 0 -4.67-8.71h-1.89v-14.84l1-2.84a1.19 1.19 0 0 0 0-.32h1.5a1 1 0 0 0 0-2h-1.5v-2h1.5a1 1 0 0 0 0-2h-1.5v-1a1 1 0 0 0 -1-1h-7a1 1 0 0 0 -1 1v1h-1.5a1 1 0 0 0 0 2h1.5v2h-1.5a1 1 0 0 0 0 2h1.5a1.19 1.19 0 0 0 0 .32l1 2.84v14.84h-1.89a5.6 5.6 0 0 0 -4.67 8.71 7.72 7.72 0 0 1 .69 7.29 8.88 8.88 0 0 0 -6.63-3h-7a2 2 0 0 1 -2-2 13 13 0 0 0 -26 0v26a1 1 0 0 0 1 1h42a1 1 0 0 0 1-1v-7h.37 13.26a6.37 6.37 0 0 0 5.3-9.91zm-11.93-10.09a3 3 0 1 1 -3 3 3 3 0 0 1 3-3zm0-2a4.68 4.68 0 0 0 -1.5.26v-22.26h3v22.26a4.68 4.68 0 0 0 -1.5-.26zm-2.5-32h5v5.84l-.72 2.16h-3.56l-.72-2.16zm-46.5 35a11 11 0 0 1 22 0 4 4 0 0 0 4 4h7a6.94 6.94 0 0 1 5.59 2.82l-1.52 2.27a6.36 6.36 0 0 0 -1 2.91h-36.07zm34 20v-6h2v6zm-16-6v6h-2v-6zm1 8a1 1 0 0 0 1-1v-7h2v11h-4v-3zm-13-8v6h-2v-6zm1 8a1 1 0 0 0 1-1v-7h2v11h-4v-3zm-7 3v-11h2v7a1 1 0 0 0 1 1h1v3zm12 0v-11h2v7a1 1 0 0 0 1 1h1v3zm12-11h4v11h-4zm6 0h2v7a1 1 0 0 0 1 1h1v3h-4zm10 11h-4v-3h1a1 1 0 0 0 1-1v-3.75a6.3 6.3 0 0 0 2 1.29zm15.63-8h-13.26a4.38 4.38 0 0 1 -3.64-6.8l1.88-2.81a9.7 9.7 0 0 0 0-10.78 3.6 3.6 0 0 1 3-5.61h1.89v7.44a5 5 0 1 0 7 0v-7.44h1.89a3.6 3.6 0 0 1 3 5.61 9.7 9.7 0 0 0 0 10.78l1.88 2.81a4.38 4.38 0 0 1 -3.64 6.8z"/><path d="m6 14h3a1 1 0 0 0 .89-.55l.73-1.45h2.94a3.91 3.91 0 0 0 -.56 2v1a4 4 0 0 0 4 4 1 1 0 0 0 2 0h2a1 1 0 0 0 2 0h2a1 1 0 0 0 2 0 4 4 0 0 0 4-4v-1a3.91 3.91 0 0 0 -.56-2h1.46a5.11 5.11 0 0 1 4.1 5 1 1 0 0 0 1 1h3a1 1 0 0 0 1-1v-16a1 1 0 0 0 -1-1h-3a1 1 0 0 0 -1 1 5.11 5.11 0 0 1 -4.1 5h-4.9v-2h1a1 1 0 0 0 0-2h-12a1 1 0 0 0 0 2h1v2h-6.38l-.73-1.45a1 1 0 0 0 -.89-.55h-3a1 1 0 0 0 -1 1v8a1 1 0 0 0 1 1zm9 1v-1a2 2 0 0 1 2-2v5a2 2 0 0 1 -2-2zm4 2v-5h2v5zm2-7h-2v-2h2zm2-2h2v2h-2zm0 9v-5h2v5zm6-3v1a2 2 0 0 1 -2 2v-5a2 2 0 0 1 2 2zm3-6h.29a7.11 7.11 0 0 0 5.64-6h1.07v14h-1.07a7.16 7.16 0 0 0 -5.73-6h-.2-5v-2zm-7-2h-2v-2h2zm-6-2h2v2h-2zm-12 2h1.38l.73 1.45a1 1 0 0 0 .89.55h7v2h-7a1 1 0 0 0 -.89.55l-.73 1.45h-1.38z"/></svg>