<svg id="Layer_1" viewBox="0 0 256 256" xmlns="http://www.w3.org/2000/svg" data-name="Layer 1"><g><rect fill="#fc3d6b" height="248" rx="12.99" width="248" x="4" y="4"/><circle cx="128" cy="128" fill="#73c3f9" r="84.58"/><circle cx="128" cy="128" fill="#fffaee" r="31.28"/><path d="m79.06 132c-2.21 0-4-1.79-4-4 0-29.19 23.75-52.94 52.94-52.94 2.21 0 4 1.79 4 4s-1.79 4-4 4c-24.78 0-44.94 20.16-44.94 44.94 0 2.21-1.79 4-4 4z" fill="#fffaee"/><path d="m62.59 132c-2.21 0-4-1.79-4-4 0-38.27 31.14-69.41 69.41-69.41 2.21 0 4 1.79 4 4s-1.79 4-4 4c-33.86 0-61.41 27.55-61.41 61.41 0 2.21-1.79 4-4 4z" fill="#fffaee"/><g fill="#fdcb50"><rect height="31.88" rx="6.25" transform="matrix(.707 .707 -.707 .707 161.27 -83.05)" width="20.29" x="170.74" y="137.21"/><path d="m192.15 145.88c-1.02 0-2.05-.39-2.83-1.17-1.56-1.56-1.56-4.09 0-5.66l30.08-30.08-.97-62.14c-.04-2.21 1.73-4.03 3.94-4.06h.06c2.18 0 3.96 1.75 4 3.94l1 63.84c.02 1.08-.41 2.12-1.17 2.89l-31.27 31.27c-.78.78-1.8 1.17-2.83 1.17z"/><circle cx="222.43" cy="35.93" r="10.83"/><circle cx="29.73" cy="223.71" r="9.77"/><circle cx="63.32" cy="223.71" r="9.77"/></g><g fill="#fffaee"><path d="m230.87 213.01c-2.21 0-4 1.79-4 4v17.25c0 2.21 1.79 4 4 4s4-1.79 4-4v-17.25c0-2.21-1.79-4-4-4z"/><path d="m213.66 213.01c-2.21 0-4 1.79-4 4v17.25c0 2.21 1.79 4 4 4s4-1.79 4-4v-17.25c0-2.21-1.79-4-4-4z"/><path d="m196.46 213.01c-2.21 0-4 1.79-4 4v17.25c0 2.21 1.79 4 4 4s4-1.79 4-4v-17.25c0-2.21-1.79-4-4-4z"/></g></g><g fill="#0f1c7c"><path d="m239.01 0h-222.02c-9.37 0-16.99 7.62-16.99 16.99v36.62c0 2.21 1.79 4 4 4s4-1.79 4-4v-36.62c0-4.96 4.03-8.99 8.99-8.99h222.02c4.96 0 8.99 4.03 8.99 8.99v222.02c0 4.96-4.03 8.99-8.99 8.99h-222.02c-4.96 0-8.99-4.03-8.99-8.99v-146.06c0-2.21-1.79-4-4-4s-4 1.79-4 4v146.06c0 9.37 7.62 16.99 16.99 16.99h222.02c9.37 0 16.99-7.62 16.99-16.99v-222.02c0-9.37-7.62-16.99-16.99-16.99z"/><path d="m4 79.3c2.21 0 4-1.79 4-4v-4.04c0-2.21-1.79-4-4-4s-4 1.79-4 4v4.04c0 2.21 1.79 4 4 4z"/><path d="m128 92.72c-19.45 0-35.28 15.82-35.28 35.28s15.82 35.28 35.28 35.28 35.28-15.82 35.28-35.28-15.82-35.28-35.28-35.28zm0 62.55c-15.04 0-27.28-12.24-27.28-27.28s12.24-27.28 27.28-27.28 27.28 12.24 27.28 27.28-12.24 27.28-27.28 27.28z"/><path d="m215.31 113.06c-7.12-41.75-43.56-73.64-87.31-73.64-48.84 0-88.58 39.74-88.58 88.58s39.74 88.58 88.58 88.58 88.58-39.74 88.58-88.58c0-1.6-.05-3.19-.13-4.77l9.8-9.8c.77-.77 1.19-1.81 1.17-2.89l-.95-60.35c6.21-1.77 10.78-7.48 10.78-14.26 0-8.18-6.65-14.83-14.83-14.83s-14.83 6.65-14.83 14.83c0 6.81 4.62 12.55 10.89 14.28l.92 58.76-4.08 4.08zm-87.31 95.53c-44.43 0-80.58-36.15-80.58-80.58s36.15-80.58 80.58-80.58c41.79 0 76.25 31.98 80.2 72.76l-16.05 16.05c-4-3.92-10.45-3.9-14.42.07l-13.7 13.7c-1.94 1.94-3 4.51-3 7.25s1.07 5.31 3 7.25l5.5 5.5c1.94 1.94 4.51 3 7.25 3s5.31-1.07 7.25-3l13.7-13.7c3.97-3.97 3.99-10.41.07-14.42l10.7-10.7c-1.68 42.96-37.14 77.4-80.5 77.4zm64.07-61.13c.88.88.88 2.31 0 3.19l-13.7 13.7c-.85.85-2.34.85-3.18 0l-5.5-5.5c-.43-.42-.66-.99-.66-1.59s.23-1.17.66-1.59l13.7-13.7c.44-.44 1.02-.66 1.59-.66s1.15.22 1.59.66l5.5 5.5zm23.52-111.52c0-3.77 3.06-6.83 6.83-6.83s6.83 3.06 6.83 6.83-3.07 6.83-6.83 6.83-6.83-3.06-6.83-6.83z"/><path d="m15.96 223.71c0 7.59 6.18 13.77 13.77 13.77s13.77-6.18 13.77-13.77-6.18-13.77-13.77-13.77-13.77 6.18-13.77 13.77zm19.54 0c0 3.18-2.59 5.77-5.77 5.77s-5.77-2.59-5.77-5.77 2.59-5.77 5.77-5.77 5.77 2.59 5.77 5.77z"/><path d="m49.55 223.71c0 7.59 6.18 13.77 13.77 13.77s13.77-6.18 13.77-13.77-6.18-13.77-13.77-13.77-13.77 6.18-13.77 13.77zm19.54 0c0 3.18-2.59 5.77-5.77 5.77s-5.77-2.59-5.77-5.77 2.59-5.77 5.77-5.77 5.77 2.59 5.77 5.77z"/></g></svg>