<svg height="512" viewBox="0 0 512 512" width="512" xmlns="http://www.w3.org/2000/svg"><g id="GIFTBOX"><path d="m59 394s-24-156-22-160 187-100 201-103 223 38 230 42-1 165-4 172-199 117-211 118-182-58-194-69z" fill="#009bc5"/><path d="m220.5 196.5-86.0872-15.103c-34.0246 17.5288-67.5129 35.2289-84.9836 45.0096a52.29849 52.29849 0 0 0 18.0708 9.0934c19 5 104.5968-4.5 104.5968-4.5 14.5968-3.5 67.4032-7.5 109.9355-27.3549s70.4677-48.1451 70.4677-48.1451l-68 17z" fill="#005e9b"/><path d="m464 345c3-7 11-168 4-172a3.73357 3.73357 0 0 0 -.4742-.21417c-50.2453 14.98657-219.0258 111.71417-219.0258 111.71417l-20 153s.0007 8.441.7864 19.7393c12.5536 3.75 21.3086 5.9611 23.7136 5.7607 12-1 208-111 211-118z" fill="#62c4de"/><path d="m106.2681 218.6468q-11.4279 6.3174-22.8557 12.6348-3.2262 1.78335-6.4522 3.5667c-.5633.3114-.0596 1.1754.5046.8635q11.42805-6.3174 22.856-12.6348 3.2259-1.78335 6.4521-3.5667c.5633-.3114.0594-1.1754-.5048-.8635z" fill="#fff"/><path d="m123.7905 217.5701q-12.8472 7.2936-25.6943 14.5872-3.6321 2.0619-7.2639 4.1239a.50038.50038 0 0 0 .5047.8635q12.84735-7.29375 25.6945-14.5873 3.63165-2.062 7.2637-4.1239a.50034.50034 0 0 0 -.5047-.8634z" fill="#fff"/><path d="m248 284c-6-3-211-50-211-50s-.0405.3306-.1152.9506c-.2561 13.6357 22.1152 159.0494 22.1152 159.0494 12 11 182 70 194 69 0 0 1-176-5-179z" fill="#005e9b"/><path d="m250 198s-11-5-14-5-119 54-123.8064 57.6774c-3.7079 2.8369 1.7603 116.3398 4.4536 168.0804 12.9944 4.8543 27.1043 9.9464 41.1646 14.8784-2.7622-48.0824-9.2122-165.0684-6.9085-170.5717 2.9031-6.9355 99.0967-65.0645 99.0967-65.0645z" fill="#ffc956"/><path d="m239.3226 199.6451-34.4465 6.9254c-17.6209 8.0417-39.6886 18.3107-57.8921 26.9393 10.9602-1.1247 37.9161-4.151 59.5036-8.6906 14.1094-8.8536 27.5462-17.0966 35.6608-22.0465a9.71323 9.71323 0 0 0 -2.8258-3.1276z" fill="#f69812"/><path d="m157.8118 433.6362c-2.7622-48.0824-9.2122-165.0684-6.9085-170.5717a2.11283 2.11283 0 0 1 .1404-.2496l-39.2893-11.1121c-2.7883 11.7656 2.3188 117.6085 4.8928 167.055 12.9944 4.8543 27.1043 9.9464 41.1646 14.8784z" fill="#f69812"/><path d="m379.2903 212.7419c-5.2903-3.7419-136.2903-19.7419-136.2903-19.7419l-9 10s109 29.1935 112 29.0967c2.6179-.0844 8.2816 141.5387 9.6819 177.6156 8.8776-4.9537 17.7778-9.9621 26.4531-14.8861.4552-40.7082 1.6651-178.8944-2.8447-182.0843z" fill="#ffc956"/><path d="m236.6036 200.1071-2.6036 2.8929s12.3047 3.2955 28.7527 7.6667c10.1203-2.6347 23.1498-7.17 33.3508-10.927-19.7704-2.5913-37.7412-4.8399-46.8406-5.9676a92.09458 92.09458 0 0 0 -12.6593 6.335z" fill="#f69812"/><path d="m235 198s42-154 99-166 91 26 82 61-98 113-181 105z" fill="#ffc956"/><path d="m234 203s-117 60-179-4-5-104 53-96 118 79 126 100z" fill="#ffc956"/><path d="m235 198s96-20 120-70 3-98-28-82-82 126-92 152z" fill="#f69812"/><path d="m231 201s-107 24-147-18-16-77 30-69 107 66 117 87z" fill="#f69812"/><path d="m219.3859 208.4439s-7.2496-16.5705 1.0356-21.7487 23.8201-8.28526 26.927-6.214 14.4992 14.49915 9.3209 20.71305-35.2122 14.49925-37.2835 7.24965z" fill="#ffc956"/><g fill="#fff"><path d="m403.0834 75.516a81.5528 81.5528 0 0 1 -13.6956 37.4822 79.824 79.824 0 0 1 -7.1088 8.9833c-.4337.4741.2716 1.1832.7071.7071a82.59763 82.59763 0 0 0 19.1443-35.8284 81.68967 81.68967 0 0 0 1.953-11.3442c.0647-.6397-.9358-.6353-1 0z"/><path d="m390.2743 79.2567a50.79249 50.79249 0 0 1 -5.552 23.6954c-.2927.5719.5699 1.0784.8635.5047a51.88153 51.88153 0 0 0 5.6885-24.2001.5003.5003 0 0 0 -1 0z"/><path d="m376.8495 76.9296q-.36615 10.45245-.7323 20.9048c-.0226.6436.9775.6427 1 0q.36615-10.45245.7323-20.9048c.0226-.6436-.9775-.6427-1 0z"/><path d="m324.4942 64.9467a246.67794 246.67794 0 0 0 -43.6713 62.3068q-4.7148 9.6045-8.5803 19.5947c-.2327.6005.7338.8605.9642.2658a245.825 245.825 0 0 1 37.9249-65.5201q6.68385-8.27175 14.0696-15.9402c.4465-.4637-.2597-1.1718-.7071-.707z"/><path d="m323.8643 77.4514q-7.2363 9.20025-13.8614 18.8588-6.61185 9.65085-12.5735 19.7265-3.39135 5.73225-6.564 11.5896c-.3067.566.5564 1.0713.8635.5047q5.5473-10.2342 11.7568-20.0897 6.20835-9.847 13.0578-19.2698 3.91275-5.38215 8.0279-10.6131c.3935-.5003-.3094-1.2127-.7071-.707z"/><path d="m325.2191 93.5476a61.72459 61.72459 0 0 0 -11.357 17.7603q-1.17135 2.79315-2.0598 5.6917c-.1897.6165.7753.8802.9643.2659a60.58092 60.58092 0 0 1 13.1596-23.0107c.4335-.4742-.2717-1.1834-.7071-.7072z"/><path d="m335.1692 96.7626q-4.236 9.3003-8.4722 18.6007c-.2648.5813.5968 1.0902.8635.5047q4.236-9.3003 8.4722-18.6007c.2648-.5813-.5968-1.0902-.8635-.5047z"/><path d="m104.4092 212.5305a105.66106 105.66106 0 0 1 -28.5585-12.8647 108.031 108.031 0 0 1 -23.505-20.43265 103.99142 103.99142 0 0 1 -10.3363-14.32879.50035.50035 0 0 0 -.8634.50476 106.61181 106.61181 0 0 0 20.0998 24.35708 108.84353 108.84353 0 0 0 26.2872 17.5213 105.61418 105.61418 0 0 0 16.6103 6.2073.50044.50044 0 0 0 .2659-.9643z"/><path d="m82.7489 193.5059a72.19218 72.19218 0 0 1 -19.2479-14.72477q-2.3775-2.55881-4.4971-5.34186c-.3848-.50543-1.2535-.00781-.8635.5047a73.29261 73.29261 0 0 0 17.979 16.81353q2.97105 1.95675 6.1247 3.6118c.5691.2995 1.0751-.5633.5048-.8634z"/><path d="m49.0275 158.6862q-2.3367-4.2504-4.6731-8.5008c-.3102-.5641-1.174-.0602-.8636.5047q2.3367 4.2504 4.6733 8.5008c.31.5641 1.1738.0601.8634-.5047z"/><path d="m212.9312 184.9983a132.94551 132.94551 0 0 0 -19.8744-19.38038 133.48174 133.48174 0 0 0 -37.6355-20.94022c-.6066-.2186-.8677.7473-.2659.9643a132.8692 132.8692 0 0 1 57.0686 40.0634c.4116.4955 1.1157-.2152.7072-.7071z"/><path d="m199.022 184.2044a280.60153 280.60153 0 0 0 -30.4008-24.8751q-4.51665-3.19455-9.1573-6.2081c-.5412-.3517-1.043.5136-.5047.8634a278.88551 278.88551 0 0 1 31.158 23.49758q4.17225 3.63271 8.1976 7.42932c.4682.4412 1.1767-.2646.7072-.7071z"/><path d="m186.5681 187.9542q-10.3989-7.91571-20.7978-15.83134-2.97135-2.26163-5.9424-4.52319c-.512-.38971-1.0108.47833-.5047.86346q10.399 7.91565 20.7979 15.83127l5.9424 4.5232c.5119.3897 1.0106-.4783.5046-.8634z"/><path d="m175.5623 190.534q-11.61225-7.35585-23.2245-14.7118c-.5453-.34539-1.0475.5196-.5048.86347q11.61225 7.3559 23.2245 14.71183c.5453.3454 1.0475-.5196.5048-.8635z"/><path d="m237.9545 205.9051q-2.57-5.10255-5.1399-10.2053c-.2896-.5748-1.1526-.0691-.8635.5048q2.57 5.10255 5.14 10.2053c.2895.5748 1.1524.0691.8634-.5048z"/><path d="m242.3421 201.4141a8.98807 8.98807 0 0 1 -1.3073-7.4235.5004.5004 0 0 0 -.9642-.2659 9.96945 9.96945 0 0 0 1.408 8.1941c.3643.5253 1.2315.0259.8635-.5047z"/><path d="m247.767 201.4875q-1.20015-5.0229-2.4002-10.0459c-.1496-.6257-1.1141-.3607-.9643.2659q1.20015 5.0229 2.4002 10.0459c.1495.6256 1.114.3607.9643-.2659z"/><path d="m124.9954 364.3821q-1.1685-22.31745-3.6983-44.5359-1.4187-12.45705-3.2619-24.8608c-.0942-.6343-1.0579-.3647-.9643.2659q3.2802 22.10085 5.2067 44.3741 1.91925 22.20345 2.4847 44.4964.3159 12.46665.2064 24.9389a.5003.5003 0 0 0 1 0q.19275-22.3476-.9733-44.6786z"/><path d="m134.9534 330.9365q-.15525-6.6102-.3108-13.2203a.5003.5003 0 0 0 -1 0q.54525 23.198 1.0906 46.396.15525 6.6102.3107 13.2203a.5003.5003 0 0 0 1 0q-.54525-23.19795-1.0905-46.396z"/><path d="m459.4343 204.1661q-.2703 19.87095-1.1793 39.7263-.91065 19.8519-2.4633 39.6674-.8733 11.1444-1.949 22.2715c-.0618.6401.9386.6359 1 0q1.9107-19.781 3.1845-39.6161 1.272-19.83195 1.9018-39.6983.3543-11.17275.5053-22.3508a.5003.5003 0 0 0 -1 0z"/><path d="m447.9331 218.6164q-.3774 22.16235-.7546 44.3246-.106 6.2253-.212 12.4507a.5003.5003 0 0 0 1 0q.37725-22.1622.7546-44.3246.1059-6.2253.212-12.4507a.5003.5003 0 0 0 -1 0z"/><path d="m437.4301 225.4668c.0918-.6295-.8716-.9013-.9643-.2659a148.2294 148.2294 0 0 0 -1.3106 30.0681c.0374.6396 1.0377.6439 1 0a146.96647 146.96647 0 0 1 1.2749-29.8022z"/><path d="m428.6154 171.63953q-20.7813-2.3184-41.5627-4.63684-5.8137-.64866-11.6276-1.29725c-.6386-.07122-.6335.92933 0 1q20.7813 2.31849 41.5626 4.63691 5.81385.64855 11.6277 1.29718c.6386.07129.6335-.92932 0-1z"/><path d="m413.1387 181.34961a182.256 182.256 0 0 1 -24.9326-3.7901q-3.495-.78268-6.9571-1.70239a.50044.50044 0 0 0 -.2659.96429 184.20337 184.20337 0 0 0 24.909 4.7926q3.6156.44019 7.2466.7356c.6414.05261.6379-.94769 0-1z"/><path d="m389.0161 191.7511q-8.5131-1.8204-17.0263-3.6409c-.6276-.1342-.8958.8296-.2658.9643q8.5131 1.8204 17.0262 3.6409c.6277.1342.8959-.8295.2659-.9643z"/><path d="m336.9625 249.0749a421.42635 421.42635 0 0 0 -36.2946 23.7848q-4.90695 3.591-9.7085 7.3226c-.5078.3942.2045 1.0972.707.7071a420.19814 420.19814 0 0 1 35.3975-24.6736q5.15595-3.2139 10.4033-6.2774a.50038.50038 0 0 0 -.5047-.8635z"/><path d="m297.7332 358.4454q-1.52145 12.46335-3.0427 24.9269-1.52145 12.4635-3.0427 24.927-.863 7.06875-1.7258 14.1377c-.0778.6373.9229.6317 1 0q1.52145-12.46365 3.0427-24.927 1.52145-12.4635 3.0427-24.9269.86295-7.0689 1.7258-14.1377c.0778-.6374-.9229-.6317-1 0z"/><path d="m310.7539 367.7219a105.34685 105.34685 0 0 0 -3.4399 32.3827c.1525 3.0524.4466 6.0946.8612 9.1223.0869.6348 1.0506.3645.9643-.2658a104.09639 104.09639 0 0 1 .6221-32.159q.78555-4.44765 1.9566-8.8144a.50043.50043 0 0 0 -.9643-.2658z"/><path d="m221.8032 359.0508q-1.13-16.97085-1.1178-33.992.00765-9.61365.3809-19.2219c.0249-.6436-.9751-.6425-1 0q-.66165 17.1192-.1688 34.2562.4962 17.1246 2.1515 34.1891.9228 9.51285 2.2056 18.9857c.0857.6347 1.0494.3644.9643-.2659q-2.2815-16.9113-3.4157-33.9512z"/><path d="m233.5554 334.0778q-.44835-8.4252-1.1752-16.8321c-.0549-.6363-1.0554-.6421-1 0q1.2789 14.8338 1.6983 29.7245.4158 14.88285-.0358 29.773-.2559 8.43315-.7906 16.8545c-.0406.6426.9596.6402 1 0q.9399-14.8593 1.0191-29.7556.0758-14.8884-.7158-29.7643z"/><path d="m193.1945 328.5519c-.0481-.6377-1.0485-.6429-1 0q.7791 10.32225 1.5579 20.6445c.0481.6377 1.0486.643 1 0q-.7788-10.32225-1.5579-20.6445z"/><path d="m249.3317 224.5229q-12.4707 9.7032-24.9411 19.4064-3.53505 2.7504-7.0699 5.501c-.5073.3947.2049 1.0978.7071.7071q12.47055-9.7032 24.9411-19.4063l7.0699-5.5011c.5073-.3947-.205-1.0978-.7071-.7071z"/><path d="m247.1054 239.2133q-10.314 7.49565-20.628 14.9914c-.5155.3746-.0171 1.2426.5047.8634q10.31415-7.49565 20.6281-14.9913c.5155-.3747.0171-1.2427-.5048-.8635z"/><path d="m64.3905 341.3447q-2.76285-20.46555-5.0753-40.9883-1.2927-11.465-2.4456-22.9451c-.0637-.6343-1.0643-.6409-1 0q2.07135 20.6142 4.5912 41.1802 2.4993 20.3844 5.4391 40.7115 1.6692 11.5416 3.4807 23.0621c.0997.6339 1.0635.3647.9644-.2659q-3.19785-20.3442-5.9545-40.7545z"/><path d="m76.2222 331.6526-2.6304-26.3476q-.7443-7.45695-1.4888-14.9138c-.0633-.6343-1.0639-.6409-1 0q1.315 13.1739 2.6304 26.3476l2.6302 26.3476q.74445 7.457 1.4889 14.9138c.0633.6343 1.064.6409 1 0q-1.3152-13.17375-2.6303-26.3476z"/><path d="m89.5161 339.2442a82.0148 82.0148 0 0 1 -3.1311-27.7292c.0379-.6429-.9624-.6407-1 0a82.8754 82.8754 0 0 0 3.1668 27.9951.50045.50045 0 0 0 .9643-.2659z"/><path d="m375.6702 307.3268q-1.0764-14.4888-2.1529-28.9777-.60975-8.20845-1.2196-16.4167c-.0474-.6378-1.0478-.643-1 0q1.0764 14.489 2.1529 28.9778l2.1528 28.9779q.60975 8.20815 1.2197 16.4165c.0473.6379 1.0477.6431 1 0q-1.07655-14.4888-2.1529-28.9778z"/><path d="m365.5445 273.8407a.50031.50031 0 0 0 -1 0q.24735 10.32285.4946 20.6457a.50031.50031 0 0 0 1 0q-.24735-10.32285-.4946-20.6457z"/><path d="m310.9474 211.8268-34.2087-4.3939q-4.83375-.621-9.6677-1.2419c-.6364-.0817-.6304.919 0 1l34.2087 4.3941 9.6677 1.2417c.6365.0818.6305-.919 0-1z"/><path d="m308.3533 204.0777a140.94014 140.94014 0 0 1 -27.4015-2.2484q-3.8211-.6963-7.5994-1.6022c-.6255-.1495-.8925.8145-.2659.9642a142.38528 142.38528 0 0 0 27.3795 3.7919q3.94155.1578 7.8873.0945a.5003.5003 0 0 0 0-1z"/><path d="m178.9998 230.993a89.41848 89.41848 0 0 1 -21.3748 12.1955c-.5905.2357-.3329 1.2032.2659.9643a90.27677 90.27677 0 0 0 21.6135-12.2964c.5029-.387.0054-1.2561-.5046-.8634z"/><path d="m333.8702 265.0898a222.91823 222.91823 0 0 0 -27.0485 20.8786q-3.5952 3.24585-7.0458 6.6467c-.4592.4522.248 1.1593.7071.7071a221.27076 221.27076 0 0 1 26.0025-21.9483q3.88545-2.79555 7.8895-5.4205c.5358-.3518.0353-1.218-.5048-.8636z"/></g><circle cx="41" cy="428" fill="#e71a28" r="5"/><circle cx="68" cy="56" fill="#ffc956" r="17"/><circle cx="115.5" cy="78.5" fill="#ffa1bd" r="5.5"/><circle cx="290" cy="27" fill="#009bc5" r="6"/><circle cx="468" cy="145" fill="#ffa1bd" r="7"/><circle cx="470" cy="397" fill="#009bc5" r="9"/><circle cx="385" cy="440" fill="#e71a28" r="4"/><circle cx="31" cy="326" fill="#167d2d" r="7"/><circle cx="413" cy="472" fill="#ffc956" r="8"/><circle cx="290" cy="478" fill="#009bc5" r="5"/><circle cx="167" cy="473" fill="#ffc956" r="6"/><circle cx="449.5" cy="38.5" fill="#167d2d" r="6.5"/><path d="m405 417 68 65 14-39z" fill="#ffa1bd"/><path d="m340 442 11 51 23-6z" fill="#167d2d"/><path d="m94 433-61 44 31 23z" fill="#009bc5"/><path d="m178.548 110.226-47.548-73.226 37-12z" fill="#167d2d"/><path d="m231 103v-67l29 4z" fill="#e71a28"/><path d="m425 128 57-42 12 21z" fill="#ffc956"/></g></svg>