<svg id="Layer_1" enable-background="new 0 0 55 55" height="512" viewBox="0 0 55 55" width="512" xmlns="http://www.w3.org/2000/svg"><g id="Target"><g><g><g><path d="m28.9401779 51.4618187c-3.1796875 0-6.2744141-.8125-9.0625-2.4169922-5.5159092-3.1735115-8.0168819-10.9380722-4.3242188-18.8437481 2.9339027-6.2826366 10.4800167-13.272459 18.1865234-15.0917969 7.2441406-1.7138672 14.2744141 1.7558594 16.7138672 8.2441406 1.2128906 3.2265625 1.5654297 6.1416016 1.0791016 8.9121075-1.6593894 9.4628182-11.6595115 19.1962891-22.5927734 19.1962891zm5.0302735-35.3798809c-7.3804455 1.7429371-14.6928711 8.5068264-17.5107422 14.5429688-3.4893246 7.4696217-1.1179266 14.6578083 3.9160156 17.5527325 4.3632813 2.5117188 9.5283203 2.9677734 14.5419922 1.2851563 8.3423386-2.8012733 14.4537392-10.6669502 15.6308594-17.3710938.4541016-2.5888653.1171875-5.3320293-1.0302734-8.3867168-2.2633897-6.0187704-8.808529-9.2144338-15.5478516-7.623047z"/></g><g><path d="m18.0468616 46.267292c-5.3181601-3.0601234-7.6961899-10.5441704-4.1199408-18.1989517 1.4465628-3.0962944 3.6560087-5.7892761 6.1539755-8.121603 3.320612-3.1004238 7.2727413-5.6516514 11.6941299-6.695878 6.5917225-1.5568066 13.6505032 1.3376484 16.1308002 7.9342813 4.3720818 11.6280422-5.012928 23.084013-14.9088745 26.4068127-5.0498808 1.6956177-10.3329409 1.3320961-14.9500903-1.3246613z" fill="#ff5f6e"/></g><g><path d="m16.3051395 36.5625725c-1.0231876-5.4458523 1.9698315-10.5099869 6.0130253-14.285078 2.6204548-2.4466934 5.7392693-4.4599895 9.2284012-5.2840385 5.2018433-1.2285509 10.7722702 1.055603 12.7295914 6.261322 3.4502182 9.1762486-3.9559441 18.2167072-11.7653122 20.8388882-6.876461 2.3089369-14.8550587-.3423578-16.2057057-7.5310937z" fill="#fff"/></g><g><path d="m21.1055202 29.2653427c.8271446-1.770462 2.0905056-3.3103065 3.5188427-4.6439323 1.8987255-1.7728214 4.1585522-3.2316132 6.6867027-3.828701 3.769146-.8901825 7.8053551.7648659 9.223587 4.5368195 2.5283928 6.7245483-2.9712524 13.2346458-8.5248909 15.099411-7.6232928 2.5597037-14.5885543-3.2775079-10.9042415-11.1635972z" fill="#ff5f6e"/></g><g><path d="m25.0746098 29.8957119c.4846649-1.0374012 1.2249298-1.9396725 2.0618629-2.7211075 6.3452206-5.9244728 12.3987331.3986454 8.4938641 6.047163-1.0149193 1.4681091-2.4744568 2.6471329-4.166399 3.2152405-4.5973626 1.5436745-8.4799023-2.0665283-6.389328-6.541296z" fill="#fff"/></g><g><path d="m31.5968895 31.2027283c-.8188019-.5929337-1.6128635-1.0868053-2.4255867-1.6481533-.2170391-.1499081-.4848595-.1812286-.744978-.1374493-.8162613.1373806-1.6899853-.1227531-2.3980999-.5641823-1.1063042-.6896-.8554115-.5443783-11.2453766-12.5489807-.2895584-.3345566-.6963263-.5450191-1.134799-.6043081-2.9734135-.4020567-5.647562-1.2241583-8.3494186-2.6299763-2.8794765-1.4892797-2.2037675-3.8035116-1.0622196-4.7960987.9015188-.7839322 2.2684369-1.0309067 3.4468207-.7409229.1321597.0325227.2307534-.0869823.1800179-.213275-.3750405-.9335642-.2022491-2.083293.4718761-2.8440571 1.0206738-1.1686509 2.9655056-1.5163515 4.7394457.5692191 1.9004183 2.2342677 2.4647665 5.2993941 2.8135948 8.6231632.0453014.4316483.2351952.8296509.5504684 1.1279373 8.3611832 7.9107018 9.478981 8.0448723 11.1885242 9.9352798.8463497.9358921 1.6815376 2.1230183 1.9055061 3.3868198.0292416.1650047.0965405.3268833.1990833.4594231.7932494 1.0253035.9886935 1.5274493 1.8651412 2.6255614z" fill="#3a97d4"/></g><g><path d="m31.5968895 31.2027283c-.9334698-.6759701-1.8347855-1.2231903-2.7682552-1.8884201-.9227295.3218746-1.9742737.0536346-2.8004093-.4613647-.8262005-.5149994-1.48069-1.2660847-2.124506-2.0064297-1.1158543-1.2875652-2.2209682-2.5751305-3.3368893-3.8626308 1.0796204-.5790119 1.8013878-1.1115532 2.5214958-2.1673985 2.3603783 2.0349617 3.5881863 2.7985172 4.7209835 4.1201286.8369408.9656906 1.6201801 2.1674004 1.7596703 3.433485.9334697 1.1695557 1.0944404 1.6630745 2.0279102 2.8326302z" fill="#ffc372"/></g><g><path d="m30.6032639 33.2479515c-.3886719 0-.7783203-.0449219-1.15625-.1367188-.1347656-.0332031-.2167969-.1679688-.1845703-.3017578.0332031-.1347656.1708984-.2148438.3017578-.1845703 1.0712891.2607422 2.2363281.1054688 3.2001953-.4248047.1201172-.0664063.2734375-.0234375.3388672.0986328.0664063.1201172.0224609.2724609-.0986328.3388672-.7304688.4023438-1.5664063.6103516-2.4013672.6103516z"/></g><g><path d="m43.4050217 18.8710003c-1.4794922-1.8789063-3.6884766-3.1328125-6.0615234-3.4404297-.1367188-.0175781-.2333984-.1435547-.2158203-.2802734.0175781-.1376953.1445313-.2294922.2802734-.2158203 2.5009766.3242188 4.8300781 1.6464844 6.3896484 3.6279297.0859375.1083984.0664063.265625-.0419922.3505859-.1095619.0862522-.2674103.0661335-.3505859-.0419922z"/></g><g><path d="m13.2936935 13.1454144c-.2547007 0-2.2584028-1.0110044-6.2441406-1.8994141-.3200879-.0719042-.2180138-.5574484.109375-.4882813 1.9326172.4306641 3.8486328 1.0029297 5.7050781 1.7041016l-2.1064453-5.5996094c-.0478516-.1289063.0175781-.2734375.1464844-.3222656s.2724609.0166016.3222656.1464844l2.3017578 6.1210938c.0614443.1667766-.0628585.3378906-.234375.3378906z"/></g><g><path d="m26.9772873 27.6063519c-.1796875-1.0498047-.7451172-2.0507813-1.5517578-2.7470703-.1044922-.0908203-.1162109-.2480469-.0263672-.3525391.0908203-.1044922.2490234-.1162109.3525391-.0263672.90625.7822266 1.5166016 1.8623047 1.7177734 3.0419922.0234375.1357422-.0683594.265625-.2041016.2880859-.1198463.0256806-.2635956-.0583248-.2880859-.2041015z"/></g><g><g><path d="m19.4919357 11.733305c-.2675781-.0693359-.4277344-.3417969-.3574219-.609375.2685547-1.0341797.3183594-2.1386719.1416016-3.1943359-.0458984-.2724609.1386719-.5292969.4111328-.5751953.265625-.0498047.5292969.1376953.5751953.4111328.1992188 1.1923828.1435547 2.4414063-.1611328 3.6103516-.0717983.2752246-.3558864.4281625-.609375.3574218z"/></g><g><path d="m21.6647873 11.1590862c-.2236328-.1621094-.2744141-.4746094-.1123047-.6982422.8134766-1.1230469 1.4228516-2.3662109 1.8115234-3.6962891.0771484-.2636719.3525391-.4179688.6201172-.3388672.2646484.0771484.4169922.3544922.3388672.6201172-.4199219 1.4394531-1.0791016 2.7851563-1.9599609 4.0009766-.1610775.2238989-.474638.2737971-.6982422.1123047z"/></g><g><path d="m22.9294357 13.3299847c-.2392578-.1367188-.3232422-.4423828-.1865234-.6826172.7060547-1.2373047 1.9599609-2.1552734 3.3535156-2.4560547.2646484-.0576172.5371094.1123047.59375.3828125.0585938.2695313-.1132813.5361328-.3828125.59375-1.1201172.2421875-2.1279297.9804688-2.6953125 1.9755859-.1364116.2369242-.4384308.3238783-.6826172.1865235z"/></g></g></g></g></g></svg>