<?xml version="1.0" encoding="UTF-8"?>
<!-- Generator: Adobe Illustrator 25.2.3, SVG Export Plug-In . SVG Version: 6.00 Build 0)  -->
<svg xmlns="http://www.w3.org/2000/svg" xmlns:xlink="http://www.w3.org/1999/xlink" version="1.1" id="Capa_1" x="0px" y="0px" viewBox="0 0 512 512" style="enable-background:new 0 0 512 512;" xml:space="preserve" width="512" height="512">
<g>
	<g>
		<g>
			<g>
				<path style="fill:#FFB30B;" d="M99.897,130.122c0,0-22.228,33.492-20.659,39.595c1.564,6.103,20.659-7.825,20.659-7.825      s-8.453,20.034-4.384,24.101c4.069,4.07,20.661-5.164,20.661-5.164l-2.665-50.707H99.897z"/>
				<g>
					<path style="fill:#FFB30B;" d="M84.139,111.458c6.799-19.834-34.934,0.673-17.898-38.614       c18.312-42.256,114.412-87.33,148.533-68.399c34.105,18.949,3.288,71.986,3.288,71.986c14.086-4.995,16.734,0.938,13.298,9.239       c-3.438,8.301,3.755,15.024,3.755,15.024c-7.401,1.991-13.71,1.147-18.896-0.973l-23.161,42.535L84.634,120.181L84.139,111.458       z"/>
					<g style="opacity:0.2;">
						<path style="fill:#FFFFFF;" d="M182.292,27.123c-1.659,15.726,0.453,38.607,8.453,53.382        c-9.134-14.427-12.813-37.635-12.2-53.664L182.292,27.123z"/>
						<path style="fill:#FFFFFF;" d="M187.849,36.102c0.34,21.744,14.165,43.368,32.239,54.969        c-19.305-10.912-34.471-32.561-35.994-54.9L187.849,36.102z"/>
						<path style="fill:#FFFFFF;" d="M167.252,14.661c5.503,26.378-9.995,55.368-24.202,76.41        c12.759-20.935,26.833-49.983,20.632-75.242L167.252,14.661z"/>
						<path style="fill:#FFFFFF;" d="M136.377,35.557c7.01,25.855-3.772,55.399-21.928,74.294        c16.709-19.095,26.274-48.354,18.352-73.131L136.377,35.557z"/>
						<path style="fill:#FFFFFF;" d="M161.357,26.587c2.225,16.191-7.311,36.302-14.744,49.46        c6.193-13.215,14.136-33.117,11.076-48.67L161.357,26.587z"/>
					</g>
				</g>
			</g>
			<g>
				<path style="fill:#FFD3A4;" d="M204.914,184.588c-69.656-7.982-59.945,21.747-59.945,21.747l-7.983,6.893h-11.114l-11.568-6.893      l-4.868-67.459c0,0-34.893,2.049-39.908-12.976c-2.648-7.943,4.337-13.483,14.612-14.441c9.165-0.846,20.977,1.932,30.929,9.895      c0,0,10.651-9.07,21.917-34.593l-1.728,19.419c0,0,26.61-11.588,39.758-59.629c0,0,2.97,35.212,23.797,49.298V84.113      c0,0,5.935,10.913,17.407,15.608C221.088,143.495,204.914,184.588,204.914,184.588z"/>
				<path style="fill:#FFFFFF;" d="M171.406,131.754c-0.119,4.97-7.115,8.833-15.626,8.627c-8.518-0.205-15.319-4.4-15.196-9.369      c0.118-4.966,7.119-8.828,15.628-8.623C164.726,122.591,171.525,126.785,171.406,131.754z"/>
				<path style="fill:#FFFFFF;" d="M207.895,134.068c-0.112,4.715-6.754,8.38-14.836,8.188c-8.079-0.196-14.534-4.178-14.424-8.893      c0.116-4.716,6.759-8.383,14.836-8.187C201.55,125.371,208.007,129.351,207.895,134.068z"/>
				<path style="fill:#061535;" d="M176.426,111.811l-1.723,50.55l-20.187,1.723c0,0,1.721-14.242,8.762-7.043      c0,0-5.165-2.192-5.474,4.381l13.605-1.564C171.408,159.858,173.454,120.42,176.426,111.811z"/>
				<path style="fill:#FFB30B;" d="M144.268,115.668c4.444-9.5,17.113-11.989,24.887-5.009l0.145,0.737      c-6.153,1.688-18.556,4.191-24.882,5.009L144.268,115.668z"/>
				<path style="fill:#FFB30B;" d="M186.112,102.228c8.357-5.764,19.122-1.425,21.286,8.451l-0.277,0.699      c-5.501-1.704-16.109-5.917-21.284-8.45L186.112,102.228z"/>
				<path style="fill:#061535;" d="M161.308,136.457c0,1.512-1.412,2.738-3.16,2.738c-1.745,0-3.162-1.227-3.162-2.738      c0-1.516,1.417-2.742,3.162-2.742C159.896,133.715,161.308,134.941,161.308,136.457z"/>
				<path style="fill:#061535;" d="M192.298,137.946c0,1.513-1.419,2.741-3.165,2.741c-1.746,0-3.158-1.228-3.158-2.741      c0-1.513,1.412-2.742,3.158-2.742C190.879,135.205,192.298,136.433,192.298,137.946z"/>
				<path style="fill:#061535;" d="M80.833,125.473c0,0,1.609-5.429,11.853-3.822c10.228,1.608,14.164,7.578,10.208,11.506      c-3.959,3.916-14.265,0.239-8.977-3.507l-5.573-0.156l7.792-1.083c0,0-3.516,3.578,0.972,5.15      c4.492,1.567,10.199-5.411,0.918-9.66C88.738,119.646,80.833,125.473,80.833,125.473z"/>
				<g>
					<path style="fill:#061535;" d="M133.543,161.732c0,0-5.951,10.484,18.468,9.861c0,0-18.464-0.94-16.899-9.861H133.543z"/>
					<path style="fill:#061535;" d="M129.018,163.296c0,0,1.869-2.346,9.85-0.781l1.293-1.567       C140.161,160.949,133.102,158.288,129.018,163.296z"/>
				</g>
				<path style="fill:#FFB30B;" d="M142.457,158.575c0,0-19.442-16.25-20.986,21.154l28.416,7.299c0,0,16.029-14.031-0.783-22.944      c0,0,21.216-0.005,5.882,27.383l-38.812-7.669C116.174,183.799,119.755,134.136,142.457,158.575z"/>
			</g>
		</g>
		<g>
			<g>
				<path style="fill:#061535;" d="M143.05,276.229c0,13.604-14.294,24.636-31.925,24.636c-17.629,0-31.925-11.032-31.925-24.636      c0-13.605,14.297-24.635,31.925-24.635C128.756,251.594,143.05,262.624,143.05,276.229z"/>
				<path style="fill:#061535;" d="M105.53,291.947c0.468,0.779-9.95,216.752-9.95,216.752s75.388,6.73,75.829,0      c0.441-6.728-60.236-7.042-60.236-7.042l7.967-208.066L105.53,291.947z"/>
				<path style="fill:#061535;" d="M118.047,290.3l36.435,95.857L120.31,497.432c0,0,63.327,6.573,65.666-0.469      c2.335-7.043-47.656-5.272-47.656-5.272l32.393-109.288l-39.826-93.435L118.047,290.3z"/>
			</g>
			<g>
				<g>
					<g>
						<path style="fill:#F23838;" d="M182.026,283.26c-1.712,1.128-3.572,1.821-5.6,1.953c-18.312,1.166-26.538-30.18-26.538-30.18        l4.624-12.077c0,0,10.176,19.118,23.284,15.739L182.026,283.26z"/>
						
							<rect x="151.551" y="262.585" transform="matrix(0.3951 -0.9186 0.9186 0.3951 -144.8184 307.1104)" style="fill:#061535;" width="18.498" height="1.879"/>
						
							<rect x="158.258" y="268.948" transform="matrix(0.2952 -0.9554 0.9554 0.2952 -137.5393 353.3205)" style="fill:#061535;" width="24.914" height="1.876"/>
						
							<rect x="166.128" y="254.821" transform="matrix(0.5727 -0.8198 0.8198 0.5727 -151.7163 253.2561)" style="fill:#061535;" width="1.879" height="34.669"/>
						
							<rect x="164.223" y="243.545" transform="matrix(0.5319 -0.8468 0.8468 0.5319 -143.4825 261.9217)" style="fill:#061535;" width="1.879" height="34.386"/>
					</g>
					<g>
						<path style="fill:#FFD3A4;" d="M213.288,236.609c0,12.919-13.856,0.94-13.856,0.94s-3.722,36.754-17.407,45.71l-4.23-24.565        c0.282-0.076,0.566-0.149,0.844-0.245c13.507-4.45,15.874-28.639,15.874-28.639s-7.289-14.555-3.76-20.434        C194.265,203.519,213.288,223.707,213.288,236.609z"/>
						<path style="fill:#FFD3A4;" d="M198.023,218.543c0,0,17.134-32.161,23.242-30.05c6.103,2.114-20.191,32.396-20.191,32.396        L198.023,218.543z"/>
						<path style="fill:#061535;" d="M208.356,243.415c-9.849-4.646-11.215-23.99-11.27-24.811l-0.195-3l1.869,2.356        c3.565,4.494,6.016,5.47,7.439,5.499c1.278-0.032,1.808-0.656,1.833-0.681l1.457,1.182c-0.41,0.512-1.551,1.377-3.225,1.377        c-0.007,0-0.009,0-0.009,0c-2.128-0.004-4.463-1.317-6.965-3.906c0.77,5.513,3.155,17.123,9.867,20.285L208.356,243.415z"/>
						
							<rect x="199.84" y="227.249" transform="matrix(0.9832 -0.1824 0.1824 0.9832 -38.1848 41.2974)" style="fill:#061535;" width="11.05" height="1.879"/>
						
							<rect x="202.358" y="233.41" transform="matrix(0.9351 -0.3544 0.3544 0.9351 -69.5643 88.8117)" style="fill:#061535;" width="10.712" height="1.876"/>
					</g>
					<g>
						<polygon style="fill:#FF889C;" points="188.397,283.804 174.783,288.968 171.408,256.572 182.999,253.521       "/>
					</g>
				</g>
				<g>
					<path style="fill:#F23838;" d="M148.621,206.495c0,0,32.812,43.978-7.097,74.654l-36.934-1.096l-20.502,23.321       c0,0-17.213,4.696-14.708-32.711c2.5-37.405,43.661-61.82,43.661-61.82L148.621,206.495z"/>
					
						<rect x="71.122" y="291.006" transform="matrix(0.9911 -0.1335 0.1335 0.9911 -38.2192 13.7442)" style="fill:#061535;" width="24.57" height="1.879"/>
					
						<rect x="69.252" y="280.718" transform="matrix(0.9958 -0.0918 0.0918 0.9958 -25.4911 9.1729)" style="fill:#061535;" width="35.411" height="1.878"/>
					
						<rect x="110.237" y="227.792" transform="matrix(0.0061 -1 1 0.0061 -158.9681 379.0077)" style="fill:#061535;" width="1.878" height="83.362"/>
					
						<rect x="115.514" y="211.225" transform="matrix(0.0084 -1 1 0.0084 -139.1763 368.9846)" style="fill:#061535;" width="1.879" height="86.88"/>
					
						<rect x="79.151" y="239.012" transform="matrix(0.9989 -0.0477 0.0477 0.9989 -11.3005 5.9965)" style="fill:#061535;" width="81.869" height="1.879"/>
					
						<rect x="85.924" y="228.259" transform="matrix(0.9959 -0.0905 0.0905 0.9959 -20.2509 12.0048)" style="fill:#061535;" width="72.524" height="1.878"/>
					
						<rect x="98.927" y="216.991" transform="matrix(0.9987 -0.0512 0.0512 0.9987 -10.9967 6.7772)" style="fill:#061535;" width="55.591" height="1.879"/>
					
						<rect x="77.133" y="245.777" transform="matrix(0.9992 -0.0395 0.0395 0.9992 -10.7667 3.2941)" style="fill:#061535;" width="1.877" height="57.284"/>
					
						<rect x="85.929" y="232.446" transform="matrix(0.9997 -0.0238 0.0238 0.9997 -6.3116 2.1457)" style="fill:#061535;" width="1.878" height="66.865"/>
					
						<rect x="97.355" y="221.424" transform="matrix(0.9985 -0.0541 0.0541 0.9985 -13.564 5.6894)" style="fill:#061535;" width="1.88" height="63.868"/>
					
						<rect x="109.259" y="211.33" transform="matrix(0.9996 -0.028 0.028 0.9996 -6.8497 3.1826)" style="fill:#061535;" width="1.88" height="69.612"/>
					
						<rect x="84.214" y="243.471" transform="matrix(0.0333 -0.9994 0.9994 0.0333 -127.9748 356.5092)" style="fill:#061535;" width="72.187" height="1.877"/>
					<rect x="127.832" y="208.335" style="fill:#061535;" width="1.876" height="72.594"/>
					
						<rect x="101.366" y="243.146" transform="matrix(0.0138 -0.9999 0.9999 0.0138 -107.6489 379.0325)" style="fill:#061535;" width="73.903" height="1.881"/>
					
						<rect x="147.223" y="207.137" transform="matrix(0.9999 -0.0111 0.0111 0.9999 -2.6743 1.6646)" style="fill:#061535;" width="1.879" height="67.746"/>
				</g>
				<g>
					
						<rect x="119.595" y="259.711" transform="matrix(0.0362 -0.9993 0.9993 0.0362 -164.0392 392.5205)" style="fill:#7F4218;" width="3.756" height="43.183"/>
					<polygon style="fill:#FFB30B;" points="119.831,278.326 131.196,278.955 130.571,285.246 119.831,283.964      "/>
				</g>
				<g>
					<polygon style="fill:#F23838;" points="110.852,195.224 131.196,207.646 146.687,197.729 152.011,207.747 138.861,224.492        131.428,216.512 125.408,229.813 105.53,212.519      "/>
					
						<rect x="112.628" y="213.941" transform="matrix(0.2805 -0.9598 0.9598 0.2805 -117.5479 272.9388)" style="fill:#061535;" width="21.327" height="1.879"/>
					<polygon style="fill:#061535;" points="125.741,231.348 104.915,213.228 106.145,211.811 125.07,228.276 131.158,214.839        138.807,223.048 151.271,207.165 152.75,208.326 138.928,225.936 131.701,218.183      "/>
					
						<rect x="104.851" y="207.354" transform="matrix(0.3759 -0.9267 0.9267 0.3759 -121.6682 235.9395)" style="fill:#061535;" width="18.941" height="1.878"/>
					
						<rect x="139.22" y="202.74" transform="matrix(0.8949 -0.4463 0.4463 0.8949 -79.3879 84.715)" style="fill:#061535;" width="1.879" height="16.323"/>
					
						<rect x="146.098" y="199.5" transform="matrix(0.8995 -0.437 0.437 0.8995 -75.2492 84.9683)" style="fill:#061535;" width="1.879" height="13.048"/>
					<polygon style="fill:#061535;" points="130.992,213.621 108.811,202.641 109.641,200.957 130.779,211.419 146.466,199.409        147.611,200.901      "/>
					
						<rect x="117.107" y="201.561" transform="matrix(0.547 -0.8372 0.8372 0.547 -126.2316 196.0729)" style="fill:#061535;" width="1.876" height="26.214"/>
					
						<rect x="129.983" y="209.589" transform="matrix(0.6866 -0.727 0.727 0.6866 -108.7706 168.7244)" style="fill:#061535;" width="22.678" height="1.878"/>
				</g>
				<g>
					<path style="fill:#FFD3A4;" d="M97.245,279.993l25.337-29.375c0,0-5.463-11.097-2.495-13.295       c2.968-2.197,8.69,6.252,8.69,6.252s14.785-22.986,19.158-20.958c4.398,2.03-14.391,21.468-14.391,21.468       s7.048,11.079,7.048,19.68c0,8.62-14.252-4.695-14.252-4.695L92.27,301.965l-5.807-1.297l-0.39-13.807l3.883-2.818       L97.245,279.993z"/>
					
						<rect x="132.762" y="245.418" transform="matrix(0.964 -0.2658 0.2658 0.964 -63.2327 44.7401)" style="fill:#061535;" width="1.881" height="21.205"/>
					
						<rect x="134.658" y="258.715" transform="matrix(0.8322 -0.5544 0.5544 0.8322 -120.8604 119.8785)" style="fill:#061535;" width="6.007" height="1.878"/>
					
						<rect x="132.436" y="251.811" transform="matrix(0.6798 -0.7334 0.7334 0.6798 -141.9655 180.3438)" style="fill:#061535;" width="6.22" height="1.879"/>
				</g>
				<g>
					<path style="fill:#FF889C;" d="M92.27,301.965l0.434,5.465l-4.302-0.601l-15.87-2.199c0,0,2.348-27.719,24.712-24.637       l-6.121,7.098L92.27,301.965z"/>
				</g>
			</g>
		</g>
	</g>
	<g>
		<g>
			<polyline style="fill:#7F4218;" points="314.612,435.001 313.829,508.401 320.044,509.028 316.935,432.024 313.829,435.47    "/>
			<polygon style="fill:#7F4218;" points="340.959,435.001 349.199,512 357.023,512 345.132,435.001    "/>
			<polygon style="fill:#7F4218;" points="371.109,433.592 379.403,507.147 387.386,505.738 374.242,432.024    "/>
			<polygon style="fill:#F23838;" points="306.945,420.757 309.447,441.415 379.403,436.25 379.403,419.66 304.595,409.176    "/>
		</g>
		<g>
			<path style="fill:#061535;" d="M319.435,467.408c-1.506-9.259-5.732-32.019-12.02-39.288h-5.018     c0.264,0.377,6.293,25.297,8.753,35.477c0.177,0.003,1.936,3.526,1.936,3.526l0.472,3.051L319.435,467.408z"/>
			<g>
				<path style="fill:#FF889C;" d="M320.055,471.409c0,0-47.065,16.49-47.703,7.418c-0.622-9.09,39.832-10.967,39.832-10.967      s-0.394-1.652-1.034-4.264c1.408,0.414,2.838,1.54,2.99,4.431l5.295-0.62C319.849,469.888,320.055,471.409,320.055,471.409z"/>
				<path style="fill:#FFFFFF;" d="M278.07,479.954c-4.111,0-5.736-0.626-5.897-0.694l0.358-0.867l-0.179,0.434l0.179-0.435      c0.103,0.041,10.409,3.872,47.191-8.662l0.307,0.889C297.21,478.393,284.549,479.954,278.07,479.954z"/>
				<polygon style="fill:#FF889C;" points="302.397,467.415 308.881,471.464 314.165,468.647 308.588,464.715     "/>
				<polygon style="fill:#FFFFFF;" points="304.481,467.415 308.588,465.673 312.934,468.766 309.176,470.877     "/>
			</g>
		</g>
		<g>
			<path style="fill:#061535;" d="M328.412,465.825c0.244,0.004,4.433,5.639,4.433,5.639l6.029-3.436     c-3.348-21.823-12.681-35.533-12.681-35.533l34.893-11.737l4.228-4.375l-44.906-4.547l-7.829,14.556l15.774,39.287"/>
			<g>
				<path style="fill:#FF889C;" d="M339.343,471.464c0,0-41.789,21.127-47.104,17.992c-5.333-3.119,15.646-18.462,37.881-19.4      l-1.766-4.378c1.654-0.091,3.623,0.566,4.263,3.909l6.258-1.56C339.038,469.154,339.211,470.302,339.343,471.464z"/>
				<path style="fill:#FFFFFF;" d="M291.431,488.367l-0.031-0.939c0.15-0.003,15.223-0.687,47.562-17.669l0.436,0.831      C306.827,487.696,291.579,488.362,291.431,488.367z"/>
				<polygon style="fill:#FF889C;" points="321.709,469.499 328.188,473.546 333.472,470.73 327.895,466.799     "/>
				<polygon style="fill:#FFFFFF;" points="323.789,469.499 327.895,467.757 332.237,470.847 328.479,472.961     "/>
			</g>
		</g>
		<g>
			<path style="fill:#23AFCF;" d="M286.597,403.073l2.036-30.049l54.623-7.2c0,0,45.848,6.26,24.88,52.585l-77.413-7.043     L286.597,403.073z"/>
			<path style="fill:#061535;" d="M351.627,418.753c0,0,0.085-0.148,0.251-0.423c0.15-0.269,0.365-0.664,0.645-1.169     c0.564-1.034,1.287-2.575,2.083-4.461c0.725-1.906,1.571-4.155,2.124-6.652c0.347-1.239,0.522-2.546,0.739-3.874     c0.201-1.328,0.237-2.693,0.322-4.061c-0.108-1.349,0.011-2.745-0.266-4.06c-0.215-1.327-0.376-2.657-0.826-3.865     c-0.19-0.617-0.376-1.223-0.557-1.817c-0.222-0.581-0.524-1.111-0.768-1.65c-0.508-1.075-0.982-2.103-1.64-2.918     c-0.609-0.845-1.121-1.662-1.656-2.323c-0.593-0.613-1.108-1.147-1.533-1.588c-0.855-0.885-1.345-1.391-1.345-1.391     s0.528,0.463,1.454,1.273c0.468,0.409,1.032,0.905,1.683,1.473c0.591,0.621,1.182,1.4,1.873,2.213     c0.741,0.783,1.318,1.787,1.932,2.857c0.302,0.534,0.66,1.063,0.94,1.646c0.244,0.602,0.49,1.215,0.741,1.84     c0.577,1.234,0.866,2.602,1.206,3.985c0.408,1.377,0.414,2.832,0.638,4.27c0.036,1.438,0.114,2.898,0.02,4.317     c-0.107,1.42-0.183,2.828-0.434,4.161c-0.369,2.698-1.059,5.14-1.663,7.231c-0.673,2.067-1.305,3.771-1.824,4.946     c-0.269,0.596-0.479,1.068-0.624,1.387c-0.148,0.305-0.228,0.467-0.228,0.467L351.627,418.753z"/>
			<path style="fill:#061535;" d="M364.301,419.855c0.013-0.04,0.356-0.559,0.897-1.658c0.56-1.084,1.28-2.703,1.985-4.706     c0.705-2.007,1.343-4.413,1.744-7.048c0.172-1.315,0.302-2.692,0.342-4.088c-0.04-1.394,0.027-2.832-0.233-4.234     c-0.098-0.704-0.165-1.42-0.291-2.121l-0.537-2.052c-0.28-1.398-0.92-2.639-1.414-3.899c-0.434-1.295-1.264-2.331-1.856-3.433     c-0.575-1.118-1.372-1.996-2.045-2.854c-0.714-0.825-1.249-1.706-1.94-2.274c-0.647-0.616-1.213-1.153-1.676-1.595     c-0.938-0.886-1.468-1.393-1.468-1.393s0.571,0.463,1.571,1.27c0.504,0.408,1.117,0.902,1.815,1.468     c0.745,0.524,1.35,1.357,2.142,2.141c0.757,0.816,1.643,1.654,2.323,2.747c0.689,1.075,1.64,2.095,2.195,3.393     c0.618,1.261,1.392,2.522,1.804,3.955c0.244,0.704,0.49,1.414,0.743,2.127c0.19,0.728,0.324,1.474,0.49,2.217     c0.389,1.479,0.448,2.998,0.604,4.491c0.076,1.493,0.058,2.976-0.016,4.4c-0.199,2.85-0.678,5.487-1.264,7.701     c-0.584,2.215-1.222,4.024-1.743,5.273c-0.501,1.256-0.906,2.011-0.882,1.976L364.301,419.855z"/>
		</g>
		<g>
			<g>
				<path style="fill:#061535;" d="M302.467,255.691c0,0,27.221-37.514,35.862-33.427c8.645,4.084-8.314,37.515-25.86,49.119      c-17.548,11.606-32.912,12.152-35.566,6.853c-2.65-5.299,18.542-19.06,15.521-21.389c-3.019-2.334-15.906,13.575-16.201,8.639      c-0.3-4.934,7.569-16.482-0.904-11.078c-8.469,5.404,3.213-9.545,8.39-12.651c5.183-3.107,3.01,7.952,3.01,7.952      s10.922-14.754,15.599-13.528C306.99,237.404,302.467,255.691,302.467,255.691z"/>
				<path style="fill:#FF889C;" d="M299.784,282.249c0,0-17.723,9.744-21.246,4.814c-3.52-4.93,24.766-18.546,24.766-18.546      s11.743-27.7,23.24-25.352c11.508,2.349,1.996,27.112,1.996,27.112L299.784,282.249z"/>
			</g>
			<g>
				<path style="fill:#061535;" d="M275.472,302.892c8.654-17.464,23.117-33.319,47.193-40.583      c66.577-20.133,103.744,20.581,73.638,78.5l-3.438,7.763c0,0-63.972,8.259-63.62,7.885      C329.598,356.081,275.472,302.892,275.472,302.892z"/>
				<g>
					<path style="fill:#7F4218;" d="M375.814,338.203c-23.868-11.268-46.491-34.747-49.912-61.993       c4.497,26.758,28.284,48.996,51.387,58.541L375.814,338.203z"/>
					<path style="fill:#7F4218;" d="M400.329,313.239c-33.179,9.793-57.781-7.004-68.094-38.618       c11.229,29.884,35.035,45.881,66.789,35.095L400.329,313.239z"/>
					<path style="fill:#7F4218;" d="M402.576,292.348c-26.231,12.199-52.488-0.47-68.871-22.072       c16.653,19.854,42.407,31.618,67.06,18.778L402.576,292.348z"/>
					<path style="fill:#7F4218;" d="M281.492,293.917c13.065-0.751,30.915-7.446,40.566-17.427       c-9.338,10.512-27.263,18.014-40.423,19.301L281.492,293.917z"/>
					<path style="fill:#7F4218;" d="M291.435,280.801c11.246,0.637,26.231-3.904,35.374-9.652       c-9.039,6.329-23.935,11.595-35.414,11.531L291.435,280.801z"/>
				</g>
			</g>
			<g>
				<path style="fill:#7F4218;" d="M396.846,351.967c-10.778,13.387-36.379,6.573-36.379,6.573      c-29.578,41.56-97.188,14.085-97.188,14.085s-3.737-37.621,12.193-69.733c18.117,2.273,46.497-23.927,46.497-23.927      c-1.88,47.89,42.95,67.139,42.95,67.139c12.361-7.098,25.41-8.356,31.384-5.296      C400.226,342.818,401.125,346.689,396.846,351.967z"/>
				<g>
					<path style="fill:#061535;" d="M324.314,354.909v2.454l-1.421,3.769l-2.1,2.349l-3.596,2.072l13.424,8.47l2.063-1.27       l1.571-3.052l0.354-1.723l-0.551-2.153l-0.938-2.151l-1.645-2.456l-2.025-2.35       C329.451,358.868,325.637,355.125,324.314,354.909z"/>
					<path style="fill:#061535;" d="M297.926,349.626l3.308,10.234c0,0-8.534,0.411-7.513,2.677       c1.018,2.27,10.644,3.364,16.042,0.393v4.536c0,0,15.964-0.312,15.026-12.284c0,0,5.711,3.362,8.292,9.701       c2.582,6.339-2.424,10.881-5.947,9.392c0,0,4.78,2.269,7.75-4.226c2.97-6.491-11.268-16.352-11.268-16.352       s1.64,12.285-13.148,12.755v-4.307c0,0-8.686,3.133-14.552,0.861c-5.872-2.266,6.314-2.658,6.314-2.658       S300.484,351.503,297.926,349.626z"/>
					<path style="fill:#061535;" d="M321.909,353.911l0.985,0.998c0,0,0.597-2.055,4.532-0.998       C327.425,353.911,323.905,351.74,321.909,353.911z"/>
					<path style="fill:#FFFFFF;" d="M318.894,365.241l3.015,1.815l5.517-9.693l-3.229-2.278       C324.196,355.085,324.09,363.133,318.894,365.241z"/>
					<path style="fill:#FF889C;" d="M333.705,364.884c0,0,2.583,4.11-1.936,8.453C331.769,373.337,328.94,363.319,333.705,364.884z"/>
				</g>
				<g>
					<path style="fill:#FFFFFF;" d="M296.646,338.54c-2.712,11.479-8.827,19.86-13.661,18.719c-4.837-1.14-6.564-11.37-3.861-22.848       c2.71-11.481,8.827-19.862,13.665-18.723C297.624,316.83,299.352,327.06,296.646,338.54z"/>
					<path style="fill:#061535;" d="M287.886,349.861c0,3.804-1.728,6.889-3.852,6.889c-2.128,0-3.852-3.085-3.852-6.889       c0-3.801,1.723-6.884,3.852-6.884C286.158,342.977,287.886,346.06,287.886,349.861z"/>
				</g>
				<g>
					<path style="fill:#FFFFFF;" d="M321.694,340.486c-2.786,11.813-9.082,20.44-14.059,19.265       c-4.98-1.169-6.763-11.701-3.973-23.517c2.784-11.818,9.082-20.446,14.064-19.271       C322.703,318.141,324.482,328.667,321.694,340.486z"/>
					<path style="fill:#061535;" d="M312.01,352.212c0,3.803-1.723,6.884-3.854,6.884c-2.124,0-3.852-3.081-3.852-6.884       c0-3.804,1.728-6.885,3.852-6.885C310.286,345.327,312.01,348.409,312.01,352.212z"/>
				</g>
				<polygon style="fill:#061535;" points="282.338,309.52 301.151,309.487 283.193,315.088     "/>
				<polygon style="fill:#061535;" points="312.332,303.953 325.901,315.586 309.382,308.755     "/>
				<path style="fill:#061535;" d="M391.988,349.884c0,0-0.837-4.934-10.675-4.533c-9.825,0.399-14.267,5.258-11.034,9.107      c3.241,3.836,13.392,1.624,8.878-2.193l5.266,0.411l-7.197-1.724c0,0,2.86,3.496-1.558,4.435      c-4.416,0.935-8.921-5.77,0.338-8.591C385.278,343.974,391.988,349.884,391.988,349.884z"/>
				<path style="fill:#7F4218;" d="M312.634,295.071c4.127-14.168,15.993-27.755,29.766-33.618      c-12.729,6.719-23.204,20.491-26.104,34.463L312.634,295.071z"/>
			</g>
			<g>
				<path style="fill:#FF889C;" d="M411.174,314.494c0,0-8.762,17.529-15.178,14.555c-6.419-2.976,6.571-18.624,6.571-18.624      s-12.054-16.278-4.85-27.077c7.2-10.799,18.717-11.824,18.779,14.553C416.557,324.283,411.174,314.494,411.174,314.494z"/>
				<path style="fill:#061535;" d="M425.576,299.469c0,0,29.576-35.682,23.475-43.042c-6.103-7.352-34.273,17.372-41.162,37.251      c-6.884,19.876-3.596,34.896,2.194,36.152c5.789,1.251,13.86-22.695,16.866-20.348c3.008,2.349-9.196,18.781-4.346,17.843      c4.852-0.939,14.086-11.423,10.955-1.879c-3.133,9.55,8.449-5.475,10.172-11.267c1.726-5.789-8.451-0.939-8.451-0.939      s11.581-14.241,9.234-18.466C442.164,290.548,425.576,299.469,425.576,299.469z"/>
			</g>
		</g>
		<g>
			<g>
				<path style="fill:#FFB30B;" d="M337.011,411.835c-0.938,2.425-2.028,4.811-3.247,7.102c-4.49,8.47-10.684,15.645-17.428,18.251      c-12.889,4.996-21.919-1.273-25.09-10.402c-5.488,8.284-16.586,21.484-29.839,18.385c-19.01-4.449-28.172-37.091-14.091-62.668      c14.091-25.601,59.876-26.292,54.934,8.203c0,0,17.839-18.082,32.642-10.797C342.928,383.875,342.288,398.315,337.011,411.835z"/>
			</g>
			<polygon style="fill:#061535;" points="258.821,419.66 251.424,416.099 252.364,394.112 259.996,393.76    "/>
			<path style="fill:#061535;" d="M282.766,407.588c0,10.101-4.449,18.285-9.935,18.285c-5.485,0-9.932-8.184-9.932-18.285     c0-10.098,4.447-18.286,9.932-18.286C278.316,389.303,282.766,397.491,282.766,407.588z"/>
			<path style="fill:#061535;" d="M435.271,421.545l-6.723,9.392l-148.609-18.161c1.217-2.293-0.929-6.346,0.007-8.771     l130.441,15.192l-0.47-15.192L435.271,421.545z"/>
			<path style="fill:#061535;" d="M308.796,439.008l-1.2-1.444c0.293-0.245,29.215-24.573,24.262-43.487     c-0.976-3.731-2.797-5.983-5.564-6.881c-9.312-3.002-25.789,10.363-25.954,10.499l-1.224,1.004l-0.293-1.554     c-6.018-31.751-32.903-29.194-34.053-29.071l-0.204-1.867c0.291-0.026,28.866-2.815,35.797,29.084     c4.129-3.154,17.689-12.741,26.511-9.881c3.373,1.095,5.664,3.851,6.799,8.192C338.931,413.668,310.029,437.983,308.796,439.008z     "/>
			<path style="fill:#061535;" d="M419.475,404.47c0,1.673-0.877,3.03-1.961,3.03c-1.081,0-1.958-1.357-1.958-3.03     c0-1.674,0.877-3.031,1.958-3.031C418.598,401.439,419.475,402.796,419.475,404.47z"/>
			<path style="fill:#061535;" d="M425.106,408.176c0,1.676-0.877,3.032-1.958,3.032c-1.079,0-1.956-1.356-1.956-3.032     c0-1.674,0.877-3.032,1.956-3.032C424.229,405.145,425.106,406.502,425.106,408.176z"/>
			<path style="fill:#061535;" d="M430.974,411.835c0,1.677-0.873,3.035-1.958,3.035c-1.081,0-1.954-1.357-1.954-3.035     c0-1.672,0.873-3.029,1.954-3.029C430.101,408.806,430.974,410.164,430.974,411.835z"/>
			<path style="fill:#061535;" d="M414.542,433.122c0,1.672-0.875,3.029-1.96,3.029c-1.074,0-1.954-1.358-1.954-3.029     c0-1.676,0.879-3.032,1.954-3.032C413.667,430.09,414.542,431.446,414.542,433.122z"/>
			<path style="fill:#061535;" d="M420.328,433.969c0,1.672-0.875,3.029-1.952,3.029c-1.083,0-1.958-1.357-1.958-3.029     c0-1.676,0.875-3.033,1.958-3.033C419.452,430.937,420.328,432.293,420.328,433.969z"/>
			<path style="fill:#061535;" d="M425.106,435.001c0,1.672-0.877,3.029-1.958,3.029c-1.079,0-1.956-1.358-1.956-3.029     c0-1.677,0.877-3.035,1.956-3.035C424.229,431.966,425.106,433.323,425.106,435.001z"/>
			<polygon style="fill:#FFFFFF;" points="410.603,421.406 255.117,404.239 255.171,403.773 410.65,420.939    "/>
			<polygon style="fill:#FFFFFF;" points="410.603,420.382 255.117,403.215 255.171,402.749 410.65,419.915    "/>
			<polygon style="fill:#FFFFFF;" points="410.603,422.542 255.117,405.378 255.171,404.912 410.65,422.075    "/>
			<polygon style="fill:#FFFFFF;" points="410.603,423.812 255.117,406.645 255.171,406.179 410.65,423.344    "/>
			<polygon style="fill:#FFFFFF;" points="410.603,424.989 255.117,407.822 255.171,407.356 410.65,424.523    "/>
			<polygon style="fill:#FFFFFF;" points="410.603,426.016 255.117,408.849 255.171,408.382 410.65,425.549    "/>
		</g>
		<g>
			<polygon style="fill:#FF889C;" points="269.418,406.128 275.053,399.556 278.811,408.464    "/>
			<path style="fill:#7F4218;" d="M275.371,414.103c-1.186,0.957-2.914,0.62-4.604-0.15c-1.913,8.621-8.133,8.638-10.742,5.164     c-2.818-3.757,1.726-10.312,1.726-10.312l-6.573-4.562l3.44-3.438l6.047,4.358c-1.014-3.474,0.524-9.373,3.811-9.523     c3.285-0.15,6.103,7.362,6.103,7.362l-3.435,0.15c-3.699-3.943-4.698,4.845-1.728,5.652c2.985,0.788,1.728-2.986,1.728-2.986     h2.818C273.961,405.821,278.504,411.605,275.371,414.103z"/>
			<path style="fill:#23AFCF;" d="M261.762,401.116l-3.93,7.679c0,0-31.041,5.07-14.086-23.944L261.762,401.116z"/>
			<path style="fill:#061535;" d="M269.017,416.363c-0.792,0-1.75-0.151-2.621-0.705c-1.224-0.775-1.972-2.108-2.229-3.963     l1.864-0.256c0.174,1.283,0.634,2.169,1.37,2.633c1.166,0.739,2.733,0.276,2.746,0.271l0.562,1.79     C270.658,416.149,269.953,416.363,269.017,416.363z"/>
			<path style="fill:#061535;" d="M267.395,419.141c-1.045,0-2.297-0.192-3.422-0.885c-1.421-0.88-2.323-2.351-2.677-4.37     l1.851-0.322c0.258,1.468,0.866,2.508,1.817,3.094c1.739,1.073,4.16,0.388,4.188,0.383l0.539,1.797     C269.619,418.861,268.657,419.141,267.395,419.141z"/>
		</g>
		<g>
			<path style="fill:#7F4218;" d="M346.976,415.645l16.121,1.564c0,0,6.466,12.123-2.659,13.618     C350.452,432.459,346.976,415.645,346.976,415.645z"/>
			<path style="fill:#061535;" d="M356.987,430.546c-3.617-6.48-7.949-14.264-8.068-14.539l1.714-0.763     c0.219,0.436,4.899,8.844,7.994,14.388L356.987,430.546z"/>
			
				<rect x="356.637" y="415.183" transform="matrix(0.8784 -0.4779 0.4779 0.8784 -158.5298 222.2595)" style="fill:#061535;" width="1.876" height="15.058"/>
			
				<rect x="360.491" y="415.492" transform="matrix(0.9025 -0.4307 0.4307 0.9025 -146.3847 196.7721)" style="fill:#061535;" width="1.878" height="12.445"/>
		</g>
	</g>
</g>















</svg>
