<svg id="Orchestral_Musical_Instrument" height="512" viewBox="0 0 1200 1200" width="512" xmlns="http://www.w3.org/2000/svg"><g><path d="m1056.353 553.487c1.947 1.208 7.248 4.495 8.951 5.552-1.049-.65-3.73-2.314-8.967-5.562-64.652-40.082-31.594-116.627-104.275-156.075-50.145-27.215-137.955-149.012-97.951-192.303 43.303-46.864 86.782-124.065-10.189-137.569-113.549-15.783-223.649 95.611-335.577 110.354-111.511 14.688-196.934 45.587-276.91 128.196-34.692 35.834-56.443 74.66-101.975 92.82-48.02 19.138-53.599 52.279-51.06 100.962 5.599 107.3 45.515 125.838 128.436 188.318 3.187 42.383 5.24 92.078 20.621 132.066 18.817 48.922 85.332 56.657 98.658.024 14.403 32.887 34.18 50.892 63.563 70.956 50.646 34.587 51.443 39.363 59.967 99.857 6.438 45.681 4.536 142.913 71.953 142.913 63.396 0 53.77-85.442 55.713-127.611 1.561-33.888-9.863-70.393 22.585-86.618 29.885-14.945 60.233-28.943 90.805-42.426 2.583 40.646-3.098 92.275 40.051 112.768 33.388 15.855 117.525 61.434 128.842-7.09 56.193-4.005 46.801-65.629 8.982-88.182-9.822-5.853-4.497-76.137-5.488-89.748 31.56-12.764 63.221-25.279 95.006-37.47 4.678 41.281 2.5 121.772 36.539 153.743 35.623 33.463 80.854 3.499 86.895-38.155 7.904-54.51-12.902-139.354 20.6-180.457 45.945-56.371 5.004-117.764-45.775-149.263zm-.475-.293c-.34-.211-.301-.186 0 0z" fill="#fff"/><g><path d="m1093.365 630.555c-5.251-32.747-42.646-48.251-67.317-65.55-8.86-6.21-22.482-13.038-28.859-21.927-4.393-6.119-5.422-15.491-6.787-22.668-3.133-16.487-4.034-33.348-6.705-49.916-5.225-32.39-40.572-49.549-69.223-62.074-9.647-4.219-12.787-5.118-18.004-13.908-34.061-57.341-67.094-115.811-89.467-177.937.191-.196.387-.387.578-.583 20.135-20.706 40.484-41.664 57.973-64.696 11.364-14.969 25.963-27.573 9.443-42.36-10.098-9.042-7.791-11.801-34.674-15.545-35.602-4.954-77.793 13.636-106.991 26.748-64.388 28.914-126.166 66.905-196.358 79.735-34.283 6.268-69.225 7.846-103.495 14.374-31.693 6.038-61.505 18.831-89.452 34.647-55.783 31.571-99.468 79.101-140.445 127.457-11.538 13.613-22.896 27.377-34.396 41.02-10.009-.857-20.231 1.862-30.06 5.782-23.456 9.35-33.453 13.53-34.76 38.339-1.437 27.364.931 55.268 4.372 82.396 1.859 14.668 2.739 39.577 14.742 50.435.297.268.603.481.911.675.09.072.158.155.254.225 36.035 26.152 71.993 52.435 107.472 79.34 1.08 20.11 3.362 40.182 6.018 60.132 3.695 27.746 5.404 67.563 21.329 91.262 8.541 12.712 24.951 12.438 34.978 1.612 8.241-8.897 7.999-27.013 8.848-37.674 1.469-18.426 2.465-36.886 3.346-55.349 14.018 13.736 22.97 31.941 31.745 49.266 12.262 24.219 18.927 52.365 41.51 68.67 28.382 20.49 57.912 39.52 87.376 58.406.162.104.438.302.649.445-.004.155-.031.293-.024.455 1.61 36.21 6.928 72.359 12.442 108.148 3.935 25.548 3.323 70.896 29.257 84.959 9.127 4.947 20.429 3.52 28.475-2.488 11.792-8.811 9.141-30.767 10.02-43.09 3.45-48.359 5.001-96.852 6.024-145.317 52.092-27.696 105.994-52.173 160.343-75.434 2.201 34.359 3.865 68.854 7.85 103.05 1.18 10.094 4.044 14.927 12.586 20.893 5.004 3.494 18.41 10.357 25.902 6.871 2.094 2.609 4.462 4.943 6.891 6.785 11.045 7.791 22.141 14.922 35.65 17.344 8.025 1.438 19.215.874 25.359-5.395 15.307-15.606-6.004-32.35-18.775-39.964-1.115-.665-2.305-1.369-3.523-2.082 3.265-2.244 6.534-4.486 9.752-6.798 1.043 1.032 2.125 1.988 3.231 2.826 9.165 6.468 18.407 12.387 29.62 14.396 6.986 1.252 16.549.735 21.885-4.704 13.18-13.438-4.525-27.874-15.678-34.524-4.588-2.736-10.271-6.06-16.23-8.416.164-40.13.707-80.738-3.622-120.672 48.13-19.629 96.501-38.716 145.167-56.993 3.646 37.67 8.297 75.245 14.1 112.643 3.262 21.038 4.092 62.054 33.136 64.907 32.716 3.216 28.396-38.625 29.659-59.929 2.926-49.259 4.42-98.604 5.447-147.938 26.647-12.513 35.518-39.051 30.505-70.312zm-293.641-262.698c-12.338-1.365-23.664.596-34.865 3.879-7.264 2.132-31.189 11.999-57.742 14.144-43.246 3.492-77.909-.814-57.398-19.312 11.272-10.164 22.509-20.371 33.688-30.629 29.614-27.184 58.826-54.823 87.449-83.059 15.705 43.075 36.896 83.552 59.635 123.258-10.115-3.635-20.56-7.15-30.767-8.281z" fill="#68182b"/><path d="m928.772 471.399c-7.115.908-24.414 5.161-26.354 5.514-42.601-76.574-93.364-149.723-122.565-232.912 6.125-6.101 12.186-12.271 18.25-18.435 32.228 86.639 84.203 166.253 130.669 245.833z" fill="#ff8e5b"/><path d="m785.884 796.162c-77.575 32.168-155.563 64.922-230.035 103.947 3.443-10.182 4.958-21.549 5.626-33.638 58.928-27.121 207.454-89.304 274.356-116.528 12.234-4.98 154.174-58.477 215.621-79.533.209 19.418.379 22.449-13.412 27.396-84.91 30.481-168.832 63.81-252.156 98.356z" fill="#a2603f"/><path d="m802.468 851.269c.551 13.984 1.563 24.254-6.24 33.068-5.143 5.809-6.91 6.845-7.668-9.802-.432-8.417-.596-16.85-.77-25.272-.285-13.791-.281-27.587-.324-41.378 2.586-1.072 11.478-4.754 13.335-5.521.29 16.31 1.022 32.597 1.667 48.905z" fill="#a2603f"/><path d="m916.007 578.08c10.258 8.912 45.168 40.047 53.731 50.615 5.208 6.427-10.083 10.531-18.573 8.887-8.979-1.731-17.275-8.369-25.049-15.374-13.645-12.291-27.09-24.789-40.788-37.018 10.222-2.43 20.446-4.798 30.679-7.11z" fill="#823341"/><path d="m871.746 588.46c21.507 19.227 42.2 44.116 66.558 59.145 6.281 3.874 15.379 3.407 23.87 1.001 10.722 9.602 21.269 19.433 31.167 29.885-18.947 6.73-37.854 13.611-56.736 20.563-11.945-10.485-22.672-22.291-34.324-33.125 1.208-.834 2.395-1.685 3.447-2.608 12.645-11.102 1.635-18.445-8.045-26.586-16.539-13.905-32.463-28.526-48.855-42.603 7.636-1.921 15.275-3.815 22.918-5.672z" fill="#d5d5d5"/><path d="m835.2 597.579c20.691 17.445 40.436 35.999 61.378 53.15 6.442 5.268-8.532 9.395-14.677 11.247-11.756 3.553-18.652-2.543-27.238-10.182-17.059-15.179-33.631-30.881-50.754-45.987 10.42-2.802 20.85-5.546 31.291-8.228z" fill="#823341"/><path d="m791.212 609.252c.303.686.787 1.351 1.492 1.967 14.184 12.396 28.027 25.163 41.902 37.903 7.835 7.194 18.541 21.709 29.15 24.607 8.264 2.26 18.563 1.16 27.641-2.186 11.402 10.261 21.801 21.578 33.049 31.974-19.893 7.38-39.75 14.866-59.559 22.491-13.213-13.045-26.66-25.851-40.265-38.49 2.103-1.21 4.106-2.496 5.849-3.931 12.37-10.18 4.426-18.032-4.891-26.847-15.855-15.003-32.408-29.35-49.135-43.393 4.921-1.372 9.841-2.746 14.767-4.095z" fill="#d5d5d5"/><path d="m763.079 617.09c6.861 5.719 47.756 39.817 58.984 52.059 6.328 6.899-5.889 10.084-16.358 13.018-12.069 3.381-18.925-2.574-27.763-10.582-16.232-14.703-31.752-30.149-47.99-44.847 11.026-3.282 22.069-6.502 33.127-9.648z" fill="#823341"/><path d="m717.105 630.618c13.895 12.294 27.28 25.106 40.714 37.903 7.785 7.416 18.512 22.177 29.26 25.172 7.771 2.168 17.246 1.412 25.988-1.239 13.537 12.527 26.885 25.253 40.053 38.169-20.824 8.072-41.6 16.278-62.324 24.618-37.772-38.079-75.689-76.376-116.352-111.39 14.182-4.529 28.41-8.922 42.661-13.233z" fill="#d5d5d5"/><path d="m661.683 647.98c41.203 35.033 79.484 73.571 117.564 111.965-19.334 7.832-38.621 15.768-57.855 23.829-16.225-16.21-32.894-31.972-49.678-47.597 2.527-1.415 4.925-2.931 7.133-4.498 11.408-8.095 7.842-16.384-.658-24.604-16.953-16.391-34.985-31.806-53.09-46.948 12.166-4.126 24.357-8.18 36.584-12.147z" fill="#d5d5d5"/><path d="m612.403 664.438c8.738 7.241 46.199 38.203 58.205 50.827 6.232 6.555-4.313 11.441-14.809 15.203-13.408 4.804-20.739.675-31.29-8.716-16.451-14.639-32.459-29.757-48.936-44.366 12.24-4.401 24.521-8.709 36.83-12.948z" fill="#823341"/><path d="m563.317 681.863c13.915 12.186 27.51 24.71 41.135 37.217 7.737 7.104 18.531 21.768 29.041 24.529 8.588 2.255 18.075.91 26.917-2.258 16.71 15.529 33.28 31.218 49.479 47.28-21.959 9.265-43.844 18.673-65.661 28.228-17.481-17.441-35.659-34.187-53.933-50.797 2.053-1.201 4.023-2.459 5.852-3.756 11.407-8.098 7.841-16.386-.661-24.605-17.259-16.689-35.635-32.367-54.071-47.774 7.283-2.724 14.591-5.398 21.902-8.064z" fill="#d5d5d5"/><path d="m529.121 694.579c7.688 6.375 47.809 39.474 59.378 51.942 5.606 6.037-4.83 10.784-15.399 14.57-13.424 4.809-20.746.614-31.42-8.621-16.706-14.454-33.411-28.908-50.116-43.363 12.469-4.93 24.994-9.765 37.557-14.528z" fill="#823341"/><path d="m479.541 713.887c13.924 12.046 27.845 24.096 41.769 36.143 8.021 6.941 18.94 21.434 29.484 24.204 9.046 2.377 19.089.747 28.329-2.793 18.174 16.505 36.271 33.134 53.739 50.393-23.728 10.461-47.384 21.057-70.925 31.854.025-1.367.059-2.723.077-4.1.537-40.728-23.022-58.325-50.971-83.506-16.478-14.846-32.882-29.768-48.841-45.171 5.769-2.356 11.546-4.704 17.339-7.024z" fill="#d5d5d5"/><path d="m1005.253 674.339c-9.818-10.744-20.406-20.755-31.206-30.512 2.175-1.163 4.144-2.393 5.771-3.63 11.756-8.936 1.197-18.362-6.182-25.504-14.117-13.665-28.7-26.948-43.629-39.759 7.639-1.687 15.279-3.339 22.92-4.961.922 1.325 2.076 2.589 3.594 3.895 18.52 15.938 38.066 30.676 56.61 46.604 9.993 8.58 19.759 17.451 28.808 27.028 2.596 2.748 7.326 7.024 8.586 11.065-15.112 5.171-30.196 10.46-45.272 15.774z" fill="#d5d5d5"/><path d="m455.1 711.444c-5.938-13.029-6.006-33.579-7.205-44.746-2.145-19.969-1.075-44.079-6.604-64.856 53.479-17.777 155.92-44.444 189.331-52.889 77.398-19.563 155.373-36.99 233.308-52.884 15.759-3.216 31.552-6.258 47.372-9.152 32.502-5.945 27.65-2.228 32.307 19.528 3.699 17.265 3.967 35.002 6 52.481-168.063 35.655-335.567 87.316-494.509 152.518z" fill="#a2603f"/><path d="m532.215 562.951c-2.856-14.922-5.136-29.898-6.139-45.092-.852-12.932.873-25.592 14.461-30.732 10.83-4.099 22.143-7.211 33.217-10.573 42.714-12.961 86.4-22.494 130.088-31.497 19.604-4.041 39.239-7.917 58.859-11.877 13.46-2.719 32.238-9.184 45.674-3.256 13.039 5.75 11.846 44.865 12.689 62.756-96.929 19.773-193.606 43.317-288.849 70.271z" fill="#fac135"/><path d="m832.151 490.409c-1.34-20.058 1.465-58.152-15.898-69.121-9.188-5.806-20.463-5.296-30.857-3.854-13.518 1.871-26.982 4.417-40.411 7.178-.647-10.771-1.048-21.628.542-32.322.067-.457 32.084 8.828 34.838 9.653 27.614 8.267 54.967 17.342 81.701 28.124 9.627 16.303 19.182 32.628 28.405 49.095-19.443 3.595-38.88 7.342-58.32 11.247z" fill="#a2603f"/><path d="m762.204 384.561c10.012-3.339 20.129-5.894 31.066-5.907 14.73-.018 32.004 7.87 46.082 12.824 4.387 7.526 8.803 15.037 13.234 22.538-29.634-11.266-59.954-20.542-90.382-29.455z" fill="#aa8053"/><path d="m623.282 390.304c37 9.141 73.088 10.939 109.998 3.166-1.691 11.445-.387 26.671.245 33.541-10.933 2.327-21.846 4.72-32.743 6.944-20.557 4.194-41.273 8.471-61.922 13.188-25.416 5.813-53.786 14.591-82.701 1.97 22.548-19.406 44.92-39.017 67.123-58.809z" fill="#a2603f"/><path d="m546.629 457.307c7.423 4.053 15.525 6.377 23.883 7.725-12.827 3.919-25.534 8.153-38.027 12.88-30.51 11.547-17.591 61.297-11.506 88.258-27.94 7.994-55.776 16.204-83.423 24.767-1.266-2.97-2.707-5.842-4.405-8.565-4.238-6.793-9.491-13.004-15.237-18.851 43.561-34.579 86.449-70.029 128.715-106.214z" fill="#ff8e5b"/><path d="m870.329 125.047c-22.34 41.627-167.811 177.945-211.559 217.844-37.915 34.573-138.257 121.63-148.977 130.661-33.026 27.823-66.439 55.182-100.25 82.013-5.338-4.735-10.926-9.224-16.59-13.51 80.841-65.301 157.469-136.276 234.295-206.162 79.742-72.537 160.719-144.834 235.395-222.685 5.51 3.182 10.049 7.434 7.686 11.839z" fill="#aa8053"/><path d="m299.976 293.51c55.025-45.607 116.375-67.312 186.695-75.537 29.233-3.42 58.245-6.753 86.725-14.488 29.143-7.915 56.808-21.375 83.824-34.596 27.172-13.296 54.381-26.291 81.923-38.81 28.972-13.17 58.222-24.865 89.503-24.382 19.926.303 21.023 4.477 7.127 18.614-69.4 70.583-143.564 136.881-216.664 203.441-77.217 70.307-154.303 141.662-235.638 207.259-2.667-1.943-5.313-3.854-7.911-5.741-30.739-22.332-63.624-41.776-96.702-60.397-25.095-14.124-50.602-27.606-76.574-40.053-6.852-3.283-13.514-6.152-20.591-8.518 37.209-44.338 73.536-89.705 118.283-126.792z" fill="#a2603f"/><path d="m185.876 433.867c7.342 3.204 14.533 6.764 21.715 10.306 23.663 11.661 46.898 24.197 69.882 37.134 28.043 15.788 58.294 32.356 85.935 51.803 18.441 12.966 40.559 31.571 55.229 48.866 16.629 19.604 14.461 49.658 16.676 73.812 1.855 20.234 1.045 53.042 15.129 69.498 23.827 27.845 54.962 50.576 81.732 75.579 16.393 15.312 18.518 34.159 18.232 55.819-.351 26.574-3.33 51.797-25.234 65.57.434-4.031.573-8.068.917-11.418 2.053-20.01 2.487-40.56-.047-60.532-3.83-30.192-35.81-47.468-57.566-65.128-14.148-11.486-28.443-22.819-42.138-34.85-10.755-9.449-9.064-20.695-9.932-34.508-1.889-30.061-4.014-60.382-12.143-89.511-6.451-23.116-19.635-37.813-38.036-52.259-52.353-41.097-112.932-73.381-172.016-103.549-21.214-10.832-42.77-21.14-64.815-30.207 18.116-8.496 36.211-15.273 56.48-6.425z" fill="#aa8053"/><path d="m260.883 797.018c-9.813-36.777-14.882-86.871-16.627-113.169 5.384 4.119 10.796 8.203 16.152 12.358 11.902 9.235 23.764 18.581 35.201 28.407-.924 20.454-2.399 50.429-3.994 74.132-.196 2.903-.394 5.714-.591 8.401-.859 11.594-18.34 34.097-30.141-10.129z" fill="#aa8053"/><path d="m402.045 853.958c-7.825-5.356-20.276-11.226-26.051-18.99-12.1-16.265-18.718-38.877-27.672-56.968-5.525-11.16-11.468-20.973-17.92-29.909-13.256-18.365-35.38-39.363-61.854-60.023-44.888-35.034-90.958-68.575-137.04-102.02-7.85-7.286-8.671-25.41-10.248-35.178-3.29-20.404-4.643-41.193-5.39-61.829-.288-7.992-.652-16.285-.369-24.497.704-20.396 7.846-14.605 20.463-9.123 10.906 4.74 21.65 9.854 32.354 15.028 44.207 21.376 87.257 45.34 129.136 70.957 29.012 17.747 69.067 37.825 87.478 67.734 21.722 35.295 17.877 85.81 21.302 125.648 2.203 25.626 31.737 40.393 50.028 55.226 14.83 12.025 29.741 23.979 44.04 36.638 14.578 12.904 15.343 27.391 15.822 46.365.245 9.695.085 19.588-.643 29.414-1.482 20.024-5.111 21.693-18.866 13.303-32.127-19.6-63.518-40.522-94.57-61.776z" fill="#a2603f"/><path d="m539.555 1007.492c-.922 20.213-2.168 40.408-3.607 60.592-.915 12.831-.031 30.742-17.895 27.686-11.4-1.951-14.171-13.262-16.31-22.572-11.45-49.791-19.084-102.098-21.875-153.281 6.258 4.425 13.845 9.521 20.823 13.273 13.746 7.396 20.265 6.139 33.665-3.394 2.977-2.113 5.63-4.403 7.998-6.854-.658 28.194-1.513 56.378-2.799 84.55z" fill="#aa8053"/><path d="m745.032 954.988c-14.012-6.33-12.02-20.014-13.166-33.173-2.553-29.307-4.25-58.69-6.195-88.042 7.629-3.24 15.262-6.46 22.9-9.664 2.633 41.114 3.834 82.434 4.994 123.602.216 7.529.974 11.572-8.533 7.277z" fill="#ff8e5b"/><path d="m818.626 981.126c-14.072 8.118-34.361-7.306-45.133-14.906-3.112-2.36-6.798-6.91-7.828-11.131-.072-.962-.152-1.907-.24-2.819.232-2.429 1.738-4.52 5.355-5.662 10.029-3.166 22.775 5.518 31.094 10.193 6.094 3.422 29.504 16.968 16.752 24.325z" fill="#d5d5d5"/><path d="m861.356 944.439c-11.164 6.438-27.68-6.297-36.169-12.282-4.017-3.045-10.347-11.825-2.476-14.311 7.936-2.505 18.272 4.605 24.841 8.296 4.301 2.418 23.01 12.989 13.804 18.297z" fill="#d5d5d5"/><path d="m827.474 905.965c-4.904-.38-9.66.542-13.82 3.697-7.344 5.569-7.368 13.322-4.168 20.258-4.705 3.361-9.445 6.67-14.225 9.919-.077.052-.129.112-.201.166-9.959-4.68-21.035-7.722-30.336-3.418-.408-12.821-.895-25.644-1.406-38.464-1.039-26.23-1.773-52.53-3.51-78.729 5.391-2.251 10.777-4.495 16.168-6.735.088 22.648.221 45.289 1.379 67.914.465 9.074-1.199 27.614 13.121 22.056 7.62-2.955 23.16-13.004 23.552-22.455 1.138-27.483-1.392-55.027-1.786-82.524 4.015-1.652 8.023-3.314 12.043-4.96 3.72 37.522 3.361 75.594 3.189 113.275z" fill="#aa8053"/><path d="m1046.397 839.969c-.764 14.383 3.244 67.928-23.256 55.164-17.816-8.581-18.023-57.857-20.463-74.595-4.526-31.059-8.117-62.268-11.072-93.515 19.826-7.388 39.7-14.644 59.628-21.736-.599 27.566-1.367 55.129-2.415 82.686-.661 17.338-1.5 34.668-2.422 51.996z" fill="#aa8053"/><path d="m1061.466 688.654c1.662-9.75.775-20.889.873-28.932.08-6.791-5.883-12.995-9.939-17.785-19.26-22.74-44.566-41.218-67.631-59.861-4.305-3.479-8.685-6.892-12.992-10.389-11.118-9.028-12.123-8.246-13.523-20.913-1.332-12.08-.559-28.666-1.399-34.312-1.561-10.47-2.589-37.263-13.762-43.377-10.319-17.816-20.976-35.63-31.675-53.514 27.355 12.048 56.877 27.321 61.867 58.258 3.758 23.307 2.651 49.705 13.963 71.058 4.221 7.972 14.748 13.034 21.666 18.023 14.461 10.432 29.193 20.485 43.837 30.658 16.19 11.248 28.259 18.9 29.721 40.661 1.494 22.267-3.606 40.427-21.006 50.425z" fill="#aa8053"/><path d="m638.86 447.143c20.648-4.718 41.365-8.995 61.922-13.188 10.897-2.224 21.811-4.617 32.743-6.944-.302-3.274-.747-8.464-.958-14.218-11.176 1.12-22.102 2.856-32.136 4.563-25.86 4.398-52.069 11.529-78.485 9.334-5.143-.428-21.929-1.307-34.398-4.839-10.427 9.127-20.886 18.223-31.389 27.263 28.916 12.62 57.285 3.842 82.701-1.971z" fill="#81391c"/><path d="m788.56 874.535c.758 16.646 2.525 15.61 7.668 9.802 3.58-4.045 5.254-8.421 6.021-13.296-6.941-7.823-11.5-17.376-14.531-27.746.029 1.99.031 3.979.072 5.968.174 8.423.338 16.855.77 25.272z" fill="#81391c"/><path d="m455.1 711.444c158.942-65.202 326.446-116.863 494.509-152.518-1.098-9.429-1.691-18.931-2.577-28.398-.483.661-.97 1.32-1.511 1.952-5.186 6.052-15.02 9.33-22.089 12.19-20.892 8.446-42.897 14.355-64.651 20.094-55.234 14.569-111.127 25.963-166.074 41.787-30.59 8.811-61.146 17.879-90.971 29.039-28.83 10.787-57.469 22.352-87.781 28.331-13.107 2.586-28.421 5.019-41.416.673-10.672-3.571-15.932-14.307-19.809-23.974-2.559-6.377-4.902-12.8-7.949-18.711 1.644 15.269 1.635 31.009 3.114 44.789 1.199 11.167 1.266 31.717 7.205 44.746z" fill="#81391c"/><path d="m785.396 417.434c1.963-.272 3.959-.488 5.965-.656-14.436-4.776-30.68-5.746-46.877-4.902.072 4.25.247 8.5.501 12.736 13.428-2.762 26.893-5.307 40.411-7.178z" fill="#81391c"/><path d="m668.456 835.278c-36.649 15.055-73.346 30.536-108.722 48.483-.897 5.714-2.141 11.185-3.886 16.348 74.472-39.025 152.46-71.779 230.035-103.947 48.26-20.008 96.73-39.585 145.471-58.463-88.638 29.662-176.451 62.064-262.898 97.579z" fill="#81391c"/><path d="m323.468 469.758c-31.151-7.868-60.341-27.018-81.215-51.231-11.727-13.602-19.217-30.06-18.727-47.874-14.144 16.37-27.926 33.083-41.832 49.65 7.077 2.366 13.739 5.235 20.591 8.518 25.972 12.447 51.479 25.929 76.574 40.053 33.078 18.621 65.962 38.065 96.702 60.397 2.597 1.886 5.244 3.798 7.911 5.741 81.334-65.598 158.421-136.953 235.638-207.259 73.1-66.56 147.264-132.858 216.664-203.441 13.896-14.138 12.799-18.311-7.127-18.614-27.199-.421-52.861 8.369-78.143 19.327 1.906-.493 3.809-1.015 5.719-1.496 15.41-3.881 31.971-8.332 47.994-7.596 22.584 1.035-8.137 30.719-14.066 36.698-40.859 41.198-86.072 77.82-127.637 118.28-48.626 47.333-99.036 92.951-152.026 135.376-52.91 42.36-116.705 81.231-187.02 63.471z" fill="#81391c"/><path d="m330.402 748.091c6.452 8.937 12.395 18.749 17.92 29.909 8.954 18.091 15.572 40.703 27.672 56.968 5.774 7.765 18.226 13.634 26.051 18.99 31.052 21.254 62.443 42.176 94.57 61.774 13.755 8.391 17.384 6.722 18.866-13.303.355-4.796.567-9.608.67-14.407-7.041 5.501-15.797 7.729-27.186 3.585-18.837-6.854-36.287-19.76-52.295-31.493-20.762-15.219-40.98-32.5-56.509-53.172-16.334-21.742-15.363-48.479-25.642-72.593-12.103-28.396-38.641-47.254-62.106-65.773-24.549-19.377-49.794-37.191-75.866-54.477-27.712-18.374-55.18-37.24-78.968-60.624-7.978-7.841-14.437-17.483-19.431-27.998.789 8.502 1.756 16.984 3.112 25.392 1.577 9.769 2.397 27.893 10.248 35.178 46.082 33.445 92.152 66.986 137.04 102.02 26.474 20.661 48.598 41.659 61.854 60.024z" fill="#81391c"/><path d="m175.031 490.686c29.961 12.696 57.898 29.95 85.011 47.797 22.228 14.63 44.962 28.619 66.911 43.653 24.193 16.57 46.646 36.359 54.689 65.551 7.56 27.438 2.296 56.842 7.477 84.719 4.333 23.318 20.483 40.613 38.191 55.214 19.058 15.711 40.825 27.734 59.992 43.3 13.634 11.07 22.527 24.261 28.745 39.358-.513-17.639-1.878-31.353-15.746-43.628-14.299-12.658-29.21-24.612-44.04-36.638-18.291-14.833-47.825-29.6-50.028-55.226-3.425-39.839.42-90.354-21.302-125.648-18.41-29.909-58.465-49.987-87.478-67.734-41.879-25.617-84.93-49.581-129.136-70.957-10.704-5.174-21.448-10.288-32.354-15.028-12.617-5.482-19.759-11.273-20.463 9.123-.177 5.129-.083 10.263.07 15.361 18.751-5.817 42.308 3.515 59.461 10.783z" fill="#f5995a"/><path d="m757.021 529.983c37.306-7.2 74.692-14.818 112.2-20.847 22.027-3.54 44.291-6.236 66.623-6.452 2.287-.022 4.635-.022 7.016.016-3.457-18.418-1.021-21.369-31.559-15.784-15.82 2.895-31.613 5.937-47.372 9.152-77.935 15.894-155.909 33.321-233.308 52.884-27.228 6.881-100.284 25.862-155.341 42.273 41.455-5.098 82.643-15.394 123.022-24.852 52.842-12.373 105.418-26.102 158.719-36.39z" fill="#f5995a"/><path d="m1051.452 670.41c-40.685 13.942-116.627 42.093-166.873 60.979 28.535-9.334 57.156-18.4 85.936-26.919 26.891-7.96 53.908-15.506 80.9-23.137.123-2.942.084-6.488.037-10.923z" fill="#f5995a"/><path d="m640.122 203.318c-58.065 33.935-134.234 37.071-182.78 42.765-27.85 3.266-53.327 11.005-77.847 24.58-26.484 14.662-50.691 34.221-73.162 54.414-16.525 14.85-33.449 34.398-29.204 58.074 3.863 21.554 24.495 38.009 42.871 47.225 53.064 26.61 117.387-13.755 160.109-43.152 30.53-21.009 58.407-45.697 85.746-70.63 27.791-25.345 57.099-49.695 83.802-76.142 2.814-2.788 11.176-10.933 18.126-19.88 13.945-17.951 22.79-46.714-27.661-17.254z" fill="#f5995a"/><path d="m821.065 492.679c-.334-7.126-.361-17.619-1.079-28.03-.94 2.278-1.942 4.524-3.085 6.685-7.432 14.045-23.04 13.978-36.653 16.908-32.657 7.027-65.056 15.212-97.513 23.085-31.711 7.695-63.427 14.992-95.005 23.195-16.001 4.158-36.352 9.192-51.976 1.559-.854-.416-1.666-.879-2.446-1.376-.47-.301-.904-.643-1.347-.969-.301-.229-.627-.432-.92-.668-.796-.645-1.547-1.335-2.257-2.064-.648-.641-1.192-1.383-1.754-2.103 1.196 11.428 3.024 22.756 5.185 34.051 95.243-26.955 191.92-50.499 288.85-70.273z" fill="#ee9e2b"/><g fill="#865725"><path d="m852.587 414.016c-2.21-3.742-4.4-7.495-6.602-11.241-22.032-7.202-44.965-11.812-67.879-13.485 25.077 7.505 50.016 15.425 74.481 24.726z"/><path d="m260.408 696.207c-5.356-4.155-10.769-8.239-16.152-12.358 1.745 26.298 6.813 76.392 16.627 113.169 5.489 20.568 12.204 26.693 17.906 26.205-8.862-16.979-13.629-35.065-15.356-55.901-1.768-21.326-6.022-47.496-1.275-69.738-.585-.455-1.163-.923-1.75-1.377z"/><path d="m1048.452 626.101c-17.945-22.599-43.35-35.338-63.855-55.024-22.654-21.754-19.288-49.651-20.791-78.303-.822-15.673-2.752-29.968-15.601-40.222-7.622-6.082-16.788-10.683-26.085-15.039 7.074 11.869 14.109 23.726 20.972 35.574 11.173 6.114 12.201 32.907 13.762 43.377.841 5.646.067 22.232 1.399 34.312 1.4 12.667 2.405 11.884 13.523 20.913 4.308 3.497 8.688 6.91 12.992 10.389 23.064 18.644 48.371 37.121 67.631 59.861 2.163 2.555 4.844 5.519 6.885 8.75-1.865-9.349-5.789-18.241-10.832-24.588z"/><path d="m142.151 445.74c17.623 7.675 34.96 16.029 52.061 24.76 59.084 30.168 119.663 62.452 172.016 103.549 18.401 14.445 31.585 29.143 38.036 52.259 8.129 29.129 10.254 59.45 12.143 89.511.868 13.813-.823 25.059 9.932 34.508 13.694 12.03 27.989 23.363 42.138 34.85 21.756 17.66 53.736 34.936 57.566 65.128 2.296 18.091 2.141 36.651.569 54.858 7.374-21.214 7.51-48.828 2.759-69.488-5.147-22.379-30.036-39.26-46.986-52.271-12.28-9.426-24.378-19.106-35.916-29.439-15.334-13.732-21.887-27.42-24.097-47.691-3.272-29.981-5.262-59.983-11.304-89.594-6.074-29.766-29.709-44.371-53.021-60.732-25.657-18.005-52.616-33.069-79.704-48.704-40.647-23.46-81.982-50.968-128.68-60.417-2.484-.505-4.994-.835-7.512-1.087z"/><path d="m826.409 821.705c-.49-9.698-1.17-19.377-2.125-29.017-4.02 1.646-8.028 3.308-12.043 4.96.117 8.089.422 16.182.758 24.277 4.431-1.407 8.948-1.273 13.41-.22z"/><path d="m839.817 154.776c-7.551 7.618-15.172 15.167-22.807 22.702-28.236 27.868-56.801 55.41-85.536 82.763-85.856 81.723-173.541 161.595-263.935 238.286-20.913 17.739-42.032 35.245-63.356 52.495 1.796 1.502 3.609 2.988 5.36 4.542 33.811-26.831 67.224-54.19 100.25-82.013 10.72-9.031 111.062-96.087 148.977-130.661 43.748-39.898 189.219-176.217 211.559-217.844 1.156-2.154.646-4.268-.807-6.242-4.992 11.605-18.096 23.921-24.207 30.361-1.8 1.901-3.654 3.754-5.498 5.611z"/><path d="m500.691 933.189c-6.978-3.753-14.564-8.849-20.823-13.273 2.791 51.184 10.425 103.49 21.875 153.281 1.81 7.887 4.135 17.148 11.716 21.001-7.866-25.813-9.44-53.303-10.414-80.84-.866-24.481-7.387-54.462-1.522-79.763-.288-.15-.537-.246-.832-.406z"/><path d="m991.606 727.023c2.955 31.247 6.546 62.456 11.072 93.515 2.439 16.737 2.646 66.014 20.463 74.595 3.012 1.45 5.611 2.008 7.887 1.9-13.814-29.354-16.563-61.558-17.072-94.723-.404-26.41-3.337-57.935 4.076-84.921-8.804 3.22-17.638 6.36-26.426 9.634z"/><path d="m775.976 812.658c-5.391 2.24-10.777 4.484-16.168 6.735.578 8.716 1.023 17.445 1.426 26.177 4.488-4.008 9.582-6.957 14.922-8.127-.091-8.259-.149-16.52-.18-24.785z"/></g><path d="m725.671 833.773c1.376 20.765 2.64 41.542 4.16 62.299 4.709-18.182 11.977-35.231 19.854-52.088-.355-6.627-.688-13.258-1.113-19.875-7.639 3.204-15.272 6.424-22.901 9.664z" fill="#ff564d"/><path d="m928.772 471.399c-2.029-3.472-4.077-6.946-6.123-10.418-8.952-4.435-17.299-10.144-24.904-17.569-20.154-19.676-34.377-45.846-49.043-69.634-26.18-42.464-47.91-87.46-64.074-134.601-1.596 1.604-3.172 3.227-4.775 4.823 29.201 83.189 79.965 156.338 122.565 232.912 1.94-.352 19.239-4.604 26.354-5.513z" fill="#ff564d"/><path d="m532.485 477.911c12.494-4.727 25.201-8.961 38.027-12.88-8.358-1.347-16.46-3.672-23.883-7.725-42.266 36.186-85.155 71.636-128.716 106.214 3.818 3.886 7.382 7.951 10.612 12.221 22.333-19.359 44.935-38.229 69.308-55.148 5.057-3.51 10.166-6.966 15.327-10.337.873-14.722 5.869-27.251 19.325-32.345z" fill="#ff564d"/><path d="m596.147 762.307c-1.828 1.297-3.798 2.555-5.852 3.756 18.273 16.61 36.451 33.355 53.933 50.797 6.643-2.91 13.337-5.712 19.991-8.595-14.826-22.68-37.911-41.511-60.881-56.457-.177 3.521-2.3 7.027-7.191 10.499z" fill="#bebebe"/><path d="m562.013 849.588c-.018 1.377-.052 2.732-.077 4.1 10.216-4.686 20.463-9.318 30.719-13.933-12.307-18.196-32.403-33.015-52.673-46.479 13.454 14.766 22.363 31.107 22.031 56.312z" fill="#bebebe"/><path d="m907.919 661.171c-.637.701-1.357 1.417-2.191 2.149-1.053.924-2.239 1.774-3.447 2.608 11.652 10.834 22.379 22.64 34.324 33.125 3.08-1.136 6.174-2.226 9.258-3.354-11.889-12.203-25.143-23.357-37.944-34.528z" fill="#bebebe"/><path d="m683.846 726.962c-1.158 1.579-2.793 3.153-4.999 4.718-2.208 1.567-4.605 3.083-7.133 4.498 16.784 15.625 33.453 31.387 49.678 47.597 6.008-2.519 12.055-4.949 18.074-7.445-15.699-18.719-35.897-34.365-55.62-49.368z" fill="#bebebe"/><path d="m790.979 968.729c-7.806-4.043-19.667-10.515-24.396-19.377-.656.882-1.057 1.855-1.158 2.917.088.912.168 1.857.24 2.819 1.03 4.221 4.716 8.771 7.828 11.131 10.771 7.601 31.061 23.024 45.133 14.906 2.082-1.2 3.123-2.577 3.51-4.036-10.801.185-20.744-2.97-31.157-8.36z" fill="#bebebe"/><path d="m748.177 698.651c-12.207-12.149-25.063-23.539-38.197-34.667-6.496-5.506-13.08-10.906-19.68-16.287-2.523-2.056-4.869-4.3-7.221-6.523-2.874.906-5.766 1.76-8.635 2.678 40.662 35.014 78.579 73.311 116.352 111.39 2.957-1.189 5.933-2.327 8.893-3.513-16.075-18.655-34.352-36.001-51.512-53.078z" fill="#bebebe"/><path d="m982.356 637.836c-.705.79-1.51 1.579-2.539 2.361-1.627 1.237-3.596 2.467-5.771 3.63 10.8 9.757 21.388 19.768 31.206 30.512 5.363-1.892 10.74-3.732 16.107-5.612-14.534-8.436-27.502-18.5-39.003-30.891z" fill="#bebebe"/><path d="m861.356 944.439c.615-.355 1.087-.735 1.465-1.131-9.174.209-17.699-2.168-26.527-7.019-5.799-3.187-13.506-9.011-16.939-15.857-1.689 3.654 2.744 9.382 5.833 11.725 8.489 5.986 25.004 18.72 36.168 12.282z" fill="#bebebe"/><path d="m829.966 683.959c-1.625 1.281-3.432 2.46-5.343 3.56 13.604 12.64 27.052 25.445 40.265 38.49 2.695-1.039 5.41-2.028 8.109-3.063-4.479-3.976-8.938-7.778-12.795-11.403-9.193-8.639-21.03-17.546-30.236-27.584z" fill="#bebebe"/><path d="m926.116 622.208c7.773 7.005 16.069 13.643 25.049 15.374 2.996.58 6.833.432 10.325-.27-14.668-6.991-27.007-19.498-38.864-30.416-3.885-3.577-16.027-14.897-22.336-25.173-4.986 1.156-9.977 2.283-14.962 3.467 13.698 12.229 27.144 24.727 40.788 37.018z" fill="#7a2537"/><path d="m767.534 647.877c-6.256-5.933-17.949-15.251-23.865-25.136-4.572 1.338-9.152 2.638-13.717 3.996 16.238 14.697 31.758 30.144 47.99 44.847 8.838 8.008 15.693 13.963 27.763 10.582 1.536-.429 3.105-.867 4.653-1.319-16.712-6.324-30.056-20.866-42.824-32.97z" fill="#7a2537"/><path d="m539.982 738.514c-11.208-8.291-28.578-19.881-36.372-34.065-4.01 1.563-8.046 3.079-12.046 4.659 16.706 14.455 33.411 28.909 50.116 43.363 10.674 9.235 17.996 13.43 31.42 8.621h.002c-11.339-6.82-22.198-14.499-33.12-22.578z" fill="#7a2537"/><path d="m655.8 730.468c.857-.308 1.709-.625 2.557-.946-13.189-7.309-25.733-15.277-37.515-25.555-9.307-8.119-24.002-19.07-30.703-31.701-4.853 1.714-9.726 3.38-14.564 5.12 16.476 14.609 32.484 29.728 48.936 44.366 10.55 9.391 17.881 13.519 31.289 8.716z" fill="#7a2537"/><path d="m881.901 661.976c.785-.235 1.718-.513 2.727-.82-14.764-7.136-27.32-17.288-40.025-29.146-7.99-7.454-22.896-18.01-27.252-29.738-4.479 1.183-8.965 2.332-13.441 3.535 17.123 15.106 33.695 30.809 50.754 45.987 8.585 7.639 15.482 13.734 27.237 10.182z" fill="#7a2537"/></g></g></svg>