<svg id="Layer_1" enable-background="new 0 0 512 512" height="512" viewBox="0 0 512 512" width="512" xmlns="http://www.w3.org/2000/svg"><g><g><path d="m183.513 435.606c-34.825-.001-77.851-12.813-100.084-29.803-19.86-15.177-45.652-55.898-40.862-85.163 2.356-14.395 11.819-24.801 27.366-30.091 7.079-2.409 13.559-3.631 19.26-3.631 26.551 0 34.282 24.739 42.467 50.931 3.307 10.584 6.728 21.528 11.505 31.162 11.493 23.175 34.74 28.038 52.218 28.038 7.781 0 13.227-1.038 13.281-1.049l4.365-.846-7.479 38.415-2.01.37c-6.001 1.106-12.739 1.667-20.023 1.667-.002 0-.002 0-.004 0z" fill="#4e2800"/><path d="m209.234 398.948-6.24 32.04c-2.63.48-5.37.86-8.21 1.11-10.64 1-22.63.48-34.86-1.24-6.86-.97-13.8-2.31-20.61-3.99-12.24-3.01-24.09-7.07-34.42-11.89-7.49-3.49-14.18-7.39-19.64-11.56-6.45-4.92-13.72-12.83-20.29-22.25-6.14-8.79-11.66-18.9-15.34-29.13-3.16-8.76-4.95-17.6-4.61-25.78.6-14.4 7.81-26.72 25.89-32.87 22.11-7.53 34.58-2.12 42.96 9.53 3.77 5.24 6.72 11.74 9.34 18.89 3.74 10.16 6.82 21.65 10.72 32.69 1.93 5.46 4.05 10.81 6.55 15.85.51 1.02 1.04 2.02 1.59 2.97 14.99 26.07 45.14 27.48 59.38 26.53 4.8-.32 7.79-.9 7.79-.9z" fill="#ff9823"/><g fill="#97381a"><path d="m85.154 317.678c-12.28 4.41-25.71 7.28-40.14 8.58.6-14.4 7.81-26.72 25.89-32.87 22.11-7.53 34.58-2.12 42.96 9.53-7.58 5.19-16.9 10.51-28.71 14.76z"/><path d="m128.604 358.638c-18.61 12.59-39.99 20.16-63.64 22.53-6.14-8.79-11.66-18.9-15.34-29.13 18.18-.1 40.9-3.86 62.16-18.25 3.66-2.48 7.66-6.97 11.42-11.98 3.74 10.16 6.82 21.65 10.72 32.69-1.74 1.53-3.51 2.91-5.32 4.14z"/><path d="m198.984 420.568c-1.12 4.17-2.56 8.01-4.2 11.53-10.64 1-22.63.48-34.86-1.24 3.83-4.15 7.94-10.13 10.09-18.09 1.54-5.71 1.67-11 1.24-15.38l-6.04-3.2c-5.66 10.43-12.76 19.9-21.22 28.29-1.55 1.53-3.11 2.99-4.68 4.39-12.24-3.01-24.09-7.07-34.42-11.89 6.06-3.54 12.18-8.06 17.99-13.82 8.08-8 14.52-17.35 19.18-27.84 14.99 26.07 45.14 27.48 59.38 26.53.17 6.99-.65 13.98-2.46 20.72z"/></g></g><g><path d="m272.785 444.896c-28.39-.61-50.15-5.55-66.72-13.35-.01-.01-.01-.01-.01-.01-81-38.14-37.91-144.4-37.91-144.4-7.41-9.71 3.76-15.78 3.76-15.78-8.86-21.12 14.81-24.04 14.81-24.04s10.81.73 27 1.97c45.78 3.5 134.6 11.06 143.93 17.7 12.62 8.98-1.95 20.63-1.95 20.63s84.25 160.85-82.91 157.28z" fill="#97381a"/><path d="m206.055 431.536c-81-38.14-37.91-144.4-37.91-144.4-7.41-9.71 3.76-15.78 3.76-15.78-8.86-21.12 14.81-24.04 14.81-24.04s10.81.73 27 1.97l-9.94 28.28s-19.3 3.2-11.89 14.82c-9.93 8.01-42.45 84.03 14.17 139.15z" fill="#ff9823"/><path d="m278.175 446.818c-1.787 0-3.594-.02-5.427-.058-50.087-1.071-84.77-15.725-103.089-43.556-28.939-43.967-6.825-107.224-3.611-115.798-2.007-2.967-2.707-5.951-2.08-8.88.833-3.9 3.843-6.594 5.654-7.903-2.213-6.032-2.078-11.252.404-15.534 4.689-8.083 15.988-9.56 16.466-9.618.115-.015.233-.016.353-.011 16.256 1.098 159.189 10.978 171.877 20.006 3.827 2.723 5.822 5.987 5.925 9.7.164 5.765-4.422 10.805-6.634 12.892 5.287 10.563 37.26 78.398 10.009 122.365-14.975 24.163-45.189 36.395-89.847 36.395zm-91.387-197.628c-1.294.198-10.067 1.756-13.548 7.781-2.056 3.556-1.925 8.152.385 13.663.369.876.011 1.894-.822 2.353-.044.025-4.38 2.454-5.2 6.336-.442 2.096.238 4.345 2.022 6.683.4.524.493 1.218.245 1.829-.273.675-26.968 67.968 2.907 113.336 17.606 26.737 51.268 40.823 100.05 41.865 46.23.995 77.193-10.641 92.025-34.567 27.873-44.958-10.412-119.24-10.801-119.985-.413-.787-.209-1.758.484-2.316.065-.053 6.556-5.34 6.391-10.905-.073-2.48-1.542-4.754-4.363-6.763-9.99-7.107-125.744-16.336-169.775-19.31z" fill="#3c2415"/><g fill="#4e2800"><path d="m317.315 302.825c-.875 0-1.654-.618-1.827-1.511-.193-1.009.467-1.985 1.478-2.18 24.013-4.62 37.611-13.007 37.745-13.092.869-.544 2.016-.284 2.565.589.547.871.284 2.02-.587 2.565-.569.358-14.263 8.83-39.022 13.596-.118.022-.236.033-.352.033z"/><circle cx="311.371" cy="302.119" r="1.789"/></g></g><g><g><path d="m298.004 70.711s58.522-40.492 75.928-23.611 2.305 110.478-13.133 125.427-83.117-88.526-62.795-101.816z" fill="#f8f8f8"/><path d="m356.944 175.371c-1.038-.009-2.226-.213-3.588-.696-19.275-6.845-57.017-63.957-60.272-91.208-.824-6.873.573-11.549 4.151-13.899 2.624-1.813 59.675-40.892 77.655-23.457 6.785 6.578 8.201 22.875 8.197 35.387-.014 35.362-10.78 81.802-21.331 92.019-.981.951-2.525 1.874-4.812 1.854zm4.994-131.072c-22.729-.198-62.671 27.213-63.15 27.545l-.031.02c-2.639 1.725-3.627 5.519-2.938 11.276 3.1 25.952 40.254 82.473 58.459 88.939 2.468.881 4.287.697 5.561-.542 9.946-9.63 20.479-55.912 20.491-90.04.008-16.934-2.605-28.798-7.359-33.409-2.708-2.629-6.534-3.75-11.033-3.789z" fill="#4e2800"/></g><path d="m334.823 72.596s18.518-3.995 23.239-.967 5.337 25.051 5.337 25.051-18.125-21.282-28.576-24.084z" fill="#97381a"/><g><path d="m218.66 70.021s-76.398-41.665-99.705-25.138-5.27 110.412 14.798 125.67 111.453-86.834 84.907-100.532z" fill="#f8f8f8"/><path d="m138.75 173.687c-2.346-.02-4.337-.645-5.951-1.875-13.659-10.381-26.976-56.977-26.388-92.327.21-12.762 2.4-29.348 11.63-35.893 23.814-16.876 97.996 23.198 101.362 25.032 3.741 1.936 5.688 5.561 5.636 10.486-.253 23.752-47.276 77.87-74.812 91.343-4.465 2.182-8.297 3.261-11.477 3.234zm-3.978-131.149c-6.038-.053-11.2 1.011-14.9 3.635-6.359 4.509-10.016 16.358-10.297 33.364-.564 33.904 12.358 80.041 25.137 89.756 3.46 2.631 9.588.536 14.123-1.682 26.239-12.839 72.801-66.142 73.039-88.534.042-3.759-1.247-6.261-3.939-7.649l-.031-.017c-.631-.344-52.878-28.609-83.132-28.873z" fill="#4e2800"/></g><path d="m171.151 78.445c-4.008-2.725-10.909-6.678-20.327-8.661-8.143-1.715-15.066-1.303-19.588-.675-1.146 3.702-2.351 9.238-1.957 15.941.676 11.509 5.672 19.776 8.28 23.504 3.632-5.202 8.857-11.62 16.114-17.939 6.29-5.477 12.403-9.396 17.478-12.17z" fill="#97381a"/><path d="m297.972 93.826c-.457-.004-.91-.207-1.222-.592-.544-.683-.437-1.677.245-2.225 1.432-1.148 35.305-27.985 60.14-21.809.848.211 1.366 1.07 1.155 1.918-.211.845-1.06 1.365-1.917 1.153-23.366-5.823-57.06 20.935-57.396 21.206-.296.238-.652.352-1.005.349z" fill="#4e2800"/><path d="m190.18 92.889c-.352-.003-.707-.124-.998-.366-.331-.275-33.576-27.609-57.019-22.201-.867.196-1.703-.338-1.897-1.186-.197-.852.336-1.701 1.188-1.898 24.956-5.737 58.343 21.68 59.751 22.852.672.559.762 1.555.206 2.229-.318.378-.774.574-1.231.57z" fill="#4e2800"/><g><path d="m402.286 214.214c-.268 2.023-.604 3.946-1.059 5.846-.108.491-.236.979-.364 1.468-1.419 5.563-3.641 10.598-6.5 15.135-.165.293-.35.583-.534.864-7.568 11.627-19.271 20.14-32.72 26.373-43.074 19.972-104.017 16.519-104.017 16.519s-15.452.4-36.186-2.75c-14.115-2.151-30.697-5.941-46.504-12.631-5.564-2.345-11.026-5.051-16.258-8.172-7.133-4.251-13.832-9.277-19.742-15.197-4.423-4.436-8.434-9.378-11.831-14.912-2.845-4.583-5.269-9.58-7.179-15-1.149-3.246-2.131-6.543-2.891-9.844-.252-1.026-.483-2.06-.694-3.092-1.106-5.245-1.74-10.565-1.93-15.884-2.44-61.605 52.453-125.116 139.375-127.08 1.93-.055 3.865-.07 5.785-.046 6.971.054 13.802.534 20.469 1.377 54.372 6.841 96.906 39.042 103.686 85.812 1.29 8.901 3.911 16.338 6.843 23.176 1.577 3.719 3.254 7.269 4.855 10.79 3.14 6.954 5.957 13.749 7.189 21.515.778 4.784.956 9.951.207 15.733z" fill="#ff9823"/><path d="m259.04 55.809c6.962.061 13.793.531 20.463 1.38 54.373 6.834 96.911 39.041 103.689 85.81 2.001 13.752 7.165 23.987 11.699 33.964 3.136 6.958 5.957 13.755 7.187 21.519.781 4.786.958 9.945.211 15.73-.271 2.023-.604 3.951-1.063 5.845-1.481 6.506-4.031 12.307-7.399 17.468-26.38 40.532-103.156 43.333-128.511 43.112-5.197-.045-8.229-.217-8.229-.217s-1.078.028-3.043.011c-14.764-.128-79.731-2.786-115.645-38.766-4.424-4.437-8.431-9.378-11.833-14.914-2.84-4.582-5.265-9.571-7.18-15-1.143-3.238-2.127-6.538-2.889-9.836-1.528-6.248-2.391-12.616-2.62-18.979-2.439-61.606 52.451-125.119 139.371-127.085 1.931-.044 3.861-.059 5.792-.042m.027-3.164c-1.965-.017-3.93-.002-5.896.045-43.446.983-82.213 17.313-109.153 45.984-22.346 23.781-34.484 54.54-33.303 84.39.239 6.638 1.15 13.238 2.708 19.606.751 3.248 1.756 6.672 2.979 10.137 1.931 5.475 4.446 10.728 7.474 15.614 3.356 5.462 7.49 10.674 12.281 15.481 37.061 37.129 104.68 39.582 117.858 39.696 1.628.014 2.669-.002 3.019-.009.64.033 3.57.174 8.252.215 30.554.266 104.501-3.543 131.19-44.55 3.692-5.657 6.328-11.88 7.833-18.492.439-1.808.806-3.827 1.114-6.128.742-5.748.668-11.193-.225-16.66-1.315-8.302-4.389-15.574-7.425-22.309l-1.34-2.928c-4.115-8.958-8.371-18.221-10.112-30.191-6.735-46.479-48.509-81.215-106.425-88.495-6.843-.873-13.853-1.346-20.829-1.406z" fill="#4e2800"/></g><path d="m402.286 214.214c-.268 2.023-.604 3.946-1.059 5.846-.108.491-.236.979-.364 1.468-1.419 5.563-3.641 10.598-6.5 15.135l-5.77-1.111-21.908-45.446s6.629-27.978 20.156-25.02c1.031.222 2.104.6 3.195 1.09 1.577 3.719 3.254 7.269 4.855 10.79 3.14 6.954 5.957 13.749 7.189 21.515.777 4.784.955 9.951.206 15.733z" fill="#f8f8f8"/><path d="m208.106 240.14s-19.512 14.906-33.704 24.898c-5.564-2.345-11.026-5.051-16.258-8.172-7.133-4.251-13.832-9.277-19.742-15.197-4.423-4.436-8.434-9.378-11.831-14.912-2.845-4.583-5.269-9.58-7.179-15-1.149-3.246-2.131-6.543-2.891-9.844-.252-1.026-.483-2.06-.694-3.092 13.401-17.909 42.936-39.199 52.609-38.063 12.504 1.469 26.002 20.795 26.002 20.795z" fill="#f8f8f8"/><path d="m400.863 221.528c-1.51 5.914-3.927 11.229-7.034 15.999-7.568 11.627-19.271 20.14-32.72 26.373-43.074 19.972-104.017 16.519-104.017 16.519s-15.452.4-36.186-2.75c-19.081-2.906-42.644-8.805-62.762-20.803-1.426-4.316-2.306-8.739-2.604-13.234-1.519-22.561 11.615-44.539 36.019-60.29 21.941-14.157 51.325-22.497 82.744-23.478 5.336-.169 10.727-.119 16.013.139 28.309 1.412 55.103 9.029 75.432 21.456 17.745 10.843 29.817 24.736 35.115 40.069z" fill="#97381a"/><path d="m344.143 270.384c-40.491 12.672-87.051 10.035-87.051 10.035s-6.495.168-16.713-.572c-18.499-1.34-35.685-10.713-46.091-26.067-6.286-9.275-9.72-19.667-9.505-30.586.742-37.61 44.487-67.24 97.697-66.186 53.22 1.055 95.755 32.391 95.003 70-.011.572-.033 1.142-.064 1.711-1.066 19.456-14.68 35.845-33.276 41.665z" fill="#f8f8f8"/><ellipse cx="189.25" cy="199.931" fill="#ff6f9b" rx="13.534" ry="26.865" transform="matrix(.009 -1 1 .009 -12.319 387.435)"/><ellipse cx="363.789" cy="201.449" fill="#ff6f9b" rx="13.534" ry="26.865" transform="matrix(.009 -1 1 .009 159.185 563.472)"/><path d="m327.139 123.36s11.057-11.555 25.759-6.229 7.116 13.004 2.124 11.732c-4.991-1.272-14.568-7.195-27.883-5.503z" fill="#f8f8f8"/><path d="m227.281 119.047s-11.47-11.146-25.969-5.29-6.639 13.254-1.697 11.802c4.944-1.452 14.298-7.719 27.666-6.512z" fill="#f8f8f8"/><path d="m301.527 165.776c-.224 4.628-11.65 10.267-11.65 10.267s-15.943-7.245-15.719-11.873 7.552-5.328 16.53-4.895 11.063 1.874 10.839 6.501z" fill="#4e2800"/><g fill="#4e2800"><path d="m210.635 180.625c-8.493-.138-16.909-2.946-22.03-7.642-1.751-1.607-1.868-4.329-.263-6.08 1.605-1.752 4.327-1.875 6.083-.263 4.661 4.278 13.895 6.364 21.924 4.956 4.423-.772 10.325-2.899 13.338-8.648 1.105-2.107 3.71-2.917 5.811-1.815 2.107 1.103 2.918 3.704 1.816 5.809-3.622 6.908-10.538 11.572-19.484 13.134-2.354.412-4.779.588-7.195.549z"/><path d="m345.704 177.671c8.493.138 16.996-2.395 22.267-6.922 1.802-1.549 2.008-4.266.46-6.069-1.547-1.803-4.264-2.014-6.071-.46-4.797 4.124-14.094 5.91-22.073 4.241-4.395-.915-10.225-3.233-13.05-9.077-1.036-2.141-3.613-3.036-5.749-2.002-2.141 1.034-3.037 3.607-2.004 5.747 3.395 7.022 10.156 11.908 19.047 13.76 2.339.488 4.757.743 7.173.782z"/></g><g clip-rule="evenodd" fill-rule="evenodd"><path d="m255.43 218.352c.013-19.079 24.761-39.255 32.716-40.124 7.954-.868 27.32 10.439 30.691 33.232 4.543 30.723-63.425 32.766-63.407 6.892z" fill="#4e2800"/><path d="m269.569 194.044c13.474 2.485 33.003 9.441 44.427 28.772-1.189 1.672-2.723 3.147-4.509 4.427-5.417 3.881-13.056 6.034-20.815 6.562-9.297.633-18.805-1.056-24.907-5.211-3.642-2.48-6.008-5.868-6.005-10.24.005-8.587 5.402-17.353 11.809-24.31z" fill="#ff0075"/></g></g><g><path d="m362.595 283.535c-.291 2.632-.81 5.326-1.391 7.793-.642 2.911-1.38 5.519-2.015 7.61-.855 2.713-1.509 4.467-1.509 4.467s.143 1.499.088 3.883c.024 2.313-.182 5.434-.888 8.827-.869 4.353-2.544 9.11-5.665 13.043-.641.823-1.355 1.605-2.141 2.345l-.47.422c-.941.844-1.991 1.645-3.148 2.365-4.086 2.464-9.497 3.924-16.71 3.533-5.688-.308-10.096-2.933-13.491-7.032 0 0 0 0-.035-.039-.176-.196-.352-.392-.49-.586-3.874-4.908-6.372-11.792-8.013-19.376-.505-2.377-.895-4.822-1.246-7.301-.597-4.134-.927-8.366-1.152-12.48-.147-2.805-.223-5.531-.192-8.177-.15-13.768 1.15-24.698 1.15-24.698s-11.168-40.317 10.294-41.393 29.24 14.372 27.563 39.861l.454 13.672 13.049-4.104c3.783 1.062 5.54 4.439 6.087 8.794.344 2.593.22 5.569-.129 8.571z" fill="#97381a"/><path d="m328.675 339.216c-5.704-.309-10.569-2.811-14.459-7.437-16.109-19.143-10.904-68.906-10.381-73.521-.784-2.945-6.728-26.555 1.149-37.456 2.464-3.406 6.001-5.247 10.514-5.471 8.825-.44 15.809 1.853 20.701 6.819 6.6 6.702 9.413 18.32 8.358 34.529l.372 11.7 11.306-3.551c.263-.082.547-.08.798-.013 2.479.688 4.357 2.262 5.591 4.68 4.991 9.789-2.444 31.174-3.506 34.108.211 2.56 1.079 18.288-8.226 28.07-5.251 5.519-12.726 8.057-22.217 7.543zm-9.197-121.071c-1.231-.067-2.513-.067-3.842-.002-3.67.182-6.404 1.591-8.368 4.309-7.447 10.305-.714 35.076-.647 35.326.049.176.064.359.04.539-.061.528-6.046 52.926 9.711 71.651 3.37 4.006 7.561 6.172 12.455 6.436 8.631.467 15.369-1.778 20.025-6.671 9.054-9.517 7.452-26.005 7.435-26.17-.025-.216.005-.435.078-.637.085-.228 8.441-22.951 3.746-32.154-.803-1.578-1.935-2.605-3.451-3.125l-11.639 3.656.881 27.676c.024.775-.583 1.423-1.357 1.451-.832.03-1.429-.58-1.46-1.352l-1.129-28.676c-.01-.279.062-.547.199-.776l-.411-12.993c1.003-15.51-1.54-26.4-7.553-32.507-3.587-3.642-8.526-5.646-14.713-5.981z" fill="#4e2800"/></g><g><path d="m192.667 414.145s2.064 56.54 21.001 56.54 31.32-36.418 31.32-36.418z" fill="#97381a"/><path d="m213.669 472.546c-20.152 0-22.644-52.363-22.863-58.333-.038-1.027.764-1.891 1.793-1.927.976-.036 1.891.764 1.927 1.793.558 15.227 5.085 54.745 19.143 54.745 17.403 0 29.437-34.804 29.555-35.156.331-.971 1.385-1.496 2.364-1.164.973.333 1.494 1.389 1.164 2.364-.525 1.536-13.043 37.678-33.083 37.678z" fill="#3c2415"/></g><g><path d="m300.647 434.266s12.382 36.418 31.32 36.418 21.001-56.54 21.001-56.54z" fill="#97381a"/><path d="m331.966 472.546c-20.041 0-32.56-36.142-33.082-37.68-.333-.975.189-2.031 1.162-2.362.973-.333 2.031.191 2.362 1.162.12.353 12.174 35.156 29.559 35.156 14.056 0 18.583-39.518 19.141-54.745.036-1.031 1.014-1.847 1.927-1.793 1.029.036 1.831.9 1.793 1.927-.219 5.972-2.712 58.335-22.862 58.335z" fill="#3c2415"/></g><g><path d="m247.917 318.234-59.258-10.457s21.179 59.892 46.873 52.921c13.97-3.17 12.385-42.464 12.385-42.464z" fill="#97381a"/><path d="m231.28 363.142c-24.717 0-43.54-52.381-44.376-54.746-.344-.969.164-2.033 1.134-2.374.969-.345 2.034.164 2.374 1.134.207.582 20.895 58.148 44.632 51.745 10.287-2.336 11.432-30.093 11.012-40.593-.042-1.027.758-1.893 1.785-1.934.976-.111 1.893.758 1.934 1.785.169 4.18 1.213 40.94-13.832 44.354-1.574.427-3.13.629-4.663.629z" fill="#3c2415"/></g><g fill="#4e2800"><path d="m445.207 269.243c-1.674-.348-3.281-1.036-4.701-2.035-2.829-1.996-4.73-5.102-5.213-8.525-.624-4.343-4.276-7.641-8.633-7.819l-15.867-.684c-.861.036-1.554-.651-1.556-1.413-.002-.807.773-1.521 1.68-1.407 5.288.228 10.576.455 15.863.683 5.724.248 10.493 4.552 11.307 10.239.378 2.659 1.851 5.068 4.046 6.615 2.193 1.543 4.964 2.129 7.59 1.591l18.514-3.769c.758-.156 1.487.258 1.708.882.262.741-.228 1.68-1.144 1.886-6.171 1.256-12.342 2.513-18.514 3.769-1.687.345-3.417.333-5.08-.013z"/><path d="m423.163 324.138c-.093-.019-.187-.05-.283-.09l-17.294-7.609c-3.163-1.391-5.639-4.059-6.801-7.319-1.155-3.258-.916-6.894.662-9.971 2-3.904.934-8.684-2.537-11.368l-12.563-9.716c-.616-.476-.729-1.364-.251-1.979.478-.616 1.361-.723 1.982-.253l12.563 9.716c4.542 3.514 5.94 9.776 3.317 14.887-1.219 2.389-1.407 5.209-.511 7.738.9 2.53 2.823 4.6 5.277 5.678l17.298 7.61c.713.314 1.035 1.148.723 1.861-.275.621-.943.948-1.582.815z"/><path d="m429.411 296.37c-3.145-.654-5.956-2.501-7.794-5.142-1.976-2.837-2.701-6.406-1.993-9.793.901-4.294-1.387-8.624-5.44-10.3l-14.678-6.061c-.739-.313-1.074-1.18-.755-1.888.306-.679 1.121-1.009 1.834-.721 4.893 2.02 9.785 4.041 14.678 6.061 5.309 2.193 8.307 7.866 7.123 13.489-.55 2.626.014 5.397 1.548 7.598 1.531 2.201 3.954 3.677 6.59 4.089l18.685 2.782c.782.088 1.301.833 1.189 1.605-.116.771-.833 1.303-1.606 1.187l-18.686-2.781c-.234-.035-.463-.077-.695-.125z"/></g></g></svg>