<?xml version="1.0" encoding="iso-8859-1"?>
<!-- Generator: Adobe Illustrator 26.5.3, SVG Export Plug-In . SVG Version: 6.00 Build 0)  -->
<svg xmlns="http://www.w3.org/2000/svg" xmlns:xlink="http://www.w3.org/1999/xlink" version="1.1" id="Capa_1" x="0px" y="0px" viewBox="0 0 512 512" style="enable-background:new 0 0 512 512;" xml:space="preserve">
<g>
	<path style="fill-rule:evenodd;clip-rule:evenodd;fill:#FF854A;" d="M271.164,9.8l39.142,86.676   c2.419,5.357,7.482,9.042,13.324,9.696l94.901,10.634c14.236,1.595,19.949,19.227,9.354,28.868l-70.333,64.004   c-4.347,3.956-6.287,9.91-5.105,15.667l19.207,93.553c2.881,14.032-12.123,24.913-24.566,17.815l-82.598-47.117   c-5.106-2.913-11.369-2.918-16.48-0.014l-83.033,47.182c-12.455,7.077-27.441-3.829-24.536-17.857l19.284-93.119   c1.192-5.756-0.738-11.714-5.079-15.677L84.11,145.719c-10.579-9.658-4.838-27.281,9.401-28.853l94.527-10.437   c5.843-0.645,10.912-4.322,13.34-9.676l39.441-86.977C246.734-3.27,265.268-3.255,271.164,9.8z"/>
	<rect x="112.195" y="333.067" style="fill-rule:evenodd;clip-rule:evenodd;fill:#A989E7;" width="287.61" height="151.429"/>
	<path style="fill-rule:evenodd;clip-rule:evenodd;fill:#00EEE4;" d="M92.929,442.305c6.419,0.474,12.841,0.92,19.266,1.338   c49.522,3.221,99.192,0.34,148.858,0.227c46.842-0.106,93.68,2.739,140.383-0.333c5.488-0.361,10.975-0.742,16.459-1.144   c5.515-0.404,10.985,0.885,15.158,3.577c4.658,3.004,9.349,5.994,14.073,8.969c2.567,1.616-5.934,5.187-3.348,6.795   c3.677,2.286,18.452,2.603,22.169,4.871c-68.031,6.338-136.458,22.889-204.894,23.041c-71.8,0.159-143.61-16.391-214.985-23.041   c3.132-1.911,13.525-1.458,16.629-3.382c3.17-1.965-0.95-6.305,2.191-8.283c5.029-3.167,10.02-6.35,14.973-9.55   C83.457,443.066,88.174,441.954,92.929,442.305z"/>
	<path style="fill-rule:evenodd;clip-rule:evenodd;fill:#004587;" d="M447.128,454.936c6.216,3.915,12.489,7.805,18.819,11.668   c-139.406,12.987-280.472,12.987-419.879,0c6.33-3.863,12.603-7.753,18.819-11.668C191.874,465.809,320.14,465.809,447.128,454.936   z"/>
	<path style="fill-rule:evenodd;clip-rule:evenodd;fill:#00EEE4;" d="M53.498,503.195c134.496,11.737,270.397,11.741,404.894,0.011   c7.606-0.663,13.013-5.812,12.053-11.421c-1.438-8.399-2.875-16.799-4.313-25.198c-139.529,13.01-280.721,13.01-420.25,0   c-1.443,8.43-2.885,16.86-4.328,25.29C40.603,497.435,45.961,502.537,53.498,503.195z"/>
	<path style="fill-rule:evenodd;clip-rule:evenodd;fill:#004587;" d="M110.578,443.537c96.761,6.364,194.097,6.364,290.858,0   c-0.494-4.091-0.988-8.182-1.482-12.273c-95.775,6.299-192.12,6.299-287.895,0C111.566,435.355,111.072,439.446,110.578,443.537z"/>
	<path style="fill:#FFD548;" d="M393.553,322.56c-91.566,6.071-183.406,7.003-275.076,2.79c-17.696-0.813-17.655,26.695,0,27.506   c91.67,4.213,183.51,3.281,275.076-2.79C411.124,348.901,411.254,321.386,393.553,322.56z"/>
	<path style="fill:#004587;" d="M391.699,357.4c-42.654,4.239-85.945,7.333-127.87,8.119c-47.458,0.04-94.825-1.927-141.936-5.887   c-4.432-0.377-4.62,3.044-0.187,3.729c47.439,7.3,96.086,9.714,143.822,8.797c43.159-1.055,85.975-4.781,127.89-11.114   C397.875,360.367,396.239,356.947,391.699,357.4z"/>
	<g>
		<path style="fill:#004587;" d="M279.129,189.512c0,0-29.109,2.743-48.483,0.064c0,0-2.041,20.109,2.413,36.908    c2.45,9.241,10.208,6.677,18.01,10.016c2.738,1.172,1.882,5.849,5.515,5.645c5.932-0.332,11.041,3.843,14.349,0.014    C284.36,226.62,279.129,189.512,279.129,189.512z"/>
		<path style="fill:#FFA4AD;" d="M245.551,224.415c12.794,0.701,22.074,7.572,25.361,17.727c-3.309,3.824-7.73,6.367-13.661,6.699    c-13.985,0.786-20.869-9.879-24.179-22.36C236.489,224.986,240.645,224.186,245.551,224.415z"/>
		<g>
			<g>
				<g>
					<g>
						<path style="fill-rule:evenodd;clip-rule:evenodd;fill:#FFFFFF;" d="M217.424,143.788        c4.488,17.278,21.389,25.311,8.396,35.993c-4.986,4.099-10.949,7.195-17.651,8.889c-24.165,6.102-48.792-8.332-54.996-32.237        c-6.208-23.911,8.35-48.241,32.514-54.34c6.621-1.673,13.275-1.805,19.576-0.623        C221.963,104.602,212.919,126.432,217.424,143.788z"/>
						<path style="fill-rule:evenodd;clip-rule:evenodd;fill:#004587;" d="M205.262,101.472        c-13.011,4.837-23.286,16.083-26.146,30.584c-4.365,22.096,10.126,43.389,32.365,47.56c4.863,0.906,9.703,0.924,14.333,0.158        c12.992-10.678,19.354-28.18,14.868-45.453C236.174,116.96,221.963,104.612,205.262,101.472z"/>
					</g>
					<g>
						<path style="fill-rule:evenodd;clip-rule:evenodd;fill:#FFFFFF;" d="M328.9,140.898c3.584,17.494,17.562,27.83,4.03,37.82        c-5.191,3.832-11.305,6.612-18.084,7.953c-24.453,4.839-48.296-10.844-53.248-35.047        c-4.963-24.198,10.839-47.736,35.288-52.582c6.698-1.326,13.351-1.112,19.582,0.395        C332.984,103.434,325.301,123.33,328.9,140.898z"/>
						<path style="fill-rule:evenodd;clip-rule:evenodd;fill:#004587;" d="M316.467,99.447        c-13.242,4.158-24.085,14.85-27.699,29.182c-5.507,21.838,7.852,43.854,29.853,49.17c4.809,1.168,9.641,1.43,14.304,0.913        c13.531-9.994,20.794-27.136,17.212-44.626C346.536,116.517,332.975,103.448,316.467,99.447z"/>
					</g>
					<path style="fill-rule:evenodd;clip-rule:evenodd;fill:#004587;" d="M351.493,92.357c-6.624-9.702-16.981-14.963-28.734-13.988       c-5.895,0.493-4.661,9.567,1.206,9.083c8.588-0.719,15.48,3.49,20.228,10.434C347.529,102.776,354.807,97.212,351.493,92.357z"/>
					<path style="fill-rule:evenodd;clip-rule:evenodd;fill:#004587;" d="M183.617,77.342c-11.748,0.039-21.915,5.658-27.698,15.931       c-2.906,5.159,5.298,9.232,8.185,4.1c4.232-7.51,11.579-10.855,19.994-10.882C190.017,86.471,189.494,77.328,183.617,77.342z"/>
				</g>
			</g>
			<path style="fill:#FFD548;" d="M209.27,209.728c-0.152,7.013-8.364,12.524-18.347,12.311     c-9.985-0.207-17.958-6.062-17.811-13.078c0.154-7.016,8.364-12.529,18.353-12.315     C201.442,196.859,209.419,202.713,209.27,209.728z"/>
			<path style="fill:#FFD548;" d="M335.311,207.386c-0.148,7.012-8.363,12.524-18.342,12.308     c-9.99-0.206-17.958-6.061-17.813-13.075c0.151-7.016,8.363-12.529,18.35-12.315C327.486,194.516,335.46,200.371,335.311,207.386     z"/>
			<g>
				<path style="fill:#FFFFFF;" d="M230.113,125.627c-3.723-5.398-8.29-9.851-14.478-12.268c-2.781-1.09-4.158,3.326-1.404,4.406      c4.972,1.945,8.813,5.704,11.802,10.041C227.702,130.224,231.803,128.086,230.113,125.627z"/>
				<path style="fill:#FFFFFF;" d="M208.357,110.298c-0.716-0.172-1.427-0.369-2.142-0.543c-1.224-0.3-2.502,0.238-2.906,1.502      c-0.359,1.138,0.279,2.603,1.502,2.902c0.717,0.177,1.426,0.376,2.14,0.545c1.227,0.302,2.503-0.238,2.907-1.504      C210.221,112.063,209.575,110.598,208.357,110.298z"/>
				<g>
					<path style="fill:#FFFFFF;" d="M233.189,133.767c-0.493-1.162-2.096-1.508-3.128-0.955c-1.18,0.635-1.442,1.964-0.953,3.122       c-0.004-0.028,0-0.043-0.003-0.076c0.021,1.255,0.909,2.344,2.218,2.396c1.207,0.048,2.423-0.959,2.402-2.22       C233.709,135.198,233.511,134.528,233.189,133.767z"/>
					<path style="fill:#FFFFFF;" d="M229.087,135.928c0.01,0.034,0.017,0.073,0.021,0.107c0.001-0.027,0-0.064-0.003-0.102       C228.85,135.327,229.044,135.773,229.087,135.928z"/>
					<path style="fill:#FFFFFF;" d="M229.108,136.036C229.118,136.376,229.136,136.211,229.108,136.036L229.108,136.036z"/>
					<path style="fill:#FFFFFF;" d="M229.108,135.942v-0.008c-0.005,0-0.003,0-0.003,0       C229.108,135.94,229.108,135.94,229.108,135.942z"/>
				</g>
			</g>
			<g>
				<path style="fill:#FFFFFF;" d="M337.391,120.275c-3.726-5.399-8.292-9.85-14.48-12.271c-2.779-1.088-4.155,3.329-1.404,4.408      c4.97,1.946,8.812,5.702,11.803,10.041C334.977,124.874,339.082,122.731,337.391,120.275z"/>
				<path style="fill:#FFFFFF;" d="M315.63,104.95c-0.713-0.176-1.422-0.372-2.138-0.547c-1.225-0.298-2.503,0.237-2.91,1.501      c-0.355,1.14,0.282,2.607,1.507,2.903c0.714,0.179,1.423,0.376,2.139,0.546c1.227,0.305,2.502-0.238,2.907-1.502      C317.494,106.712,316.852,105.246,315.63,104.95z"/>
				<g>
					<path style="fill:#FFFFFF;" d="M340.462,128.412c-0.488-1.16-2.092-1.504-3.125-0.95c-1.18,0.632-1.441,1.964-0.952,3.121       c-0.004-0.026,0-0.042-0.003-0.076c0.021,1.255,0.905,2.346,2.219,2.397c1.204,0.048,2.42-0.961,2.402-2.223       C340.983,129.847,340.788,129.177,340.462,128.412z"/>
					<path style="fill:#FFFFFF;" d="M336.365,130.577c0.008,0.035,0.015,0.073,0.021,0.107c0.003-0.027-0.003-0.066-0.005-0.104       C336.126,129.974,336.32,130.422,336.365,130.577z"/>
					<path style="fill:#FFFFFF;" d="M336.386,130.684C336.394,131.024,336.412,130.858,336.386,130.684L336.386,130.684z"/>
					<path style="fill:#FFFFFF;" d="M336.386,130.589l-0.001-0.007l-0.003-0.003C336.386,130.587,336.386,130.587,336.386,130.589z"/>
				</g>
			</g>
		</g>
	</g>
	<path style="fill-rule:evenodd;clip-rule:evenodd;fill:#FF6086;" d="M402.439,267.485c-0.191,0-0.384-0.01-0.584-0.027   c-3.481-0.325-5.173-3.216-5.048-5.903c0.126-2.718,2.06-5.471,5.508-5.471c0.193,0,0.387,0.01,0.59,0.027   c3.475,0.323,5.167,3.212,5.042,5.899C407.82,264.73,405.889,267.485,402.439,267.485z"/>
	<path style="fill-rule:evenodd;clip-rule:evenodd;fill:#FF6086;" d="M454.918,303.919c-0.191,0-0.384-0.01-0.584-0.027   c-3.481-0.325-5.173-3.216-5.048-5.903c0.126-2.718,2.06-5.471,5.508-5.471c0.193,0,0.387,0.01,0.59,0.027   c3.475,0.323,5.167,3.212,5.042,5.899C460.299,301.164,458.368,303.919,454.918,303.919z"/>
	<path style="fill-rule:evenodd;clip-rule:evenodd;fill:#00EEE4;" d="M425.092,317.29c-1.754-0.169-3.283-0.962-4.315-3.23   c-2.334-5.075-4.863-10.063-7.61-14.93c-1.303-2.304-2.624-4.616-4.054-6.844c-2.691-4.181-5.311-7.322-0.846-11.422   c2.195-2.018,4.607-3.788,7.115-5.386c3.109-1.967,7.588-5.014,9.885-0.31c5.825,12.021,10.398,23.933,13.985,36.416   c0.318,1.138,0.839,3.009-0.342,4.425c-1.542,1.852-3.809,0.761-5.789,0.66C430.427,316.531,427.788,317.55,425.092,317.29z"/>
	<path style="fill:#00AFFF;" d="M372.094,258.636c-1.924-2.634-3.849-5.267-5.773-7.901c-2.037-2.788-1.82-7.86,0.857-11.043   c8.46-10.092,19.433-18.11,31.618-23.104c3.846-1.584,8.743-0.249,10.781,2.539c1.924,2.633,3.849,5.267,5.773,7.9   c2.044,2.798,0.454,5.991-3.392,7.574c-12.186,4.994-23.158,13.012-31.618,23.104C377.664,260.888,374.139,261.433,372.094,258.636   z"/>
	<path style="fill:#FF6086;" d="M445.069,337.078c3.876,0.503,7.753,1.005,11.629,1.508c4.138,0.453,6.798,5.135,5.298,10.227   c-4.605,15.904-13.617,30.111-25.941,40.953c-3.956,3.458-9.054,3.788-10.922,1.24c-1.836-2.384-3.673-4.768-5.51-7.152   c-1.88-2.555-1.066-6.63,1.44-9.407c8.179-8.866,13.629-19.822,15.731-31.554C437.427,339.262,440.919,336.618,445.069,337.078z"/>
	<path style="fill:#FF854A;" d="M449.409,159.678c3.876,0.503,7.753,1.005,11.629,1.508c4.138,0.453,6.798,5.135,5.298,10.227   c-4.605,15.905-13.617,30.111-25.941,40.953c-3.956,3.458-9.054,3.788-10.922,1.24c-1.837-2.384-3.673-4.768-5.51-7.152   c-1.88-2.555-1.066-6.631,1.44-9.407c8.179-8.866,13.629-19.822,15.731-31.554C441.767,161.862,445.258,159.218,449.409,159.678z"/>
	<path style="fill-rule:evenodd;clip-rule:evenodd;fill:#FF6086;" d="M55.359,302.43c0.191,0,0.384-0.01,0.584-0.027   c3.481-0.325,5.173-3.216,5.048-5.903c-0.126-2.718-2.06-5.471-5.508-5.471c-0.193,0-0.387,0.01-0.59,0.027   c-3.475,0.323-5.167,3.212-5.042,5.899C49.977,299.676,51.909,302.43,55.359,302.43z"/>
	<path style="fill-rule:evenodd;clip-rule:evenodd;fill:#FF6086;" d="M76.146,249.487c0.191,0,0.383-0.01,0.584-0.027   c3.481-0.325,5.173-3.216,5.048-5.903c-0.126-2.718-2.06-5.471-5.508-5.471c-0.193,0-0.387,0.01-0.59,0.027   c-3.475,0.323-5.167,3.212-5.042,5.899C70.765,246.733,72.696,249.487,76.146,249.487z"/>
	<path style="fill-rule:evenodd;clip-rule:evenodd;fill:#00EEE4;" d="M85.184,315.801c1.754-0.169,3.283-0.961,4.315-3.23   c2.334-5.075,4.863-10.063,7.61-14.93c1.303-2.304,2.624-4.616,4.054-6.844c2.691-4.181,5.311-7.322,0.846-11.422   c-2.195-2.018-4.607-3.788-7.115-5.386c-3.109-1.968-7.588-5.014-9.885-0.311c-5.825,12.022-10.398,23.933-13.985,36.416   c-0.318,1.138-0.839,3.009,0.342,4.424c1.542,1.852,3.809,0.761,5.789,0.66C79.849,315.042,82.488,316.061,85.184,315.801z"/>
	<path style="fill:#FF6086;" d="M138.182,257.147c1.924-2.634,3.849-5.267,5.773-7.901c2.037-2.788,1.82-7.86-0.857-11.043   c-8.46-10.092-19.433-18.11-31.618-23.104c-3.846-1.584-8.743-0.249-10.781,2.538c-1.924,2.634-3.849,5.267-5.773,7.901   c-2.044,2.798-0.454,5.991,3.392,7.574c12.186,4.994,23.158,13.012,31.618,23.104C132.612,259.4,136.137,259.944,138.182,257.147z"/>
	<path style="fill:#FF854A;" d="M65.207,335.589c-3.876,0.503-7.753,1.005-11.629,1.508c-4.137,0.453-6.798,5.135-5.298,10.227   c4.605,15.905,13.618,30.111,25.941,40.953c3.956,3.458,9.054,3.788,10.922,1.24c1.837-2.384,3.673-4.768,5.51-7.152   c1.88-2.555,1.066-6.63-1.44-9.407c-8.179-8.866-13.629-19.822-15.731-31.554C72.849,337.774,69.358,335.129,65.207,335.589z"/>
	<path style="fill:#00AFFF;" d="M60.868,158.189c-3.876,0.503-7.753,1.005-11.629,1.508c-4.138,0.453-6.798,5.135-5.298,10.227   c4.605,15.904,13.617,30.111,25.941,40.953c3.956,3.458,9.054,3.788,10.922,1.24c1.836-2.384,3.673-4.768,5.51-7.152   c1.88-2.555,1.066-6.631-1.44-9.407c-8.179-8.866-13.629-19.822-15.731-31.554C68.51,160.374,65.018,157.729,60.868,158.189z"/>
	<g>
		<path style="fill:#FFFFFF;" d="M233.498,76.159l17.448-37.576c3.012-6.49-7.053-11.166-10.065-4.673l-17.449,37.581    C220.419,77.981,230.487,82.653,233.498,76.159z"/>
		<path style="fill:#FFFFFF;" d="M226.644,90.927c3.014-6.49-7.053-11.164-10.068-4.675    C213.564,92.744,223.631,97.417,226.644,90.927z"/>
		<path style="fill:#FFFFFF;" d="M258.266,22.815c3.014-6.492-7.053-11.164-10.066-4.675    C245.187,24.631,255.253,29.307,258.266,22.815z"/>
	</g>
	<g>
		<path style="fill:#FFFFFF;" d="M213.749,333.703l-52.94-0.448c-9.143-0.076-9.265,14.106-0.12,14.181l52.946,0.447    C222.779,347.958,222.895,333.776,213.749,333.703z"/>
		<path style="fill:#FFFFFF;" d="M234.553,333.876c-9.143-0.078-9.263,14.104-0.12,14.185    C243.578,348.135,243.696,333.952,234.553,333.876z"/>
		<path style="fill:#FFFFFF;" d="M138.595,333.067c-9.146-0.077-9.263,14.104-0.122,14.182    C147.618,347.326,147.74,333.144,138.595,333.067z"/>
	</g>
	<path style="fill:#FFFFFF;" d="M391.512,134.217c-0.896-0.865-2.693-13.027-4.329-12.929c-1.635,0.099-3.058,12.16-3.824,12.952   c-1.529,1.594-12.744,2.724-12.653,4.268c0.091,1.54,11.104,2.272,12.656,3.778c0.869,0.839,2.694,13.032,4.333,12.937   c1.628-0.095,3.027-12.121,3.824-12.945c1.476-1.54,12.778-2.727,12.687-4.279C404.115,136.452,393.007,135.674,391.512,134.217z"/>
	<path style="fill:#004587;" d="M170.4,392.465c-0.98-0.948-2.943-14.232-4.726-14.12c-1.784,0.104-3.343,13.277-4.179,14.144   c-1.672,1.736-13.912,2.972-13.814,4.662c0.098,1.679,12.124,2.477,13.824,4.121c0.947,0.92,2.939,14.235,4.726,14.128   c1.78-0.101,3.309-13.236,4.176-14.134c1.613-1.679,13.956-2.978,13.857-4.672C184.162,394.903,172.03,394.053,170.4,392.465z"/>
	<path style="fill:#FFFFFF;" d="M334.18,256.319c-7.034,0-7.046,10.932,0,10.932C341.214,267.25,341.226,256.319,334.18,256.319z"/>
	<path style="fill:#FFFFFF;" d="M341.003,301.219c-7.034,0-7.046,10.932,0,10.932C348.037,312.151,348.048,301.219,341.003,301.219z   "/>
	<path style="fill:#FFFFFF;" d="M293.802,230.745c-7.034,0-7.046,10.932,0,10.932C300.836,241.677,300.848,230.745,293.802,230.745z   "/>
	<path style="fill:#FFFFFF;" d="M372.697,163.014c-7.034,0-7.046,10.932,0,10.932C379.732,173.946,379.743,163.014,372.697,163.014z   "/>
	<path style="fill:#FFFFFF;" d="M270.728,65.511c-7.034,0-7.046,10.932,0,10.932C277.763,76.443,277.774,65.511,270.728,65.511z"/>
	<path style="fill:#FFFFFF;" d="M249.144,101.237c-7.034,0-7.046,10.932,0,10.932C256.178,112.169,256.19,101.237,249.144,101.237z"/>
	<path style="fill:#FFFFFF;" d="M120.38,131.009c-7.034,0-7.046,10.932,0,10.932C127.414,141.941,127.426,131.009,120.38,131.009z"/>
	<path style="fill:#FFFFFF;" d="M202.997,244.142c-7.034,0-7.046,10.932,0,10.932C210.031,255.074,210.043,244.142,202.997,244.142z   "/>
	<path style="fill:#FFFFFF;" d="M147.68,173.498c-7.034,0-7.046,10.932,0,10.932C154.714,184.43,154.726,173.498,147.68,173.498z"/>
	<path style="fill:#FFFFFF;" d="M171.737,297.732c-7.034,0-7.046,10.932,0,10.932C178.771,308.664,178.783,297.732,171.737,297.732z   "/>
	<path style="fill:#FFFFFF;" d="M258.076,262.75c-7.034,0-7.046,10.932,0,10.932C265.11,273.682,265.121,262.75,258.076,262.75z"/>
	<path style="fill:#FFFFFF;" d="M286.359,334.947c-7.034,0-7.046,10.932,0,10.932C293.393,345.879,293.405,334.947,286.359,334.947z   "/>
	<path style="fill:#FFFFFF;" d="M368.232,331.969c-7.034,0-7.046,10.932,0,10.932C375.266,342.901,375.277,331.969,368.232,331.969z   "/>
	<path style="fill:#FFFFFF;" d="M365.999,409.376c-7.034,0-7.046,10.932,0,10.932C373.033,420.308,373.044,409.376,365.999,409.376z   "/>
	<path style="fill:#FFFFFF;" d="M299.756,393.002c-7.034,0-7.046,10.932,0,10.932C306.79,403.934,306.802,393.002,299.756,393.002z"/>
	<path style="fill:#FFFFFF;" d="M226.815,410.121c-7.034,0-7.046,10.932,0,10.932C233.849,421.052,233.861,410.121,226.815,410.121z   "/>
	<path style="fill:#FFFFFF;" d="M137.499,378.86c-7.034,0-7.046,10.932,0,10.932C144.533,389.792,144.545,378.86,137.499,378.86z"/>
	<path style="fill:#FFFFFF;" d="M84.654,479.34c-7.034,0-7.046,10.932,0,10.932C91.688,490.272,91.7,479.34,84.654,479.34z"/>
	<path style="fill:#FFFFFF;" d="M163.55,488.272c-7.034,0-7.046,10.932,0,10.932C170.584,499.204,170.595,488.272,163.55,488.272z"/>
	<path style="fill:#FFFFFF;" d="M261.053,483.806c-7.034,0-7.046,10.932,0,10.932C268.087,494.738,268.099,483.806,261.053,483.806z   "/>
	<path style="fill:#FFFFFF;" d="M368.976,486.783c-7.034,0-7.046,10.932,0,10.932C376.01,497.715,376.022,486.783,368.976,486.783z"/>
	<path style="fill:#FFFFFF;" d="M447.872,480.829c-7.034,0-7.046,10.932,0,10.932C454.906,491.761,454.917,480.829,447.872,480.829z   "/>
</g>
<g>
</g>
<g>
</g>
<g>
</g>
<g>
</g>
<g>
</g>
<g>
</g>
<g>
</g>
<g>
</g>
<g>
</g>
<g>
</g>
<g>
</g>
<g>
</g>
<g>
</g>
<g>
</g>
<g>
</g>
</svg>
