<svg enable-background="new 0 0 512 512" viewBox="0 0 512 512" xmlns="http://www.w3.org/2000/svg"><g id="_x32_1_Music_Book"><g><path d="m458.073 161.006v245.336c0 11.039-8.922 19.961-19.96 19.961h-166.366c-.249 18.923-15.686 34.236-34.734 34.236-19.006 0-34.443-15.312-34.692-34.236h-162.838c-11.038 0-19.96-8.922-19.96-19.961v-245.336c0-11.037 8.922-20.001 19.96-20.001h398.629c11.039-.001 19.961 8.964 19.961 20.001z" fill="#7d92fb"/><path d="m238.798 141.024v269.178c14.137-17.146 35.197-27.077 57.42-27.077h122.057v-291.813h-129.766c-27.455 0-49.711 22.257-49.711 49.712z" fill="#fefdff"/><path d="m238.798 141.024v269.178c-14.137-17.146-35.197-27.077-57.42-27.077h-122.058v-291.813h129.766c27.455 0 49.712 22.257 49.712 49.712z" fill="#fefdff"/><path d="m475.479 52.118c8.391-2.742 16.999 3.555 16.999 12.436v142.682c0 .954-.032 1.909-.127 2.863-1.707 19.28-20.385 34.455-43.203 34.455-23.924 0-43.329-16.703-43.329-37.318 0-20.584 19.405-37.318 43.329-37.318 6.447 0 12.547 1.209 18.046 3.404v-78.092l-96.534 35.346v112.802c.158 1.336.253 2.673.253 4.041 0 20.616-19.405 37.318-43.329 37.318-23.956 0-43.329-16.703-43.329-37.318s19.373-37.318 43.329-37.318c6.352 0 12.357 1.177 17.793 3.309v-106.41c0-5.666 3.625-10.687 8.978-12.436z" fill="#82ddde"/><g fill="#332e8e"><path d="m88.556 174.015h121.008c3.265 0 5.912-2.647 5.912-5.912s-2.647-5.912-5.912-5.912h-121.008c-3.265 0-5.912 2.647-5.912 5.912s2.646 5.912 5.912 5.912z"/><path d="m88.556 224.063h121.008c3.265 0 5.912-2.647 5.912-5.912s-2.647-5.912-5.912-5.912h-121.008c-3.265 0-5.912 2.647-5.912 5.912s2.646 5.912 5.912 5.912z"/><path d="m88.556 274.107h121.008c3.265 0 5.912-2.647 5.912-5.912s-2.647-5.912-5.912-5.912h-121.008c-3.265 0-5.912 2.647-5.912 5.912s2.646 5.912 5.912 5.912z"/><path d="m215.475 318.243c0-3.265-2.647-5.912-5.912-5.912h-121.007c-3.265 0-5.912 2.647-5.912 5.912s2.647 5.912 5.912 5.912h121.008c3.265 0 5.911-2.646 5.911-5.912z"/><path d="m490.552 49.158c-4.949-3.589-11.115-4.545-16.909-2.66-.042.014-.081.028-.12.042l-110.897 38.861h-74.117c-21.749 0-40.572 12.577-49.711 30.811-9.14-18.235-27.962-30.811-49.711-30.811h-129.768c-3.265 0-5.912 2.647-5.912 5.912v43.781h-13.925c-14.265 0-25.872 11.625-25.872 25.911v245.335c0 14.267 11.607 25.874 25.872 25.874h157.428c3.088 19.339 19.985 34.234 40.102 34.234 20.138 0 37.054-14.895 40.146-34.234h160.955c14.265 0 25.872-11.607 25.872-25.874v-157.936c18.604-5.224 32.676-19.932 34.25-37.721.113-1.15.155-2.3.155-3.446v-142.685c0-6.171-2.857-11.783-7.838-15.394zm-202.043 48.066h53.707c-1.731 2.887-2.751 6.226-2.751 9.778v98.457c-3.857-.845-7.829-1.27-11.882-1.27-27.151 0-49.24 19.394-49.24 43.231s22.089 43.226 49.24 43.226c27.153 0 49.242-19.389 49.242-43.226 0-1.487-.092-2.933-.254-4.383v-108.332l35.793-13.103v56.995c-7.722 7.635-12.457 17.65-12.457 28.641s4.734 21.006 12.457 28.641v141.337h-116.147c-19.057 0-37.183 6.674-51.508 18.669v-254.86c.001-24.153 19.649-43.801 43.8-43.801zm135.679 49.693h13.925c7.746 0 14.048 6.318 14.048 14.087v3.164c-1.005-.053-1.997-.162-3.014-.162-9.115 0-17.63 2.224-24.959 6.03zm37.095 2.63c-4.232-8.547-13.015-14.454-23.17-14.454h-13.925v-17.821l37.095-13.581zm-396.052-52.323h123.855c24.151 0 43.799 19.648 43.799 43.799v254.86c-14.325-11.995-32.451-18.669-51.508-18.669h-116.146zm386.93 309.116c0 7.746-6.302 14.05-14.048 14.05h-166.366c-3.235 0-5.868 2.6-5.912 5.833-.206 15.662-13.136 28.4-28.823 28.4-15.662 0-28.574-12.738-28.779-28.4-.044-3.233-2.677-5.833-5.912-5.833h-162.839c-7.746 0-14.048-6.305-14.048-14.05v-245.336c0-7.769 6.302-14.087 14.048-14.087h13.925v236.21c0 3.265 2.647 5.912 5.912 5.912h122.058c20.53 0 39.797 9.085 52.859 24.923.287.349.608.656.955.924.014.012.031.018.044.028.424.321.893.559 1.38.753.066.028.116.079.184.102.075.028.154.016.229.039.57.18 1.156.305 1.758.305.003 0 .005.002.008.002h.002s.001 0 .002 0c.003 0 .005-.002.008-.002.602 0 1.188-.125 1.758-.305.076-.023.154-.012.229-.039.068-.023.118-.074.184-.102.487-.194.955-.432 1.38-.753.014-.009.031-.016.044-.028.347-.268.668-.575.955-.924 13.062-15.838 32.329-24.923 52.859-24.923h122.058c3.265 0 5.912-2.647 5.912-5.912v-138.688c7.33 3.806 15.844 6.03 24.959 6.03 1.015 0 2.012-.074 3.014-.129v156zm34.405-199.103c0 .757-.023 1.52-.104 2.342-1.443 16.299-17.833 29.066-37.315 29.066-20.632 0-37.416-14.087-37.416-31.407s16.784-31.407 37.416-31.407c5.561 0 10.896 1.002 15.856 2.984 1.817.721 3.882.499 5.508-.596 1.623-1.104 2.596-2.933 2.596-4.896v-78.094c0-1.931-.942-3.741-2.526-4.845-1.582-1.108-3.6-1.363-5.418-.707l-96.536 35.347c-2.33.854-3.88 3.071-3.88 5.552v112.803c0 .236.014.466.042.702.132 1.104.212 2.203.212 3.339 0 17.316-16.787 31.403-37.418 31.403s-37.416-14.087-37.416-31.403c0-17.32 16.784-31.407 37.416-31.407 5.464 0 10.725.975 15.637 2.901 1.817.711 3.873.476 5.489-.624 1.614-1.099 2.58-2.928 2.58-4.882v-106.406c0-3.118 1.97-5.861 5.023-6.859l121.054-42.423c2.145-.684 4.42-.319 6.244 1.011 1.878 1.363 2.956 3.483 2.956 5.82z"/></g></g></g><g id="Layer_1"/></svg>