<svg clip-rule="evenodd" fill-rule="evenodd" stroke-linejoin="round" stroke-miterlimit="2" viewBox="0 0 48 48" xmlns="http://www.w3.org/2000/svg"><g transform="translate(-144 -432)"><g id="Icon" transform="translate(0 8)"><g><path d="m146.586 456.586c-.781.781-.781 2.047 0 2.828l2 2c.781.781 2.047.781 2.828 0l10.586-10.586 6.586 6.586c.781.781 2.047.781 2.828 0l10.586-10.586 2.586 2.586c.53.53 1.311.719 2.024.491.714-.229 1.24-.837 1.363-1.576l2-12c.106-.637-.102-1.286-.559-1.743s-1.106-.665-1.743-.559l-12 2c-.739.123-1.347.649-1.576 1.363-.228.713-.039 1.494.491 2.024l2.586 2.586-7.172 7.172-6.586-6.586c-.781-.781-2.047-.781-2.828 0z" fill="#80c783"/></g><g><path d="m145.879 455.879c-1.172 1.171-1.172 3.071 0 4.242 0 0 2 2 2 2 1.171 1.172 3.071 1.172 4.242 0 0 0 9.879-9.878 9.879-9.878s5.879 5.878 5.879 5.878c1.171 1.172 3.071 1.172 4.242 0 0 0 9.879-9.878 9.879-9.878l1.879 1.878c.794.795 1.966 1.079 3.037.736 1.07-.343 1.858-1.255 2.043-2.364 0 0 2-12 2-12 .159-.955-.153-1.929-.838-2.614s-1.659-.997-2.614-.838c0 0-12 2-12 2-1.109.185-2.021.973-2.364 2.043-.343 1.071-.059 2.243.736 3.037 0 0 1.878 1.879 1.878 1.879s-5.757 5.757-5.757 5.757-5.879-5.878-5.879-5.878c-1.171-1.172-3.071-1.172-4.242 0 0 0-14 14-14 14zm1.414 1.414 14-14c.39-.391 1.024-.391 1.414 0 0 0 6.586 6.586 6.586 6.586.187.187.442.293.707.293s.52-.106.707-.293l7.172-7.172c.39-.39.39-1.024 0-1.414l-2.586-2.586c-.265-.265-.36-.655-.245-1.012.114-.357.418-.62.788-.681 0 0 12-2 12-2 .318-.053.643.051.871.279s.332.553.279.871c0 0-2 12-2 12-.061.37-.324.674-.681.788-.357.115-.747.02-1.012-.245 0 0-2.586-2.586-2.586-2.586-.187-.187-.442-.293-.707-.293s-.52.106-.707.293l-10.586 10.586c-.39.391-1.024.391-1.414 0 0 0-6.586-6.586-6.586-6.586-.187-.187-.442-.293-.707-.293s-.52.106-.707.293l-10.586 10.586c-.39.391-1.024.391-1.414 0 0 0-2-2-2-2-.391-.39-.391-1.024 0-1.414z"/></g></g></g></svg>