<svg id="Capa_1" enable-background="new 0 0 512 512" height="512" viewBox="0 0 512 512" width="512" xmlns="http://www.w3.org/2000/svg"><g><path d="m477.053 181.032-53.682-26.833c-4.221-2.109-9.19-2.109-13.415.002l-53.697 26.857c-21.543 10.782-34.926 32.442-34.926 56.529v66.613c0 8.284 6.716 15 15 15h160.667c8.284 0 15-6.716 15-15v-66.637c0-24.102-13.393-45.765-34.947-56.531z" fill="#ffba1a"/><path d="m155.72 181.032-53.682-26.833c-4.221-2.109-9.19-2.109-13.415.002l-53.697 26.857c-21.543 10.782-34.926 32.443-34.926 56.529v66.613c0 8.284 6.716 15 15 15h160.667c8.284 0 15-6.716 15-15v-66.637c0-24.102-13.393-45.765-34.947-56.531z" fill="#ff7038"/><path d="m316.386 140.882-53.682-26.833c-4.221-2.109-9.19-2.109-13.415.002l-53.697 26.857c-21.543 10.782-34.926 32.442-34.926 56.529v106.763c0 8.284 6.716 15 15 15h160.667c8.284 0 15-6.716 15-15v-106.787c0-24.102-13.392-45.765-34.947-56.531z" fill="#00e4ef"/><path d="m316.386 140.882-53.682-26.833c-2.11-1.054-4.407-1.582-6.704-1.582v206.733h80.333c8.284 0 15-6.716 15-15v-106.787c0-24.102-13.392-45.765-34.947-56.531z" fill="#2ebeef"/><path d="m438.223 257.441c-1.413-.556-35.077-13.642-75.282-16.06-46.632-2.81-83.129 9.844-106.94 36.769-23.812-26.924-60.315-39.573-106.941-36.769-40.205 2.418-73.869 15.504-75.282 16.06-5.738 2.256-9.51 7.793-9.51 13.959v193.065c0 4.962 2.454 9.603 6.555 12.397 4.102 2.794 9.319 3.379 13.936 1.562.302-.119 30.598-11.899 66.104-14.037 44.605-2.684 75.586 10.767 92.075 39.985 2.66 4.713 7.652 7.628 13.063 7.628s10.404-2.915 13.063-7.628c16.403-29.065 47.154-42.533 91.412-40.023 35.564 2.016 66.474 13.96 66.768 14.075 4.618 1.817 9.834 1.231 13.936-1.562 4.101-2.794 6.555-7.435 6.555-12.397v-193.065c-.002-6.166-3.774-11.703-9.512-13.959z" fill="#ecf7fb"/><path d="m256 512c5.412 0 10.404-2.915 13.063-7.628 16.403-29.065 47.154-42.533 91.412-40.023 35.564 2.016 66.474 13.96 66.768 14.075 4.618 1.817 9.834 1.231 13.936-1.562 4.101-2.794 6.555-7.435 6.555-12.397v-193.065c0-6.166-3.772-11.703-9.51-13.959-1.413-.556-35.077-13.642-75.282-16.06-46.632-2.81-83.129 9.844-106.94 36.769z" fill="#c6e4f4"/><path d="m188.725 402.273c-12.941-2.649-27.69-3.252-43.838-1.789-8.244.747-15.545-5.334-16.292-13.586-.747-8.25 5.335-15.544 13.586-16.292 19.066-1.727 36.751-.961 52.562 2.276 8.116 1.662 13.348 9.588 11.687 17.704-.849 4.142-6.251 14.028-17.705 11.687z" fill="#433a36"/><path d="m188.725 337.926c-12.959-2.653-27.709-3.258-43.839-1.797-8.243.747-15.544-5.335-16.292-13.586s5.335-15.545 13.586-16.292c19.048-1.724 36.732-.956 52.562 2.284 8.116 1.662 13.349 9.588 11.687 17.704-.848 4.142-6.249 14.029-17.704 11.687z" fill="#433a36"/><path d="m323.275 402.273c12.941-2.649 27.69-3.252 43.838-1.789 8.244.747 15.545-5.334 16.292-13.586.747-8.25-5.335-15.544-13.586-16.292-19.066-1.727-36.751-.961-52.562 2.276-8.116 1.662-13.348 9.588-11.687 17.704.849 4.142 6.251 14.028 17.705 11.687z" fill="#151717"/><path d="m323.275 337.926c12.959-2.653 27.709-3.258 43.839-1.797 8.243.747 15.544-5.335 16.292-13.586s-5.335-15.545-13.586-16.292c-19.048-1.724-36.732-.956-52.562 2.284-8.116 1.662-13.349 9.588-11.687 17.704.848 4.142 6.249 14.029 17.704 11.687z" fill="#151717"/><circle cx="95.333" cy="111.384" fill="#fed2c2" r="71.233"/><circle cx="256" cy="71.233" fill="#faa17b" r="71.233"/><circle cx="416.667" cy="111.384" fill="#9e3727" r="71.233"/><path d="m256 0c39.278 0 71.233 31.955 71.233 71.233s-31.955 71.234-71.233 71.234z" fill="#ef8564"/></g></svg>