<?xml version="1.0" encoding="UTF-8"?>
<!-- Generator: Adobe Illustrator 16.0.0, SVG Export Plug-In . SVG Version: 6.00 Build 0)  -->
<svg xmlns="http://www.w3.org/2000/svg" xmlns:xlink="http://www.w3.org/1999/xlink" version="1.1" id="Orchestral_Musical_Instrument" x="0px" y="0px" width="512" height="512" viewBox="0 0 1200 1200" xml:space="preserve">
<g>
	<path fill="#FFFFFF" d="M1121.261,431.12c-14.394-28.787-48.199-40.12-78.432-34.594c3.309-6.95,5.014-14.572,5.457-22.239   c37.206,12.026,72.894-17.544,77.918-54.3c4.941-36.145-23.844-67.692-57.907-74.743c-13.435-2.781-13.896-19.432-13.354-23.154   c0.493-3.391,0.676-6.829,0.51-10.276c-0.92-19.109-11.979-34.012-27.137-44.708c-16.457-11.612-32.687-24.014-50.154-34.081   c-17.285-9.961-35.829-13.268-53.928-2.913c-8.66,4.956-26.906-0.612-32.982-5.683c-3.594-2.998-11.654-7.474-12.266-12.092   c-2.121-16.015-11.728-30.695-24.208-40.639c-28.734-22.894-68.522-19.784-92.948,7.701   c-11.771,13.245-18.081,30.466-15.122,47.851c2.074,12.189-4.61,13.77-13.63,24c-5.936,6.734-10.488,14.775-12.957,23.419   c-10.079,35.28,17.266,66.692,50.55,74.415c22.844,5.3,14.247,8.819,6.642,14.923c-29.908,24-59.472,48.431-88.67,73.29   c-15.933,13.563-41.456,29.885-54.178,26.523c-20.926-5.532-42.646-7.854-64.271-7.135c-40.205,1.336-76.107,14.202-112.084,30.991   c-15.067,7.032-33.221,12.722-44.332,25.737c-8.544,10.009-12.876,22.657-15.668,35.325c-3.953,17.938-6.931,36.356-6.188,54.781   c0.321,7.968,1.371,15.92,3.347,23.647c3.428,13.419,2.951,21.553-13.457,19.555c-15.874-1.932-27.204-18.125-40.57-25.528   c-15.279-8.463-33.382-6.879-46.19,5.222c-13.392,12.651-25.851,25.303-40.841,36.247c-16.889,12.331-35.105,22.614-53.027,33.331   c-34.396,20.568-65.91,44.017-89.022,77.284c-33.155,47.723-47.852,109.093-33.524,166.042   c7.186,28.565,21.131,54.988,38.205,78.838c10.094,14.099,21.301,27.38,33.173,40.007c4.076,4.335,3.659,14.021,6.651,19.803   c5.574,10.766,9.58,18.844-0.454,29.207c-9.19,9.491-18.4,18.965-27.612,28.436c-11.395,11.715-24.397,23.113-32.816,37.271   c-12.721,21.39-12.094,51.642,13.744,62.994c30.74,13.507,58.506-11.947,79.717-31.008c11.855-10.654,23.68-21.344,35.497-32.039   c4.252-3.849,8.503-7.698,12.752-11.55c10.474-9.495,26.973-7.293,34.354-2.661c45.539,28.57,98.204,51.941,152.085,55.98   c27.505,2.062,56.51-0.603,82.255-10.943c16.082-6.459,30.735-15.736,44.303-26.425c10.691-8.423,13.074-4.87,11.427,7.246   c-3.28,24.142,4.831,49.774,31.317,57.323c19.313,5.504,38.42-2.438,52.084-16.132c6.469-6.482,11.966-13.844,16.994-21.478   c6.451-9.795,8.231-15.217,18.793-11.322c39.731,14.649,67.188-25.816,83.812-55.269c20.079-35.574,43.503-69.29,65.653-103.605   c44.67-69.203,89.054-138.593,133.057-208.222c23.398-37.025,46.67-74.131,69.762-111.348   c12.033-19.392,24.018-38.814,35.944-58.272c5.774-9.421,11.536-18.851,17.282-28.29c5.307-8.715,10.045-18.1,16.678-25.881   c7.757-9.099,15.907-17.451,20.201-28.865C1128.648,459.404,1127.809,444.215,1121.261,431.12z M705.776,837.626   c-0.276-16.709-4.704-33.768-10.425-48.855c-2.883-7.603-6.161-15.501-10.511-22.407c-4.809-7.637-3.363-10.748,0.406-15.66   c2.16-2.813,4.498-5.486,6.994-8.006c16.706,17.792,29.117,47.648,59.256,41.822c-11.473,17.598-22.963,35.185-34.478,52.756   C711.085,846.331,705.896,844.869,705.776,837.626z M925.271,512.401c-27.77,48.443-58.732,95.209-89.244,142.031   c-9.344,14.338-9.639,6.869-8.65-1.883c6.168-54.636-7.227-110.174-33.664-158.343c-10.041-18.294-9.645-29.716,3.242-43.309   c13.736-14.487,27.535-28.914,41.395-43.283c13.587-14.088,27.231-28.122,40.928-42.105c7.003-7.149,14.02-14.285,21.048-21.408   c2.31-2.34,4.62-4.679,6.933-7.016c11.111-11.232,19.436,0.841,16.771,12.383c-0.966,4.18-1.504,8.458-1.656,12.745   c-0.473,13.289,2.58,26.971,8.197,39c7.062,15.124,19.765,26.557,35.305,31.268c12.119,3.674,8.8,5.83,1.473,14.875   C951.09,467.423,938.084,490.05,925.271,512.401C920.421,520.862,939.021,488.415,925.271,512.401z"/>
	<g>
		<g>
			<path fill="#68182B" d="M1062.474,420.083c-64.291-2.759-101.402,83.547-129.646,128.763     c-37.129,59.438-75.211,118.286-113.377,177.063c-73.714,113.505-147.756,226.888-223.977,338.733     c-8.572,14.2-15.102,31.521-4.701,46.521c7.242,10.447,22.82,8.698,31.639,1.556c13.463-10.906,21.771-27.071,31.117-41.438     c4.686-7.207,9.393-14.4,14.09-21.602c9.691,13.688,24.411,27.87,41.885,17.633c20.549-12.037,34.504-45.887,47.137-65.271     c38.043-58.375,75.789-116.943,113.333-175.641c70.559-110.313,140.534-221.046,208.356-333.067     c2.766-4.569,15.41-18.048,17.875-21.646C1113.632,446.246,1087.843,421.171,1062.474,420.083z M1007.087,546.277     c-27.803,44.353-56.047,88.429-84.352,132.46c-57.779,89.884-115.799,179.64-174.971,268.611     c-7.438,11.186-14.675,22.831-22.645,33.692c-2.329-2.774-4.799-5.45-7.414-8.019c43.389-66.331,86.814-132.638,130.09-199.043     c49.486-75.935,99.025-151.865,147.166-228.664c12.936-20.634,24.846-40.071,46.141-53.285     C1031.152,510.778,1018.14,528.646,1007.087,546.277z"/>
			<path fill="#68182B" d="M177.551,950.495c-1.74,8.479-0.726,16.316,5.858,21.293c6.211,4.695,12.75,4.311,18.992,1.392     c0.111,0.11,10.076,8.904,11.361,10.063c-22.553,24.11-79.965,82.776-86.707,89.841c-33.209,34.787-5.152,57.689,30.336,26.696     c11.453-10.002,72.205-65.024,94.375-85.242c41.555,31.102,88.039,56.027,138.173,69.112c29.604,7.727,60.592,8.9,90.423,2.018     c32.109-7.41,58.113-29.156,81.047-51.684c43.588-42.816,76.279-97.012,103.541-151.27c4.844-9.64,13.52-22.066,14.986-33.03     c2.84-21.264-4.736-48.803-15.07-67.679c-0.193-0.456-0.457-0.903-0.705-1.356c-0.045-0.078-0.085-0.17-0.13-0.249     c-0.011-0.021-0.026-0.034-0.038-0.054c-2.948-5.143-9.087-9.928-15.063-13.895c5.674-17.121,15.903-32.617,29.166-44.834     c19.709-18.151,36.199,7.787,46.396,22.275c5.995,8.167,17.338,22.219,27.209,13.498     c48.146-42.537,80.125-146.659,17.301-256.131c-0.078-0.148-0.15-0.303-0.229-0.452c-6.76-12.775-14.221-24.918-23.231-31.77     c52.14-55.787,105.284-110.684,159.113-164.838c6.011,3.746,11.749-0.133,21.349-8.129c3.666-3.142,7.158-6.503,10.587-9.924     c5.149,18.534,12.058,36.476,19.429,54.227c-12.037,12.876-9.846,32.691-3.859,47.8c8.41,21.23,28.248,25.869,45.848,18.25     c8.969-3.878,20.299-13.053,23.777-24.58c3.627-12.02,0.992-27.248-6.068-38.655c-7.41-11.979-13.049-14.841-22.48-15.662     c-7.236-19.307-15.811-38.107-22.082-57.766c1.75,1.448,3.605,2.892,5.453,4.367c14.676,11.716,30.412,21.902,46.389,31.72     c-1.182,13.519,4.865,27.521,19.006,37.431c11.873,8.32,24.912,12.285,38.371,5.345c4.521-2.332,8.304-6.01,11.354-10.319     c8.754-12.375,12.704-23.767,7.969-38.171c-5.717-17.392-23.045-28.938-40.602-31.09c-5.795-0.71-10.42,0.819-13.932,3.659     c-0.035,0.022-0.068,0.045-0.105,0.067c-11.904-7.951-24.186-15.327-36.156-23.168c14.196-10.713,27.005-28.367,19.242-46.577     c-3.238-7.598-10.33-12.917-16.777-17.234c-17.705-11.834-34.568-25.835-53.471-35.306c-10.135-5.08-24.102-0.14-29.703,9.498     c-4.544,7.821-5.164,15.158-3.248,21.931c-0.648,0.065-1.296,0.104-1.943,0.182c-24.105-18.146-46.887-37.98-70.213-57.104     c1.527-3.171,2.063-6.906,1.08-11.224c-4.019-17.641-20.203-29.761-37.477-32.475c-13.753-2.161-28.556,4.628-38.839,18.342     c-9.12,12.17-9.724,27.877,3.872,41.521c12.988,13.036,29.189,16.049,43.225,11.446c18.316,16.051,36.956,31.672,56.29,46.478     c-3.624,2.696-7.036,5.655-10.183,8.866c-14.152-6.982-28.02-14.537-42.271-21.319c0.34-5.939,1.304-8.887-6.767-17.861     c-9.658-10.744-26.937-15.053-40.341-14.461c-14.988,0.661-28.111,8.36-34.729,21.029c-7.947,15.214-2.608,33.006,14.398,43.181     c16.408,9.818,34.863,9.611,48.355,1.473c12.992,6.818,26.115,13.416,39.495,19.449     c-65.722,50.815-129.87,103.701-192.226,158.599c-49.261-21.813-103.99-21.221-154.383-2.661     c-11.862,4.369-51.511,23.499-60.266,27.393c-14.285,6.353-17.757,22.822-20.41,35.644c-6.482,31.349-9.826,64.33,12.215,90.266     c-13.609,12.402-30.941,21.587-47.043,23.001c-18.295,1.605-34.023-10.427-47.465-21.124     c-5.521-4.396-12.533-10.971-20.227-9.728c-5.221,0.843-8.271,5.318-11.727,8.95c-12.348,12.977-26.291,24.364-40.807,34.805     c-37.484,26.966-80.531,44.151-113.141,77.77c-38.268,39.451-60.477,95.665-54.258,150.494     c5.785,51.002,37.633,95.444,72.175,131.468C173.378,946.407,175.468,948.446,177.551,950.495z"/>
			<path fill="#FAC135" d="M747.62,488.467c-9.244-12.013-19.345-17.666-28.316-10.259c-3.842,3.171-7.662,6.362-11.365,9.696     c-8.387,7.554-16.596,15.298-24.666,23.19c-18.01,17.621-35.647,35.646-54.098,52.808c-20.461,19.03-43.834,41.768-70.561,54.157     c-21.435,9.937-32.264,14.827-52.029,3.112c-14.255,14.479-28.539,28.929-42.797,43.403c1.545,1.401,3.023,2.833,4.398,4.304     c24.033,25.721,17.658,53.051-2.555,75.949c-7.072,8.014-12.028,14.818-21.824,11.974c-16.26-4.72-32.603-13.907-47.255-24.429     c-8.882,8.899-17.722,17.843-26.642,26.705c10.66,9.624,28.074,27.501,19.512,39.799c-20.559,29.527-54.229,50.226-83.57,69.938     c-30.68,20.616-54.838,48.52-76.525,78.137c-3.904,5.334-9.994,13.389-17.064,19.567c17.992,15.015,40.621,38.3,101.186,59.462     c20.73,7.243,42.219,11.673,63.941,12.138c57.696,1.24,112.975-29.084,152.246-70.279c33.828-35.485,55.623-78.57,80.763-120.126     c10.521-17.393,21.585-34.609,34.299-50.512c9.726-12.181,7.493-12.104-5.599-22.745c-7.498-6.094-16.016-11.923-17.967-13.613     c-13.92-12.044-25.789-27.632-21.572-46.956c6.482-29.724,44.268-69.234,77.021-65.711c15.174,1.633,27.973,8.379,39.549,18.196     c2.886,2.446,9.586,10.177,16.449,16.033c13.561,11.571,18.881,2.648,23.901-11.536c13.343-37.724,21.524-68.242,21.181-96.859     C777.372,550.015,763.81,509.496,747.62,488.467z M561.845,824.222c-9.051,10.746-19.041,20.009-30.076,28.694     c-8.027,6.317-29.832,16.128-31.381,26.994c-0.535,3.755-0.068,10.869,1.461,13.588c3.263,5.813,4.243,3.394,5.307-0.789     c0.477-1.889,1.098-3.732,2.049-5.422c2.303-4.097,5.053-8.744,9.418-11.002c21.289-11.01,40.811,10.829,30.139,31.874     c-12.854,25.348-42.395,36.885-67.604,20.402c-26.215-17.142-34.598-47.054-16.606-73.605     c10.02-14.792,28.554-25.875,43.127-35.605c12.004-8.01,25.275-15.563,29.516-30.552c0.731-2.594,3.421-12.467,2.796-19.029     c-12.237,16.775-45.345,8.831-42.536-16.149c3.896-34.686,45.111-40.978,67.654-18.25     C591.456,761.938,584.57,797.244,561.845,824.222z"/>
			<path fill="#D5D5D5" d="M529.433,840.205c-12.623,10.705-28.82,16.811-37.973,31.004c-6.863,10.639-1.705,29.073,8.979,35.426     c20.123,11.963,14.228-21.076,30.311-22.275c13.928-1.036,8.508,17.126,5.566,22.923c-4.416,8.711-12.447,14.059-21.49,16.708     c-13.246,3.881-27.503-3.792-36.898-12.397c-32.794-30.037,6.285-62,30.492-78.854c18.736-13.047,34.646-22.388,41.189-45.524     c2.482-8.771,2.992-21.533-2.85-29.174c-1.97-2.577-10.965-10.402-13.416-1.687c-0.368,4.259-0.988,6.553-3.863,9.539     c-4.121,4.283-9.403,4.851-14.391,1.536c-7.889-5.242-9.815-16.872,0.488-27.715c10.686-11.239,29.113-7.387,39.82,2.315     c4.391,3.976,8.113,8.617,10.854,12.807c9.617,14.724,4.18,33.141-3.188,47.341C555.236,817.267,542.222,829.359,529.433,840.205     z"/>
			<path fill="#FAC135" d="M474.244,422.181c-5.267,2.955-19.851,6.721-29.392,12.12c-9.592,5.429-7.239,15.525-1.629,22.146     c5.004,5.902,10.59,11.36,15.104,17.656c38.733,54.01-41.506,125.39-96.175,104.644c-11.637-4.417-21.307-12.455-30.971-20.049     c-7.539-5.921-8.235-8.215-15.674-0.778c-8.428,8.428-17.07,16.672-26.455,24.041c-32.354,25.401-70.436,41.704-102.955,66.612     c-46.622,35.712-83.041,97.095-76.203,157.399c5.92,52.186,35.844,95.618,71.703,132.269     c4.492-10.363,11.041-20.143,14.771-25.449c22.102-31.452,42.789-61.578,60.324-95.8c12.85-25.08,28.594-52.467,49.734-72.1     c13.164-12.234,16.789-13.969,35.201-5.75c9.635-9.563,19.262-19.139,28.875-28.722c-8.152-8.999-13.592-19.645-9.512-28.473     c5.092-11.039,33.621-31.264,54.824-34.765c5.719-0.944,11.553-0.584,17.266,0.72c16.906-16.896,33.832-33.771,50.785-50.62     c-14.955-30.732,19.489-53.518,39.66-74.118c34.939-35.679,71.303-69.954,108.5-103.268c5.035-4.511,10.111-8.974,15.172-13.456     C589.922,382.721,527.636,392.21,474.244,422.181z M350.887,659.652c-17.653,4.855-30.097-9.875-27.656-23.234     c0.758-4.134,0.694-6.537-3.982-4.307c-9.301,4.439-14.761,13.207-16.278,15.935c-5.43,9.747-7.686,20.772-11.364,31.225     c-5.714,16.23-11.419,32.043-24.043,44.187c-18.692,17.982-48.036,11.706-64.239-5.721     c-18.446-19.836-7.916-48.402,12.801-61.266c20.248-12.572,35.041,12.869,23.773,29.227c-1.053,1.526-2.389,2.961-3.873,4.167     c-1.219,0.986-4.266,3.907,0.053,4.074c14.78,0.546,16.764-17.62,21.022-28.972c6.565-17.495,14.509-35.491,27.382-49.367     c18.502-19.943,47.48-32.736,71.888-13.798C375.242,616.445,379.362,651.82,350.887,659.652z"/>
			<path fill="#D5D5D5" d="M360.237,637.137c-3.853,11.561-17.9,18.08-24.178,8.635c-3.791-5.693-1.727-9.21,3.89-12.607     c3.843-2.325,4.587-7.003,1.659-10.293c-7.156-8.041-19.426-3.107-27.593,0.531c-17.126,7.632-24.323,23.93-29.534,40.636     c-8.102,25.99-19.205,64.838-54.058,57.645c-12.253-2.528-21.515-12.626-24.813-24.264     c-5.213-18.396,14.724-36.972,25.104-31.499c4.027,2.123,3.465,6.285,2.195,9.809c-1.232,3.423-3.787,5.688-6.73,7.45     c-3.92,2.345-8.705,4.803-8.525,9.874c0.172,4.762,3.926,8.646,9.085,10.539c11.901,4.369,22.983,0.927,31.029-8.626     c6.075-7.216,7.564-18.317,10.434-26.938c5.353-16.078,13.705-31.193,24.423-44.288c8.975-10.966,21.105-18.87,35.434-19.815     C348.521,602.577,364.628,621.117,360.237,637.137z"/>
			<path fill="#A2603F" d="M189.106,957.156c-0.625-7.652,2.31-13.288,9.836-27.239c11.068-20.51,27.422-38.744,40.548-57.964     c27.62-40.441,41.661-91.614,80.666-123.788c15.628-8.421,40.958,17.704,50.02,27.604c9.61,10.501,11.075,16.359,1.1,27.438     c-10.175,11.3-22.657,20.873-34.644,30.105c-21.442,16.521-44.926,29.847-65.23,47.845     c-16.87,14.956-31.314,32.595-44.955,50.467c-5.137,6.729-9.957,13.592-15.41,20.074     C209.163,953.927,190.304,971.868,189.106,957.156z"/>
			<path fill="#A2603F" d="M382.278,679.932c7.354-2.865,14.656-3.661,21.664-2.9c-8.539,8.535-17.084,17.066-25.631,25.594     C370.675,694.732,366.929,685.908,382.278,679.932z"/>
			<path fill="#FBF199" d="M522.579,540.712c13.994-14.684,28.398-28.974,42.92-43.134c31.514-30.726,64.105-60.34,97.084-89.477     c65.109-57.525,132.322-112.795,201.211-165.737c3.229,1.851,6.865,3.409,9.25,5.293     c-95.557,68.778-182.453,149.489-267.463,230.659c-38.144,36.422-75.768,73.369-113.201,110.513     C485.142,571.639,512.009,551.803,522.579,540.712z"/>
			<path fill="#FAC135" d="M930.554,193.076c6.703,9.303,17.457,17.191,27.389,23.379c-11.338,2.348-22.455,9.062-31.086,15.133     c-10.039,7.061-18.359,15.979-25.816,25.651c-0.737,0.958-1.32,1.889-1.906,2.822c-4.354-5.971-9.031-11.642-14.176-17.036     c-5.041-5.289-17.59-9.485-14.727-15.491c2.55-5.354,6.238-10.153,10.692-14.355     C895.364,199.548,917.147,193.548,930.554,193.076z"/>
			<path fill="#FBF199" d="M515.272,612.363c35.343-35.884,70.736-71.716,106.543-107.14     c84.945-84.039,171.698-167.597,266.92-240.069c0.889,1.232,1.742,2.464,2.596,3.708     c-64.49,62.882-130.877,123.787-196.457,185.523c-35.01,32.959-69.773,66.181-103.994,99.962     c-16.238,16.029-32.275,32.262-48.148,48.652C533.546,612.484,527.452,617.974,515.272,612.363z"/>
			<path fill="#FBF199" d="M496.007,595.101c36.516-36.232,73.166-72.333,110.311-107.932     c86.263-82.674,174.611-164.959,271.85-234.735c2.271,2.31,4.441,4.727,6.475,7.276     c-92.379,70.381-176.734,151.052-259.387,232.413c-39.108,38.5-77.68,77.536-116.182,116.639     C503.911,605.128,499.568,600.313,496.007,595.101z"/>
			<path fill="#FAC135" d="M487.524,603.495c3.364,4.837,7.979,9.66,13.231,13.694c-14.1,14.328-28.224,28.63-42.327,42.951     c-5.39-4.074-11.43-7.558-17.789-9.959C456.245,634.597,471.88,619.042,487.524,603.495z"/>
			<path fill="#D5D5D5" d="M449.963,668.735c-3.755,3.812-7.509,7.63-11.269,11.438c-5.457-4.389-11.391-7.922-17.713-10.368     c3.376-3.373,6.756-6.741,10.131-10.114C437.71,661.416,444.054,664.67,449.963,668.735z"/>
			<path fill="#D5D5D5" d="M455.771,673.075c20.992,16.948,19.684,36.604,8.658,54.092c-1.26-17.575-9.434-31.621-20.535-42.407     c3.895-3.944,7.783-7.896,11.674-11.844C455.634,672.97,455.704,673.021,455.771,673.075z"/>
			<path fill="#A2603F" d="M435.835,692.934c3.933,3.829,7.463,8.148,10.424,12.849c4.217,8.394,7.272,17.706,6.457,26.86     c-1.068,11.97-9.748,12.151-18.565,7.915c-10.007-4.806-19.663-10.589-28.931-16.874     C415.423,713.432,425.666,703.219,435.835,692.934z"/>
			<path fill="#A2603F" d="M399.425,719.692c-3.023-2.163-6.02-4.36-8.935-6.62c-2.22-1.721-4.714-3.666-7.146-5.745     c9.582-9.56,19.187-19.098,28.764-28.664c6.661,1.952,12.936,5.28,18.539,9.681C420.28,698.834,409.827,709.24,399.425,719.692z"/>
			<path fill="#D5D5D5" d="M413.481,667.496c-4.795-1.178-9.738-1.818-14.807-1.781c1.77-1.072,3.533-2.149,5.393-3.118     c6.223-3.24,12.429-4.435,18.498-4.183C419.536,661.443,416.507,664.47,413.481,667.496z"/>
			<path fill="#FAC135" d="M375.349,715.294c0.441,0.409,0.877,0.837,1.326,1.234c4.436,3.936,9.219,7.877,14.231,11.706     c-8.735,8.757-17.423,17.561-26.199,26.276c-4.587-3.938-10.337-8.412-16.622-12.058     C357.188,733.416,366.261,724.35,375.349,715.294z"/>
			<path fill="#AA8053" d="M138.403,1079.555c10.76-11.745,21.732-23.294,32.691-34.853c17.057-17.984,34.34-35.762,51.281-53.857     c6.559,5.672,13.268,11.203,20.116,16.575c-30.919,28.228-62.778,55.575-94.601,82.812     C126.171,1108.828,118.905,1100.848,138.403,1079.555z"/>
			<path fill="#A2603F" d="M668.099,849.686c-5.734,11.396-10.948,23.049-16.734,34.425c-25.124,49.402-55.391,96.777-93.58,137.128     c-21.119,22.313-45.095,41.993-74.596,51.688c-31.215,10.256-65.489,6.067-96.6-2.051c-32.106-8.378-62.949-22.733-91.772-40.536     c17.546,7.19,35.782,12.758,54.685,16.284c52.646,9.822,99.324-5.572,143.502-33.811c39.637-25.333,69.031-61.935,93.485-101.512     c11.733-18.987,22.426-38.604,33.851-57.777c11.802-19.804,26.033-37.147,39.384-55.629     C666.657,814.227,673.784,838.393,668.099,849.686z"/>
			<path fill="#A2603F" d="M751.621,741.469c-7.433,9.669-12.458,3.053-17.188-3.387c-12.604-17.913-28.238-41.879-53.719-31.773     c-19.795,7.85-34.533,33.131-41.841,53.788c-0.931-0.594-1.792-1.154-2.464-1.638c-11.266-8.117-22.111-18.012-25.592-31.92     c-6.12-24.454,25.377-49.953,42.582-60.88c33.443-21.234,52.904,12.583,76.594,29.905c16.891,12.345,27.611,4.767,36.893-15.23     c7.487-16.139,17.86-46.438,23.239-89.247C797.3,634.965,791.24,689.92,751.621,741.469z"/>
			<path fill="#A2603F" d="M707.458,473.126c-29.049,23.986-54.582,52.286-81.796,78.269     c-19.034,18.176-42.108,41.863-67.944,54.807c14.172-14.153,27.438-29.97,41.303-43.714     c20.709-20.53,41.713-40.764,62.793-60.912c77.436-74.012,156.84-145.953,233.63-220.639c1.118,5.892,2.167,11.392,2.788,13.387     c-55.361,55.663-110.012,112.1-163.578,169.493C726.798,462.135,717.862,464.534,707.458,473.126z"/>
			<path fill="#D5D5D5" d="M965.351,333.008c-2.818-6.845-5.586-13.708-8.18-20.647c-1.897-5.077-16.094-38.911-11.941-42.095     c13.959-10.702,17.975,12.309,21.527,21.618c4.59,12.021,9.672,23.848,14.277,35.864     C975.505,328.508,970.223,330.201,965.351,333.008z"/>
			<path fill="#A2603F" d="M964.003,386.544c-9.813-17.603-4.943-36.806,9.451-44.492c-0.486,0.936-0.939,1.896-1.35,2.892     c-6.537,15.952-0.004,36.353,11.947,48.299c4.088,4.08,3.791,5.694-2.685,5.278C974.64,398.088,968.392,394.41,964.003,386.544z"/>
			<path fill="#FBF199" d="M1011.737,370.77c0.078,10.366-5.379,23.346-17.24,16.57c-10.168-7.457-12.902-19.68-12.824-31.641     c0.078-11.729,9.574-21.718,19.648-12.186C1008.414,350.221,1011.665,361.312,1011.737,370.77z"/>
			<path fill="#D5D5D5" d="M974.14,253.58c6.832-14.917,21.557,1.224,29.867,6.677c10.385,6.815,21.043,13.192,31.447,19.971     c-4.232,4.218-7.426,8.98-9.532,14.047C1009.885,284.861,970.479,261.579,974.14,253.58z"/>
			<path fill="#A2603F" d="M1051.154,335.679c-16.377-9.786-20.399-25.751-13.759-38.895c0.107,0.717,0.22,1.432,0.377,2.134     c3.796,16.888,21.322,30.44,38.248,32.572c4.342,0.549,5.376,1.66,1.072,4.77C1070.284,341.179,1061.3,341.737,1051.154,335.679z     "/>
			<path fill="#FBF199" d="M1067.944,282.642c5.501,2.42,10.605,6.423,14.277,10.151c7.221,7.331,13.969,25.691-1.347,27.517     c-10.951,0.092-18.925-5.57-25.923-13.508c-3.082-3.497-6.553-10.616-6.717-16.577     C1047.983,281.131,1058.677,278.565,1067.944,282.642z"/>
			<path fill="#A2603F" d="M1000.288,241.676c-0.514,0.351-0.914,0.753-1.265,1.174c-2.872-2.019-5.772-3.993-8.563-6.134     c-9.266-7.103-19.428,1.381-24.885,8.743c-3.375,4.552-4.318,8.372-3.736,11.77c-4.943-1.947-11.099-1.509-16.461,0.205     c-9.807,3.134-12.236,8.355-11.728,15.313c-5.06,5.25-10.251,10.443-15.786,15.185c-6.455,5.384-7.953,6.611-10.055-2.507     c-2.398-12.64-0.455-18.226,7.721-27.989c5.848-6.982,12.914-12.935,20.332-18.153c9.248-6.503,23.357-14.432,35.215-11.493     c9.813,10.198,29.438,0.283,30.73-14.266c0.656-7.398-10.861-7.335-11.514,0c-0.682,7.666-11.877,9.71-12.761,1.674     c-0.459-4.165,2.676-7.804,5.246-10.668c5.188-5.777,12.811-8.444,20.413-8.136c10.041,0.411,14.574,5.914,15.764,16.334     C1020.329,224.766,1009.194,235.587,1000.288,241.676z"/>
			<path fill="#A2603F" d="M935.627,170.843c4.69-21.969,28.614-3.146,37.95,3.272c5.943,4.083,11.859,8.197,17.811,12.255     c-0.559,0.15-1.115,0.214-1.672,0.391c-9.74,3.124-19.628,11.698-22.644,21.801C953.362,200.472,932.304,186.417,935.627,170.843     z"/>
			<path fill="#FBF199" d="M816.269,92.857c10.42,1.637,18.697,8.448,24.127,17.202c8.82,14.219-9.017,17.511-19.006,14.861     c-5.232-1.388-10.121-4.11-14.014-7.803c-9.954-9.438-12.918-19.671-1.859-23.722C808.542,92.291,812.364,92.243,816.269,92.857z     "/>
			<path fill="#A2603F" d="M789.567,133.019c-10.906-9.397-8.729-19.772-1.631-27.798c0.021,0.193,0.019,0.375,0.059,0.575     c3.481,17.022,21.043,30.773,38.334,31.823c1.15,0.069,2.342,0.049,3.543-0.014C818.487,145.771,802.722,144.356,789.567,133.019     z"/>
			<path fill="#D5D5D5" d="M835.745,147.036c4.375-3.076,8.27-7.031,11.48-11.77c20.314,16.724,40.35,33.802,61.132,49.948     c-5.975,1.819-11.749,4.295-17.214,7.31C872.056,178.108,853.755,162.761,835.745,147.036z"/>
			<path fill="#D5D5D5" d="M863.118,216.97c-2.545,3.555-5.479,8.669-6.156,13.544c-12.895-5.739-25.543-12.025-38.061-18.542     c3.242-3.818,5.783-8.381,7.467-13.595C838.712,204.387,850.827,210.855,863.118,216.97z"/>
			<path fill="#FBF199" d="M789.032,165.768c6.795,0.2,15.385,3.398,21.423,8.476c7.575,6.361,8.942,15.374,0.575,18.065     c-6.904,2.222-17.291,1.599-20.608,0.979c-6.187-1.158-12.86-3.083-18.226-6.67c-8.639-5.772-12.465-13.939-0.521-18.554     C777.175,165.941,784.591,165.638,789.032,165.768z"/>
			<path fill="#A2603F" d="M766.858,208.576c-10.658-5.459-13.98-14.47-11.633-23.138c9.416,15.093,30.164,20.577,47.011,20.449     c2.7-0.021,5.442-0.455,8.087-1.226C800.75,215.866,782.714,216.695,766.858,208.576z"/>
			<path fill="#A2603F" d="M432.331,462.807c13.168,18.141,34.461,30.499,22.1,58.479c-2.907,6.579-7.256,13.087-12.535,19.156     C423.51,518.695,426.669,489.663,432.331,462.807z"/>
			<path fill="#FAC135" d="M715.22,1044.395c-9.834,15.001-22.572,13.456-32.621,4.576c-7.58-6.701-3.598-16.764,3.242-27.231     c8.471-12.966,16.957-25.92,25.433-38.881c13.767,14.133,26.247,27.471,14.167,45.933     C722.036,1033.995,718.626,1039.196,715.22,1044.395z"/>
			<path fill="#D5D5D5" d="M892.804,769.199c-33.422,52.573-67.068,105.008-100.88,157.334     c-15.032,23.261-30.112,46.489-45.226,69.697c-1.969,3.024-3.948,6.044-5.92,9.069c-3.2-6.609-6.965-12.847-11.281-18.695     c14.162-18.824,26.572-39.237,39.52-58.842c28.676-43.416,57.084-87.009,85.427-130.645     c50.142-77.192,154.093-239.815,186.688-292.785c5.396-8.77,12.006-18.976,29.163-20.044     C1012.374,580.023,952.831,674.775,892.804,769.199z"/>
			<path fill="#A2603F" d="M1047.026,476.488c-22.672,9.689-39.063,26.033-51.913,46.817c-19.931,32.23-40.375,64.146-60.847,96.034     c-57.826,90.089-116.456,179.664-175.059,269.248c-26.854,41.05-53.729,82.083-80.564,123.144     c-10.951,16.755-21.894,33.517-32.813,50.289c-4.928,7.567-9.846,15.138-14.756,22.712c-2.694,4.158-5.174,7.796-8.174,11.49     c-16.931,20.825-29.646,7.492-25.41-8.531c1.578-6.26,4.221-12.006,7.926-17.238     c101.087-148.338,199.156-298.896,295.811-450.153c20.373-31.884,40.631-63.848,60.41-96.103     c12.586-20.524,24.822-41.019,40.676-59.269c16.947-19.514,62.452-52.068,84.184-21.745     C1105.942,470.32,1061.069,470.486,1047.026,476.488z"/>
			<path fill="#81391C" d="M958.901,367.561c-0.027,6.13,1.576,12.658,5.102,18.983c4.389,7.866,10.637,11.544,17.364,11.977     c6.476,0.416,6.772-1.198,2.685-5.278c-3.223-3.22-6.031-7.068-8.315-11.263c-2.134-0.832-4.224-1.838-6.247-3.016     C964.194,375.883,960.923,371.993,958.901,367.561z"/>
			<path fill="#81391C" d="M993.474,238.874c1.849,1.329,3.688,2.667,5.55,3.976c0.351-0.42,0.751-0.823,1.265-1.174     c8.906-6.089,20.041-16.91,18.668-28.949c-0.771-6.748-2.978-11.398-7.141-13.976c4.99,11.03,1.291,24.448-8.067,32.833     C1000.613,234.393,997.079,236.677,993.474,238.874z"/>
			<path fill="#81391C" d="M887.249,298.484c-6.786,6.755-13.537,13.548-20.291,20.334c-21.334,21.441-42.656,42.889-63.967,64.353     c-26.828,27.016-53.549,54.134-80.262,81.262c4.242-1.254,8.209-1.411,11.924-0.616     c53.566-57.393,108.217-113.83,163.578-169.493c-0.326-1.046-0.77-3.063-1.277-5.584     C893.888,292.345,890.049,295.695,887.249,298.484z"/>
			<path fill="#81391C" d="M935.349,174.792c0.555,13.978,19.184,26.37,31.724,33.77c1.771-5.93,5.935-11.295,11.021-15.378     C961.524,194.643,943.571,188.803,935.349,174.792z"/>
			<path fill="#81391C" d="M410.319,1063.825c-15.279-0.938-30.924-5.284-45.604-9.489c-8.918-2.554-18-5.688-26.313-10.099     c-14.958-3.463-29.505-8.127-43.586-13.898c28.823,17.803,59.666,32.158,91.772,40.536c31.11,8.118,65.385,12.307,96.6,2.051     c29.501-9.694,53.477-29.374,74.596-51.688c16.532-17.468,31.502-36.31,45.291-56.005c-23.277,23.408-49.186,44.258-76.107,62.31     C492.116,1050.913,452.854,1066.437,410.319,1063.825z"/>
			<path fill="#81391C" d="M1081.153,437.38c-0.809,7.366-3.998,14.418-9.777,20.199c-11.796,11.799-31.734,13.858-46.486,20.544     c-12.754,5.781-26.232,17.613-34.308,29.015c-6.876,9.707-13.173,19.855-19.617,29.851     c-29.849,46.28-59.243,92.854-88.655,139.412c-78.551,124.327-156.838,248.826-234.396,373.773     c-11.104,17.888-22.125,35.83-33.159,53.761c2.56-1.72,5.284-4.193,8.147-7.713c3-3.694,5.479-7.332,8.174-11.49     c4.91-7.574,9.828-15.145,14.756-22.712c10.919-16.772,21.861-33.534,32.813-50.289c26.835-41.061,53.711-82.094,80.564-123.144     c58.603-89.584,117.232-179.159,175.059-269.248c20.472-31.888,40.916-63.804,60.847-96.034     c12.851-20.784,29.241-37.127,51.913-46.817c14.043-6.002,58.916-6.168,39.471-33.306     C1084.851,440.885,1083.052,438.987,1081.153,437.38z"/>
			<path fill="#81391C" d="M435.369,530.777c1.794,3.346,3.921,6.585,6.526,9.665c5.279-6.069,9.628-12.577,12.535-19.156     c7.631-17.271,2.427-28.585-5.761-38.985C450.991,500.117,446.884,517.144,435.369,530.777z"/>
			<path fill="#81391C" d="M200.384,960.427c4.911-2.959,9.75-7.656,10.652-8.729c5.453-6.482,10.273-13.346,15.41-20.074     c13.641-17.872,28.085-35.511,44.955-50.467c20.305-17.998,43.788-31.323,65.23-47.845c11.986-9.232,24.469-18.806,34.644-30.105     c9.976-11.078,8.511-16.937-1.1-27.438c-2.864-3.128-7.357-7.877-12.651-12.645c9.881,36.356-39.518,69.502-66.036,90.037     c-22.055,17.078-40.946,37.417-57.657,59.709C222.233,928.337,213.331,946.442,200.384,960.427z"/>
			<path fill="#81391C" d="M384.552,696.394c-3.117-4.663-5.26-9.693-5.666-14.908c-11.262,5.89-7.576,13.903-0.574,21.14     C380.392,700.549,382.472,698.47,384.552,696.394z"/>
			<path fill="#81391C" d="M452.716,732.643c0.301-3.385,0.066-6.791-0.551-10.164c-11.534,7.436-28.473,3.562-41.982-3.78     c-1.656,1.659-3.309,3.323-4.963,4.985c9.268,6.285,18.924,12.068,28.931,16.874     C442.968,744.794,451.647,744.612,452.716,732.643z"/>
			<path fill="#81391C" d="M390.49,713.072c2.915,2.26,5.911,4.457,8.935,6.62c1.551-1.559,3.103-3.119,4.656-4.678     c-5.289-3.505-10.766-7.998-15.281-13.125c-1.82,1.813-3.639,3.625-5.455,5.438C385.776,709.406,388.271,711.352,390.49,713.072z     "/>
			<path fill="#81391C" d="M636.409,758.459c0.672,0.483,1.533,1.044,2.464,1.638c7.308-20.657,22.046-45.938,41.841-53.788     c3.187-1.264,6.218-1.995,9.109-2.271c-17.841-6.658-40.519-1.702-56.97,5.289c-8.604,3.656-16.052,11.628-20.823,20.948     C616.376,742.232,626.188,751.095,636.409,758.459z"/>
			<path fill="#81391C" d="M770.71,210.251c14.848,6.147,30.805,4.72,39.613-5.59c-2.645,0.771-5.387,1.205-8.087,1.226     c-2.278,0.018-4.628-0.079-7.009-0.274C787.546,208.713,778.801,210.5,770.71,210.251z"/>
			<path fill="#81391C" d="M789.567,133.019c13.154,11.337,28.92,12.752,40.305,4.587c-1.201,0.063-2.393,0.083-3.543,0.014     c-4.822-0.292-9.654-1.604-14.205-3.666c-7.92,1.855-16.506,0.965-24.133-2.411C788.487,132.036,789.001,132.53,789.567,133.019z     "/>
			<path fill="#81391C" d="M907.81,285.424c2.102,9.118,3.6,7.891,10.055,2.507c5.535-4.742,10.727-9.935,15.786-15.185     c-0.097-1.327-0.042-2.57,0.104-3.766c-8.633,4.623-20.888,11.061-26.774,5.799C906.747,277.834,907.013,281.221,907.81,285.424z     "/>
			<path fill="#81391C" d="M1051.154,335.679c10.146,6.059,19.13,5.5,25.938,0.581c4.304-3.11,3.27-4.22-1.072-4.77     c-3.65-0.458-7.32-1.477-10.882-2.918c-3.368,0.503-6.692,0.753-9.626,0.85c-5.717,0.187-10.67-0.924-15.015-2.97     C1043.163,329.862,1046.682,333.006,1051.154,335.679z"/>
			<path fill="#F5995A" d="M345.188,770.263c-1.115-1.999-3.215-4.229-5.736-6.101c-10.172-7.545-13.643-6.485-25.354,7.646     c-7.483,9.034-15.403,20.726-17.934,24.872c-5.605,9.192-12.533,18.961-13.961,29.852c-2.32,17.691,26.965-4.21,30.299-6.537     C325.718,810.764,355.879,789.462,345.188,770.263z"/>
			<path fill="#F5995A" d="M966.649,172.838c3.592,1.394,7.238,2.673,10.87,3.989c-1.313-0.906-2.626-1.808-3.942-2.712     c-8.83-6.069-30.685-23.186-36.999-6.44C946.261,164.819,957.513,169.289,966.649,172.838z"/>
			<path fill="#F5995A" d="M445.403,1037.217c4.231-0.769,8.452-1.614,12.637-2.676c15.57-3.948,29.969-12.28,43.574-20.562     c27.832-16.939,52.388-38.81,72.713-64.206c19.795-24.729,35.777-52.317,52.226-79.302c12.198-20.008,25.499-39.279,38.3-58.881     c-1.579-4.846-3.359-9.527-5.13-13.696c-13.351,18.481-27.582,35.825-39.384,55.629c-11.425,19.173-22.117,38.79-33.851,57.777     c-24.454,39.577-53.849,76.179-93.485,101.512C477.497,1022.723,461.675,1031.004,445.403,1037.217z"/>
			<path fill="#F5995A" d="M729.993,695.564c-23.689-17.322-43.15-51.14-76.594-29.905c-2.289,1.455-4.842,3.185-7.518,5.118     c2.393-1.309,4.835-2.543,7.412-3.598c16.813-6.877,32.125-1.104,45.271,9.838c13.771,11.461,26.318,31.382,45.358,34.299     c26.579,4.07,32.983-41.961,35.349-58.965c0.529-3.791,0.949-7.598,1.318-11.412c-4.564,17.252-9.572,30.49-13.705,39.395     C757.604,700.331,746.884,707.909,729.993,695.564z"/>
			<path fill="#F5995A" d="M916.046,256.87c15.799-13.85,37.715-22.312,57.896-26.874c-1.012-0.6-1.988-1.297-2.865-2.208     c-11.857-2.939-25.967,4.99-35.215,11.493C928.651,244.354,921.794,250.14,916.046,256.87z"/>
			<path fill="#F3AF79" d="M807.376,117.118c3.893,3.692,8.781,6.415,14.014,7.803c8.705,2.31,23.359,0.099,21.145-9.919     c-4.632,4.068-12.345,5.044-19.486,3.292c-7.195-1.765-12.881-6.685-17.197-12.522c-3.047-4.117-3.533-7.652-2.898-11.147     C795.074,99.261,798.299,108.513,807.376,117.118z"/>
			<path fill="#F3AF79" d="M772.196,186.617c5.365,3.587,12.039,5.512,18.226,6.67c3.317,0.621,13.704,1.243,20.608-0.979     c4.48-1.441,6.097-4.706,5.537-8.396c-6.605,5.116-15.624,5.581-25.305,2.984c-6.719-1.801-21.566-7.448-24.48-16.08     C761.259,175.496,765.084,181.866,772.196,186.617z"/>
			<path fill="#F3AF79" d="M492.38,588.829c5.768-5.725,11.584-11.4,17.363-17.115c-1.785-4.758-2.597-10.148-2.475-15.848     c0.002-0.14,0.026-0.276,0.031-0.416C497.16,565.659,487.729,577.784,492.38,588.829z"/>
			<path fill="#F3AF79" d="M542.731,603c4.41-4.554,8.867-9.064,13.303-13.595c-6.291,0.854-12.572,1.147-18.74,0.67     c-7.337,7.434-14.692,14.848-22.021,22.289C527.452,617.974,533.546,612.484,542.731,603z"/>
			<path fill="#F3AF79" d="M509.073,608.762c6.553-6.654,13.135-13.279,19.693-19.926c-7.004-1.761-12.153-5.538-15.664-10.609     c-5.691,5.633-11.412,11.234-17.096,16.874C499.568,600.313,503.911,605.128,509.073,608.762z"/>
			<path fill="#F3AF79" d="M981.673,355.699c-0.078,11.96,2.656,24.184,12.824,31.641c11.861,6.775,17.318-6.204,17.24-16.57     c-0.006-0.924-0.07-1.873-0.139-2.822c-2.324,8.424-6.738,16.487-14.381,12.327c-6.328-3.44-9.748-12.448-11.846-18.813     c-1.541-4.67-2.15-9.393-1.934-14.112C982.334,349.823,981.692,352.701,981.673,355.699z"/>
			<path fill="#F3AF79" d="M1048.235,290.225c0.164,5.961,3.635,13.081,6.717,16.577c6.998,7.938,14.972,13.6,25.923,13.508     c6.515-0.776,9.013-4.556,9.206-9.195c-5.213,6.404-14.119,4.322-20.589,0.81c-10.202-5.541-17.603-16.64-18.698-28.125     C1049.185,285.356,1048.159,287.447,1048.235,290.225z"/>
			<path fill="#EE9E2B" d="M196.37,912.79c9.775-13.908,19.246-27.569,28.314-41.43c-5.291,3.28-10.646,6.413-16.111,9.222     c-23.129,11.887-47.506,5.512-65.697-11.766c-13.422-12.747-24.051-30.529-30.953-49.998     c8.982,46.509,36.805,85.826,69.676,119.421C186.091,927.876,192.64,918.097,196.37,912.79z"/>
			<path fill="#EE9E2B" d="M717.381,667.519c3.308,3.198,9.19,9.76,15.198,14.887c13.561,11.571,18.881,2.648,23.901-11.536     c13.343-37.724,21.524-68.242,21.181-96.859c-0.268-22.338-12.045-58.976-26.73-80.9c10.266,31.647,15.533,63.934,12.582,97.844     c-1.921,22.044-8.061,43.57-17.824,63.395C739.649,666.608,728.874,668.506,717.381,667.519z"/>
			<path fill="#EE9E2B" d="M685.841,1021.739c-6.84,10.468-10.822,20.53-3.242,27.231c10.049,8.88,22.787,10.425,32.621-4.576     c0.965-1.473,1.93-2.945,2.895-4.419c-11.027,5.035-22.025,7.529-27.236-7.346c-1.922-5.491-1.906-11.284-0.963-17.119     C688.558,1017.589,687.196,1019.661,685.841,1021.739z"/>
			<path fill="#EE9E2B" d="M884.958,243.025c5.145,5.395,9.822,11.065,14.176,17.036c0.586-0.934,1.169-1.865,1.906-2.822     c7.457-9.672,15.777-18.59,25.816-25.651c6.371-4.481,14.102-9.303,22.271-12.471c-6.368,0.549-12.658,2.011-18.641,4.567     c-7.531,3.215-13.998,8.65-21.046,12.729c-14.302,8.279-31.171-3.823-32.72-18.745c-2.578,3.047-4.801,6.321-6.49,9.865     C867.368,233.54,879.917,237.736,884.958,243.025z"/>
			<path fill="#EE9E2B" d="M377.39,1038.118c57.696,1.24,112.975-29.084,152.246-70.279c33.828-35.485,55.623-78.57,80.763-120.126     c10.521-17.393,21.585-34.609,34.299-50.512c9.726-12.181,7.493-12.104-5.599-22.745c-7.498-6.094-16.016-11.923-17.967-13.613     c-2.582-2.235-5.094-4.592-7.445-7.072c8.455,16.845,23.875,30.805,13.465,49.567c-41.725,75.191-96.979,163.087-143.666,194.527     c-50.773,34.191-109.581,34.823-166.423,17.646c-27.267-8.244-57.175-24.38-67.104-53.505     c-5.574-16.346-1.244-33.122,5.968-48.394c-9.39,10.646-18.189,21.853-26.599,33.339c-3.904,5.334-9.994,13.389-17.064,19.567     c17.992,15.015,40.621,38.3,101.186,59.462C334.179,1033.224,355.667,1037.653,377.39,1038.118z"/>
			<path fill="#FBE134" d="M930.554,193.076c-11.65,0.412-29.617,5.01-43.604,15.152c12.516-3.78,25.08-6.071,38.516-6.454     c4.416-0.126,8.816,0.041,13.213,0.324C935.634,199.259,932.845,196.257,930.554,193.076z"/>
			<path fill="#FBE134" d="M268.527,606.497c15.333-8.332,28.228-20.438,43.286-29.188c13.996-8.133,28.207,1.082,41.967,4.477     c8.234,2.031,16.971,2.179,25.383,1.653c3.611-0.226,7.396-0.691,11.158-1.458c-9.65,1.043-19.25,0.148-28.168-3.236     c-11.637-4.417-21.307-12.455-30.971-20.049c-7.539-5.921-8.235-8.215-15.674-0.778c-8.428,8.428-17.07,16.672-26.455,24.041     c-32.354,25.401-70.436,41.704-102.955,66.612c-7.779,5.959-15.233,12.688-22.291,19.95     c21.225-17.461,46.012-31.337,70.823-44.256C245.946,618.374,257.315,612.588,268.527,606.497z"/>
			<path fill="#FBE134" d="M474.244,422.181c-5.267,2.955-19.851,6.721-29.392,12.12c-9.592,5.429-7.239,15.525-1.629,22.146     c5.004,5.902,10.59,11.36,15.104,17.656c16.991,23.691,11.083,50.721-5.509,71.854c11.531-9.881,20.188-22.446,22.153-38.392     c1.522-12.341-2.728-24.533-8.307-35.286c-5.336-10.29-6.964-17.944,2.114-27.101c5.266-5.307,11.635-9.417,18.047-13.184     c23.47-13.784,51.678-19.792,78.121-24.944c23.996-4.672,47.973-5.792,71.982-4.473     C582.544,383.94,524.462,393.991,474.244,422.181z"/>
			<path fill="#865725" d="M242.492,1007.42c-2.993-2.348-5.851-4.837-8.79-7.243c-6.938,8.871-15.518,16.803-23.031,24.922     c-10.651,11.509-21.128,23.18-31.674,34.785c-5.508,6.061-11.086,12.051-16.707,18     C189.302,1054.714,216.237,1031.389,242.492,1007.42z"/>
			<path fill="#BEBEBE" d="M477.927,911.593c9.396,8.605,23.652,16.278,36.898,12.397c9.043-2.649,17.074-7.997,21.49-16.708     c1.383-2.726,3.291-8.174,3.502-13.085c-12.094,16.789-29.584,28.538-50.9,15.707c-18.504-11.138-19.342-32.704-11.186-50.705     C464.438,874.915,458.28,893.598,477.927,911.593z"/>
			<path fill="#BEBEBE" d="M420.981,669.806c6.322,2.446,12.256,5.979,17.713,10.368c1.748-1.77,3.49-3.541,5.235-5.313     c-5.732-3.931-12.35-7.083-19.122-8.873C423.532,667.26,422.257,668.533,420.981,669.806z"/>
			<path fill="#BEBEBE" d="M402.866,665.958c3.604,0.238,7.158,0.688,10.615,1.538c0.988-0.989,1.979-1.979,2.967-2.968     C411.77,664.148,407.171,664.57,402.866,665.958z"/>
			<path fill="#BEBEBE" d="M205.61,697.419c3.299,11.638,12.561,21.735,24.813,24.264c23.196,4.787,35.868-10.825,44.142-29.465     c-6.787,8.795-15.627,15.705-28.023,19.325c-12.588,3.677-26.662-0.049-34.355-10.793c-3.609-5.042-5.76-11.527-5.889-17.922     C204.679,687.384,204.187,692.398,205.61,697.419z"/>
			<path fill="#BEBEBE" d="M464.429,727.167c1.982-3.146,3.639-6.364,4.918-9.622c-1.453-11.763-6.719-23.402-13.598-31.961     c-1.795-2.23-3.941-4.391-6.313-6.449c-1.848,1.876-3.694,3.752-5.543,5.625C454.995,695.546,463.169,709.592,464.429,727.167z"/>
			<path fill="#BEBEBE" d="M985.97,595.91c12.838-13.273,25.975-26.262,39.711-38.567c14.963-24.294,29.846-48.641,44.614-73.054     c-17.157,1.068-23.767,11.274-29.163,20.044c-12.605,20.485-35.9,57.396-62.611,99.396     C981.007,601.127,983.466,598.498,985.97,595.91z"/>
		</g>
	</g>
</g>
</svg>
