<svg enable-background="new 0 0 512 512" viewBox="0 0 512 512" xmlns="http://www.w3.org/2000/svg"><g id="_x34_4_Experience_point"><g><circle cx="256" cy="256.001" fill="#f4ecbb" r="240.477"/><path d="m496.477 256.001c0 132.84-107.638 240.478-240.478 240.478-84.68 0-159.164-43.799-202.001-109.979 37.579 24.337 82.372 38.444 130.467 38.444 132.84 0 240.478-107.638 240.478-240.478 0-48.096-14.108-92.92-38.444-130.499 66.179 42.838 109.978 117.29 109.978 202.034z" fill="#f8cf6d"/><circle cx="256" cy="256.001" fill="#f7bd85" r="162.447"/><path d="m418.434 256.001c0 89.714-72.72 162.434-162.435 162.434-63.422 0-118.347-36.36-145.088-89.329 21.964 11.062 46.781 17.314 73.073 17.314 89.714 0 162.435-72.72 162.435-162.434 0-26.292-6.252-51.11-17.314-73.073 52.969 26.741 89.329 81.666 89.329 145.088z" fill="#df9563"/><g fill="#000013"><path d="m256 10.713c-135.251 0-245.287 110.034-245.287 245.287s110.036 245.287 245.287 245.287 245.287-110.034 245.287-245.287-110.036-245.287-245.287-245.287zm0 480.955c-129.947 0-235.668-105.719-235.668-235.668s105.721-235.668 235.668-235.668 235.668 105.719 235.668 235.668-105.721 235.668-235.668 235.668z"/><path d="m256 88.743c-92.225 0-167.257 75.03-167.257 167.257s75.032 167.257 167.257 167.257 167.256-75.03 167.256-167.257-75.031-167.257-167.256-167.257zm0 324.895c-86.923 0-157.638-70.715-157.638-157.638s70.715-157.638 157.638-157.638c86.921 0 157.637 70.715 157.637 157.638s-70.716 157.638-157.637 157.638z"/><path d="m253.207 197.737c-2.173-1.537-5.173-1.018-6.704 1.149l-34.497 48.785-34.497-48.785c-1.531-2.167-4.529-2.683-6.704-1.149-2.168 1.534-2.683 4.534-1.149 6.704l36.459 51.56-36.459 51.56c-1.534 2.17-1.019 5.17 1.149 6.704 2.161 1.532 5.169 1.022 6.704-1.149l34.497-48.785 34.497 48.785c1.535 2.172 4.543 2.68 6.704 1.149 2.168-1.534 2.683-4.534 1.149-6.704l-36.459-51.56 36.459-51.56c1.534-2.17 1.019-5.169-1.149-6.704z"/><path d="m311.247 196.854h-27.149c-2.657 0-4.81 2.154-4.81 4.81v54.336 54.339c0 2.655 2.153 4.81 4.81 4.81s4.81-2.154 4.81-4.81v-49.53h22.34c17.633 0 31.979-14.347 31.979-31.979s-14.346-31.976-31.98-31.976zm0 54.336h-22.34v-44.717h22.34c12.329 0 22.36 10.029 22.36 22.357 0 12.331-10.031 22.36-22.36 22.36z"/></g></g></g><g id="Layer_1"/></svg>