<svg height="512" viewBox="0 0 24 24" width="512" xmlns="http://www.w3.org/2000/svg"><g id="Layer_2" data-name="Layer 2"><path d="m14.45 4a2.86 2.86 0 0 0 -4.9 0l-7.88 12.87a2.87 2.87 0 0 0 2.45 4.36h15.76a2.87 2.87 0 0 0 2.45-4.36z" fill="#ed7e7e"/><path d="m12 14.75a.76.76 0 0 1 -.75-.75v-4.5a.75.75 0 0 1 1.5 0v4.5a.76.76 0 0 1 -.75.75z" fill="#fff"/><circle cx="12" cy="16.5" fill="#fff" r="1"/><path d="m19.88 21.23a.75.75 0 0 1 0-1.5 1.37 1.37 0 0 0 1.17-2.08l-7.88-12.89a1.42 1.42 0 0 0 -2.34 0l-7.83 12.89a1.37 1.37 0 0 0 1.17 2.08h12.83a.75.75 0 0 1 0 1.5h-12.88a2.87 2.87 0 0 1 -2.45-4.36l7.88-12.87a2.86 2.86 0 0 1 4.9 0l7.88 12.89a2.87 2.87 0 0 1 -2.45 4.36z" fill="#1b1464"/></g></svg>