<svg height="512" viewBox="0 0 511.4 512.4" width="512" xmlns="http://www.w3.org/2000/svg"><g id="Layer_6"><g><g><g><path d="m329.3 472.8c0-3.4 2.8-6.2 6.2-6.2 7.5 0 13.6-6.1 13.6-13.6v-45h12.5v44.9c0 14.4-11.7 26.1-26.1 26.1-3.4.1-6.2-2.8-6.2-6.2z" fill="#fff"/><path d="m335.5 481.5c-2.3 0-4.5-.9-6.1-2.5-1.7-1.6-2.6-3.8-2.6-6.2 0-2.3.9-4.5 2.6-6.1 1.6-1.6 3.8-2.6 6.1-2.5 6.2 0 11.2-5 11.2-11.2v-45c0-1.4 1.1-2.4 2.4-2.4h12.5c1.4 0 2.4 1.1 2.4 2.4v44.9c0 7.6-3 14.8-8.4 20.2-5.2 5.4-12.4 8.4-20.1 8.4.1 0 .1 0 0 0zm.1-12.5c-1 0-2 .4-2.7 1.1s-1.1 1.7-1.1 2.7.4 2 1.1 2.7 1.7 1.1 2.7 1.1c6.4-.1 12.3-2.5 16.7-6.9 4.5-4.5 6.9-10.4 6.9-16.7v-42.5h-7.6v42.5c.1 8.8-7.2 16-16 16z" fill="#b3b3b3"/></g><g><path d="m297.8 484.1c-1.4-2-2.6-3.4-4.6-5.2-2.3-2-5.1-4.5-5.1-6.9s2.8-4.9 5.1-6.9c2-1.8 3.2-3.2 4.6-5.2 6-8.7 18.8-9.7 26.6-5.7 5.7 3 9.2 7.6 10.6 12.5v11.3c-1.4 5.1-4.8 8.8-10.6 11.8-7.8 4.1-20.6 3.1-26.6-5.7z"/><path d="m314.4 494.6c-7.1 0-14.4-2.8-18.7-9-1.2-1.8-2.4-3.1-4.2-4.7-2.7-2.4-5.9-5.3-5.9-8.8 0-3.4 3.2-6.3 5.9-8.7 1.8-1.7 3-2.9 4.2-4.8 6.7-9.7 20.8-11.2 29.7-6.5 6 3.2 10.2 8.1 11.8 14 .1.2.1.4.1.7v11.2c0 .2 0 .4-.1.6-1.5 5.6-5.2 9.9-11.8 13.3-3.2 1.8-7 2.7-11 2.7zm-14.6-11.8c5.1 7.4 16.4 8.5 23.4 4.9 5.2-2.8 8.1-5.8 9.3-9.9v-10.6c-1.3-4.4-4.6-8.2-9.3-10.7-6.9-3.6-18.3-2.5-23.4 4.9-1.5 2.1-2.9 3.7-5 5.6-1.5 1.4-4.3 3.8-4.3 5.1s2.7 3.8 4.2 5.1c2.2 1.8 3.6 3.4 5.1 5.6z"/></g></g><g><g><g><path d="m436.9 455.8h-35-65.9-35c-8.4-4-15.5-16.5-19-27-4.4-13.1-6.5-24.9-5.3-39.1 2.1-23.9 13.4-42.8 30.1-62.5 13.8-16.2 27.2-35.2 30.9-58.8h63.1c3.6 23.6 17.1 42.6 30.9 58.8 16.8 19.8 28 38.7 30.1 62.5 1.3 14.2-.9 26-5.3 39.1-3.6 10.7-11 23.2-19.6 27z" fill="#fff"/><path d="m436.9 458.2h-135.9c-.4 0-.7-.1-1.1-.2-9.5-4.5-16.9-18.1-20.3-28.5-5-14.8-6.6-26.8-5.4-40.1 1.9-21.7 11.1-40.8 30.7-63.9 13-15.3 26.7-34.1 30.3-57.6.2-1.2 1.2-2.1 2.4-2.1h63.1c1.2 0 2.2.9 2.4 2.1 3.6 23.5 17.4 42.3 30.3 57.6 19.6 23.1 28.8 42.2 30.7 63.9 1.2 13.3-.4 25.3-5.4 40.1-3.5 10.5-11.1 24.2-21 28.5-.2.1-.5.2-.8.2zm-135.3-4.9h134.8c7.7-3.6 14.5-15.3 17.8-25.4 4.7-14.1 6.3-25.5 5.2-38.1-1.8-20.6-10.7-38.9-29.6-61.2-13-15.4-26.8-34.2-31.1-57.9h-58.9c-4.3 23.7-18.1 42.6-31.1 57.9-18.9 22.3-27.7 40.6-29.6 61.2-1.1 12.6.4 24 5.2 38.1 3.3 10 9.9 21.6 17.3 25.4z" fill="#b3b3b3"/></g></g><g><circle cx="369.2" cy="392.2" fill="#fff" r="39.6"/><path d="m369.2 434.3c-23.2 0-42-18.9-42-42s18.9-42.1 42-42.1 42 18.9 42 42.1-18.8 42-42 42zm0-79.2c-20.5 0-37.2 16.7-37.2 37.2s16.7 37.1 37.2 37.1 37.2-16.7 37.2-37.1-16.7-37.2-37.2-37.2z" fill="#b3b3b3"/></g><g><g><g><path d="m335.4 451.7c.3 12.3.1 24.6-.1 36.9-.1 6-.7 11.6-5.1 16.2-3.9 3.9-9.4 5.7-14.9 4.8-11.5-1.8-15.1-11.4-15-21.6.2-12.1.4-24.2.1-36.3" fill="#fff"/><path d="m318 512.4c-1 0-2-.1-3.1-.2-11.2-1.7-17.2-10.3-17.1-24.1l.1-5.7c.1-10 .3-20.4 0-30.5 0-1.4 1-2.5 2.4-2.5 1.4-.1 2.5 1 2.5 2.4.3 10.3.1 20.7 0 30.8l-.1 5.7c-.1 7.8 2.1 17.5 12.9 19.2 4.7.7 9.5-.8 12.7-4.1 3.6-3.7 4.4-8.1 4.4-14.5l.1-5.1c.1-10.4.3-21.2 0-31.8 0-1.4 1-2.5 2.4-2.5 1.3 0 2.5 1 2.5 2.4.3 10.7.1 21.5 0 32l-.1 5.1c-.1 5.9-.6 12.6-5.8 17.9-3.5 3.4-8.6 5.5-13.8 5.5z" fill="#b3b3b3"/></g><g><path d="m310.3 508.2c2.2 1 4.7 1.6 7.3 1.7 9.7.1 17.6-7.7 17.7-17.3 0-.1 0-.2 0-.3h-35c-.1 7 4 13.1 10 15.9z" fill="#ccc"/><path d="m317.8 512.4c-.1 0-.1 0-.2 0-2.9 0-5.7-.7-8.3-1.9-7-3.3-11.5-10.5-11.4-18.2 0-1.3 1.1-2.4 2.4-2.4h35c.7 0 1.3.3 1.7.7.5.5.7 1.1.7 1.7v.2c-.1 5.4-2.2 10.4-6 14.1-3.7 3.7-8.7 5.8-13.9 5.8zm-14.9-17.7c.8 4.9 3.9 9.2 8.4 11.3 2 .9 4.1 1.4 6.3 1.4h.1c4 0 7.7-1.5 10.5-4.3 2.4-2.3 3.9-5.3 4.3-8.5h-29.6z" fill="#808080"/></g><g><path d="m317.1 512.4c-1.4 0-2.4-1.1-2.4-2.4v-7.7c0-1.4 1.1-2.4 2.4-2.4 1.4 0 2.4 1.1 2.4 2.4v7.7c0 1.3-1.1 2.4-2.4 2.4z" fill="#808080"/></g></g><g><g><path d="m438 451.6c.3 12.3.1 24.6-.1 36.9-.1 6-.7 11.6-5.1 16.2-3.9 3.9-9.4 5.7-14.9 4.8-11.5-1.8-15.1-11.4-15-21.6.2-12.1.4-24.2.1-36.3" fill="#fff"/><path d="m420.6 512.2c-1 0-2-.1-3.1-.2-11.2-1.7-17.2-10.3-17.1-24.1l.1-5.7c.1-10 .3-20.4 0-30.5 0-1.4 1-2.5 2.4-2.5 1.3 0 2.5 1 2.5 2.4.3 10.3.1 20.7 0 30.8l-.1 5.7c-.1 7.8 2.1 17.5 12.9 19.2 4.7.7 9.5-.8 12.7-4.1 3.6-3.7 4.4-8.1 4.4-14.5l.1-5.1c.1-10.4.3-21.2 0-31.7 0-1.4 1-2.5 2.4-2.5 1.3 0 2.5 1 2.5 2.4.3 10.7.1 21.5 0 31.9l-.1 5.1c-.1 5.9-.6 12.6-5.8 17.9-3.5 3.5-8.6 5.5-13.8 5.5z" fill="#b3b3b3"/></g><g><path d="m412.9 508.1c2.2 1 4.7 1.6 7.3 1.7 9.7.1 17.6-7.7 17.7-17.3 0-.1 0-.2 0-.3h-35c-.1 7 4 13.1 10 15.9z" fill="#ccc"/><path d="m420.4 512.2c-.1 0-.1 0-.2 0-2.9 0-5.7-.7-8.3-1.9-7-3.3-11.5-10.5-11.4-18.2 0-1.3 1.1-2.4 2.4-2.4h35c.7 0 1.3.3 1.7.7.5.5.7 1.1.7 1.7v.2c-.1 5.4-2.2 10.4-6 14.1-3.7 3.8-8.7 5.8-13.9 5.8zm-6.5-6.3c2 .9 4.1 1.4 6.3 1.4 4 .1 7.8-1.5 10.7-4.3 2.4-2.3 3.9-5.3 4.3-8.5h-29.7c.7 4.9 3.9 9.2 8.4 11.4z" fill="#808080"/></g><g><path d="m419.6 512.2c-1.4 0-2.4-1.1-2.4-2.4v-7.7c0-1.4 1.1-2.4 2.4-2.4 1.4 0 2.4 1.1 2.4 2.4v7.7c.1 1.3-1 2.4-2.4 2.4z" fill="#808080"/></g></g></g></g><g><g><path d="m313.2 362c8.9 8.5 17.5 17.4 26.1 26.2 4.2 4.3 7.8 8.7 7.8 15.1 0 5.5-2.7 10.7-7.1 13.9-9.4 6.9-18.7 2.7-25.9-4.7-8.5-8.7-16.8-17.4-25.6-25.7" fill="#fff"/><path d="m330.1 423.2c-5.9 0-11.9-3-17.7-9l-4-4.1c-7-7.2-14.2-14.6-21.6-21.6-1-.9-1-2.5-.1-3.5s2.5-1 3.5-.1c7.4 7 14.7 14.5 21.7 21.7l4 4.1c5.5 5.6 13.8 10.9 22.7 4.4 3.9-2.8 6.1-7.3 6.1-11.9 0-5.1-2.7-8.8-7.1-13.4l-3.6-3.7c-7.2-7.5-14.7-15.2-22.4-22.4-1-.9-1-2.5-.1-3.5s2.5-1 3.5-.1c7.7 7.3 15.3 15.1 22.5 22.5l3.6 3.7c4.1 4.2 8.5 9.3 8.5 16.8.1 6.2-3 12.1-8.1 15.9-3.7 2.8-7.5 4.2-11.4 4.2z" fill="#b3b3b3"/></g><g><path d="m335.4 419.7c2.3-.8 4.5-2.2 6.3-4 6.9-6.8 7-17.8.2-24.7-.1-.1-.2-.2-.2-.2l-24.7 24.7c5 5 12.2 6.4 18.4 4.2z" fill="#ccc"/><path d="m329.6 423.2c-5.3 0-10.5-2.1-14.3-6-.9-1-.9-2.5 0-3.4l24.7-24.7c.5-.5 1.1-.7 1.7-.7.7 0 1.3.3 1.7.7 0 0 .2.2.2.2 3.7 3.8 5.8 8.8 5.7 14.2-.1 5.3-2.2 10.3-6 14-2.1 2-4.5 3.6-7.2 4.5-2 .8-4.3 1.2-6.5 1.2zm-9-7.8c4 2.9 9.2 3.7 14 2 2.1-.7 3.9-1.9 5.5-3.4 2.9-2.8 4.5-6.6 4.5-10.6 0-3.3-1-6.4-2.9-9z" fill="#808080"/></g><g><path d="m335.9 410.7 5.5 5.4" fill="#ffd9e6"/><path d="m341.4 418.6c-.6 0-1.3-.2-1.7-.7l-5.5-5.5c-1-1-1-2.5 0-3.5s2.5-1 3.5 0l5.5 5.5c1 1 1 2.5 0 3.5-.5.4-1.2.7-1.8.7z" fill="#808080"/></g></g><g><g><g><g><ellipse cx="74.5" cy="201.7" fill="#fee370" rx="20.6" ry="57" transform="matrix(.383 -.924 .924 .383 -140.39 193.364)"/><path d="m108.9 233.1c-.9 0-1.9 0-2.9-.1-11.7-.5-26-4.1-40.4-10-14.3-5.9-27-13.5-35.6-21.4-9.3-8.5-13-16.5-10.5-22.6s10.8-9.2 23.4-8.6c11.7.5 26 4.1 40.4 10 31.3 13 51.1 31.9 46.1 44-2.3 5.7-9.5 8.7-20.5 8.7zm-68.8-57.9c-8.6 0-14.5 2-16 5.6-1.6 3.9 1.8 10.3 9.2 17.1 8.2 7.5 20.4 14.8 34.2 20.5s27.5 9.1 38.7 9.7c10 .4 17-1.6 18.6-5.6 3.3-7.9-13.7-25.3-43.4-37.6-13.8-5.7-27.5-9.1-38.7-9.7-.9.1-1.8 0-2.6 0z" fill="#ad9b4c"/></g><g><ellipse cx="201.7" cy="74.5" fill="#fee370" rx="20.6" ry="57" transform="matrix(.924 -.383 .383 .924 -13.154 82.872)"/><path d="m220.5 130.2c-12 0-28.4-18.8-40-46.9-5.9-14.3-9.5-28.6-10-40.4-.6-12.5 2.5-20.8 8.6-23.4 6.1-2.5 14.1 1.2 22.6 10.5 7.9 8.7 15.5 21.3 21.4 35.6 13 31.3 13.6 58.7 1.4 63.7-1.3.6-2.6.9-4 .9zm-35.5-48.8c12.3 29.7 29.7 46.7 37.6 43.4s8.2-27.6-4.1-57.3c-5.7-13.8-13-25.9-20.5-34.2-6.8-7.4-13.2-10.9-17.1-9.2-3.9 1.6-6 8.6-5.6 18.6.5 11.2 3.9 24.9 9.7 38.7z" fill="#ad9b4c"/></g></g><g><g><path d="m105.5 312.3-18.1 18.1c-22 22-57.7 22-79.7 0l-5.2-5.2c-3.4-3.4-3.4-8.8 0-12.2l68-68c3.4-3.4 8.8-3.4 12.2 0l22.7 22.7c12.4 12.3 12.4 32.3.1 44.6z" fill="#fff"/><path d="m47.5 349.2c-15.8 0-30.7-6.2-41.8-17.3-3.4-3.4-5.3-7.9-5.3-12.7s1.9-9.3 5.3-12.7l58.2-58.2c7-7 18.5-7 25.5 0 11.2 11.2 17.3 26 17.3 41.8s-6.2 30.7-17.3 41.8c-11.2 11.1-26.1 17.3-41.9 17.3zm29.1-101.4c-3.4 0-6.7 1.3-9.3 3.8l-58.1 58.2c-2.5 2.5-3.8 5.8-3.8 9.3s1.4 6.8 3.8 9.3c10.2 10.2 23.9 15.9 38.4 15.9s28.1-5.6 38.4-15.9c10.2-10.2 15.9-23.9 15.9-38.4s-5.6-28.1-15.9-38.4c-2.7-2.5-6-3.8-9.4-3.8z" fill="#b3b3b3"/></g><g><path d="m312.3 105.5 18.7-18.7c21.7-21.7 21.7-56.8 0-78.5l-5.7-5.7c-3.4-3.4-8.8-3.4-12.2 0l-68 68c-3.4 3.4-3.4 8.8 0 12.2l22.7 22.7c12.2 12.3 32.2 12.3 44.5 0z" fill="#fff"/><path d="m290 106.7c-15.8 0-30.7-6.2-41.8-17.3-3.4-3.4-5.3-7.9-5.3-12.7s1.9-9.3 5.3-12.7l58.2-58.2c7-7 18.5-7 25.5 0 23.1 23.1 23.1 60.6 0 83.7-11.2 11-26.1 17.2-41.9 17.2zm29.1-101.4c-3.4 0-6.7 1.3-9.3 3.8l-58.2 58.2c-2.5 2.5-3.8 5.8-3.8 9.3s1.4 6.8 3.8 9.3c10.2 10.2 23.9 15.9 38.4 15.9s28.1-5.6 38.4-15.9c21.2-21.2 21.2-55.6 0-76.7-2.6-2.6-5.9-3.9-9.3-3.9z" fill="#b3b3b3"/></g></g><g><path d="m143.6 387.6-21-21c-67.4-67.4-67.4-176.6 0-243.9 67.4-67.4 176.6-67.4 243.9 0l21 21c15.5 1.9 30.5 8.7 42.4 20.6 28.2 28.2 28.2 74 0 102.3l-28.2 28.2-107 107-28.2 28.2c-28.2 28.2-74 28.2-102.3 0-11.9-11.9-18.7-26.9-20.6-42.4z" fill="#fff"/><path d="m387.6 143.6-21-21c-67.4-67.4-176.6-67.4-243.9 0l21 21c67.3 67.4 176.5 67.4 243.9 0z"/><path d="m215.4 453.6c-19.1 0-38.3-7.3-52.9-21.9-11.7-11.7-19.1-26.6-21.2-43l-20.4-20.4c-33-33-51.2-77-51.2-123.7s18.2-90.7 51.2-123.7 77-51.2 123.7-51.2c46.7 0 90.7 18.2 123.7 51.2l20.4 20.4c16.4 2.2 31.3 9.5 43 21.2 29.2 29.2 29.2 76.6 0 105.7l-163.4 163.5c-14.6 14.6-33.8 21.9-52.9 21.9zm29.2-379.1c-45.4 0-88.1 17.7-120.2 49.8s-49.8 74.8-49.8 120.2 17.7 88.1 49.8 120.2l21 21c.4.4.6.9.7 1.4 1.9 15.7 8.8 29.8 19.9 41 27.2 27.2 71.6 27.2 98.8 0l163.5-163.5c27.2-27.2 27.2-71.6 0-98.8-11.2-11.2-25.3-18.1-41-19.9-.5-.1-1.1-.3-1.4-.7l-21-21c-32.2-32-74.9-49.7-120.3-49.7z" fill="#b3b3b3"/></g><g><g><circle cx="198.2" cy="398.8" fill="#ffe0e0" r="36.8"/><ellipse cx="178.8" cy="379.5" fill="#fff" rx="9" ry="4.6" transform="matrix(.707 -.707 .707 .707 -215.945 237.593)"/></g><g><circle cx="398.8" cy="198.2" fill="#ffe0e0" r="36.8"/><ellipse cx="379.5" cy="178.8" fill="#fff" rx="9" ry="4.6" transform="matrix(.707 -.707 .707 .707 -15.307 320.7)"/></g></g><g><ellipse cx="297.2" cy="297.2" fill="#ffe0e0" rx="82.7" ry="64.2" transform="matrix(.707 -.707 .707 .707 -123.113 297.222)"/><g><g><circle cx="251.3" cy="287.6" fill="#a88888" r="9.2"/><path d="m251.3 299.2c-3 0-5.9-1.1-8.2-3.4-4.5-4.5-4.5-11.9 0-16.4s11.9-4.5 16.4 0 4.5 11.9 0 16.4c-2.3 2.3-5.2 3.4-8.2 3.4zm0-18.3c-1.7 0-3.4.7-4.7 2-2.6 2.6-2.6 6.9 0 9.5s6.9 2.6 9.5 0 2.6-6.9 0-9.5c-1.4-1.3-3.1-2-4.8-2z" fill="#6e5959"/></g><g><circle cx="287.6" cy="251.3" fill="#a88888" r="9.2"/><path d="m287.6 262.9c-3 0-5.9-1.1-8.2-3.4-4.5-4.5-4.5-11.9 0-16.4s11.9-4.5 16.4 0 4.5 11.9 0 16.4c-2.2 2.2-5.2 3.4-8.2 3.4zm0-18.3c-1.7 0-3.4.7-4.7 2-2.6 2.6-2.6 6.9 0 9.5s6.9 2.6 9.5 0 2.6-6.9 0-9.5c-1.3-1.4-3-2-4.8-2z" fill="#6e5959"/></g></g></g></g><g><g><path d="m306 322.6c-1 0-1.9-.6-2.3-1.5-.5-1.3.1-2.7 1.4-3.2 2.3-.9 5-2.8 7.4-5.2s4.3-5.1 5.2-7.4c.5-1.3 1.9-1.9 3.2-1.4s1.9 1.9 1.4 3.2c-1.2 2.9-3.4 6.1-6.3 9.1-2.9 2.9-6.1 5.2-9.1 6.3-.3 0-.6.1-.9.1z"/><g><path d="m280.5 325.3c-.1 0-.2 0-.3 0-4.3-.1-8.6-2.2-11.7-5.6s-4.6-7.9-4.2-12.1c.1-1.3 1.4-2.3 2.7-2.2s2.3 1.4 2.2 2.7c-.3 2.8.8 6 2.9 8.3 2.1 2.4 5.2 3.9 8.1 3.9 2 0 4.2-.6 6.5-2 5.2-3.1 9-8.2 10.3-14.2.3-1.2.4-2.5.5-4 .1-1.2 1.1-2.2 2.3-2.3 1.5-.1 2.8-.3 4-.5 6-1.4 11.2-5.1 14.2-10.3 1.4-2.3 2-4.5 2-6.5-.1-2.9-1.6-6-3.9-8.1-2.4-2.1-5.5-3.2-8.3-2.9-1.4.1-2.6-.8-2.7-2.2-.1-1.3.8-2.6 2.2-2.7 4.2-.5 8.7 1.1 12.1 4.2s5.5 7.4 5.6 11.7c.1 3-.8 6-2.7 9.1-3.7 6.4-10.1 11-17.4 12.6-.8.2-1.7.3-2.7.5-.1.9-.3 1.8-.5 2.7-1.7 7.3-6.3 13.6-12.6 17.4-2.8 1.6-5.7 2.5-8.6 2.5z"/></g></g><g><g><g><g><g><path d="m172.1 349.5c11.4 11.4 29.8 11.4 41.1 0 11.3-11.3 11.4-29.8 0-41.1-11.4-11.4-29.8-11.3-41.1 0s-11.3 29.7 0 41.1z" fill="#fff"/></g></g><circle cx="192.7" cy="328.9" r="21.6"/></g><circle cx="181.1" cy="317.3" fill="#fff" r="3.2"/></g><g><g><g><path d="m308.4 213.2c11.4 11.4 29.8 11.4 41.1 0 11.3-11.3 11.4-29.8 0-41.1-11.4-11.4-29.8-11.3-41.1 0-11.4 11.4-11.4 29.8 0 41.1z" fill="#fff"/></g><circle cx="328.9" cy="192.7" r="21.6"/></g><circle cx="317.3" cy="181.1" fill="#fff" r="3.2"/></g></g></g></g><g><path d="m468.4 344.3c-.1 0-.3 0-.4-.1-.4-.2-.6-.8-.4-1.2 18.2-34.1 18.2-89.7 0-123.8-.2-.4-.1-1 .4-1.2.4-.2 1-.1 1.2.4 18.5 34.6 18.5 90.9 0 125.5-.2.2-.5.4-.8.4zm35.2-17c-.1 0-.2 0-.3-.1-.5-.2-.7-.7-.5-1.1 9.2-24.9 9.2-65.3 0-90.2-.2-.5.1-1 .5-1.1.5-.2 1 .1 1.1.5 9.3 25.2 9.3 66.2 0 91.4-.1.4-.4.6-.8.6z"/></g><g><g><path d="m397.8 348.3c-12.1-.3-24.2-.1-36.3.1-10.3.1-19.9-3.5-21.6-15-.8-5.4.9-11 4.8-14.9 4.6-4.5 10.2-5.1 16.2-5.1 12.3-.2 24.6-.4 36.9-.1" fill="#fff"/><path d="m360.9 350.8c-13.5 0-21.8-6-23.5-17.1-1-6.3 1.1-12.6 5.5-17 5.3-5.2 12-5.8 17.9-5.8l5.1-.1c10.5-.1 21.3-.3 31.9 0 1.4 0 2.4 1.2 2.4 2.5 0 1.4-1.2 2.4-2.5 2.4-10.6-.3-21.3-.1-31.7 0l-5.1.1c-6.4.1-10.9.8-14.5 4.4-3.3 3.2-4.8 8-4.1 12.8 1.6 10.6 11 12.9 18.7 12.9h.5l5.6-.1c10.1-.1 20.5-.3 30.8 0 1.4 0 2.4 1.2 2.4 2.5 0 1.4-1.1 2.3-2.5 2.4-10.2-.3-20.6-.1-30.6 0l-5.6.1c-.3 0-.5 0-.7 0z" fill="#b3b3b3"/></g><g><path d="m341.3 338.4c-1-2.2-1.6-4.7-1.7-7.3-.1-9.7 7.7-17.6 17.3-17.7h.3v35c-7 .1-13.1-4-15.9-10z" fill="#ccc"/><path d="m357.1 350.9c-7.7 0-14.7-4.5-18-11.4-1.2-2.6-1.9-5.4-1.9-8.3-.1-5.3 2-10.4 5.7-14.2s8.7-5.9 14-6h.4c1.4 0 2.4 1.1 2.4 2.4v35c0 1.3-1.1 2.4-2.4 2.4-.1.1-.1.1-.2.1zm-2.3-34.8c-3.2.5-6.2 2-8.5 4.3-2.8 2.9-4.3 6.7-4.3 10.7 0 2.2.5 4.3 1.4 6.3 2.2 4.5 6.4 7.7 11.3 8.4v-29.7z" fill="#808080"/></g><g><path d="m347.3 334.1h-7.7c-1.4 0-2.4-1.1-2.4-2.4 0-1.4 1.1-2.4 2.4-2.4h7.7c1.4 0 2.4 1.1 2.4 2.4.1 1.3-1 2.4-2.4 2.4z" fill="#808080"/></g></g></g></g></svg>