<svg id="Layer_1" enable-background="new 0 0 512 512" height="512" viewBox="0 0 512 512" width="512" xmlns="http://www.w3.org/2000/svg"><g><g><g><path d="m433.468 102.638c-39.251-39.252-93.476-63.531-153.371-63.531-119.787 0-216.899 97.111-216.899 216.9h-48.2l80.333 80.334 80.334-80.334h-48.2c0-84.297 68.337-152.633 152.633-152.633 42.148 0 80.307 17.084 107.928 44.705 27.622 27.621 44.706 65.781 44.706 107.928 0 84.297-68.337 152.633-152.634 152.633-27.694 0-53.663-7.383-76.055-20.277-.091-.053-.171-.117-.262-.17-15.367-8.873-35.019-3.609-43.893 11.758-8.875 15.371-3.609 35.023 11.76 43.895l-.015.027c31.907 18.463 68.95 29.035 108.464 29.035 119.791 0 216.9-97.109 216.9-216.9.001-59.896-24.277-114.12-63.529-153.37z" fill="#ff5b5b"/></g></g><g><path d="m280.1 152.633c-8.284 0-15 6.717-15 15v88.367c0 8.283 6.716 15 15 15h72.3c8.284 0 15-6.717 15-15 0-8.285-6.716-15-15-15h-57.3v-73.367c0-8.283-6.716-15-15-15z"/><path d="m444.078 92.023c-43.8-43.8-102.036-67.923-163.978-67.923-61.941 0-120.176 24.123-163.977 67.923-40.247 40.247-63.879 92.676-67.448 148.977h-33.675c-6.067 0-11.537 3.654-13.858 9.26-2.321 5.604-1.038 12.057 3.251 16.346l80.333 80.334c2.813 2.813 6.628 4.395 10.607 4.395 3.978 0 7.793-1.58 10.606-4.395l80.334-80.334c4.29-4.289 5.573-10.741 3.252-16.346-2.322-5.605-7.792-9.26-13.858-9.26h-32.388c7.497-68.863 65.997-122.633 136.821-122.633 36.764 0 71.326 14.316 97.321 40.313 25.996 25.994 40.313 60.557 40.313 97.32 0 75.891-61.742 137.633-137.634 137.633-23.979 0-47.581-6.26-68.22-18.076-.208-.132-.41-.255-.596-.36-7.162-4.136-15.301-6.321-23.539-6.321-16.8 0-32.451 9.03-40.845 23.568-6.296 10.903-7.969 23.605-4.71 35.767 3.159 11.79 10.584 21.702 20.97 28.031.312.214.633.416.962.606 35.108 20.314 75.213 31.052 115.978 31.052 61.942 0 120.179-24.122 163.979-67.922 43.799-43.8 67.921-102.036 67.921-163.978 0-61.943-24.122-120.178-67.922-163.977zm-163.978 365.877c-35.187 0-69.794-9.181-100.15-26.558-.26-.173-.527-.339-.799-.495-3.963-2.288-6.798-5.982-7.982-10.402s-.576-9.037 1.712-13c3.053-5.287 8.749-8.57 14.865-8.57 2.858 0 5.693.732 8.283 2.158.167.104.342.211.531.32 25.311 14.576 54.198 22.279 83.54 22.279 92.434 0 167.634-75.199 167.634-167.633 0-44.777-17.438-86.874-49.1-118.533-31.661-31.662-73.758-49.1-118.534-49.1-92.433 0-167.633 75.199-167.633 167.633 0 8.283 6.716 15 15 15h11.987l-44.121 44.12-44.12-44.119h11.987c8.284 0 15-6.717 15-15 0-111.328 90.572-201.9 201.899-201.9 53.929 0 104.63 21.002 142.765 59.138 38.136 38.131 59.136 88.832 59.136 142.762 0 111.328-90.572 201.9-201.9 201.9z"/></g></g></svg>