<svg height="479pt" viewBox="-28 0 479 479.99979" width="479pt" xmlns="http://www.w3.org/2000/svg"><path d="m248.101562 438.398438c-2.554687-19.164063-16.320312-34.945313-34.960937-40.078126l-2.722656-.71875-39.039063-10.640624-34.878906 29.039062-34.878906-29.039062-41.761719 11.359374c-20.859375 5.730469-35.332031 24.683594-35.359375 46.320313v27.359375h224v-27.359375c-.007812-2.085937-.140625-4.171875-.398438-6.242187zm0 0" fill="#3d9ae2"/><path d="m385.140625 88.960938-33.761719 125.839843-.078125.078125c-4.589843-2.855468-9.578125-5.011718-14.800781-6.398437-5.207031-1.433594-10.605469-2.054688-16-1.839844v-.082031l33.679688-125.839844zm0 0" fill="#cc7400"/><path d="m354.339844 80.71875-7.679688-2.078125 9.121094-22.402344 9.039062-22.476562 6.078126-14.882813 30.960937 8.242188-2.238281 16-3.28125 23.917968-3.359375 24-7.679688-2.078124zm0 0" fill="#ff9811"/><path d="m378.019531 393.519531c-11.441406 42.640625-51.601562 68.960938-105.679687 54.480469-8.488282-2.214844-16.679688-5.4375-24.398438-9.601562-33.570312-16.410157-50.429687-54.621094-39.921875-90.480469 8.558594-31.757813 42-45.039063 56.640625-69.839844 5.039063-8.636719.640625-20.238281 3.28125-30 6.382813-23.941406 27.785156-40.816406 52.558594-41.4375 5.394531-.214844 10.792969.40625 16 1.839844 5.222656 1.386719 10.210938 3.542969 14.800781 6.398437 21.136719 12.929688 31.230469 38.234375 24.800781 62.160156-2.640624 9.839844-12.160156 17.679688-12.082031 27.601563.242188 28.800781 22.558594 57.121094 14 88.878906zm0 0" fill="#ff9811"/><path d="m280.5 136c0 8.835938-7.164062 16-16 16s-16-7.164062-16-16 7.164062-16 16-16 16 7.164062 16 16zm0 0" fill="#ffd422"/><path d="m216.5 152c0 8.835938-7.164062 16-16 16s-16-7.164062-16-16 7.164062-16 16-16 16 7.164062 16 16zm0 0" fill="#ffd422"/><path d="m104.5 80c0 8.835938-7.164062 16-16 16s-16-7.164062-16-16 7.164062-16 16-16 16 7.164062 16 16zm0 0" fill="#ff6243"/><path d="m40.5 96c0 8.835938-7.164062 16-16 16s-16-7.164062-16-16 7.164062-16 16-16 16 7.164062 16 16zm0 0" fill="#ff6243"/><path d="m280.5 64v24l-64 16v-24zm0 0" fill="#00ccb3"/><path d="m104.5 8v24l-64 16v-24zm0 0" fill="#00ccb3"/><path d="m184.5 299.601562v20.398438c.007812 17.136719-9.144531 32.972656-24 41.519531-14.832031 8.640625-33.167969 8.640625-48 0-3.636719-2.070312-6.972656-4.628906-9.921875-7.601562-9.042969-8.964844-14.117187-21.183594-14.078125-33.917969v-20.398438c15.109375 7.027344 31.378906 11.230469 48 12.398438 16.621094-1.167969 32.890625-5.371094 48-12.398438zm0 0" fill="#ffdaaa"/><path d="m171.378906 386.960938-34.878906 29.039062-34.878906-29.039062 10.878906-2.960938v-22.480469c14.832031 8.640625 33.167969 8.640625 48 0v22.480469zm0 0" fill="#ffdaaa"/><path d="m192.5 242.480469v53.519531s-3.039062 1.519531-8 3.601562c-15.109375 7.027344-31.378906 11.230469-48 12.398438-16.621094-1.167969-32.890625-5.371094-48-12.398438-4.960938-2.082031-8-3.601562-8-3.601562v-53.519531l56 21.519531zm0 0" fill="#898890"/><path d="m240.5 224-48 18.480469-56 21.519531-56-21.519531-48-18.480469 104-40zm0 0" fill="#acabb1"/><path d="m324.261719 254.800781c12.8125 3.414063 20.425781 16.574219 17 29.386719-3.421875 12.8125-16.589844 20.417969-29.398438 16.984375-12.808593-3.433594-20.40625-16.605469-16.964843-29.410156 3.457031-12.769531 16.574218-20.347657 29.363281-16.960938zm0 0" fill="#cc7400"/><path d="m160.5 361.519531v8c-14.832031 8.640625-33.167969 8.640625-48 0v-8c14.832031 8.640625 33.167969 8.640625 48 0zm0 0" fill="#f2ca96"/><path d="m216.5 440h-16v24h-128v-32h-16v32h-24v-19.359375c.058594-18.015625 12.101562-33.792969 29.464844-38.601563l37.734375-10.269531 31.679687 26.398438c2.96875 2.46875 7.273438 2.46875 10.242188 0l31.679687-26.398438 9.09375 2.46875 4.210938-15.429687-18.105469-4.929688v-12.09375c14.988281-10.4375 23.945312-27.523437 24-45.785156v-15.144531c2.039062-.9375 3.328125-1.601563 3.574219-1.695313 2.714843-1.355468 4.425781-4.128906 4.425781-7.160156v-48.039062l42.871094-16.488282c3.097656-1.183594 5.144531-4.15625 5.144531-7.472656s-2.046875-6.289062-5.144531-7.472656l-104-40c-1.851563-.695313-3.890625-.695313-5.742188 0l-104 40c-3.09375 1.191406-5.132812 4.160156-5.128906 7.472656v36.6875l-21.65625 21.65625 11.3125 11.3125 10.34375-10.34375v12.6875h16v-12.6875l10.34375 10.34375 11.3125-11.3125-21.65625-21.65625v-25.039062l32 12.3125v48.039062c-.015625 3.046875 1.699219 5.839844 4.425781 7.199219.246094.121093 1.535157.761719 3.574219 1.695312v15.105469c-.128906 18.3125 8.871094 35.484375 24 45.800781v12.078125l-46.769531 12.730469c-24.300781 6.730469-41.152344 28.8125-41.230469 54.03125v27.359375c0 4.417969 3.582031 8 8 8h224v-16h-32zm-80-34.398438-18.792969-15.648437c1.75-1.488281 2.769531-3.660156 2.792969-5.953125v-10.398438c10.425781 3.207032 21.574219 3.207032 32 0v10.398438c.027344 2.292969 1.042969 4.460938 2.792969 5.945312zm0-213.027343 81.710938 31.425781-81.710938 31.433594-81.710938-31.433594zm-2.871094 78.90625c1.847656.703125 3.894532.703125 5.742188 0l45.128906-17.367188v36.796875c-15.066406 7.253906-31.335938 11.691406-48 13.089844-16.664062-1.410156-32.929688-5.847656-48-13.097656v-36.796875zm-37.128906 48.519531v-8.585938c12.769531 5.042969 26.285156 7.945313 40 8.585938 13.714844-.640625 27.230469-3.542969 40-8.585938v8.585938c-.015625 14.292969-7.660156 27.492188-20.050781 34.621094-12.386719 7.128906-27.636719 7.105468-40.003907-.0625-3.023437-1.714844-5.792968-3.84375-8.234374-6.320313-7.542969-7.453125-11.761719-17.632812-11.710938-28.238281zm0 0"/><path d="m326.332031 247.085938c-17.070312-4.566407-34.613281 5.5625-39.1875 22.632812-4.570312 17.070312 5.558594 34.613281 22.628907 39.1875 17.066406 4.578125 34.613281-5.550781 39.191406-22.617188 4.578125-17.078124-5.554688-34.628906-22.632813-39.203124zm7.199219 35.058593c-2.152344 8.007813-10.066406 13.046875-18.234375 11.601563-8.167969-1.441406-13.878906-8.886719-13.15625-17.148438.722656-8.265625 7.640625-14.605468 15.933594-14.605468 4.980469 0 9.671875 2.3125 12.703125 6.261718 3.027344 3.949219 4.046875 9.082032 2.753906 13.890625zm0 0"/><path d="m252.5 368.101562 4.140625-15.457031 77.277344 20.703125-4.140625 15.457032zm0 0"/><path d="m418.804688 56.519531 4.144531-15.449219-14.449219-3.863281 1.238281-8.984375c.542969-3.984375-1.960937-7.753906-5.847656-8.800781l-30.894531-8.292969c-3.898438-1.050781-7.964844.964844-9.488282 4.703125l-3.414062 8.398438-14.402344-3.863281-4.136718 15.457031 12.464843 3.375-3.03125 7.472656-11.527343-3.128906-4.136719 15.457031 9.601562 2.574219-5.699219 14.007812c-.863281 2.128907-.773437 4.523438.25 6.578125 1.019532 2.058594 2.878907 3.574219 5.09375 4.167969l-30.214843 112.742187c-25.855469 3.214844-47.191407 21.753907-53.984375 46.90625-1.128906 5.089844-1.496094 10.320313-1.085938 15.519532.609375 4.214844.128906 8.519531-1.402344 12.496094-6.355468 9.40625-14.085937 17.8125-22.933593 24.925781-13.519531 12.167969-28.800781 25.945312-34.472657 46.960937-6.441406 22.480469-3.386718 46.617188 8.449219 66.785156 14.050781 21.871094 36.140625 37.339844 61.503907 43.0625 10.132812 2.785157 20.589843 4.226563 31.101562 4.296876 15.253906.183593 30.296875-3.550782 43.695312-10.839844 20.332032-11.542969 35.042969-30.914063 40.707032-53.601563 5.597656-21-.746094-40.589843-6.402344-57.878906-4.101562-10.597656-6.59375-21.746094-7.398438-33.078125.667969-4.207031 2.402344-8.167969 5.039063-11.511719 2.949219-4.296875 5.242187-9.011719 6.800781-13.984375 6.757813-25.195312-2.449218-51.972656-23.273437-67.679687l30.199219-112.699219c.675781.179688 1.367187.269531 2.066406.273438 3.996094.003906 7.378906-2.945313 7.925781-6.902344l2.074219-14.984375 9.597656 2.574219 4.136719-15.457032-11.527344-3.085937 1.105469-8zm-43.105469-28.113281 17.28125 4.625-6.625 47.921875-28.871094-7.738281zm-7.109375 246.570312c-1.199219 3.429688-2.859375 6.683594-4.9375 9.664063-4.398438 5.824219-6.988282 12.8125-7.457032 20.09375.773438 12.980469 3.535157 25.761719 8.183594 37.90625 5.417969 16.640625 10.535156 32.367187 6.128906 48.800781-4.550781 18.484375-16.476562 34.300782-33 43.757813-19.496093 9.851562-42.078124 11.675781-62.902343 5.082031-21.335938-4.695312-39.984375-17.5625-51.9375-35.847656-9.574219-16.457032-11.996094-36.113282-6.703125-54.402344 4.398437-16.429688 16.695312-27.496094 29.71875-39.199219 10.085937-8.191406 18.863281-17.878906 26.023437-28.71875 3.238281-6.546875 4.492188-13.898437 3.601563-21.144531-.320313-3.621094-.132813-7.269531.550781-10.839844 5.625-20.953125 24.585937-35.539062 46.28125-35.601562 4.222656.003906 8.429687.5625 12.511719 1.65625 25.609375 6.863281 40.804687 33.191406 33.9375 58.800781zm-22.25-71.648437c-4.933594-2.078125-10.128906-3.46875-15.441406-4.128906l29.136718-108.71875 15.457032 4.136719zm0 0"/><path d="m200.5 176c13.253906 0 24-10.746094 24-24v-41.761719l48-12v15.203125c-2.5625-.9375-5.269531-1.425781-8-1.441406-13.253906 0-24 10.746094-24 24s10.746094 24 24 24 24-10.746094 24-24v-72c0-2.460938-1.136719-4.789062-3.074219-6.304688-1.941406-1.515624-4.472656-2.050781-6.863281-1.457031l-64 16c-3.5625.890625-6.0625 4.089844-6.0625 7.761719v49.472656c-2.5625-.949218-5.269531-1.445312-8-1.472656-13.253906 0-24 10.746094-24 24s10.746094 24 24 24zm64-32c-4.417969 0-8-3.582031-8-8s3.582031-8 8-8 8 3.582031 8 8-3.582031 8-8 8zm8-69.753906v7.515625l-48 12v-7.515625zm-72 69.753906c4.417969 0 8 3.582031 8 8s-3.582031 8-8 8-8-3.582031-8-8 3.582031-8 8-8zm0 0"/><path d="m24.5 120c13.253906 0 24-10.746094 24-24v-41.761719l48-12v15.203125c-2.5625-.9375-5.269531-1.425781-8-1.441406-13.253906 0-24 10.746094-24 24s10.746094 24 24 24 24-10.746094 24-24v-72c0-2.464844-1.136719-4.789062-3.078125-6.308594-1.941406-1.515625-4.476563-2.050781-6.867187-1.453125l-64 16c-3.558594.894531-6.054688 4.09375-6.054688 7.761719v49.472656c-2.5625-.949218-5.269531-1.445312-8-1.472656-13.253906 0-24 10.746094-24 24s10.746094 24 24 24zm64-32c-4.417969 0-8-3.582031-8-8s3.582031-8 8-8 8 3.582031 8 8-3.582031 8-8 8zm8-69.753906v7.515625l-48 12v-7.515625zm-72 69.753906c4.417969 0 8 3.582031 8 8s-3.582031 8-8 8-8-3.582031-8-8 3.582031-8 8-8zm0 0"/></svg>