<?xml version="1.0" encoding="UTF-8"?>
<!-- Generator: Adobe Illustrator 25.2.3, SVG Export Plug-In . SVG Version: 6.00 Build 0)  -->
<svg xmlns="http://www.w3.org/2000/svg" xmlns:xlink="http://www.w3.org/1999/xlink" version="1.1" id="Capa_1" x="0px" y="0px" viewBox="0 0 511.977 511.977" style="enable-background:new 0 0 511.977 511.977;" xml:space="preserve" width="512" height="512">
<g>
	<g>
		<g>
			<path style="fill:#FFFFFF;" d="M256,511.544c-59.671-0.119-118.976-21.579-164.712-60.018C34.012,403.389,0,330.347,0,255.562     C0,161.854,54.193,72.555,137.018,28.86c86.346-45.552,198.089-35.508,275.333,24.008     c65.441,50.422,104.118,134.79,99.208,217.479c-3.955,66.612-34.786,130.984-84.435,175.607     C380.645,487.727,318.515,511.669,256,511.544z"/>
		</g>
	</g>
	<g>
		<g>
			<g>
				<path style="fill:#5D3552;" d="M400.549,63.6c57.527,43.71,94.801,112.717,95.273,190.447l0,0l-43.698,135.669L276.276,495.709      c-7.107,0.621-14.288,0.944-21.545,0.944c-3.416,0-6.816-0.071-10.198-0.212c0,0-80.818-43.581-118.262-71.193      C82.455,392.937,21.394,316.407,21.394,316.407c-1.402-5.4-2.622-10.873-3.653-16.413c-2.708-14.413-4.1-29.248-4.1-44.431      c0-61.279,22.861-117.215,60.533-159.733c3.131-3.529,6.362-6.983,9.691-10.312c2.212-2.236,4.448-4.423,6.759-6.536      c3.504-3.28,7.132-6.461,10.834-9.517c7.554-6.262,15.531-12.027,23.831-17.32c7.306-4.672,14.86-8.946,22.663-12.772      c32.18-15.954,68.436-24.899,106.778-24.899c30.043,0,58.794,5.492,85.333,15.531L350.116,49.5l20.466,1.849l21.841,17.805      L400.549,63.6z"/>
			</g>
		</g>
		<g>
			<g>
				<g>
					<path style="fill:#FFE2CF;" d="M441.256,122.805c0,0-0.81,14.086-4.048,15.22c-3.238,1.133-14.357,1.079-14.357,1.079       s13.979,3.022,14.95,5.127c0.972,2.105,2.807,15.328,2.807,15.328s1.241-14.194,3.184-15.652s12.521-3.347,12.521-3.347       s-11.064-1.727-12.683-3.292C442.303,135.986,441.256,122.805,441.256,122.805z"/>
				</g>
			</g>
			<g>
				<g>
					<path style="fill:#FFE2CF;" d="M164.118,56.204c0,0-0.81,14.086-4.048,15.22c-3.238,1.133-14.357,1.079-14.357,1.079       s13.979,3.022,14.95,5.127c0.972,2.105,2.807,15.328,2.807,15.328s1.241-14.194,3.184-15.651       c1.943-1.457,12.521-3.347,12.521-3.347s-11.064-1.727-12.684-3.292C165.165,69.385,164.118,56.204,164.118,56.204z"/>
				</g>
			</g>
			<g>
				<g>
					<path style="fill:#FFE2CF;" d="M47.971,232.444c0,0-0.81,14.087-4.048,15.22c-3.238,1.133-14.357,1.08-14.357,1.08       s13.979,3.022,14.95,5.127c0.972,2.105,2.807,15.328,2.807,15.328s1.241-14.194,3.184-15.652       c1.943-1.457,12.521-3.346,12.521-3.346s-11.064-1.727-12.683-3.292C49.018,245.626,47.971,232.444,47.971,232.444z"/>
				</g>
			</g>
		</g>
		<g>
			<g>
				
					<ellipse transform="matrix(0.165 -0.9863 0.9863 0.165 101.5968 303.7645)" style="fill:#FFEAE6;" cx="230.192" cy="91.882" rx="35.952" ry="35.953"/>
			</g>
		</g>
		<g>
			<g>
				<path style="fill:#FFEAE6;" d="M392.423,57.636H280.55c2.907-3.752,6.933-6.684,11.456-8.151c7.629-2.51,16.45-0.87,22.688,4.2      c5.542-10.412,14.686-18.711,25.371-23.681c11.654,4.398,22.886,9.716,33.597,15.804c1.068,0.596,2.137,1.217,3.181,1.864      c0.373,0.199,0.745,0.422,1.118,0.646c1.665,0.969,3.305,1.988,4.92,3.031c0.373,0.199,0.745,0.447,1.118,0.696      c1.64,1.044,3.28,2.087,4.895,3.206c0.373,0.223,0.746,0.472,1.118,0.745C390.832,56.543,391.628,57.09,392.423,57.636z"/>
			</g>
		</g>
		<g>
			<g>
				<path style="fill:#FFEAE6;" d="M263.889,192.446l-0.124,1.367H40.442c3.529-3.901,7.679-7.157,12.474-9.293      c8.846-4.001,20.004-3.678,27.658,2.336c10.064-24.029,35.112-40.977,61.155-41.374c26.042-0.422,51.613,15.73,62.422,39.411      C221.123,169.783,251.215,173.585,263.889,192.446z"/>
			</g>
		</g>
		<g style="opacity:0.28;">
			<g>
				<path style="fill:#95B0FF;" d="M491.722,299.994L415.03,412.074c0,0-130.741,82.922-138.744,83.631      c-7.099,0.629-14.289,0.948-21.555,0.948c-3.454,0-6.883-0.074-10.312-0.224c0,0-84.009-35.242-123.057-67.121      S21.394,316.395,21.394,316.395c-1.392-5.392-2.634-10.859-3.653-16.401H491.722z"/>
			</g>
		</g>
		<g>
			<g>
				<g>
					<g>
						<g>
							<g>
								<path style="fill:#FF686F;" d="M428.566,203.864c0-38.369-31.104-69.473-69.473-69.473          c-38.369,0-69.473,31.104-69.473,69.473c0,5.442,0.646,10.731,1.83,15.813c-30.096,15.558-50.683,46.946-50.683,83.162          c0,51.684,41.898,93.582,93.582,93.582s93.582-41.898,93.582-93.582c0-19.767-6.144-38.09-16.604-53.197          C422.051,237.415,428.566,221.405,428.566,203.864z"/>
							</g>
						</g>
					</g>
					<g>
						<g>
							<g>
								<path style="fill:#FFBA6E;" d="M417.78,203.864c0-38.369-31.104-69.473-69.473-69.473          c-38.369,0-69.473,31.104-69.473,69.473c0,5.442,0.646,10.731,1.83,15.813c-30.096,15.558-50.683,46.946-50.683,83.162          c0,51.684,41.898,93.582,93.582,93.582s93.582-41.898,93.582-93.582c0-19.767-6.144-38.09-16.604-53.197          C411.265,237.415,417.78,221.405,417.78,203.864z"/>
							</g>
						</g>
					</g>
				</g>
				<g>
					<g>
						<g>
							<g>
								<path style="fill:#FFBA6E;" d="M400.549,63.6l-19.457,74.375l-1.069,4.075l-22.638,86.477l-17.27,66l-9.169,35.088          l-2.262,8.598l-25.545-6.958l1.864-7.529l8.747-35.46l16.575-67.069l21.346-86.402l0.074-0.298l21.918-88.688          c1.068,0.596,2.137,1.217,3.181,1.864c0.373,0.199,0.745,0.422,1.118,0.646c1.665,0.969,3.305,1.988,4.92,3.031          c0.373,0.199,0.745,0.447,1.118,0.696c1.64,1.044,3.28,2.087,4.895,3.206c0.373,0.223,0.746,0.472,1.118,0.745          c1.64,1.093,3.255,2.212,4.846,3.38c0.373,0.248,0.745,0.522,1.093,0.795C397.492,61.264,399.033,62.407,400.549,63.6z"/>
							</g>
						</g>
					</g>
					<g style="opacity:0.51;">
						<g>
							<g>
								<path style="fill:#FF686F;" d="M400.549,63.6l-19.457,74.375l-1.069,4.075l-22.638,86.477l-17.27,66l-9.169,35.088          l-2.262,8.598l-25.545-6.958l1.864-7.529l8.747-35.46l16.575-67.069l21.346-86.402l0.074-0.298l21.918-88.688          c1.068,0.596,2.137,1.217,3.181,1.864c0.373,0.199,0.745,0.422,1.118,0.646c1.665,0.969,3.305,1.988,4.92,3.031          c0.373,0.199,0.745,0.447,1.118,0.696c1.64,1.044,3.28,2.087,4.895,3.206c0.373,0.223,0.746,0.472,1.118,0.745          c1.64,1.093,3.255,2.212,4.846,3.38c0.373,0.248,0.745,0.522,1.093,0.795C397.492,61.264,399.033,62.407,400.549,63.6z"/>
							</g>
						</g>
					</g>
				</g>
				<g>
					<g>
						<g>
							<circle style="fill:#5D3552;" cx="334.878" cy="257.898" r="37.01"/>
						</g>
					</g>
				</g>
				<g>
					<g>
						<g>
							
								<rect x="278.834" y="326.208" transform="matrix(0.9752 0.2213 -0.2213 0.9752 81.3432 -61.5043)" style="fill:#5D3552;" width="72.751" height="12.266"/>
						</g>
					</g>
				</g>
				<g>
					<g>
						<g>
							<path style="fill:#5D3552;" d="M376.842,47.672c0.373,0.199,0.745,0.422,1.118,0.646l-21.47,86.153l-0.099,0.398         l-21.42,86.029l-17.345,69.753l-8.474,34.019l-1.168,4.647l-1.193-0.298l1.143-4.622l8.573-34.367l17.196-69.107         l21.47-86.203l0.05-0.199L376.842,47.672z"/>
						</g>
					</g>
				</g>
				<g>
					<g>
						<g>
							<path style="fill:#5D3552;" d="M382.881,51.349c0.373,0.199,0.745,0.447,1.118,0.696l-20.526,82.5l-0.373,1.441         l-21.296,85.557l-17.867,71.716l-8.2,32.926l-0.77,3.131l-1.218-0.298l0.77-3.131l8.225-33.025l17.817-71.542l21.321-85.582         l0.298-1.268L382.881,51.349z"/>
						</g>
					</g>
				</g>
				<g>
					<g>
						<g>
							<path style="fill:#5D3552;" d="M382.881,51.349c0.373,0.199,0.745,0.447,1.118,0.696l-20.526,82.5l-0.373,1.441         l-21.296,85.557l-17.867,71.716l-8.2,32.926l-0.77,3.131l-1.218-0.298l0.77-3.131l8.225-33.025l17.817-71.542l21.321-85.582         l0.298-1.268L382.881,51.349z"/>
						</g>
					</g>
				</g>
				<g>
					<g>
						<g>
							<path style="fill:#5D3552;" d="M388.894,55.251c0.373,0.223,0.746,0.472,1.118,0.745l-19.755,79.295l-0.621,2.46         l-21.321,85.657l-17.743,71.244l-8.225,33.025l-0.397,1.64l-1.218-0.298l0.398-1.615l8.2-32.926l17.817-71.492l21.296-85.607         l0.572-2.261L388.894,55.251z"/>
						</g>
					</g>
				</g>
				<g>
					<g>
						<g>
							<path style="fill:#5D3552;" d="M388.894,55.251c0.373,0.223,0.746,0.472,1.118,0.745l-19.755,79.295l-0.621,2.46         l-21.321,85.657l-17.743,71.244l-8.225,33.025l-0.397,1.64l-1.218-0.298l0.398-1.615l8.2-32.926l17.817-71.492l21.296-85.607         l0.572-2.261L388.894,55.251z"/>
						</g>
					</g>
				</g>
				<g>
					<g>
						<g>
							<path style="fill:#5D3552;" d="M394.858,59.376c0.373,0.248,0.745,0.522,1.093,0.795l-19.06,76.537l-0.87,3.454         l-21.495,86.377L337.53,294.8l-8.573,34.367l-0.025,0.149l-1.218-0.298l0.025-0.125l8.474-34.019l17.196-69.032         l21.445-86.178l0.82-3.255L394.858,59.376z"/>
						</g>
					</g>
				</g>
			</g>
			<g>
				<g>
					<g>
						<path style="fill:#5D3552;" d="M399.726,406.565H263.948c4.647-8.002,12.375-14.239,21.271-16.823        c11.331-3.305,24.228-0.621,33.298,6.933c0.472-21.694,19.358-41.424,41.027-42.816c5.765-0.373,11.679,0.422,16.923,2.858        c9.319,4.349,15.68,13.493,18.985,23.209C398.359,388.474,399.179,397.544,399.726,406.565z"/>
					</g>
				</g>
			</g>
		</g>
		<g>
			<g>
				<path style="fill:#CEE5DA;" d="M249.439,486.216c-1.317,3.578-3.007,6.983-5.02,10.213      c-107.574-4.523-196.933-79.518-223.025-180.035c1.218-0.422,2.386-0.795,3.529-1.093c16.5-4.448,35.535-1.069,48.233,10.735      c13.493,12.524,18.041,31.733,21.917,49.749c1.466,6.883,2.957,13.742,4.448,20.625c4.175-14.686,21.147-24.377,35.932-20.501      c12.4,3.255,21.52,14.462,25.521,26.638c3.976,12.201,3.653,25.347,2.708,38.119c9.89-10.785,23.483-18.09,37.945-20.352      c11.729-1.839,24.452-0.174,34.019,6.834c8.101,5.939,13.295,15.257,15.73,24.999      C254.135,463.355,253.464,475.382,249.439,486.216z"/>
			</g>
		</g>
		<g>
			<g style="opacity:0.2;">
				<g>
					<path style="fill:#FFEAE6;" d="M275.133,113.921c-5.914,13.195-19.408,21.544-33.224,25.818       c-13.816,4.299-28.403,5.293-42.543,8.325c-18.538,4.001-36.255,11.555-51.96,22.166c-7.529,5.094-14.86,11.207-18.488,19.532       c-3.628,8.325-2.46,19.333,4.771,24.8c4.547,3.454,10.511,4.2,16.152,4.995c9.492,1.317,19.358,3.255,26.788,9.319       c15.879,12.971,5.964,38.666-15.307,34.392c-8.126-1.64-16.649-9.045-24.203-12.524c-9.592-4.448-19.557-8.822-26.515-17.097       c-8.523-10.139-10.785-25.148-5.616-37.349c11.381-26.962,49.252-31.087,67.466-53.998c2.261-2.833,4.225-6.038,4.697-9.617       c0.497-3.678-0.646-7.455-2.559-10.636c-8.499-14.363-28.105-16.003-44.705-17.743c-10.735-1.118-21.569-3.032-31.261-7.753       c-5.541-2.708-10.685-6.436-14.761-11.033c2.212-2.236,4.448-4.423,6.759-6.536c3.504-3.28,7.132-6.461,10.834-9.517       c2.286,3.429,6.51,5.02,10.536,5.964c10.735,2.485,21.967,1.764,32.951,0.671c18.637-1.864,37.175-4.697,55.489-8.474       c11.008-2.286,22.042-4.92,33.298-5.045c11.232-0.149,22.911,2.46,31.584,9.592C277.195,81.914,281.42,99.906,275.133,113.921z       "/>
				</g>
			</g>
			<g>
				<g>
					<g>
						<g>
							<g>
								<path style="fill:#FFBA6E;" d="M222.999,310.058l-17.743,43.164l-0.025,0.025l-43.362-12.698l-27.409-8.026l-47.786-14.015          l-8.996-2.634l-1.864-0.547c0,0-0.025-0.05-0.05-0.149c-0.423-1.889-4.398-20.551,9.84-31.484          c0.596-0.448,1.218-0.895,1.864-1.317c1.168-0.77,2.435-1.466,3.827-2.112c0.919-0.422,1.888-0.845,2.907-1.218          l41.921,10.089h0.025l16.351,3.951L222.999,310.058z"/>
							</g>
						</g>
						<g style="opacity:0.18;">
							<g>
								<path style="fill:#FF686F;" d="M222.999,310.058l-17.743,43.164l-0.025,0.025L86.873,318.432h-0.025l-8.996-2.634          l-2.087-0.621l-0.423-0.124c0,0-4.87-19.929,10.263-31.36c0.596-0.448,1.218-0.895,1.864-1.317          c1.168-0.77,2.435-1.466,3.827-2.112c0.919-0.422,1.888-0.845,2.907-1.218l41.921,10.089h0.025l16.351,3.951          L222.999,310.058z"/>
							</g>
						</g>
						<g>
							<g>
								<path style="fill:#FFEAE6;" d="M205.29,353.255c0,0-10.839-11.814-3.648-26.397c7.19-14.583,21.36-16.799,21.36-16.799          l-17.738,43.219L205.29,353.255z"/>
							</g>
						</g>
					</g>
					<g style="opacity:0.2;">
						<g>
							<polygon style="fill:#5D3552;" points="152.501,293.086 86.873,318.432 86.848,318.432 86.674,318.507 77.678,315.873          77.852,315.798 136.125,289.135 136.15,289.135        "/>
						</g>
					</g>
					<g style="opacity:0.33;">
						<g>
							<path style="fill:#5D3552;" d="M202.871,305.212c-1.069,0.099-2.137,0.199-3.181,0.323c-16.5,1.789-33.597,1.889-48.78,8.548         c-4.075,1.789-8.002,4.05-11.083,7.256c-2.907,3.007-5.02,6.933-5.343,11.108c-0.025,0.025-0.025,0.05-0.025,0.075         l27.409,8.026c0.025,0,0.05-0.025,0.075-0.025c18.662-9.965,36.429-20.476,54.271-32.106L202.871,305.212z"/>
						</g>
					</g>
					<g>
						<g>
							<g>
								<path style="fill:#FFBA6E;" d="M203.98,269.505c0,0,21.992,16.925,7.73,39.932L90.983,363.979l-12.479-45.008          L203.98,269.505z"/>
							</g>
						</g>
						<g style="opacity:0.18;">
							<g>
								<path style="fill:#FF686F;" d="M204.525,269.431c0,0,21.446,16.999,7.184,40.005L90.983,363.979l-12.479-45.008          L204.525,269.431z"/>
							</g>
						</g>
						<g>
							<g>
								<path style="fill:#FFEAE6;" d="M78.462,319.003c0,0,15.808,2.678,19.079,18.605c3.271,15.927-6.558,26.371-6.558,26.371          l-12.514-45.01L78.462,319.003z"/>
							</g>
						</g>
					</g>
				</g>
				<g>
					<g>
						<g>
							<path style="fill:#FF686F;" d="M217.538,279.647c-2.953,10.566-9.85,19.976-19.04,25.974         c-3.889,2.531-8.034,4.402-12.326,5.778c-8.64,2.788-17.921,3.65-27.001,4.127c-8.64,0.459-17.279,0.789-25.937,0.642         c-2.256-0.018-4.513-0.073-6.769-0.165c-8.291-0.349-16.766-1.321-24.452-4.66c-10.254-4.439-18.582-13.115-22.636-23.516         c-4.035-10.419-3.742-22.434,0.807-32.633c3.962-8.86,10.896-16.234,14.216-25.369c3.815-10.474,2.219-22.746-4.109-31.917         c9.814-2.788,21.297,2.733,25.241,12.162c1.082,2.586,1.651,5.393,2.935,7.906c1.284,2.495,3.577,4.769,6.384,4.934         c3.76,0.238,6.75-3.394,7.667-7.062c1.669-6.659-1.266-13.592-4.934-19.389c-3.669-5.796-8.218-11.189-10.327-17.72         c-4.494-13.923,3.65-29.423,15.482-38.044c-1.449,6.31-1.743,13.611,2.385,18.618c6.365,7.741,18.82,5.631,27.68,10.291         c7.924,4.146,12.125,14.308,9.465,22.837c-1.101,3.522-3.192,6.64-4.751,9.961c-1.577,3.338-2.678,7.154-1.633,10.694         c1.027,3.522,4.879,6.402,8.383,5.283c1.376-0.44,2.513-1.412,3.522-2.458c8.897-9.209,8.64-23.791,6.237-36.357         c11.299,6.2,23.314,13.116,28.799,24.764c4.017,8.53,3.797,18.93-0.569,27.295c-3.375,6.475-9.172,12.033-10.015,19.279         c-0.202,1.743-0.073,3.614,0.899,5.063c0.954,1.467,2.935,2.348,4.531,1.632c0.844-0.385,1.449-1.119,2.018-1.834         c1.944-2.55,3.65-5.301,5.026-8.199C219.464,257.452,220.492,269.081,217.538,279.647z"/>
						</g>
					</g>
					<g>
						<g>
							<path style="fill:#FFEAE6;" d="M186.172,311.399c-8.64,2.788-17.921,3.65-27.001,4.127         c-8.64,0.459-17.279,0.789-25.937,0.642c-7.503-2.916-14.051-7.631-18.325-15.06c-5.338-9.3-4.842-22.232,2.788-29.789         c3.87-3.834,9.227-6.109,12.492-10.492c2.531-3.375,3.522-7.649,4.458-11.776c-0.165,4.732-0.293,9.722,1.944,13.886         c2.238,4.164,7.723,6.989,11.85,4.678c2.219-1.229,3.54-3.614,4.347-6.017c1.339-3.999,1.504-8.383,0.459-12.455         c-1.413-5.54-4.989-10.602-4.989-16.326c0-4.769,2.788-9.465,6.989-11.74c-1.596,7.888,1.999,16.601,8.731,21.04         c2.733,1.816,5.962,3.008,8.218,5.411c2.495,2.678,3.412,6.567,3.008,10.199s-1.999,7.044-3.98,10.125         c-2.678,4.127-6.255,8.456-5.411,13.299c0.202,1.156,0.715,2.311,1.651,3.027c2.219,1.651,5.393,0,7.356-1.963         c2.201-2.219,3.98-4.861,5.191-7.741c4.586,6.585,7.484,14.326,8.364,22.287         C188.923,301.751,188.593,307.107,186.172,311.399z"/>
						</g>
					</g>
				</g>
			</g>
		</g>
		<g>
			<g>
				<path style="fill:#CEE5DA;" d="M495.822,254.047v1.516c0,15.183-1.392,30.018-4.1,44.431      c-19.557,105.064-107.226,186.123-215.445,195.715c-1.242-5.74-0.547-12.599,2.708-20.774      c8.946-22.389,39.461-29.67,60.161-21.172c-7.157-30.987-2.038-65.975,18.935-89.881c20.998-23.88,59.266-33,86.178-16.078      c-3.206-9.294-1.044-20.252,5.442-27.657c6.511-7.381,17.096-10.934,26.738-8.971c-2.535-17.146,0.273-35.783,11.133-49.326      C489.932,258.893,492.716,256.284,495.822,254.047z"/>
			</g>
		</g>
	</g>
</g>















</svg>
