<?xml version="1.0" encoding="UTF-8"?>
<!-- Generator: Adobe Illustrator 27.1.1, SVG Export Plug-In . SVG Version: 6.00 Build 0)  -->
<svg xmlns="http://www.w3.org/2000/svg" xmlns:xlink="http://www.w3.org/1999/xlink" version="1.1" id="Capa_1" x="0px" y="0px" viewBox="0 0 512 512" style="enable-background:new 0 0 512 512;" xml:space="preserve" width="512" height="512">
<g>
	<path style="fill:#241726;" d="M117.072,295.689c-0.839,0-1.652-0.499-3.648-8.907c-7.484-1.542-8.129-2.436-8.345-2.734   c-0.208-0.287-0.293-0.809-0.192-1.15c0.143-0.479,0.471-1.589,9.089-4.931c3.087-7.744,4.156-7.879,4.734-7.953   c0.433-0.056,1.007,0.214,1.251,0.553c0.542,0.746,1.016,2.674,1.732,5.758c0.225,0.967,0.496,2.133,0.654,2.647   c0.448,0.207,1.437,0.577,2.257,0.883c4.386,1.638,5.515,2.19,5.707,3.245c0.071,0.394-0.137,0.969-0.44,1.232   c-0.905,0.791-5.185,2.318-7.43,3.084c-3.736,8.211-4.513,8.24-5.199,8.27C117.185,295.687,117.128,295.689,117.072,295.689z    M107.993,283.106c1.493,0.452,4.219,1.108,6.599,1.584c0.439,0.087,0.785,0.423,0.887,0.86c0.577,2.478,1.338,5.303,1.892,6.917   c0.85-1.484,2.144-4.116,3.195-6.445c0.13-0.287,0.374-0.51,0.675-0.611c2.046-0.691,4.358-1.54,5.799-2.15   c-0.997-0.435-2.354-0.94-3.234-1.27c-2.508-0.936-2.979-1.137-3.298-1.578c-0.277-0.381-0.445-1.018-1.038-3.572   c-0.223-0.96-0.564-2.433-0.871-3.537c-0.767,1.417-1.843,3.828-2.684,5.965c-0.117,0.296-0.354,0.533-0.653,0.646   C112.601,280.938,109.578,282.246,107.993,283.106z"/>
	<path style="fill:#241726;" d="M498.745,298.118c-0.837,0-1.65-0.499-3.646-8.907c-7.483-1.542-8.128-2.431-8.345-2.73   c-0.208-0.288-0.293-0.811-0.192-1.152c0.143-0.479,0.471-1.589,9.088-4.931c3.087-7.744,4.156-7.88,4.734-7.953   c0.422-0.047,1.007,0.214,1.251,0.553c0.541,0.744,1.015,2.672,1.731,5.756c0.225,0.967,0.496,2.133,0.654,2.647   c0.447,0.207,1.435,0.575,2.255,0.882c4.387,1.638,5.516,2.19,5.709,3.245c0.071,0.397-0.137,0.969-0.439,1.234   c-0.906,0.791-5.187,2.318-7.432,3.084c-3.738,8.212-4.516,8.241-5.202,8.267C498.856,298.116,498.801,298.118,498.745,298.118z    M489.67,285.537c1.493,0.45,4.218,1.105,6.597,1.582c0.439,0.087,0.785,0.423,0.887,0.86c0.577,2.478,1.338,5.304,1.892,6.917   c0.85-1.484,2.144-4.116,3.195-6.442c0.13-0.288,0.374-0.51,0.675-0.611c2.047-0.691,4.36-1.542,5.801-2.15   c-0.997-0.437-2.358-0.943-3.239-1.272c-2.505-0.936-2.976-1.136-3.295-1.578c-0.277-0.381-0.445-1.016-1.038-3.572   c-0.223-0.96-0.564-2.431-0.871-3.534c-0.767,1.417-1.843,3.828-2.684,5.965c-0.117,0.296-0.354,0.533-0.653,0.646   C494.276,283.369,491.255,284.677,489.67,285.537z"/>
	<g>
		<g>
			<path style="fill:#FFFFFF;" d="M30.769,372.296c0,0-2.167-17.089,13.684-11.577c15.85,5.513,10.683,21.167,4.64,15.819     c-6.042-5.348,5.299-23.523,17.428-15.449c12.128,8.074,9.413,23.77,0.809,24.937s5.212-18.277,16.048-6.29     c10.836,11.987-12.831,33.891-22.508,25.858c-9.676-8.033-2.1-21.023,0.22-13.114c2.32,7.909-3.942,15.675-21.106,15.388     c-17.164-0.288-9.347-27.704-3.348-19.733c5.998,7.971-3.964,16.987-16.07,7.601C8.459,386.352,22.274,366.907,30.769,372.296z"/>
			<path style="fill:#241726;" d="M40.873,409.016c-0.301,0-0.603-0.002-0.908-0.007c-5.647-0.096-9.617-3.077-11.018-8.225     c-2.744-0.363-5.843-1.636-9.081-4.145c-7.203-5.584-6.027-14.471-1.886-20.365c3.286-4.675,7.79-6.85,11.545-5.774     c-0.022-2.701,0.44-7.543,3.724-10.204c2.683-2.173,6.578-2.391,11.579-0.655c2.367,0.824,4.238,1.836,5.718,2.926     c3.769-4.074,9.991-6.83,16.608-2.427c6.144,4.089,8.457,9.736,8.679,14.534c2.565,0.069,5.516,1.119,8.391,4.298     c6.267,6.933,2.032,16.129-3.499,21.901c-6.017,6.28-15.02,10.219-20.585,5.6c-0.762-0.633-1.431-1.301-2.012-1.99     C54.322,407.434,48.356,409.016,40.873,409.016z M31.358,400.873c0.978,2.879,3.296,5.765,8.645,5.854     c7.45,0.12,13.287-1.315,16.799-4.096c-2.192-3.646-2.311-7.641-1.184-10.574c0.787-2.048,2.085-3.191,3.526-3.178     c0.959,0.04,2.266,0.639,3.041,3.28c1.056,3.601,0.45,7.144-1.706,9.974c-0.211,0.276-0.435,0.544-0.672,0.804     c0.505,0.606,1.099,1.203,1.792,1.778c4.447,3.686,12.323-0.042,17.479-5.424c4.853-5.063,8.67-13.02,3.453-18.792     c-2.324-2.572-4.673-3.467-6.749-3.541c-0.064,0.677-0.168,1.324-0.309,1.934c-1.052,4.57-4.114,7.735-7.99,8.261     c-2.772,0.388-3.595-1.101-3.823-1.751c-0.852-2.449,1.845-6.641,5.773-8.967c0.91-0.539,2.359-1.246,4.127-1.578     c-0.173-4.192-2.205-9.181-7.671-12.82c-5.377-3.581-10.38-1.466-13.608,2.008c3.214,3.178,3.747,6.603,3.826,7.931     c0.174,2.955-0.971,5.475-2.916,6.422c-1.52,0.742-3.293,0.377-4.856-1.007c-3.422-3.028-2.183-8.831,0.773-13.045     c-1.294-0.94-2.938-1.823-5.031-2.549c-4.203-1.462-7.363-1.373-9.388,0.267c-3.635,2.937-2.799,10.017-2.79,10.088     c0.055,0.439-0.148,0.869-0.521,1.105c-0.373,0.234-0.847,0.238-1.222,0c-3.453-2.19-7.766,0.706-10.31,4.328     c-3.539,5.036-4.604,12.581,1.416,17.248c2.601,2.017,5.061,3.133,7.239,3.57c-0.583-5.355,1.391-11.175,4.447-12.557     c0.762-0.345,2.733-0.874,4.597,1.602c2.763,3.67,2.68,8.049-0.206,10.895C35.898,399.766,33.834,400.713,31.358,400.873z      M59.044,391.16c-0.218,0-0.833,0.51-1.297,1.716c-0.668,1.74-0.983,4.916,0.733,8.109c0.062-0.078,0.123-0.154,0.183-0.232     c1.73-2.273,2.19-5.021,1.33-7.951c-0.391-1.332-0.851-1.638-0.944-1.642C59.049,391.16,59.047,391.16,59.044,391.16z      M34.308,387.824c-0.192,0-0.332,0.062-0.419,0.103c-1.812,0.818-3.761,5.796-3.062,10.692c2.068-0.045,3.76-0.767,4.91-1.899     c2.068-2.039,2.061-5.139-0.014-7.897C35.112,388.009,34.636,387.824,34.308,387.824z M73.46,377.21     c-1.132,0.276-2.109,0.742-2.863,1.19c-3.389,2.008-5.128,5.257-4.781,6.253c0.135,0.388,1.154,0.267,1.36,0.243     c2.912-0.397,5.24-2.892,6.073-6.513C73.336,378.008,73.406,377.616,73.46,377.21z M50.845,365.846     c-2.604,3.793-3.07,8.004-0.996,9.84c0.599,0.528,1.492,1.079,2.345,0.662c0.882-0.43,1.771-1.936,1.635-4.234     C53.766,371.062,53.345,368.413,50.845,365.846z"/>
		</g>
	</g>
	<g>
		<g>
			<path style="fill:#FFFFFF;" d="M344.985,40.469c0,0-2.167-17.089,13.684-11.577c15.85,5.513,10.683,21.167,4.64,15.819     c-6.042-5.348,5.299-23.523,17.428-15.449c12.128,8.074,9.413,23.77,0.809,24.937s5.212-18.277,16.048-6.29     c10.836,11.987-12.831,33.891-22.508,25.858c-9.676-8.033-2.1-21.023,0.22-13.114s-3.942,15.675-21.106,15.388     c-17.164-0.288-9.347-27.704-3.348-19.733c5.998,7.971-3.964,16.986-16.07,7.601C322.675,54.525,336.49,35.08,344.985,40.469z"/>
			<path style="fill:#241726;" d="M355.089,77.188c-0.301,0-0.603-0.002-0.908-0.007c-5.647-0.096-9.617-3.077-11.018-8.225     c-2.744-0.363-5.843-1.636-9.081-4.145c-7.202-5.582-6.028-14.469-1.888-20.361c3.285-4.675,7.78-6.843,11.547-5.778     c-0.022-2.701,0.44-7.543,3.724-10.204c2.682-2.175,6.579-2.391,11.579-0.655c2.366,0.824,4.238,1.836,5.718,2.928     c3.769-4.078,9.996-6.832,16.607-2.429c6.145,4.089,8.458,9.738,8.681,14.534c2.565,0.071,5.516,1.119,8.391,4.299     c6.268,6.932,2.032,16.131-3.501,21.903c-6.019,6.279-15.022,10.213-20.583,5.598c-0.762-0.633-1.431-1.301-2.013-1.99     C368.538,75.606,362.572,77.188,355.089,77.188z M345.574,69.045c0.978,2.879,3.296,5.765,8.645,5.854     c7.451,0.105,13.287-1.315,16.799-4.096c-2.192-3.646-2.311-7.639-1.184-10.574c0.787-2.046,2.058-3.26,3.526-3.175     c0.959,0.038,2.266,0.64,3.041,3.278c1.056,3.601,0.45,7.144-1.706,9.974c-0.211,0.276-0.435,0.544-0.672,0.804     c0.505,0.606,1.099,1.203,1.792,1.778c4.446,3.688,12.32-0.04,17.478-5.419c4.854-5.065,8.672-13.025,3.454-18.796     c-2.324-2.572-4.674-3.465-6.749-3.539c-0.063,0.675-0.168,1.324-0.309,1.934c-1.052,4.57-4.114,7.735-7.99,8.261     c-2.766,0.386-3.594-1.101-3.824-1.751c-0.852-2.449,1.845-6.641,5.774-8.967c0.909-0.539,2.358-1.246,4.127-1.58     c-0.172-4.192-2.205-9.181-7.671-12.82c-5.376-3.572-10.381-1.469-13.608,2.01c3.215,3.178,3.747,6.603,3.826,7.931     c0.174,2.955-0.97,5.475-2.916,6.42c-1.521,0.742-3.291,0.379-4.856-1.007c-3.422-3.028-2.183-8.829,0.773-13.043     c-1.292-0.943-2.938-1.825-5.031-2.552c-4.204-1.462-7.361-1.373-9.388,0.267c-3.635,2.937-2.799,10.017-2.79,10.088     c0.055,0.439-0.148,0.869-0.521,1.105c-0.373,0.234-0.848,0.238-1.221,0c-3.457-2.19-7.767,0.711-10.313,4.332     c-3.536,5.034-4.6,12.577,1.418,17.243c2.6,2.017,5.061,3.133,7.239,3.57c-0.583-5.355,1.391-11.175,4.447-12.557     c0.762-0.348,2.733-0.876,4.597,1.602c2.763,3.67,2.68,8.049-0.206,10.895C350.114,67.938,348.05,68.885,345.574,69.045z      M373.26,59.334c-0.218,0-0.833,0.51-1.297,1.714c-0.669,1.743-0.983,4.916,0.733,8.109c0.062-0.078,0.123-0.154,0.183-0.232     c1.73-2.273,2.19-5.02,1.33-7.951c-0.391-1.333-0.85-1.636-0.944-1.64C373.265,59.334,373.263,59.334,373.26,59.334z      M348.524,55.996c-0.192,0-0.332,0.062-0.419,0.103c-1.812,0.818-3.761,5.796-3.062,10.692c2.068-0.045,3.76-0.767,4.91-1.899     c2.068-2.039,2.061-5.139-0.014-7.897C349.328,56.181,348.852,55.996,348.524,55.996z M387.676,45.382     c-1.132,0.278-2.11,0.744-2.863,1.192c-3.389,2.008-5.129,5.257-4.782,6.253c0.135,0.388,1.158,0.27,1.362,0.243     c2.913-0.397,5.24-2.893,6.074-6.514C387.552,46.18,387.622,45.788,387.676,45.382z M365.061,34.02     c-2.604,3.793-3.07,8.002-0.996,9.838c0.599,0.528,1.49,1.074,2.345,0.662c0.882-0.428,1.77-1.937,1.635-4.234     C367.984,39.236,367.562,36.587,365.061,34.02z"/>
		</g>
	</g>
	<path style="fill:#241726;" d="M188.628,93.336l-0.026-0.02c-3.438-2.665-4.065-7.63-1.398-11.07   c2.654-3.424,7.607-4.06,11.041-1.42c1.692,1.312,2.756,3.175,3.02,5.267c0.264,2.089-0.302,4.158-1.592,5.823   C197.017,95.337,192.061,95.974,188.628,93.336z M196.874,82.65c-2.461-1.892-5.98-1.438-7.866,0.994   c-1.896,2.444-1.45,5.974,0.992,7.868l-0.676,0.92l0.695-0.905c2.44,1.876,5.961,1.423,7.85-1.009   c0.918-1.183,1.32-2.653,1.13-4.14C198.813,84.891,198.057,83.567,196.874,82.65z"/>
	<path style="fill:#241726;" d="M482.835,338.786l-0.026-0.02c-3.438-2.665-4.065-7.63-1.398-11.07   c2.654-3.424,7.607-4.06,11.041-1.42c1.692,1.312,2.756,3.175,3.02,5.267c0.264,2.089-0.302,4.158-1.592,5.822   C491.224,340.788,486.268,341.425,482.835,338.786z M491.081,328.1c-2.461-1.892-5.98-1.438-7.867,0.994   c-1.896,2.444-1.45,5.974,0.992,7.868l-0.676,0.92l0.695-0.905c2.44,1.875,5.961,1.423,7.85-1.009   c0.918-1.183,1.32-2.653,1.13-4.14C493.02,330.342,492.264,329.018,491.081,328.1z"/>
	<path style="fill:#241726;" d="M3.078,433.842l-0.026-0.02c-3.438-2.665-4.065-7.63-1.398-11.07   c2.654-3.424,7.607-4.06,11.042-1.42c1.692,1.312,2.756,3.175,3.02,5.267c0.264,2.089-0.302,4.158-1.592,5.823   C11.466,435.844,6.51,436.481,3.078,433.842z M11.323,423.156c-2.461-1.892-5.98-1.438-7.866,0.994   c-1.896,2.444-1.45,5.974,0.992,7.868l-0.676,0.919l0.695-0.905c2.44,1.875,5.961,1.423,7.85-1.009   c0.918-1.183,1.32-2.653,1.13-4.14C13.262,425.397,12.506,424.074,11.323,423.156z"/>
	<path style="fill:#241726;" d="M135.425,361.572h-0.007l-4.414-0.016l4.676-3.17c0.522-0.354,0.658-1.063,0.304-1.585   c-0.356-0.524-1.07-0.654-1.585-0.304l-6.308,4.277l0.14-7.37c0.013-0.631-0.489-1.15-1.119-1.162l-0.007,0   c-0.626-0.008-1.143,0.491-1.156,1.119l-0.123,6.504l-3.858-4.185c-0.429-0.46-1.148-0.494-1.613-0.066   c-0.462,0.426-0.492,1.15-0.066,1.613l3.97,4.305l-7.31-0.026c-0.631-0.002-1.143,0.507-1.145,1.137   c-0.002,0.626,0.5,1.137,1.126,1.145l0.011,0l6.668,0.024l-5.21,3.532c-0.522,0.354-0.658,1.063-0.304,1.585   c0.219,0.322,0.571,0.495,0.93,0.5c0.227,0.003,0.455-0.061,0.656-0.197l6.045-4.099l-0.141,7.425   c-0.013,0.631,0.489,1.15,1.119,1.162l0.007,0c0.626,0.008,1.143-0.491,1.156-1.119l0.133-7.013l4.112,4.461   c0.222,0.239,0.521,0.363,0.824,0.367c0.281,0.004,0.565-0.095,0.788-0.302c0.462-0.426,0.492-1.15,0.066-1.612l-4.306-4.671   l5.927,0.021c0.631,0.001,1.143-0.507,1.145-1.137C136.557,362.091,136.055,361.581,135.425,361.572z"/>
	<path style="fill:#241726;" d="M315.226,25.377h-0.007l-4.414-0.015l4.676-3.17c0.522-0.354,0.658-1.063,0.304-1.585   c-0.356-0.524-1.07-0.654-1.585-0.304l-6.308,4.277l0.14-7.37c0.013-0.631-0.489-1.15-1.119-1.162l-0.007,0   c-0.626-0.008-1.143,0.491-1.156,1.119l-0.123,6.504l-3.858-4.185c-0.428-0.46-1.148-0.494-1.613-0.066   c-0.462,0.426-0.492,1.15-0.066,1.613l3.969,4.306l-7.31-0.026c-0.631-0.001-1.143,0.507-1.145,1.137   c-0.001,0.626,0.5,1.136,1.126,1.144l0.011,0l6.668,0.024l-5.21,3.532c-0.522,0.354-0.658,1.063-0.304,1.585   c0.219,0.321,0.571,0.495,0.93,0.5c0.227,0.003,0.455-0.061,0.656-0.196l6.045-4.099l-0.141,7.425   c-0.013,0.631,0.489,1.15,1.119,1.162l0.007,0c0.626,0.008,1.143-0.491,1.156-1.119l0.133-7.012l4.112,4.461   c0.222,0.239,0.521,0.363,0.824,0.367c0.281,0.004,0.565-0.095,0.788-0.302c0.462-0.426,0.492-1.15,0.066-1.612l-4.306-4.671   l5.927,0.021c0.631,0.002,1.143-0.507,1.145-1.137C316.358,25.895,315.857,25.385,315.226,25.377z"/>
	<polygon style="fill:#E7B400;" points="429.411,364.77 419.503,377.239 417.112,362.392 404.377,357.273 414.249,349.366    415.75,335.183 425.525,343.772 440.106,339.306 433.378,353.624 442.875,364.193  "/>
	<polygon style="fill:#E7B400;" points="32.923,76.227 23.015,88.695 20.623,73.848 7.889,68.729 17.76,60.823 19.261,46.64    29.036,55.228 43.618,50.762 36.889,65.08 46.386,75.649  "/>
	<path style="fill:#241726;" d="M494.453,251.639c-0.269,0-0.536-0.074-0.781-0.218c-0.858-0.504-3.335-4.04-6.056-8.499   c-5.959,1.047-10.955,1.584-11.719,0.655c-0.334-0.408-0.455-1.092,0.03-1.7c1.061-1.335,3.554-4.441,6.576-8.007   c-2.674-5.163-4.617-9.847-4.097-11.398c0.25-0.747,0.92-1.152,1.702-1.076c1.471,0.172,5.825,1.956,10.078,3.839   c4.005-4.221,7.739-7.59,9.578-7.744c0.695-0.071,1.153,0.207,1.413,0.441c0.272,0.243,0.411,0.602,0.374,0.965   c-0.329,3.242-0.753,7.124-1.257,11.055c10.326,5.065,10.508,6.075,10.61,6.645c0.089,0.495-0.234,1.134-0.682,1.364   c-0.109,0.056-5.259,1.353-11.543,2.736c-1.032,5.7-2.23,10.112-3.523,10.768C494.931,251.581,494.692,251.639,494.453,251.639z    M489.931,242.498c1.831,3.028,3.472,5.493,4.41,6.514c0.572-1.174,1.239-4.007,1.92-7.79   C494.175,241.667,492.021,242.104,489.931,242.498z M483.658,236.047c-1.625,1.923-3.257,3.9-4.838,5.865   c1.659-0.109,4.391-0.51,7.557-1.059C485.458,239.294,484.535,237.665,483.658,236.047z M485.23,234.204   c1.106,2.081,2.306,4.229,3.477,6.235c2.582-0.472,5.332-1.012,7.955-1.553c0.383-2.32,0.765-4.9,1.132-7.61   c-2.3-1.114-4.728-2.255-7.035-3.3C489.015,229.868,487.14,231.98,485.23,234.204z M499.979,232.348   c-0.28,2.057-0.581,4.094-0.899,6.032c3.551-0.755,6.664-1.471,8.5-1.959C506.031,235.447,503.231,233.963,499.979,232.348z    M480.617,223.835c0.28,1.522,1.662,4.633,3.472,8.18c1.438-1.669,2.954-3.385,4.462-5.027   C485.113,225.473,482.158,224.277,480.617,223.835z M492.397,226.226c1.515,0.689,2.945,1.353,4.144,1.921   c0.544,0.256,1.065,0.506,1.568,0.746c0.37-2.881,0.718-5.867,1.026-8.813C497.756,220.881,495.331,223.142,492.397,226.226z"/>
	<path style="fill:#241726;" d="M178.108,143.233c-0.269,0-0.536-0.074-0.781-0.218c-0.858-0.504-3.336-4.04-6.058-8.501   c-5.959,1.045-10.955,1.589-11.717,0.657c-0.334-0.408-0.453-1.092,0.03-1.7c1.06-1.335,3.553-4.441,6.575-8.004   c-2.674-5.163-4.616-9.847-4.097-11.398c0.248-0.749,0.916-1.152,1.702-1.078c1.472,0.172,5.826,1.956,10.079,3.84   c4.006-4.221,7.738-7.588,9.577-7.741c0.701-0.071,1.153,0.207,1.414,0.441c0.271,0.243,0.41,0.602,0.373,0.965   c-0.329,3.242-0.752,7.122-1.256,11.053c10.324,5.065,10.507,6.077,10.61,6.645c0.089,0.495-0.234,1.137-0.682,1.366   c-0.109,0.056-5.258,1.35-11.543,2.732c-1.032,5.702-2.23,10.115-3.523,10.772C178.586,143.175,178.346,143.233,178.108,143.233z    M173.583,134.09c1.832,3.031,3.474,5.495,4.412,6.518c0.572-1.176,1.24-4.009,1.92-7.795   C177.828,133.258,175.674,133.697,173.583,134.09z M167.312,127.643c-1.626,1.921-3.257,3.897-4.838,5.863   c1.658-0.109,4.39-0.51,7.556-1.058C169.112,130.887,168.188,129.258,167.312,127.643z M168.883,125.798   c1.107,2.084,2.307,4.229,3.477,6.235c2.583-0.472,5.333-1.012,7.956-1.551c0.383-2.322,0.765-4.9,1.132-7.612   c-2.301-1.114-4.728-2.253-7.035-3.298C172.669,121.461,170.794,123.576,168.883,125.798z M183.633,123.944   c-0.28,2.055-0.579,4.094-0.899,6.032c3.552-0.755,6.665-1.471,8.501-1.959C189.685,127.041,186.885,125.557,183.633,123.944z    M164.271,115.429c0.28,1.522,1.662,4.633,3.473,8.18c1.438-1.667,2.954-3.383,4.462-5.025   C168.768,117.067,165.813,115.87,164.271,115.429z M176.052,117.82c1.514,0.689,2.945,1.353,4.143,1.921   c0.544,0.256,1.065,0.506,1.568,0.746c0.37-2.881,0.717-5.865,1.026-8.811C181.409,112.477,178.986,114.738,176.052,117.82z"/>
	<path style="fill:#241726;" d="M455.398,392.397c1.914,7.467,4.5,16.372,6.167,17.352c0.292,0.171,0.775,0.34,1.417,0.169   c0.285-0.076,0.585-0.228,0.893-0.44c1.419-0.976,3.009-3.198,4.129-4.95c5.053,10.785,6.906,10.422,7.59,10.274   c0.146-0.032,0.395-0.143,0.517-0.227c3.445-2.37,16.357-45.826,16.613-51.27c0.028-0.602-0.012-1.276-0.527-1.706   c-0.071-0.06-0.148-0.109-0.229-0.15c-0.099-0.054-0.204-0.096-0.314-0.124c-0.028-0.008-0.059-0.013-0.092-0.018   c-0.077-0.013-0.153-0.019-0.228-0.017c-0.05,0.002-0.1,0.005-0.153,0.013c-5.203,0.398-37.209,15.98-46.058,22.066   c-2.075,1.427-4.023,2.944-3.108,4.426C443.826,390.732,452.39,392.027,455.398,392.397z M484.518,365.922   c-9.309,7.432-25.827,21.777-28.65,24.233c-4.181-0.5-9.974-1.74-11.601-3.201c0.275-0.29,0.873-0.825,2.151-1.704   C454.051,380,473.92,370.37,484.518,365.922z M469.315,401.849c-0.031-0.22-0.119-0.423-0.27-0.593   c-0.767-1.698-1.526-3.456-2.234-5.175c13.272-16.046,19.785-24.368,22.934-28.774c-2.675,11.512-12.051,40.776-14.673,45.019   C473.877,411.169,471.585,406.822,469.315,401.849z M462.598,407.619c-0.935-1.441-3.287-9.149-5.023-15.922   c3.488-3.031,21.592-18.727,30.087-25.349c-4.983,6.71-15.729,19.966-23.044,28.805c-0.268,0.324-0.336,0.768-0.178,1.157   c0.877,2.157,1.678,4.03,2.426,5.718C465.285,404.693,463.495,407.103,462.598,407.619z"/>
	<path style="fill:#241726;" d="M111.984,22.744c-0.849-1.521-3.123-0.559-5.38,0.557c-9.627,4.76-38.832,25.114-41.715,29.464   c-0.033,0.042-0.06,0.084-0.086,0.127c-0.039,0.064-0.071,0.133-0.097,0.207c-0.012,0.031-0.022,0.061-0.029,0.089   c-0.029,0.109-0.043,0.222-0.045,0.334c-0.004,0.09,0.002,0.182,0.019,0.273c0.125,0.659,0.693,1.023,1.233,1.292   c4.878,2.43,49.117,12.334,52.865,10.48c0.133-0.066,0.352-0.229,0.451-0.341c0.463-0.525,1.683-1.967-5.272-11.635   c2.076-0.125,4.79-0.43,6.335-1.193c0.336-0.166,0.614-0.354,0.819-0.565c0.463-0.477,0.55-0.982,0.543-1.32   c-0.043-1.933-6.559-8.531-12.146-13.841C110.622,33.864,113.665,25.755,111.984,22.744z M107.615,25.347   c1.39-0.688,2.148-0.949,2.536-1.048c0.483,2.133-1.257,7.796-2.858,11.69c-3.521,1.268-24.097,8.701-35.124,13.207   C81.218,42.109,99.311,29.453,107.615,25.347z M117.293,63.563c-4.983,0.222-35.106-5.854-46.462-9.128   c5.382-0.603,15.823-2.234,36.303-6.003c1.157,1.457,2.321,2.976,3.43,4.473c0.075,0.214,0.209,0.39,0.386,0.525   C114.186,57.836,116.865,61.955,117.293,63.563z M112.299,51.378c-1.108-1.476-2.354-3.089-3.81-4.905   c-0.263-0.328-0.684-0.485-1.097-0.409c-11.283,2.08-28.096,5.002-36.383,6.084c9.922-4.191,32.45-12.349,36.798-13.917   c5.068,4.816,10.653,10.627,11.455,12.146C118.374,50.909,115.397,51.297,112.299,51.378z"/>
	<g>
		<path style="fill:#54ADA0;" d="M399.566,154.604c12.551,10.197,2.065,93.359,9.125,104.238    c7.06,10.879,19.401-15.573,46.314,2.117c31.212,20.515,12.087,56.234-20.136,60.475c-37.588,4.947-50.11-13.744-54.817-30.661    c-4.707-16.917-0.784-79.475-2.353-92.516c-1.569-13.041-39.464,22.109-39.485,13.932    C338.077,159.921,387.015,144.407,399.566,154.604z"/>
		<path style="fill:#FBFCFF;" d="M459.122,279.772c-0.4,0-0.789-0.212-0.997-0.584c-9.285-16.635-22.485-11.338-23.044-11.102    c-0.581,0.241-1.248-0.029-1.493-0.608c-0.245-0.579,0.025-1.248,0.604-1.493c0.154-0.067,15.62-6.373,25.925,12.089    c0.307,0.55,0.11,1.246-0.44,1.553C459.501,279.725,459.31,279.772,459.122,279.772z"/>
		<path style="fill:#FBFCFF;" d="M461.697,297.813c-0.224,0-0.45-0.065-0.649-0.203c-0.518-0.359-0.647-1.07-0.289-1.587    c3.373-4.874,0.117-10.115-0.023-10.335c-0.338-0.533-0.182-1.237,0.348-1.576c0.529-0.339,1.232-0.187,1.573,0.343    c0.175,0.272,4.228,6.725-0.021,12.864C462.414,297.642,462.059,297.813,461.697,297.813z"/>
		<path style="fill:#FBFCFF;" d="M400.275,177.842c-0.621,0-1.129-0.497-1.141-1.119c-0.147-7.554-1.963-12.724-5.253-14.946    c-3.401-2.295-7.333-0.844-7.375-0.829c-0.585,0.221-1.248-0.074-1.471-0.662c-0.224-0.591,0.073-1.248,0.662-1.473    c0.204-0.078,5.093-1.883,9.461,1.072c3.989,2.696,6.094,8.345,6.258,16.793c0.012,0.631-0.489,1.15-1.119,1.163    C400.289,177.842,400.282,177.842,400.275,177.842z"/>
	</g>
	<g>
		<path style="fill:#B07398;" d="M309.849,238.849c-13.616-2.582-25.771-1.918-36.431,0.871c-1.094-9.907-2.187-19.867-3.236-29.679    c44.905-23.682,86.505-29.298,81.954-74.865c-7.845-78.534-114.604-87.221-126.152-81.18c-5.15,2.694-1.229,66.233,4.694,135.803    c-36.624,15.99-100.059,72.711-72.859,139.282c30.205,73.924,97.997,60.418,97.997,60.418    c13.424,56.009-11.41,58.768-19.467,26.55c-8.057-32.218-35.237-18.123-44.298,9.061c-9.062,27.184,40.273,74.505,84.573,48.328    c44.3-26.178,13.089-95.648,13.089-95.648C394.422,359.28,368.244,249.924,309.849,238.849z M266.257,95.615    c27.117-14.164,72.767,37.844,28.49,68.729c-3.273,2.283-13.173,8.307-27.813,13.971    C262.655,133.947,260.664,98.537,266.257,95.615z M226.545,241.115c2.642-2.595,5.336-5.003,8.051-7.326    c0.865,9.349,1.74,18.593,2.607,27.614c-23.822,25.192-25.024,58.673-0.854,40.699c1.522-1.132,3.032-2.19,4.536-3.214    c1.861,18.568,3.549,34.878,4.86,47.365C187.79,351.623,177.242,289.538,226.545,241.115z M283.027,335.65    c-0.974-14.401-2.755-32.628-4.876-52.603C317.948,276.787,334.915,312.02,283.027,335.65z"/>
		<path style="fill:#FBFCFF;" d="M330.469,106.32c-0.428,0-0.838-0.241-1.033-0.653c-10.77-22.781-34.5-25.528-34.738-25.553    c-0.627-0.065-1.082-0.626-1.015-1.255c0.066-0.626,0.636-1.085,1.253-1.014c0.252,0.027,25.251,2.919,36.563,26.845    c0.268,0.57,0.026,1.25-0.544,1.52C330.797,106.284,330.632,106.32,330.469,106.32z"/>
		<path style="fill:#FBFCFF;" d="M339.488,129.945c-0.038,0-0.076-0.002-0.115-0.007c-0.627-0.062-1.084-0.622-1.022-1.248    c0.791-7.911-1.662-11.171-1.687-11.204c-0.383-0.493-0.302-1.208,0.188-1.598c0.488-0.386,1.197-0.316,1.591,0.169    c0.126,0.156,3.074,3.904,2.178,12.86C340.563,129.506,340.068,129.945,339.488,129.945z"/>
		<path style="fill:#FBFCFF;" d="M165.959,267.906c-0.618,0-1.126-0.495-1.141-1.114c-0.437-19.173,25.953-39.67,27.076-40.532    c0.5-0.379,1.218-0.287,1.6,0.21c0.383,0.499,0.29,1.217-0.21,1.6c-0.266,0.205-26.596,20.655-26.185,38.669    c0.014,0.631-0.485,1.152-1.115,1.168C165.975,267.906,165.966,267.906,165.959,267.906z"/>
		<path style="fill:#FBFCFF;" d="M347.218,297.459c-0.009,0-0.019,0-0.029,0c-0.629-0.016-1.128-0.539-1.112-1.17    c0.825-32.947-29.135-38.589-30.411-38.814c-0.621-0.109-1.036-0.7-0.927-1.319c0.108-0.622,0.687-1.052,1.319-0.927    c0.331,0.056,33.174,6.177,32.3,41.118C348.344,296.966,347.836,297.459,347.218,297.459z"/>
		<path style="fill:#FBFCFF;" d="M344.64,323.23c-0.162,0-0.325-0.033-0.481-0.107c-0.571-0.267-0.818-0.945-0.551-1.518    c2.858-6.121,2.491-16.974,2.488-17.083c-0.023-0.631,0.468-1.159,1.098-1.183c0.635,0.016,1.16,0.468,1.182,1.099    c0.018,0.468,0.389,11.518-2.7,18.135C345.481,322.987,345.07,323.23,344.64,323.23z"/>
		<path style="fill:#FBFCFF;" d="M249.717,467.981c-0.623,0-1.132-0.501-1.141-1.125c-0.008-0.631,0.496-1.148,1.125-1.157    c36.457-0.488,39.982-32.403,40.114-33.76c0.061-0.628,0.627-1.092,1.245-1.025c0.627,0.06,1.086,0.615,1.026,1.243    c-0.033,0.352-3.821,35.306-42.354,35.823C249.727,467.981,249.721,467.981,249.717,467.981z"/>
	</g>
	<g>
		<path style="fill:#E07A88;" d="M18.196,105.336c0,0,105.492-24.342,113.712-19.372c8.22,4.97,2.989,101.486,5.231,104.041    c2.242,2.555,13.45-13.763,33.626,0c20.175,13.763,6.725,49.631-27.648,51.873c-34.373,2.242-29.143-27.576-28.395-44.051    c0.747-16.475,2.242-66.934,2.242-66.934l-75.76,20.039c0,0-2.086,77.98,1.651,78.777c3.736,0.797,31.57-15.221,46.389,7.239    c13.649,20.688-7.741,41.629-38.036,44.534c-36.664,3.515-36.529-54.066-35.782-66.022    C16.171,203.504,11.531,107.181,18.196,105.336z"/>
		<path style="fill:#FBFCFF;" d="M168.276,201.641c-0.43,0-0.841-0.243-1.035-0.657c-5.474-11.732-17.781-6.935-18.302-6.725    c-0.582,0.234-1.248-0.047-1.485-0.631c-0.235-0.584,0.044-1.248,0.628-1.484c0.145-0.062,14.83-5.834,21.226,7.873    c0.266,0.573,0.02,1.25-0.552,1.517C168.602,201.607,168.438,201.641,168.276,201.641z"/>
		<path style="fill:#FBFCFF;" d="M80.652,244.595c-0.467,0-0.905-0.287-1.073-0.753c-4.566-12.633-16.802-12.287-17.325-12.256    c-0.601,0.022-1.16-0.464-1.188-1.092c-0.027-0.628,0.459-1.161,1.088-1.188c0.16-0.027,14.423-0.484,19.571,13.76    c0.214,0.593-0.092,1.246-0.685,1.462C80.911,244.573,80.781,244.595,80.652,244.595z"/>
		<path style="fill:#FBFCFF;" d="M44.57,111.44c-0.517,0-0.985-0.352-1.109-0.878c-0.146-0.613,0.233-1.228,0.847-1.373    c1.705-0.406,41.807-9.903,46.986-10.335c0.634-0.056,1.18,0.414,1.231,1.041c0.052,0.628-0.413,1.181-1.042,1.232    c-5.01,0.419-46.234,10.184-46.65,10.282C44.746,111.431,44.657,111.44,44.57,111.44z"/>
		<path style="fill:#FBFCFF;" d="M102.986,99.414c-0.519,0-0.989-0.356-1.111-0.885c-0.142-0.613,0.242-1.226,0.856-1.368    c0.458-0.105,11.264-2.594,14.718-3.026c0.629-0.082,1.195,0.365,1.273,0.989c0.078,0.626-0.365,1.197-0.99,1.275    c-3.339,0.419-14.378,2.959-14.489,2.986C103.157,99.405,103.07,99.414,102.986,99.414z"/>
	</g>
	<g>
		<path style="fill:#FFFFFF;" d="M424.72,62.21c0,0,86.574,81.327,85.577,83.735s-37.492,38.316-37.492,38.316l-86.986-82.295    L424.72,62.21z"/>
		<path style="fill:#241726;" d="M450.663,85.119c-0.057-0.131-0.137-0.255-0.245-0.361c-0.117-0.114-0.253-0.194-0.397-0.248    c-4.281-4.058-8.866-8.391-13.763-13.007c-0.052-0.087-0.098-0.178-0.174-0.252c-0.086-0.083-0.187-0.134-0.288-0.184    c-3.303-3.113-6.697-6.308-10.294-9.687c-0.451-0.426-1.162-0.41-1.597,0.033l-38.902,39.757c-0.214,0.218-0.331,0.515-0.325,0.82    c0.006,0.305,0.135,0.597,0.357,0.807l10.359,9.8c0.038,0.236,0.131,0.466,0.316,0.644c0.192,0.185,0.434,0.273,0.679,0.298    l66.733,63.133c0.05,0.2,0.134,0.392,0.293,0.546c0.166,0.16,0.37,0.24,0.58,0.28l8.026,7.593    c0.221,0.207,0.503,0.312,0.784,0.312c0.29,0,0.578-0.109,0.8-0.328c8.6-8.461,36.738-36.26,37.747-38.694    C511.698,145.544,512.403,143.653,450.663,85.119z M498.531,134.638l-20.324,20.771l2.444,2.392l-16.342,16.854l-9.396-8.889    l16.494-17.011l1.018,0.996l20.371-20.818C494.863,130.974,496.788,132.888,498.531,134.638z M441.81,153.37    c0.27-0.019,0.536-0.121,0.74-0.332l16.179-16.687l2.016,1.973l20.366-20.814c1.784,1.731,3.517,3.417,5.188,5.048l-20.381,20.829    l3.859,3.776l-16.52,17.038L441.81,153.37z M412.252,125.406l17.259-17.644l2.682,2.624l20.095-20.536    c3.761,3.579,7.517,7.163,11.21,10.698l-36.736,38.586L412.252,125.406z M398.294,112.2l17.332-18.026l2.256,2.207l19.877-20.314    c2.609,2.467,5.261,4.979,7.931,7.511l-20.001,20.441l2.193,2.146l-17.286,17.672L398.294,112.2z M465.147,102.125    c3.213,3.078,6.37,6.111,9.422,9.055l-20.33,20.777l2.861,2.799l-16.187,16.695c-0.209,0.216-0.309,0.493-0.315,0.772    l-12.178-11.521L465.147,102.125z M424.754,63.809c2.071,1.946,4.204,3.954,6.384,6.009l-19.763,20.198l2.62,2.563l-17.359,18.053    l-9.191-8.695L424.754,63.809z M472.789,182.677l-6.823-6.455l16.315-16.827l2.432,2.38l20.18-20.624    c2.139,2.254,3.586,3.881,4.121,4.679C506.397,149.269,486.541,169.133,472.789,182.677z"/>
	</g>
	<g>
		<path style="fill:#FFFFFF;" d="M39.518,453.326c0,0,106.266-53.073,108.179-51.304c1.913,1.769,22.971,48.436,22.971,48.436    L63.352,503.584L39.518,453.326z"/>
		<path style="fill:#241726;" d="M69.99,436.916c-0.143,0.008-0.286,0.04-0.423,0.105c-0.147,0.07-0.27,0.17-0.37,0.287    c-5.289,2.612-10.941,5.414-16.966,8.41c-0.1,0.018-0.201,0.03-0.296,0.076c-0.108,0.052-0.19,0.129-0.273,0.207    c-4.064,2.022-8.236,4.1-12.652,6.305c-0.556,0.276-0.787,0.948-0.521,1.51l23.834,50.258c0.131,0.276,0.368,0.489,0.657,0.589    c0.288,0.1,0.607,0.08,0.88-0.055l12.78-6.327c0.235,0.046,0.482,0.038,0.714-0.074c0.24-0.116,0.407-0.312,0.514-0.534    l82.329-40.756c0.204,0.022,0.414,0.01,0.613-0.086c0.207-0.1,0.353-0.264,0.464-0.448l9.901-4.901    c0.271-0.135,0.467-0.363,0.564-0.628c0.1-0.272,0.098-0.58-0.03-0.864c-4.961-10.997-21.303-47.018-23.237-48.806    C147.806,400.569,146.276,399.253,69.99,436.916z M133.017,409.147l12.452,26.257l3.09-1.465l10.156,21.166l-11.591,5.738    l-10.25-21.362l1.287-0.61l-12.481-26.317C128.309,411.32,130.772,410.176,133.017,409.147z M130.958,468.845    c0.076-0.26,0.072-0.545-0.055-0.81l-10.056-20.955l2.548-1.208l-12.478-26.312c2.241-1.074,4.423-2.117,6.531-3.12l12.487,26.33    l4.878-2.313l10.267,21.396L130.958,468.845z M94.492,486.897l-10.58-22.3l3.391-1.608l-12.312-25.961    c4.66-2.29,9.322-4.573,13.916-6.814l23.486,47.821L94.492,486.897z M77.271,495.422l-10.912-22.5l2.851-1.352L57.031,445.89    c3.217-1.594,6.492-3.213,9.792-4.841l12.255,25.84l2.772-1.315l10.596,22.334L77.271,495.422z M90.959,429.214    c4-1.949,7.938-3.861,11.756-5.706l12.456,26.264l3.616-1.715l10.06,20.965c0.13,0.271,0.356,0.461,0.615,0.562l-15.024,7.437    L90.959,429.214z M41.03,453.848c2.543-1.269,5.165-2.576,7.847-3.909l12.109,25.532l3.311-1.57l10.929,22.534l-11.339,5.613    L41.03,453.848z M169.177,449.925l-8.417,4.167l-10.14-21.131l3.075-1.458l-12.364-26.071c2.855-1.227,4.883-2.021,5.816-2.247    C149.466,406.831,161.23,432.335,169.177,449.925z"/>
	</g>
	<g>
		<path style="fill:#241726;" d="M375.636,391.989c-6.596,0-13.046-3.022-18.72-8.784c-4.343-4.412-8.991-6.404-13.833-5.907    c-10.738,1.092-19.175,13.932-19.259,14.061c-0.343,0.53-1.048,0.677-1.578,0.339c-0.529-0.343-0.681-1.05-0.339-1.578    c0.367-0.566,9.105-13.883,20.937-15.091c5.549-0.573,10.841,1.642,15.698,6.576c5.517,5.604,11.758,8.423,18.078,8.076    c6.77-0.343,13.542-4.33,19.068-11.22c0.394-0.49,1.113-0.57,1.604-0.176c0.491,0.392,0.57,1.112,0.176,1.602    c-5.94,7.407-13.302,11.695-20.733,12.073C376.37,391.978,376.002,391.989,375.636,391.989z"/>
		<path style="fill:#241726;" d="M378.319,405.707c-7.631,0-13.586-4.39-19.348-8.635c-10.598-7.813-19.753-14.558-37.147,7.585    c-0.389,0.497-1.104,0.582-1.602,0.194c-0.495-0.39-0.582-1.107-0.192-1.602c18.762-23.884,29.71-15.817,40.295-8.013    c5.464,4.027,11.114,8.189,17.996,8.189c0.028,0,0.056,0,0.084,0c19.838-0.094,23.289-17.147,23.427-17.872    c0.116-0.617,0.708-1.023,1.332-0.911c0.618,0.116,1.026,0.711,0.911,1.33c-0.037,0.196-3.901,19.632-25.659,19.735    C378.383,405.707,378.35,405.707,378.319,405.707z"/>
		<path style="fill:#241726;" d="M379.859,418.774c-6.743,0-14.353-2.52-22.721-7.536c-7.346-4.405-14.116-5.765-20.11-4.038    c-8.461,2.431-12.52,10.235-12.56,10.313c-0.285,0.562-0.974,0.784-1.534,0.499c-0.561-0.285-0.784-0.972-0.498-1.533    c0.182-0.357,4.558-8.771,13.962-11.474c6.629-1.903,14.004-0.466,21.915,4.276c10.757,6.451,20.089,8.586,27.734,6.355    c7.24-2.117,13.185-8.015,18.175-18.032c0.282-0.564,0.965-0.798,1.531-0.512c0.564,0.281,0.793,0.965,0.513,1.529    c-5.289,10.621-11.693,16.902-19.578,19.206C384.523,418.46,382.245,418.774,379.859,418.774z"/>
	</g>
	<g>
		<path style="fill:#241726;" d="M80.788,319.6c-0.625,0-1.246-0.027-1.865-0.08c-6.96-0.604-13.335-4.541-18.433-11.387    c-3.7-4.967-8.04-7.574-12.9-7.748c-0.177-0.004-0.354-0.009-0.53-0.009c-10.6,0-20.368,11.187-20.466,11.3    c-0.414,0.479-1.133,0.528-1.61,0.12c-0.477-0.412-0.53-1.132-0.119-1.609c0.441-0.513,10.889-12.508,22.807-12.082    c5.587,0.201,10.515,3.115,14.648,8.664c4.698,6.309,10.508,9.932,16.802,10.478c6.749,0.602,14.008-2.431,20.425-8.501    c0.456-0.435,1.179-0.412,1.613,0.045c0.433,0.459,0.412,1.181-0.045,1.613C94.792,316.382,87.643,319.6,80.788,319.6z"/>
		<path style="fill:#241726;" d="M83.09,333.67c-1.388,0-2.849-0.094-4.388-0.299c-7.61-1.016-12.931-6.204-18.078-11.22    c-9.428-9.19-17.569-17.13-37.837,2.422c-0.452,0.439-1.174,0.43-1.613-0.029c-0.438-0.452-0.425-1.174,0.029-1.611    c21.857-21.087,31.595-11.596,41.014-2.416c4.879,4.755,9.925,9.676,16.786,10.592c19.697,2.598,25.596-14.324,25.653-14.496    c0.199-0.595,0.848-0.923,1.443-0.722c0.598,0.198,0.921,0.845,0.723,1.444C106.764,317.512,101.162,333.67,83.09,333.67z"/>
		<path style="fill:#241726;" d="M81.826,346.757c-7.64,0-16.018-3.63-24.959-10.823c-6.674-5.37-13.198-7.652-19.368-6.759    c-8.714,1.25-13.804,8.423-13.854,8.497c-0.361,0.517-1.074,0.64-1.588,0.283c-0.517-0.361-0.644-1.072-0.284-1.589    c0.228-0.328,5.717-8.062,15.402-9.448c6.827-0.998,13.936,1.455,21.123,7.238c9.775,7.864,18.731,11.269,26.602,10.095    c7.463-1.103,14.159-6.133,20.474-15.371c0.353-0.521,1.065-0.653,1.586-0.299c0.52,0.357,0.654,1.065,0.297,1.587    c-6.693,9.794-13.896,15.14-22.023,16.341C84.116,346.675,82.979,346.757,81.826,346.757z"/>
	</g>
	<path style="fill:#241726;" d="M326.46,497.692c-0.631,0-1.193-0.51-1.193-1.141c0-0.631,0.459-1.141,1.09-1.141   c1.473,0,2.923-0.091,4.413-0.274c0.616-0.094,1.193,0.368,1.27,0.994c0.077,0.626-0.368,1.194-0.994,1.27   C329.464,497.594,327.922,497.692,326.46,497.692z M321.817,497.327c-0.061,0-0.125-0.004-0.188-0.016   c-1.627-0.27-3.181-0.688-4.618-1.241c-0.588-0.227-0.881-0.887-0.655-1.475c0.227-0.588,0.89-0.876,1.475-0.655   c1.294,0.499,2.698,0.876,4.173,1.121c0.622,0.102,1.042,0.691,0.938,1.312C322.849,496.93,322.365,497.327,321.817,497.327z    M335.383,496.558c-0.498,0-0.957-0.33-1.097-0.833c-0.169-0.608,0.185-1.237,0.791-1.406c1.389-0.388,2.755-0.909,4.062-1.546   c0.564-0.274,1.249-0.04,1.525,0.524c0.276,0.566,0.042,1.25-0.525,1.526c-1.43,0.698-2.926,1.268-4.448,1.694   C335.589,496.545,335.486,496.558,335.383,496.558z M313.393,494.033c-0.223,0-0.449-0.065-0.646-0.201   c-1.323-0.914-2.536-1.994-3.608-3.213c-0.416-0.475-0.369-1.194,0.105-1.611c0.476-0.412,1.193-0.368,1.611,0.105   c0.947,1.079,2.019,2.034,3.187,2.839c0.519,0.359,0.65,1.07,0.292,1.589C314.111,493.862,313.755,494.033,313.393,494.033z    M343.542,492.585c-0.354,0-0.702-0.163-0.926-0.472c-0.369-0.51-0.254-1.223,0.256-1.593c1.151-0.833,2.274-1.787,3.336-2.839   c0.447-0.446,1.171-0.437,1.613,0.009c0.443,0.448,0.439,1.17-0.009,1.613c-1.144,1.132-2.356,2.164-3.603,3.066   C344.007,492.513,343.773,492.585,343.542,492.585z M307.425,487.25c-0.41,0-0.806-0.221-1.011-0.608   c-0.739-1.404-1.335-2.906-1.768-4.466c-0.169-0.606,0.185-1.234,0.792-1.404c0.608-0.169,1.236,0.185,1.405,0.793   c0.391,1.402,0.926,2.752,1.59,4.011c0.294,0.557,0.08,1.248-0.477,1.542C307.786,487.208,307.604,487.25,307.425,487.25z    M350.022,486.207c-0.242,0-0.487-0.078-0.694-0.236c-0.499-0.383-0.594-1.101-0.21-1.6c0.88-1.145,1.717-2.38,2.485-3.666   c0.321-0.542,1.022-0.722,1.564-0.397c0.54,0.323,0.717,1.023,0.394,1.564c-0.813,1.364-1.699,2.672-2.634,3.889   C350.702,486.053,350.364,486.207,350.022,486.207z M384.597,484.77h-0.147c-1.512,0-3.05-0.12-4.572-0.357   c-0.623-0.098-1.05-0.68-0.953-1.304c0.098-0.62,0.681-1.043,1.302-0.952c1.407,0.218,2.827,0.33,4.222,0.33   c0.631,0,1.215,0.51,1.215,1.141C385.665,484.259,385.228,484.77,384.597,484.77z M389.138,484.364   c-0.544,0-1.026-0.39-1.123-0.945c-0.108-0.62,0.306-1.212,0.927-1.319c1.422-0.25,2.842-0.624,4.222-1.114   c0.589-0.221,1.246,0.098,1.457,0.691c0.211,0.595-0.099,1.248-0.693,1.457c-1.5,0.535-3.045,0.943-4.592,1.212   C389.269,484.36,389.202,484.364,389.138,484.364z M375.61,483.408c-0.109,0-0.222-0.016-0.332-0.049   c-1.471-0.448-2.954-1.005-4.406-1.656c-0.575-0.256-0.833-0.932-0.576-1.506c0.258-0.575,0.93-0.84,1.508-0.575   c1.366,0.611,2.759,1.134,4.138,1.553c0.603,0.185,0.943,0.822,0.76,1.424C376.552,483.092,376.099,483.408,375.61,483.408z    M397.723,481.367c-0.419,0-0.822-0.232-1.022-0.633c-0.282-0.564-0.052-1.248,0.511-1.529c1.359-0.677,2.678-1.399,3.923-2.146   c0.54-0.33,1.24-0.147,1.565,0.392c0.324,0.539,0.149,1.241-0.391,1.564c-1.296,0.778-2.667,1.529-4.079,2.231   C398.068,481.329,397.894,481.367,397.723,481.367z M367.28,479.711c-0.196,0-0.394-0.051-0.575-0.156   c-1.31-0.767-2.626-1.629-3.911-2.558c-0.51-0.37-0.624-1.083-0.254-1.593c0.368-0.515,1.081-0.624,1.593-0.256   c1.224,0.889,2.478,1.709,3.724,2.438c0.544,0.319,0.726,1.018,0.409,1.562C368.054,479.509,367.673,479.711,367.28,479.711z    M304.998,478.517c-0.603,0-1.106-0.472-1.139-1.081c-0.018-0.341-0.026-0.675-0.026-0.998c0-1.466,0.178-2.821,0.515-3.917   c0.186-0.602,0.825-0.947,1.426-0.753c0.603,0.185,0.94,0.822,0.755,1.426c-0.271,0.88-0.414,2.001-0.414,3.245   c0,0.283,0.008,0.577,0.023,0.878c0.032,0.631-0.451,1.168-1.081,1.199C305.038,478.517,305.018,478.517,304.998,478.517z    M354.702,478.392c-0.159,0-0.321-0.033-0.476-0.105c-0.572-0.263-0.823-0.94-0.559-1.513c0.615-1.339,1.17-2.73,1.648-4.129   c0.204-0.597,0.852-0.909,1.449-0.713c0.041,0.016,0.081,0.031,0.119,0.049c-0.378-0.372-0.748-0.746-1.11-1.128   c-0.435-0.455-0.418-1.177,0.038-1.611c0.207-0.198,0.47-0.303,0.735-0.314c-0.049-0.178-0.056-0.37-0.012-0.559   c0.339-1.48,0.589-2.95,0.743-4.368c0.068-0.628,0.627-1.085,1.257-1.012c0.627,0.067,1.08,0.631,1.012,1.257   c-0.164,1.506-0.429,3.066-0.788,4.631c-0.104,0.452-0.461,0.778-0.887,0.865c0.886,0.902,1.817,1.783,2.777,2.623   c0.475,0.414,0.523,1.134,0.108,1.609c-0.419,0.475-1.139,0.519-1.61,0.107c-0.589-0.515-1.169-1.045-1.735-1.587   c0.136,0.265,0.167,0.584,0.063,0.887c-0.502,1.473-1.086,2.937-1.735,4.348C355.548,478.145,355.135,478.392,354.702,478.392z    M405.527,476.665c-0.352,0-0.699-0.163-0.921-0.466c-0.372-0.51-0.262-1.223,0.246-1.596c1.225-0.896,2.382-1.841,3.443-2.803   c0.469-0.421,1.19-0.385,1.612,0.078c0.423,0.466,0.389,1.188-0.077,1.611c-1.121,1.016-2.341,2.012-3.63,2.955   C405.997,476.594,405.761,476.665,405.527,476.665z M412.253,470.528c-0.265,0-0.53-0.091-0.746-0.279   c-0.477-0.412-0.528-1.132-0.117-1.609c0.975-1.125,1.867-2.309,2.653-3.514c0.343-0.53,1.047-0.677,1.579-0.334   c0.528,0.343,0.677,1.052,0.333,1.578c-0.842,1.292-1.797,2.558-2.838,3.764C412.89,470.394,412.572,470.528,412.253,470.528z    M353.6,467.763c-0.338,0-0.671-0.149-0.896-0.432c-1.006-1.275-1.917-2.565-2.706-3.837c-0.332-0.535-0.167-1.239,0.368-1.571   c0.537-0.332,1.239-0.165,1.571,0.368c0.744,1.201,1.604,2.42,2.557,3.623c0.391,0.495,0.307,1.212-0.187,1.604   C354.097,467.683,353.848,467.763,353.6,467.763z M417.197,462.896c-0.158,0-0.319-0.033-0.472-0.102   c-0.574-0.263-0.826-0.938-0.565-1.513c0.609-1.335,1.114-2.716,1.501-4.111c0.168-0.608,0.8-0.965,1.405-0.793   c0.607,0.167,0.963,0.796,0.794,1.404c-0.419,1.509-0.965,3.006-1.623,4.45C418.045,462.649,417.631,462.896,417.197,462.896z    M358.571,460.703c-0.605,0-1.11-0.477-1.139-1.087c-0.076-1.6-0.312-3.008-0.7-4.181c-0.198-0.599,0.126-1.243,0.724-1.442   c0.604-0.205,1.243,0.127,1.442,0.724c0.453,1.37,0.728,2.982,0.813,4.791c0.03,0.628-0.456,1.163-1.085,1.192   C358.608,460.703,358.59,460.703,358.571,460.703z M348.876,459.977c-0.452,0-0.881-0.272-1.06-0.718   c-0.666-1.667-1.003-3.153-1.002-4.417c0-0.185,0.007-0.368,0.022-0.542c0.055-0.628,0.588-1.079,1.234-1.039   c0.627,0.053,1.093,0.606,1.038,1.235c-0.009,0.111-0.013,0.227-0.013,0.348c-0.001,0.958,0.29,2.19,0.839,3.568   c0.234,0.586-0.051,1.25-0.636,1.482C349.16,459.95,349.018,459.977,348.876,459.977z M419.622,454.141   c-0.041,0-0.082-0.002-0.124-0.007c-0.627-0.067-1.08-0.631-1.012-1.257c0.042-0.39,0.076-0.782,0.101-1.172   c-0.63-0.256-1.258-0.544-1.883-0.862c-0.562-0.285-0.784-0.972-0.499-1.533c0.286-0.564,0.969-0.787,1.535-0.499   c0.296,0.152,0.595,0.294,0.894,0.43c-0.007-0.245-0.017-0.49-0.03-0.735c-0.036-0.629,0.447-1.168,1.075-1.201   c0.646-0.062,1.168,0.446,1.202,1.076c0.029,0.524,0.044,1.052,0.044,1.587c0,0.053,0,0.107,0,0.158   c0.28,0.089,0.559,0.172,0.838,0.245c0.608,0.163,0.97,0.789,0.808,1.397c-0.163,0.611-0.783,0.974-1.396,0.809   c-0.119-0.033-0.238-0.065-0.359-0.1c-0.018,0.216-0.039,0.432-0.062,0.646C420.691,453.708,420.197,454.141,419.622,454.141z    M425.977,453.218c-0.63,0-1.14-0.51-1.141-1.139c-0.001-0.631,0.509-1.143,1.139-1.143c1.422-0.002,2.822-0.214,4.161-0.626   c0.602-0.192,1.242,0.152,1.426,0.753c0.186,0.602-0.15,1.241-0.753,1.426c-1.556,0.481-3.182,0.726-4.83,0.729   C425.978,453.218,425.977,453.218,425.977,453.218z M355.243,452.567c-0.199,0-0.4-0.051-0.584-0.16   c-0.92-0.555-2.049-0.568-3.422-0.06c-0.591,0.216-1.247-0.085-1.464-0.677c-0.217-0.593,0.086-1.248,0.677-1.466   c2.028-0.747,3.871-0.655,5.378,0.243c0.54,0.323,0.717,1.025,0.394,1.564C356.01,452.369,355.632,452.567,355.243,452.567z    M434.598,450.589c-0.372,0-0.738-0.178-0.955-0.508c-0.345-0.526-0.213-1.223,0.31-1.571c1.251-0.813,2.394-1.714,3.428-2.694   c0.457-0.432,1.181-0.414,1.613,0.042c0.434,0.457,0.414,1.179-0.042,1.611c-1.135,1.079-2.389,2.063-3.725,2.933   C435.033,450.528,434.814,450.589,434.598,450.589z M413.362,448.541c-0.238,0-0.479-0.073-0.685-0.229   c-1.249-0.94-2.443-1.994-3.552-3.133c-0.439-0.452-0.429-1.174,0.022-1.613c0.452-0.441,1.174-0.428,1.613,0.022   c1.027,1.056,2.134,2.032,3.289,2.901c0.504,0.379,0.604,1.094,0.225,1.598C414.051,448.385,413.709,448.541,413.362,448.541z    M419.12,445.064c-0.522,0-0.993-0.361-1.112-0.891c-0.323-1.442-0.765-2.839-1.316-4.156c-0.243-0.579,0.031-1.248,0.613-1.491   c0.579-0.243,1.251,0.029,1.493,0.613c0.602,1.437,1.084,2.964,1.436,4.535c0.138,0.615-0.248,1.226-0.863,1.364   C419.286,445.056,419.203,445.064,419.12,445.064z M441.164,444.356c-0.232,0-0.466-0.071-0.667-0.216   c-0.51-0.37-0.625-1.083-0.256-1.593c0.835-1.154,1.585-2.413,2.233-3.744c0.276-0.566,0.958-0.8,1.525-0.526   c0.567,0.274,0.802,0.958,0.527,1.524c-0.705,1.448-1.525,2.821-2.436,4.082C441.867,444.191,441.518,444.356,441.164,444.356z    M407.04,442.003c-0.363,0-0.719-0.172-0.94-0.492c-1.008-1.464-1.777-2.899-2.283-4.267c-0.22-0.59,0.082-1.248,0.674-1.466   c0.588-0.223,1.247,0.082,1.465,0.673c0.435,1.174,1.134,2.476,2.022,3.764c0.358,0.519,0.227,1.23-0.292,1.589   C407.489,441.938,407.263,442.003,407.04,442.003z M415.578,436.715c-0.362,0-0.719-0.172-0.94-0.493   c-0.875-1.268-1.831-2.309-2.84-3.095c-0.497-0.388-0.585-1.105-0.198-1.602c0.387-0.497,1.103-0.586,1.602-0.198   c1.192,0.929,2.307,2.141,3.315,3.599c0.358,0.519,0.227,1.23-0.291,1.587C416.027,436.65,415.802,436.715,415.578,436.715z    M445.17,436.2c-0.113,0-0.227-0.016-0.34-0.051c-0.602-0.189-0.937-0.829-0.749-1.431c0.422-1.353,0.769-2.797,1.031-4.29   c0.109-0.62,0.69-1.054,1.321-0.927c0.621,0.109,1.035,0.7,0.927,1.319c-0.28,1.591-0.65,3.131-1.102,4.579   C446.107,435.888,445.656,436.2,445.17,436.2z M404.56,433.535c-0.145,0-0.292-0.027-0.433-0.085   c-0.583-0.241-0.861-0.907-0.622-1.488c0.413-1.007,1.385-2.275,3.669-2.587c0.414-0.056,0.836-0.071,1.256-0.042   c0.629,0.036,1.11,0.575,1.073,1.203c-0.036,0.631-0.574,1.128-1.204,1.074l-0.282-0.009c-0.178,0-0.357,0.009-0.533,0.033   c-1.461,0.201-1.767,0.947-1.868,1.192C405.435,433.267,405.009,433.535,404.56,433.535z M446.776,427.233   c-0.026,0-0.051,0-0.077-0.002c-0.629-0.042-1.104-0.586-1.063-1.215c0.073-1.072,0.103-2.115,0.103-3.111   c0-0.459-0.007-0.909-0.019-1.346c-0.017-0.631,0.48-1.154,1.11-1.172c0.631,0.062,1.153,0.479,1.172,1.11   c0.012,0.459,0.019,0.927,0.019,1.408c0,1.045-0.032,2.137-0.107,3.262C447.872,426.772,447.371,427.233,446.776,427.233z    M446.541,418.117c-0.573,0-1.066-0.43-1.132-1.012c-0.302-2.656-0.706-4.35-0.71-4.368c-0.148-0.613,0.228-1.228,0.841-1.377   c0.606-0.134,1.229,0.23,1.376,0.842c0.018,0.073,0.441,1.836,0.759,4.644c0.071,0.626-0.379,1.192-1.005,1.263   C446.626,418.114,446.583,418.117,446.541,418.117z"/>
	<path style="fill:#241726;" d="M172.436,57.043c-0.09,0-0.183-0.011-0.274-0.033c-1.608-0.395-2.958-1.68-3.904-3.715   c-0.266-0.57-0.019-1.25,0.553-1.515c0.575-0.272,1.25-0.015,1.515,0.553c0.45,0.967,1.228,2.177,2.382,2.462   c0.612,0.149,0.985,0.769,0.835,1.379C173.415,56.696,172.949,57.043,172.436,57.043z M176.425,55.495   c-0.221,0-0.444-0.065-0.641-0.198c-0.521-0.354-0.656-1.063-0.301-1.584c0.571-0.84,0.887-2.133,0.913-3.737   c0.009-0.631,0.437-1.139,1.16-1.123c0.63,0.011,1.132,0.53,1.122,1.159c-0.033,2.084-0.475,3.759-1.309,4.985   C177.148,55.321,176.79,55.495,176.425,55.495z M280.62,47.78c-0.032,0-0.065-0.002-0.098-0.004   c-0.627-0.054-1.093-0.606-1.04-1.232c0.002-0.027,0.113-1.357,0.113-3.501l-0.002-0.519l2.282-0.027l-1.141,0.007l1.141,0.007   l0.002,0.533c0,2.246-0.116,3.635-0.121,3.692C281.705,47.33,281.206,47.78,280.62,47.78z M177.028,46.608   c-0.524,0-0.995-0.361-1.113-0.894c-0.304-1.373-0.739-2.783-1.292-4.192c-0.231-0.586,0.058-1.248,0.644-1.477   c0.586-0.236,1.249,0.056,1.48,0.644c0.597,1.518,1.067,3.044,1.397,4.53c0.136,0.615-0.252,1.226-0.868,1.361   C177.193,46.599,177.109,46.608,177.028,46.608z M167.971,42.945c0.518,0.076,0.932,0.502,0.971,1.046   c0.101,1.402,0.325,2.861,0.668,4.335c0.143,0.613-0.239,1.226-0.852,1.368c-0.614,0.148-1.228-0.237-1.37-0.853   c-0.37-1.588-0.612-3.167-0.722-4.686c-0.045-0.628,0.428-1.176,1.057-1.221C167.807,42.929,167.891,42.933,167.971,42.945z    M129.191,46.329c-0.101,0-0.206-0.013-0.309-0.042c-0.606-0.172-0.96-0.8-0.79-1.406c0.021-0.076,0.534-1.885,1.75-4.441   c0.272-0.568,0.951-0.811,1.521-0.539c0.569,0.27,0.811,0.951,0.54,1.52c-1.126,2.367-1.61,4.06-1.614,4.078   C130.147,45.999,129.689,46.329,129.191,46.329z M221.836,45.168c-0.006,0-0.01,0-0.016,0c-2.15-0.031-3.828-0.646-4.986-1.832   c-0.441-0.45-0.432-1.174,0.018-1.613c0.454-0.441,1.176-0.428,1.613,0.018c0.722,0.74,1.861,1.123,3.386,1.145   c0.631,0.009,1.134,0.526,1.125,1.156C222.968,44.667,222.459,45.168,221.836,45.168z M225.705,43.486   c-0.148,0-0.297-0.029-0.442-0.089c-0.58-0.245-0.853-0.914-0.609-1.495c0.237-0.562,0.362-1.364,0.362-2.32   c0-0.501-0.033-1.041-0.099-1.611c-0.072-0.626,0.377-1.192,1.002-1.266c0.63-0.062,1.193,0.377,1.265,1.003   c0.077,0.664,0.115,1.293,0.115,1.874c0,1.275-0.182,2.353-0.54,3.207C226.573,43.223,226.149,43.486,225.705,43.486z    M168.036,40.469c-0.043,0-0.087-0.002-0.131-0.007c-0.626-0.074-1.075-0.639-1.003-1.266c0.176-1.529,0.435-3.082,0.768-4.617   c0.135-0.615,0.74-1.005,1.358-0.871c0.615,0.134,1.006,0.742,0.872,1.357c-0.319,1.46-0.564,2.939-0.732,4.394   C169.101,40.041,168.607,40.469,168.036,40.469z M216.337,39.448c-0.019,0-0.038,0-0.058-0.002   c-0.628-0.031-1.114-0.566-1.083-1.194c0.071-1.446,0.446-3.053,1.111-4.778c0.226-0.588,0.89-0.876,1.474-0.655   c0.588,0.227,0.881,0.887,0.654,1.475c-0.577,1.497-0.9,2.868-0.959,4.069C217.445,38.973,216.941,39.448,216.337,39.448z    M280.532,39.074c-0.589,0-1.089-0.452-1.137-1.049c-0.121-1.527-0.297-3.024-0.522-4.455c-0.097-0.622,0.328-1.205,0.95-1.304   c0.62-0.098,1.206,0.328,1.305,0.952c0.233,1.484,0.416,3.042,0.543,4.624c0.05,0.628-0.419,1.179-1.046,1.228   C280.593,39.071,280.562,39.074,280.532,39.074z M173.721,38.127c-0.398,0-0.784-0.209-0.995-0.579   c-0.731-1.295-1.549-2.529-2.428-3.664c-0.387-0.499-0.295-1.217,0.203-1.602c0.497-0.383,1.216-0.294,1.6,0.203   c0.948,1.223,1.827,2.549,2.613,3.94c0.31,0.548,0.116,1.246-0.432,1.555C174.103,38.08,173.912,38.127,173.721,38.127z    M133.086,38.073c-0.211,0-0.423-0.058-0.614-0.181c-0.53-0.339-0.685-1.045-0.346-1.576c0.866-1.353,1.812-2.629,2.812-3.795   c0.411-0.477,1.132-0.53,1.609-0.125c0.478,0.412,0.533,1.132,0.123,1.609c-0.93,1.085-1.813,2.277-2.621,3.541   C133.83,37.888,133.462,38.073,133.086,38.073z M225.081,34.519c-0.489,0-0.941-0.316-1.092-0.809   c-0.413-1.359-0.937-2.752-1.555-4.142c-0.257-0.575,0.002-1.25,0.577-1.506c0.584-0.254,1.252,0.004,1.506,0.579   c0.657,1.475,1.214,2.957,1.656,4.406c0.183,0.602-0.157,1.239-0.76,1.424C225.303,34.503,225.19,34.519,225.081,34.519z    M169.967,31.555c-0.116,0-0.233-0.018-0.35-0.056c-0.39-0.125-0.665-0.439-0.758-0.811c-0.435,0.368-1.083,0.357-1.508-0.036   c-1.095-1.014-2.255-1.894-3.446-2.621c-0.538-0.328-0.71-1.027-0.382-1.566c0.328-0.539,1.028-0.711,1.568-0.381   c1.321,0.802,2.604,1.776,3.809,2.892c0.099,0.091,0.178,0.198,0.237,0.31c0.42-1.23,0.89-2.436,1.402-3.597   c0.254-0.577,0.924-0.836,1.504-0.586c0.576,0.254,0.838,0.929,0.584,1.504c-0.586,1.333-1.116,2.732-1.574,4.156   C170.898,31.248,170.45,31.555,169.967,31.555z M139.035,31.185c-0.325,0-0.647-0.138-0.873-0.406   c-0.406-0.481-0.345-1.201,0.137-1.607c1.23-1.038,2.542-1.959,3.903-2.734c0.545-0.31,1.243-0.12,1.557,0.426   c0.312,0.548,0.121,1.246-0.427,1.558c-1.239,0.706-2.438,1.547-3.562,2.493C139.556,31.096,139.295,31.185,139.035,31.185z    M219.393,30.936c-0.2,0-0.401-0.051-0.585-0.163c-0.54-0.323-0.716-1.025-0.392-1.564c0.658-1.101,1.407-2.208,2.231-3.305   c-0.092-0.08-0.175-0.176-0.239-0.29c-0.745-1.281-1.566-2.529-2.438-3.71c-0.374-0.506-0.266-1.221,0.241-1.596   c0.506-0.37,1.221-0.265,1.596,0.241c0.921,1.246,1.787,2.565,2.574,3.92c0.105,0.178,0.154,0.374,0.155,0.566   c0.052,0.029,0.102,0.062,0.15,0.1c0.497,0.388,0.586,1.105,0.199,1.602c-0.94,1.206-1.785,2.431-2.511,3.643   C220.16,30.737,219.781,30.936,219.393,30.936z M279.097,30.062c-0.51,0-0.976-0.345-1.105-0.862   c-0.373-1.486-0.813-2.915-1.309-4.245c-0.22-0.59,0.081-1.248,0.672-1.469c0.586-0.218,1.247,0.08,1.467,0.671   c0.525,1.411,0.989,2.919,1.383,4.486c0.154,0.613-0.217,1.232-0.829,1.386C279.282,30.051,279.189,30.062,279.097,30.062z    M146.921,26.711c-0.477,0-0.921-0.301-1.082-0.778c-0.201-0.597,0.121-1.243,0.719-1.444c1.483-0.499,3.044-0.862,4.641-1.081   c0.626-0.08,1.2,0.352,1.286,0.976c0.085,0.624-0.352,1.199-0.976,1.284c-1.455,0.201-2.876,0.53-4.224,0.983   C147.163,26.693,147.041,26.711,146.921,26.711z M160.368,26.296c-0.115,0-0.233-0.018-0.349-0.053   c-1.358-0.437-2.767-0.698-4.184-0.778c-0.63-0.033-1.111-0.573-1.075-1.201c0.035-0.631,0.584-1.161,1.202-1.076   c1.611,0.089,3.211,0.385,4.754,0.882c0.599,0.192,0.93,0.833,0.738,1.433C161.299,25.989,160.85,26.296,160.368,26.296z    M224.977,23.731c-0.285,0-0.57-0.107-0.791-0.319c-0.455-0.437-0.468-1.161-0.03-1.613c1.074-1.116,2.218-2.195,3.4-3.207   c0.479-0.41,1.198-0.352,1.609,0.125c0.41,0.479,0.354,1.199-0.125,1.609c-1.128,0.965-2.218,1.992-3.242,3.055   C225.574,23.615,225.276,23.731,224.977,23.731z M173.657,23.223c-0.196,0-0.395-0.051-0.576-0.156   c-0.544-0.319-0.725-1.018-0.407-1.562c0.811-1.384,1.701-2.696,2.646-3.902c0.39-0.497,1.105-0.582,1.602-0.194   c0.496,0.39,0.583,1.105,0.194,1.602c-0.882,1.125-1.715,2.351-2.475,3.648C174.43,23.023,174.048,23.223,173.657,23.223z    M275.875,21.536c-0.406,0-0.798-0.216-1.005-0.597c-0.713-1.319-1.517-2.545-2.392-3.641c-0.392-0.493-0.312-1.21,0.182-1.602   c0.491-0.399,1.211-0.312,1.603,0.181c0.957,1.201,1.837,2.54,2.615,3.975c0.3,0.555,0.094,1.248-0.461,1.547   C276.243,21.492,276.057,21.536,275.875,21.536z M215.968,18.858c-0.304,0-0.607-0.12-0.831-0.359   c-1.027-1.094-2.113-2.108-3.223-3.015c-0.489-0.399-0.562-1.119-0.163-1.607c0.397-0.488,1.115-0.559,1.604-0.163   c1.19,0.971,2.349,2.054,3.444,3.22c0.432,0.461,0.409,1.183-0.05,1.613C216.528,18.755,216.249,18.858,215.968,18.858z    M231.903,17.799c-0.359,0-0.712-0.169-0.935-0.486c-0.362-0.515-0.238-1.226,0.277-1.589c1.29-0.907,2.618-1.747,3.948-2.5   c0.55-0.316,1.246-0.123,1.555,0.43c0.311,0.548,0.118,1.243-0.43,1.553c-1.266,0.717-2.531,1.52-3.76,2.384   C232.359,17.732,232.129,17.799,231.903,17.799z M179.297,16.088c-0.305,0-0.611-0.123-0.836-0.363   c-0.429-0.461-0.403-1.183,0.058-1.613c1.181-1.099,2.446-2.081,3.759-2.919c0.529-0.343,1.237-0.187,1.575,0.345   c0.339,0.533,0.184,1.237-0.348,1.576c-1.198,0.767-2.352,1.665-3.432,2.67C179.854,15.988,179.575,16.088,179.297,16.088z    M270.177,14.481c-0.254,0-0.51-0.085-0.722-0.259c-1.104-0.905-2.316-1.682-3.603-2.313c-0.566-0.279-0.8-0.96-0.524-1.526   c0.279-0.566,0.961-0.793,1.526-0.524c1.445,0.709,2.807,1.582,4.047,2.598c0.487,0.399,0.559,1.119,0.159,1.607   C270.835,14.339,270.508,14.481,270.177,14.481z M239.831,13.305c-0.439,0-0.857-0.254-1.045-0.68   c-0.254-0.577,0.007-1.25,0.583-1.504c1.427-0.631,2.899-1.192,4.375-1.665c0.601-0.196,1.242,0.136,1.435,0.735   c0.193,0.602-0.137,1.243-0.738,1.435c-1.401,0.45-2.797,0.983-4.15,1.58C240.14,13.273,239.984,13.305,239.831,13.305z    M208.893,13.131c-0.197,0-0.397-0.051-0.578-0.158c-1.276-0.751-2.598-1.386-3.932-1.89c-0.589-0.223-0.888-0.88-0.665-1.471   c0.222-0.588,0.88-0.894,1.47-0.664c1.455,0.548,2.897,1.241,4.286,2.059c0.543,0.319,0.723,1.018,0.403,1.562   C209.664,12.93,209.284,13.131,208.893,13.131z M186.945,11.219c-0.455,0-0.885-0.274-1.062-0.724   c-0.231-0.586,0.058-1.248,0.644-1.477c1.472-0.579,3.016-1.018,4.592-1.306c0.625-0.1,1.213,0.299,1.326,0.918   c0.114,0.62-0.298,1.215-0.918,1.328c-1.428,0.261-2.83,0.657-4.164,1.181C187.226,11.194,187.085,11.219,186.945,11.219z    M248.508,10.537c-0.533,0-1.01-0.374-1.118-0.918c-0.124-0.617,0.277-1.219,0.895-1.341c1.545-0.31,3.107-0.528,4.644-0.653   c0.619-0.049,1.178,0.417,1.23,1.045c0.05,0.626-0.417,1.177-1.045,1.228c-1.448,0.118-2.923,0.325-4.381,0.617   C248.657,10.53,248.581,10.537,248.508,10.537z M262.078,10.488c-0.09,0-0.181-0.011-0.272-0.034   c-1.35-0.33-2.796-0.542-4.296-0.628c-0.628-0.036-1.109-0.575-1.072-1.205c0.037-0.628,0.544-1.125,1.206-1.072   c1.638,0.096,3.22,0.328,4.704,0.691c0.612,0.149,0.987,0.767,0.838,1.379C263.057,10.138,262.591,10.488,262.078,10.488z    M200.398,9.947c-0.067,0-0.135-0.007-0.203-0.018c-1.374-0.247-2.787-0.372-4.198-0.372c-0.631,0-1.209-0.51-1.209-1.141   c0-0.631,0.443-1.141,1.074-1.141h0.135c1.547,0,3.095,0.138,4.602,0.408c0.621,0.111,1.033,0.704,0.921,1.326   C201.421,9.559,200.94,9.947,200.398,9.947z"/>
</g>















</svg>
