<svg height="512" viewBox="0 0 474.6 512" width="512" xmlns="http://www.w3.org/2000/svg"><g id="Layer_6"><g><g><g><g><g><g><g><path d="m163.8 491h37.6 70.9 37.6c9-4.3 16.7-17.8 20.5-29.1 4.7-14.1 7-26.8 5.7-42.1-2.3-25.7-14.4-46-32.4-67.3-14.8-17.5-29.3-37.9-33.2-63.2h-67.8c-3.9 25.3-18.4 45.8-33.2 63.2-18 21.3-30.1 41.6-32.4 67.3-1.4 15.2.9 28 5.7 42.1 3.7 11.6 11.7 25.1 21 29.1z" fill="#62969f"/><path d="m309.9 492.5h-146.1c-.2 0-.4 0-.6-.1-10.3-4.4-18.2-18.9-21.9-30-5.3-15.8-7-28.5-5.7-42.7 2.1-23.1 11.8-43.4 32.8-68.1 14-16.6 28.9-36.9 32.9-62.5.1-.7.8-1.3 1.5-1.3h67.8c.7 0 1.4.5 1.5 1.3 4 25.5 18.8 45.9 32.9 62.5 20.9 24.7 30.7 45 32.8 68.1 1.3 14.2-.5 26.9-5.7 42.7-3.7 10.9-11.4 25.3-21.3 30-.4 0-.7.1-.9.1zm-145.8-3h145.5c8.3-4.2 15.7-17 19.4-28 5.1-15.3 6.8-27.7 5.6-41.5-2-22.4-11.6-42.3-32.1-66.4-14.1-16.6-29-37-33.3-62.7h-65.2c-4.4 25.7-19.3 46.1-33.3 62.7-20.5 24.1-30.1 44-32.1 66.4-1.2 13.7.5 26.1 5.6 41.5 3.7 11.1 11.3 24 19.9 28z" fill="#42646b"/></g></g><circle cx="236.5" cy="420.3" fill="#fff" r="42.6"/></g><g><g><g><path d="m420.1 220.9v-32c0-102.4-83-185.5-185.5-185.5-102.4 0-185.5 83-185.5 185.5v32c-10.4 13.2-16.6 29.9-16.6 48 0 43 34.8 77.8 77.8 77.8h43 162.7 43c43 0 77.8-34.8 77.8-77.8-.1-18.2-6.3-34.8-16.7-48z" fill="#fff"/><path d="m358.9 348.1h-248.6c-43.7 0-79.3-35.6-79.3-79.3 0-17.7 5.7-34.5 16.6-48.5v-31.5c0-103.1 83.9-187 187-187s187 83.9 187 187v31.5c10.8 14 16.6 30.8 16.6 48.5 0 43.8-35.5 79.3-79.3 79.3zm-124.3-343.2c-101.4 0-184 82.5-184 184v32c0 .3-.1.7-.3.9-10.6 13.5-16.3 29.8-16.3 47 0 42.1 34.2 76.3 76.3 76.3h248.6c42.1 0 76.3-34.2 76.3-76.3 0-17.2-5.6-33.5-16.3-47-.2-.3-.3-.6-.3-.9v-32c0-101.4-82.5-184-184-184z" fill="#b3b3b3"/></g><g><path d="m236.5 1.5c-102.4 0-185.5 83.1-185.5 185.5v29.2c0-86.3 38.5-156.3 85.9-156.3s85.9 70 85.9 156.3c0 53.3 1.6 41.4 0 41.4h27.4c.8-.1 0 11.9 0-41.4 0-86.3 38.5-156.3 85.9-156.3s85.9 70 85.9 156.3v-29.2c0-102.4-83-185.5-185.5-185.5z" fill="#62969f"/><path d="m250.6 260.2c-.5 0-1.2-.2-1.5-1.1h-24.2c-.2.7-.7 1-1.2 1.1s-1.4-.1-1.7-1.2v-.1c-.4-.3-.7-.7-.7-1.2s.2-.9.6-1.2c-.4-7.4-.6-21.5-.6-40.3 0-85.4-37.9-154.8-84.4-154.8s-84.4 69.4-84.4 154.8c0 .8-.7 1.5-1.5 1.5s-1.5-.7-1.5-1.5v-29.2c0-103.1 83.9-187 187-187s187 83.9 187 187v29.2c0 .8-.7 1.5-1.5 1.5s-1.5-.7-1.5-1.5c0-85.4-37.9-154.8-84.4-154.8s-84.4 69.4-84.4 154.8c0 20.6.1 35.6.3 42.1 0 .7-.1 1.8-1.4 1.9zm-.4-1.1h.2s-.1 0-.2 0zm-25.3-3h24.1c-.2-7.4-.3-21.4-.3-39.9 0-42 9-81.5 25.3-111.3 16.5-30 38.5-46.6 62.1-46.6 23.5 0 45.6 16.5 62.1 46.6 10.1 18.4 17.4 40.4 21.5 64.5-8.9-93.2-87.6-166.4-183.2-166.4s-174.3 73.2-183.1 166.5c4.1-24.1 11.4-46.2 21.5-64.5 16.5-30 38.5-46.6 62.1-46.6s45.6 16.5 62.1 46.6c16.3 29.7 25.3 69.3 25.3 111.3-.1 18.5.1 32.5.5 39.8z" fill="#42646b"/></g></g><g><g><g><g><g><path d="m101.7 211.7c0 17.3 14 31.3 31.2 31.3 17.3 0 31.3-14 31.3-31.3s-14-31.3-31.3-31.3c-17.2 0-31.2 14-31.2 31.3z" fill="#fff"/></g></g><circle cx="132.9" cy="211.7" r="23.2"/></g><circle cx="132.9" cy="194.1" fill="#fff" r="3.5"/></g><g><g><g><path d="m308.9 211.7c0 17.3 14 31.3 31.2 31.3 17.3 0 31.3-14 31.3-31.3s-14-31.3-31.3-31.3-31.3 14-31.2 31.3z" fill="#fff"/></g><circle cx="340.1" cy="211.7" r="23.2"/></g><circle cx="340.1" cy="194.1" fill="#fff" r="3.5"/></g></g><g><g><circle cx="84" cy="269" fill="#ffe0e0" r="39.6"/><ellipse cx="84" cy="239.6" fill="#fff" rx="9.6" ry="5"/></g><g><circle cx="389.1" cy="269" fill="#ffe0e0" r="39.6"/><ellipse cx="389.1" cy="239.6" fill="#fff" rx="9.6" ry="5"/></g></g></g></g></g><g><path d="m181.3 498.9c-5.1-.4-11-2.7-14.9-5.3-6.2-4.2-13.4-15.4-6.8-22.4 3-3.2 8.4-2.8 12-.3.4-4 3.6-7.5 7.5-8.4.7-.2 1.4-.2 2.2-.2.7 0 1.4.1 2.2.2 3.9.9 7.1 4.4 7.5 8.4 3.6-2.4 9-2.9 12 .3 6.6 7-.6 18.2-6.8 22.4-3.9 2.6-9.8 5-14.9 5.3z" fill="#ffe600"/><path d="m181.3 500.5h-.1c-5-.3-11.1-2.5-15.6-5.6-4.4-3-9.3-9.3-10-15.5-.4-3.6.6-6.7 2.9-9.2 3.1-3.3 8.1-3.3 12.1-1.6 1.2-3.7 4.4-6.7 8.2-7.6.8-.2 1.7-.3 2.5-.2.8 0 1.6.1 2.4.2 3.8.8 7 3.9 8.2 7.6 3.9-1.8 9-1.7 12.1 1.6 2.3 2.5 3.3 5.7 2.9 9.2-.7 6.2-5.6 12.5-10 15.5-4.5 3-10.6 5.2-15.6 5.6zm-16-30c-1.7 0-3.4.5-4.6 1.8-1.7 1.8-2.4 4.1-2.1 6.8.6 5.2 4.9 10.8 8.7 13.3 3.3 2.2 8.9 4.7 14 5.1 5.1-.4 10.7-2.8 14-5.1 3.8-2.5 8.1-8.1 8.7-13.3.3-2.7-.4-5-2.1-6.8-2.5-2.6-7.1-2.1-10.1-.1-.4.3-1 .3-1.5.1s-.8-.7-.9-1.2c-.4-3.3-3.1-6.4-6.3-7.1-.6-.1-1.2-.2-1.8-.2-.7 0-1.3 0-1.9.2-3.3.7-6 3.8-6.3 7.1-.1.5-.4 1-.9 1.2s-1 .2-1.5-.1c-1.5-1.1-3.5-1.7-5.4-1.7z" fill="#a69500"/></g></g><g><ellipse cx="237.1" cy="255.2" fill="#ffe600" rx="38.8" ry="35.3"/><path d="m237.1 292.1c-23 0-40.3-15.8-40.3-36.8s17.3-36.8 40.3-36.8 40.3 15.8 40.3 36.8c0 20.9-17.4 36.8-40.3 36.8zm0-70.7c-21.2 0-37.3 14.5-37.3 33.8s16 33.8 37.3 33.8c21.2 0 37.3-14.5 37.3-33.8-.1-19.3-16.1-33.8-37.3-33.8z" fill="#a69500"/></g><g><g><g><path d="m151.6 381.5c-9.2-9.7-33-33.2-36.6-36.7-6.1-6-7.8-14.7-5.1-22.3 1-2.8 2.6-5.4 4.8-7.7 8.2-8.3 21.6-8.5 29.9-.3 3.5 3.4 25.3 24.5 35.2 35" fill="#62969f"/><path d="m151.6 383c-.4 0-.8-.2-1.1-.5-9.8-10.4-36.3-36.4-36.6-36.6-6.3-6.2-8.4-15.5-5.5-23.8 1.1-3.1 2.8-5.9 5.2-8.2 4.2-4.3 9.9-6.7 16-6.8 6 0 11.8 2.2 16.1 6.5.5.5 1.4 1.4 2.7 2.6 7.2 7 24.1 23.5 32.5 32.4.6.6.5 1.6-.1 2.1-.6.6-1.6.5-2.1-.1-8.4-8.9-25.2-25.3-32.5-32.3-1.2-1.2-2.2-2.1-2.7-2.6-3.7-3.7-8.7-5.7-13.9-5.6-5.2 0-10.2 2.1-13.8 5.9-2 2.1-3.5 4.4-4.5 7.1-2.6 7.2-.7 15.3 4.7 20.7.3.3 26.8 26.3 36.6 36.7.6.6.5 1.6-.1 2.1-.2.3-.5.4-.9.4z" fill="#42646b"/></g></g><g><g><path d="m295 349.6c9.7-9.2 31.2-31.3 34.7-34.9 6-6.1 14.7-7.8 22.3-5.1 2.8 1 5.4 2.6 7.7 4.8 8.3 8.2 8.5 21.6.3 29.9-3.4 3.5-27.9 28-38.3 37.8" fill="#62969f"/><path d="m321.6 383.7c-.4 0-.8-.2-1.1-.5-.6-.6-.5-1.6.1-2.1 10.4-9.9 34.8-34.3 38.2-37.8 3.7-3.7 5.7-8.7 5.6-13.9 0-5.2-2.1-10.2-5.9-13.8-2-2-4.4-3.5-7.1-4.5-7.2-2.6-15.3-.7-20.7 4.7-.5.5-1.4 1.4-2.6 2.6-7.1 7.3-23.8 24.4-32.2 32.3-.6.6-1.6.5-2.1-.1-.6-.6-.5-1.6.1-2.1 8.3-7.9 25-24.9 32.1-32.2 1.2-1.2 2.1-2.1 2.6-2.6 6.2-6.3 15.5-8.4 23.8-5.5 3.1 1.1 5.9 2.8 8.2 5.2 4.3 4.2 6.7 9.9 6.8 16s-2.2 11.8-6.5 16.1c-3.4 3.5-27.9 28-38.3 37.8-.2.2-.6.4-1 .4z" fill="#42646b"/></g></g></g><g><g><g><g><path d="m188.1 293c-3.7-9.8-11.7-14.6-20.3-21.6 5.1 3.1 17.2 3.5 18.7.9 2.8-5.3-3.4-13.2-10.8-17.5-7.4-4.2-8.1-3.9-16.4-5.8 6.2-.3 16.6-7 15-12.1-2.8-8.3-26.8-6.5-38.9.1 7.2-3.9 14-9 16.3-14.7 4.1-10-7.2-9.4-7.9-9.3-18.3 2.1-31.2 19.1-31 18.9 4.9-6.3 9.3-13.1 10.3-21.3.4-3-.2-4.9-1.7-5.9-2.3-1.7-5-1.1-6.9-.3-7.1 3-15.1 11.3-19.3 18.3-4.3-7-12.2-15.3-19.3-18.3-1.9-.8-4.6-1.4-6.9.3-1.5 1.1-2.1 2.9-1.7 5.9 1 8.2 5.4 15 10.3 21.3.2.2-12.7-16.8-31-18.9-.7-.1-12-.7-7.9 9.3 2.3 5.6 9.1 10.8 16.3 14.7-12.1-6.6-36.1-8.4-38.9-.1-1.7 5.1 8.8 11.8 15 12.1-8.3 2-9 1.6-16.4 5.8-7.5 4.2-13.7 12.2-10.9 17.4 1.5 2.6 13.6 2.2 18.7-.9-8.5 7-16.5 11.8-20.2 21.7-.4 1-1.3 4.3-.4 7 1.5 4.6 9.9 2.4 11.3 1.7 4.7-2.1 5.8-2 9.1-5.5-3.2 4.6-4.9 5.5-7.4 10.6-2.3 4.6-4.4 11.7-4.6 16.8-.2 3.5.4 8.8 3.7 9.9 3.5 1.2 6.3-1.4 8.8-4.1 3.4-3.6 4.5-5.4 6.9-10.5-2.3 7.3-2.4 18.4-.8 29.9.4 2.7 1.9 6.9 4.3 8.2 3.5 1.9 8.1.7 10.5-2.9 2.6-3.7 3.7-6.2 5.5-10.5-.3 11.4 4.4 34 15.7 30.4 4.1-1.5 11.1-8.8 10.6-14.9 1.1 11.6 9.2 22.5 13.8 24.5 2 .9 4 1.9 5.8 1.7 1.9.2 3.8-.8 5.8-1.7 4.6-2 12.7-12.9 13.8-24.5-.5 6.1 6.5 13.4 10.6 14.9 11.3 3.6 16-19.1 15.7-30.4 1.8 4.3 2.9 6.8 5.5 10.5 2.5 3.6 7.1 4.7 10.5 2.9 2.4-1.3 4-5.5 4.3-8.2 1.6-11.5 1.5-22.6-.8-29.9 2.5 5.2 3.6 6.9 6.9 10.5 2.6 2.7 5.4 5.3 8.8 4.1 3.3-1.1 3.9-6.4 3.7-9.9-.3-5.1-2.3-12.2-4.6-16.8-2.5-5-4.2-6-7.4-10.6 3.3 3.5 4.4 3.4 9.1 5.5 1.4.6 9.8 2.8 11.3-1.7 1.1-2.7.2-6.1-.2-7z" fill="#ffc95c"/><path d="m95.7 386.8c-.2 0-.3 0-.5 0-2 .1-3.8-.7-5.6-1.5l-.8-.4c-4.1-1.8-10.5-9.7-13.3-19.1-2.3 4.5-6.6 8.4-9.9 9.6-2.9.9-5.7.4-8.1-1.4-5.6-4.2-8.5-15.1-9.4-24.1-.8 1.6-1.7 3.1-3 5-2.9 4.2-8.3 5.6-12.5 3.3-3-1.6-4.7-6.5-5.1-9.3-1.1-8.1-1.4-15.5-.8-21.7-.8 1-1.6 2-2.7 3.1-2 2.2-5.7 6.2-10.4 4.5-4.9-1.7-4.9-9.2-4.7-11.4.3-5.1 2.3-12.5 4.8-17.4.8-1.6 1.5-2.8 2.2-3.8-.6.2-1.2.5-1.9.8-1.3.6-6.8 2.1-10.4.5-1.5-.6-2.5-1.7-2.9-3.2-1.2-3.7.4-7.8.4-8 2.9-7.7 8.2-12.4 14.4-17.2-3.6.5-7.3.4-9.6-.2-1.6-.4-2.6-1.1-3.1-2-3.3-6.2 3.4-14.9 11.4-19.5 5.3-3 7.4-3.8 10.9-4.6-3.6-1.6-7.2-4.2-9-6.8-1.7-2.5-1.6-4.4-1.1-5.6.7-2.2 2.6-3.9 5.4-5 5.7-2.2 15.1-2.1 23.8-.1-2.9-2.5-5.4-5.3-6.6-8.5-1.4-3.5-1.4-6.3.2-8.3 2.8-3.7 9.2-3.1 9.2-3.1 9.3 1 17.1 5.8 22.3 9.9-1.6-3.3-2.8-6.8-3.2-10.6-.4-3.5.3-5.9 2.3-7.3 2.3-1.7 5.2-1.9 8.4-.5 6.8 2.9 14.2 10.3 18.7 16.9 4.5-6.6 11.9-14 18.7-16.9 3.2-1.4 6.1-1.2 8.4.5 2 1.5 2.7 3.9 2.3 7.3-.5 3.8-1.7 7.3-3.2 10.6 5.2-4.1 13-8.8 22.3-9.9.1 0 6.5-.6 9.2 3.1 1.6 2.1 1.6 4.9.2 8.3-1.3 3.1-3.7 6-6.6 8.5 8.7-2 18.1-2.1 23.8.1 2.9 1.1 4.7 2.8 5.4 5 .4 1.2.5 3.2-1.1 5.6-1.8 2.6-5.3 5.2-9 6.8 3.6.9 5.6 1.6 10.9 4.6 8 4.6 14.7 13.3 11.4 19.5-.5.9-1.5 1.6-3.1 2-2.4.6-6.1.7-9.6.2 6.2 4.9 11.5 9.5 14.4 17.2.1.2 1.6 4.4.4 8-.5 1.4-1.5 2.5-2.9 3.2-3.6 1.6-9.2.1-10.4-.5-.7-.3-1.4-.6-1.9-.8.7 1 1.4 2.2 2.2 3.8 2.5 5 4.5 12.3 4.8 17.4.1 2.3.1 9.8-4.7 11.4-4.7 1.6-8.4-2.4-10.4-4.5-1.1-1.2-2-2.2-2.7-3.1.6 6.2.3 13.5-.8 21.7-.4 2.9-2.1 7.7-5.1 9.3-4.3 2.3-9.6.8-12.5-3.3-1.3-1.8-2.2-3.4-3-5-.9 9-3.8 19.9-9.4 24.1-2.4 1.8-5.2 2.3-8 1.4-3.3-1.2-7.7-5.1-10-9.6-2.8 9.4-9.2 17.3-13.3 19.1l-.8.4c-2.2.7-3.9 1.5-5.7 1.5zm-.5-3h.2c1.2.1 2.7-.5 4.2-1.2l.8-.4c3.9-1.7 11.8-11.9 12.9-23.3.1-.8.8-1.4 1.6-1.4.8.1 1.4.8 1.4 1.6-.4 5.4 6.2 12.1 9.6 13.4 1.9.6 3.6.3 5.2-.9 5.8-4.4 8.7-19.1 8.5-28 0-.7.5-1.4 1.2-1.5.7-.2 1.4.2 1.7.9 1.9 4.4 2.9 6.7 5.3 10.2 2 2.9 5.7 3.9 8.6 2.4 1.7-.9 3.2-4.4 3.5-7.1 1.6-11.9 1.3-22.6-.8-29.2-.2-.8.1-1.6.9-1.9.7-.3 1.6 0 1.9.8 2.5 5.2 3.5 6.7 6.7 10.2 2.7 2.9 4.9 4.6 7.2 3.7 2.1-.7 2.9-4.9 2.7-8.4-.2-4.7-2.2-11.7-4.5-16.2-1.5-3.1-2.7-4.5-4.2-6.3-.9-1.1-1.9-2.3-3.1-4-.5-.7-.3-1.5.3-2s1.5-.4 2.1.1c2.3 2.5 3.4 2.9 5.9 4 .8.3 1.6.7 2.7 1.2 1 .5 5.6 1.6 8 .5.7-.3 1.1-.7 1.3-1.3.7-2.2 0-5.1-.4-6-3-7.8-8.8-12.4-15.6-17.6-1.4-1.1-2.8-2.2-4.2-3.3-.6-.5-.7-1.4-.3-2.1.5-.7 1.3-.8 2-.4 4.8 2.9 15.5 2.8 16.6 1.4 2.3-4.3-3.6-11.6-10.3-15.4-6-3.4-7.4-3.7-12.5-4.9-1-.2-2.1-.5-3.5-.8-.7-.2-1.2-.9-1.2-1.6.1-.8.7-1.3 1.4-1.4 4.1-.2 10.5-3.7 12.8-7.1.8-1.2 1-2.1.8-3-.4-1.3-1.7-2.3-3.7-3.1-7.5-2.9-23.7-1-32.9 3.9-.1 0-.1.1-.2.1-.7.4-1.7.1-2.1-.6s-.1-1.7.6-2.1c.1 0 .1-.1.2-.1 8.1-4.4 13.6-9.3 15.5-13.8 1-2.4 1.1-4.2.2-5.3-1.5-2-5.6-2-6.5-1.9-16.8 1.9-29 17-29.9 18.2 0 0 0 .1-.1.1-.4.5-1.2.7-1.8.5-.6-.3-1-.9-.9-1.6 0-.1.1-.4.3-.7 4.6-5.9 9-12.5 10-20.6.4-3-.4-4-1.1-4.5-1.4-1-3.2-1.1-5.4-.1-6.9 2.9-14.6 11.1-18.6 17.7-.3.5-.8.7-1.3.7s-1-.3-1.3-.7c-4-6.6-11.7-14.8-18.6-17.7-2.2-.9-4-.9-5.4.1-.7.5-1.5 1.5-1.1 4.5 1 8 5.4 14.6 10 20.6.2.3.3.5.3.7.1.7-.3 1.3-.9 1.6s-1.4.1-1.8-.5c0 0 0-.1-.1-.1-.9-1.2-13.1-16.3-29.9-18.2-.9-.1-5-.1-6.5 1.9-.9 1.1-.8 2.9.2 5.3 1.9 4.5 7.3 9.4 15.5 13.8.1 0 .1.1.2.1.7.4 1 1.3.6 2.1-.4.7-1.3 1-2.1.6-.1 0-.1-.1-.2-.1-9.2-4.9-25.4-6.9-32.9-3.9-2 .8-3.2 1.8-3.6 3.1-.3.8 0 1.8.8 3 2.3 3.4 8.7 6.9 12.8 7.1.8 0 1.4.6 1.4 1.4.1.8-.4 1.4-1.2 1.6-1.3.3-2.5.6-3.5.8-5.1 1.1-6.5 1.5-12.5 4.9-6.7 3.8-12.6 11.1-10.2 15.4 1.1 1.4 11.7 1.5 16.6-1.4.7-.4 1.6-.2 2 .4.5.7.3 1.5-.3 2.1-1.4 1.1-2.8 2.2-4.2 3.3-6.8 5.3-12.6 9.8-15.6 17.6-.4.9-1.1 3.8-.4 6 .2.6.6 1 1.3 1.3 2.4 1.1 6.9 0 8-.5 1-.5 1.9-.8 2.7-1.2 2.5-1.1 3.6-1.5 5.9-4 .5-.6 1.4-.6 2.1-.1.6.5.7 1.4.3 2-1.2 1.7-2.2 3-3.1 4-1.5 1.8-2.7 3.3-4.2 6.3-2.3 4.6-4.2 11.5-4.5 16.2-.2 3.5.6 7.7 2.7 8.4 2.4.8 4.5-.8 7.2-3.7 3.2-3.5 4.2-5 6.7-10.2.3-.7 1.2-1.1 1.9-.8s1.1 1.1.9 1.9c-2.1 6.6-2.4 17.3-.8 29.2.4 2.7 1.9 6.2 3.5 7.1 2.8 1.5 6.6.5 8.6-2.4 2.4-3.5 3.5-5.8 5.3-10.2.3-.7 1-1 1.7-.9.7.2 1.2.8 1.2 1.5-.2 8.9 2.6 23.7 8.5 28 1.6 1.2 3.4 1.5 5.3.9 3.4-1.3 10-7.9 9.6-13.4-.1-.8.5-1.6 1.4-1.6.8-.1 1.6.5 1.6 1.4 1.1 11.4 8.9 21.5 12.9 23.3l.8.4c1.6.7 3 1.4 4.2 1.2z" fill="#b38d41"/></g><g><g><g><g><path d="m68.7 343.3c-2-10.8.6-22.3 7-31.2" fill="#ffc95c"/><path d="m68.7 344.8c-.7 0-1.4-.5-1.5-1.2-2.1-11.1.7-23.2 7.3-32.4.5-.7 1.4-.8 2.1-.3s.8 1.4.3 2.1c-6.1 8.5-8.7 19.7-6.8 30.1.2.8-.4 1.6-1.2 1.8 0-.1-.1-.1-.2-.1z" fill="#b38d41"/></g><g><path d="m46.2 301.7c2.9-7.7 9.2-14.1 16.8-17.1" fill="#ffc95c"/><path d="m46.2 303.2c-.2 0-.4 0-.5-.1-.8-.3-1.2-1.2-.9-2 3-8.1 9.7-14.8 17.7-17.9.8-.3 1.7.1 2 .9s-.1 1.7-.9 2c-7.3 2.8-13.2 8.9-16 16.2-.2.5-.8.9-1.4.9z" fill="#b38d41"/></g></g><g><path d="m55.6 256.5c3.8-3.2 12.8 1.5 16.4 3.6" fill="#ffc95c"/><path d="m72 261.6c-.3 0-.5-.1-.8-.2-7-4-12.6-5.5-14.7-3.7-.6.5-1.6.5-2.1-.2-.5-.6-.5-1.6.2-2.1 4.4-3.7 13.3.5 18.2 3.4.7.4 1 1.3.5 2.1-.3.4-.8.7-1.3.7z" fill="#b38d41"/></g></g><g><g><g><path d="m121.7 343.3c2-10.8-.6-22.3-7-31.2" fill="#ffc95c"/><path d="m121.7 344.8c-.1 0-.2 0-.3 0-.8-.2-1.4-.9-1.2-1.8 1.9-10.3-.6-21.6-6.8-30.1-.5-.7-.3-1.6.3-2.1.7-.5 1.6-.3 2.1.3 6.6 9.2 9.3 21.3 7.3 32.4 0 .8-.6 1.3-1.4 1.3z" fill="#b38d41"/></g><g><path d="m144.2 301.7c-2.9-7.7-9.2-14.1-16.8-17.1" fill="#ffc95c"/><path d="m144.2 303.2c-.6 0-1.2-.4-1.4-1-2.7-7.3-8.7-13.4-16-16.2-.8-.3-1.2-1.2-.9-2s1.2-1.2 2-.9c8.1 3.1 14.7 9.8 17.7 17.9.3.8-.1 1.7-.9 2-.1.2-.3.2-.5.2z" fill="#b38d41"/></g></g><g><path d="m134.8 256.5c-3.8-3.2-12.8 1.5-16.4 3.6" fill="#ffc95c"/><path d="m118.4 261.6c-.5 0-1-.3-1.3-.8-.4-.7-.2-1.7.5-2.1 4.9-2.9 13.8-7.1 18.2-3.4.6.5.7 1.5.2 2.1s-1.5.7-2.1.2c-2.1-1.8-7.7-.3-14.7 3.7-.3.3-.5.3-.8.3z" fill="#b38d41"/></g></g></g></g></g><g><g><g><path d="m286.5 293c3.7-9.8 11.7-14.6 20.3-21.6-5.1 3.1-17.2 3.5-18.7.9-2.8-5.3 3.4-13.2 10.8-17.5 7.4-4.2 8.1-3.9 16.4-5.8-6.2-.3-16.6-7-15-12.1 2.8-8.3 26.8-6.5 38.9.1-7.2-3.9-14-9-16.3-14.7-4.1-10 7.2-9.4 7.9-9.3 18.3 2.1 31.2 19.1 31 18.9-4.9-6.3-9.3-13.1-10.3-21.3-.4-3 .2-4.9 1.7-5.9 2.3-1.7 5-1.1 6.9-.3 7.1 3 15.1 11.3 19.3 18.3 4.3-7 12.2-15.3 19.3-18.3 1.9-.8 4.6-1.4 6.9.3 1.5 1.1 2.1 2.9 1.7 5.9-1 8.2-5.4 15-10.3 21.3-.2.2 12.7-16.8 31-18.9.7-.1 12-.7 7.9 9.3-2.3 5.6-9.1 10.8-16.3 14.7 12.1-6.6 36.1-8.4 38.9-.1 1.7 5.1-8.8 11.8-15 12.1 8.3 2 9 1.6 16.4 5.8s13.6 12.2 10.8 17.5c-1.5 2.6-13.6 2.2-18.7-.9 8.6 6.9 16.5 11.7 20.3 21.6.4 1 1.3 4.3.4 7-1.5 4.6-9.9 2.4-11.3 1.7-4.7-2.1-5.8-2-9.1-5.5 3.2 4.6 4.9 5.5 7.4 10.6 2.3 4.6 4.4 11.7 4.6 16.8.2 3.5-.4 8.8-3.7 9.9-3.5 1.2-6.3-1.4-8.8-4.1-3.4-3.6-4.5-5.4-6.9-10.5 2.3 7.3 2.4 18.4.8 29.9-.4 2.7-1.9 6.9-4.3 8.2-3.5 1.9-8.1.7-10.5-2.9-2.6-3.7-3.7-6.2-5.5-10.5.3 11.4-4.4 34-15.7 30.4-4.1-1.5-11.1-8.8-10.6-14.9-1.1 11.6-9.2 22.5-13.8 24.5-2 .9-4 1.9-5.8 1.7-1.9.2-3.8-.8-5.8-1.7-4.6-2-12.7-12.9-13.8-24.5.5 6.1-6.5 13.4-10.6 14.9-11.3 3.6-16-19.1-15.7-30.4-1.8 4.3-2.9 6.8-5.5 10.5-2.5 3.6-7.1 4.7-10.5 2.9-2.4-1.3-4-5.5-4.3-8.2-1.6-11.5-1.5-22.6.8-29.9-2.5 5.2-3.6 6.9-6.9 10.5-2.6 2.7-5.4 5.3-8.8 4.1-3.3-1.1-3.9-6.4-3.7-9.9.3-5.1 2.3-12.2 4.6-16.8 2.5-5 4.2-6 7.4-10.6-3.3 3.5-4.4 3.4-9.1 5.5-1.4.6-9.8 2.8-11.3-1.7-1.1-2.7-.2-6.1.2-7z" fill="#ffc95c"/><path d="m378.9 386.8c-1.8 0-3.5-.8-5.2-1.5l-.8-.4c-4.1-1.8-10.5-9.7-13.3-19.1-2.3 4.5-6.6 8.4-9.9 9.6-2.9.9-5.7.4-8.1-1.4-5.6-4.2-8.5-15.1-9.4-24.1-.8 1.6-1.7 3.1-3 5-2.9 4.2-8.3 5.6-12.5 3.3-3-1.6-4.7-6.5-5.1-9.3-1.1-8.1-1.4-15.5-.8-21.7-.8 1-1.6 2-2.7 3.1-2 2.2-5.7 6.2-10.4 4.5-4.9-1.7-4.9-9.2-4.7-11.4.3-5.1 2.3-12.5 4.8-17.4.8-1.6 1.5-2.8 2.2-3.8-.6.2-1.2.5-1.9.8-1.3.6-6.8 2.1-10.4.5-1.5-.6-2.5-1.7-2.9-3.2-1.2-3.7.4-7.8.4-8 2.9-7.7 8.2-12.4 14.4-17.2-3.6.5-7.3.4-9.6-.2-1.6-.4-2.6-1.1-3.1-2-3.3-6.2 3.4-14.9 11.4-19.5 5.3-3 7.4-3.8 10.9-4.6-3.6-1.6-7.2-4.2-9-6.8-1.7-2.5-1.6-4.4-1.1-5.6.7-2.2 2.6-3.9 5.4-5 5.7-2.2 15.1-2.1 23.8-.1-2.9-2.5-5.4-5.3-6.6-8.5-1.4-3.5-1.4-6.3.2-8.3 2.8-3.7 9.2-3.1 9.2-3.1 9.3 1 17.1 5.8 22.3 9.9-1.6-3.3-2.8-6.8-3.2-10.6-.4-3.5.3-5.9 2.3-7.3 2.3-1.7 5.2-1.9 8.4-.5 6.8 2.9 14.2 10.3 18.7 16.9 4.5-6.6 11.9-14 18.7-16.9 3.2-1.4 6.1-1.2 8.4.5 2 1.5 2.7 3.9 2.3 7.3-.5 3.8-1.7 7.3-3.2 10.6 5.2-4.1 13-8.8 22.3-9.9.1 0 6.5-.6 9.2 3.1 1.6 2.1 1.6 4.9.2 8.3-1.3 3.1-3.7 6-6.6 8.5 8.7-2 18.1-2.1 23.8.1 2.9 1.1 4.7 2.8 5.4 5 .4 1.2.5 3.2-1.1 5.6-1.8 2.6-5.3 5.2-9 6.8 3.6.9 5.6 1.6 10.9 4.6 8 4.6 14.7 13.3 11.4 19.5-.5.9-1.5 1.6-3.1 2-2.4.6-6.1.7-9.6.2 6.2 4.9 11.5 9.5 14.4 17.2.1.2 1.6 4.4.4 8-.5 1.4-1.5 2.5-2.9 3.2-3.6 1.6-9.2.1-10.4-.5-.7-.3-1.4-.6-1.9-.8.7 1 1.4 2.2 2.2 3.8 2.5 5 4.5 12.3 4.8 17.4.1 2.3.1 9.8-4.7 11.4-4.7 1.6-8.4-2.4-10.4-4.5-1.1-1.2-2-2.2-2.7-3.1.6 6.2.3 13.5-.8 21.7-.4 2.9-2.1 7.7-5.1 9.3-4.3 2.3-9.6.8-12.5-3.3-1.3-1.8-2.2-3.4-3-5-.9 9-3.8 19.9-9.4 24.1-2.4 1.8-5.2 2.3-8 1.4-3.3-1.2-7.6-5.1-10-9.6-2.8 9.4-9.2 17.3-13.3 19.1l-.8.4c-1.8.8-3.7 1.7-5.6 1.5-.7 0-.8 0-1 0zm.5-3h.2c1.2.1 2.7-.5 4.2-1.2l.8-.4c3.9-1.7 11.8-11.9 12.9-23.3.1-.8.8-1.4 1.6-1.4.8.1 1.4.8 1.4 1.6-.4 5.4 6.2 12.1 9.6 13.4 1.9.6 3.6.3 5.2-.9 5.8-4.4 8.7-19.1 8.5-28 0-.7.5-1.4 1.2-1.5.7-.2 1.4.2 1.7.9 1.9 4.4 2.9 6.7 5.3 10.2 2 2.9 5.7 3.9 8.6 2.4 1.7-.9 3.2-4.4 3.5-7.1 1.6-11.9 1.3-22.6-.8-29.2-.2-.8.1-1.6.9-1.9.7-.3 1.6 0 1.9.8 2.5 5.2 3.5 6.7 6.7 10.2 2.7 2.9 4.9 4.6 7.2 3.7 2.1-.7 2.9-4.9 2.7-8.4-.2-4.7-2.2-11.7-4.5-16.2-1.5-3.1-2.7-4.5-4.2-6.3-.9-1.1-1.9-2.3-3.1-4-.5-.7-.3-1.5.3-2s1.5-.4 2.1.1c2.3 2.5 3.4 2.9 5.9 4 .8.3 1.6.7 2.7 1.2 1 .5 5.6 1.6 8 .5.7-.3 1.1-.7 1.3-1.3.7-2.2 0-5.1-.4-6-3-7.8-8.8-12.4-15.6-17.6-1.4-1.1-2.8-2.1-4.2-3.3-.6-.5-.7-1.4-.3-2.1.5-.7 1.3-.8 2-.4 4.8 2.9 15.5 2.8 16.6 1.4 2.3-4.3-3.6-11.6-10.3-15.4-6-3.4-7.4-3.7-12.5-4.9-1-.2-2.1-.5-3.5-.8-.7-.2-1.2-.9-1.2-1.6.1-.8.7-1.3 1.4-1.4 4.1-.2 10.5-3.7 12.8-7.1.8-1.2 1-2.1.8-3-.4-1.3-1.7-2.3-3.6-3.1-7.5-2.9-23.7-1-32.9 3.9-.1 0-.1.1-.2.1-.7.4-1.7.1-2.1-.6s-.1-1.7.6-2.1c.1 0 .1-.1.2-.1 8.1-4.4 13.6-9.3 15.5-13.8 1-2.4 1.1-4.2.2-5.3-1.5-2-5.6-2-6.5-1.9-16.8 1.9-29 17-29.9 18.2 0 0 0 .1-.1.1-.4.5-1.2.7-1.8.5-.6-.3-1-.9-.9-1.6 0-.1.1-.4.3-.7 4.6-5.9 9-12.5 10-20.6.4-3-.4-4-1.1-4.5-1.4-1-3.2-1.1-5.4-.1-6.9 2.9-14.6 11.1-18.6 17.7-.3.5-.8.7-1.3.7s-1-.3-1.3-.7c-4-6.6-11.7-14.8-18.6-17.7-2.2-.9-4-.9-5.4.1-.7.5-1.5 1.5-1.1 4.5 1 8 5.4 14.6 10 20.6.2.3.3.5.3.7.1.7-.3 1.3-.9 1.6s-1.4.1-1.8-.5c0 0 0-.1-.1-.1-.9-1.2-13.1-16.3-29.9-18.2-.9-.1-5-.1-6.5 1.9-.9 1.1-.8 2.9.2 5.3 1.9 4.5 7.3 9.4 15.5 13.8.1 0 .1.1.2.1.7.4 1 1.3.6 2.1-.4.7-1.3 1-2.1.6-.1 0-.1-.1-.2-.1-9.2-4.9-25.4-6.9-32.9-3.9-2 .8-3.2 1.8-3.6 3.1-.3.8 0 1.8.8 3 2.3 3.4 8.7 6.9 12.8 7.1.8 0 1.4.6 1.4 1.4.1.8-.4 1.4-1.2 1.6-1.3.3-2.5.6-3.5.8-5.1 1.1-6.5 1.5-12.5 4.9-6.7 3.8-12.6 11.1-10.2 15.4 1.1 1.4 11.7 1.5 16.6-1.4.7-.4 1.6-.2 2 .4.5.7.3 1.5-.3 2.1-1.4 1.1-2.8 2.2-4.2 3.3-6.8 5.3-12.6 9.8-15.6 17.6-.4.9-1.1 3.8-.4 6 .2.6.6 1 1.3 1.3 2.4 1.1 6.9 0 8-.5 1-.5 1.9-.8 2.7-1.2 2.5-1.1 3.6-1.5 5.9-4 .5-.6 1.4-.6 2.1-.1.6.5.7 1.4.3 2-1.2 1.7-2.2 3-3.1 4-1.5 1.8-2.7 3.3-4.2 6.3-2.3 4.6-4.2 11.5-4.5 16.2-.2 3.5.6 7.7 2.7 8.4 2.4.8 4.5-.8 7.2-3.7 3.2-3.5 4.2-5 6.7-10.2.3-.7 1.2-1.1 1.9-.8s1.1 1.1.9 1.9c-2.1 6.6-2.4 17.3-.8 29.2.4 2.7 1.9 6.2 3.5 7.1 2.8 1.5 6.6.5 8.6-2.4 2.4-3.6 3.5-5.8 5.3-10.2.3-.7 1-1 1.7-.9.7.2 1.2.8 1.2 1.5-.2 8.9 2.6 23.7 8.5 28 1.6 1.2 3.4 1.5 5.3.9 3.4-1.3 10-7.9 9.6-13.4-.1-.8.5-1.6 1.4-1.6.8-.1 1.6.5 1.6 1.4 1.1 11.4 8.9 21.5 12.9 23.3l.8.4c1.6.7 3 1.4 4.2 1.2z" fill="#b38d41"/></g><g><g><g><g><path d="m405.9 343.3c2-10.8-.6-22.3-7-31.2" fill="#ffc95c"/><path d="m405.9 344.8c-.1 0-.2 0-.3 0-.8-.2-1.4-.9-1.2-1.8 1.9-10.3-.6-21.6-6.8-30.1-.5-.7-.3-1.6.3-2.1.7-.5 1.6-.3 2.1.3 6.6 9.2 9.3 21.3 7.3 32.4 0 .8-.7 1.3-1.4 1.3z" fill="#b38d41"/></g><g><path d="m428.4 301.7c-2.9-7.7-9.2-14.1-16.8-17.1" fill="#ffc95c"/><path d="m428.4 303.2c-.6 0-1.2-.4-1.4-1-2.7-7.3-8.7-13.4-16-16.2-.8-.3-1.2-1.2-.9-2s1.2-1.2 2-.9c8.1 3.1 14.7 9.8 17.7 17.9.3.8-.1 1.7-.9 2-.2.2-.3.2-.5.2z" fill="#b38d41"/></g></g><g><path d="m419 256.5c-3.8-3.2-12.8 1.5-16.4 3.6" fill="#ffc95c"/><path d="m402.6 261.6c-.5 0-1-.3-1.3-.8-.4-.7-.2-1.7.5-2.1 4.9-2.9 13.8-7.1 18.2-3.4.6.5.7 1.5.2 2.1s-1.5.7-2.1.2c-2.1-1.8-7.7-.3-14.7 3.7-.3.3-.6.3-.8.3z" fill="#b38d41"/></g></g><g><g><g><path d="m352.8 343.3c-2-10.8.6-22.3 7-31.2" fill="#ffc95c"/><path d="m352.8 344.8c-.7 0-1.4-.5-1.5-1.2-2.1-11.1.7-23.2 7.3-32.4.5-.7 1.4-.8 2.1-.3s.8 1.4.3 2.1c-6.1 8.5-8.7 19.7-6.8 30.1.2.8-.4 1.6-1.2 1.8 0-.1-.1-.1-.2-.1z" fill="#b38d41"/></g><g><path d="m330.4 301.7c2.9-7.7 9.2-14.1 16.8-17.1" fill="#ffc95c"/><path d="m330.4 303.2c-.2 0-.4 0-.5-.1-.8-.3-1.2-1.2-.9-2 3-8.1 9.7-14.8 17.7-17.9.8-.3 1.7.1 2 .9s-.1 1.7-.9 2c-7.3 2.8-13.2 8.9-16 16.2-.2.5-.8.9-1.4.9z" fill="#b38d41"/></g></g><g><path d="m339.7 256.5c3.8-3.2 12.8 1.5 16.4 3.6" fill="#ffc95c"/><path d="m356.2 261.6c-.3 0-.5-.1-.8-.2-7-4-12.6-5.5-14.7-3.7-.6.5-1.6.5-2.1-.2-.5-.6-.5-1.6.2-2.1 4.4-3.7 13.3.5 18.2 3.4.7.4 1 1.3.5 2.1-.3.4-.8.7-1.3.7z" fill="#b38d41"/></g></g></g></g></g></g><g><path d="m293.7 473.8c5.1.4 11 2.7 14.9 5.3 6.2 4.2 13.4 15.4 6.8 22.4-3 3.2-8.4 2.8-12 .3-.4 4-3.6 7.5-7.5 8.4-.7.2-1.4.2-2.2.2-.7 0-1.4-.1-2.2-.2-3.9-.9-7.1-4.4-7.5-8.4-3.6 2.4-9 2.9-12-.3-6.6-7 .6-18.2 6.8-22.4 3.9-2.6 9.7-4.9 14.9-5.3z" fill="#ffe600"/><path d="m293.4 512c-.7 0-1.5-.1-2.2-.2-3.8-.8-7-3.9-8.2-7.6-3.9 1.8-9 1.7-12.1-1.6-2.3-2.5-3.3-5.7-2.9-9.2.7-6.2 5.6-12.5 10-15.5 4.5-3 10.6-5.2 15.6-5.6h.2c5 .3 11.1 2.5 15.6 5.6 4.4 3 9.3 9.3 10 15.5.4 3.6-.6 6.7-2.9 9.2-3.1 3.3-8.1 3.4-12.1 1.6-1.2 3.7-4.4 6.7-8.2 7.6-.8.2-1.7.3-2.5.2-.1 0-.2 0-.3 0zm-9.4-11.7c.2 0 .4 0 .6.1.5.2.8.7.9 1.2.4 3.3 3.1 6.4 6.3 7.1.6.1 1.2.2 1.8.2.7 0 1.3 0 1.9-.2 3.3-.7 6-3.8 6.3-7.1.1-.5.4-1 .9-1.2s1-.2 1.5.1c2.9 2 7.6 2.5 10.1-.1 1.7-1.8 2.4-4.1 2.1-6.8-.6-5.2-4.9-10.8-8.7-13.3-3.3-2.2-8.9-4.7-14-5.1-5.1.4-10.7 2.8-14 5.1-3.8 2.5-8.1 8.1-8.7 13.3-.3 2.7.4 5 2.1 6.8 2.5 2.6 7.1 2.1 10.1.1.2-.1.5-.2.8-.2z" fill="#a69500"/></g><g><g><path d="m237.3 271.5c-23 0-41.7-17.7-41.7-39.3 0-.8.7-1.5 1.5-1.5s1.5.7 1.5 1.5c0 20 17.3 36.3 38.7 36.3 21.3 0 38.7-16.3 38.7-36.3 0-.8.7-1.5 1.5-1.5s1.5.7 1.5 1.5c0 21.6-18.7 39.3-41.7 39.3z"/><g><path d="m277.1 232.6c-2.4 0-4.8-.9-6.6-2.7-.6-.6-.6-1.6 0-2.1.6-.6 1.6-.6 2.1 0 2.5 2.5 6.8 2.4 9.5-.3.6-.6 1.6-.6 2.1 0 .6.6.6 1.6 0 2.1-1.9 2-4.6 3-7.1 3z"/><path d="m196.9 232.6c-2.5 0-4.8-.9-6.6-2.7-.6-.6-.6-1.6 0-2.1.6-.6 1.6-.6 2.1 0 1.2 1.2 2.9 1.8 4.6 1.8 1.8-.1 3.5-.8 4.9-2.1.6-.6 1.6-.6 2.1 0 .6.6.6 1.6 0 2.1-1.9 1.9-4.3 3-6.9 3 0 0-.1 0-.2 0z"/></g></g></g></g></g></svg>