<svg height="512" viewBox="0 0 60 60" width="512" xmlns="http://www.w3.org/2000/svg"><g id="Page-1" fill="none" fill-rule="evenodd"><g id="028---QR-Code" fill-rule="nonzero"><path id="Shape" d="m35 54c0 2.7614237-2.2385763 5-5 5h-24c-1.32608245 0-2.59785201-.5267842-3.53553391-1.4644661-.93768189-.9376819-1.46446609-2.2094515-1.46446609-3.5355339v-48c0-2.76142375 2.23857625-5 5-5h24c1.3260824 0 2.597852.5267842 3.5355339 1.46446609.9376819.9376819 1.4644661 2.20945146 1.4644661 3.53553391z" fill="#00bcd4"/><path id="Shape" d="m30 1h-3c1.3260824 0 2.597852.5267842 3.5355339 1.46446609.9376819.9376819 1.4644661 2.20945146 1.4644661 3.53553391v48c0 2.7614237-2.2385763 5-5 5h3c2.7614237 0 5-2.2385763 5-5v-48c0-1.32608245-.5267842-2.59785201-1.4644661-3.53553391-.9376819-.93768189-2.2094515-1.46446609-3.5355339-1.46446609z" fill="#00838f"/><path id="Shape" d="m29 1-2.447 4.894c-.3386882.67778095-1.0313083 1.10597427-1.789 1.106h-13.528c-.7576917-.00002573-1.45031181-.42821905-1.789-1.106l-2.447-4.894z" fill="#607d8b"/><path id="Shape" d="m21 24-11.474 6.12c-.3234232.1745653-.52502632.5124736-.52502632.88s.20160312.7054347.52502632.88l11.474 6.12v7c0 2.7614237 2.2385763 5 5 5h28c2.7614237 0 5-2.2385763 5-5v-28c0-2.7614237-2.2385763-5-5-5h-28c-2.7614237 0-5 2.2385763-5 5z" fill="#f5f5f5"/><path id="Shape" d="m54 12h-3c2.7614237 0 5 2.2385763 5 5v28c0 2.7614237-2.2385763 5-5 5h3c2.7614237 0 5-2.2385763 5-5v-28c0-1.3260824-.5267842-2.597852-1.4644661-3.5355339s-2.2094515-1.4644661-3.5355339-1.4644661z" fill="#cfd8dc"/><rect id="Rectangle-path" fill="#607d8b" height="9" rx="1" width="9" x="27" y="18"/><path id="Shape" d="m35 18h-3c.5522847 0 1 .4477153 1 1v7c0 .5522847-.4477153 1-1 1h3c.5522847 0 1-.4477153 1-1v-7c0-.5522847-.4477153-1-1-1z" fill="#37474f"/><rect id="Rectangle-path" fill="#607d8b" height="9" rx="1" width="9" x="44" y="18"/><path id="Shape" d="m52 18h-3c.5522847 0 1 .4477153 1 1v7c0 .5522847-.4477153 1-1 1h3c.5522847 0 1-.4477153 1-1v-7c0-.5522847-.4477153-1-1-1z" fill="#37474f"/><rect id="Rectangle-path" fill="#607d8b" height="9" rx="1" width="9" x="27" y="35"/><path id="Shape" d="m35 35h-3c.5522847 0 1 .4477153 1 1v7c0 .5522847-.4477153 1-1 1h3c.5522847 0 1-.4477153 1-1v-7c0-.5522847-.4477153-1-1-1z" fill="#37474f"/><g fill="#000"><path id="Shape" d="m6 60h24c3.3123376-.0033074 5.9966926-2.6876624 6-6 0-.5522847-.4477153-1-1-1s-1 .4477153-1 1c0 2.209139-1.790861 4-4 4h-24c-2.209139 0-4-1.790861-4-4v-48c0-2.209139 1.790861-4 4-4h.382l2.171 4.342c.50515289 1.01893035 1.5457301 1.66197063 2.683 1.658h13.528c1.1372699.00397063 2.1778471-.63906965 2.683-1.658l2.171-4.342h.382c2.209139 0 4 1.790861 4 4v2c0 .55228475.4477153 1 1 1s1-.44771525 1-1v-2c-.0033074-3.31233757-2.6876624-5.99669262-6-6h-24c-3.31233757.00330738-5.99669262 2.68766243-6 6v48c.00330738 3.3123376 2.68766243 5.9966926 6 6zm19.658-54.553c-.1692635.33872941-.5153343.55279778-.894.553h-13.528c-.3786657-.00020222-.7247365-.21427059-.894-.553l-1.724-3.447h18.764z"/><path id="Shape" d="m26 56c.5522847 0 1-.4477153 1-1s-.4477153-1-1-1h-16c-.55228475 0-1 .4477153-1 1s.44771525 1 1 1z"/><path id="Shape" d="m54 11h-28c-3.3123376.0033074-5.9966926 2.6876624-6 6v6.4l-10.947 5.839c-.64891476.3484814-1.05376747 1.0254339-1.05376747 1.762s.40485271 1.4135186 1.05376747 1.762l10.947 5.837v6.4c.0033074 3.3123376 2.6876624 5.9966926 6 6h28c3.3123376-.0033074 5.9966926-2.6876624 6-6v-28c-.0033074-3.3123376-2.6876624-5.9966926-6-6zm4 34c0 2.209139-1.790861 4-4 4h-28c-2.209139 0-4-1.790861-4-4v-7c-.0000492-.3690966-.2034076-.7081555-.529-.882l-11.471-6.118 11.474-6.12c.3237997-.1743063.525807-.5122652.526-.88v-7c0-2.209139 1.790861-4 4-4h28c2.209139 0 4 1.790861 4 4z"/><path id="Shape" d="m28 28h7c1.1045695 0 2-.8954305 2-2v-7c0-1.1045695-.8954305-2-2-2h-7c-1.1045695 0-2 .8954305-2 2v7c0 1.1045695.8954305 2 2 2zm0-9h7v7h-7z"/><path id="Shape" d="m52 17h-7c-1.1045695 0-2 .8954305-2 2v7c0 1.1045695.8954305 2 2 2h7c1.1045695 0 2-.8954305 2-2v-7c0-1.1045695-.8954305-2-2-2zm-7 9v-7h7v7z"/><path id="Shape" d="m35 34h-7c-1.1045695 0-2 .8954305-2 2v7c0 1.1045695.8954305 2 2 2h7c1.1045695 0 2-.8954305 2-2v-7c0-1.1045695-.8954305-2-2-2zm-7 9v-7h7v7z"/><path id="Shape" d="m27 32h13c.5522847 0 1-.4477153 1-1v-13c0-.5522847-.4477153-1-1-1s-1 .4477153-1 1v12h-12c-.5522847 0-1 .4477153-1 1s.4477153 1 1 1z"/><path id="Shape" d="m45 36v-5c0-.5522847-.4477153-1-1-1s-1 .4477153-1 1v4h-3c-.5522847 0-1 .4477153-1 1v7c0 .5522847.4477153 1 1 1s1-.4477153 1-1v-6h3c.5522847 0 1-.4477153 1-1z"/><path id="Shape" d="m52 39h-8c-.5522847 0-1 .4477153-1 1s.4477153 1 1 1h2v2c0 .5522847.4477153 1 1 1s1-.4477153 1-1v-2h3v2c0 .5522847.4477153 1 1 1s1-.4477153 1-1v-3c0-.5522847-.4477153-1-1-1z"/><path id="Shape" d="m53 32c.5522847 0 1-.4477153 1-1s-.4477153-1-1-1h-5c-.5522847 0-1 .4477153-1 1v5c0 .5522847.4477153 1 1 1h5c.5522847 0 1-.4477153 1-1s-.4477153-1-1-1h-4v-3z"/></g></g></g></svg>