<svg id="Quest" enable-background="new 0 0 64 64" height="512" viewBox="0 0 64 64" width="512" xmlns="http://www.w3.org/2000/svg"><path d="m19.52 24c.55 0 1-.45 1-1s-.45-1-1-1h-.01c-.55 0-1 .45-1 1s.46 1 1.01 1z"/><path d="m44.52 24c.55 0 1-.45 1-1s-.45-1-1-1h-.01c-.55 0-1 .45-1 1s.46 1 1.01 1z"/><path d="m19 34h26c.55 0 1-.45 1-1s-.45-1-1-1h-26c-.55 0-1 .45-1 1s.45 1 1 1z"/><path d="m19 40h26c.55 0 1-.45 1-1s-.45-1-1-1h-26c-.55 0-1 .45-1 1s.45 1 1 1z"/><path d="m19 46h26c.55 0 1-.45 1-1s-.45-1-1-1h-26c-.55 0-1 .45-1 1s.45 1 1 1z"/><path d="m25.77 27.21c.1.46.51.79.98.79h10.5c.47 0 .88-.33.98-.79l1.75-8c.08-.37-.05-.75-.35-.99s-.7-.29-1.04-.13l-3.59 1.64-2.15-3.28c-.37-.56-1.3-.56-1.67 0l-2.15 3.28-3.59-1.64c-.34-.16-.75-.11-1.04.13s-.43.62-.35.99zm3.19-5.3c.45.21.98.05 1.25-.36l1.79-2.73 1.79 2.73c.27.41.8.57 1.25.36l2.55-1.17-1.14 5.26h-8.89l-1.15-5.26z"/><path d="m60 54h-1.62c-.275-.779-.352-1.977-1.38-2h-3v-24.11c0-.84-.33-1.63-.92-2.22l-1.86-1.86c-.44-.44-.44-1.17 0-1.61l1.86-1.86c.59-.59.92-1.38.92-2.22v-6.12h3c1.028-.023 1.105-1.22 1.38-2h1.62c2.21 0 4-1.79 4-4s-1.79-4-4-4h-1.62c-.274-.785-.352-1.976-1.38-2h-8-6-23-6-7c-1.034.025-1.094 1.214-1.38 2h-1.62c-2.21 0-4 1.79-4 4s1.79 4 4 4h1.62c.285.786.346 1.976 1.38 2h3v6.11c0 .84.33 1.63.92 2.22l1.86 1.86c.21.22.33.5.33.81s-.12.59-.33.81l-1.86 1.86c-.59.59-.92 1.38-.92 2.22v24.11h-3c-1.034.024-1.094 1.214-1.38 2h-1.62c-2.21 0-4 1.79-4 4s1.79 4 4 4h1.62c.285.785.346 1.976 1.38 2h50c1.028-.023 1.105-1.22 1.38-2h1.62c2.21 0 4-1.79 4-4s-1.79-4-4-4zm0-50c1.1 0 2 .9 2 2s-.9 2-2 2h-1.19c.178-1.327.177-2.673 0-4zm-12-2v2c0 1.1-.9 2-2 2s-2-.9-2-2v-2zm-29 0v2c0 1.1-.9 2-2 2s-2-.9-2-2v-2zm-15 6c-1.1 0-2-.9-2-2s.9-2 2-2h1.19c-.055.67-.144 1.33-.14 2-.003.676.063 1.335.14 2zm3.36.78c-.508-2.228-.382-4.623.34-6.78h5.3v2c0 2.21 1.79 4 4 4s4-1.79 4-4v-2h21v2c0 2.21 1.79 4 4 4s4-1.79 4-4v-2h6.3c.12.38.23.78.33 1.22.415 1.817.415 3.738 0 5.56-.1.44-.21.84-.33 1.22h-3.3-42-3.3c-.12-.38-.23-.78-.34-1.22zm4.64 19.11c0-.3.12-.59.33-.81l1.86-1.86c.59-.59.92-1.38.92-2.22s-.33-1.63-.92-2.22l-1.86-1.86c-.22-.21-.33-.5-.33-.81v-6.11h40v6.11c0 .3-.12.59-.33.81l-1.86 1.86c-1.22 1.22-1.22 3.22 0 4.44l1.86 1.86c.22.22.33.5.33.81v24.11h-6-28-6zm7.58 26.11h24.84c-4.094 3.876-20.746 3.876-24.84 0zm-15.58 6c-1.1 0-2-.9-2-2s.9-2 2-2h1.19c-.176 1.318-.179 2.664 0 3.98h-1.19zm3.7 2c-.861-2.542-.873-5.457 0-7.99h3.3 6.18c.05.15.13.29.2.43.01.01.01.02.01.03 4.087 6.038 25.108 6.041 29.2 0 .01-.01.01-.02.01-.03.08-.14.15-.29.2-.43h6.2 3.3c.851 2.551.85 5.446 0 7.99zm52.3-2h-1.19c.177-1.328.177-2.671 0-4h1.19c1.1 0 2 .9 2 2s-.9 2-2 2z"/></svg>