<?xml version="1.0" encoding="UTF-8" standalone="no"?>
<!-- Created with Inkscape (http://www.inkscape.org/) -->

<svg
   version="1.1"
   id="svg3447"
   width="682.66669"
   height="682.66669"
   viewBox="0 0 682.66669 682.66669"
   xmlns="http://www.w3.org/2000/svg"
   xmlns:svg="http://www.w3.org/2000/svg">
  <defs
     id="defs3451">
    <clipPath
       clipPathUnits="userSpaceOnUse"
       id="clipPath3461">
      <path
         d="M 0,512 H 512 V 0 H 0 Z"
         id="path3459" />
    </clipPath>
  </defs>
  <g
     id="g3453"
     transform="matrix(1.3333333,0,0,-1.3333333,0,682.66667)">
    <g
       id="g3455">
      <g
         id="g3457"
         clip-path="url(#clipPath3461)">
        <g
           id="g3463"
           transform="translate(222.955,183.7159)">
          <path
             d="m 0,0 c 18.176,-19.312 47.917,-19.312 66.092,0.001 l 7.084,7.527 -9.718,3.764 c -2.376,0.919 -3.942,3.206 -3.942,5.754 V 36.63 c -7.339,-5.062 -16.224,-8.035 -25.794,-8.035 -10.016,0 -18.818,2.749 -26.017,7.349 V 17.268 C 7.705,14.586 6.058,12.18 3.557,11.21 L -6.779,7.203 Z"
             style="fill:#e59770;fill-opacity:1;fill-rule:nonzero;stroke:none"
             id="path3465" />
        </g>
        <g
           id="g3467"
           transform="translate(252.4258,183.7159)">
          <path
             d="m 0,0 c -3.24,3.442 -1.964,9.07 2.443,10.778 l 1.114,0.432 c 2.5,0.97 4.148,3.376 4.148,6.058 V 28.726 C 6.564,28.64 5.413,28.594 4.252,28.594 c -10.017,0 -18.818,2.75 -26.018,7.35 V 17.268 c 0,-2.682 -1.647,-5.088 -4.148,-6.058 L -36.25,7.203 -29.471,0 C -16.604,-13.671 2.058,-17.651 18.311,-11.965 11.605,-9.62 5.308,-5.64 0,0"
             style="fill:#d88a68;fill-opacity:1;fill-rule:nonzero;stroke:none"
             id="path3469" />
        </g>
        <g
           id="g3471"
           transform="translate(256.0166,369.4492)">
          <path
             d="m 0,0 c -34.24,0 -61.995,-27.755 -61.995,-61.996 v -24.97 c 4.142,3.841 11.424,5.928 17.179,5.159 v 3.09 c 0,2.455 2.096,4.395 4.528,4.211 23.969,-1.722 46.975,5.895 65.42,17.943 1.722,1.126 4.001,0.846 5.401,-0.658 15.768,-16.949 14.286,-16.294 14.286,-18.506 v -6.066 c 6.307,0.945 13.288,-1.004 17.176,-4.618 v 24.415 C 61.995,-27.755 34.24,0 0,0"
             style="fill:#5e6377;fill-opacity:1;fill-rule:nonzero;stroke:none"
             id="path3473" />
        </g>
        <g
           id="g3475"
           transform="translate(224.0215,307.4536)">
          <path
             d="m 0,0 c 0,29.066 20.005,53.45 46.995,60.158 -4.805,1.194 -9.826,1.838 -15,1.838 C -2.245,61.996 -30,34.24 -30,0 v -24.971 c 4.144,3.841 11.424,5.929 17.179,5.16 v 3.089 c 0,2.456 2.096,4.396 4.528,4.212 2.779,-0.2 5.544,-0.261 8.293,-0.218 z"
             style="fill:#52586d;fill-opacity:1;fill-rule:nonzero;stroke:none"
             id="path3477" />
        </g>
        <g
           id="g3479"
           transform="translate(301.5293,289.7359)">
          <path
             d="m 0,0 v -33.961 c 0,-0.368 -0.02,-0.732 -0.028,-1.099 12.018,-1.819 21.43,6.864 21.43,17.529 C 21.402,-6.845 11.981,1.796 0,0"
             style="fill:#e59770;fill-opacity:1;fill-rule:nonzero;stroke:none"
             id="path3481" />
        </g>
        <g
           id="g3483"
           transform="translate(210.5068,255.7749)">
          <path
             d="M 0,0 V 33.948 C -10.463,35.345 -21.403,27.315 -21.403,16.43 -21.403,5.779 -12.012,-2.92 0.026,-1.098 0.018,-0.732 0,-0.367 0,0"
             style="fill:#e59770;fill-opacity:1;fill-rule:nonzero;stroke:none"
             id="path3485" />
        </g>
        <g
           id="g3487"
           transform="translate(318.0293,284.4204)">
          <path
             d="m 0,0 c -3.899,4.058 -9.798,6.32 -16.5,5.315 v -33.961 c 0,-0.368 -0.02,-0.731 -0.028,-1.098 6.722,-1.018 12.628,1.252 16.528,5.315 z"
             style="fill:#d88a68;fill-opacity:1;fill-rule:nonzero;stroke:none"
             id="path3489" />
        </g>
        <g
           id="g3491"
           transform="translate(210.5068,259.9893)">
          <path
             d="m 0,0 c -3.075,3.203 -4.903,7.519 -4.903,12.215 0,4.55 1.915,8.596 4.903,11.668 v 5.85 c -10.463,1.397 -21.403,-6.632 -21.403,-17.518 0,-10.65 9.391,-19.349 21.429,-17.527 C 0.018,-4.946 0,-4.581 0,-4.214 Z"
             style="fill:#d88a68;fill-opacity:1;fill-rule:nonzero;stroke:none"
             id="path3493" />
        </g>
        <g
           id="g3495"
           transform="translate(286.5488,314.3081)">
          <path
             d="m 0,0 c -1.399,1.504 -3.679,1.784 -5.4,0.659 -18.445,-12.049 -42.838,-19.666 -66.808,-17.944 -2.431,0.184 -4.528,-1.756 -4.528,-4.211 v -37.037 c 0,-23.804 18.651,-45.545 46.864,-45.545 25.114,0 45.546,20.432 45.546,45.545 v 40.027 C 15.674,-16.293 15.769,-16.949 0,0"
             style="fill:#f0a479;fill-opacity:1;fill-rule:nonzero;stroke:none"
             id="path3497" />
        </g>
        <g
           id="g3499"
           transform="translate(239.8125,255.7749)">
          <path
             d="M 0,0 V 42.758 C -8.354,41.225 -16.937,40.635 -25.472,41.249 -27.902,41.433 -30,39.493 -30,37.037 V 0 c 0,-23.804 18.651,-45.545 46.864,-45.545 5.078,0 9.96,0.848 14.526,2.389 C 12.038,-36.894 0,-19.117 0,0"
             style="fill:#e59770;fill-opacity:1;fill-rule:nonzero;stroke:none"
             id="path3501" />
        </g>
        <g
           id="g3503"
           transform="translate(295.3701,191.5386)">
          <path
             d="M 0,0 -7.169,-7.618 C -24.87,-26.427 -53.836,-26.427 -71.538,-7.619 l -6.873,7.303 -54.758,-21.228 c 0,0 -5.564,-2.289 -11.479,-7.692 25.682,-29.628 63.591,-48.368 105.879,-48.368 42.288,0 80.198,18.74 105.879,48.368 -5.914,5.403 -11.479,7.692 -11.479,7.692 z"
             style="fill:#00c3ff;fill-opacity:1;fill-rule:nonzero;stroke:none"
             id="path3505" />
        </g>
        <g
           id="g3507"
           transform="translate(179.5888,161.8789)">
          <path
             d="M 0,0 17.771,21.746 -17.388,8.115 c 0,0 -5.564,-2.288 -11.479,-7.692 5.921,-6.83 12.499,-13.073 19.623,-18.651 C -4.235,-5.499 0,0 0,0"
             style="fill:#00aaf0;fill-opacity:1;fill-rule:nonzero;stroke:none"
             id="path3509" />
        </g>
        <g
           id="g3511"
           transform="translate(256.6015,115.9341)">
          <path
             d="m 0,0 c -77.356,0 -140.066,62.709 -140.066,140.066 0,77.356 62.71,140.066 140.066,140.066 77.356,0 140.065,-62.71 140.065,-140.066 C 140.065,62.709 77.356,0 0,0 m 232.678,191.28 h -33.113 c -3.37,0 -6.333,2.221 -7.285,5.454 -4.047,13.736 -9.536,26.849 -16.273,39.185 -1.618,2.962 -1.097,6.631 1.29,9.018 l 23.443,23.444 c 6.175,6.172 6.175,16.179 0,22.353 l -50.073,50.074 c -6.174,6.173 -16.182,6.173 -22.355,0 l -23.444,-23.444 c -2.387,-2.386 -6.055,-2.908 -9.017,-1.29 -12.336,6.738 -25.449,12.226 -39.183,16.272 -3.233,0.953 -5.454,3.915 -5.454,7.285 v 33.113 c 0,8.73 -7.077,15.806 -15.807,15.806 h -70.815 c -8.731,0 -15.807,-7.076 -15.807,-15.806 v -33.112 c 0,-3.371 -2.221,-6.333 -5.454,-7.285 -13.736,-4.047 -26.849,-9.536 -39.185,-16.274 -2.962,-1.618 -6.631,-1.096 -9.018,1.29 l -23.442,23.445 c -6.172,6.173 -16.181,6.173 -22.354,0 l -50.074,-50.074 c -6.174,-6.174 -6.174,-16.181 0,-22.354 l 23.443,-23.444 c 2.386,-2.387 2.907,-6.056 1.29,-9.018 -6.737,-12.335 -12.227,-25.448 -16.273,-39.184 -0.952,-3.233 -3.914,-5.454 -7.285,-5.454 h -33.111 c -8.73,0 -15.806,-7.076 -15.806,-15.806 v -70.816 c 0,-8.729 7.076,-15.806 15.806,-15.806 h 33.111 c 3.371,0 6.333,-2.221 7.285,-5.455 4.046,-13.735 9.536,-26.847 16.273,-39.183 1.617,-2.962 1.096,-6.631 -1.29,-9.018 l -23.443,-23.444 c -6.174,-6.173 -6.174,-16.18 0,-22.355 l 50.074,-50.073 c 6.173,-6.173 16.182,-6.173 22.354,0 l 23.442,23.445 c 2.387,2.386 6.056,2.908 9.018,1.29 12.336,-6.738 25.449,-12.227 39.185,-16.273 3.233,-0.953 5.454,-3.915 5.454,-7.286 v -33.111 c 0,-8.73 7.077,-15.807 15.808,-15.807 h 70.813 c 8.731,0 15.808,7.077 15.808,15.807 V -59.5 c 0,3.371 2.221,6.333 5.454,7.286 13.734,4.046 26.847,9.535 39.183,16.272 2.962,1.618 6.63,1.096 9.017,-1.29 l 23.444,-23.444 c 6.173,-6.173 16.181,-6.173 22.355,0 l 50.073,50.073 c 6.175,6.175 6.175,16.182 0,22.355 l -23.443,23.444 c -2.387,2.387 -2.908,6.056 -1.29,9.018 6.737,12.336 12.226,25.449 16.273,39.184 0.952,3.233 3.915,5.454 7.285,5.454 h 33.113 c 8.729,0 15.806,7.077 15.806,15.806 v 70.816 c 0,8.73 -7.077,15.806 -15.806,15.806"
             style="fill:#e4eaf8;fill-opacity:1;fill-rule:nonzero;stroke:none"
             id="path3513" />
        </g>
        <g
           id="g3515"
           transform="translate(79.3027,360.8697)">
          <path
             d="m 0,0 c 2.386,-2.387 2.907,-6.056 1.29,-9.018 -6.737,-12.335 -12.228,-25.448 -16.273,-39.183 -0.953,-3.233 -3.914,-5.454 -7.286,-5.454 h 30 c 3.372,0 6.333,2.221 7.286,5.454 4.045,13.735 9.536,26.848 16.273,39.183 C 32.907,-6.056 32.386,-2.387 30,0 L 6.557,23.444 c -6.174,6.173 -6.174,16.181 0,22.355 l 46.25,46.25 -3.823,3.823 c -6.171,6.174 -16.18,6.174 -22.353,0.001 L -23.443,45.799 c -6.174,-6.174 -6.174,-16.182 0,-22.355 z"
             style="fill:#d8dce5;fill-opacity:1;fill-rule:nonzero;stroke:none"
             id="path3517" />
        </g>
        <g
           id="g3519"
           transform="translate(38.1172,220.5923)">
          <path
             d="m 0,0 v 70.815 c 0,8.73 7.076,15.807 15.807,15.807 h -30 C -22.924,86.622 -30,79.545 -30,70.815 V 0 c 0,-8.729 7.076,-15.807 15.807,-15.807 h 30 C 7.076,-15.807 0,-8.729 0,0"
             style="fill:#d8dce5;fill-opacity:1;fill-rule:nonzero;stroke:none"
             id="path3521" />
        </g>
        <g
           id="g3523"
           transform="translate(85.8593,105.3316)">
          <path
             d="m 0,0 c -6.174,6.174 -6.174,16.182 0,22.355 l 23.443,23.444 c 2.386,2.387 2.908,6.055 1.29,9.017 C 17.996,67.152 12.506,80.265 8.46,94 7.508,97.233 4.546,99.454 1.175,99.454 h -30 c 3.371,0 6.333,-2.221 7.285,-5.454 4.046,-13.735 9.536,-26.848 16.273,-39.184 1.618,-2.962 1.096,-6.63 -1.29,-9.017 L -30,22.355 C -36.174,16.182 -36.174,6.174 -30,0 l 50.074,-50.074 c 6.173,-6.173 16.182,-6.173 22.354,10e-4 l 3.822,3.823 z"
             style="fill:#d8dce5;fill-opacity:1;fill-rule:nonzero;stroke:none"
             id="path3525" />
        </g>
        <g
           id="g3527"
           transform="translate(221.1933,504.4844)">
          <path
             d="m 0,0 c -8.73,0 -15.807,-7.077 -15.807,-15.806 v -33.112 c 0,-2.917 -1.667,-5.522 -4.209,-6.79 3.677,1.417 15.062,5.453 28.003,6.525 3.513,0.291 6.206,3.246 6.206,6.771 v 26.606 C 14.193,-7.077 21.27,0 30,0 Z"
             style="fill:#d8dce5;fill-opacity:1;fill-rule:nonzero;stroke:none"
             id="path3529" />
        </g>
        <g
           id="g3531"
           transform="translate(235.3867,23.3233)">
          <path
             d="m 0,0 v 24.262 c 0,4.775 -3.622,8.798 -8.377,9.24 -12.481,1.163 -21.767,4.61 -25.397,6.143 2.29,-1.34 3.774,-3.792 3.774,-6.534 V 0 c 0,-8.73 7.077,-15.808 15.808,-15.808 h 30 C 7.077,-15.808 0,-8.73 0,0"
             style="fill:#d8dce5;fill-opacity:1;fill-rule:nonzero;stroke:none"
             id="path3533" />
        </g>
        <g
           id="g3535"
           transform="translate(285.9843,314.5074)">
          <path
             d="m 0,0 c -1.401,1.505 -3.685,1.786 -5.408,0.659 -18.466,-12.063 -42.889,-19.689 -66.888,-17.965 -2.433,0.184 -4.533,-1.757 -4.533,-4.216 v -37.082 c 0,-23.833 18.674,-45.6 46.92,-45.6 25.144,0 45.6,20.456 45.6,45.6 v 40.075 C 15.691,-16.313 15.787,-16.97 0,0 Z"
             style="fill:none;stroke:#000000;stroke-width:15;stroke-linecap:round;stroke-linejoin:round;stroke-miterlimit:10;stroke-dasharray:none;stroke-opacity:1"
             id="path3537" />
        </g>
        <g
           id="g3539"
           transform="translate(301.6758,289.9053)">
          <path
             d="m 0,0 v -34.002 c 0,-0.369 -0.019,-0.733 -0.027,-1.1 12.032,-1.822 21.456,6.872 21.456,17.55 C 21.429,-6.854 11.997,1.798 0,0 Z"
             style="fill:none;stroke:#000000;stroke-width:15;stroke-linecap:round;stroke-linejoin:round;stroke-miterlimit:10;stroke-dasharray:none;stroke-opacity:1"
             id="path3541" />
        </g>
        <g
           id="g3543"
           transform="translate(209.1552,255.9029)">
          <path
             d="m 0,0 v 33.989 c -10.476,1.399 -21.429,-6.64 -21.429,-17.539 0,-10.663 9.403,-19.373 21.455,-17.549 C 0.018,-0.732 0,-0.367 0,0 Z"
             style="fill:none;stroke:#000000;stroke-width:15;stroke-linecap:round;stroke-linejoin:round;stroke-miterlimit:10;stroke-dasharray:none;stroke-opacity:1"
             id="path3545" />
        </g>
        <g
           id="g3547"
           transform="translate(255.414,369.7149)">
          <path
             d="m 0,0 c -34.281,0 -62.07,-27.789 -62.07,-62.07 v -22.919 c 4.148,3.846 10.049,5.936 15.811,5.166 v 3.093 c 0,2.459 2.1,4.401 4.533,4.217 23.999,-1.724 48.422,5.902 66.888,17.965 1.725,1.126 4.007,0.846 5.408,-0.66 15.787,-16.969 15.692,-16.313 15.692,-18.528 v -6.074 c 6.315,0.947 11.917,-1.005 15.808,-4.623 V -62.07 C 62.07,-27.789 34.282,0 0,0 Z"
             style="fill:none;stroke:#000000;stroke-width:15;stroke-linecap:round;stroke-linejoin:round;stroke-miterlimit:10;stroke-dasharray:none;stroke-opacity:1"
             id="path3549" />
        </g>
        <g
           id="g3551"
           transform="translate(256,115.9341)">
          <path
             d="m 0,0 c -77.356,0 -140.066,62.709 -140.066,140.066 0,77.356 62.71,140.066 140.066,140.066 77.356,0 140.066,-62.71 140.066,-140.066 C 140.066,62.709 77.356,0 0,0 Z"
             style="fill:none;stroke:#000000;stroke-width:15;stroke-linecap:round;stroke-linejoin:round;stroke-miterlimit:10;stroke-dasharray:none;stroke-opacity:1"
             id="path3553" />
        </g>
        <g
           id="g3555"
           transform="translate(285.8476,195.062)">
          <path
             d="m 0,0 c -2.379,0.921 -3.947,3.21 -3.947,5.762 v 17.525 c -7.348,-5.069 -16.243,-8.046 -25.824,-8.046 -10.029,0 -18.841,2.754 -26.049,7.359 V 5.983 c 0,-2.685 -1.65,-5.094 -4.154,-6.065 l -64.388,-24.961 c 0,0 -4.924,-2.028 -10.434,-6.766 25.662,-29.017 63.165,-47.319 104.948,-47.319 41.784,0 79.286,18.302 104.949,47.319 -5.51,4.738 -10.435,6.766 -10.435,6.766 z"
             style="fill:none;stroke:#000000;stroke-width:15;stroke-linecap:round;stroke-linejoin:round;stroke-miterlimit:10;stroke-dasharray:none;stroke-opacity:1"
             id="path3557" />
        </g>
        <g
           id="g3559"
           transform="translate(294.8154,191.5889)">
          <path
             d="M 0,0 -7.178,-7.626 C -24.9,-26.458 -53.901,-26.459 -71.624,-7.627 l -6.882,7.311 -54.824,-21.254 c 0,0 -4.924,-2.028 -10.434,-6.765 25.662,-29.018 63.165,-47.32 104.949,-47.32 41.783,0 79.285,18.302 104.948,47.319 -5.51,4.738 -10.435,6.766 -10.435,6.766 z"
             style="fill:none;stroke:#000000;stroke-width:15;stroke-linecap:round;stroke-linejoin:round;stroke-miterlimit:10;stroke-dasharray:none;stroke-opacity:1"
             id="path3561" />
        </g>
        <g
           id="g3563"
           transform="translate(504.4843,273.5)">
          <path
             d="m 0,0 v 17.908 c 0,8.73 -7.077,15.806 -15.806,15.806 h -33.113 c -3.37,0 -6.333,2.221 -7.285,5.454 -4.047,13.736 -9.536,26.849 -16.274,39.186 -1.617,2.961 -1.095,6.63 1.29,9.017 l 23.444,23.444 c 6.175,6.172 6.175,16.179 0,22.353 l -50.073,50.074 c -6.174,6.174 -16.182,6.174 -22.354,0 l -23.445,-23.444 c -2.386,-2.386 -6.055,-2.908 -9.018,-1.29 -12.336,6.738 -25.447,12.226 -39.182,16.272 -3.234,0.953 -5.455,3.915 -5.455,7.285 v 33.113 c 0,8.73 -7.077,15.806 -15.806,15.806 h -18.493"
             style="fill:none;stroke:#000000;stroke-width:15;stroke-linecap:round;stroke-linejoin:round;stroke-miterlimit:10;stroke-dasharray:none;stroke-opacity:1"
             id="path3565" />
        </g>
        <g
           id="g3567"
           transform="translate(237.914,504.4844)">
          <path
             d="m 0,0 h -17.322 c -8.73,0 -15.807,-7.077 -15.807,-15.806 v -33.112 c 0,-3.371 -2.221,-6.333 -5.454,-7.286 -13.736,-4.046 -26.849,-9.535 -39.186,-16.273 -2.961,-1.618 -6.63,-1.097 -9.017,1.29 l -23.443,23.444 c -6.171,6.174 -16.18,6.174 -22.353,0.001 l -50.073,-50.074 c -6.175,-6.174 -6.175,-16.182 0,-22.354 l 23.442,-23.445 c 2.386,-2.386 2.907,-6.055 1.29,-9.017 -6.737,-12.336 -12.227,-25.449 -16.273,-39.184 -0.951,-3.233 -3.914,-5.454 -7.285,-5.454 h -33.111 c -8.729,0 -15.806,-7.077 -15.806,-15.807 v -70.815 c 0,-8.73 7.077,-15.807 15.806,-15.807 h 33.111 c 3.371,0 6.334,-2.22 7.285,-5.454 4.046,-13.735 9.536,-26.847 16.273,-39.183 1.617,-2.962 1.096,-6.631 -1.29,-9.018 l -23.442,-23.444 c -6.175,-6.173 -6.175,-16.181 0,-22.355 l 50.073,-50.074 c 6.173,-6.172 16.182,-6.172 22.353,10e-4 l 23.443,23.444 c 2.387,2.387 6.056,2.908 9.017,1.29 12.337,-6.737 25.45,-12.227 39.186,-16.273 3.233,-0.952 5.454,-3.915 5.454,-7.285 v -33.111 c 0,-8.731 7.077,-15.808 15.808,-15.808 h 70.813 c 8.731,0 15.808,7.077 15.808,15.808 v 33.111 c 0,3.371 2.221,6.333 5.454,7.285 13.734,4.047 26.847,9.536 39.183,16.273 2.962,1.617 6.63,1.096 9.017,-1.29 l 23.445,-23.445 c 6.172,-6.172 16.18,-6.172 22.354,0 l 50.073,50.074 c 6.175,6.174 6.175,16.182 0,22.355 l -23.443,23.444 c -2.386,2.387 -2.907,6.056 -1.29,9.018 6.737,12.336 12.226,25.448 16.273,39.184 0.952,3.233 3.915,5.453 7.285,5.453 h 33.114 c 8.728,0 15.805,7.077 15.805,15.807 v 17.908"
             style="fill:none;stroke:#000000;stroke-width:15;stroke-linecap:round;stroke-linejoin:round;stroke-miterlimit:10;stroke-dasharray:none;stroke-opacity:1"
             id="path3569" />
        </g>
      </g>
    </g>
  </g>
</svg>
