<?xml version="1.0" encoding="UTF-8" standalone="no"?>
<!-- Created with Inkscape (http://www.inkscape.org/) -->
<svg xmlns="http://www.w3.org/2000/svg" xmlns:svg="http://www.w3.org/2000/svg" version="1.1" id="svg1881" width="682.66669" height="682.66669" viewBox="0 0 682.66669 682.66669">
  <defs id="defs1885">
    <clipPath clipPathUnits="userSpaceOnUse" id="clipPath1895">
      <path d="M 0,512 H 512 V 0 H 0 Z" id="path1893"/>
    </clipPath>
  </defs>
  <mask id="custom"><rect id="bg" x="0" y="0" width="100%" height="100%" fill="white"/><g transform="matrix(1.3333333,0,0,-1.3333333,0,682.66667)"/></mask><g mask="url(#custom)"><g id="g1887" transform="matrix(1.3333333,0,0,-1.3333333,0,682.66667)">
    <g id="g1889">
      <g id="g1891" clip-path="url(#clipPath1895)">
        <g id="g1897" transform="translate(285.9843,314.5074)">
          <path d="m 0,0 c -1.401,1.505 -3.685,1.786 -5.408,0.659 -18.466,-12.063 -42.889,-19.689 -66.888,-17.965 -2.433,0.184 -4.533,-1.757 -4.533,-4.216 v -37.082 c 0,-23.833 18.674,-45.6 46.92,-45.6 25.144,0 45.6,20.456 45.6,45.6 v 40.075 C 15.691,-16.313 15.787,-16.97 0,0 Z" style="fill:none;stroke:#000000;stroke-width:15;stroke-linecap:round;stroke-linejoin:round;stroke-miterlimit:10;stroke-dasharray:none;stroke-opacity:1" id="path1899"/>
        </g>
        <g id="g1901" transform="translate(301.6758,289.9053)">
          <path d="m 0,0 v -34.002 c 0,-0.369 -0.019,-0.733 -0.027,-1.1 12.032,-1.822 21.456,6.872 21.456,17.55 C 21.429,-6.854 11.997,1.798 0,0 Z" style="fill:none;stroke:#000000;stroke-width:15;stroke-linecap:round;stroke-linejoin:round;stroke-miterlimit:10;stroke-dasharray:none;stroke-opacity:1" id="path1903"/>
        </g>
        <g id="g1905" transform="translate(209.1552,255.9029)">
          <path d="m 0,0 v 33.989 c -10.476,1.399 -21.429,-6.64 -21.429,-17.539 0,-10.663 9.403,-19.373 21.455,-17.549 C 0.018,-0.732 0,-0.367 0,0 Z" style="fill:none;stroke:#000000;stroke-width:15;stroke-linecap:round;stroke-linejoin:round;stroke-miterlimit:10;stroke-dasharray:none;stroke-opacity:1" id="path1907"/>
        </g>
        <g id="g1909" transform="translate(255.414,369.7149)">
          <path d="m 0,0 c -34.281,0 -62.07,-27.789 -62.07,-62.07 v -22.919 c 4.148,3.846 10.049,5.936 15.811,5.166 v 3.093 c 0,2.459 2.1,4.401 4.533,4.217 23.999,-1.724 48.422,5.902 66.888,17.965 1.725,1.126 4.007,0.846 5.408,-0.66 15.787,-16.969 15.692,-16.313 15.692,-18.528 v -6.074 c 6.315,0.947 11.917,-1.005 15.808,-4.623 V -62.07 C 62.07,-27.789 34.282,0 0,0 Z" style="fill:none;stroke:#000000;stroke-width:15;stroke-linecap:round;stroke-linejoin:round;stroke-miterlimit:10;stroke-dasharray:none;stroke-opacity:1" id="path1911"/>
        </g>
        <g id="g1913" transform="translate(256,115.9341)">
          <path d="m 0,0 c -77.356,0 -140.066,62.709 -140.066,140.066 0,77.356 62.71,140.066 140.066,140.066 77.356,0 140.066,-62.71 140.066,-140.066 C 140.066,62.709 77.356,0 0,0 Z" style="fill:none;stroke:#000000;stroke-width:15;stroke-linecap:round;stroke-linejoin:round;stroke-miterlimit:10;stroke-dasharray:none;stroke-opacity:1" id="path1915"/>
        </g>
        <g id="g1917" transform="translate(285.8476,195.062)">
          <path d="m 0,0 c -2.379,0.921 -3.947,3.21 -3.947,5.762 v 17.525 c -7.348,-5.069 -16.243,-8.046 -25.824,-8.046 -10.029,0 -18.841,2.754 -26.049,7.359 V 5.983 c 0,-2.685 -1.65,-5.094 -4.154,-6.065 l -64.388,-24.961 c 0,0 -4.924,-2.028 -10.434,-6.766 25.662,-29.017 63.165,-47.319 104.948,-47.319 41.784,0 79.286,18.302 104.949,47.319 -5.51,4.738 -10.435,6.766 -10.435,6.766 z" style="fill:none;stroke:#000000;stroke-width:15;stroke-linecap:round;stroke-linejoin:round;stroke-miterlimit:10;stroke-dasharray:none;stroke-opacity:1" id="path1919"/>
        </g>
        <g id="g1921" transform="translate(294.8154,191.5889)">
          <path d="M 0,0 -7.178,-7.626 C -24.9,-26.458 -53.901,-26.459 -71.624,-7.627 l -6.882,7.311 -54.824,-21.254 c 0,0 -4.924,-2.028 -10.434,-6.765 25.662,-29.018 63.165,-47.32 104.949,-47.32 41.783,0 79.285,18.302 104.948,47.319 -5.51,4.738 -10.435,6.766 -10.435,6.766 z" style="fill:none;stroke:#000000;stroke-width:15;stroke-linecap:round;stroke-linejoin:round;stroke-miterlimit:10;stroke-dasharray:none;stroke-opacity:1" id="path1923"/>
        </g>
        <g id="g1925" transform="translate(504.4843,273.5)">
          <path d="m 0,0 v 17.908 c 0,8.73 -7.077,15.806 -15.806,15.806 h -33.113 c -3.37,0 -6.333,2.221 -7.285,5.454 -4.047,13.736 -9.536,26.849 -16.274,39.186 -1.617,2.961 -1.095,6.63 1.29,9.017 l 23.444,23.444 c 6.175,6.172 6.175,16.179 0,22.353 l -50.073,50.074 c -6.174,6.174 -16.182,6.174 -22.354,0 l -23.445,-23.444 c -2.386,-2.386 -6.055,-2.908 -9.018,-1.29 -12.336,6.738 -25.447,12.226 -39.182,16.272 -3.234,0.953 -5.455,3.915 -5.455,7.285 v 33.113 c 0,8.73 -7.077,15.806 -15.806,15.806 h -18.493" style="fill:none;stroke:#000000;stroke-width:15;stroke-linecap:round;stroke-linejoin:round;stroke-miterlimit:10;stroke-dasharray:none;stroke-opacity:1" id="path1927"/>
        </g>
        <g id="g1929" transform="translate(237.914,504.4844)">
          <path d="m 0,0 h -17.322 c -8.73,0 -15.807,-7.077 -15.807,-15.806 v -33.112 c 0,-3.371 -2.221,-6.333 -5.454,-7.286 -13.736,-4.046 -26.849,-9.535 -39.186,-16.273 -2.961,-1.618 -6.63,-1.097 -9.017,1.29 l -23.443,23.444 c -6.171,6.174 -16.18,6.174 -22.353,0.001 l -50.073,-50.074 c -6.175,-6.174 -6.175,-16.182 0,-22.354 l 23.442,-23.445 c 2.386,-2.386 2.907,-6.055 1.29,-9.017 -6.737,-12.336 -12.227,-25.449 -16.273,-39.184 -0.951,-3.233 -3.914,-5.454 -7.285,-5.454 h -33.111 c -8.729,0 -15.806,-7.077 -15.806,-15.807 v -70.815 c 0,-8.73 7.077,-15.807 15.806,-15.807 h 33.111 c 3.371,0 6.334,-2.22 7.285,-5.454 4.046,-13.735 9.536,-26.847 16.273,-39.183 1.617,-2.962 1.096,-6.631 -1.29,-9.018 l -23.442,-23.444 c -6.175,-6.173 -6.175,-16.181 0,-22.355 l 50.073,-50.074 c 6.173,-6.172 16.182,-6.172 22.353,10e-4 l 23.443,23.444 c 2.387,2.387 6.056,2.908 9.017,1.29 12.337,-6.737 25.45,-12.227 39.186,-16.273 3.233,-0.952 5.454,-3.915 5.454,-7.285 v -33.111 c 0,-8.731 7.077,-15.808 15.808,-15.808 h 70.813 c 8.731,0 15.808,7.077 15.808,15.808 v 33.111 c 0,3.371 2.221,6.333 5.454,7.285 13.734,4.047 26.847,9.536 39.183,16.273 2.962,1.617 6.63,1.096 9.017,-1.29 l 23.445,-23.445 c 6.172,-6.172 16.18,-6.172 22.354,0 l 50.073,50.074 c 6.175,6.174 6.175,16.182 0,22.355 l -23.443,23.444 c -2.386,2.387 -2.907,6.056 -1.29,9.018 6.737,12.336 12.226,25.448 16.273,39.184 0.952,3.233 3.915,5.453 7.285,5.453 h 33.114 c 8.728,0 15.805,7.077 15.805,15.807 v 17.908" style="fill:none;stroke:#000000;stroke-width:15;stroke-linecap:round;stroke-linejoin:round;stroke-miterlimit:10;stroke-dasharray:none;stroke-opacity:1" id="path1931"/>
        </g>
      </g>
    </g>
  </g></g>
</svg>
