<svg height="512" viewBox="0 0 60 60" width="512" xmlns="http://www.w3.org/2000/svg"><g id="Colour"><g fill="#3c7a84"><path d="m27 4h6v6h-6z"/><path d="m10.332 18.57-1.89-1.889a1.5 1.5 0 0 1 0-2.129l2.11-2.11a1.5 1.5 0 0 1 2.129 0l1.889 1.89z"/><path d="m45.43 14.332 1.889-1.89a1.5 1.5 0 0 1 2.129 0l2.11 2.11a1.5 1.5 0 0 1 0 2.129l-1.89 1.889z"/></g><circle cx="30" cy="34" fill="#4c97a8" r="25"/><circle cx="30" cy="34" fill="#fff" r="21"/><rect fill="#4c97a8" height="4" rx="1" width="10" x="25" y="1"/><path d="m33.94 33.3a4.049 4.049 0 0 1 .06.7 4 4 0 1 1 -4-4z" fill="#c4ddf0"/><path d="m48.21 23.54-14.68 10.04a2.255 2.255 0 0 1 -3.53-1.86v-18.72a20.977 20.977 0 0 1 18.21 10.54z" fill="#e3cb5b"/></g><g id="icons" fill="#373737"><path d="m30 12a21.87 21.87 0 0 0 -12.572 3.944 1 1 0 0 0 1.144 1.64 19.842 19.842 0 0 1 10.428-3.546v15.062a5 5 0 1 0 6 4.9c0-.069-.015-.134-.017-.2l12.856-8.793a19.987 19.987 0 1 1 -31.839-5.293 1 1 0 0 0 -1.4-1.428 22 22 0 1 0 15.4-6.286zm0 25a2.993 2.993 0 0 1 -1-5.816v.536a3.259 3.259 0 0 0 3.256 3.258 3.289 3.289 0 0 0 .585-.06 2.993 2.993 0 0 1 -2.841 2.082zm2.964-4.244a1.265 1.265 0 0 1 -1.964-1.036v-17.669a19.978 19.978 0 0 1 15.845 9.211z"/><path d="m30 60a25.982 25.982 0 0 0 20.982-41.33l1.283-1.282a2.5 2.5 0 0 0 0-3.543l-2.11-2.11a2.509 2.509 0 0 0 -3.543 0l-1.282 1.283a25.871 25.871 0 0 0 -11.33-4.71v-2.308a2 2 0 0 0 2-2v-2a2 2 0 0 0 -2-2h-8a2 2 0 0 0 -2 2v2a2 2 0 0 0 2 2v2.308a25.871 25.871 0 0 0 -11.33 4.71l-1.282-1.283a2.51 2.51 0 0 0 -3.543 0l-2.11 2.109a2.5 2.5 0 0 0 0 3.544l1.283 1.282a25.982 25.982 0 0 0 20.982 41.33zm0-2a24 24 0 1 1 24-24 24.028 24.028 0 0 1 -24 24zm18.026-44.851a.5.5 0 0 1 .715 0l2.11 2.11a.5.5 0 0 1 0 .715l-1.122 1.126a26.245 26.245 0 0 0 -2.824-2.825zm-22.026-11.149h8v2h-8zm2 4h4v2.085c-.661-.051-1.326-.085-2-.085s-1.339.034-2 .085zm-18.851 9.974a.5.5 0 0 1 0-.715l2.11-2.11a.5.5 0 0 1 .715 0l1.126 1.121a26.245 26.245 0 0 0 -2.829 2.83z"/><path d="m21.134 20.644a1 1 0 0 0 1.732-1l-.5-.867a1 1 0 0 0 -1.732 1z"/><path d="m14.411 25a1 1 0 0 0 .366 1.366l.867.5a1 1 0 1 0 1-1.732l-.867-.5a1 1 0 0 0 -1.366.366z"/><path d="m15 34a1 1 0 0 0 -1-1h-1a1 1 0 0 0 0 2h1a1 1 0 0 0 1-1z"/><path d="m15.278 43.5a.992.992 0 0 0 .5-.134l.867-.5a1 1 0 1 0 -1-1.732l-.867.5a1 1 0 0 0 .5 1.866z"/><path d="m21 49.589a1 1 0 0 0 1.366-.366l.5-.867a1 1 0 0 0 -1.732-1l-.5.867a1 1 0 0 0 .366 1.366z"/><path d="m31 51v-1a1 1 0 0 0 -2 0v1a1 1 0 0 0 2 0z"/><path d="m38.5 49.723a1 1 0 0 0 .865-1.5l-.5-.867a1 1 0 1 0 -1.732 1l.5.867a1 1 0 0 0 .867.5z"/><path d="m42.99 41.5a1 1 0 0 0 .366 1.366l.867.5a.992.992 0 0 0 .5.134 1 1 0 0 0 .5-1.866l-.867-.5a1 1 0 0 0 -1.366.366z"/><path d="m46 35h1a1 1 0 0 0 0-2h-1a1 1 0 0 0 0 2z"/></g></svg>