<svg height="512" viewBox="0 0 426.9 512" width="512" xmlns="http://www.w3.org/2000/svg"><g id="Layer_6"><g><g><g><path d="m337.7 419.4c-3.2 0-5.8 2.6-5.8 5.8 0 7-5.7 12.6-12.6 12.6h-41.6v11.5h41.6c13.3 0 24.2-10.8 24.2-24.2 0-3.1-2.6-5.7-5.8-5.7z" fill="#fff"/><path d="m319.4 451.6h-41.6c-1.3 0-2.3-1-2.3-2.3v-11.5c0-1.3 1-2.3 2.3-2.3h41.6c5.7 0 10.4-4.6 10.4-10.4 0-2.1.8-4.2 2.3-5.7s3.5-2.4 5.7-2.4 4.2.8 5.7 2.4c1.5 1.5 2.3 3.5 2.3 5.7 0 7-2.7 13.7-7.7 18.7s-11.7 7.8-18.7 7.8zm-39.4-4.6h39.3c5.8 0 11.3-2.3 15.5-6.4 4.1-4.1 6.4-9.6 6.4-15.5 0-.9-.4-1.8-1-2.5-1.3-1.3-3.6-1.3-5 0-.7.7-1 1.5-1 2.5 0 8.2-6.7 14.9-14.9 14.9h-39.3z" fill="#b3b3b3"/></g><g><path d="m348.2 390.1c-1.9-1.3-3.2-2.4-4.8-4.2-1.9-2.1-4.2-4.7-6.4-4.7s-4.5 2.6-6.4 4.7c-1.6 1.8-3 3-4.8 4.2-8.1 5.6-9 17.4-5.3 24.6 2.8 5.3 7 8.5 11.6 9.8h10.5c4.7-1.3 8.1-4.5 10.9-9.8 3.7-7.1 2.8-19-5.3-24.6z"/><path d="m342.6 426.8h-10.5c-.2 0-.4 0-.6-.1-5.4-1.5-10-5.4-13-10.9-4.3-8.3-3-21.3 6-27.5 1.7-1.2 2.9-2.2 4.4-3.9 2.2-2.4 4.8-5.4 8-5.4h.1c3.2 0 5.8 3 8 5.4 1.5 1.7 2.7 2.8 4.4 3.9 8.9 6.2 10.3 19.2 6 27.5-3.2 6.1-7.1 9.6-12.3 10.9-.1.1-.3.1-.5.1zm-10.1-4.6h9.8c3.8-1.1 6.7-3.8 9.2-8.6 3.4-6.4 2.3-16.9-4.5-21.7-2-1.4-3.5-2.7-5.2-4.6-1.3-1.4-3.5-3.9-4.7-3.9-1.2 0-3.5 2.5-4.7 3.9-1.8 2-3.3 3.3-5.3 4.6-6.9 4.7-7.9 15.2-4.5 21.7 2.3 4.4 5.8 7.4 9.9 8.6z"/></g></g><path id="XMLID_127_" d="m322.2 498c0 7.7-42.8 14-95.6 14s-95.6-6.3-95.6-14 42.8-14 95.6-14 95.6 6.2 95.6 14z" fill="#231f20" opacity=".3"/><g><path d="m184.5 450.4c-4.5 2.4-8.8 8.5-8.7 12.4.1 2.9 1.1 5.6 2.7 6.5l3.1 2.3c5.5 5.3 7.6 13.1 3.7 19.8-2.2 3.8-5.9 6.4-9.9 7.6-3.4 1-8.7 1.1-12.3-.3-11.7-4.6-24.2-19.4-27.3-31.6s3.1-27.7 12.9-37.5c2.8-2.8 4.4-4.8 8.4-6.6" fill="#fff"/><path d="m169.4 502c-2.5 0-5.1-.3-7.2-1.2-12.2-4.8-25.3-20-28.6-33.2-3.1-12.3 2.4-28.6 13.5-39.7.4-.4.8-.8 1.2-1.2 2.2-2.2 4-4.2 7.8-5.9 1.1-.5 2.5 0 3 1.1s0 2.5-1.1 3c-3 1.3-4.4 2.7-6.4 4.9-.4.4-.8.8-1.2 1.3-9.8 9.8-15 24.7-12.3 35.4 3 11.8 15.1 25.8 25.9 30.1 3 1.2 7.9 1 10.8.2 3.7-1 6.7-3.3 8.5-6.5 3.1-5.4 1.9-12-3.2-17l-2.9-2.2c-2.6-1.6-3.6-5.3-3.7-8.4-.1-4.7 4.6-11.6 9.9-14.4 1.1-.6 2.5-.2 3.1.9s.2 2.5-.9 3.1c-4 2.2-7.6 7.6-7.5 10.3.1 2.5.9 4.3 1.5 4.6.1.1.2.1.3.2l3.1 2.3.2.2c6.6 6.3 8.2 15.4 4.1 22.6-2.4 4.2-6.4 7.3-11.2 8.6-1.9.6-4.3.9-6.7.9z" fill="#b3b3b3"/></g><g><path d="m146.3 423.1c5.1 14.9 18.3 30 38.5 30h82.3c15.7 0 29.9-9.8 35-24.7 0-.1.1-.2.1-.3 4.1-12.1 6-23.1 4.9-36.2-2-22.1-12.4-39.6-27.9-57.9-12.7-15-25.2-32.6-28.6-54.4h-58.4c-3.4 21.8-15.8 39.4-28.6 54.4-15.5 18.3-19.1 35.8-21.1 57.9-1.1 13.1 3.7 31.1 3.8 31.2z" fill="#fff"/><path d="m267.1 455.4h-82.3c-22.1 0-35.7-17-40.7-31.5-.1-.2-5.1-18.5-3.8-32.2 2.1-23.8 6.3-41.1 21.6-59.1 12-14.1 24.7-31.5 28.1-53.3.2-1.1 1.1-1.9 2.2-1.9h58.4c1.1 0 2.1.8 2.2 1.9 3.4 21.8 16.1 39.1 28.1 53.3 18.1 21.4 26.6 39.1 28.4 59.1 1.1 12.3-.4 23.4-5 37.1l-.1.3c-5.3 15.7-20.3 26.3-37.1 26.3zm-118.7-32.9c4.5 13.1 16.7 28.4 36.4 28.4h82.3c14.9 0 28.1-9.3 32.9-23.2l.1-.3c4.4-13.1 5.8-23.6 4.8-35.3-1.7-19.1-9.9-36-27.4-56.6-12.1-14.2-24.8-31.6-28.8-53.6h-54.5c-4 22-16.7 39.4-28.8 53.6-14.5 17.1-18.5 33.7-20.6 56.6-1.1 12.4 3.4 29.4 3.6 30.4z" fill="#b3b3b3"/></g><g><g><path d="m176.2 499.1c2.1-.8 4.1-2 5.9-3.7 6.4-6.3 6.5-16.5.2-22.9-.1-.1-.1-.2-.2-.2l-22.9 22.9c4.5 4.7 11.2 6 17 3.9z" fill="#ccc"/><path d="m170.7 502.3c-4.9 0-9.7-1.9-13.2-5.5-.9-.9-.9-2.3 0-3.2l22.9-22.9c.4-.4 1-.7 1.6-.7.6 0 1.2.2 1.6.7l.1.1c3.5 3.6 5.4 8.3 5.4 13.2s-2 9.5-5.5 13c-1.9 1.9-4.2 3.3-6.7 4.2-2 .8-4.1 1.1-6.2 1.1zm-8.2-7.2c3.7 2.7 8.6 3.5 12.9 1.9 1.9-.7 3.6-1.7 5.1-3.2 2.7-2.6 4.1-6.1 4.2-9.8 0-3-.9-6-2.7-8.4z" fill="#808080"/></g><g><path d="m176.6 490.7 5.1 5.1" fill="#ccc"/><path d="m181.7 498.1c-.6 0-1.2-.2-1.6-.7l-5-5c-.9-.9-.9-2.3 0-3.2s2.3-.9 3.2 0l5 5c.9.9.9 2.3 0 3.2-.5.4-1.1.7-1.6.7z" fill="#808080"/></g></g><path d="m124 496.5c-.5 0-.9-.2-1.1-.7-14.3-26-25.4-53.8-33-82.6-.2-.7.2-1.4.9-1.6s1.4.2 1.6.9c7.5 28.5 18.5 56.1 32.7 82 .3.6.1 1.4-.5 1.8-.2.2-.4.2-.6.2z" fill="#808080"/><path d="m94.9 474.4c-.5 0-.9-.2-1.1-.7-2.8-5-9-19.3-12.2-29.3-.2-.7.2-1.4.8-1.6.7-.2 1.4.2 1.6.8 3 9.5 9.3 23.9 12 28.8.3.6.1 1.4-.5 1.8-.2.1-.4.2-.6.2z" fill="#808080"/><g><circle cx="190.8" cy="392.3" fill="#fff" r="36.7"/><path d="m190.8 431.2c-21.5 0-38.9-17.5-38.9-38.9s17.5-38.9 38.9-38.9 38.9 17.5 38.9 38.9-17.4 38.9-38.9 38.9zm0-73.3c-19 0-34.4 15.4-34.4 34.4s15.4 34.4 34.4 34.4 34.4-15.4 34.4-34.4-15.4-34.4-34.4-34.4z" fill="#b3b3b3"/></g><g><path d="m265.6 437.3c-4.9-1.5-12.2-.2-14.9 2.6-2 2.1-3.2 4.7-2.7 6.5l.2 3.7c-.5 8.6-3.5 14.5-11.5 16.5-4.3 1.1-8.3.6-12-1.4-3.1-1.7-7-5.4-8.5-8.9-5-11.6-3.4-30.8 3.1-41.6s21.8-17.4 35.7-17.4c4 0 6.5-.3 10.6 1.2" fill="#fff"/><path d="m232.3 469.4c-3.1 0-6-.8-8.7-2.3-3.4-1.9-7.7-5.9-9.4-9.9-5.2-12-3.8-32 3.2-43.7 6.5-10.9 22-18.5 37.6-18.5h1.7c3.1 0 5.8-.1 9.7 1.4 1.2.4 1.8 1.8 1.3 2.9-.4 1.2-1.8 1.8-2.9 1.3-3.1-1.2-5-1.1-8-1.1-.6 0-1.2 0-1.8 0-13.9 0-28.1 6.9-33.7 16.3-6.2 10.4-7.6 28.9-2.9 39.6 1.3 3 4.8 6.3 7.5 7.8 3.1 1.7 6.6 2.1 10.3 1.2 6.3-1.6 9.3-5.9 9.8-14.3l-.2-3.4c-.7-2.9 1.3-6.2 3.3-8.4 3.3-3.4 11.5-5 17.2-3.2 1.2.4 1.9 1.6 1.5 2.8s-1.6 1.9-2.8 1.5c-4.4-1.3-10.7 0-12.6 2-1.7 1.8-2.4 3.7-2.2 4.3 0 .2.1.3.1.5l.2 3.7v.3c-.6 10.4-4.9 16.5-13.2 18.6-1.7.4-3.4.6-5 .6z" fill="#b3b3b3"/></g><g><g><path d="m224.8 465.7c2.1 1 4.3 1.5 6.8 1.5 8.9.1 16.3-7.1 16.3-16 0-.1 0-.2 0-.3h-32.4c0 6.5 3.8 12.2 9.3 14.8z" fill="#ccc"/><path d="m231.7 469.5c-.1 0-.1 0-.2 0-2.7 0-5.3-.6-7.7-1.8-6.5-3.1-10.6-9.7-10.6-16.9 0-1.2 1-2.2 2.3-2.2h32.4c.6 0 1.2.2 1.6.7.4.4.7 1 .7 1.6v.2c0 5-2 9.6-5.5 13.1s-8.1 5.3-13 5.3zm-5.9-5.8c1.8.9 3.8 1.3 5.8 1.3h.1c3.7 0 7.1-1.4 9.7-4 2.2-2.1 3.6-4.9 4-7.8h-27.4c.7 4.5 3.6 8.5 7.8 10.5z" fill="#808080"/></g><g><path d="m231.1 469.5c-1.3 0-2.3-1-2.3-2.3v-7.1c0-1.3 1-2.3 2.3-2.3s2.3 1 2.3 2.3v7.1c-.1 1.3-1.1 2.3-2.3 2.3z" fill="#808080"/></g></g><g><path d="m158 345c-11 .3-34.2-.1-37.9-.1-8.9-.1-16.1-7.4-16-16.3 0-2.4.6-4.7 1.5-6.8 2.6-5.5 8.3-9.3 14.8-9.3 3.8 0 58.6.4 68.8.1" fill="#fff"/><path d="m146.4 347.4c-8.7 0-18.4-.1-23.5-.2h-2.8c-10.2-.1-18.4-8.5-18.3-18.6 0-2.7.6-5.3 1.8-7.7 3.1-6.5 9.7-10.6 16.9-10.6 3.6 0 58.6.4 68.8.1 1.3-.1 2.3 1 2.3 2.2 0 1.3-1 2.3-2.2 2.3-10.4.3-65.2-.1-68.9-.1h-.1c-5.4 0-10.3 3.1-12.6 8-.9 1.8-1.3 3.8-1.3 5.8-.1 7.7 6.1 14 13.8 14.1h2.8c7.7.1 25.7.3 35 .1h.1c1.2 0 2.2 1 2.3 2.2 0 1.3-1 2.3-2.2 2.3-3.4.1-7.5.1-11.9.1z" fill="#b3b3b3"/></g><g><g><path d="m105.6 335.7c-1-2.1-1.5-4.3-1.5-6.8-.1-8.9 7.1-16.3 16-16.3h.3v32.4c-6.5 0-12.2-3.8-14.8-9.3z" fill="#ccc"/><path d="m120.3 347.2c-7.1 0-13.6-4.1-16.7-10.6-1.1-2.4-1.7-5-1.8-7.7 0-4.9 1.8-9.6 5.3-13.1s8.1-5.5 13-5.5h.3c1.3 0 2.3 1 2.3 2.3v32.4c0 1.2-1 2.3-2.2 2.3-.1-.1-.2-.1-.2-.1zm-2.2-32.2c-3 .4-5.7 1.8-7.8 4-2.6 2.7-4 6.2-4 9.9 0 2 .5 4 1.3 5.8 2 4.2 6 7.1 10.5 7.8z" fill="#808080"/></g><g><path d="m111.2 329.4h-7.1" fill="#ccc"/><path d="m111.2 331.7h-7.1c-1.3 0-2.3-1-2.3-2.3s1-2.3 2.3-2.3h7.1c1.3 0 2.3 1 2.3 2.3s-1 2.3-2.3 2.3z" fill="#808080"/></g></g><g><g><g><ellipse cx="130.2" cy="51.5" fill="#fee370" rx="19.1" ry="52.7" transform="matrix(.924 -.383 .383 .924 -9.811 53.737)"/><path d="m147.5 103.1c-11.1 0-26.3-17.4-37.1-43.4-5.5-13.3-8.8-26.5-9.3-37.4-.5-11.6 2.3-19.3 7.9-21.6 5.7-2.3 13.1 1.1 20.9 9.7 7.3 8 14.4 19.7 19.9 33 5.5 13.3 8.8 26.5 9.3 37.4.5 11.6-2.3 19.3-7.9 21.6-1.2.4-2.4.7-3.7.7zm-34.7-98.6c-.7 0-1.4.1-2 .4-3.7 1.5-5.6 8-5.2 17.2.5 10.3 3.6 23 8.9 35.8 11.4 27.5 27.5 43.2 34.8 40.2 3.6-1.5 5.6-8 5.2-17.2-.5-10.3-3.6-23-8.9-35.8s-12-24-19-31.7c-5.1-5.7-10.1-8.9-13.8-8.9z" fill="#ad9b4c"/></g><g><ellipse cx="296.7" cy="51.5" fill="#fee370" rx="52.7" ry="19.1" transform="matrix(.383 -.924 .924 .383 135.558 305.937)"/><path d="m279.4 103.1c-1.3 0-2.5-.2-3.7-.7-5.7-2.3-8.5-10-7.9-21.6.5-10.8 3.8-24.1 9.3-37.4 5.5-13.2 12.5-25 19.9-33 7.8-8.6 15.3-12 20.9-9.7 5.7 2.3 8.5 10 7.9 21.6-.5 10.8-3.8 24.1-9.3 37.4-10.8 25.9-26 43.4-37.1 43.4zm1.8-58c-5.3 12.8-8.5 25.5-8.9 35.8-.4 9.3 1.5 15.7 5.2 17.2 7.3 3 23.5-12.7 34.8-40.2 5.3-12.8 8.5-25.5 8.9-35.8.4-9.3-1.5-15.7-5.2-17.2s-9.6 1.7-15.8 8.5c-7 7.7-13.7 18.9-19 31.7z" fill="#ad9b4c"/></g></g><g><g><path d="m76.8 144.1h-22.1c-29 0-52.4-23.5-52.4-52.4v-6.1c0-4.6 3.7-8.3 8.3-8.3h88.3c4.6 0 8.3 3.7 8.3 8.3v28.1c0 16.8-13.6 30.4-30.4 30.4z" fill="#fff"/><path d="m54.8 146.4c-30.2 0-54.8-24.6-54.8-54.8 0-9.2 7.5-16.6 16.7-16.6h76.2c9.2 0 16.7 7.5 16.7 16.7-.1 30.1-24.7 54.7-54.8 54.7zm-38.1-66.9c-6.7 0-12.1 5.4-12.1 12.1 0 27.7 22.5 50.2 50.2 50.2s50.2-22.5 50.2-50.2c0-6.7-5.4-12.1-12.1-12.1z" fill="#b3b3b3"/></g><g><path d="m350.1 144.1h24.3c27.7 0 50.2-22.5 50.2-50.2v-8.3c0-4.6-3.7-8.3-8.3-8.3h-88.3c-4.6 0-8.3 3.7-8.3 8.3v28.1c-.1 16.8 13.6 30.4 30.4 30.4z" fill="#fff"/><path d="m372.1 146.4c-30.2 0-54.8-24.6-54.8-54.8 0-9.2 7.5-16.7 16.7-16.7h76.2c9.2 0 16.7 7.5 16.7 16.7 0 30.2-24.6 54.8-54.8 54.8zm-38-66.9c-6.7 0-12.1 5.4-12.1 12.1 0 27.7 22.5 50.2 50.2 50.2s50.2-22.5 50.2-50.2c0-6.7-5.4-12.1-12.1-12.1z" fill="#b3b3b3"/></g></g><g><path d="m53.8 218.4v-27.5c0-88.2 71.5-159.6 159.6-159.6 88.2 0 159.6 71.5 159.6 159.6v27.5c8.9 11.4 14.3 25.7 14.3 41.3 0 37-30 66.9-66.9 66.9h-37-140-37c-37 0-66.9-30-66.9-66.9 0-15.6 5.4-30 14.3-41.3z" fill="#fff"/><path d="m373.1 218.4v-27.5c0-88.2-71.5-159.6-159.6-159.6v27.5c-.1 88.1 71.4 159.6 159.6 159.6z"/><path d="m320.4 328.9h-214c-38.2 0-69.2-31-69.2-69.2 0-15.4 4.9-29.9 14.3-42.1v-26.7c0-89.3 72.6-161.9 161.9-161.9s161.9 72.6 161.9 161.9v26.7c9.3 12.2 14.3 26.7 14.3 42.1 0 38.1-31 69.2-69.2 69.2zm-107-295.4c-86.8 0-157.4 70.6-157.4 157.4v27.5c0 .5-.2 1-.5 1.4-9 11.5-13.8 25.3-13.8 39.9 0 35.7 29 64.7 64.7 64.7h214c35.7 0 64.7-29 64.7-64.7 0-14.6-4.8-28.4-13.8-39.9-.3-.4-.5-.9-.5-1.4v-27.5c0-86.8-70.6-157.4-157.4-157.4z" fill="#b3b3b3"/></g><g><g><circle cx="82.1" cy="261.5" fill="#ffe0e0" r="34.1"/><ellipse cx="82.1" cy="236.1" fill="#fff" rx="8.3" ry="4.3"/></g><g><circle cx="344.8" cy="261.5" fill="#ffe0e0" r="34.1"/><ellipse cx="344.8" cy="236.1" fill="#fff" rx="8.3" ry="4.3"/></g></g><g><ellipse cx="213.4" cy="259.8" fill="#ffe0e0" rx="76.5" ry="59.4"/><g><g><circle cx="189.6" cy="223.5" fill="#a88888" r="8.5"/><path d="m189.6 234.2c-5.9 0-10.7-4.8-10.7-10.7s4.8-10.7 10.7-10.7 10.7 4.8 10.7 10.7c.1 5.9-4.7 10.7-10.7 10.7zm0-17c-3.4 0-6.2 2.8-6.2 6.2s2.8 6.2 6.2 6.2 6.2-2.8 6.2-6.2-2.7-6.2-6.2-6.2z" fill="#6e5959"/></g><g><circle cx="237.2" cy="223.5" fill="#a88888" r="8.5"/><path d="m237.2 234.2c-5.9 0-10.7-4.8-10.7-10.7s4.8-10.7 10.7-10.7 10.7 4.8 10.7 10.7c.1 5.9-4.7 10.7-10.7 10.7zm0-17c-3.4 0-6.2 2.8-6.2 6.2s2.8 6.2 6.2 6.2 6.2-2.8 6.2-6.2-2.7-6.2-6.2-6.2z" fill="#6e5959"/></g></g></g></g><path d="m214.6 285c-3.8 0-7.4-.6-10.1-1.8-1.1-.5-1.7-1.8-1.2-3s1.8-1.7 3-1.2c2.1.9 5.1 1.4 8.3 1.4s6.2-.5 8.3-1.4c1.1-.5 2.5 0 3 1.2.5 1.1 0 2.5-1.2 3-2.7 1.2-6.3 1.8-10.1 1.8z"/><g><path d="m98.6 212.8c0 14.9 12 26.9 26.9 26.9s26.9-12 26.9-26.9-12.1-26.9-26.9-26.9c-14.9 0-27 12-26.9 26.9z" fill="#fff"/></g><circle cx="125.5" cy="212.8" r="14"/><circle cx="125.5" cy="202.1" fill="#fff" r="2.1"/><g><path d="m276.9 212.8c0 14.9 12 26.9 26.9 26.9s26.9-12 26.9-26.9-12.1-26.9-26.9-26.9c-14.9 0-27 12-26.9 26.9z" fill="#fff"/></g><circle cx="303.8" cy="212.8" r="14"/><circle cx="303.8" cy="202.2" fill="#fff" r="2.1"/><g><path id="XMLID_00000128445399955135333640000009556579056096662970_" d="m424.3 200.4c-8.5-4.1-13.8-9.7-13.8-15.8 0-6.2 5.3-11.7 13.8-15.8-9.4-.5-16.5-3.7-18.8-9.4-2.4-5.7.4-12.9 6.7-19.9-8.9 3.1-16.6 2.9-21-1.4-4.4-4.4-4.5-12-1.4-21-7.1 6.3-14.2 9.1-19.9 6.7s-8.8-9.4-9.3-18.8" fill="#fddc0d"/><path d="m424.3 202.4c-.3 0-.6-.1-.9-.2-9.6-4.7-15-10.9-15-17.7 0-5.3 3.3-10.4 9.5-14.6-7.3-1.5-12.4-4.9-14.4-9.8s-.9-10.9 3.2-17.1c-7.3 1.4-13.3.2-17.1-3.6s-5-9.7-3.6-17.1c-6.2 4.1-12.2 5.3-17.1 3.2-6.2-2.6-10-9.9-10.6-20.6-.1-1.1.8-2.1 1.9-2.1 1.1-.1 2.1.8 2.1 1.9.5 9 3.4 15.1 8.1 17 4.7 2 11-.3 17.8-6.3.7-.6 1.7-.7 2.5-.2s1.1 1.5.8 2.4c-3 8.6-2.6 15.3.9 18.9 3.6 3.6 10.3 3.9 18.8 1 .9-.3 1.8 0 2.4.8.5.8.4 1.8-.2 2.5-6 6.8-8.3 13.1-6.3 17.8 1.9 4.7 8 7.6 17 8.1.9.1 1.7.7 1.9 1.6s-.3 1.8-1.1 2.2c-8.2 3.9-12.7 8.9-12.7 14s4.5 10.1 12.7 14c1 .5 1.4 1.7.9 2.7 0 .8-.8 1.2-1.5 1.2z" fill="#808080"/></g><g><path d="m237.7 319c0 9.3-7.5 16.9-16.9 16.9h-10.2c-9.3 0-16.9-7.5-16.9-16.9v-57.5c0-9.3 7.5-16.9 16.9-16.9h10.2c9.3 0 16.9 7.5 16.9 16.9z" fill="#997272"/><path d="m220.9 338.1h-10.2c-10.5 0-19.1-8.6-19.1-19.1v-57.5c0-10.5 8.6-19.1 19.1-19.1h10.2c10.5 0 19.1 8.6 19.1 19.1v57.5c0 10.5-8.6 19.1-19.1 19.1zm-10.2-91.3c-8 0-14.6 6.5-14.6 14.6v57.6c0 8 6.5 14.6 14.6 14.6h10.2c8 0 14.6-6.5 14.6-14.6v-57.5c0-8-6.5-14.6-14.6-14.6h-10.2z" fill="#4f3b3b"/></g><g><path d="m204 305c-.8 1.8-3.3 11.8 11.6 11.8s13-7.9 11.6-11.8c-1.6-3.3-4.2-4.7-6.5-4.7-2.1 0-4 .6-5.1 2.5-1-1.9-3-2.5-5.1-2.5-2.3 0-4.9 1.5-6.5 4.7z" fill="#feaebe"/><path d="m215.6 319.1c-6.4 0-10.8-1.7-13-5.2-2.4-3.6-1.5-8-.7-9.8 0 0 0 0 0-.1 1.8-3.7 5-6 8.5-6 2 0 3.8.5 5.1 1.5 1.3-1 3-1.5 5.1-1.5 3.5 0 6.8 2.3 8.5 6 0 .1.1.2.1.2.6 1.8 2.3 6.4-.4 10.2-2 3.2-6.4 4.7-13.2 4.7zm-9.5-13.1c-.3.7-1 3.4.3 5.5 1.3 2 4.5 3.1 9.2 3.1 5 0 8.4-.9 9.6-2.7 1.2-1.6.6-4-.1-6-1.2-2.5-3.1-3.3-4.4-3.3-2.1 0-2.8.7-3.1 1.4-.4.7-1.2 1.2-2 1.2s-1.6-.5-2-1.2c-.5-.9-1.6-1.4-3.1-1.4-1.3 0-3.2.8-4.4 3.4z" fill="#8c6069"/></g><g><path d="m253.3 348.2c1.5-4.9.2-12.2-2.6-14.9-2.1-2-4.7-3.2-6.5-2.7h-4.2c-6.6.4-14.3-2.9-16.3-10.9-1.1-4.3-.4-8.7 1.7-12.3 1.7-3.1 5.4-7 8.9-8.5 11.6-5 30.8-3.4 41.6 3.1s17.4 21.8 17.4 35.7c0 5.3 1 13-.6 17.1" fill="#fff"/><path d="m292.8 357c-.3 0-.5 0-.8-.2-1.2-.4-1.8-1.8-1.3-2.9 1-2.5.8-7.3.6-11.4-.1-1.7-.2-3.4-.2-4.8 0-13.9-6.9-28.1-16.3-33.7-10.4-6.2-28.9-7.6-39.6-2.9-3 1.3-6.3 4.8-7.8 7.5-1.8 3.3-2.3 7-1.4 10.7 1.7 6.8 8.2 9.5 14 9.1h4c2.9-.6 6.2 1.3 8.3 3.4 3.4 3.3 5 11.5 3.2 17.2-.4 1.2-1.6 1.9-2.8 1.5s-1.9-1.6-1.5-2.8c1.3-4.4 0-10.7-2-12.6-1.8-1.7-3.7-2.4-4.3-2.2-.2.1-.4.1-.6.1h-4.2c-7.2.4-16.2-3.4-18.5-12.6-1.2-4.8-.5-9.7 1.9-14 1.9-3.4 5.9-7.7 9.9-9.4 12-5.2 32-3.8 43.7 3.2 10.9 6.5 18.5 22 18.5 37.6 0 1.4.1 3 .1 4.6.2 4.8.5 9.8-.9 13.3-.2.7-1.1 1.3-2 1.3z" fill="#b3b3b3"/></g><g><g><path d="m222.7 321.1c-1-2.1-1.5-4.3-1.5-6.8-.1-8.9 7.1-16.3 16-16.3h.3v32.4c-6.6.1-12.2-3.7-14.8-9.3z" fill="#ccc"/><path d="m237.3 332.7c-7.1 0-13.7-4.1-16.7-10.6-1.1-2.4-1.7-5-1.8-7.7 0-4.9 1.8-9.6 5.3-13.1s8.1-5.5 13-5.5h.3c.6 0 1.2.2 1.6.7.4.4.7 1 .7 1.6v32.4c0 1.2-1 2.3-2.2 2.3-.1-.1-.1-.1-.2-.1zm-12.6-12.5c2 4.2 6 7.1 10.5 7.8v-27.5c-3 .4-5.7 1.8-7.8 4-2.6 2.7-4 6.2-4 9.9 0 2 .4 3.9 1.3 5.8z" fill="#808080"/></g><g><path d="m228.2 314.9h-7.1" fill="#ccc"/><path d="m228.2 317.2h-7.1c-1.3 0-2.3-1-2.3-2.3s1-2.3 2.3-2.3h7.1c1.3 0 2.3 1 2.3 2.3 0 1.2-1 2.3-2.3 2.3z" fill="#808080"/></g></g></g></g></svg>