<?xml version="1.0" encoding="UTF-8"?>
<svg xmlns="http://www.w3.org/2000/svg" xmlns:xlink="http://www.w3.org/1999/xlink" version="1.1" id="Capa_1" x="0px" y="0px" viewBox="0 0 512 512" style="enable-background:new 0 0 512 512;" xml:space="preserve" width="512" height="512">
<g>
	<path style="fill:#FED402;" d="M442.375,442.375H69.625L20.056,244.098c-3.182-12.73,12.894-21.138,21.534-11.263l39.578,45.232&#10;&#9;&#9;c12.161,13.898,35.052,5.297,35.052-13.17v-49.052c0-12.013,15.292-17.11,22.5-7.5l40.973,54.63&#10;&#9;&#9;c12.308,16.41,38.051,11.832,43.946-7.816l20.39-67.967c3.563-11.878,20.382-11.878,23.946,0l20.39,67.967&#10;&#9;&#9;c5.894,19.648,31.638,24.227,43.946,7.816l40.973-54.63c7.208-9.61,22.5-4.513,22.5,7.5v49.052&#10;&#9;&#9;c0,18.467,22.891,27.068,35.052,13.17l39.578-45.232c8.64-9.875,24.716-1.467,21.534,11.263L442.375,442.375z"/>
	<circle style="fill:#FAC600;" cx="170.578" cy="376.953" r="23.297"/>
	<circle style="fill:#FAC600;" cx="100.688" cy="376.953" r="15.531"/>
	<circle style="fill:#FAC600;" cx="341.422" cy="376.953" r="23.297"/>
	<circle style="fill:#FAC600;" cx="411.312" cy="376.953" r="15.531"/>
	<ellipse style="fill:#FAC600;" cx="256" cy="361.422" rx="25.885" ry="38.828"/>
	<path style="fill:#FAC600;" d="M470.41,232.835l-27.86,31.84l-30.767,123.069c-5.529,22.116-25.4,37.631-48.197,37.631H65.375&#10;&#9;&#9;l4.25,17h372.75l49.569-198.277C495.127,231.368,479.051,222.96,470.41,232.835z"/>
	<path style="fill:#FEE45A;" d="M100.687,141.861c-14.934-8.969-27.475-21.529-36.463-36.464&#10;&#9;&#9;c-9.008,14.935-21.548,27.495-36.483,36.464c14.935,9.008,27.475,21.548,36.483,36.483&#10;&#9;&#9;C73.212,163.409,85.753,150.869,100.687,141.861z"/>
	<path style="fill:#FEE45A;" d="M178.344,98.34c-11.755,7.059-21.625,16.945-28.7,28.7c-7.09-11.755-16.96-21.641-28.715-28.7&#10;&#9;&#9;c11.755-7.09,21.625-16.96,28.715-28.715C156.718,81.38,166.589,91.25,178.344,98.34z"/>
	<path style="fill:#FEE45A;" d="M488.969,131.762c-19.078,11.457-35.099,27.503-46.581,46.582&#10;&#9;&#9;c-11.508-19.079-27.528-35.124-46.607-46.582c19.079-11.507,35.099-27.528,46.607-46.606&#10;&#9;&#9;C453.87,104.235,469.89,120.255,488.969,131.762z"/>
	<circle style="fill:#FD6930;" cx="30.797" cy="232.703" r="23.297"/>
	<circle style="fill:#FD6930;" cx="123.984" cy="201.641" r="23.297"/>
	<circle style="fill:#01C0FA;" cx="170.578" cy="356.953" r="23.297"/>
	<circle style="fill:#05E39C;" cx="100.688" cy="356.953" r="15.531"/>
	<circle style="fill:#01C0FA;" cx="341.422" cy="356.953" r="23.297"/>
	<circle style="fill:#05E39C;" cx="411.312" cy="356.953" r="15.531"/>
	<path style="fill:#0ED290;" d="M426.844,356.953c0-4.317-1.761-8.222-4.604-11.037l-6.48,25.922&#10;&#9;&#9;C422.17,369.926,426.844,363.985,426.844,356.953z"/>
	<circle style="fill:#FD6930;" cx="481.203" cy="232.703" r="23.297"/>
	<circle style="fill:#FD6930;" cx="388.016" cy="201.641" r="23.297"/>
	<circle style="fill:#FD6930;" cx="256" cy="170.578" r="23.297"/>
	<ellipse style="fill:#E94444;" cx="256" cy="341.422" rx="25.885" ry="38.828"/>
	<path style="fill:#D83131;" d="M256.442,302.6c3.411,6.577,5.443,14.843,5.443,23.822c0,21.444-11.589,38.828-25.885,38.828&#10;&#9;&#9;c-0.148,0-0.295-0.002-0.442-0.006c4.736,9.131,12.132,15.006,20.442,15.006c14.296,0,25.885-17.384,25.885-38.828&#10;&#9;&#9;C281.885,320.199,270.534,302.954,256.442,302.6z"/>
	<path style="fill:none;stroke:#000000;stroke-width:15;stroke-linecap:round;stroke-linejoin:round;stroke-miterlimit:10;" d="&#10;&#9;&#9;M100.687,141.861c-14.934-8.969-27.475-21.529-36.463-36.464c-9.008,14.935-21.548,27.495-36.483,36.464&#10;&#9;&#9;c14.935,9.008,27.475,21.548,36.483,36.483C73.212,163.409,85.753,150.869,100.687,141.861z"/>
	<path style="fill:none;stroke:#000000;stroke-width:15;stroke-linecap:round;stroke-linejoin:round;stroke-miterlimit:10;" d="&#10;&#9;&#9;M178.344,98.34c-11.755,7.059-21.625,16.945-28.7,28.7c-7.09-11.755-16.96-21.641-28.715-28.7&#10;&#9;&#9;c11.755-7.09,21.625-16.96,28.715-28.715C156.718,81.38,166.589,91.25,178.344,98.34z"/>
	<path style="fill:none;stroke:#000000;stroke-width:15;stroke-linecap:round;stroke-linejoin:round;stroke-miterlimit:10;" d="&#10;&#9;&#9;M488.969,131.762c-19.078,11.457-35.099,27.503-46.581,46.582c-11.508-19.079-27.528-35.124-46.607-46.582&#10;&#9;&#9;c19.079-11.507,35.099-27.528,46.607-46.606C453.87,104.235,469.89,120.255,488.969,131.762z"/>
	
		<circle style="fill:none;stroke:#000000;stroke-width:15;stroke-linecap:round;stroke-linejoin:round;stroke-miterlimit:10;" cx="30.797" cy="232.703" r="23.297"/>
	
		<circle style="fill:none;stroke:#000000;stroke-width:15;stroke-linecap:round;stroke-linejoin:round;stroke-miterlimit:10;" cx="123.984" cy="201.641" r="23.297"/>
	
		<circle style="fill:none;stroke:#000000;stroke-width:15;stroke-linecap:round;stroke-linejoin:round;stroke-miterlimit:10;" cx="170.578" cy="356.953" r="23.297"/>
	
		<circle style="fill:none;stroke:#000000;stroke-width:15;stroke-linecap:round;stroke-linejoin:round;stroke-miterlimit:10;" cx="100.688" cy="356.953" r="15.531"/>
	
		<circle style="fill:none;stroke:#000000;stroke-width:15;stroke-linecap:round;stroke-linejoin:round;stroke-miterlimit:10;" cx="341.422" cy="356.953" r="23.297"/>
	
		<circle style="fill:none;stroke:#000000;stroke-width:15;stroke-linecap:round;stroke-linejoin:round;stroke-miterlimit:10;" cx="411.312" cy="356.953" r="15.531"/>
	
		<circle style="fill:none;stroke:#000000;stroke-width:15;stroke-linecap:round;stroke-linejoin:round;stroke-miterlimit:10;" cx="481.203" cy="232.703" r="23.297"/>
	
		<circle style="fill:none;stroke:#000000;stroke-width:15;stroke-linecap:round;stroke-linejoin:round;stroke-miterlimit:10;" cx="388.016" cy="201.641" r="23.297"/>
	
		<circle style="fill:none;stroke:#000000;stroke-width:15;stroke-linecap:round;stroke-linejoin:round;stroke-miterlimit:10;" cx="256" cy="170.578" r="23.297"/>
	<path style="fill:none;stroke:#000000;stroke-width:15;stroke-linecap:round;stroke-linejoin:round;stroke-miterlimit:10;" d="&#10;&#9;&#9;M281.771,337.744c0.076,1.211,0.115,2.437,0.115,3.678c0,21.444-11.589,38.828-25.885,38.828s-25.885-17.384-25.885-38.828&#10;&#9;&#9;s11.589-38.828,25.885-38.828c3.537,0,6.908,1.064,9.979,2.99"/>
	
		<line style="fill:none;stroke:#000000;stroke-width:15;stroke-linecap:round;stroke-linejoin:round;stroke-miterlimit:10;" x1="142.493" y1="411.312" x2="457.906" y2="411.312"/>
	
		<line style="fill:none;stroke:#000000;stroke-width:15;stroke-linecap:round;stroke-linejoin:round;stroke-miterlimit:10;" x1="54.094" y1="411.312" x2="107.493" y2="411.312"/>
	
		<line style="fill:none;stroke:#000000;stroke-width:15;stroke-linecap:round;stroke-linejoin:round;stroke-miterlimit:10;" x1="54.094" y1="442.375" x2="457.906" y2="442.375"/>
	
		<polyline style="fill:none;stroke:#000000;stroke-width:15;stroke-linecap:round;stroke-linejoin:round;stroke-miterlimit:10;" points="&#10;&#9;&#9;22.667,254.542 69.625,442.375 442.375,442.375 489.333,254.542 &#9;"/>
	<path style="fill:none;stroke:#000000;stroke-width:15;stroke-linecap:round;stroke-linejoin:round;stroke-miterlimit:10;" d="&#10;&#9;&#9;M116.219,223.612v41.284c0,18.467-22.891,27.068-35.052,13.17l-29.92-34.195"/>
	<path style="fill:none;stroke:#000000;stroke-width:15;stroke-linecap:round;stroke-linejoin:round;stroke-miterlimit:10;" d="&#10;&#9;&#9;M227.069,243.719l-3.432,11.439c-5.894,19.648-31.638,24.227-43.946,7.816l-36.315-48.419"/>
	
		<line style="fill:none;stroke:#000000;stroke-width:15;stroke-linecap:round;stroke-linejoin:round;stroke-miterlimit:10;" x1="243.175" y1="190.03" x2="237.55" y2="208.78"/>
	<path style="fill:none;stroke:#000000;stroke-width:15;stroke-linecap:round;stroke-linejoin:round;stroke-miterlimit:10;" d="&#10;&#9;&#9;M368.623,214.555l-36.315,48.419c-12.308,16.41-38.051,11.832-43.946-7.816l-19.538-65.128"/>
	<path style="fill:none;stroke:#000000;stroke-width:15;stroke-linecap:round;stroke-linejoin:round;stroke-miterlimit:10;" d="&#10;&#9;&#9;M460.753,243.871l-29.92,34.195c-12.161,13.898-35.052,5.297-35.052-13.17v-41.284"/>
</g>















</svg>
