<?xml version="1.0" encoding="UTF-8"?>
<svg xmlns="http://www.w3.org/2000/svg" xmlns:xlink="http://www.w3.org/1999/xlink" version="1.1" id="Capa_1" x="0px" y="0px" viewBox="0 0 512 512" style="enable-background:new 0 0 512 512;" xml:space="preserve" width="512" height="512">
<g>
	<g>
		<path style="fill:#01D0FB;" d="M186.211,239.433H40.633c-18.299,0-33.133,14.834-33.133,33.133S22.334,305.7,40.633,305.7H57.2&#10;&#9;&#9;&#9;c9.15,0,16.567,7.417,16.567,16.567S66.35,338.833,57.2,338.833H40.633c-18.299,0-33.133,14.834-33.133,33.133&#10;&#9;&#9;&#9;c0,18.299,14.834,33.133,33.133,33.133h182.233c9.15,0,16.567,7.417,16.567,16.567s-7.417,16.567-16.567,16.567h-49.7&#10;&#9;&#9;&#9;c-18.299,0-33.133,14.834-33.133,33.133c0,18.299,14.834,33.133,33.133,33.133h198.8c18.299,0,33.133-14.834,33.133-33.133&#10;&#9;&#9;&#9;c0-18.299-14.834-33.133-33.133-33.133h-33.133c-9.15,0-16.567-7.417-16.567-16.567s7.417-16.567,16.567-16.567h132.533&#10;&#9;&#9;&#9;c18.299,0,33.133-14.834,33.133-33.133c0-18.299-14.834-33.133-33.133-33.133h-56.709V190.954H222.541L186.211,239.433z"/>
		
			<ellipse transform="matrix(0.2298 -0.9732 0.9732 0.2298 -95.6884 821.8257)" style="fill:#01D0FB;" cx="471.367" cy="471.367" rx="33.133" ry="33.133"/>
		<g>
			<g>
				<g>
					<path style="fill:#01C0FA;" d="M338.833,405.1h-23c-9.15,0-16.567,7.417-16.567,16.567c0,9.15,7.417,16.567,16.567,16.567h23&#10;&#9;&#9;&#9;&#9;&#9;&#9;c-9.15,0-16.567-7.417-16.567-16.567C322.267,412.517,329.684,405.1,338.833,405.1z"/>
				</g>
				<g>
					<path style="fill:#01C0FA;" d="M471.367,338.833h-23c18.299,0,33.133,14.834,33.133,33.133&#10;&#9;&#9;&#9;&#9;&#9;&#9;c0,18.299-14.834,33.133-33.133,33.133h23c18.299,0,33.133-14.834,33.133-33.133&#10;&#9;&#9;&#9;&#9;&#9;&#9;C504.5,353.668,489.666,338.833,471.367,338.833z"/>
				</g>
				<g>
					<path style="fill:#01C0FA;" d="M371.967,438.233h-23c18.299,0,33.133,14.834,33.133,33.133&#10;&#9;&#9;&#9;&#9;&#9;&#9;c0,18.299-14.834,33.133-33.133,33.133h23c18.299,0,33.133-14.834,33.133-33.133&#10;&#9;&#9;&#9;&#9;&#9;&#9;C405.1,453.068,390.266,438.233,371.967,438.233z"/>
				</g>
			</g>
		</g>
		<path style="fill:#01C0FA;" d="M471.367,438.233c-4.044,0-7.917,0.727-11.5,2.053c12.63,4.675,21.633,16.825,21.633,31.08&#10;&#9;&#9;&#9;c0,14.255-9.003,26.406-21.633,31.081c3.583,1.326,7.456,2.053,11.5,2.053c18.299,0,33.133-14.834,33.133-33.133&#10;&#9;&#9;&#9;C504.5,453.068,489.666,438.233,471.367,438.233z"/>
		<g>
			<path style="fill:#99E6FC;" d="M244.455,208.047l3.777,1.681l16.835,4.855l77.954-53.405V50.365l-7.497-5.871L281.461,10.09&#10;&#9;&#9;&#9;&#9;c-5.427-3.453-12.362-3.453-17.789,0l-74.55,47.441c-4.779,3.041-7.673,8.312-7.673,13.977v87.351&#10;&#9;&#9;&#9;&#9;c0,5.664,2.894,10.936,7.673,13.977L244.455,208.047L244.455,208.047z"/>
			<path style="fill:#62DBFB;" d="M356.011,57.531l-20.489-13.038c3.261,3.096,5.161,7.426,5.161,12.014v88.352&#10;&#9;&#9;&#9;&#9;c0,5.664-2.894,10.936-7.673,13.977l-74.55,47.441c-4.229,2.692-9.373,3.275-14.006,1.771l19.218,12.23&#10;&#9;&#9;&#9;&#9;c5.427,3.453,12.362,3.453,17.789,0l74.55-47.441c4.779-3.041,7.672-8.313,7.672-13.977V71.508&#10;&#9;&#9;&#9;&#9;C363.683,65.843,360.79,60.572,356.011,57.531z"/>
		</g>
		<g>
			<path style="fill:#99E6FC;" d="M120.204,307.447l3.777,1.681l16.835,4.855l77.954-53.405V149.765l-7.497-5.872l-54.062-34.403&#10;&#9;&#9;&#9;&#9;c-5.427-3.453-12.362-3.453-17.789,0l-74.55,47.441c-4.779,3.041-7.672,8.312-7.672,13.977v87.351&#10;&#9;&#9;&#9;&#9;c0,5.664,2.894,10.936,7.672,13.977L120.204,307.447L120.204,307.447z"/>
			<path style="fill:#62DBFB;" d="M231.761,156.931l-20.489-13.038c3.261,3.096,5.161,7.426,5.161,12.014v88.352&#10;&#9;&#9;&#9;&#9;c0,5.664-2.894,10.936-7.673,13.977l-74.55,47.441c-4.229,2.691-9.373,3.275-14.006,1.771l19.218,12.23&#10;&#9;&#9;&#9;&#9;c5.427,3.453,12.362,3.453,17.789,0l74.55-47.441c4.779-3.041,7.672-8.313,7.672-13.977v-87.352&#10;&#9;&#9;&#9;&#9;C239.433,165.243,236.54,159.972,231.761,156.931z"/>
		</g>
		<g>
			<path style="fill:#99E6FC;" d="M368.704,332.297l3.777,1.681l16.835,4.855l77.954-53.405V174.615l-7.497-5.871l-54.062-34.403&#10;&#9;&#9;&#9;&#9;c-5.427-3.453-12.362-3.453-17.789,0l-74.55,47.441c-4.779,3.041-7.672,8.312-7.672,13.977v87.351&#10;&#9;&#9;&#9;&#9;c0,5.664,2.894,10.936,7.672,13.977L368.704,332.297L368.704,332.297z"/>
			<path style="fill:#62DBFB;" d="M480.261,181.781l-20.489-13.038c3.261,3.096,5.161,7.426,5.161,12.014v88.352&#10;&#9;&#9;&#9;&#9;c0,5.664-2.894,10.936-7.672,13.977l-74.55,47.441c-4.229,2.691-9.373,3.275-14.006,1.771l19.218,12.23&#10;&#9;&#9;&#9;&#9;c5.427,3.453,12.362,3.453,17.789,0l74.55-47.441c4.779-3.041,7.672-8.313,7.672-13.977v-87.352&#10;&#9;&#9;&#9;&#9;C487.933,190.093,485.039,184.822,480.261,181.781z"/>
		</g>
	</g>
	<g>
		<g>
			<path style="fill:none;stroke:#000000;stroke-width:15;stroke-linecap:round;stroke-linejoin:round;stroke-miterlimit:10;" d="&#10;&#9;&#9;&#9;&#9;M361.709,63.67l-80.248,51.067c-5.427,3.453-12.362,3.453-17.789,0l-80.249-51.068"/>
			<path style="fill:none;stroke:#000000;stroke-width:15;stroke-linecap:round;stroke-linejoin:round;stroke-miterlimit:10;" d="&#10;&#9;&#9;&#9;&#9;M239.433,204.852l24.239,15.425c5.427,3.453,12.362,3.453,17.789,0l24.239-15.425"/>
			<path style="fill:none;stroke:#000000;stroke-width:15;stroke-linecap:round;stroke-linejoin:round;stroke-miterlimit:10;" d="&#10;&#9;&#9;&#9;&#9;M207.785,45.655l-18.662,11.876c-4.779,3.041-7.672,8.313-7.672,13.977v53.407"/>
			<path style="fill:none;stroke:#000000;stroke-width:15;stroke-linecap:round;stroke-linejoin:round;stroke-miterlimit:10;" d="&#10;&#9;&#9;&#9;&#9;M363.683,149.765V71.508c0-5.664-2.894-10.936-7.672-13.977l-74.55-47.441c-5.427-3.453-12.362-3.453-17.789,0l-26.213,16.681"/>
			
				<line style="fill:none;stroke:#000000;stroke-width:15;stroke-linecap:round;stroke-linejoin:round;stroke-miterlimit:10;" x1="272.567" y1="117.327" x2="272.567" y2="222.867"/>
		</g>
		<g>
			<path style="fill:none;stroke:#000000;stroke-width:15;stroke-linecap:round;stroke-linejoin:round;stroke-miterlimit:10;" d="&#10;&#9;&#9;&#9;&#9;M237.459,163.07l-80.248,51.067c-5.427,3.453-12.362,3.453-17.789,0l-80.249-51.068"/>
			<path style="fill:none;stroke:#000000;stroke-width:15;stroke-linecap:round;stroke-linejoin:round;stroke-miterlimit:10;" d="&#10;&#9;&#9;&#9;&#9;M139.422,109.49l-74.55,47.441c-4.779,3.041-7.672,8.313-7.672,13.977v87.352c0,5.664,2.894,10.936,7.672,13.977l74.55,47.441&#10;&#9;&#9;&#9;&#9;c5.427,3.453,12.362,3.453,17.789,0l74.55-47.441c4.779-3.041,7.672-8.313,7.672-13.977v-87.352&#10;&#9;&#9;&#9;&#9;c0-5.664-2.894-10.936-7.672-13.977l-74.55-47.441C151.784,106.037,144.849,106.037,139.422,109.49z"/>
			
				<line style="fill:none;stroke:#000000;stroke-width:15;stroke-linecap:round;stroke-linejoin:round;stroke-miterlimit:10;" x1="148.317" y1="216.727" x2="148.317" y2="322.267"/>
		</g>
		<g>
			<path style="fill:none;stroke:#000000;stroke-width:15;stroke-linecap:round;stroke-linejoin:round;stroke-miterlimit:10;" d="&#10;&#9;&#9;&#9;&#9;M485.959,187.92l-80.248,51.067c-5.427,3.453-12.362,3.453-17.789,0l-80.249-51.068"/>
			<path style="fill:none;stroke:#000000;stroke-width:15;stroke-linecap:round;stroke-linejoin:round;stroke-miterlimit:10;" d="&#10;&#9;&#9;&#9;&#9;M387.922,134.34l-74.55,47.441c-4.779,3.041-7.672,8.313-7.672,13.977v87.352c0,5.664,2.894,10.936,7.672,13.977l74.55,47.441&#10;&#9;&#9;&#9;&#9;c5.427,3.453,12.362,3.453,17.789,0l74.55-47.441c4.779-3.041,7.672-8.313,7.672-13.977v-87.352&#10;&#9;&#9;&#9;&#9;c0-5.664-2.894-10.936-7.672-13.977l-74.55-47.441C400.284,130.887,393.349,130.887,387.922,134.34z"/>
			
				<line style="fill:none;stroke:#000000;stroke-width:15;stroke-linecap:round;stroke-linejoin:round;stroke-miterlimit:10;" x1="396.817" y1="241.577" x2="396.817" y2="347.117"/>
		</g>
		<path style="fill:none;stroke:#000000;stroke-width:15;stroke-linecap:round;stroke-linejoin:round;stroke-miterlimit:10;" d="&#10;&#9;&#9;&#9;M59.173,405.1h-18.54C22.334,405.1,7.5,390.266,7.5,371.967c0-18.299,14.834-33.133,33.133-33.133H57.2&#10;&#9;&#9;&#9;c9.15,0,16.567-7.417,16.567-16.567c0-9.15-7.417-16.567-16.567-16.567H40.633C22.334,305.7,7.5,290.866,7.5,272.567&#10;&#9;&#9;&#9;s14.834-33.133,33.133-33.133H57.2"/>
		<path style="fill:none;stroke:#000000;stroke-width:15;stroke-linecap:round;stroke-linejoin:round;stroke-miterlimit:10;" d="&#10;&#9;&#9;&#9;M414.658,338.833h56.709c18.299,0,33.133,14.834,33.133,33.133c0,18.299-14.834,33.133-33.133,33.133H338.833&#10;&#9;&#9;&#9;c-9.15,0-16.567,7.417-16.567,16.567c0,9.15,7.417,16.567,16.567,16.567h33.133c18.299,0,33.133,14.834,33.133,33.133&#10;&#9;&#9;&#9;c0,18.299-14.834,33.133-33.133,33.133h-198.8c-18.299,0-33.133-14.834-33.133-33.133c0-18.299,14.834-33.133,33.133-33.133h49.7&#10;&#9;&#9;&#9;c9.15,0,16.567-7.417,16.567-16.567c0-9.15-7.417-16.567-16.567-16.567H94.173"/>
		
			<ellipse transform="matrix(0.2298 -0.9732 0.9732 0.2298 -95.6884 821.8257)" style="fill:none;stroke:#000000;stroke-width:15;stroke-linecap:round;stroke-linejoin:round;stroke-miterlimit:10;" cx="471.367" cy="471.367" rx="33.133" ry="33.133"/>
		
			<line style="fill:none;stroke:#000000;stroke-width:15;stroke-linecap:round;stroke-linejoin:round;stroke-miterlimit:10;" x1="272.566" y1="313.983" x2="339.926" y2="313.983"/>
	</g>
</g>















</svg>
