<svg height="512" viewBox="0 0 409.1 512" width="512" xmlns="http://www.w3.org/2000/svg"><g id="Layer_6"><g><g><path d="m112.5 417.6c5.4 15.8 19.4 31.9 40.9 31.9h87.4c16.7 0 31.8-10.4 37.2-26.3 0-.1.1-.2.1-.3 4.3-12.9 6.4-24.5 5.2-38.5-2.1-23.5-13.2-42.1-29.6-61.5-13.5-16-26.8-34.6-30.4-57.8h-62c-3.6 23.2-16.8 41.8-30.4 57.8-16.5 19.4-20.3 38-22.4 61.5-1.2 14 4 33.1 4 33.2z" fill="#62969f"/><path d="m240.9 450.9h-87.4c-22.9 0-37.1-17.7-42.3-32.8-.1-.2-5.3-19.5-4-33.7 2.2-25.1 6.7-43.3 22.7-62.3 12.8-15.1 26.4-33.8 30.1-57.1.1-.7.7-1.2 1.4-1.2h62c.7 0 1.3.5 1.4 1.2 3.6 23.4 17.2 42 30.1 57.1 19.1 22.5 28.1 41.2 30 62.3 1.2 13-.4 24.6-5.2 39l-.1.2c-5.8 16.3-21.3 27.3-38.7 27.3zm-127-33.7c4.9 14.3 18.2 30.9 39.6 30.9h87.4c16.3 0 30.7-10.2 35.9-25.3l.1-.3c4.7-14 6.2-25.4 5.1-37.9-1.8-20.5-10.6-38.6-29.3-60.7-12.9-15.2-26.5-33.8-30.5-57.3h-59.6c-4 23.5-17.6 42.1-30.5 57.3-15.6 18.4-19.9 36.2-22.1 60.7-1.2 13.3 3.7 31.8 3.9 32.6z" fill="#42646b"/></g><g><path d="m123.9 334.6c-11.7.3-36.3-.1-40.3-.1-9.5-.1-17.1-7.9-17-17.4 0-2.6.6-5 1.6-7.2 2.8-5.9 8.8-9.9 15.7-9.9 4.1 0 62.2.4 73.1.1" fill="#62969f"/><path d="m111.5 336.2c-9.2 0-19.5-.1-24.9-.2-1.4 0-2.5 0-3 0-10.2-.1-18.5-8.5-18.4-18.8 0-2.7.6-5.3 1.8-7.8 3.1-6.5 9.7-10.6 16.8-10.6h.2c4 0 62.2.4 73.1.1.7 0 1.4.6 1.4 1.3 0 .8-.6 1.4-1.3 1.4-10.9.3-69.2-.1-73.2-.1-6.1-.1-11.8 3.5-14.5 9.1-1 2.1-1.5 4.3-1.5 6.6-.1 8.7 6.9 15.9 15.7 16h3.1c8.2.1 27.3.4 37.2.1.8 0 1.4.6 1.4 1.3s-.6 1.4-1.3 1.4c-3.5.1-7.9.2-12.6.2z" fill="#42646b"/></g><g><g><path d="m355.7 200.2v-29.2c0-93.7-75.9-169.6-169.6-169.6-93.6 0-169.6 75.9-169.6 169.6v29.2c-9.5 12.1-15.2 27.3-15.2 43.9 0 39.3 31.8 71.1 71.1 71.1h39.3 148.7 39.3c39.3 0 71.1-31.8 71.1-71.1.1-16.6-5.6-31.8-15.1-43.9z" fill="#fff"/><path d="m299.8 316.6h-227.3c-40 0-72.5-32.6-72.5-72.5 0-16.2 5.2-31.5 15.2-44.3v-28.8c0-94.3 76.7-171 171-171s171 76.7 171 171v28.8c9.9 12.8 15.2 28.1 15.2 44.3-.1 39.9-32.6 72.5-72.6 72.5zm-113.7-313.8c-92.7 0-168.2 75.4-168.2 168.2v29.2c0 .3-.1.6-.3.9-9.7 12.4-14.9 27.3-14.9 43 0 38.4 31.3 69.7 69.7 69.7h227.3c38.4 0 69.7-31.3 69.7-69.7 0-15.7-5.1-30.6-14.9-43-.2-.2-.3-.5-.3-.9v-29.2c.1-92.8-75.3-168.2-168.1-168.2z" fill="#b3b3b3"/></g><g><path d="m186.1 1.4c-93.6 0-169.6 75.9-169.6 169.6v26.7c0-78.9 35.2-142.9 78.5-142.9s78.5 64 78.5 142.9c0 48.7 1.5 37.8 0 37.9h25.1c.7-.1 0 10.8 0-37.9 0-78.9 35.2-142.9 78.5-142.9 43.4 0 78.5 64 78.5 142.9v-26.7c.1-93.7-75.8-169.6-169.5-169.6z" fill="#62969f"/><path d="m199 237.9c-.6 0-1.1-.4-1.3-1h-22.1c-.2.7-.7.9-1.1 1-.7.1-1.4-.4-1.6-1.1v-.1c-.4-.2-.6-.7-.6-1.1 0-.5.2-.9.5-1.1-.3-6.7-.5-19.6-.5-36.8 0-78-34.6-141.5-77.1-141.5s-77.1 63.5-77.1 141.5c0 .8-.6 1.4-1.4 1.4s-1.4-.6-1.4-1.4v-26.7c0-94.3 76.7-171 171-171s171 76.7 171 171v26.7c0 .8-.6 1.4-1.4 1.4s-1.4-.6-1.4-1.4c0-78-34.6-141.5-77.1-141.5s-77.1 63.5-77.1 141.5c0 18.8.1 32.5.3 38.5-.2 1.4-1 1.7-1.6 1.7zm-.3-1h.1zm-23.2-2.7h22c-.2-6.8-.2-19.6-.2-36.5 0-38.4 8.2-74.5 23.2-101.7 15.1-27.5 35.2-42.6 56.7-42.6s41.7 15.1 56.7 42.6c9.2 16.8 15.9 37 19.6 59-8-85.3-80-152.2-167.4-152.2s-159.3 66.9-167.4 152.1c3.8-22 10.4-42.2 19.6-59 15.1-27.5 35.2-42.6 56.7-42.6s41.7 15.1 56.7 42.6c14.9 27.2 23.2 63.3 23.2 101.7.1 17.1.3 29.8.6 36.6z" fill="#42646b"/></g></g><g><g><g><circle cx="46.6" cy="246" fill="#ffe0e0" r="36.2"/><ellipse cx="46.6" cy="219.1" fill="#fff" rx="8.8" ry="4.5"/></g><g><circle cx="325.6" cy="246" fill="#ffe0e0" r="36.2"/><ellipse cx="325.6" cy="219.1" fill="#fff" rx="8.8" ry="4.5"/></g></g></g><g><ellipse cx="186.1" cy="325.8" fill="#ffe600" rx="29.7" ry="22.7"/><path d="m186.1 349.8c-17.1 0-31.1-10.8-31.1-24 0-13.3 13.9-24 31.1-24s31.1 10.8 31.1 24-13.9 24-31.1 24zm0-45.3c-15.6 0-28.3 9.5-28.3 21.3 0 11.7 12.7 21.3 28.3 21.3s28.3-9.5 28.3-21.3c0-11.7-12.7-21.3-28.3-21.3z" fill="#a69500"/></g><g><path d="m222.8 220.5c-2.2-3.2-6.1-7.5-6.1-7.5-8.4-8.4-19.5-12.6-30.6-12.6s-22.1 4.2-30.6 12.6c0 0-3.9 4.3-6.1 7.5-8.2 12.1-2.5 25.5 11 25.5h25.6 25.6c13.7 0 19.4-13.4 11.2-25.5z" fill="#ffe600"/><path d="m211.8 247.4h-51.3c-6.5 0-11.8-2.9-14.5-8-3-5.8-2.2-13.1 2.3-19.7 2.2-3.2 6.1-7.4 6.2-7.6 8.4-8.4 19.6-13.1 31.5-13.1h.2c11.9 0 23 4.6 31.4 13 .2.2 4.1 4.4 6.3 7.7 4.5 6.6 5.3 13.9 2.3 19.7-2.7 5.1-7.9 8-14.4 8zm-25.8-45.6c-11.2 0-21.6 4.3-29.5 12.2 0 0-3.8 4.2-5.9 7.3-3.9 5.7-4.7 12-2.1 16.8 2.2 4.1 6.6 6.5 12 6.5h51.3c5.4 0 9.8-2.4 12-6.5 2.6-4.8 1.8-11.1-2.1-16.8-2.1-3.1-5.9-7.3-6-7.3-7.8-7.8-18.3-12.2-29.5-12.2 0 0-.1 0-.2 0z" fill="#a69500"/></g><g><path d="m120.8 433.1c-8.5 2.2-15.3 9-17.5 17.5-.1.5-.2 1-.3 1.4-1.3 6.8 1.3 18.6 10.1 18.9 4 .1 7.2-3.7 8-7.6 2.9 2.3 7.2 2.6 10.3.6.6-.4 1.1-.8 1.5-1.3.5-.5.9-1 1.3-1.5 2-3.1 1.7-7.4-.6-10.3 3.9-.7 7.7-4 7.6-8-.3-8.8-12.1-11.4-18.9-10.1-.5.2-1 .3-1.5.4z" fill="#ffe600"/><path d="m113.3 472.3c-.1 0-.2 0-.2 0-3.1-.1-5.8-1.5-7.9-4.1-3.6-4.5-4.5-11.7-3.6-16.5.1-.5.2-1 .3-1.5 2.3-9.1 9.4-16.2 18.5-18.5.5-.1 1-.2 1.5-.3 4.8-.9 12 0 16.5 3.6 2.6 2 4 4.8 4.1 7.9.1 4.1-3.1 7.4-6.8 8.8 1.6 3.2 1.5 7.2-.4 10.2-.4.6-.9 1.2-1.5 1.8-.5.5-1.1 1-1.7 1.4-3 1.9-7 2-10.2.4-1.4 3.6-4.6 6.8-8.6 6.8zm12.5-38.5c-1.2 0-2.3.1-3.3.3-.4.1-.9.2-1.4.3-8 2-14.4 8.5-16.5 16.5-.1.5-.2.9-.3 1.4-.8 4.1 0 10.5 3 14.2 1.5 1.9 3.5 2.9 5.8 3 3.3.1 6-3.3 6.6-6.4.1-.5.4-.9.9-1 .5-.2 1-.1 1.3.2 2.4 1.9 6.1 2.1 8.7.5.5-.3.9-.6 1.3-1s.8-.9 1.1-1.3c1.6-2.6 1.4-6.3-.5-8.7-.3-.4-.4-.9-.2-1.3.2-.5.6-.8 1-.9 3.2-.6 6.6-3.3 6.4-6.6-.1-2.3-1.1-4.2-3-5.8-2.8-2.4-7.2-3.4-10.9-3.4z" fill="#a69500"/></g><path id="XMLID_384_" d="m299.4 497.1c0 8.2-45.5 14.9-101.5 14.9s-101.5-6.7-101.5-14.9 45.5-14.9 101.5-14.9 101.5 6.7 101.5 14.9z" fill="#231f20" opacity=".3"/><path d="m88.8 495c-.3 0-.6-.1-.7-.4-15.2-27.6-27-57.1-35-87.6-.1-.4.1-.9.6-1 .4-.1.9.1 1 .6 8 30.4 19.7 59.7 34.8 87.2.2.4.1.9-.3 1.1-.1 0-.3.1-.4.1z" fill="#808080"/><path d="m58 473.2c-.3 0-.5-.1-.7-.3-2.9-4.3-10.3-18.5-13-32.9-.1-.4.2-.8.6-.9s.8.2.9.6c2.6 14.2 9.8 28.1 12.7 32.3.2.4.2.9-.2 1.1 0 0-.2.1-.3.1z" fill="#808080"/><path d="m185.1 269.9c-3.9 0-7.6-.6-10.3-1.8-.7-.3-1-1.1-.7-1.8s1.1-1 1.8-.7c2.3 1 5.7 1.6 9.2 1.6s6.9-.6 9.2-1.6c.7-.3 1.5 0 1.8.7s0 1.5-.7 1.8c-2.7 1.1-6.3 1.8-10.3 1.8z"/><g><path d="m61.8 194.1c0 15.8 12.8 28.6 28.6 28.6s28.6-12.8 28.6-28.6-12.8-28.6-28.6-28.6-28.6 12.8-28.6 28.6z" fill="#fff"/></g><circle cx="90.4" cy="194.1" r="14.8"/><circle cx="90.4" cy="182.8" fill="#fff" r="2.2"/><g><path d="m251.2 194.1c0 15.8 12.8 28.6 28.6 28.6s28.6-12.8 28.6-28.6-12.8-28.6-28.6-28.6-28.6 12.8-28.6 28.6z" fill="#fff"/></g><circle cx="279.8" cy="194.1" r="14.8"/><circle cx="279.8" cy="182.9" fill="#fff" r="2.2"/><g><path id="XMLID_00000119118036213713067870000003838842890915684531_" d="m407.8 181c-9-4.4-14.7-10.3-14.7-16.8s5.6-12.5 14.7-16.8c-10-.6-17.5-3.9-20-9.9-2.5-6.1.4-13.7 7.1-21.2-9.5 3.3-17.6 3.1-22.3-1.5-4.6-4.6-4.8-12.8-1.5-22.3-7.5 6.7-15.1 9.6-21.2 7.1-6-2.5-9.4-10-9.9-20" fill="#fddc0d"/><path d="m407.8 182.2c-.2 0-.4 0-.5-.1-9.9-4.8-15.4-11.2-15.4-17.9 0-5.9 4.1-11.5 11.7-16-8.7-1.3-14.7-4.8-16.9-10.3-2.3-5.5-.6-12.2 4.7-19.3-8.5 2.2-15.4 1.1-19.6-3-4.2-4.2-5.2-11-3-19.6-7.1 5.3-13.8 7-19.3 4.7-6.3-2.6-10.1-10.1-10.7-21.1 0-.7.5-1.3 1.2-1.3s1.3.5 1.3 1.2c.6 10 3.8 16.7 9.2 18.9 5.3 2.2 12.4-.2 19.9-6.9.4-.4 1-.4 1.5-.1s.7.9.5 1.4c-3.3 9.5-2.9 16.9 1.2 21s11.5 4.5 21 1.2c.5-.2 1.1 0 1.4.5s.3 1.1-.1 1.5c-6.6 7.5-9.1 14.5-6.9 19.9 2.2 5.3 8.9 8.6 18.9 9.2.6 0 1 .4 1.1 1s-.2 1.1-.7 1.4c-9 4.3-14 9.9-14 15.7s5 11.4 14 15.7c.6.3.9 1 .6 1.7-.1.3-.6.6-1.1.6z" fill="#808080"/></g><g><path d="m209.7 306.9c0 9.9-8 17.9-17.9 17.9h-10.8c-9.9 0-17.9-8-17.9-17.9v-61.1c0-9.9 8-17.9 17.9-17.9h10.8c9.9 0 17.9 8 17.9 17.9z" fill="#997272"/><path d="m191.8 326.2h-10.8c-10.6 0-19.3-8.7-19.3-19.3v-61.1c0-10.6 8.7-19.3 19.3-19.3h10.8c10.6 0 19.3 8.7 19.3 19.3v61.1c0 10.7-8.7 19.3-19.3 19.3zm-10.9-96.9c-9.1 0-16.5 7.4-16.5 16.5v61.1c0 9.1 7.4 16.5 16.5 16.5h10.8c9.1 0 16.5-7.4 16.5-16.5v-61.1c0-9.1-7.4-16.5-16.5-16.5z" fill="#4f3b3b"/></g><g><path d="m173.9 292.1c-.8 1.9-3.5 12.6 12.3 12.6s13.8-8.4 12.3-12.6c-1.7-3.5-4.4-5-6.9-5-2.2 0-4.3.6-5.4 2.7-1.1-2-3.2-2.7-5.4-2.7-2.5 0-5.3 1.6-6.9 5z" fill="#feaebe"/><path d="m186.2 306.1c-6.4 0-10.8-1.7-13-5-2.3-3.5-1.4-7.7-.6-9.5 1.7-3.6 4.8-5.8 8.1-5.8 2.3 0 4.1.6 5.4 1.9 1.3-1.2 3.1-1.9 5.4-1.9 3.3 0 6.4 2.2 8.1 5.8 0 0 0 .1.1.1 1 2.7 2 6.7-.3 9.9-2 3-6.4 4.5-13.2 4.5zm-11.1-13.4c-.4 1-1.2 4.3.4 6.8s5.2 3.8 10.7 3.8c5.7 0 9.5-1.1 11.1-3.3 1.5-2.1.8-5 0-7.3-1.5-3.1-3.9-4.2-5.6-4.2-2.1 0-3.4.6-4.2 2-.2.4-.7.7-1.2.7-.5 0-1-.3-1.2-.7-.7-1.3-2.1-2-4.2-2-1.9 0-4.3 1.1-5.8 4.2z" fill="#8c6069"/></g><g><path d="m226.2 338c1.6-5.2.2-13-2.8-15.8-2.2-2.1-5-3.4-6.9-2.9l-3.4.9c-8.7.7-16.2-4-18.3-12.5-1.1-4.6-.4-9.2 1.8-13.1 1.9-3.3 5.7-7.4 9.4-9 12.3-5.3 32.7-3.6 44.2 3.3s18.5 23.2 18.5 37.9c0 5.6 1.1 13.8-.6 18.1" fill="#62969f"/><path d="m268.2 346.3c-.2 0-.3 0-.5-.1-.7-.3-1.1-1.1-.8-1.8 1.1-2.9.9-8 .7-12.6-.1-1.8-.2-3.5-.2-5.1 0-15.4-7.3-30.4-17.8-36.7-11.3-6.7-31.4-8.2-43-3.2-3.5 1.5-7.1 5.5-8.8 8.4-2.1 3.7-2.7 8-1.6 12.1 1.9 7.6 8.5 12.1 16.8 11.5l3.2-.9c2.8-.8 6.2 1.3 8.2 3.2 3.3 3.2 4.9 11.6 3.1 17.2-.2.7-1 1.1-1.7.9s-1.1-1-.9-1.7c1.4-4.7.2-11.9-2.4-14.4-1.9-1.8-4.3-2.9-5.6-2.6l-3.4.9c-.1 0-.2 0-.3 0-9.6.8-17.6-4.7-19.8-13.5-1.2-4.8-.5-9.8 1.9-14.1 1.9-3.4 6-7.8 10.1-9.6 12.5-5.4 33.3-3.9 45.5 3.3 11.3 6.7 19.2 22.8 19.2 39.1 0 1.5.1 3.2.2 5 .2 5 .5 10.2-.8 13.7-.3.7-.8 1-1.3 1z" fill="#42646b"/></g><g><path d="m220.4 427.1c-4.7-.3-10.1-2.5-13.6-4.9-5.7-3.9-12.2-14.1-6.2-20.5 2.7-2.9 7.7-2.5 11-.3.4-3.7 3.3-6.9 6.9-7.7.6-.1 1.3-.2 2-.2s1.3 0 2 .2c3.6.8 6.5 4 6.9 7.7 3.3-2.2 8.3-2.6 11 .3 6 6.4-.5 16.6-6.2 20.5-3.8 2.4-9.1 4.6-13.8 4.9z" fill="#ffe600"/><path d="m220.4 428.5c-.1 0-.1 0 0 0-4.7-.3-10.3-2.3-14.4-5.1-4.1-2.7-8.5-8.5-9.1-14.2-.4-3.2.6-6.2 2.7-8.4 2.8-3 7.4-3.1 11-1.4 1.1-3.4 4-6.2 7.5-6.9.7-.2 1.5-.2 2.3-.2.7 0 1.5.1 2.2.2 3.5.8 6.4 3.5 7.5 6.9 3.6-1.6 8.2-1.6 11 1.4 2.1 2.3 3.1 5.2 2.7 8.4-.6 5.7-5.1 11.4-9.1 14.2s-9.7 4.8-14.3 5.1zm-14.7-27.4c-1.6 0-3.1.5-4.2 1.6-1.6 1.7-2.2 3.8-2 6.2.5 4.8 4.5 9.8 7.9 12.2 3 2.1 8.2 4.3 12.8 4.6 4.7-.3 9.8-2.6 12.8-4.6 3.4-2.3 7.4-7.4 7.9-12.2.3-2.5-.4-4.5-2-6.2-2.2-2.4-6.5-1.9-9.2-.1-.4.3-.9.3-1.4.1-.4-.2-.7-.6-.8-1.1-.3-3-2.8-5.8-5.8-6.5-.5-.1-1.1-.2-1.6-.2-.6 0-1.2 0-1.7.2-3 .7-5.5 3.4-5.8 6.5-.1.5-.4.9-.8 1.1s-1 .2-1.4-.1c-1.1-.9-2.9-1.5-4.7-1.5z" fill="#a69500"/></g><g><circle cx="164.4" cy="389" fill="#fff" r="38.9"/></g></g></g></svg>