<svg height="512" viewBox="0 0 392.7 507.5" width="512" xmlns="http://www.w3.org/2000/svg" xmlns:xlink="http://www.w3.org/1999/xlink"><linearGradient id="lg1"><stop offset=".5697" stop-color="#fff"/><stop offset="1" stop-color="#fff" stop-opacity="0"/></linearGradient><radialGradient id="XMLID_17_" cx="208.816289" cy="272.289776" gradientUnits="userSpaceOnUse" r="46.434478" xlink:href="#lg1"/><linearGradient id="lg2"><stop offset="0" stop-color="#ffa9bd" stop-opacity=".618"/><stop offset=".1903" stop-color="#ffaec1" stop-opacity=".5"/><stop offset=".4267" stop-color="#ffbecd" stop-opacity=".354"/><stop offset=".6874" stop-color="#ffd7e0" stop-opacity=".193"/><stop offset=".9639" stop-color="#fffafb" stop-opacity=".022"/><stop offset="1" stop-color="#fff" stop-opacity="0"/></linearGradient><radialGradient id="XMLID_18_" cx="-173.721" cy="2919.62" gradientTransform="matrix(2.946 -1.22 1.22 2.946 -2925.573 -8501.628)" gradientUnits="userSpaceOnUse" r="18.177" xlink:href="#lg2"/><radialGradient id="XMLID_19_" cx="-115.663" cy="2919.619" gradientTransform="matrix(2.946 -1.22 1.22 2.946 -2925.573 -8501.628)" gradientUnits="userSpaceOnUse" r="18.177" xlink:href="#lg2"/><radialGradient id="XMLID_54_" cx="7664.757" cy="3719.344" gradientTransform="matrix(-1.729 .716 .716 1.729 10863.228 -11710.791)" gradientUnits="userSpaceOnUse" r="25.108" xlink:href="#lg1"/><radialGradient id="XMLID_68_" cx="7756.735" cy="3719.343" gradientTransform="matrix(-1.729 .716 .716 1.729 10863.228 -11710.791)" gradientUnits="userSpaceOnUse" r="25.108" xlink:href="#lg1"/><g id="Layer_6"><g><g id="XMLID_9569_"><g id="XMLID_11646_"><path id="XMLID_11645_" d="m224.1 353.8c-1.8 0-3.2-1.4-3.2-3.2v-231.1c0-1.8 1.4-3.2 3.2-3.2s3.2 1.4 3.2 3.2v231.1c0 1.7-1.5 3.2-3.2 3.2z" fill="#221e20"/></g><g id="XMLID_11644_"><path id="XMLID_11643_" d="m157.9 425.5c-1.8 0-3.2-1.4-3.2-3.2v-263.2c0-1.8 1.4-3.2 3.2-3.2s3.2 1.4 3.2 3.2v263.2c0 1.8-1.4 3.2-3.2 3.2z" fill="#221e20"/></g><g id="XMLID_11642_"><path id="XMLID_11641_" d="m91.8 420.6c-1.8 0-3.2-1.4-3.2-3.2v-195.1c0-1.8 1.4-3.2 3.2-3.2s3.2 1.4 3.2 3.2v195.1c0 1.7-1.5 3.2-3.2 3.2z" fill="#221e20"/></g><g id="XMLID_11640_"><path id="XMLID_11639_" d="m372.9 401.5c-1.8 0-3.2-1.4-3.2-3.2v-195c0-1.8 1.4-3.2 3.2-3.2s3.2 1.4 3.2 3.2v195.1c0 1.7-1.4 3.1-3.2 3.1z" fill="#221e20"/></g><g id="XMLID_11638_"><path id="XMLID_11637_" d="m290.2 294.9c-1.8 0-3.2-1.4-3.2-3.2v-224.9c0-1.8 1.4-3.2 3.2-3.2s3.2 1.4 3.2 3.2v224.9c0 1.8-1.4 3.2-3.2 3.2z" fill="#221e20"/></g><g id="XMLID_11636_"><path id="XMLID_11635_" d="m75.2 377.1c-1.8 0-3.2-1.4-3.2-3.2v-263.1c0-1.8 1.4-3.2 3.2-3.2s3.2 1.4 3.2 3.2v263.2c0 1.7-1.4 3.1-3.2 3.1z" fill="#221e20"/></g><g id="XMLID_11634_"><path id="XMLID_11633_" d="m356.4 380.1c-1.8 0-3.2-1.4-3.2-3.2v-275.8c0-1.8 1.4-3.2 3.2-3.2s3.2 1.4 3.2 3.2v275.9c0 1.7-1.4 3.1-3.2 3.1z" fill="#221e20"/></g><g id="XMLID_11632_"><path id="XMLID_11631_" d="m273.7 410.3c-1.8 0-3.2-1.4-3.2-3.2v-263.2c0-1.8 1.4-3.2 3.2-3.2s3.2 1.4 3.2 3.2v263.2c0 1.8-1.4 3.2-3.2 3.2z" fill="#6d6e70"/></g><g id="XMLID_11630_"><path id="XMLID_11629_" d="m141.4 377.1c-1.8 0-3.2-1.4-3.2-3.2v-263.1c0-1.8 1.4-3.2 3.2-3.2s3.2 1.4 3.2 3.2v263.2c0 1.7-1.5 3.1-3.2 3.1z" fill="#221e20"/></g><g id="XMLID_11628_"><path id="XMLID_11627_" d="m25.6 476.3c-1.8 0-3.2-1.4-3.2-3.2v-312.6c0-1.8 1.4-3.2 3.2-3.2s3.2 1.4 3.2 3.2v312.6c0 1.7-1.4 3.2-3.2 3.2z" fill="#221e20"/></g><g id="XMLID_11626_"><path id="XMLID_11625_" d="m339.8 401.5c-1.8 0-3.2-1.4-3.2-3.2v-263.2c0-1.8 1.4-3.2 3.2-3.2s3.2 1.4 3.2 3.2v263.2c0 1.8-1.4 3.2-3.2 3.2z" fill="#221e20"/></g><g id="XMLID_11624_"><path id="XMLID_11623_" d="m257.2 383.5c-1.8 0-3.2-1.4-3.2-3.2v-195.1c0-1.8 1.4-3.2 3.2-3.2s3.2 1.4 3.2 3.2v195.1c-.1 1.7-1.5 3.2-3.2 3.2z" fill="#6d6e70"/></g><g id="XMLID_11622_"><path id="XMLID_11621_" d="m9.1 394.8c-1.8 0-3.2-1.4-3.2-3.2v-189c0-1.8 1.4-3.2 3.2-3.2s3.2 1.4 3.2 3.2v189c0 1.8-1.5 3.2-3.2 3.2z" fill="#221e20"/></g><g id="XMLID_11620_"><path id="XMLID_11619_" d="m323.3 466.4c-1.8 0-3.2-1.4-3.2-3.2v-195c0-1.8 1.4-3.2 3.2-3.2s3.2 1.4 3.2 3.2v195.1c0 1.7-1.4 3.1-3.2 3.1z" fill="#221e20"/></g><g id="XMLID_11618_"><path id="XMLID_11617_" d="m108.3 353.8c-1.8 0-3.2-1.4-3.2-3.2v-263.2c0-1.8 1.4-3.2 3.2-3.2s3.2 1.4 3.2 3.2v263.2c0 1.7-1.4 3.2-3.2 3.2z" fill="#221e20"/></g><g id="XMLID_11616_"><path id="XMLID_11615_" d="m58.7 368.9c-1.8 0-3.2-1.4-3.2-3.2v-314c0-1.8 1.4-3.2 3.2-3.2s3.2 1.4 3.2 3.2v314c0 1.8-1.4 3.2-3.2 3.2z" fill="#221e20"/></g><g id="XMLID_11614_"><path id="XMLID_11613_" d="m306.8 401.5c-1.8 0-3.2-1.4-3.2-3.2v-263.2c0-1.8 1.4-3.2 3.2-3.2s3.2 1.4 3.2 3.2v263.2c0 1.8-1.5 3.2-3.2 3.2z" fill="#221e20"/></g><g id="XMLID_11612_"><path id="XMLID_11611_" d="m191 401.5c-1.8 0-3.2-1.4-3.2-3.2v-300c0-1.8 1.4-3.2 3.2-3.2s3.2 1.4 3.2 3.2v300c0 1.8-1.4 3.2-3.2 3.2z" fill="#6d6e70"/></g><g id="XMLID_11610_"><path id="XMLID_11609_" d="m42.1 410.3c-1.8 0-3.2-1.4-3.2-3.2v-263.2c0-1.8 1.4-3.2 3.2-3.2s3.2 1.4 3.2 3.2v263.2c0 1.8-1.4 3.2-3.2 3.2z" fill="#221e20"/></g><g id="XMLID_11608_"><path id="XMLID_11607_" d="m389.5 431.8c-1.8 0-3.2-1.4-3.2-3.2v-186.2c0-1.8 1.4-3.2 3.2-3.2s3.2 1.4 3.2 3.2v186.2c0 1.8-1.5 3.2-3.2 3.2z" fill="#221e20"/></g></g><g id="XMLID_9522_"><g id="XMLID_11606_"><path id="XMLID_9567_" d="m207.4 371.4h102.4v101.2h-102.4z" fill="#fff"/><path id="XMLID_11603_" d="m309.9 475.8h-102.5c-1.8 0-3.2-1.4-3.2-3.2v-101.2c0-1.8 1.4-3.2 3.2-3.2h102.4c1.8 0 3.2 1.4 3.2 3.2v101.2c0 1.8-1.4 3.2-3.1 3.2zm-99.3-6.4h96.1v-94.8h-96.1z" fill="#6d6e70"/></g><g id="XMLID_11602_"><circle id="XMLID_9566_" cx="257.7" cy="424.2" fill="#fff" r="25.7"/><path id="XMLID_11599_" d="m257.7 451.5c-15.1 0-27.3-12.2-27.3-27.3s12.2-27.3 27.3-27.3 27.3 12.2 27.3 27.3-12.3 27.3-27.3 27.3zm0-51.4c-13.3 0-24.1 10.8-24.1 24.1s10.8 24.1 24.1 24.1 24.1-10.8 24.1-24.1-10.8-24.1-24.1-24.1z" fill="#6d6e70"/></g><g id="XMLID_9528_"><g id="XMLID_9538_"><g id="XMLID_11598_" fill="#221e20"><path id="XMLID_9565_" d="m86.7 157.4 100.8 243.2"/><path id="XMLID_11597_" d="m187.5 403.7c-1.3 0-2.4-.7-2.9-2l-100.8-243.1c-.7-1.6.1-3.5 1.7-4.2s3.5.1 4.2 1.7l100.7 243.2c.7 1.6-.1 3.5-1.7 4.2-.4.2-.8.2-1.2.2z"/></g><g id="XMLID_9563_"><g id="XMLID_11596_"><path id="XMLID_9564_" d="m94.3 132.6c34.7 34.7 52.2 73.6 39 86.8s-52-4.3-86.8-39-52.2-73.6-39-86.8c13.2-13.2 52 4.3 86.8 39z" fill="#fff"/><path id="XMLID_10255_" d="m120.8 226.9c-19.2 0-48.9-16.5-76.6-44.2-36.5-36.6-53.6-76.7-39-91.4 7.4-7.4 21.2-7.1 38.9.9 16.7 7.5 35.3 21.1 52.4 38.1 36.5 36.5 53.7 76.6 39 91.3-3.5 3.6-8.6 5.3-14.7 5.3zm-100.7-134.5c-4.5 0-8 1.2-10.3 3.5-10.4 10.4 2.7 46 39 82.3s71.8 49.4 82.3 39c10.4-10.5-2.7-46-39-82.3-16.6-16.6-34.6-29.7-50.6-36.9-8.4-3.7-15.7-5.6-21.4-5.6z" fill="#6d6e70"/></g><g id="XMLID_10254_"><ellipse id="XMLID_9552_" cx="225.7" cy="92.1" fill="#fff" rx="33.8" ry="88.9"/><path id="XMLID_9562_" d="m225.7 184.3c-20.7 0-37-40.5-37-92.1 0-51.7 16.2-92.1 37-92.1s37 40.5 37 92.1-16.2 92.1-37 92.1zm0-177.9c-14.8 0-30.6 34.5-30.6 85.8s15.8 85.7 30.6 85.7 30.6-34.5 30.6-85.7-15.8-85.8-30.6-85.8z" fill="#6d6e70"/></g></g><g id="XMLID_11592_"><path id="XMLID_11595_" d="m343.2 223.5c-38-78.5-105.4-124.9-191.1-89.4s-100.5 116-71.9 198.4c-5.6 15.3-5.7 32.7 1 48.9 14.3 34.4 53.7 50.8 88.1 36.5l171.3-70.9c34.4-14.3 50.8-53.7 36.5-88.1-6.7-16.3-19.1-28.5-33.9-35.4z" fill="#fff"/><path id="XMLID_11591_" d="m208.9 122c58.7 0 105.2 41.4 134.3 101.5 14.8 6.9 27.2 19.1 33.9 35.3 14.3 34.4-2.1 73.9-36.5 88.1l-171.2 70.9c-8.4 3.5-17.2 5.2-25.8 5.2-26.5 0-51.6-15.7-62.3-41.7-6.7-16.3-6.6-33.6-1-48.9-28.6-82.3-13.8-162.9 71.9-198.4 19.9-8.2 38.9-12 56.7-12m0-6.4c-19.2 0-39.1 4.2-59.3 12.6-80 33.1-108.4 109.4-76.2 204.3-5.6 16.8-4.9 35 1.9 51.4 11.5 27.7 38.3 45.6 68.2 45.6 9.7 0 19.2-1.9 28.2-5.6l171.2-70.9c18.2-7.5 32.4-21.7 40-40 7.5-18.2 7.5-38.3 0-56.5-6.8-16.4-19.2-29.7-35-37.7-32.7-66.6-82-103.2-139-103.2z" fill="#6d6e70"/></g><g id="XMLID_9556_"><g id="XMLID_9558_"><path id="XMLID_9561_" d="m251.9 254.8c9.8 23.7-1.4 50.8-25.1 60.7-23.7 9.8-50.8-1.4-60.7-25.1-9.8-23.7 1.4-50.8 25.1-60.7 23.7-9.8 50.9 1.4 60.7 25.1z" fill="url(#XMLID_17_)"/><path id="XMLID_9560_" d="m212.6 236.8c2.3 5.5-3 12.8-11.7 16.4s-17.6 2.1-19.8-3.4c-2.3-5.5 3-12.8 11.7-16.4s17.6-2.1 19.8 3.4z"/><path id="XMLID_9559_" d="m209.6 274.1c-2.4 1-5.2-.1-6.2-2.6l-9.7-23.4c-1-2.4.1-5.2 2.6-6.2 2.4-1 5.2.1 6.2 2.6l9.7 23.4c1 2.4-.1 5.2-2.6 6.2z"/></g><path id="XMLID_9557_" d="m214.8 273.9-8.9 3.7c-2.4 1-5.2-.1-6.2-2.6-1-2.4.2-5.2 2.6-6.2l8.9-3.7c2.4-1 5.2.1 6.2 2.6 1 2.4-.2 5.2-2.6 6.2z" fill="#231f20"/></g><g id="XMLID_9553_"><circle id="XMLID_9555_" cx="125.7" cy="312.2" fill="url(#XMLID_18_)" r="58"/><circle id="XMLID_9554_" cx="296.7" cy="241.3" fill="url(#XMLID_19_)" r="58"/></g><g id="XMLID_9550_"><g id="XMLID_11590_"><path id="XMLID_9551_" d="m137.9 198.5c3.4 8.1-.3 17.4-8.4 20.9" fill="#fff"/><path id="XMLID_11589_" d="m129.6 222.5c-1.2 0-2.4-.7-2.9-1.9-.7-1.6.1-3.5 1.7-4.2 3.1-1.3 5.5-3.8 6.8-6.9s1.2-6.6-.1-9.7c-.7-1.6.1-3.5 1.7-4.2s3.5.1 4.2 1.7c2 4.7 2.1 9.9.2 14.6s-5.5 8.4-10.2 10.4c-.6.1-1 .2-1.4.2z" fill="#6d6e70"/></g><g id="XMLID_11588_"><path id="XMLID_9549_" d="m207 168.9c3.4 8.1 12.8 11.8 20.9 8.4" fill="#fff"/><path id="XMLID_11587_" d="m221.6 181.7c-2.4 0-4.8-.5-7.1-1.4-4.7-1.9-8.4-5.5-10.4-10.2-.7-1.6.1-3.5 1.7-4.2s3.5.1 4.2 1.7c1.3 3.1 3.8 5.5 7 6.8 3.1 1.3 6.6 1.2 9.7-.1 1.6-.7 3.5.1 4.2 1.7s-.1 3.5-1.7 4.2c-2.5 1-5.1 1.5-7.6 1.5z" fill="#6d6e70"/></g></g><g id="XMLID_9546_"><g id="XMLID_9547_"><g id="XMLID_11586_"><path id="XMLID_9537_" d="m228.6 265.2s-12.6 8.1-23.2-2.7c0 15.6-14.7 18.1-14.7 18.1l25.2 60.8 38-15.2z" fill="#221e20"/><path id="XMLID_9542_" d="m215.9 346.3c-1.9 0-3.7-1.1-4.4-3l-25.2-60.8c-.6-1.3-.5-2.9.2-4.1.7-1.3 1.9-2.2 3.4-2.4 1.1-.2 10.8-2.4 10.8-13.4 0-1.9 1.2-3.7 3-4.4s3.9-.3 5.2 1.1c7.5 7.7 16.3 2.6 17.2 2 1.2-.7 2.7-.9 4-.5s2.4 1.4 3 2.7l25.3 61c.5 1.2.5 2.5 0 3.7s-1.4 2.1-2.6 2.6l-38 15.2c-.7.2-1.3.3-1.9.3zm-18.9-62.7 21.4 51.7 29.1-11.7-21.5-52c-4.7 1.5-11.1 2.1-17.2-.8-2.3 6.6-7.2 10.6-11.8 12.8z"/></g><path id="XMLID_9548_" d="m211.3 330.6 4.6 11.1 37.9-15.4-4.4-10.6c-7.1-.9-14.4 0-21.5 2.9-6.6 2.6-12.2 6.8-16.6 12z" fill="#ffbabe"/></g></g><g id="XMLID_9539_"><g id="XMLID_9543_"><path id="XMLID_9545_" d="m232.5 226c9.9 24 37.4 35.4 61.4 25.4 24-9.9 35.4-37.4 25.4-61.4-9.9-24-37.4-35.4-61.4-25.4-24 9.9-35.4 37.4-25.4 61.4z" fill="url(#XMLID_54_)"/><path id="XMLID_9544_" d="m73.4 291.8c9.9 24 37.4 35.4 61.4 25.4 24-9.9 35.4-37.4 25.4-61.4-9.9-24-37.4-35.4-61.4-25.4-23.9 10-35.3 37.4-25.4 61.4z" fill="url(#XMLID_68_)"/></g><g id="XMLID_9540_"><path id="XMLID_9541_" d="m103.8 298.2c-1.9 0-3.7-1.1-4.4-3-1-2.4.1-5.2 2.6-6.3l26.8-11.1-28-11.6c-2.4-1-3.6-3.8-2.6-6.3 1-2.4 3.8-3.6 6.3-2.6l38.7 16c1.8.7 3 2.5 3 4.4s-1.2 3.7-3 4.4l-37.5 15.5c-.7.5-1.3.6-1.9.6z"/><path id="XMLID_11583_" d="m261.5 232.9c-1.2 0-2.5-.5-3.4-1.4-1.4-1.4-1.8-3.4-1-5.2l16-38.7c1-2.4 3.8-3.6 6.3-2.6 2.4 1 3.6 3.8 2.6 6.3l-11.6 28 26.8-11.1c2.4-1 5.2.1 6.3 2.6 1 2.4-.1 5.2-2.6 6.3l-37.5 15.5c-.7.2-1.3.3-1.9.3z"/></g></g></g><g id="XMLID_9529_"><g id="XMLID_9534_"><g id="XMLID_9536_"><g id="XMLID_11582_"><path id="XMLID_9533_" d="m306.3 384.3.1.3.3.1 23.2-9.6 7-16.8c.6-1.5.7-3 .3-4.5-.5-2.1-2-4-4.2-4.8l-3.8-1.6c-3.6-1.5-7.8.2-9.3 3.9l-4.1 9.8-33.8 14" fill="#fff"/><path id="XMLID_9535_" d="m306.7 387.9c-.4 0-.8-.1-1.2-.2l-.3-.1c-.8-.3-1.4-.9-1.7-1.7l-.1-.3c-.7-1.6.1-3.5 1.7-4.2.6-.3 1.3-.3 1.9-.2l20.5-8.5 6.5-15.7c.4-1 .3-1.9.2-2.5-.3-1.2-1.1-2.2-2.3-2.7l-3.8-1.6c-2-.8-4.3.1-5.2 2.1l-4.1 9.8c-.3.8-.9 1.4-1.7 1.7l-33.8 14c-1.6.7-3.5-.1-4.2-1.7s.1-3.5 1.7-4.2l32.6-13.5 3.6-8.6c2.2-5.3 8.2-7.8 13.5-5.6l3.8 1.6c3 1.2 5.2 3.8 6 7 .6 2.2.4 4.4-.4 6.5l-7 16.9c-.3.8-.9 1.4-1.7 1.7l-23.2 9.6c-.5.3-.9.4-1.3.4z" fill="#6d6e70"/></g></g><path id="XMLID_11581_" d="m328.5 360.7c-1.4 0-3-.4-4.7-1.2-2.1-1-4.4-3-4.6-5.7-.1-.9.6-1.6 1.5-1.7s1.6.6 1.7 1.5c.1 1.4 1.8 2.6 2.7 3 2.2 1 3.7 1 4 .8.8-.4 1.7-.1 2.1.7s.1 1.7-.7 2.1c-.5.4-1.2.5-2 .5z" fill="#6d6e70"/></g><g id="XMLID_9530_"><g id="XMLID_9532_"><g id="XMLID_11580_"><path id="XMLID_9527_" d="m216.1 421.6.1.3-.1.3-23.2 9.6-16.8-7c-1.5-.6-2.6-1.7-3.4-2.9-1.1-1.9-1.4-4.2-.5-6.4l1.6-3.8c1.5-3.6 5.7-5.4 9.3-3.9l9.8 4.1 33.8-14" fill="#fff"/><path id="XMLID_9531_" d="m192.8 435.1c-.4 0-.8-.1-1.2-.2l-16.9-7c-2-.8-3.7-2.3-4.9-4.3-1.7-2.8-1.9-6.2-.7-9.2l1.6-3.8c2.2-5.3 8.2-7.8 13.5-5.6l8.6 3.6 32.6-13.5c1.6-.7 3.5.1 4.2 1.7s-.1 3.5-1.7 4.2l-33.8 14c-.8.3-1.7.3-2.4 0l-9.8-4.1c-2-.8-4.3.1-5.2 2.1l-1.6 3.8c-.5 1.1-.4 2.4.3 3.5.3.5.9 1.2 1.9 1.6l15.6 6.5 20.5-8.5c.3-.5.8-1 1.5-1.2 1.6-.7 3.5.1 4.2 1.7l.1.3c.3.8.3 1.7 0 2.4l-.1.3c-.3.8-.9 1.4-1.7 1.7l-23.2 9.6c-.5.3-.9.4-1.4.4z" fill="#6d6e70"/></g></g><path id="XMLID_11579_" d="m181.4 421.9c-.7 0-1.3-.4-1.5-1.1-.3-.8.2-1.7 1-2 .4-.1 1.4-1.1 2.2-3.4.4-1 .7-3-.2-4.1-.6-.7-.5-1.7.2-2.3s1.7-.5 2.3.2c1.8 2.1 1.6 5.1.8 7.3-1 2.8-2.6 4.8-4.2 5.3-.2.1-.4.1-.6.1z" fill="#6d6e70"/></g></g></g><g id="XMLID_9523_"><g id="XMLID_11578_"><path id="XMLID_9526_" d="m216.2 462.3s-2.1-7.6-9.7-7.6c-6 0-9.7 5.6-9.7 13.2v4.6 5.9c0 3.9 3.2 7.1 7.1 7.1h4.1c3.9 0 7.1-3.2 7.1-7.1v-5.9h27.5" fill="#fff"/><path id="XMLID_11577_" d="m208.1 488.7h-4.1c-5.7 0-10.3-4.6-10.3-10.3v-10.5c0-9.7 5.3-16.4 12.9-16.4 7.9 0 11.8 6.5 12.8 9.9.5 1.7-.5 3.5-2.2 3.9-1.7.5-3.4-.5-3.9-2.2-.2-.6-1.7-5.3-6.6-5.3-4.5 0-6.5 5-6.5 10v10.5c0 2.2 1.8 3.9 3.9 3.9h4.1c2.2 0 3.9-1.8 3.9-3.9v-5.9c0-1.8 1.4-3.2 3.2-3.2h27.5c1.8 0 3.2 1.4 3.2 3.2s-1.4 3.2-3.2 3.2h-24.3v2.7c-.1 5.8-4.8 10.4-10.4 10.4z" fill="#6d6e70"/></g><g id="XMLID_9524_"><g id="XMLID_11576_"><path id="XMLID_9519_" d="m309.9 428.7v68.5c0 3.9-3.2 7.1-7.1 7.1h-4.1c-3.9 0-7.1-3.2-7.1-7.1v-36" fill="#fff"/><path id="XMLID_11575_" d="m302.7 507.5h-4.1c-5.7 0-10.3-4.6-10.3-10.3v-36c0-1.8 1.4-3.2 3.2-3.2s3.2 1.4 3.2 3.2v36c0 2.2 1.8 3.9 3.9 3.9h4.1c2.2 0 3.9-1.8 3.9-3.9v-68.5c0-1.8 1.4-3.2 3.2-3.2s3.2 1.4 3.2 3.2v68.5c0 5.7-4.6 10.3-10.3 10.3z" fill="#6d6e70"/></g><path id="XMLID_9525_" d="m276 456.5h19.7v12.8h-19.7z" fill="#fff"/></g></g></g></g></g></svg>