<svg id="Layer_1" enable-background="new 0 0 512 512" height="512" viewBox="0 0 512 512" width="512" xmlns="http://www.w3.org/2000/svg"><g><g><circle cx="156.809" cy="442.495" fill="#fff" r="23.828"/><path d="m156.809 467.617c-13.852 0-25.122-11.27-25.122-25.122s11.27-25.122 25.122-25.122 25.122 11.27 25.122 25.122-11.27 25.122-25.122 25.122zm0-47.657c-12.426 0-22.535 10.109-22.535 22.535s10.109 22.535 22.535 22.535 22.535-10.109 22.535-22.535-10.109-22.535-22.535-22.535z" fill="#3c2415"/></g><path d="m150.081 346.007c-2.678-2.033-5.487-4.372-8.313-6.928-2.619-2.351-4.972-4.607-7.186-6.891-5.94-6.044-11.491-12.723-16.487-19.843-1.879-2.636-3.695-5.396-5.386-8.19-1.966-3.183-3.73-6.279-5.383-9.442-1.748-3.357-3.125-6.184-4.336-8.903-2.314-5.058-4.462-10.514-6.372-16.198-3.4-10.124 2.074-21.143 12.202-24.567 6.095-2.045 12.795-.941 17.927 2.955 2.82 2.141 4.979 4.985 6.285 8.266.957.012 2.363.121 3.726 1.155.855.65 1.566 1.583 2.112 2.775 1.749 3.716-.614 6.202-1.621 7.264-.016.016-.029.031-.044.045 9.803 23.644 25.881 39.28 37.708 48.259 9.329 7.083 16.462 10.36 16.533 10.392l.64.291.383.59c5.44 8.367 5.471 18.933.077 26.292-4.964 6.772-12.488 8.303-15.493 8.646l-.603.068-.562-.224c-.303-.12-7.513-3.026-17.864-10.031-1.939-1.31-3.997-2.763-6.147-4.395-.589-.444-1.793-1.384-1.796-1.386z" fill="#4e2800"/><g><path d="m353.382 351.138c-1.281.808-2.531 1.569-3.746 2.282-12.589 7.408-21.438 10.131-21.808 10.244-4.783 1.485-9.849-7.727-12.44-13.35-1.988-4.312-7.953-18.703-1.285-22.911.423-.267.887-.482 1.378-.638.005-.003 7.394-2.654 17.292-8.9 12.554-7.922 29.915-22.105 41.742-44.837-.015-.018-.03-.036-.046-.055-.911-1.142-3.048-3.813-.976-7.379.633-1.119 1.422-1.987 2.33-2.56 1.447-.913 2.856-.901 3.812-.829 1.584-3.154 3.978-5.801 6.975-7.693 5.448-3.438 12.22-3.96 18.109-1.396 4.756 2.077 8.417 5.875 10.314 10.691 1.901 4.823 1.804 10.094-.272 14.842-1.96 4.515-4.12 8.939-6.599 13.518-1.576 2.903-3.255 5.801-4.994 8.617-1.884 3.008-3.945 6.069-6.129 9.111-2.081 2.926-4.249 5.687-5.904 7.766-5.163 6.289-10.8 12.194-16.778 17.577-2.537 2.289-5.097 4.449-7.606 6.42-2.66 2.122-5.548 4.248-8.814 6.485-1.551 1.062-3.074 2.06-4.555 2.995z" fill="#4e2800"/><path d="m412.552 277.684c-2.043 4.707-4.229 9.124-6.509 13.335-1.597 2.945-3.236 5.764-4.926 8.501-1.968 3.14-3.994 6.127-6.034 8.972-1.912 2.687-3.882 5.222-5.832 7.667-5.432 6.617-11.01 12.34-16.507 17.289-2.516 2.271-5.019 4.382-7.482 6.316-2.955 2.358-5.877 4.468-8.687 6.393-2.837 1.942-5.581 3.673-8.158 5.185-12.488 7.349-21.287 10.015-21.287 10.015-4.858 1.509-19.851-29.472-10.924-32.295 0 0 39.57-13.957 60.88-55.77.722-1.443-3.533-3.011-1.512-6.489 2.247-3.962 5.105-1.057 5.823-2.687 3.762-8.601 13.777-12.529 22.361-8.794 8.601 3.763 12.556 13.761 8.794 22.362z" fill="#fff"/><path d="m352.612 350.091c-14.162 8.936-24.685 12.278-25.119 12.411-1.102.346-2.362-.121-3.748-1.388-5.154-4.715-12.964-21.517-11.286-29.116.592-2.676 2.172-3.698 3.396-4.086.35-.126 39.32-14.317 60.132-55.17-.068.148-.388-.254-.592-.509-.88-1.112-2.518-3.18-.877-6.047 1.762-3.079 4.085-2.88 5.337-2.77.235.02.557.047.659.025 1.719-4.278 5.29-7.704 9.807-9.487 4.527-1.779 9.473-1.689 13.928.252 4.453 1.942 7.888 5.504 9.666 10.032 1.779 4.527 1.69 9.474-.251 13.929-16.508 37.88-42.053 59.934-61.052 71.924zm-36.509-19.633c-2.213 1.397-1.352 6.423-.848 8.632 2.34 10.267 9.633 21.363 11.519 21.093.005-.001.003 0 .007-.003.558-.167 56.191-17.673 84.657-82.984 1.683-3.86 1.76-8.145.218-12.069s-4.517-7.012-8.378-8.693c-3.857-1.682-8.145-1.76-12.067-.218-3.939 1.544-7.013 4.518-8.694 8.377-.625 1.434-2.03 1.314-2.871 1.244-1.133-.099-2.027-.174-3.019 1.557-.784 1.372-.254 2.159.674 3.333.627.791 1.486 1.875.852 3.119-21.262 41.741-61.132 56.23-61.526 56.37-.192.06-.365.142-.524.242z" fill="#4e2800"/></g><g><path d="m313.571 434.435s31.043-12.261 44.38-5.141 9.535 25.824 9.535 25.824 19.115-3.813 25.386 3.569c6.27 7.382-26.822 30.848-34.025 27.91s-11.162-18.217-11.162-18.217l-52.44 11.931z" fill="#fff"/><path d="m360.325 488.443c-.787 0-1.487-.113-2.082-.358-6.517-2.656-10.434-13.721-11.682-17.801l-50.959 11.591c-.586.135-1.192-.069-1.577-.521-.389-.455-.492-1.085-.27-1.64l18.327-45.875c.163-.411.489-.734.9-.897 1.295-.514 31.888-12.438 45.725-5.065 11.513 6.144 11.284 19.852 10.688 25.296 5.422-.787 19.177-2.026 24.7 4.475 1.37 1.612 2.22 4.62-1.518 9.782-6 8.286-23.945 21.01-32.252 21.013zm-12.639-21.668c.718 0 1.367.483 1.556 1.201 1.047 4.036 4.924 14.978 10.211 17.136 4.234 1.712 23.502-9.869 30.524-19.563 1.135-1.571 2.866-4.416 1.672-5.821-4.635-5.46-18.782-4.042-23.847-3.036-.514.113-1.066-.056-1.449-.442-.379-.379-.546-.925-.439-1.449.034-.176 3.39-17.628-8.718-24.089-11.513-6.147-37.938 3.305-42.394 4.971l-16.932 42.381 49.46-11.249c.121-.027.24-.04.356-.04z" fill="#3c2415"/></g><g><path d="m184.214 316.392s-20.416 2.513-12.773 20.73c0 0-9.632 5.235-3.246 13.611 0 0-53.92 132.987 90.251 136.066s71.51-135.647 71.51-135.647 12.564-10.051 1.675-17.799c-10.889-7.747-147.417-16.961-147.417-16.961z" fill="#fff"/><path d="m263.092 488.455c-1.541 0-3.1-.017-4.681-.05-43.198-.924-73.112-13.562-88.912-37.566-24.959-37.92-5.886-92.478-3.114-99.873-1.731-2.559-2.335-5.132-1.794-7.658.718-3.363 3.315-5.687 4.877-6.816-1.908-5.203-1.792-9.705.348-13.397 4.044-6.972 13.789-8.245 14.202-8.295.099-.013.201-.014.304-.009 14.02.947 137.296 9.468 148.239 17.255 3.301 2.349 5.021 5.164 5.11 8.366.141 4.972-3.814 9.319-5.722 11.119 4.56 9.11 32.136 67.616 8.632 105.537-12.913 20.838-38.973 31.387-77.489 31.387zm-78.818-170.449c-1.116.171-8.682 1.515-11.685 6.711-1.773 3.067-1.661 7.031.332 11.784.318.756.009 1.634-.709 2.029-.038.022-3.777 2.117-4.485 5.465-.381 1.808.205 3.748 1.744 5.764.345.452.425 1.051.212 1.577-.235.582-23.259 58.62 2.507 97.75 15.185 23.06 44.218 35.209 86.29 36.108 39.873.858 66.577-9.178 79.369-29.813 24.04-38.775-8.98-102.841-9.316-103.484-.356-.679-.18-1.516.417-1.998.056-.045 5.654-4.605 5.512-9.405-.063-2.139-1.33-4.1-3.763-5.833-8.615-6.13-108.45-14.09-146.425-16.655z" fill="#3c2415"/></g><g><g><path d="m377.443 103.097c14.103-26.545.589-57.211-21.105-64.773-21.269-7.414-50.307 7.412-56.559 36.155-12.797 45.726-22.96 91.111-29.457 114.94l68.584 5.117z" fill="#fff"/><path d="m269.538 190.449c-.408-.31-.608-.846-.465-1.371 2.535-9.296 5.636-21.909 9.227-36.513 5.538-22.525 12.431-50.557 20.233-78.435 3.046-14.015 11.933-26.09 24.364-33.053 11.035-6.182 23.379-7.63 33.866-3.975 10.729 3.739 19.594 12.804 24.322 24.869 5.3 13.524 4.398 28.713-2.472 41.682l-38.515 91.385c-.278.658-1.036.967-1.695.69-.659-.279-.967-1.037-.69-1.695l38.538-91.438c.015-.035.032-.07.05-.104 6.542-12.312 7.408-26.737 2.376-39.575-4.387-11.194-12.899-19.929-22.764-23.37-9.788-3.412-21.361-2.031-31.751 3.789-11.785 6.601-20.211 18.053-23.119 31.419-7.809 27.911-14.696 55.922-20.23 78.429-3.595 14.621-6.7 27.249-9.244 36.576-.188.689-.899 1.096-1.589.907-.165-.045-.314-.12-.442-.217z" fill="#4e2800"/></g><path d="m287.094 190.67 31.753-98.796s4.751-19.031 22.385-14.101c19.277 5.389 12.145 23.018 12.145 23.018l-30.479 90.058c-.001 0-18.196-14.337-35.804-.179z" fill="#fac"/><g><path d="m376.982 289.658c-.334-6.753-2.118-12.827-4.157-19.067-2.955-8.951-6.425-18.181-6.865-30.127-1.472-40.623-34.873-72.098-80.74-82.969-5.626-1.343-11.424-2.377-17.372-3.072-1.649-.193-3.302-.359-4.957-.497-74.514-6.354-127.326 42.886-130.936 95.796-.392 5.463-.243 10.989.486 16.473.347 2.891.884 5.804 1.562 8.678 1.136 4.819 2.748 9.31 4.753 13.491 2.397 5.049 5.368 9.644 8.74 13.848 6.495 8.084 23.632 23.077 44.108 31.525 15.398 5.541 35.433 11.136 59.262 13.852 30.479 3.474 56.431 1.015 75.18-2.262 21.751-8.732 36.452-18.376 40.27-23.041 3.357-4.102 6.075-8.827 7.943-14.254.568-1.578 1.031-3.196 1.45-4.901 1.173-4.879 1.499-9.309 1.273-13.473z" fill="#fff"/><path d="m191.421 335.332c-.145-.017-.288-.053-.428-.11-20.888-8.618-38.205-23.861-44.748-32.004-3.599-4.486-6.607-9.252-8.94-14.166-2.098-4.377-3.736-9.025-4.866-13.811-.714-3.034-1.25-6.014-1.592-8.857-.731-5.497-.897-11.15-.493-16.778 1.729-25.334 14.812-50.236 35.894-68.312 25.461-21.832 59.832-32.12 96.78-28.97 7.59.641 15.205 1.852 22.566 3.608 48.351 11.461 80.528 44.619 81.972 84.474.389 10.565 3.2 18.962 5.918 27.082l.866 2.599c1.952 5.976 3.885 12.399 4.237 19.492.25 4.639-.18 9.197-1.317 13.927-.465 1.902-.956 3.557-1.5 5.069-1.846 5.365-4.611 10.327-8.21 14.726-7.081 8.675-27.056 21.14-41.237 23.607-.872.152-1.705-.435-1.857-1.308s.433-1.705 1.308-1.857c13.527-2.353 32.56-14.22 39.3-22.475 3.358-4.105 5.937-8.736 7.668-13.762.512-1.424.97-2.975 1.407-4.758 1.063-4.418 1.465-8.673 1.231-13.004-.332-6.704-2.198-12.893-4.08-18.656l-.86-2.582c-2.791-8.337-5.676-16.956-6.082-27.984-1.39-38.371-32.599-70.348-79.506-81.467-7.208-1.719-14.65-2.9-22.094-3.532-36.087-3.077-69.618 6.941-94.419 28.207-20.434 17.521-33.11 41.613-34.781 66.099-.389 5.417-.23 10.849.477 16.151.328 2.743.843 5.604 1.531 8.523 1.076 4.56 2.637 8.99 4.639 13.164 2.23 4.695 5.103 9.248 8.545 13.539 6.334 7.883 23.14 22.657 43.469 31.044.819.339 1.21 1.278.873 2.098-.283.681-.976 1.065-1.671.984z" fill="#4e2800"/></g><ellipse cx="194.842" cy="271.221" fill="#fac" rx="11.641" ry="23.109" transform="matrix(.116 -.993 .993 .116 -97.169 433.252)"/><ellipse cx="343.965" cy="288.654" fill="#fac" rx="11.641" ry="23.109" transform="matrix(.116 -.993 .993 .116 17.323 596.775)"/><g fill="#4e2800"><path d="m293.947 243.385c-.413 3.533-12.668 5.004-12.668 5.004s-11.585-4.258-11.172-7.791 5.74-2.821 12.323-2.051c6.583.769 11.93 1.305 11.517 4.838z"/><path d="m275.669 247.678h11.084v2.587h-11.084z" transform="matrix(.116 -.993 .993 .116 1.269 499.371)"/></g><g><path d="m221.987 64.32c-1.361-30.028-28.596-49.555-51.12-45.03-22.083 4.436-39.541 31.972-30.303 59.898 12.243 45.878 26.581 90.122 33.107 113.942l61.651-30.483z" fill="#fff"/><path d="m173.521 194.416c-.509-.059-.954-.419-1.098-.944-2.546-9.293-6.292-21.729-10.63-36.13-6.69-22.21-15.016-49.851-22.48-77.821-4.507-13.616-2.998-28.532 4.163-40.851 6.356-10.936 16.247-18.462 27.135-20.65 11.139-2.239 23.383 1.057 33.59 9.038 11.443 8.947 18.393 22.484 19.075 37.144l13.327 98.27c.096.708-.4 1.36-1.109 1.456-.709.095-1.36-.401-1.456-1.108l-13.334-98.327c-.005-.038-.008-.077-.01-.115-.631-13.928-7.223-26.787-18.086-35.281-9.471-7.405-21.243-10.597-31.487-8.54-10.163 2.041-19.424 9.117-25.408 19.413-6.788 11.678-8.218 25.824-3.922 38.811 7.475 28.003 15.795 55.622 22.479 77.814 4.343 14.417 8.093 26.868 10.648 36.192.189.689-.217 1.401-.906 1.589-.164.047-.33.059-.491.04z" fill="#4e2800"/></g><path d="m188.749 185.675-22.919-101.21s-5.59-18.801 12.099-23.527c19.338-5.166 22.165 13.64 22.165 13.64l19.571 93.039c0-.001-22.958-3.088-30.916 18.058z" fill="#fac"/><g><g><g fill="#4e2800"><path d="m212.979 263.913c-5.042-.322-9.05-2.201-11.915-5.588-5.323-6.289-6.647-17.228-4.426-36.575.232-2.032 2.078-3.515 4.1-3.256 2.032.233 3.489 2.068 3.256 4.1-1.886 16.432-.995 26.555 2.722 30.947 1.589 1.877 3.811 2.883 6.931 2.993 11.098.576 12.168-2.906 14.523-27.405l.504-5.182c.202-2.035 2.055-3.557 4.05-3.318 2.035.202 3.52 2.015 3.318 4.05l-.501 5.158c-2.173 22.615-3.372 35.073-22.278 34.092-.094-.003-.189-.01-.284-.016z"/><path d="m334.166 273.738c-5.042-.322-9.051-2.201-11.916-5.588-5.323-6.29-6.647-17.228-4.426-36.575.233-2.032 2.078-3.515 4.1-3.256 2.032.233 3.489 2.068 3.256 4.1-1.886 16.432-.995 26.555 2.722 30.947 1.591 1.878 3.781 2.882 6.932 2.993 11.097.576 12.167-2.906 14.522-27.405l.504-5.182c.202-2.035 2.05-3.558 4.05-3.318 2.035.202 3.52 2.015 3.318 4.05l-.501 5.159c-2.173 22.614-3.372 35.072-22.277 34.091-.094-.003-.189-.01-.284-.016z"/></g></g><g><path d="m272.406 312.362c-7.717-1.091-9.028-17.167-6.982-31.641 2.046-14.476 7.762-29.558 15.479-28.467s9.028 17.167 6.982 31.642-7.762 29.557-15.479 28.466z" fill="#4e2800"/><ellipse clip-rule="evenodd" cx="276.655" cy="282.308" fill="#fff" fill-rule="evenodd" rx="27.85" ry="8.839" transform="matrix(.14 -.99 .99 .14 -41.598 516.725)"/></g></g></g><path d="m296.849 364.265c-.754 0-1.427-.533-1.576-1.303-.166-.87.403-1.712 1.275-1.88 20.711-3.984 32.438-11.218 32.554-11.292.75-.469 1.739-.245 2.213.508.472.751.245 1.742-.507 2.213-.491.309-12.301 7.616-33.655 11.726-.101.019-.203.028-.304.028z" fill="#4e2800"/><circle cx="291.723" cy="363.656" fill="#4e2800" r="1.543"/><g><path d="m182.444 456.178s-12.954-9.019-20.333-6.559-17.218 41.816-7.653 43.337c9.566 1.521 21.592-13.819 21.592-13.819s9.293 16.672 24.051 13.392c14.759-3.28 30.337-32.797 30.337-32.797z" fill="#fff"/><path d="m155.8 494.665c-.536 0-1.066-.041-1.593-.122-2.092-.332-4.695-2.064-5.218-8.417-.919-11.161 5.56-35.68 12.613-38.032 8.05-2.678 21.203 6.379 21.761 6.768.728.505.906 1.505.398 2.233-.502.728-1.502.913-2.233.401-3.421-2.38-13.498-8.173-18.911-6.354-4.34 1.446-11.412 22.79-10.428 34.72.157 1.932.696 5.218 2.518 5.507 7.075 1.16 16.891-9.167 20.077-13.225.332-.42.809-.662 1.389-.608.533.041 1.013.348 1.276.815.085.157 8.878 15.605 22.301 12.61 13.874-3.083 29.116-31.69 29.266-31.979.414-.787 1.392-1.079 2.17-.671.784.414 1.085 1.386.671 2.17-.652 1.232-16.104 30.213-31.411 33.616-12.717 2.829-21.486-7.727-24.581-12.243-3.375 3.866-12.052 12.811-20.065 12.811z" fill="#3c2415"/></g><g><path d="m176.779 359.584s-7.151-2.849-17.406-9.788c-2.425-1.639-5.041-3.504-7.79-5.672-2.66-2.02-5.402-4.303-8.201-6.831-2.326-2.088-4.695-4.331-7.07-6.779-5.459-5.556-10.977-12.043-16.244-19.55-1.816-2.548-3.579-5.217-5.297-8.053-1.826-2.959-3.6-6.039-5.308-9.312-1.461-2.802-2.915-5.721-4.271-8.767-2.289-5.004-4.397-10.354-6.29-15.985-2.979-8.875 1.798-18.513 10.692-21.518 8.875-2.98 18.513 1.798 21.518 10.692.574 1.686 3.673-.961 5.569 3.18 1.713 3.639-2.636 4.853-2.067 6.334 17.619 43.496 55.837 60.818 55.837 60.818 4.936 7.593 4.941 17.021.152 23.555-4.761 6.495-12.335 7.507-13.824 7.676z" fill="#fff"/><path d="m152.365 346.16c-17.893-13.585-41.436-37.761-54.614-76.927-1.549-4.606-1.211-9.543.952-13.899 2.162-4.357 5.891-7.61 10.496-9.16 9.497-3.192 19.814 1.919 23.037 11.387.006-.104.271-.103.473-.104 1.254-.003 3.588.001 5.076 3.22 1.387 2.998-.424 4.917-1.396 5.949-.225.237-.562.595-.62.736 17.206 42.252 54.79 59.72 55.168 59.893.601.263.883.995.603 1.607-.277.611-.996.882-1.607.603-.384-.171-38.851-18.05-56.43-61.471-.523-1.295.426-2.301 1.119-3.035 1.026-1.089 1.622-1.828.959-3.263-.838-1.808-1.735-1.812-2.873-1.811-.843-.002-2.254.002-2.752-1.489-2.775-8.24-11.736-12.694-19.98-9.92-3.992 1.342-7.223 4.161-9.098 7.938-1.875 3.776-2.168 8.052-.825 12.043 22.721 67.532 76.631 89.77 77.175 89.984.625.252.925.958.676 1.578-.248.623-.955.926-1.578.678-.237-.095-10.502-4.319-23.961-14.537z" fill="#4e2800"/></g></g></svg>