<svg id="Layer_1" enable-background="new 0 0 512 512" height="512" viewBox="0 0 512 512" width="512" xmlns="http://www.w3.org/2000/svg" xmlns:xlink="http://www.w3.org/1999/xlink"><linearGradient id="lg1"><stop offset="0" stop-color="#e87d73"/><stop offset="1" stop-color="#ffc8ed"/></linearGradient><linearGradient id="SVGID_1_" gradientTransform="matrix(-1 0 0 1 -3792.433 0)" gradientUnits="userSpaceOnUse" x1="-3847.422" x2="-3902.743" xlink:href="#lg1" y1="155.268" y2="176.637"/><linearGradient id="SVGID_00000178888933401571289750000007355115637171268746_" gradientTransform="matrix(-.809 .588 .588 .809 -3055.746 751.988)" gradientUnits="userSpaceOnUse" x1="-2786.572" x2="-2841.894" xlink:href="#lg1" y1="1430.515" y2="1451.884"/><linearGradient id="SVGID_00000102534664683910828580000004298834083275382151_" gradientTransform="matrix(-.986 .165 .165 .986 -3654.923 236.508)" gradientUnits="userSpaceOnUse" x1="-3648.322" x2="-3703.644" xlink:href="#lg1" y1="579.416" y2="600.785"/><linearGradient id="SVGID_00000125572521966200432590000003277925051370836409_" gradientUnits="userSpaceOnUse" x1="468.459" x2="413.137" xlink:href="#lg1" y1="155.268" y2="176.637"/><linearGradient id="SVGID_00000051363049583856812500000009541026789781243563_" gradientTransform="matrix(.809 .588 -.588 .809 -736.687 751.988)" gradientUnits="userSpaceOnUse" x1="693.981" x2="638.659" xlink:href="#lg1" y1="-1102.764" y2="-1081.395"/><linearGradient id="SVGID_00000005973138064754770430000017833834376510131882_" gradientTransform="matrix(.986 .165 -.165 .986 -137.51 236.508)" gradientUnits="userSpaceOnUse" x1="596.088" x2="540.767" xlink:href="#lg1" y1="-129.364" y2="-107.995"/><g><g><path d="m373.519 334.416s-.892 12.206-3.961 29.728c-1.726 9.89-4.146 21.471-7.47 33.504-2.061 7.435-4.47 15.044-7.284 22.525-3.775 10.064-8.281 19.919-13.642 28.86-.475.799-.961 1.587-1.459 2.374-11.546 18.367-26.914 32.45-47.297 35.762-.44.069-.869.139-1.309.197-13.561 1.888-24.204 1.506-32.519-.347-7.47-1.656-13.086-5.084-17.279-9.462-15.959-16.642-11.616-47.1-11.616-47.1l-33.585.486s-3.011 26.208-20.753 41.958c-9.253 8.211-22.513 13.584-41.448 10.921-.023 0-.046-.012-.07-.012-.44-.058-.88-.139-1.32-.22-17.58-3.22-26.914-20.012-31.512-41.124-.834-3.833-1.517-7.806-2.061-11.87v-.012c-.903-6.717-1.436-13.654-1.691-20.602v-.012c-.208-5.455-.243-10.909-.15-16.225.174-10.886.869-21.216 1.679-29.971v-.012c1.424-15.379 3.208-25.895 3.208-25.895z" fill="#ffc8ed"/><g fill="#f598d5"><path d="m196.099 430.943s-3.011 26.208-20.753 41.958c-9.253 8.211-22.513 13.584-41.448 10.921-.023 0-.046-.012-.07-.012-.44-.058-.88-.139-1.32-.22-17.58-3.22-26.914-20.012-31.512-41.124 14.512 17.024 42.989 29.693 95.103-11.523z"/><path d="m339.703 451.406c-11.546 18.367-26.914 32.45-47.297 35.762-.44.069-.869.139-1.309.197-13.561 1.888-24.204 1.506-32.519-.347-7.47-1.656-13.086-5.084-17.279-9.462-15.959-16.642-11.616-47.1-11.616-47.1s46.891 65.27 105.317 24.088c1.622-1.146 3.197-2.188 4.703-3.138z"/><path d="m196.102 424.46v-53.277l51.066 1.254-22.435 51.587z"/></g><g><g fill="#f08074"><circle cx="93.988" cy="158.725" r="9.446"/><circle cx="80.9" cy="149.279" r="9.446"/><circle cx="64.858" cy="145.802" r="9.446"/><circle cx="52.144" cy="154.667" r="9.446"/><circle cx="57.738" cy="169.866" r="9.446"/><circle cx="72.62" cy="176.879" r="9.446"/><circle cx="89.331" cy="178.462" r="9.446"/></g><path d="m53.943 153.504c13.012-25.894 65.941 20.79 65.941 20.79l-3.785 12.771c0-.001-76.202-5.607-62.156-33.561z" fill="url(#SVGID_1_)"/></g><g><g fill="#f08074"><circle cx="72.744" cy="249.317" r="9.446"/><circle cx="56.604" cy="249.377" r="9.446"/><circle cx="41.585" cy="256.003" r="9.446"/><circle cx="36.52" cy="270.651" r="9.446"/><circle cx="49.984" cy="279.651" r="9.446"/><circle cx="66.144" cy="276.567" r="9.446"/><circle cx="80.589" cy="268.017" r="9.446"/></g><path d="m37.29 268.652c-4.711-28.594 65.553-21.981 65.553-21.981l4.452 12.554c.001 0-64.919 40.296-70.005 9.427z" fill="url(#SVGID_00000178888933401571289750000007355115637171268746_)"/></g><g><g fill="#f08074"><circle cx="78.042" cy="204.08" r="9.446"/><circle cx="63.578" cy="196.918" r="9.446"/><circle cx="47.181" cy="196.13" r="9.446"/><circle cx="36.102" cy="206.969" r="9.446"/><circle cx="44.123" cy="221.038" r="9.446"/><circle cx="59.956" cy="225.505" r="9.446"/><circle cx="76.7" cy="224.314" r="9.446"/></g><path d="m37.685 205.525c8.569-27.684 68.465 9.644 68.465 9.644l-1.63 13.22c-.001 0-76.086 7.022-66.835-22.864z" fill="url(#SVGID_00000102534664683910828580000004298834083275382151_)"/></g><path d="m437.863 261.774c-11.245 58.113-72.3 116.828-203.569 116.516-76.503-.185-158.207-30.933-173.841-108.826-1.285-6.393-2.119-13.098-2.478-20.139-.753-14.013 4.586-118.704 118.531-149.88.012 0 .035-.012.058-.012 23.984-6.566 52.786-9.855 87.343-8.373 29.89-.023 54.627 2.988 75.102 8.28 89.358 23.104 97.685 89.601 100.592 135.971.544 8.663-.012 17.557-1.738 26.463z" fill="#f598d5"/><path d="m437.863 261.774c-17.893 49.23-80.418 95.357-203.951 95.091-73.133-.151-150.922-25.084-173.459-87.401-1.285-6.393-2.119-13.098-2.478-20.139-.753-14.013 4.586-118.704 118.531-149.88.012 0 .035-.012.058-.012 24.146-5.802 53.017-8.697 87.529-7.354 29.682-.023 54.372 2.617 74.917 7.261 89.358 23.104 97.685 89.601 100.592 135.971.543 8.663-.013 17.557-1.739 26.463z" fill="#ffc8ed"/><path d="m382.909 270.049c-.959 0-1.737-.778-1.737-1.737v-46.322c0-.959.778-1.737 1.737-1.737s1.737.778 1.737 1.737v46.322c0 .959-.778 1.737-1.737 1.737z" fill="#570700"/><path d="m372.561 289.922c-.959 0-1.737-.778-1.737-1.737v-46.322c0-.959.778-1.737 1.737-1.737s1.737.778 1.737 1.737v46.322c0 .959-.778 1.737-1.737 1.737z" fill="#570700"/><path d="m362.951 283.568c-.959 0-1.737-.778-1.737-1.737v-46.323c0-.959.778-1.737 1.737-1.737s1.737.778 1.737 1.737v46.323c0 .96-.778 1.737-1.737 1.737z" fill="#570700"/><path d="m306.328 224.309c-1.698-.035-3.42-.254-5.134-.673-.382-.093-39.476-9.538-73.547-10.234-33.957-.694-61.245 4.58-61.518 4.628-16.518 2.915-24.917-3.819-25.069-14.025-.856-57.624 190.667-52.774 185.838 6.753-.699 8.621-11.209 13.742-20.57 13.551z" fill="#ffabdc"/><g><g fill="#f08074"><circle cx="429.459" cy="158.725" r="9.446"/><circle cx="442.547" cy="149.279" r="9.446"/><circle cx="458.589" cy="145.802" r="9.446"/><circle cx="471.303" cy="154.667" r="9.446"/><circle cx="465.709" cy="169.866" r="9.446"/><circle cx="450.827" cy="176.879" r="9.446"/><circle cx="434.116" cy="178.462" r="9.446"/></g><path d="m469.504 153.504c-13.012-25.894-65.941 20.79-65.941 20.79l3.785 12.771c0-.001 76.202-5.607 62.156-33.561z" fill="url(#SVGID_00000125572521966200432590000003277925051370836409_)"/></g><g><g fill="#f08074"><circle cx="439.675" cy="248.351" r="9.446"/><circle cx="455.815" cy="248.411" r="9.446"/><circle cx="470.834" cy="255.037" r="9.446"/><circle cx="475.899" cy="269.685" r="9.446"/><circle cx="462.435" cy="278.685" r="9.446"/><circle cx="446.275" cy="275.601" r="9.446"/><circle cx="431.83" cy="267.051" r="9.446"/></g><path d="m475.129 267.686c4.711-28.594-65.553-21.981-65.553-21.981l-4.452 12.554c-.001 0 64.919 40.296 70.005 9.427z" fill="url(#SVGID_00000051363049583856812500000009541026789781243563_)"/></g><g><g fill="#f08074"><circle cx="432.708" cy="204.08" r="9.446"/><circle cx="447.173" cy="196.918" r="9.446"/><circle cx="463.569" cy="196.13" r="9.446"/><circle cx="474.649" cy="206.969" r="9.446"/><circle cx="466.628" cy="221.038" r="9.446"/><circle cx="450.794" cy="225.505" r="9.446"/><circle cx="434.051" cy="224.314" r="9.446"/></g><path d="m473.066 205.525c-8.569-27.684-68.465 9.644-68.465 9.644l1.63 13.22s76.085 7.022 66.835-22.864z" fill="url(#SVGID_00000005973138064754770430000017833834376510131882_)"/></g><ellipse cx="192.299" cy="124.091" fill="#ffe6e6" rx="70.674" ry="19.252" transform="matrix(.971 -.239 .239 .971 -24.074 49.523)"/><g><g><ellipse cx="119.884" cy="196.988" fill="#c6e6ff" rx="46.977" ry="32.867" transform="matrix(.528 -.849 .849 .528 -110.706 194.827)"/><path d="m108.24 242.252c-5.548 0-10.683-1.52-15.052-4.533-7.892-5.441-12.287-14.973-12.379-26.841-.18-23.409 16.936-48.868 38.152-56.754 10.277-3.819 20.085-3.062 27.618 2.132 7.892 5.441 12.287 14.974 12.378 26.842.18 23.409-16.936 48.868-38.152 56.754-4.315 1.604-8.548 2.4-12.565 2.4zm-23.956-31.4c.082 10.702 3.944 19.229 10.876 24.008 6.573 4.532 15.252 5.15 24.435 1.735 19.959-7.417 36.059-31.404 35.889-53.471-.081-10.702-3.943-19.229-10.875-24.008-6.574-4.532-15.25-5.149-24.436-1.736-19.959 7.419-36.059 31.406-35.889 53.472z" fill="#570700"/></g></g><g><g><g><ellipse cx="343.535" cy="200.804" fill="#c6e6ff" rx="46.202" ry="52.267" transform="matrix(.515 -.857 .857 .515 -5.437 392.005)"/><path d="m348.954 250.407c-10.056 0-20.516-2.752-30.091-8.5-25.531-15.325-35.235-46.232-21.631-68.896s45.444-28.636 70.975-13.309c25.532 15.325 35.235 46.232 21.632 68.896-8.502 14.164-24.129 21.809-40.885 21.809zm-10.853-95.737c-15.568 0-30.036 7.045-37.89 20.129-12.618 21.022-3.448 49.791 20.439 64.13 23.889 14.339 53.589 8.901 66.21-12.119 12.618-21.021 3.448-49.79-20.44-64.13-9.022-5.414-18.874-8.01-28.319-8.01z" fill="#570700"/></g></g></g><g><g fill="#570700"><path d="m264.774 233.606c-28.871-9.867-86.278-5.582-86.278-5.582s1.506-2.722 3.914-6.717c6.763-11.187 20.718-32.322 29.149-31.72 5.57.405 18.309 10.828 29.925 21.425 12.276 11.199 23.29 22.594 23.29 22.594z"/><path d="m264.773 235.344c-.188 0-.377-.03-.562-.094-28.202-9.637-85.016-5.535-85.587-5.493-.638.04-1.247-.258-1.592-.795-.344-.538-.366-1.22-.057-1.779.015-.027 1.549-2.795 3.946-6.772 9.188-15.199 21.96-33.17 30.761-32.557 1.882.137 7.601.553 30.972 21.875 12.176 11.107 23.257 22.556 23.367 22.67.558.577.647 1.461.218 2.139-.325.512-.885.806-1.466.806zm-57.547-10.01c16.274 0 36.329.95 51.623 4.741-4.352-4.357-11.247-11.13-18.535-17.779-19.561-17.845-26.49-20.802-28.88-20.976-5.253-.334-15.793 11.463-27.537 30.887-.899 1.493-1.676 2.812-2.292 3.874 4.777-.286 14.281-.747 25.621-.747z"/></g><g><path d="m264.774 233.606c-28.871-9.867-86.278-5.582-86.278-5.582s1.506-2.722 3.914-6.717c8.72-7.91 23.034-13.063 39.225-13.063 7.076 0 13.804.984 19.85 2.768 12.275 11.199 23.289 22.594 23.289 22.594z" fill="#ff598c"/><path d="m271.029 237.58-6.817-2.33c-28.202-9.638-85.016-5.536-85.587-5.494l-3.205.239 1.557-2.812c.015-.027 1.549-2.795 3.946-6.772l.131-.219.189-.171c9.329-8.462 24.43-13.514 40.392-13.514 7.113 0 13.957.956 20.341 2.839l.384.113.296.27c12.176 11.107 23.257 22.556 23.367 22.67zm-63.803-12.246c16.274 0 36.329.95 51.623 4.741-4.293-4.298-11.06-10.946-18.237-17.508-5.957-1.716-12.339-2.585-18.977-2.585-15.015 0-29.146 4.647-37.87 12.444-.844 1.403-1.574 2.645-2.16 3.655 4.777-.286 14.281-.747 25.621-.747z" fill="#570700"/></g></g><circle cx="339.809" cy="197.521" fill="#570700" r="8.525"/><circle cx="119.771" cy="196.918" fill="#570700" r="8.525"/></g><path d="m103.012 115.333c-.283 0-.571-.07-.838-.217l-51.786-28.595c-.662-.366-1.012-1.118-.863-1.86.147-.742.759-1.303 1.511-1.387l37.801-4.206 1.261-50.17c.016-.634.376-1.209.939-1.5.564-.291 1.241-.252 1.768.103l43.83 29.514 13.861-34.272c.296-.732 1.051-1.173 1.834-1.071.784.102 1.4.721 1.5 1.505l7.187 56.907c.12.952-.554 1.821-1.506 1.941-.956.12-1.82-.555-1.941-1.506l-6.352-50.295-12.166 30.081c-.196.485-.602.856-1.103 1.01-.499.152-1.044.072-1.479-.22l-42.98-28.944-1.22 48.52c-.021.868-.681 1.587-1.544 1.683l-33.873 3.769 47 25.952c.84.463 1.145 1.521.681 2.36-.316.574-.91.898-1.522.898z" fill="#7fc3ff"/></g></svg>