<svg id="Layer_1" enable-background="new 0 0 512 512" height="512" viewBox="0 0 512 512" width="512" xmlns="http://www.w3.org/2000/svg"><g><g><path d="m386.925 292.983c-1.543.838-3.047 1.624-4.507 2.357-15.127 7.618-25.57 10.098-26.007 10.2-5.646 1.356-10.809-9.686-13.382-16.388-1.974-5.139-7.785-22.242.248-26.605.51-.277 1.062-.49 1.642-.633.006-.003 8.756-2.511 20.681-8.987 15.125-8.215 36.285-23.309 51.69-48.714-.016-.022-.032-.044-.049-.067-.968-1.39-3.238-4.643-.57-8.612.817-1.246 1.795-2.192 2.89-2.786 1.743-.947 3.373-.826 4.473-.671 2.072-3.529 5.042-6.411 8.653-8.372 6.563-3.565 14.438-3.656 21.058-.244 5.345 2.764 9.293 7.435 11.123 13.15 1.834 5.724 1.323 11.815-1.439 17.151-2.61 5.076-5.443 10.03-8.659 15.141-2.044 3.239-4.206 6.465-6.43 9.592-2.408 3.337-5.023 6.723-7.781 10.077-2.629 3.228-5.347 6.258-7.419 8.538-6.45 6.886-13.419 13.29-20.743 19.066-3.108 2.456-6.234 4.762-9.286 6.852-3.239 2.254-6.741 4.495-10.689 6.836-1.875 1.11-3.712 2.15-5.497 3.119z" fill="#4e2800"/><path d="m460.946 212.48c-2.72 5.291-5.584 10.236-8.541 14.935-2.071 3.286-4.181 6.423-6.344 9.462-2.514 3.484-5.085 6.787-7.661 9.923-2.415 2.964-4.887 5.747-7.328 8.429-6.785 7.245-13.673 13.443-20.407 18.753-3.083 2.437-6.139 4.69-9.135 6.741-3.597 2.505-7.138 4.724-10.535 6.739-3.43 2.032-6.735 3.827-9.831 5.382-15.005 7.557-25.387 9.975-25.387 9.975-5.735 1.377-20.735-35.602-10.193-38.192 0 0 46.839-13.152 74.66-59.914.945-1.615-3.859-3.751-1.258-7.622 2.899-4.414 5.986-.836 6.941-2.668 5.004-9.667 16.888-13.452 26.537-8.481 9.668 5.004 13.486 16.871 8.482 26.538z" fill="#97381a"/><path d="m386.114 291.714c-17.061 9.267-29.49 12.336-30.002 12.457-1.301.317-2.724-.318-4.231-1.89-5.606-5.846-13.37-25.877-10.853-34.541.887-3.052 2.793-4.114 4.238-4.47.415-.12 46.577-13.587 73.75-59.276-.09.167-.43-.323-.646-.634-.933-1.353-2.673-3.87-.557-7.063 2.271-3.429 4.944-3.022 6.384-2.801.271.041.64.097.761.079 2.313-4.819 6.704-8.513 12.065-10.234 5.372-1.716 11.088-1.237 16.095 1.346 5.005 2.584 8.709 6.965 10.423 12.339 1.716 5.372 1.238 11.09-1.345 16.097-21.968 42.575-53.193 66.157-76.082 78.591zm-40.754-25.48c-2.666 1.448-2.05 7.329-1.635 9.923 1.93 12.056 9.527 25.446 11.729 25.276.006-.001.004 0 .009-.003.659-.151 66.35-16.191 104.231-89.6 2.239-4.338 2.653-9.29 1.166-13.947-1.486-4.657-4.695-8.455-9.035-10.693-4.336-2.238-9.29-2.653-13.945-1.165-4.675 1.488-8.456 4.696-10.694 9.033-.831 1.612-2.448 1.367-3.416 1.222-1.303-.201-2.332-.355-3.611 1.572-1.011 1.528-.458 2.479.527 3.907.666.963 1.577 2.282.749 3.673-27.761 46.683-74.986 60.428-75.453 60.559-.224.058-.43.139-.622.243z" fill="#4e2800"/></g><path d="m162.01 283.867c-3.105-2.357-6.362-5.07-9.639-8.032-3.037-2.726-5.764-5.342-8.331-7.989-6.888-7.007-13.324-14.752-19.116-23.007-2.179-3.056-4.285-6.257-6.245-9.496-2.279-3.691-4.325-7.28-6.241-10.947-2.026-3.892-3.623-7.17-5.028-10.323-2.683-5.865-5.173-12.191-7.388-18.781-3.942-11.738 2.405-24.515 14.148-28.485 7.066-2.371 14.835-1.091 20.785 3.426 3.27 2.482 5.772 5.78 7.287 9.584 1.11.014 2.74.14 4.32 1.34.992.753 1.816 1.835 2.449 3.218 2.027 4.308-.712 7.191-1.88 8.423-.018.018-.034.036-.051.052 11.366 27.414 30.008 45.543 43.721 55.954 10.817 8.212 19.087 12.012 19.169 12.049l.742.337.444.684c6.308 9.701 6.343 21.952.089 30.485-5.756 7.852-14.479 9.627-17.963 10.025l-.699.079-.652-.26c-.351-.139-8.711-3.509-20.713-11.63-2.248-1.519-4.635-3.204-7.127-5.096-.682-.518-2.078-1.607-2.081-1.61z" fill="#4e2800"/><g><path d="m341.316 372.986s35.993-14.216 51.457-5.96 11.056 29.942 11.056 29.942 22.163-4.421 29.434 4.138c7.27 8.56-31.099 35.767-39.45 32.36-8.351-3.406-12.942-21.122-12.942-21.122l-60.802 13.833z" fill="#97381a"/><path d="m395.525 435.606c-.913 0-1.724-.131-2.414-.415-7.556-3.08-12.098-15.908-13.545-20.639l-59.084 13.439c-.68.156-1.382-.08-1.829-.604-.451-.527-.571-1.258-.313-1.902l21.25-53.19c.189-.476.567-.851 1.044-1.04 1.502-.596 36.973-14.421 53.016-5.872 13.348 7.123 13.083 23.017 12.392 29.329 6.287-.913 22.235-2.349 28.639 5.189 1.589 1.869 2.574 5.356-1.76 11.341-6.958 9.608-27.764 24.36-37.396 24.364zm-14.654-25.122c.833 0 1.585.56 1.804 1.393 1.214 4.68 5.709 17.366 11.839 19.868 4.909 1.985 27.25-11.443 35.391-22.683 1.316-1.822 3.323-5.12 1.938-6.749-5.374-6.331-21.777-4.687-27.65-3.52-.596.131-1.236-.065-1.68-.513-.44-.44-.633-1.073-.509-1.68.04-.204 3.931-20.439-10.109-27.93-13.348-7.127-43.987 3.833-49.154 5.763l-19.632 49.139 57.346-13.043c.143-.031.281-.045.416-.045z" fill="#3c2415"/></g><g><path d="m187.579 422.339c-34.825-.001-77.851-12.813-100.084-29.803-19.86-15.177-45.652-55.898-40.862-85.163 2.356-14.395 11.819-24.801 27.366-30.091 7.079-2.409 13.559-3.631 19.26-3.631 26.551 0 34.282 24.739 42.467 50.931 3.307 10.584 6.728 21.528 11.505 31.162 11.493 23.175 34.74 28.038 52.218 28.038 7.781 0 13.227-1.038 13.281-1.049l4.365-.846-7.479 38.415-2.01.37c-6.001 1.106-12.739 1.667-20.023 1.667-.001 0-.002 0-.004 0z" fill="#4e2800"/><path d="m213.3 385.682-6.24 32.04c-2.63.48-5.37.86-8.21 1.11-10.64 1-22.63.48-34.86-1.24-6.86-.97-13.8-2.31-20.61-3.99-12.24-3.01-24.09-7.07-34.42-11.89-7.49-3.49-14.18-7.39-19.64-11.56-6.45-4.92-13.72-12.83-20.29-22.25-6.14-8.79-11.66-18.9-15.34-29.13-3.16-8.76-4.95-17.6-4.61-25.78.6-14.4 7.81-26.72 25.89-32.87 22.11-7.53 34.58-2.12 42.96 9.53 3.77 5.24 6.72 11.74 9.34 18.89 3.74 10.16 6.82 21.65 10.72 32.69 1.93 5.46 4.05 10.81 6.55 15.85.51 1.02 1.04 2.02 1.59 2.97 14.99 26.07 45.14 27.48 59.38 26.53 4.8-.32 7.79-.9 7.79-.9z" fill="#ff9823"/><g fill="#97381a"><path d="m89.22 304.412c-12.28 4.41-25.71 7.28-40.14 8.58.6-14.4 7.81-26.72 25.89-32.87 22.11-7.53 34.58-2.12 42.96 9.53-7.58 5.19-16.9 10.51-28.71 14.76z"/><path d="m132.67 345.372c-18.61 12.59-39.99 20.16-63.64 22.53-6.14-8.79-11.66-18.9-15.34-29.13 18.18-.1 40.9-3.86 62.16-18.25 3.66-2.48 7.66-6.97 11.42-11.98 3.74 10.16 6.82 21.65 10.72 32.69-1.74 1.53-3.51 2.91-5.32 4.14z"/><path d="m203.05 407.302c-1.12 4.17-2.56 8.01-4.2 11.53-10.64 1-22.63.48-34.86-1.24 3.83-4.15 7.94-10.13 10.09-18.09 1.54-5.71 1.67-11 1.24-15.38l-6.04-3.2c-5.66 10.43-12.76 19.9-21.22 28.29-1.55 1.53-3.11 2.99-4.68 4.39-12.24-3.01-24.09-7.07-34.42-11.89 6.06-3.54 12.18-8.06 17.99-13.82 8.08-8 14.52-17.35 19.18-27.84 14.99 26.07 45.14 27.48 59.38 26.53.17 6.99-.65 13.98-2.46 20.72z"/></g></g><g><path d="m276.852 431.63c-28.39-.61-50.15-5.55-66.72-13.35-.01-.01-.01-.01-.01-.01-81-38.14-37.91-144.4-37.91-144.4-7.41-9.71 3.76-15.78 3.76-15.78-8.86-21.12 14.81-24.04 14.81-24.04s10.81.73 27 1.97c45.78 3.5 134.6 11.06 143.93 17.7 12.62 8.98-1.95 20.63-1.95 20.63s84.25 160.85-82.91 157.28z" fill="#97381a"/><path d="m210.122 418.27c-81-38.14-37.91-144.4-37.91-144.4-7.41-9.71 3.76-15.78 3.76-15.78-8.86-21.12 14.81-24.04 14.81-24.04s10.81.73 27 1.97l-9.94 28.28s-19.3 3.2-11.89 14.82c-9.93 8.01-42.45 84.03 14.17 139.15z" fill="#ff9823"/><path d="m282.241 433.552c-1.787 0-3.594-.02-5.427-.058-50.087-1.071-84.77-15.725-103.09-43.556-28.939-43.967-6.825-107.224-3.611-115.798-2.007-2.967-2.707-5.951-2.08-8.88.833-3.9 3.843-6.594 5.654-7.903-2.213-6.032-2.078-11.252.404-15.534 4.689-8.083 15.988-9.56 16.466-9.618.115-.015.233-.016.353-.011 16.256 1.098 159.189 10.978 171.877 20.006 3.827 2.723 5.822 5.987 5.925 9.7.164 5.765-4.422 10.805-6.634 12.892 5.287 10.563 37.26 78.398 10.009 122.365-14.973 24.163-45.188 36.395-89.846 36.395zm-91.386-197.628c-1.294.198-10.067 1.756-13.548 7.781-2.056 3.556-1.925 8.152.385 13.663.369.876.011 1.894-.822 2.353-.044.025-4.38 2.454-5.2 6.336-.442 2.096.238 4.345 2.022 6.683.4.524.493 1.218.245 1.829-.273.675-26.968 67.968 2.907 113.336 17.606 26.737 51.268 40.823 100.05 41.865 46.23.995 77.193-10.641 92.025-34.567 27.873-44.958-10.412-119.24-10.801-119.985-.413-.787-.209-1.758.484-2.316.065-.053 6.556-5.34 6.391-10.905-.073-2.48-1.542-4.754-4.363-6.763-9.99-7.107-125.745-16.336-169.775-19.31z" fill="#3c2415"/><g fill="#4e2800"><path d="m321.381 289.559c-.874 0-1.654-.618-1.827-1.511-.193-1.009.467-1.985 1.478-2.18 24.013-4.62 37.611-13.007 37.745-13.092.869-.544 2.016-.284 2.565.589.547.871.284 2.02-.587 2.565-.569.358-14.263 8.83-39.022 13.596-.117.022-.236.033-.352.033z"/><circle cx="315.438" cy="288.853" r="1.789"/></g></g><g><g><path d="m302.07 57.445s58.522-40.492 75.928-23.611 2.305 110.478-13.133 125.427-83.117-88.526-62.795-101.816z" fill="#f8f8f8"/><path d="m361.011 162.105c-1.038-.009-2.226-.213-3.588-.696-19.275-6.845-57.017-63.957-60.272-91.208-.824-6.873.573-11.549 4.151-13.899 2.624-1.813 59.675-40.892 77.655-23.457 6.785 6.578 8.201 22.875 8.197 35.387-.014 35.362-10.78 81.802-21.331 92.019-.982.951-2.526 1.874-4.812 1.854zm4.993-131.072c-22.729-.198-62.671 27.213-63.15 27.545l-.031.02c-2.639 1.725-3.627 5.519-2.938 11.276 3.1 25.952 40.254 82.473 58.459 88.939 2.468.881 4.287.697 5.561-.542 9.946-9.63 20.479-55.912 20.491-90.04.008-16.934-2.605-28.798-7.359-33.409-2.708-2.629-6.533-3.75-11.033-3.789z" fill="#4e2800"/></g><path d="m338.89 59.33s18.518-3.995 23.239-.967 5.337 25.051 5.337 25.051-18.126-21.282-28.576-24.084z" fill="#97381a"/><g><path d="m222.727 56.755s-76.398-41.665-99.705-25.138-5.27 110.412 14.798 125.67 111.452-86.834 84.907-100.532z" fill="#f8f8f8"/><path d="m142.816 160.421c-2.346-.02-4.337-.645-5.951-1.875-13.659-10.381-26.976-56.977-26.388-92.327.21-12.762 2.4-29.348 11.63-35.893 23.814-16.876 97.996 23.198 101.361 25.032 3.741 1.936 5.688 5.561 5.636 10.486-.253 23.752-47.276 77.87-74.812 91.343-4.464 2.182-8.296 3.261-11.476 3.234zm-3.977-131.149c-6.038-.053-11.2 1.011-14.9 3.635-6.359 4.509-10.016 16.358-10.297 33.364-.564 33.904 12.358 80.041 25.137 89.756 3.46 2.631 9.588.536 14.123-1.682 26.239-12.839 72.801-66.142 73.039-88.534.042-3.759-1.247-6.261-3.939-7.649l-.031-.017c-.632-.344-52.878-28.61-83.132-28.873z" fill="#4e2800"/></g><path d="m175.217 65.179c-4.008-2.725-10.909-6.678-20.327-8.661-8.143-1.715-15.066-1.303-19.588-.675-1.146 3.702-2.351 9.238-1.957 15.941.676 11.509 5.672 19.776 8.28 23.504 3.632-5.202 8.857-11.62 16.114-17.939 6.291-5.477 12.404-9.396 17.478-12.17z" fill="#97381a"/><path d="m302.039 80.56c-.457-.004-.91-.207-1.222-.592-.544-.683-.437-1.677.245-2.225 1.432-1.148 35.305-27.985 60.14-21.809.848.211 1.366 1.07 1.155 1.918-.211.845-1.06 1.365-1.917 1.153-23.366-5.823-57.06 20.935-57.396 21.206-.297.238-.653.352-1.005.349z" fill="#4e2800"/><path d="m194.246 79.623c-.352-.003-.707-.124-.998-.366-.331-.275-33.576-27.609-57.019-22.201-.867.196-1.703-.338-1.897-1.186-.197-.852.336-1.701 1.188-1.898 24.956-5.737 58.343 21.681 59.751 22.852.672.559.762 1.555.206 2.229-.317.378-.773.574-1.231.57z" fill="#4e2800"/><g><path d="m406.352 200.948c-.268 2.023-.604 3.946-1.059 5.846-.108.491-.236.979-.364 1.468-1.419 5.562-3.641 10.598-6.5 15.135-.165.293-.35.583-.534.864-7.568 11.627-19.271 20.14-32.72 26.373-43.074 19.972-104.017 16.519-104.017 16.519s-15.452.4-36.186-2.75c-14.115-2.151-30.697-5.941-46.504-12.631-5.564-2.345-11.026-5.051-16.258-8.172-7.133-4.251-13.832-9.277-19.742-15.197-4.423-4.436-8.434-9.378-11.831-14.912-2.845-4.583-5.269-9.58-7.179-15-1.149-3.246-2.131-6.543-2.891-9.844-.252-1.026-.483-2.06-.694-3.092-1.106-5.245-1.739-10.565-1.93-15.884-2.44-61.605 52.453-125.116 139.375-127.08 1.93-.055 3.865-.07 5.785-.046 6.971.054 13.802.534 20.469 1.377 54.373 6.839 96.908 39.041 103.688 85.811 1.29 8.901 3.911 16.338 6.843 23.176 1.577 3.719 3.254 7.269 4.855 10.79 3.14 6.954 5.957 13.749 7.189 21.515.776 4.785.955 9.952.205 15.734z" fill="#ff9823"/><path d="m263.106 42.543c6.962.061 13.793.531 20.463 1.38 54.373 6.834 96.911 39.041 103.689 85.81 2.001 13.752 7.165 23.987 11.699 33.964 3.136 6.958 5.957 13.755 7.187 21.519.781 4.786.958 9.946.211 15.73-.271 2.023-.604 3.951-1.063 5.845-1.481 6.506-4.031 12.307-7.399 17.468-26.38 40.532-103.156 43.333-128.511 43.112-5.197-.045-8.229-.217-8.229-.217s-1.078.028-3.043.011c-14.764-.128-79.731-2.786-115.645-38.766-4.424-4.437-8.431-9.378-11.833-14.914-2.84-4.582-5.265-9.571-7.18-15-1.143-3.238-2.127-6.538-2.889-9.836-1.528-6.248-2.391-12.616-2.62-18.979-2.439-61.606 52.451-125.119 139.371-127.085 1.931-.044 3.862-.059 5.792-.042m.028-3.164c-1.965-.017-3.93-.002-5.896.045-43.446.983-82.213 17.313-109.153 45.984-22.346 23.781-34.484 54.54-33.303 84.39.239 6.638 1.15 13.238 2.708 19.606.751 3.248 1.756 6.672 2.979 10.137 1.931 5.475 4.446 10.728 7.474 15.614 3.356 5.462 7.49 10.674 12.281 15.481 37.061 37.129 104.68 39.582 117.858 39.696 1.628.014 2.669-.002 3.019-.009.64.033 3.57.174 8.252.215 30.554.266 104.501-3.543 131.19-44.55 3.692-5.657 6.328-11.88 7.833-18.492.439-1.808.806-3.827 1.114-6.128.742-5.748.668-11.193-.225-16.66-1.315-8.302-4.389-15.574-7.425-22.309l-1.34-2.928c-4.115-8.958-8.371-18.221-10.112-30.191-6.733-46.48-48.508-81.217-106.424-88.496-6.844-.872-13.854-1.345-20.83-1.405z" fill="#4e2800"/></g><path d="m406.352 200.948c-.268 2.023-.604 3.946-1.059 5.846-.108.491-.236.979-.364 1.468-1.419 5.562-3.641 10.598-6.5 15.135l-5.77-1.111-21.908-45.446s6.629-27.978 20.156-25.02c1.031.222 2.104.6 3.195 1.09 1.577 3.719 3.254 7.269 4.855 10.79 3.14 6.954 5.957 13.749 7.189 21.515.777 4.784.956 9.951.206 15.733z" fill="#f8f8f8"/><path d="m212.172 226.874s-19.512 14.906-33.704 24.898c-5.564-2.345-11.026-5.051-16.258-8.172-7.133-4.251-13.832-9.277-19.742-15.197-4.423-4.436-8.434-9.378-11.831-14.912-2.845-4.583-5.269-9.58-7.179-15-1.149-3.246-2.131-6.543-2.891-9.844-.252-1.026-.483-2.06-.694-3.092 13.401-17.909 42.936-39.199 52.609-38.063 12.504 1.469 26.002 20.795 26.002 20.795z" fill="#f8f8f8"/><path d="m404.929 208.262c-1.51 5.914-3.927 11.229-7.034 15.999-7.568 11.627-19.271 20.14-32.72 26.373-43.074 19.972-104.017 16.519-104.017 16.519s-15.452.4-36.186-2.75c-19.081-2.906-42.644-8.804-62.762-20.803-1.426-4.316-2.306-8.739-2.604-13.234-1.519-22.561 11.615-44.539 36.019-60.29 21.941-14.157 51.325-22.497 82.744-23.478 5.336-.169 10.727-.119 16.013.139 28.309 1.412 55.103 9.029 75.432 21.456 17.746 10.843 29.818 24.736 35.115 40.069z" fill="#97381a"/><path d="m348.209 257.118c-40.491 12.672-87.051 10.035-87.051 10.035s-6.495.168-16.713-.572c-18.499-1.34-35.685-10.713-46.091-26.067-6.286-9.275-9.72-19.667-9.505-30.586.742-37.61 44.487-67.24 97.697-66.186 53.22 1.055 95.755 32.391 95.003 70-.011.572-.033 1.142-.064 1.711-1.065 19.456-14.679 35.845-33.276 41.665z" fill="#f8f8f8"/><ellipse cx="193.317" cy="186.665" fill="#ff6f9b" rx="13.534" ry="26.865" transform="matrix(.009 -1 1 .009 4.978 378.351)"/><ellipse cx="367.856" cy="188.183" fill="#ff6f9b" rx="13.534" ry="26.865" transform="matrix(.009 -1 1 .009 176.481 554.388)"/><path d="m334.365 92.984s11.057-11.555 25.759-6.229 7.116 13.004 2.124 11.732c-4.991-1.272-14.568-7.195-27.883-5.503z" fill="#f8f8f8"/><path d="m217.457 91.93s-11.47-11.146-25.969-5.29-6.639 13.254-1.697 11.801c4.943-1.451 14.298-7.719 27.666-6.511z" fill="#f8f8f8"/><path d="m305.594 152.51c-.224 4.628-11.65 10.267-11.65 10.267s-15.943-7.245-15.719-11.873 7.552-5.328 16.53-4.895c8.976.434 11.062 1.874 10.839 6.501z" fill="#4e2800"/><path clip-rule="evenodd" d="m261.083 208.987c-.28-19.077 24.157-39.631 32.097-40.621s27.477 10.018 31.197 32.758c5.015 30.648-62.914 33.734-63.294 7.863z" fill="#4e2800" fill-rule="evenodd"/><path clip-rule="evenodd" d="m274.849 184.464c13.511 2.278 33.144 8.932 44.863 28.087-1.163 1.69-2.675 3.188-4.441 4.495-5.357 3.964-12.961 6.234-20.711 6.881-9.287.775-18.819-.768-24.984-4.828-3.681-2.424-6.098-5.775-6.162-10.147-.126-8.587 5.135-17.434 11.435-24.488z" fill="#ff0075" fill-rule="evenodd"/><g><circle cx="209.686" cy="148.247" fill="#fff" r="39.138"/><path d="m212.144 188.841c-22.384 1.355-41.697-15.753-43.052-38.137s15.753-41.697 38.137-43.052 41.697 15.753 43.052 38.137-15.753 41.697-38.137 43.052zm-4.73-78.133c-20.699 1.253-36.519 19.112-35.266 39.812 1.253 20.699 19.112 36.519 39.812 35.266 20.699-1.253 36.519-19.112 35.266-39.812-1.254-20.699-19.113-36.519-39.812-35.266z" fill="#4e2800"/></g><g><circle cx="366.671" cy="148.477" fill="#fff" r="39.138"/><path d="m369.129 189.072c-22.384 1.355-41.697-15.753-43.052-38.137s15.753-41.697 38.137-43.052 41.697 15.753 43.052 38.137-15.753 41.696-38.137 43.052zm-4.73-78.134c-20.699 1.253-36.519 19.112-35.266 39.812 1.253 20.699 19.112 36.519 39.812 35.266 20.699-1.253 36.519-19.112 35.266-39.812s-19.113-36.519-39.812-35.266z" fill="#4e2800"/></g></g><path d="m227.109 484.902c-.019.007-.037.015-.054.022-.627.229-1.331.078-1.807-.389-5.49-5.369-10.947-7.84-16.223-7.337-7.774.745-12.759 7.796-12.812 7.864-.348.497-.923.784-1.53.746-.604-.035-1.145-.381-1.43-.917-4.396-8.272-10.035-13.068-16.764-14.254-12.832-2.254-25.681 9.173-25.812 9.284-.675.621-1.722.592-2.378-.049-.656-.645-.696-1.688-.092-2.378 2.753-3.164 3.733-6.322 2.994-9.659-2.38-10.751-21.464-19.35-21.657-19.436-.712-.317-1.126-1.071-1.011-1.843.116-.768.737-1.367 1.505-1.465 14.442-1.782 25.008-6.581 32.3-14.69.643-.71 1.742-.769 2.451-.129.713.642.772 1.739.132 2.452-6.926 7.699-16.478 12.63-29.095 14.986 6.345 3.551 16.823 10.611 18.764 19.367.431 1.939.43 3.849 0 5.716 5.449-3.356 13.831-7.102 22.502-5.575 7.179 1.263 13.214 5.903 17.963 13.806 2.362-2.559 7.082-6.645 13.607-7.279 5.593-.544 11.221 1.559 16.762 6.253 1.487-4.963 5.978-14.213 19.018-15.214-1.877-2.176-4.119-5.016-4.732-6.816-.31-.906.222-1.866 1.082-2.204.907-.307 1.894.177 2.203 1.084.585 1.709 4.334 6.071 6.56 8.419.487.513.614 1.27.319 1.914-.293.644-.947 1.044-1.656 1.012-18.228-.805-19.964 14.612-20.029 15.269-.065.647-.482 1.199-1.08 1.44z" fill="#4e2800"/><g><path d="m271.964 420.803s4.819 17.655 13.213 20.953 46.409-24.402 39.029-32.867-29.485-3.758-29.485-3.758 4.128-21.742-11.441-29.797-51.375 6.624-51.375 6.624z" fill="#97381a"/><path d="m324.284 406.371c.477.399.918.829 1.326 1.293 1.614 1.851 2.643 5.326-1.615 11.369-7.481 10.613-31.475 27.61-39.498 24.458-9.154-3.603-14.122-21.44-14.329-22.201-.272-.99.313-2.013 1.306-2.283.987-.274 2.015.305 2.285 1.303 1.274 4.662 5.933 17.307 12.101 19.713 4.937 1.941 27.098-11.791 35.091-23.137 1.297-1.835 3.26-5.16 1.854-6.772-5.432-6.293-21.843-4.403-27.695-3.161-.608.127-1.212-.013-1.688-.492-.444-.433-.642-1.063-.529-1.674.041-.202 3.703-20.485-10.465-27.8-14.636-7.573-49.466 6.547-49.814 6.692-.954.393-2.041-.075-2.43-1.016-.39-.951.065-2.04 1.016-2.43 1.497-.612 36.791-14.907 52.94-6.554 13.417 6.938 13.37 22.849 12.767 29.169 5.878-.928 20.248-2.434 27.377 3.523z" fill="#3c2415"/></g><g><path d="m192.964 299.609s-8.292-3.303-20.182-11.349c-2.811-1.901-5.844-4.063-9.032-6.577-3.084-2.342-6.263-4.989-9.508-7.92-2.696-2.421-5.444-5.021-8.198-7.86-6.33-6.442-12.727-13.963-18.835-22.668-2.105-2.954-4.15-6.049-6.141-9.337-2.117-3.431-4.174-7.002-6.155-10.797-1.694-3.249-3.379-6.633-4.952-10.165-2.654-5.802-5.098-12.005-7.294-18.534-3.454-10.29 2.085-21.465 12.397-24.949 10.29-3.455 21.465 2.085 24.949 12.397.666 1.955 4.259-1.114 6.457 3.687 1.986 4.219-3.057 5.627-2.396 7.344 20.429 50.432 64.74 70.516 64.74 70.516 5.724 8.803 5.729 19.735.177 27.311-5.518 7.531-14.3 8.704-16.027 8.901z" fill="#97381a"/><path d="m164.658 284.044c-20.746-15.751-48.043-43.782-63.322-89.193-1.796-5.34-1.404-11.064 1.104-16.115 2.507-5.052 6.831-8.823 12.17-10.62 11.012-3.701 22.973 2.225 26.71 13.202.007-.12.314-.12.548-.12 1.454-.003 4.16.002 5.886 3.733 1.609 3.477-.491 5.701-1.619 6.898-.261.274-.652.69-.719.854 19.95 48.989 63.526 69.242 63.965 69.443.697.306 1.023 1.154.699 1.864-.321.708-1.155 1.022-1.864.699-.445-.199-45.046-20.928-65.428-71.272-.606-1.501.494-2.668 1.297-3.519 1.19-1.263 1.881-2.119 1.112-3.783-.972-2.096-2.012-2.1-3.332-2.1-.977-.002-2.613.002-3.191-1.726-3.218-9.553-13.607-14.718-23.166-11.502-4.628 1.556-8.375 4.825-10.548 9.203s-2.514 9.336-.956 13.963c26.344 78.301 88.85 104.084 89.481 104.333.725.293 1.072 1.111.784 1.83-.288.722-1.108 1.074-1.83.786-.274-.112-12.176-5.01-27.781-16.858z" fill="#4e2800"/></g></g></svg>