<svg id="Layer_1" enable-background="new 0 0 512 512" height="512" viewBox="0 0 512 512" width="512" xmlns="http://www.w3.org/2000/svg"><g><g><circle cx="160.908" cy="431.334" fill="#fff" r="23.828"/><path d="m160.908 456.456c-13.852 0-25.122-11.27-25.122-25.122s11.27-25.122 25.122-25.122 25.122 11.27 25.122 25.122-11.269 25.122-25.122 25.122zm0-47.657c-12.426 0-22.535 10.109-22.535 22.535s10.109 22.535 22.535 22.535 22.535-10.109 22.535-22.535-10.109-22.535-22.535-22.535z" fill="#3c2415"/></g><path d="m150.081 330.175c-2.678-2.033-5.487-4.372-8.313-6.928-2.619-2.351-4.972-4.607-7.186-6.891-5.94-6.044-11.491-12.723-16.487-19.843-1.879-2.636-3.695-5.396-5.386-8.19-1.966-3.183-3.73-6.279-5.383-9.442-1.748-3.357-3.125-6.184-4.336-8.903-2.314-5.058-4.462-10.514-6.372-16.198-3.4-10.124 2.074-21.143 12.202-24.567 6.095-2.045 12.795-.941 17.927 2.955 2.82 2.141 4.979 4.985 6.285 8.266.957.012 2.363.121 3.726 1.155.855.65 1.566 1.583 2.112 2.775 1.749 3.716-.614 6.202-1.621 7.265-.016.016-.029.031-.044.045 9.803 23.644 25.881 39.28 37.708 48.259 9.329 7.083 16.462 10.36 16.533 10.392l.64.291.383.59c5.44 8.367 5.471 18.933.077 26.292-4.964 6.772-12.488 8.303-15.493 8.646l-.603.068-.562-.224c-.303-.12-7.513-3.026-17.864-10.031-1.939-1.31-3.997-2.763-6.147-4.395-.589-.446-1.793-1.385-1.796-1.387z" fill="#4e2800"/><path d="m231.644 510.564c-.017.004-.033.009-.049.013-.562.127-1.147-.08-1.503-.532-4.106-5.197-8.502-7.911-13.07-8.061-6.732-.218-11.772 5.265-11.825 5.317-.353.387-.876.569-1.391.47-.513-.096-.938-.452-1.122-.942-2.85-7.56-7.146-12.283-12.772-14.038-10.729-3.34-22.977 5.021-23.102 5.102-.646.457-1.538.317-2.029-.304-.49-.624-.409-1.52.183-2.044 2.703-2.403 3.889-4.997 3.624-7.933-.853-9.458-16.231-18.914-16.388-19.009-.574-.349-.845-1.04-.662-1.688.184-.644.781-1.088 1.449-1.088 12.55.065 22.117-2.878 29.246-9.012.628-.537 1.575-.466 2.111.159.54.627.469 1.573-.157 2.112-6.772 5.824-15.485 8.991-26.538 9.618 5.037 3.736 13.223 10.928 13.92 18.632.155 1.706-.056 3.34-.629 4.889 5.031-2.271 12.613-4.554 19.863-2.293 6.002 1.87 10.654 6.503 13.847 13.786 2.302-1.929 6.789-4.905 12.44-4.729 4.844.15 9.427 2.568 13.651 7.193 1.818-4.082 6.678-11.501 17.943-10.922-1.366-2.068-2.971-4.744-3.298-6.351-.166-.809.396-1.571 1.168-1.766.81-.163 1.601.36 1.765 1.17.312 1.526 3.039 5.67 4.686 7.924.36.493.385 1.154.062 1.672-.322.518-.925.789-1.528.684-15.504-2.694-18.686 10.302-18.813 10.857-.126.547-.543.974-1.082 1.114z" fill="#4e2800"/><g><path d="m353.382 335.305c-1.281.808-2.531 1.569-3.746 2.282-12.589 7.408-21.438 10.131-21.808 10.244-4.783 1.485-9.849-7.727-12.44-13.35-1.988-4.312-7.953-18.703-1.285-22.911.423-.267.887-.482 1.378-.638.005-.003 7.394-2.654 17.292-8.9 12.554-7.922 29.915-22.105 41.742-44.837-.015-.018-.03-.036-.046-.055-.911-1.142-3.048-3.813-.976-7.379.633-1.119 1.422-1.987 2.33-2.56 1.447-.913 2.856-.901 3.812-.829 1.584-3.154 3.978-5.801 6.975-7.693 5.448-3.438 12.22-3.96 18.109-1.396 4.756 2.077 8.417 5.875 10.314 10.691 1.901 4.823 1.804 10.094-.272 14.842-1.96 4.515-4.12 8.939-6.599 13.519-1.576 2.903-3.255 5.801-4.994 8.617-1.884 3.008-3.945 6.069-6.129 9.111-2.081 2.926-4.249 5.687-5.904 7.766-5.163 6.289-10.8 12.194-16.778 17.577-2.537 2.289-5.097 4.449-7.606 6.42-2.66 2.122-5.548 4.248-8.814 6.485-1.551 1.061-3.074 2.059-4.555 2.994z" fill="#4e2800"/><path d="m412.552 261.851c-2.043 4.707-4.229 9.124-6.509 13.335-1.597 2.945-3.236 5.764-4.926 8.501-1.968 3.14-3.994 6.127-6.034 8.972-1.912 2.687-3.882 5.222-5.832 7.667-5.432 6.617-11.01 12.34-16.507 17.289-2.516 2.271-5.019 4.382-7.482 6.316-2.955 2.358-5.877 4.468-8.687 6.393-2.837 1.942-5.581 3.673-8.158 5.185-12.488 7.349-21.287 10.015-21.287 10.015-4.858 1.508-19.851-29.472-10.924-32.295 0 0 39.57-13.957 60.88-55.77.722-1.443-3.533-3.011-1.512-6.489 2.247-3.962 5.105-1.057 5.823-2.687 3.762-8.601 13.777-12.529 22.361-8.794 8.601 3.763 12.556 13.761 8.794 22.362z" fill="#fff"/><path d="m352.612 334.258c-14.162 8.936-24.685 12.278-25.119 12.411-1.102.346-2.362-.121-3.748-1.388-5.154-4.715-12.964-21.517-11.286-29.116.592-2.676 2.172-3.698 3.396-4.086.35-.126 39.32-14.317 60.132-55.17-.068.148-.388-.254-.592-.509-.88-1.112-2.518-3.18-.877-6.047 1.762-3.079 4.085-2.88 5.337-2.77.235.02.557.047.659.025 1.719-4.278 5.29-7.704 9.807-9.487 4.527-1.779 9.473-1.689 13.928.252 4.453 1.942 7.888 5.504 9.666 10.032 1.779 4.527 1.69 9.474-.251 13.929-16.508 37.88-42.053 59.934-61.052 71.924zm-36.509-19.633c-2.213 1.397-1.352 6.423-.848 8.632 2.34 10.267 9.633 21.363 11.519 21.093.005-.001.003 0 .007-.003.558-.167 56.191-17.673 84.657-82.984 1.683-3.86 1.76-8.145.218-12.069s-4.517-7.012-8.378-8.693c-3.857-1.682-8.145-1.76-12.067-.218-3.939 1.544-7.013 4.518-8.694 8.377-.625 1.434-2.03 1.314-2.871 1.244-1.133-.099-2.027-.174-3.019 1.557-.784 1.372-.254 2.159.674 3.333.627.791 1.486 1.875.852 3.119-21.262 41.741-61.132 56.23-61.526 56.37-.192.06-.365.142-.524.242z" fill="#4e2800"/></g><g><path d="m313.571 418.602s31.043-12.261 44.38-5.141 9.535 25.824 9.535 25.824 19.115-3.813 25.386 3.569c6.27 7.382-26.822 30.848-34.025 27.91-7.202-2.938-11.162-18.217-11.162-18.217l-52.44 11.931z" fill="#fff"/><path d="m360.325 472.61c-.787 0-1.487-.113-2.082-.358-6.517-2.656-10.434-13.72-11.682-17.801l-50.959 11.591c-.586.135-1.192-.069-1.577-.521-.389-.455-.492-1.085-.27-1.64l18.327-45.875c.163-.411.489-.734.9-.897 1.295-.514 31.888-12.438 45.725-5.065 11.513 6.144 11.284 19.852 10.688 25.296 5.422-.787 19.177-2.026 24.7 4.475 1.37 1.612 2.22 4.619-1.518 9.782-6 8.287-23.945 21.01-32.252 21.013zm-12.639-21.667c.718 0 1.367.483 1.556 1.201 1.047 4.036 4.924 14.978 10.211 17.136 4.234 1.712 23.502-9.869 30.524-19.563 1.135-1.571 2.866-4.416 1.672-5.821-4.635-5.46-18.782-4.042-23.847-3.036-.514.113-1.066-.056-1.449-.442-.379-.379-.546-.925-.439-1.449.034-.176 3.39-17.628-8.718-24.089-11.513-6.147-37.938 3.305-42.394 4.971l-16.932 42.381 49.46-11.249c.121-.028.24-.04.356-.04z" fill="#3c2415"/></g><g><path d="m184.214 300.559s-20.416 2.513-12.773 20.73c0 0-9.632 5.235-3.246 13.611 0 0-53.92 132.987 90.251 136.066s71.51-135.647 71.51-135.647 12.564-10.051 1.675-17.799c-10.889-7.747-147.417-16.961-147.417-16.961z" fill="#fff"/><path d="m263.092 472.623c-1.541 0-3.1-.017-4.681-.05-43.198-.924-73.112-13.562-88.912-37.566-24.959-37.92-5.886-92.478-3.114-99.873-1.731-2.559-2.335-5.132-1.794-7.658.718-3.363 3.315-5.687 4.877-6.816-1.908-5.203-1.792-9.705.348-13.397 4.044-6.972 13.789-8.245 14.202-8.295.099-.013.201-.014.304-.009 14.02.947 137.296 9.468 148.239 17.255 3.301 2.349 5.021 5.164 5.11 8.366.141 4.972-3.814 9.319-5.722 11.119 4.56 9.11 32.136 67.616 8.632 105.537-12.913 20.837-38.973 31.387-77.489 31.387zm-78.818-170.45c-1.116.171-8.682 1.515-11.685 6.711-1.773 3.067-1.661 7.031.332 11.784.318.756.009 1.634-.709 2.029-.038.022-3.777 2.117-4.485 5.465-.381 1.808.205 3.748 1.744 5.764.345.452.425 1.051.212 1.577-.235.582-23.259 58.62 2.507 97.75 15.185 23.06 44.218 35.209 86.29 36.108 39.873.858 66.577-9.178 79.369-29.813 24.04-38.775-8.98-102.841-9.316-103.484-.356-.679-.18-1.516.417-1.998.056-.045 5.654-4.605 5.512-9.405-.063-2.139-1.33-4.1-3.763-5.833-8.615-6.13-108.45-14.089-146.425-16.655z" fill="#3c2415"/></g><g><g><g><path d="m370.267 84.738c13.782-26.713-.1-57.214-21.884-64.515-21.357-7.157-50.214 8.018-56.12 36.833-12.246 45.877-21.861 91.381-28.071 115.286l68.641 4.291z" fill="#fff"/><path d="m263.421 173.382c-.411-.305-.618-.839-.481-1.365 2.423-9.326 5.372-21.975 8.787-36.622 5.267-22.59 11.821-50.703 19.287-78.673 2.877-14.051 11.618-26.232 23.965-33.344 10.96-6.314 23.286-7.911 33.816-4.382 10.773 3.61 19.747 12.568 24.62 24.574 5.463 13.459 4.744 28.658-1.97 41.709l-37.412 91.842c-.27.662-1.025.98-1.687.71-.662-.271-.979-1.025-.71-1.686l37.434-91.896c.015-.036.031-.071.049-.105 6.393-12.39 7.085-26.824 1.899-39.601-4.522-11.14-13.138-19.773-23.044-23.094-9.828-3.294-21.384-1.774-31.703 4.171-11.705 6.743-19.993 18.295-22.739 31.695-7.472 28.003-14.021 56.095-19.284 78.667-3.419 14.663-6.371 27.327-8.802 36.685-.18.691-.886 1.106-1.578.926-.168-.041-.317-.115-.447-.211z" fill="#4e2800"/></g><path d="m280.979 173.392 30.561-99.171s4.522-19.087 22.213-14.37c19.341 5.157 12.421 22.87 12.421 22.87l-29.392 90.418c0 .001-18.367-14.116-35.803.253z" fill="#fac"/><g><path d="m372.052 271.291c-.415-6.749-2.272-12.8-4.386-19.016-3.062-8.915-6.644-18.103-7.227-30.042-1.961-40.603-35.738-71.673-81.733-81.991-5.642-1.275-11.452-2.239-17.408-2.863-1.652-.173-3.306-.319-4.963-.438-74.585-5.457-126.801 44.417-129.773 97.366-.326 5.467-.111 10.991.684 16.466.382 2.886.953 5.793 1.666 8.659 1.194 4.805 2.86 9.277 4.916 13.433 2.458 5.02 5.483 9.579 8.906 13.742 6.592 8.005 23.908 22.791 44.484 30.991 15.463 5.355 35.564 10.708 59.425 13.137 30.518 3.107 56.439.336 75.147-3.167 21.644-8.994 36.228-18.814 39.989-23.525 3.307-4.142 5.968-8.9 7.77-14.349.549-1.585.993-3.208 1.391-4.918 1.116-4.891 1.388-9.324 1.112-13.485z" fill="#fff"/><path d="m187.055 319.196c-.145-.015-.288-.049-.429-.105-20.99-8.366-38.49-23.4-45.13-31.462-3.653-4.442-6.718-9.172-9.11-14.057-2.151-4.351-3.845-8.979-5.032-13.752-.751-3.025-1.322-5.999-1.698-8.837-.797-5.488-1.031-11.138-.695-16.771 1.424-25.353 14.206-50.41 35.068-68.739 25.197-22.137 59.441-32.838 96.424-30.134 7.597.55 15.226 1.669 22.608 3.336 48.485 10.878 81.06 43.646 82.983 83.481.517 10.559 3.428 18.922 6.244 27.009l.897 2.588c2.024 5.952 4.034 12.351 4.471 19.44.306 4.636-.069 9.199-1.149 13.942-.443 1.907-.913 3.568-1.439 5.087-1.781 5.387-4.486 10.382-8.032 14.824-6.976 8.759-26.799 21.464-40.95 24.102-.87.163-1.71-.414-1.872-1.286-.163-.872.412-1.71 1.286-1.872 13.498-2.516 32.386-14.611 39.026-22.946 3.308-4.145 5.832-8.807 7.502-13.853.495-1.43.934-2.986 1.35-4.775 1.009-4.43 1.361-8.69 1.075-13.018-.413-6.7-2.353-12.866-4.305-18.606l-.891-2.572c-2.891-8.303-5.88-16.887-6.419-27.908-1.852-38.352-33.443-69.951-80.481-80.504-7.228-1.632-14.683-2.723-22.135-3.265-36.121-2.643-69.529 7.779-94.073 29.342-20.222 17.765-32.607 42.008-33.982 66.513-.323 5.421-.099 10.851.671 16.144.361 2.739.911 5.593 1.634 8.504 1.13 4.547 2.745 8.957 4.797 13.107 2.286 4.668 5.214 9.186 8.707 13.435 6.429 7.806 23.411 22.377 43.84 30.519.823.329 1.225 1.263.898 2.087-.275.682-.964 1.075-1.659 1.002z" fill="#4e2800"/></g><ellipse cx="189.704" cy="255.048" fill="#fac" rx="11.641" ry="23.109" transform="matrix(.104 -.995 .995 .104 -83.715 417.157)"/><ellipse cx="339.025" cy="270.685" fill="#fac" rx="11.641" ry="23.109" transform="matrix(.104 -.995 .995 .104 34.503 579.675)"/><g fill="#4e2800"><path d="m288.466 226.021c-.37 3.538-12.607 5.156-12.607 5.156s-11.636-4.118-11.265-7.656 5.705-2.89 12.297-2.199c6.592.69 11.945 1.161 11.575 4.699z"/><path d="m270.256 230.467h11.084v2.587h-11.084z" transform="matrix(.104 -.995 .995 .104 16.573 481.922)"/></g><g><path d="m214.356 47.836c-1.723-30.009-29.19-49.208-51.659-44.412-22.028 4.702-39.154 32.446-29.58 60.259 12.794 45.727 27.664 89.795 34.477 113.535l61.279-31.223z" fill="#fff"/><path d="m167.46 178.505c-.509-.053-.959-.408-1.109-.93-2.658-9.261-6.554-21.652-11.064-35.999-6.957-22.128-15.615-49.666-23.415-77.544-4.671-13.561-3.341-28.494 3.671-40.898 6.224-11.012 16.023-18.657 26.885-20.975 11.111-2.373 23.394.775 33.697 8.633 11.55 8.809 18.662 22.26 19.52 36.911l14.509 98.103c.104.707-.384 1.365-1.091 1.469-.708.103-1.365-.384-1.469-1.09l-14.518-98.16c-.005-.038-.009-.077-.012-.115-.799-13.919-7.545-26.698-18.509-35.06-9.56-7.291-21.369-10.34-31.588-8.16-10.137 2.164-19.313 9.351-25.173 19.718-6.647 11.759-7.906 25.921-3.454 38.855 7.812 27.911 16.463 55.428 23.415 77.538 4.516 14.364 8.416 26.769 11.083 36.062.197.687-.2 1.403-.887 1.6-.165.046-.331.059-.491.042z" fill="#4e2800"/></g><path d="m182.581 169.582-24.136-100.927s-5.816-18.733 11.815-23.671c19.275-5.399 22.328 13.372 22.328 13.372l20.689 92.797c0-.001-22.993-2.811-30.696 18.429z" fill="#fac"/><g clip-rule="evenodd" fill-rule="evenodd"><path d="m243.382 267.523c1.725-16.365 24.766-31.449 31.667-31.479s22.497 11.408 23.341 31.263c1.138 26.761-57.347 22.408-55.008.216z" fill="#4e2800"/><path d="m257.695 247.942c11.335 3.342 27.462 11.062 35.524 28.671-1.17 1.327-2.618 2.454-4.266 3.392-4.996 2.842-11.741 4.003-18.444 3.759-8.032-.292-16.036-2.595-20.897-6.707-2.902-2.455-4.626-5.573-4.231-9.323.776-7.366 6.192-14.4 12.314-19.792z" fill="#ff0075"/></g><g><circle cx="205.413" cy="224.02" fill="#fff" r="33.755"/><path d="m205.413 259.096c-19.341 0-35.076-15.735-35.076-35.076s15.735-35.076 35.076-35.076 35.076 15.735 35.076 35.076-15.735 35.076-35.076 35.076zm0-67.511c-17.885 0-32.435 14.55-32.435 32.435s14.55 32.435 32.435 32.435 32.435-14.55 32.435-32.435-14.55-32.435-32.435-32.435z" fill="#4e2800"/></g><g><circle cx="340.548" cy="232.401" fill="#fff" r="33.755"/><path d="m340.549 267.477c-19.341 0-35.076-15.735-35.076-35.076s15.735-35.076 35.076-35.076 35.076 15.735 35.076 35.076-15.735 35.076-35.076 35.076zm0-67.512c-17.885 0-32.435 14.55-32.435 32.435s14.55 32.436 32.435 32.436 32.435-14.55 32.435-32.436-14.55-32.435-32.435-32.435z" fill="#4e2800"/></g></g></g><path d="m296.849 348.433c-.754 0-1.427-.533-1.576-1.303-.166-.87.403-1.712 1.275-1.88 20.711-3.984 32.438-11.218 32.554-11.292.75-.469 1.739-.245 2.213.508.472.751.245 1.742-.507 2.213-.491.309-12.301 7.616-33.655 11.726-.101.018-.203.028-.304.028z" fill="#4e2800"/><circle cx="291.723" cy="347.823" fill="#4e2800" r="1.543"/><g><path d="m253.757 459.843s4.157 15.227 11.396 18.072c7.24 2.844 40.027-21.046 33.662-28.347s-25.43-3.241-25.43-3.241 3.56-18.752-9.868-25.699-44.31 5.713-44.31 5.713z" fill="#fff"/><path d="m298.881 447.396c.412.344.792.715 1.144 1.115 1.392 1.596 2.279 4.594-1.393 9.805-6.452 9.154-27.146 23.813-34.066 21.095-7.895-3.107-12.18-18.491-12.359-19.148-.235-.854.27-1.736 1.126-1.969.852-.237 1.738.263 1.971 1.124 1.099 4.021 5.117 14.927 10.437 17.002 4.258 1.674 23.371-10.17 30.265-19.955 1.118-1.583 2.812-4.451 1.599-5.841-4.685-5.427-18.839-3.797-23.887-2.727-.525.109-1.045-.011-1.456-.424-.383-.373-.554-.917-.457-1.444.036-.175 3.194-17.668-9.026-23.977-12.623-6.531-42.663 5.647-42.963 5.772-.822.339-1.76-.065-2.096-.877-.336-.82.056-1.759.877-2.096 1.291-.527 31.731-12.857 45.659-5.652 11.572 5.984 11.531 19.707 11.011 25.157 5.072-.8 17.466-2.098 23.614 3.04z" fill="#3c2415"/></g><g><path d="m176.779 343.751s-7.151-2.849-17.406-9.788c-2.425-1.639-5.041-3.504-7.79-5.672-2.66-2.02-5.402-4.303-8.201-6.831-2.326-2.088-4.695-4.331-7.07-6.779-5.459-5.556-10.977-12.043-16.244-19.55-1.816-2.548-3.579-5.217-5.297-8.053-1.826-2.959-3.6-6.039-5.308-9.312-1.461-2.802-2.915-5.721-4.271-8.767-2.289-5.004-4.397-10.354-6.29-15.985-2.979-8.875 1.798-18.513 10.692-21.518 8.875-2.98 18.513 1.798 21.518 10.692.574 1.686 3.673-.961 5.569 3.18 1.713 3.639-2.636 4.853-2.067 6.334 17.619 43.496 55.837 60.818 55.837 60.818 4.936 7.593 4.941 17.021.152 23.555-4.761 6.495-12.335 7.507-13.824 7.676z" fill="#fff"/><path d="m152.365 330.327c-17.893-13.585-41.436-37.761-54.614-76.927-1.549-4.606-1.211-9.543.952-13.899 2.162-4.357 5.891-7.61 10.496-9.16 9.497-3.192 19.814 1.919 23.037 11.387.006-.104.271-.103.473-.104 1.254-.003 3.588.001 5.076 3.22 1.387 2.998-.424 4.917-1.396 5.949-.225.237-.562.595-.62.736 17.206 42.252 54.79 59.72 55.168 59.893.601.264.883.995.603 1.607-.277.611-.996.882-1.607.603-.384-.171-38.851-18.05-56.43-61.47-.523-1.295.426-2.301 1.119-3.035 1.026-1.089 1.622-1.828.959-3.263-.838-1.808-1.735-1.812-2.873-1.811-.843-.002-2.254.002-2.752-1.489-2.775-8.24-11.736-12.694-19.98-9.92-3.992 1.342-7.223 4.161-9.098 7.938s-2.168 8.052-.825 12.043c22.721 67.532 76.631 89.77 77.175 89.984.625.252.925.958.676 1.578-.248.623-.955.926-1.578.678-.237-.095-10.502-4.319-23.961-14.538z" fill="#4e2800"/></g></g></svg>