<svg id="Layer_1" enable-background="new 0 0 512 512" height="512" viewBox="0 0 512 512" width="512" xmlns="http://www.w3.org/2000/svg"><g><g><path d="m397.216 99.848c3.316-7.512 6.483-15.255 11.773-21.536s13.219-10.974 21.387-10.129c11.111 1.148 19.057 12.305 20.312 23.404 1.255 11.1-2.593 22.083-6.586 32.515-19.586 51.173-44.78 101.323-83.152 140.437l-34.464-55.738c29.19-32.231 53.171-69.171 70.73-108.953z" fill="#fff"/><path d="m360.95 266.517c.512 0 1.024-.198 1.412-.593 33.088-33.729 59.648-78.569 83.586-141.115 4.266-11.144 7.988-22.087 6.704-33.443-1.269-11.218-9.436-23.844-22.074-25.149-8.058-.839-16.695 3.214-23.103 10.823-5.035 5.978-8.193 13.179-11.248 20.142l-.821 1.868c-17.543 39.745-41.225 76.225-70.387 108.425-.733.81-.671 2.06.138 2.793.81.733 2.059.673 2.793-.139 29.446-32.514 53.359-69.349 71.073-109.481l.825-1.877c2.942-6.707 5.983-13.642 10.651-19.184 5.564-6.606 12.915-10.135 19.672-9.437 10.582 1.094 17.455 11.976 18.55 21.66 1.184 10.473-2.384 20.916-6.468 31.585-23.737 62.022-50.021 106.432-82.716 139.76-.765.779-.753 2.031.027 2.796.386.377.886.566 1.386.566z" fill="#662d91"/></g><g fill="#662d91"><path d="m304.311 424.36c6.686-7.282 11.387-16.315 19.137-22.516 9.436-7.55 21.93-9.806 33.599-13.014 11.67-3.209 24.067-8.494 29.596-19.057 4.068-7.772 3.612-17.008 7.125-25.019 5.809-13.246 20.674-20.075 33.86-26.662s27.379-16.201 29.035-30.398c1.378-11.81-6.643-22.76-6.15-34.61.322-7.726 4.212-14.916 7.137-22.186 2.924-7.27 4.878-15.647 1.42-22.493-3.901-7.723-13.841-11.048-22.753-9.892s-16.981 5.908-24.443 10.957c-47.382 32.056-81.341 79.298-114.206 125.455-16.728 23.493-34.036 48.12-41.226 76.028-2.63 10.208-5.435 25.924 7.329 30.315 13.159 4.526 32.11-7.727 40.54-16.908z"/><path d="m269.969 444.285c-2.379 0-4.685-.339-6.861-1.087-15.691-5.397-10.386-25.988-8.642-32.755 7.414-28.773 25.544-54.236 41.54-76.703 31.131-43.722 66.415-93.278 114.725-125.962 7.604-5.144 15.934-10.071 25.324-11.289 8.713-1.132 20.207 1.826 24.837 10.996 3.137 6.211 2.696 14.119-1.348 24.175-.616 1.531-1.274 3.059-1.933 4.589-2.479 5.75-4.819 11.181-5.058 16.92-.22 5.29 1.375 10.404 3.064 15.819 1.891 6.061 3.845 12.327 3.074 18.942-1.411 12.093-11.273 22.556-30.151 31.987l-2.052 1.021c-12.604 6.268-25.638 12.748-30.851 24.635-1.548 3.529-2.279 7.309-3.054 11.309-.896 4.634-1.824 9.426-4.133 13.836-6.353 12.137-20.656 17.272-30.863 20.079-1.887.519-3.795 1.013-5.709 1.508-9.625 2.492-19.579 5.069-27.157 11.132-4.526 3.621-7.947 8.229-11.568 13.106-2.293 3.088-4.665 6.282-7.34 9.196-7.864 8.568-22.927 18.546-35.844 18.546zm169.788-243.948c-1.088 0-2.154.068-3.176.201-8.546 1.109-16.375 5.761-23.562 10.623-47.699 32.27-82.756 81.507-113.687 124.948-15.791 22.177-33.688 47.312-40.912 75.354-4.224 16.394-2.369 24.99 6.016 27.874 11.577 3.981 29.724-6.941 38.37-16.358 2.532-2.757 4.839-5.864 7.07-8.869 3.617-4.871 7.357-9.909 12.296-13.859 8.26-6.608 18.643-9.297 28.684-11.896 1.894-.49 3.782-.979 5.649-1.493 15.053-4.139 24.055-9.87 28.329-18.034 2.031-3.881 2.862-8.174 3.741-12.719.783-4.045 1.592-8.227 3.323-12.174 5.808-13.242 20.133-20.365 32.772-26.65l2.044-1.018c17.549-8.768 26.682-18.191 27.92-28.808.671-5.754-1.071-11.34-2.916-17.254-1.718-5.509-3.496-11.206-3.246-17.205.27-6.492 2.872-12.528 5.387-18.366.646-1.499 1.292-2.996 1.895-4.496 3.581-8.902 4.068-15.709 1.492-20.812-3.213-6.366-10.769-8.989-17.489-8.989z"/></g><g><path d="m444.461 199.062c-3.783-2.631-9.939-1.574-14.565-1.291-15.056.92-29.702 7.447-44.893 6.257-16.307-1.277 10.258-69.841-26.148-115.754-30.58-38.565-90.436-40.218-99.444-40.17-61.961.331-145.47 22.248-155.427 110.333s14.554 174.218 123.403 262.863c3.298 2.686 9.07 11.027 19.511 16.533 7.55 3.981 17.006 5.249 24.297 1.094 7.509-4.279 11.131-13.123 17.472-19.003 8.338-7.732 20.343-9.567 31.334-12.539 10.992-2.972 22.764-8.632 26.147-19.592 4.223-13.68-6.682-29.032-2.32-42.665 3.221-10.066 13.872-15.722 24.2-17.651 10.327-1.929 21.089-1.153 31.347-3.398s20.645-8.671 22.941-19.009c1.868-8.408-2.043-17.101-6.55-24.558s-9.85-14.799-11.292-23.361c-1.652-9.808 2.557-20.269 10.459-25.996 5.094-3.692 11.315-5.399 17.14-7.787 7.486-3.068 18.008-9.909 15.373-19.809-.564-2.119-1.62-3.548-2.985-4.497z" fill="#fff"/><path d="m260.885 443.445c-4.862 0-10.039-1.296-14.909-3.864-7.833-4.13-13.146-9.806-16.661-13.562-1.268-1.354-2.363-2.524-3.176-3.187-52.108-42.436-87.051-85.745-106.826-132.402-17.125-40.407-22.782-83.655-17.293-132.215 4.545-40.209 24.47-70.35 59.22-89.583 33.144-18.345 71.675-22.364 98.162-22.506 7.017-.013 69.188.795 101.003 40.919 22.388 28.233 21.435 64.975 20.804 89.286-.368 14.171-.658 25.364 3.95 25.725 8.504.67 16.733-1.148 25.447-3.068 6.233-1.374 12.679-2.795 19.171-3.191.711-.044 1.458-.105 2.228-.17 4.598-.381 9.812-.814 13.586 1.812 1.85 1.287 3.117 3.175 3.765 5.61 3.422 12.86-11.79 20.203-16.534 22.148-1.521.623-3.08 1.205-4.587 1.769-4.408 1.646-8.571 3.2-12.142 5.789-7.315 5.302-11.201 14.974-9.669 24.067 1.141 6.779 5.019 12.991 8.77 18.999.764 1.223 1.525 2.443 2.265 3.667 3.944 6.525 8.94 16.322 6.788 26.01-2.61 11.749-14.341 18.3-24.449 20.512-5.562 1.218-11.287 1.571-16.824 1.914-4.831.299-9.825.608-14.583 1.496-11.628 2.172-20.106 8.27-22.679 16.311-2.026 6.331-.472 13.149 1.174 20.367 1.677 7.355 3.411 14.962 1.152 22.278-3.012 9.756-12.271 16.794-27.521 20.918-1.876.507-3.782.981-5.695 1.458-8.977 2.235-18.26 4.547-24.811 10.622-2.423 2.247-4.421 4.942-6.536 7.796-3.176 4.285-6.46 8.716-11.302 11.475-3.285 1.872-7.174 2.8-11.288 2.8zm-1.097-393.364c-.136 0-.257 0-.366.001-42.479.227-142.472 11.261-153.473 108.577-11.539 102.083 26.298 182.611 122.686 261.107 1.021.831 2.144 2.031 3.566 3.551 3.534 3.775 8.374 8.946 15.619 12.766 6.119 3.226 15.214 5.215 22.395 1.126 4.118-2.347 7.015-6.256 10.082-10.395 2.13-2.873 4.332-5.844 7.024-8.341 7.297-6.767 17.082-9.203 26.545-11.56 1.887-.47 3.767-.938 5.618-1.438 13.853-3.746 22.188-9.892 24.773-18.266 1.946-6.305.404-13.07-1.229-20.233-1.691-7.419-3.44-15.09-1.084-22.451 3.023-9.449 12.639-16.55 25.72-18.992 4.997-.934 10.115-1.25 15.064-1.557 5.387-.333 10.958-.678 16.222-1.83 8.916-1.951 19.228-7.574 21.434-17.506 1.843-8.301-2.72-17.163-6.312-23.107-.729-1.207-1.481-2.411-2.235-3.617-3.954-6.335-8.043-12.885-9.315-20.438-1.775-10.541 2.745-21.763 11.249-27.926 4.006-2.903 8.618-4.626 13.079-6.292 1.479-.553 3.008-1.123 4.471-1.724 3.99-1.635 16.805-7.728 14.212-17.471-.406-1.527-1.127-2.634-2.202-3.382-2.607-1.812-7.067-1.439-11.001-1.116-.799.066-1.576.131-2.314.176-6.184.378-12.476 1.766-18.561 3.106-8.612 1.897-17.519 3.854-26.606 3.149-8.35-.654-8.05-12.237-7.595-29.771.616-23.74 1.547-59.618-19.949-86.727-30.162-38.036-89.167-39.419-97.517-39.419z" fill="#662d91"/></g><path d="m281.507 242.931c-.638 0-1.263-.308-1.645-.877-.607-.907-.365-2.136.542-2.743 34.522-23.125 74.714-36.17 116.232-37.727 1.101-.062 2.009.811 2.05 1.901.041 1.092-.811 2.01-1.902 2.05-40.785 1.529-80.267 14.345-114.179 37.061-.337.226-.72.335-1.098.335z" fill="#662d91"/><path d="m288.042 214.412c-.674 0-1.332-.345-1.701-.967-.559-.938-.25-2.151.688-2.71 22.008-13.093 48.204-19.408 73.759-17.774 7.231.462 17.552 1.918 23.677 9.196.703.836.596 2.083-.24 2.786-.835.705-2.083.597-2.786-.239-5.149-6.12-14.396-7.381-20.903-7.796-24.771-1.586-50.156 4.538-71.485 17.226-.317.188-.665.278-1.009.278z" fill="#662d91"/><ellipse cx="174.724" cy="166.971" fill="#fac" rx="13.497" ry="26.793" transform="matrix(.035 -.999 .999 .035 1.708 335.711)"/><ellipse cx="348.694" cy="173.096" fill="#fac" rx="13.497" ry="26.793" transform="matrix(.035 -.999 .999 .035 163.436 515.484)"/><path clip-rule="evenodd" d="m242.555 189.395c-.313-19.077 24.088-39.672 32.027-40.676 7.938-1.004 27.495 9.971 31.253 32.704 5.068 30.64-62.855 33.842-63.28 7.972z" fill="#662d91" fill-rule="evenodd"/><path clip-rule="evenodd" d="m256.279 164.848c13.515 2.255 33.159 8.875 44.911 28.01-1.16 1.692-2.669 3.193-4.433 4.503-5.35 3.973-12.951 6.256-20.699 6.916-9.285.791-18.82-.735-24.993-4.785-3.685-2.418-6.108-5.765-6.179-10.136-.141-8.587 5.105-17.443 11.393-24.508z" fill="#cfff99" fill-rule="evenodd"/><g><path d="m350.473 167.764c-2.67.17-5.29.06-7.83-.29 0 0 0 0-.01 0-18.07-2.5-32.48-17.43-33.66-36.34-1.28-20.6 13.62-38.47 33.75-41.2.95-.13 1.91-.23 2.88-.29 21.58-1.35 40.16 15.05 41.5 36.63 1.34 21.57-15.06 40.15-36.63 41.49z" fill="#fff"/><g fill="#662d91"><path d="m342.643 167.474s0 0-.01 0c-18.07-2.5-32.48-17.43-33.66-36.34-1.28-20.6 13.62-38.47 33.75-41.2 18.06 2.49 32.48 17.43 33.66 36.34 1.28 20.59-13.61 38.46-33.74 41.2z"/><path d="m350.567 169.294c-22.382 1.394-41.724-15.681-43.118-38.063s15.681-41.724 38.063-43.118 41.724 15.681 43.118 38.063c1.393 22.381-15.682 41.724-38.063 43.118zm-4.865-78.125c-20.697 1.289-36.486 19.175-35.198 39.872 1.289 20.697 19.175 36.486 39.872 35.198 20.697-1.289 36.486-19.175 35.198-39.872-1.289-20.698-19.175-36.487-39.872-35.198z"/></g></g><g><path d="m198.813 167.764c-2.67.17-5.29.06-7.83-.29 0 0 0 0-.01 0-18.07-2.5-32.48-17.43-33.66-36.34-1.28-20.6 13.62-38.47 33.75-41.2.95-.13 1.91-.23 2.88-.29 21.58-1.35 40.16 15.05 41.5 36.63 1.34 21.57-15.06 40.15-36.63 41.49z" fill="#fff"/><g fill="#662d91"><path d="m190.983 167.474s0 0-.01 0c-18.07-2.5-32.48-17.43-33.66-36.34-1.28-20.6 13.62-38.47 33.75-41.2 18.06 2.49 32.48 17.43 33.66 36.34 1.28 20.59-13.61 38.46-33.74 41.2z"/><path d="m198.907 169.294c-22.382 1.394-41.724-15.681-43.118-38.063s15.681-41.724 38.063-43.118 41.724 15.681 43.118 38.063-15.681 41.724-38.063 43.118zm-4.864-78.125c-20.697 1.289-36.486 19.175-35.198 39.872 1.289 20.697 19.175 36.486 39.872 35.198 20.697-1.289 36.486-19.175 35.198-39.872s-19.175-36.487-39.872-35.198z"/></g></g><path d="m224.958 486.241c-.02.002-.04.004-.058.006-.666.047-1.301-.292-1.63-.872-3.797-6.675-8.362-10.553-13.572-11.524-7.678-1.427-14.414 3.977-14.484 4.028-.472.382-1.103.499-1.677.295-.571-.2-.996-.682-1.122-1.276-1.945-9.164-6.044-15.328-12.185-18.322-11.714-5.704-27.214 1.738-27.371 1.81-.82.411-1.818.094-2.272-.703-.453-.801-.204-1.814.567-2.311 3.519-2.282 5.331-5.048 5.54-8.459.676-10.99-15.298-24.516-15.461-24.653-.597-.501-.787-1.34-.464-2.05.323-.706 1.085-1.111 1.851-.993 14.374 2.268 25.853.568 35.097-5.217.814-.505 1.887-.259 2.392.551.509.813.262 1.885-.549 2.393-8.78 5.492-19.321 7.599-32.099 6.386 5.12 5.162 13.246 14.837 12.698 23.789-.121 1.983-.648 3.818-1.575 5.494 6.163-1.724 15.253-3.015 23.167.844 6.553 3.193 11.075 9.317 13.462 18.222 2.976-1.809 8.639-4.435 15.086-3.246 5.526 1.018 10.356 4.591 14.389 10.631 2.798-4.36 9.665-12.015 22.475-9.383-1.204-2.609-2.577-5.958-2.67-7.856-.048-.956.728-1.732 1.647-1.82.957-.045 1.772.693 1.819 1.649.091 1.804 2.493 7.03 3.985 9.902.327.628.24 1.39-.221 1.928-.459.538-1.199.743-1.871.517-17.3-5.798-23.219 8.542-23.462 9.156-.237.601-.79 1.017-1.432 1.084z" fill="#662d91"/><g><path d="m90.602 99.848c-3.316-7.512-6.483-15.255-11.773-21.536s-13.219-10.974-21.387-10.129c-11.111 1.148-19.057 12.305-20.312 23.404-1.255 11.1 2.593 22.083 6.586 32.515 19.586 51.173 44.78 101.323 83.152 140.437l34.464-55.738c-29.19-32.231-53.171-69.171-70.73-108.953z" fill="#fff"/><path d="m126.868 266.517c-.512 0-1.024-.198-1.412-.593-33.088-33.729-59.648-78.569-83.586-141.115-4.266-11.144-7.988-22.087-6.704-33.443 1.269-11.218 9.436-23.844 22.074-25.149 8.058-.839 16.695 3.214 23.103 10.823 5.035 5.978 8.193 13.179 11.248 20.142l.821 1.868c17.543 39.745 41.225 76.225 70.387 108.425.733.81.671 2.06-.138 2.793-.81.733-2.059.673-2.793-.139-29.446-32.514-53.359-69.349-71.073-109.481l-.825-1.877c-2.942-6.707-5.983-13.642-10.651-19.184-5.564-6.606-12.915-10.135-19.672-9.437-10.582 1.094-17.455 11.976-18.55 21.66-1.184 10.473 2.384 20.916 6.468 31.585 23.737 62.022 50.021 106.432 82.716 139.76.765.779.753 2.031-.027 2.796-.386.377-.886.566-1.386.566z" fill="#662d91"/></g></g></svg>