<svg id="Layer_1" height="512" viewBox="0 0 128 128" width="512" xmlns="http://www.w3.org/2000/svg" data-name="Layer 1"><path d="m73.023 12a7.023 7.023 0 0 1 4.507 5.221c.7 4 2 19.734 2 19.734l9.3 2.782s.782-13.3-.957-19.56-4.953-11.392-7.648-12.783a10.754 10.754 0 0 0 -7.202 4.606z" fill="#af7e46"/><path d="m120.672 71.722c-.66-5.571-4.042-10.273-8.614-11.979a13.641 13.641 0 0 0 -11.945 1.611c-.108.068-.211.146-.317.217.733-6.967.855-11.625.855-11.625l-46.7 1.036-46.7-1.036s.69 26.4 8.684 47.533c3.45 9.121 5.6 14.6 6.936 17.873a11.459 11.459 0 0 0 7.974 6.506 92.344 92.344 0 0 0 46.22 0 11.461 11.461 0 0 0 7.974-6.506c.635-1.562 1.459-3.63 2.518-6.347a10.821 10.821 0 0 0 2.66.337 13.45 13.45 0 0 0 6.7-1.953c.084-.049.155-.09.2-.116a45.668 45.668 0 0 0 20.988-22.153c2.21-4.943 3.049-9.326 2.567-13.398zm-9.729 12.178c-3.636 8.134-13.087 17.119-20.326 17.32.554-1.45.711-2.048 1.351-3.74 2.9-7.662 5.7-23.837 5.7-23.837.886-2.587 2.474-3.667 4.363-4.867a7.47 7.47 0 0 1 6.3-.847 6.37 6.37 0 0 1 4.272 5.613 19.789 19.789 0 0 1 -1.66 10.358z" fill="#e6e6e6"/><ellipse cx="53.948" cy="49.946" fill="#f2f2f2" rx="46.703" ry="15.498"/><path d="m121.737 71.584c-.711-5.971-4.369-11.023-9.321-12.874a14.426 14.426 0 0 0 -11.344.826c.542-5.745.647-9.529.648-9.571 0 0 0-.007 0-.011v-.016c0-9.3-21-16.593-47.8-16.593s-47.8 7.288-47.8 16.593c0 .017 2.025 26.421 8.734 47.857 3 9.583 6.426 17.466 6.685 18.1 1.337 3.3 4.7 5.918 9 7.014a93.8 93.8 0 0 0 46.757 0 12.612 12.612 0 0 0 8.72-7.157c.628-1.544 1.368-3.405 2.193-5.51a16.155 16.155 0 0 0 9.367-2 46.807 46.807 0 0 0 21.5-22.684c2.297-5.133 3.165-9.704 2.661-13.974zm-4.654 13.082a44.619 44.619 0 0 1 -20.48 21.62c-.07.034-4.528 2.434-8.809 1.655a1.131 1.131 0 0 0 -1.19.5c-.036.036-1.9 4.744-2.61 6.486a10.419 10.419 0 0 1 -7.232 5.86 91.625 91.625 0 0 1 -45.677 0c-3.628-.925-6.436-3.061-7.513-5.717-.267-.653-3.66-8.46-6.624-17.931-6.533-20.871-8.548-46.232-8.631-47.239.061-6.946 18.369-14.369 45.605-14.369 27.272 0 45.594 7.442 45.608 14.4-.007.239-.143 4.816-.848 11.514a1.207 1.207 0 0 0 .209.765c.719.821 1.681.123 1.785.06a12.545 12.545 0 0 1 10.974-1.508c4.192 1.567 7.3 5.916 7.912 11.081.458 3.865-.354 8.057-2.479 12.823z" fill="#333"/><path d="m59.918 104.726c0 4.8-4.437 7.256-9.91 7.256s-9.909-2.453-9.909-7.256 1.786-8.7 9.909-8.7c7.466.002 9.91 3.896 9.91 8.7z" fill="#333"/><path d="m54.18 107.144c0 1.733-2.114 2.618-4.722 2.618s-4.721-.885-4.721-2.618.851-3.139 4.721-3.139c3.557 0 4.722 1.405 4.722 3.139z" fill="#eb6750"/><g fill="#333"><path d="m76.892 81.915c0 4.2-3.163 6.351-7.064 6.351s-7.065-2.147-7.065-6.351 1.274-7.615 7.065-7.615c5.322 0 7.064 3.411 7.064 7.615z"/><path d="m37.146 80.247c0 4.2-3.163 6.351-7.064 6.351s-7.064-2.147-7.064-6.351 1.273-7.612 7.064-7.612c5.318 0 7.064 3.408 7.064 7.612z"/><path d="m111.963 69.6a6.774 6.774 0 0 0 -4.381-2.726c-9.593-1.213-11.274 8.46-11.293 8.585a108.469 108.469 0 0 1 -6.789 25.549.981.981 0 0 0 .9 1.37h.05c7.821-.395 20.491-11.661 22.733-22.643.897-4.392.486-7.8-1.22-10.135zm-.7 9.739c-2.026 9.925-12.7 19.179-19.311 20.826a112.613 112.613 0 0 0 6.276-24.417c.05-.3 1.246-7.014 7.794-7.014a5.4 5.4 0 0 1 4.359 2.025c1.342 1.847 1.652 4.81.882 8.583z"/></g><path d="m88.292 48.388c-5.692-2.628-17.337-5.731-34.345-5.731s-28.656 3.103-34.347 5.731a1.715 1.715 0 0 0 0 3.115c.438.2.909.405 1.413.613 6.092-2.48 17.226-5.124 32.931-5.124s26.84 2.644 32.932 5.124c.5-.208.975-.411 1.413-.613a1.715 1.715 0 0 0 .003-3.115z" fill="#ccc"/><path d="m71.284 47.849c-.009-.159-4.219-18.1-.612-31.318l.037-.187c1.223-6.207 6.394-7.888 9.363-8.28.121-.009.241-.023.353-.032 0 0-3.028-4.425-11.85-4.743a23.472 23.472 0 0 0 -12.7 2.355c-17.886 8-19.5 41.089-19.522 41.342-12.752 2.189-15.341 5.13-15.341 5.13s10.007 4.349 31.994 5.1 34.2-5.245 34.2-5.245-4-2.919-15.922-4.122z" fill="#af7e46"/><path d="m89.567 24.17c-.99-11.436-7.506-16.591-8.225-17.127-5.4-4.95-18.619-7.824-29.515-.37-11.248 7.7-15.063 27.8-15.22 28.656a1 1 0 1 0 1.967.361c.037-.2 3.814-20.136 14.382-27.367a23.74 23.74 0 0 1 25.191-1.166 9.93 9.93 0 0 0 -5.493 3.436c-6.338 7.662-3.587 24.3-3.467 25.008a.956.956 0 0 0 .984.833.986.986 0 0 0 .987-1.167c-.026-.156-2.445-14.808 2.228-22.261.99.618 3.111 2.578 3.954 8.3a128.189 128.189 0 0 1 1.292 15.671 1 1 0 0 0 1 .993h.007a1 1 0 0 0 .993-1.007 130.572 130.572 0 0 0 -1.313-15.948c-.9-6.116-3.239-8.607-4.713-9.6a8.094 8.094 0 0 1 5.807-2.555c1.274 1.079 6.335 5.93 7.162 15.479.949 10.954.335 15.1.33 15.135a1 1 0 0 0 .829 1.146.956.956 0 0 0 .159.013 1 1 0 0 0 .986-.842c.028-.17.664-4.354-.312-15.621z" fill="#333"/></svg>