<svg id="Layer_1" enable-background="new 0 0 512 512" height="512" viewBox="0 0 512 512" width="512" xmlns="http://www.w3.org/2000/svg"><g><g><path d="m226.245 491.927c-.019.005-.039.01-.056.014-.652.142-1.329-.103-1.738-.629-4.715-6.061-9.788-9.246-15.084-9.459-7.803-.311-13.695 6.002-13.756 6.063-.412.446-1.02.652-1.617.533-.594-.116-1.084-.532-1.293-1.102-3.239-8.79-8.179-14.303-14.686-16.386-12.41-3.966-26.684 5.622-26.829 5.715-.753.524-1.786.354-2.35-.37-.563-.728-.462-1.766.23-2.369 3.155-2.763 4.552-5.76 4.27-9.166-.907-10.974-18.655-22.07-18.835-22.182-.663-.41-.971-1.214-.753-1.962.218-.745.915-1.255 1.689-1.248 14.55.184 25.667-3.145 33.987-10.195.733-.617 1.83-.527 2.446.203.62.732.53 1.828-.201 2.447-7.902 6.694-18.032 10.29-30.852 10.921 5.808 4.375 15.237 12.785 15.978 21.723.165 1.98-.094 3.872-.771 5.663 5.852-2.59 14.663-5.17 23.049-2.486 6.943 2.22 12.297 7.633 15.935 16.104 2.686-2.217 7.914-5.628 14.465-5.375 5.615.216 10.908 3.059 15.765 8.458 2.144-4.716 7.842-13.276 20.898-12.508-1.566-2.41-3.404-5.527-3.769-7.392-.185-.94.472-1.818 1.369-2.038.941-.182 1.853.432 2.036 1.372.349 1.772 3.475 6.6 5.364 9.228.413.574.437 1.341.057 1.94-.378.598-1.08.907-1.778.78-17.953-3.258-21.754 11.783-21.907 12.425-.15.629-.637 1.12-1.263 1.278z" fill="#4e2800"/><g><path d="m346.247 381.622s35.993-14.216 51.457-5.96c15.464 8.255 11.056 29.942 11.056 29.942s22.163-4.421 29.434 4.138c7.27 8.56-31.099 35.767-39.45 32.36s-12.944-21.122-12.944-21.122l-60.802 13.833z" fill="#382739"/><g><path d="m400.456 444.242c-.913 0-1.724-.131-2.414-.415-7.556-3.08-12.098-15.908-13.545-20.639l-59.084 13.439c-.68.156-1.382-.08-1.829-.604-.451-.527-.571-1.258-.313-1.902l21.25-53.19c.189-.476.567-.851 1.044-1.04 1.502-.596 36.973-14.421 53.016-5.872 13.348 7.123 13.083 23.017 12.392 29.329 6.287-.913 22.235-2.349 28.639 5.189 1.589 1.869 2.574 5.356-1.76 11.341-6.958 9.608-27.764 24.36-37.396 24.364zm-14.654-25.122c.833 0 1.585.56 1.804 1.393 1.214 4.68 5.709 17.366 11.839 19.868 4.909 1.985 27.25-11.443 35.391-22.683 1.316-1.822 3.323-5.12 1.938-6.749-5.374-6.331-21.777-4.687-27.65-3.52-.596.131-1.236-.065-1.68-.513-.44-.44-.633-1.073-.509-1.68.04-.204 3.931-20.439-10.109-27.93-13.348-7.127-43.987 3.833-49.154 5.763l-19.632 49.139 57.346-13.043c.143-.031.281-.045.416-.045z" fill="#382739"/></g></g><g><path d="m463.176 198.266c-2.25 5.507-4.674 10.683-7.211 15.621-1.778 3.453-3.607 6.762-5.497 9.978-2.202 3.689-4.476 7.203-6.77 10.551-2.149 3.163-4.369 6.15-6.568 9.034-6.13 7.807-12.453 14.58-18.701 20.455-2.859 2.696-5.708 5.206-8.515 7.509-3.366 2.808-6.7 5.326-9.909 7.629-3.24 2.323-6.377 4.398-9.326 6.216-14.292 8.832-24.424 12.143-24.424 12.143-5.594 1.871-23.75-33.665-13.473-37.162 0 0 45.519-17.172 69.172-66.175.801-1.691-4.171-3.402-1.916-7.483 2.505-4.649 5.891-1.353 6.682-3.261 4.145-10.065 15.656-14.869 25.7-10.755 10.066 4.145 14.901 15.635 10.756 25.7z" fill="#776c74"/><g><path d="m395.512 283.703c-16.192 10.714-28.306 14.852-28.806 15.017-1.268.429-2.741-.081-4.379-1.515-6.093-5.336-15.568-24.617-13.813-33.467.619-3.117 2.425-4.341 3.834-4.822.403-.155 45.22-17.583 68.32-65.46-.075.174-.456-.284-.699-.575-1.048-1.267-2.999-3.623-1.168-6.988 1.965-3.613 4.663-3.441 6.117-3.345.273.018.646.041.765.013 1.885-5.002 5.939-9.064 11.13-11.243 5.203-2.176 10.939-2.196 16.151-.057 5.211 2.139 9.282 6.182 11.456 11.386 2.176 5.203 2.197 10.94.058 16.153-18.186 44.321-47.245 70.527-68.966 84.903zm-42.814-21.843c-2.531 1.674-1.406 7.479-.766 10.027 2.971 11.843 11.702 24.522 13.881 24.161.006-.001.004 0 .009-.004.643-.208 64.692-21.895 96.051-98.318 1.854-4.516 1.835-9.486-.05-13.996s-5.412-8.015-9.93-9.867c-4.514-1.853-9.486-1.835-13.993.051-4.528 1.888-8.016 5.413-9.868 9.928-.688 1.678-2.32 1.574-3.297 1.514-1.315-.087-2.354-.151-3.461 1.88-.875 1.61-.241 2.509.865 3.847.747.901 1.769 2.137 1.066 3.594-23.6 48.919-69.452 66.715-69.906 66.886-.221.078-.419.177-.601.297z" fill="#352839"/></g></g><path d="m216.695 70.083s-48.259-18.894-82.255-46.468-39.83 112.34 19.915 116.936z" fill="#352839"/><path d="m209.977 71.645-38.93 44-18.32 20.71c-30.83-4.18-40.69-49.83-39.6-78.26.78-20.43 6.32-32.19 11.58-33.86.44-.15.87-.22 1.3-.22 1.69 0 3.73.94 5.91 2.71 27.87 22.6 64.51 39.19 78.06 44.92z" fill="#776c74"/><path d="m209.977 71.645-38.93 44c-38.03-25.14-45.43-67.36-46.34-91.41.44-.15.87-.22 1.3-.22 1.69 0 3.73.94 5.91 2.71 27.87 22.6 64.51 39.19 78.06 44.92z" fill="#534954"/><path d="m273.363 70.083s48.259-18.894 82.255-46.468 39.83 112.34-19.915 116.936z" fill="#352839"/><path d="m280.081 71.645 38.93 44 18.32 20.71c30.83-4.18 40.69-49.83 39.6-78.26-.78-20.43-6.32-32.19-11.58-33.86-.44-.15-.87-.22-1.3-.22-1.69 0-3.73.94-5.91 2.71-27.87 22.6-64.51 39.19-78.06 44.92z" fill="#776c74"/><path d="m280.081 71.645 38.93 44c38.03-25.14 45.43-67.36 46.34-91.41-.44-.15-.87-.22-1.3-.22-1.69 0-3.73.94-5.91 2.71-27.87 22.6-64.51 39.19-78.06 44.92z" fill="#534954"/><g><path d="m215.297 421.575c-.11.026-.221.047-.334.064-53.597 7.911-95.58-1.803-124.779-28.872-25.77-23.889-36.369-57.02-40.722-80.607-4.689-25.407-3.375-44.985-3.317-45.806.076-1.066.574-2.057 1.385-2.752.491-.421 1.071-.713 1.688-.858.403-.095.822-.128 1.243-.093 56.555 4.617 90.61 29.792 109.22 50.099 19.048 20.784 26.118 40.445 27.111 43.408l31.133 59.674c.599 1.148.605 2.515.017 3.668-.536 1.051-1.507 1.807-2.645 2.075z" fill="#352839"/><path d="m214.38 417.678c-15.48 2.28-29.514 3.018-42.226 2.437-10.458-.475-20.023-1.828-28.777-3.926-6.325-1.51-12.227-3.407-17.729-5.655-9.857-3.986-18.437-9.054-25.904-14.887-6.768-5.268-12.628-11.172-17.685-17.46-7.904-9.829-13.887-20.615-18.408-31.478-3.767-9.058-6.51-18.171-8.502-26.846-3.59-15.5-4.771-29.584-5.101-39.359-.288-8.593.082-13.868.082-13.868 4.902.397 9.636.956 14.206 1.646 15.513 2.356 29.127 6.33 41.049 11.319 6.519 2.728 12.527 5.771 18.069 9.017 10.273 6.015 18.93 12.759 26.162 19.603 4.56 4.309 8.551 8.65 12.037 12.893 7.681 9.317 12.927 18.108 16.295 24.733 1.202 2.357 2.164 4.432 2.921 6.164 1.564 3.587 2.227 5.701 2.227 5.701l11.087 21.244z" fill="#776c74"/><g fill="#352839"><path d="m105.386 279.601c-23.569 7.453-40.049 25.328-50.237 40.262-3.59-15.5-4.771-29.584-5.101-39.359 4.317-4.264 9.077-8.395 14.288-12.222 15.514 2.356 29.128 6.33 41.05 11.319z"/><path d="m149.617 308.222c-7.007 2.966-15.388 7.118-23.869 12.763-22.373 14.887-37.023 34.077-43.688 57.202-7.904-9.829-13.887-20.615-18.408-31.478 10.431-19.83 26.248-36.902 46.958-50.472 4.361-2.856 8.675-5.393 12.845-7.618 10.272 6.014 18.93 12.759 26.162 19.603z"/><path d="m125.648 410.534c-9.857-3.986-18.437-9.054-25.904-14.887 2.426-8.02 5.929-17.177 10.991-26.435 9.256-16.923 24.926-36.405 50.918-48.097 7.681 9.317 12.927 18.108 16.295 24.733-35.292 13.594-47.908 46.216-52.3 64.686z"/><path d="m194.184 378.957c-12.244 11.699-19.611 25.476-22.03 41.158-10.458-.475-20.023-1.828-28.777-3.926 3.68-24.979 16.352-46.766 37.493-64.177 1.564 3.587 2.227 5.701 2.227 5.701z"/></g></g><g><path d="m313.507 444.055c-9.35 1.25-19.82 1.81-31.52 1.56-12.03-.26-22.87-1.29-32.63-2.99-125.86-21.97-72.01-154.77-72.01-154.77-7.41-9.71 3.76-15.78 3.76-15.78-8.86-21.12 14.81-24.04 14.81-24.04s.82.06 2.34.16c16.94 1.18 121.24 8.62 157.2 16v.01c5.76 1.17 9.76 2.35 11.38 3.5 12.63 8.98-1.94 20.63-1.94 20.63s72.87 139.12-51.39 155.72z" fill="#776c74"/><path d="m345.727 295.015c14.587 22.794 36.322 122.368-32.22 149.04-9.35 1.25-19.82 1.81-31.52 1.56-12.03-.26-22.87-1.29-32.63-2.99 2.53-2.54 12.91-14.86 7.81-42.16-5.79-30.98-31.12-110.82-54.03-125.88-8.37-5.5-8.32-15.69-4.88-26.39 16.94 1.18 121.24 8.62 157.2 16v.01c2.52 3.49 4.06 5.63 4.06 5.63s5.78 20.33-13.79 25.18z" fill="#bfada9"/><g><path d="m287.371 447.537c-1.787 0-3.594-.02-5.427-.058-50.087-1.071-84.77-15.725-103.09-43.556-28.939-43.967-6.825-107.224-3.611-115.798-2.007-2.967-2.707-5.951-2.08-8.88.833-3.9 3.843-6.594 5.654-7.903-2.213-6.032-2.078-11.252.404-15.534 4.689-8.083 15.988-9.56 16.466-9.618.115-.015.233-.016.353-.011 16.256 1.098 159.189 10.978 171.877 20.006 3.827 2.724 5.822 5.987 5.925 9.7.164 5.765-4.422 10.805-6.634 12.892 5.287 10.563 37.26 78.398 10.009 122.365-14.973 24.162-45.188 36.395-89.846 36.395zm-91.386-197.629c-1.294.198-10.067 1.756-13.548 7.781-2.056 3.556-1.925 8.152.385 13.663.369.876.011 1.894-.822 2.353-.044.025-4.38 2.454-5.2 6.336-.442 2.096.238 4.345 2.022 6.683.4.524.493 1.218.245 1.829-.273.674-26.968 67.968 2.907 113.336 17.606 26.737 51.268 40.823 100.05 41.865 46.23.994 77.193-10.641 92.025-34.567 27.873-44.958-10.412-119.24-10.801-119.985-.413-.787-.209-1.758.484-2.316.065-.053 6.556-5.34 6.391-10.905-.073-2.48-1.542-4.754-4.363-6.763-9.99-7.107-125.744-16.336-169.775-19.31z" fill="#352839"/></g></g><path d="m326.511 303.544c-.874 0-1.654-.618-1.827-1.511-.193-1.009.467-1.985 1.478-2.18 24.013-4.62 37.611-13.007 37.745-13.092.869-.544 2.016-.284 2.565.589.547.871.284 2.02-.587 2.565-.569.358-14.263 8.83-39.022 13.596-.117.022-.235.033-.352.033z" fill="#352839"/><circle cx="320.568" cy="302.837" fill="#352839" r="1.789"/><g><path d="m411.027 214.555c-.25 2.02-.57 3.95-1.01 5.84-1.42 6.5-3.91 12.31-7.22 17.49-.15.23-.32.47-.51.73-4.5 6.18-19.83 18.75-42.77 31.22-21.15 6.3-50.7 12.63-86.27 12.73-27.81.08-51.63-3.67-70.11-7.98-24.72-6.97-46.47-21.93-55.04-30.36-4.45-4.39-8.49-9.28-11.93-14.77-2.87-4.55-5.34-9.5-7.29-14.9-1.17-3.22-2.18-6.5-2.97-9.78-1.58-6.22-2.49-12.56-2.78-18.91-.4-8.25.24-16.55 1.84-24.74 1.99-10.13 5.47-20.1 10.32-29.6 20.42-39.93 65.14-71.71 125.73-73.61 1.93-.06 3.85-.09 5.78-.09 6.94 0 13.76.41 20.42 1.2 46.38 5.42 84.32 29.39 98.84 65.33 2.47 6.11 4.27 12.57 5.31 19.35.43 2.75.98 5.35 1.63 7.84.03.12.06.24.09.36 2.57 9.75 6.6 17.74 10.24 25.57 3.19 6.91 6.06 13.66 7.36 21.4.82 4.76 1.04 9.91.34 15.68z" fill="#776c74"/><path d="m392.997 151.545c-9.32-9.53-31.8-29.97-50.57-26.82-24.06 4.03-16.39 54.94-16.2 56.15-.19-.11-4.35-.96-76.82-4.67 15.9-98.64-122.65-14.33-122.65-14.33s-.65-.27-1.79-.75c1.99-10.13 5.47-20.1 10.32-29.6 20.42-39.93 65.14-71.71 125.73-73.61 1.93-.06 3.85-.09 5.78-.09 6.94 0 13.76.41 20.42 1.2 46.38 5.42 84.32 29.39 98.84 65.33 2.47 6.11 4.27 12.57 5.31 19.35.43 2.75.98 5.35 1.63 7.84z" fill="#574b59"/><path d="m203.137 276.452c-.169 0-.338-.022-.507-.069-25.215-7.112-47.21-22.335-55.841-30.831-4.749-4.682-8.854-9.765-12.203-15.11-3.005-4.758-5.518-9.89-7.463-15.25-1.231-3.398-2.249-6.758-3.025-9.985-1.582-6.232-2.534-12.719-2.827-19.255-1.42-29.408 10.294-59.846 32.138-83.501 26.382-28.57 64.579-45.045 107.553-46.392 8.827-.284 17.759.085 26.473 1.116 57.224 6.689 98.744 40.542 105.773 86.245 1.871 12.114 6.238 21.406 10.461 30.391l1.347 2.876c3.053 6.62 6.143 13.756 7.503 21.877.913 5.309 1.031 10.616.358 16.216-.28 2.253-.622 4.225-1.045 6.04-1.404 6.427-3.92 12.514-7.472 18.065-6.987 10.943-28.311 27.988-44.311 32.738-.984.293-2.022-.271-2.314-1.256-.293-.985.269-2.022 1.256-2.314 15.261-4.531 35.582-20.759 42.232-31.173 3.314-5.18 5.662-10.859 6.978-16.881.398-1.709.716-3.556.98-5.669.629-5.231.52-10.185-.333-15.141-1.285-7.676-4.267-14.552-7.211-20.935l-1.338-2.858c-4.336-9.225-8.82-18.763-10.772-31.408-6.766-44.003-47.011-76.627-102.527-83.116-8.532-1.009-17.261-1.367-25.919-1.093-41.972 1.314-79.238 17.366-104.937 45.196-21.174 22.928-32.528 52.379-31.155 80.803.282 6.291 1.196 12.525 2.724 18.535.747 3.114 1.725 6.34 2.911 9.609 1.853 5.107 4.247 9.998 7.114 14.536 3.2 5.107 7.121 9.963 11.663 14.441 8.356 8.225 29.699 22.977 54.239 29.899.989.28 1.565 1.309 1.287 2.298-.232.82-.979 1.356-1.79 1.356z" fill="#352839"/></g><path d="m342.431 197.531c0 27.894-22.612 50.506-50.506 50.506s-50.506-22.612-50.506-50.506c0-18.924 16.941-28.79 25.812-44.068 4.125-7.103 9.55-25.295 24.694-25.295 17.537 0 21.565 21.198 26.856 29.362 11.064 17.071 23.65 22.567 23.65 40.001z" fill="#bfada9"/><path clip-rule="evenodd" d="m154.355 175.785s52.596-50.775 79.149-39.43 17.362 46.276 5.617 65.832-49.021 53.642-81.837 28.162c-24.282-18.855-17.734-41.672-2.929-54.564z" fill="#382739" fill-rule="evenodd"/><path clip-rule="evenodd" d="m411.027 214.555c-.25 2.02-.57 3.95-1.01 5.84-1.42 6.5-3.91 12.31-7.22 17.49-.15.23-.32.47-.51.73-27.65 5.8-54.77-20.27-64.48-36.43-11.74-19.55-20.93-54.48 5.62-65.83 13.31-5.69 33.17 4.23 49.66 15.55 2.57 9.75 6.6 17.74 10.24 25.57 3.19 6.91 6.06 13.66 7.36 21.4.82 4.76 1.04 9.91.34 15.68z" fill="#382739" fill-rule="evenodd"/><ellipse cx="198.445" cy="202.161" fill="#fac" rx="26.793" ry="13.497"/><ellipse cx="372.524" cy="202.161" fill="#fac" rx="26.793" ry="13.497"/><path d="m311.23 155.126c0 3.725-12.02 6.744-12.02 6.744s-12.02-3.019-12.02-6.744 5.382-4.504 12.02-4.504 12.02.78 12.02 4.504z" fill="#382739"/><path d="m326.227 180.895s0-.01 0-.02c.02.02 0 .02 0 .02z" fill="#574b59"/><g><path d="m178.339 298.471s-8.023-3.91-19.282-12.818c-2.662-2.104-5.526-4.486-8.518-7.23-2.901-2.564-5.875-5.441-8.893-8.605-2.509-2.615-5.056-5.412-7.59-8.448-5.833-6.894-11.653-14.871-17.097-24.005-1.88-3.102-3.688-6.341-5.43-9.768-1.856-3.578-3.642-7.293-5.335-11.225-1.447-3.366-2.877-6.866-4.183-10.505-2.216-5.983-4.191-12.351-5.895-19.025-2.68-10.518 3.675-21.25 14.218-23.958 10.518-2.68 21.251 3.675 23.958 14.218.519 1.999 4.33-.795 6.165 4.157 1.667 4.355-3.467 5.384-2.936 7.145 16.622 51.812 59.317 75.135 59.317 75.135 13.773 8.063 15.908 24.818 9.031 32.846-5.479 6.396-17.372 8.054-27.53 2.086z" fill="#776c74"/><path d="m151.268 280.844c-19.517-17.25-44.654-47.233-56.514-93.655-1.394-5.459-.577-11.138 2.3-15.988 2.876-4.852 7.468-8.29 12.926-9.686 11.257-2.872 22.744 3.927 25.654 15.152.016-.119.323-.096.555-.079 1.45.105 4.149.311 5.592 4.161 1.346 3.587-.914 5.649-2.127 6.758-.281.254-.701.64-.78.798 16.251 50.337 58.201 73.775 58.624 74.008.672.357.935 1.227.558 1.91-.373.682-1.228.934-1.91.558-.429-.231-43.365-24.22-59.946-75.941-.493-1.542.691-2.624 1.555-3.413 1.28-1.171 2.033-1.974 1.39-3.69-.813-2.163-1.85-2.244-3.166-2.342-.975-.075-2.606-.192-3.054-1.959-2.498-9.766-12.475-15.689-22.246-13.193-4.731 1.208-8.71 4.189-11.203 8.393s-3.201 9.123-1.992 13.853c20.448 80.043 80.864 110.404 81.475 110.698.701.346.986 1.187.646 1.883-.341.699-1.185.989-1.883.648-.267-.129-11.772-5.898-26.454-18.874z" fill="#352839"/></g><g fill="#382739"><path d="m276.895 429.439s4.819 17.655 13.213 20.953 46.409-24.402 39.029-32.867-29.485-3.758-29.485-3.758 4.128-21.742-11.441-29.797-51.375 6.624-51.375 6.624c-11.506 11.122-12.708 28.262-4.754 38.641 9.468 12.353 31.243 14.26 44.813.204z"/><path d="m329.215 415.007c.477.399.918.829 1.326 1.293 1.614 1.851 2.643 5.326-1.615 11.369-7.481 10.613-31.475 27.61-39.498 24.458-9.154-3.603-14.122-21.44-14.329-22.201-.272-.99.313-2.013 1.306-2.283.987-.274 2.015.305 2.285 1.303 1.274 4.662 5.933 17.307 12.101 19.713 4.936 1.941 27.098-11.791 35.091-23.137 1.297-1.835 3.26-5.16 1.854-6.772-5.432-6.293-21.843-4.403-27.695-3.161-.608.127-1.212-.013-1.688-.492-.444-.433-.642-1.063-.529-1.674.041-.202 3.703-20.485-10.465-27.8-14.636-7.573-49.466 6.547-49.814 6.692-.954.393-2.041-.075-2.43-1.016-.39-.951.065-2.04 1.016-2.43 1.497-.612 36.791-14.907 52.94-6.554 13.417 6.938 13.37 22.849 12.767 29.169 5.878-.928 20.248-2.434 27.377 3.523z"/></g><path clip-rule="evenodd" d="m262.918 225.426c-.424-19.075 23.856-39.813 31.788-40.863s27.552 9.81 31.444 32.52c5.247 30.61-62.656 34.21-63.232 8.343z" fill="#382739" fill-rule="evenodd"/><path clip-rule="evenodd" d="m276.497 200.799c13.528 2.176 33.211 8.681 45.074 27.747-1.15 1.699-2.65 3.208-4.407 4.529-5.326 4.004-12.914 6.332-20.658 7.037-9.28.845-18.824-.625-25.02-4.639-3.699-2.396-6.141-5.729-6.238-10.1-.191-8.585 5.003-17.472 11.249-24.574z" fill="#ff0075" fill-rule="evenodd"/><g><circle cx="211.062" cy="165.077" fill="#fff" r="39.138"/><g><path d="m213.828 205.651c-22.373 1.525-41.815-15.437-43.34-37.81s15.437-41.815 37.81-43.34 41.815 15.437 43.34 37.81-15.437 41.816-37.81 43.34zm-5.322-78.095c-20.689 1.41-36.373 19.388-34.964 40.077s19.388 36.373 40.077 34.964 36.373-19.388 34.964-40.077c-1.41-20.69-19.388-36.374-40.077-34.964z" fill="#382739"/></g></g><g><circle cx="368.044" cy="164.118" fill="#fff" r="39.138"/><g><path d="m370.81 204.693c-22.373 1.525-41.815-15.437-43.34-37.81s15.437-41.815 37.81-43.34 41.815 15.437 43.34 37.81c1.524 22.373-15.437 41.815-37.81 43.34zm-5.322-78.095c-20.689 1.41-36.373 19.388-34.964 40.077s19.388 36.373 40.077 34.964c20.689-1.41 36.373-19.388 34.964-40.077-1.41-20.69-19.388-36.374-40.077-34.964z" fill="#382739"/></g></g></g></g></svg>